<?xml version="1.0" encoding="iso-8859-1"?>
<!-- Generator: Adobe Illustrator 30.0.0, SVG Export Plug-In . SVG Version: 9.03 Build 0)  -->
<svg version="1.1" id="Capa_1" xmlns="http://www.w3.org/2000/svg" xmlns:xlink="http://www.w3.org/1999/xlink" x="0px" y="0px"
	 viewBox="0 0 2000 2000" style="enable-background:new 0 0 2000 2000;" xml:space="preserve">
<g>
	<g>
		<g id="XMLID_5_">
			<rect x="100" y="1495.15" style="fill:#00C793;" width="1800" height="404.11"/>
		</g>
		<g style="opacity:0.27;">
			<g style="opacity:0.27;">
				<rect x="100" y="1495.15" style="fill:#FFFFFF;" width="196.2" height="404.11"/>
			</g>
			<g style="opacity:0.27;">
				<rect x="807.04" y="1495.15" style="fill:#FFFFFF;" width="209.29" height="404.11"/>
			</g>
			<g style="opacity:0.27;">
				<rect x="1153.18" y="1495.15" style="fill:#FFFFFF;" width="206.67" height="404.11"/>
			</g>
			<g style="opacity:0.27;">
				<rect x="1496.71" y="1495.15" style="fill:#FFFFFF;" width="169.96" height="404.11"/>
			</g>
			<g style="opacity:0.27;">
				<rect x="1803.52" y="1495.15" style="fill:#FFFFFF;" width="96.48" height="404.11"/>
			</g>
			<g style="opacity:0.27;">
				<rect x="464.37" y="1495.15" style="fill:#FFFFFF;" width="205.81" height="404.11"/>
			</g>
		</g>
		<g>
			<g>
				<rect x="100" y="1536.01" style="fill:#FFFFFF;" width="1800" height="17.59"/>
			</g>
		</g>
	</g>
	<g>
		<g>
			<g>
				<g>
					<g>
						<g>
							<g>
								<path d="M815.62,1430.75c-1.74-88.14-7.74-177.48-29.07-263.25c-12.78-51.38-94.98-39.2-82.05,12.8
									c20.4,82.04,27.2,167.78,28.76,252.15c1.57,84.87-13.97,167-25,250.72c-6.98,52.99,75.5,62.47,82.48,9.46
									C802.28,1604.98,817.38,1519.6,815.62,1430.75z"/>
							</g>
							<g>
								<g>
									<path style="fill:#FFFFFF;" d="M767.07,1683.24c0,0-10.46-57.28,7.18-81.02c10.43-14.03,35.06-6.54,35.83,10.46l2.42,53.34
										c-7.73,5.08-17.8,10.66-30.91,14.28C776.42,1681.72,771.55,1682.65,767.07,1683.24z"/>
									<path d="M765.64,1685.2l-0.3-1.65c-0.43-2.37-10.39-58.31,7.5-82.38c5.23-7.04,14.51-9.78,23.64-6.98
										c8.94,2.73,14.97,9.96,15.35,18.41l2.46,54.34l-0.84,0.55c-10.46,6.87-20.44,11.48-31.41,14.5
										c-4.82,1.33-9.78,2.33-14.75,2.99L765.64,1685.2z M789.42,1596.63c-5.51,0-10.57,2.35-13.76,6.64
										c-15.33,20.63-8.66,68.46-7.14,77.99c4.24-0.63,8.47-1.52,12.59-2.66c13.34-3.68,23.16-9.35,29.58-13.5l-2.37-52.34
										c-0.31-6.94-5.36-12.91-12.86-15.21C793.43,1596.93,791.4,1596.63,789.42,1596.63z"/>
								</g>
								<g>
									<path style="fill:#FFBC00;" d="M720.28,1795.21c6.03,3.61,12.97,6.21,19.12,8.15c27.26,8.6,262.05,17.07,272.93-0.2
										c28.3-44.89-91-70.7-102.89-73.81c0,0-63.9-16.72-97.54-65.22c0,0-42.39,38.69-101.13,2.91
										c-2.35-1.45-16.55,74.66-4.79,112.18C708.12,1786.06,713.65,1791.24,720.28,1795.21z"/>
									<path d="M910.63,1814.96c-10.23,0-20-0.1-28.65-0.24c-65.36-1.07-129.56-5.41-143.1-9.68c-7.96-2.51-14.33-5.23-19.5-8.32
										c-7.97-4.76-13.05-10.48-15.08-16.97c-11.33-36.17,1.39-111.1,5.2-114.07l0.96-0.75l1.23,0.61
										c29.72,18.1,55.03,16.42,71.03,11.81c17.39-5,27.9-14.43,28-14.53l1.48-1.35l1.14,1.65c32.9,47.44,95.91,64.36,96.54,64.52
										c0.71,0.19,1.8,0.45,3.22,0.8c60.65,14.8,95.49,32.41,103.56,52.33c3.08,7.61,2.13,15.46-2.84,23.32
										C1008.19,1813.04,955.14,1814.96,910.63,1814.96z M711.36,1669.45c-3.5,10.32-14.38,75.18-3.71,109.25
										c1.77,5.64,6.32,10.69,13.53,15h0c4.92,2.95,11.06,5.56,18.75,7.98c13.05,4.12,78.13,8.48,142.11,9.52
										c89.97,1.46,125.62-3.92,128.8-8.97c4.38-6.95,5.21-13.54,2.55-20.13c-5.23-12.93-27.03-32.15-101.13-50.23
										c-1.44-0.35-2.55-0.62-3.27-0.81l0.01-0.05c-5.66-1.47-64.99-19.03-97.45-64.32
										C803.4,1673.08,763.59,1700.29,711.36,1669.45z M709.85,1668.54c0,0,0.01,0,0.01,0.01
										C709.86,1668.55,709.85,1668.55,709.85,1668.54z"/>
								</g>
								<g>
									<path style="fill:#FFFFFF;" d="M735.33,1731.45c-0.04-23.6-12.73-40.95-26.99-57.34c-4.73,20.73-11.86,80.92,0.5,109.52
										C709.57,1783.06,735.38,1763.61,735.33,1731.45z"/>
									<path d="M708.18,1786.36l-0.95-2.04c-12.9-29.82-4.95-91.51-0.6-110.6l0.77-3.38l2.27,2.61
										c13.25,15.22,27.39,33.56,27.42,58.49l0,0c0.05,31.61-24.34,51.38-27.12,53.53L708.18,1786.36z M709.32,1677.94
										c-5.02,24.83-9.56,76.65,0.26,102.81c6.18-5.34,24.04-23.02,24-49.29l0,0C733.54,1709.09,721.9,1692.67,709.32,1677.94z"/>
								</g>
								<g>
									<path style="fill:#FFFFFF;" d="M802.72,1721.17c12.99,8.85,27.67,14.81,42.38,19.57c19.37,6.26,39.87,10.31,59.97,12.56
										c19.93,2.23,40.51,2.39,60.13-1.97c1.66-0.37,3.3-0.81,4.94-1.24c-15.19-6.95-34.94-13.97-60.7-20.74
										c0,0-63.9-16.72-97.54-65.22c0,0-16.06,14.63-42.09,17.56C776.8,1698.12,788.31,1711.36,802.72,1721.17z"/>
									<path d="M931.02,1756.6c-8.24,0-16.93-0.52-26.14-1.55c-21.58-2.42-41.87-6.67-60.32-12.64
										c-17.89-5.78-31.5-12.07-42.83-19.79l0,0c-15.33-10.45-26.62-23.99-33.54-40.25l-0.93-2.17l2.34-0.27
										c25.17-2.84,40.95-16.97,41.1-17.11l1.48-1.35l1.14,1.65c32.89,47.42,95.91,64.36,96.54,64.52
										c24.05,6.32,44.57,13.33,60.99,20.84l4.5,2.06l-5.74,1.49c-1.34,0.35-2.69,0.7-4.05,1.01
										C954.91,1755.42,943.48,1756.6,931.02,1756.6z M803.71,1719.72c11.05,7.52,24.37,13.67,41.93,19.35
										c18.22,5.89,38.28,10.09,59.63,12.49c22.7,2.55,42.16,1.92,59.49-1.93c-15.41-6.65-34.14-12.89-55.77-18.57
										c-0.64-0.17-63.52-17.07-97.43-64.34c-4.47,3.57-18.46,13.49-39.19,16.43C779.09,1697.82,789.62,1710.12,803.71,1719.72
										L803.71,1719.72z"/>
								</g>
								<g>
									<path d="M747.08,1806.01c0.16,0.83,0.32,1.65,0.54,2.46c2.53,9.36,8.68,15.97,13.71,14.74c4.2-1.03,6.32-7.2,5.38-14.62
										L747.08,1806.01z"/>
									<path d="M760.11,1825.12c-5.62,0-11.61-6.67-14.19-16.19c-0.23-0.82-0.39-1.66-0.56-2.51l-0.47-2.4l2.41,0.24l20.98,2.77
										l0.17,1.35c1.09,8.65-1.61,15.3-6.71,16.55C761.21,1825.05,760.66,1825.12,760.11,1825.12z M749.33,1808.08
										c2.46,8.98,8.07,14.3,11.58,13.42c2.91-0.71,4.62-5.48,4.19-11.35L749.33,1808.08z"/>
								</g>
								<g>
									<path d="M738.3,1805.25c-0.38,7.15-3.35,12.59-7.55,13.05c-5.18,0.57-10.19-6.76-11.25-16.34
										c-0.22-1.98-0.24-3.85-0.08-5.68C719.42,1796.28,724.92,1800.2,738.3,1805.25z"/>
									<path d="M730.19,1820.09c-5.91,0-11.29-7.65-12.44-17.93c-0.23-2.09-0.26-4.06-0.08-6.03l0.28-3.04l2.49,1.77
										c0.06,0.04,5.53,3.87,18.48,8.75l1.2,0.45l-0.07,1.28c-0.44,8.24-4.1,14.16-9.12,14.71
										C730.69,1820.08,730.44,1820.09,730.19,1820.09z M721.08,1799.37c0.02,0.78,0.08,1.58,0.17,2.4
										c1.04,9.35,5.68,15.17,9.31,14.78c2.92-0.32,5.31-4.5,5.89-10.13C728.77,1803.46,723.82,1800.93,721.08,1799.37z"/>
								</g>
								<g>
									<path d="M910.38,1815.25c-0.04,0.84-0.07,1.67-0.04,2.57c0.32,9.62,4.81,17.24,10.03,17c5.15-0.24,9.12-8.25,8.8-17.87
										c-0.01-0.45-0.03-0.9-0.11-1.28L910.38,1815.25z"/>
									<path d="M920.13,1836.59c-1.94,0-3.84-0.81-5.51-2.36c-3.49-3.23-5.8-9.49-6.03-16.35c-0.03-0.94,0-1.82,0.04-2.7
										l0.07-1.73l21.83,0.5l0.27,1.39c0.09,0.46,0.12,0.99,0.13,1.52c0.36,10.79-4.24,19.44-10.48,19.72
										C920.34,1836.59,920.24,1836.59,920.13,1836.59z M912.09,1817.05c0,0.23,0,0.47,0.01,0.71c0.2,5.86,2.12,11.31,4.9,13.88
										c1.08,1,2.2,1.44,3.28,1.42c3.57-0.17,7.33-6.61,7.14-15.67L912.09,1817.05z"/>
								</g>
								<g>
									<path d="M942.72,1815.6c-0.05,0.39-0.04,0.84-0.02,1.22c0.3,9.62,4.77,17.25,9.99,17.02c5.21-0.23,9.14-8.24,8.84-17.85
										c-0.01-0.19-0.01-0.38-0.02-0.58L942.72,1815.6z"/>
									<path d="M952.46,1835.61c-1.94,0-3.85-0.82-5.52-2.37c-3.49-3.23-5.78-9.5-6-16.36c-0.01-0.47-0.02-1.02,0.04-1.5l0.2-1.52
										l22.04-0.22l0.08,2.3c0.33,10.75-4.29,19.39-10.53,19.67C952.66,1835.61,952.56,1835.61,952.46,1835.61z M944.47,1817.35
										c0.28,5.64,2.16,10.82,4.85,13.31c1.08,1,2.18,1.47,3.28,1.43c3.54-0.15,7.15-6.13,7.18-14.89L944.47,1817.35z"/>
								</g>
								<g>
									<path d="M975.59,1813.7c-0.86,9.58,2.67,17.61,7.89,17.9c5.21,0.29,10.09-7.27,10.95-16.85c0.12-1.28,0.17-2.56,0.09-3.78
										L975.59,1813.7z"/>
									<path d="M983.76,1833.36c-0.13,0-0.26,0-0.38-0.01c-2.05-0.11-3.97-1.13-5.54-2.95c-3.08-3.57-4.62-10.03-4-16.86
										l0.13-1.38l22.2-3.2l0.12,1.91c0.07,1.19,0.04,2.52-0.1,4.05C995.24,1825.37,989.82,1833.36,983.76,1833.36z
										 M977.25,1815.23c-0.23,5.32,1,10.27,3.25,12.87c0.94,1.09,1.97,1.67,3.07,1.73c3.79,0.18,8.26-5.88,9.1-15.25
										c0.05-0.57,0.08-1.09,0.11-1.59L977.25,1815.23z"/>
								</g>
								<g>
									
										<rect x="805.35" y="1722.02" transform="matrix(0.8132 -0.5819 0.5819 0.8132 -847.228 807.671)" width="58.71" height="3.52"/>
								</g>
								<g>
									
										<rect x="842.08" y="1738.82" transform="matrix(0.7988 -0.6015 0.6015 0.7988 -871.9669 873.6005)" width="56.31" height="3.52"/>
								</g>
								<g>
									
										<rect x="877.32" y="1750.39" transform="matrix(0.7718 -0.6359 0.6359 0.7718 -907.5298 975.6207)" width="56.21" height="3.52"/>
								</g>
							</g>
						</g>
					</g>
					<g>
						<g>
							<path d="M1517.81,1037.54c-2.35-61.8-16.93-137.73-79.77-167.02c-57.45-26.78-127.45,11.25-172.47,46.51
								c-58.86,46.09-101.63,107.76-144.48,168.17c-30.97,43.66,40.99,85.18,71.69,41.9c30.74-43.35,61.18-87.19,99.74-124.09
								c24.97-23.9,93.45-83.36,123.02-43.63c29.36,39.44,19.99,104.5,19.92,151.07c-0.09,58.27-2.22,116.47-4.31,174.69
								c-1.91,53.43,81.11,53.36,83.02,0C1517.13,1202.77,1520.94,1119.97,1517.81,1037.54z"/>
						</g>
						<g>
							<g>
								<path style="fill:#FFFFFF;" d="M1485.95,1257.9c0,0-12.06-56.97,4.91-81.18c10.03-14.32,34.86-7.52,36.1,9.45l3.91,53.25
									c-7.58,5.29-17.49,11.16-30.5,15.14C1495.26,1256.12,1490.41,1257.18,1485.95,1257.9z"/>
								<path d="M1484.58,1259.9l-0.35-1.64c-0.5-2.36-12.02-58,5.19-82.56c5.04-7.18,14.24-10.17,23.44-7.64
									c9.01,2.49,15.24,9.54,15.86,17.98l3.98,54.25l-0.82,0.57c-10.26,7.16-20.11,12.05-30.99,15.38
									c-4.78,1.46-9.71,2.61-14.66,3.4L1484.58,1259.9z M1506.42,1170.69c-5.73,0-10.94,2.51-14.12,7.03
									c-14.74,21.04-6.74,68.67-4.95,78.15c4.22-0.75,8.42-1.76,12.51-3c13.24-4.05,22.9-9.99,29.19-14.33l-3.84-52.25
									c-0.51-6.93-5.72-12.76-13.28-14.84C1510.08,1170.94,1508.22,1170.69,1506.42,1170.69z"/>
							</g>
							<g>
								<path style="fill:#FFBC00;" d="M1442.31,1371.14c6.13,3.43,13.14,5.84,19.35,7.61c27.49,7.83,262.42,9.73,272.82-7.83
									c27.03-45.67-92.94-68.13-104.92-70.9c0,0-64.35-14.93-99.33-62.47c0,0-41.29,39.86-101.01,5.74
									c-2.39-1.38-14.45,75.09-1.65,112.27C1429.9,1362.33,1435.57,1367.36,1442.31,1371.14z"/>
								<path d="M1581.17,1386.25c-56.7,0-107.97-2.38-119.99-5.81c-8.03-2.29-14.48-4.83-19.72-7.77l0,0
									c-8.11-4.54-13.34-10.11-15.55-16.54c-12.34-35.84-1.72-111.1,2.01-114.16l0.94-0.78l1.25,0.57
									c30.28,17.3,55.59,14.86,71.48,9.77c17.2-5.51,27.33-15.16,27.42-15.26l1.45-1.4l1.19,1.62
									c34.24,46.54,97.67,61.65,98.31,61.8c0.71,0.17,1.81,0.4,3.23,0.71c61.05,13.1,96.37,29.72,104.98,49.41
									c3.29,7.52,2.56,15.39-2.18,23.4c-6.62,11.18-85.23,13.76-131.49,14.3C1596.68,1386.21,1588.87,1386.25,1581.17,1386.25z
									 M1429.88,1245.67c-3.21,10.41-12.27,75.55-0.65,109.31c1.93,5.59,6.62,10.51,13.94,14.62l0,0c5,2.8,11.21,5.24,18.97,7.46
									c13.16,3.75,78.34,6.29,142.31,5.54c89.98-1.05,125.46-7.43,128.51-12.57c4.19-7.07,4.84-13.68,1.98-20.19
									c-5.59-12.79-27.92-31.38-102.5-47.38c-1.45-0.31-2.56-0.55-3.29-0.72l0.01-0.03c-5.39-1.18-64.81-16.27-99.21-61.58
									C1521.98,1246.73,1482.95,1275.03,1429.88,1245.67z M1428.34,1244.81c0,0,0.01,0,0.01,0.01
									C1428.35,1244.82,1428.35,1244.81,1428.34,1244.81z"/>
							</g>
							<g>
								<path style="fill:#FFFFFF;" d="M1455.58,1306.98c-0.69-23.59-13.87-40.57-28.59-56.56c-4.14,20.86-9.6,81.22,3.56,109.46
									C1431.26,1359.29,1456.52,1339.13,1455.58,1306.98z"/>
								<path d="M1429.98,1362.63l-1.02-2.01c-13.73-29.46-7.52-91.34-3.69-110.55l0.67-3.4l2.35,2.55
									c13.67,14.85,28.31,32.78,29.05,57.7l0,0c0.93,31.55-22.88,52.03-25.6,54.26L1429.98,1362.63z M1428.08,1254.22
									c-4.32,24.96-7.42,76.88,3.13,102.76c6.03-5.52,23.38-23.71,22.61-49.94l0,0
									C1453.16,1284.68,1441.06,1268.59,1428.08,1254.22z"/>
							</g>
							<g>
								<path style="fill:#FFFFFF;" d="M1522.65,1294.82c13.23,8.48,28.07,14.03,42.91,18.37c19.54,5.72,40.14,9.19,60.3,10.88
									c19.98,1.67,40.56,1.26,60.05-3.65c1.65-0.42,3.27-0.9,4.91-1.38c-15.38-6.52-35.31-12.99-61.26-19.03
									c0,0-64.35-14.93-99.33-62.47c0,0-15.65,15.07-41.58,18.73C1496.09,1272.5,1507.97,1285.42,1522.65,1294.82z"/>
								<path d="M1646.17,1326.73c-6.52,0-13.32-0.3-20.45-0.9c-21.63-1.82-42.03-5.5-60.64-10.94
									c-18.05-5.28-31.83-11.19-43.37-18.58l0,0c-15.62-10.02-27.28-23.24-34.65-39.29l-0.99-2.15l2.34-0.33
									c25.08-3.54,40.46-18.11,40.61-18.26l1.45-1.39l1.19,1.62c34.18,46.46,97.67,61.65,98.31,61.8
									c24.23,5.64,44.94,12.08,61.54,19.13l4.55,1.93l-5.63,1.63c-1.36,0.4-2.71,0.79-4.09,1.14
									C1674.13,1325.2,1660.87,1326.73,1646.17,1326.73z M1523.6,1293.34c11.25,7.21,24.74,12.98,42.46,18.17
									c18.38,5.38,38.55,9.02,59.95,10.82c22.75,1.91,42.19,0.74,59.41-3.59c-15.58-6.21-34.48-11.93-56.26-17.01
									c-0.64-0.15-63.98-15.28-99.19-61.6c-4.37,3.7-18.08,14-38.72,17.52C1498.37,1272.14,1509.24,1284.14,1523.6,1293.34
									L1523.6,1293.34z"/>
							</g>
							<g>
								<path d="M1469.4,1381.18c0.18,0.82,0.37,1.64,0.61,2.45c2.79,9.28,9.12,15.72,14.12,14.35c4.17-1.14,6.12-7.37,4.98-14.76
									L1469.4,1381.18z"/>
								<path d="M1482.76,1399.92c-5.56,0-11.63-6.46-14.44-15.79c-0.24-0.8-0.43-1.62-0.61-2.44l-0.54-2.39l2.41,0.12l21.05,2.18
									l0.21,1.34c1.33,8.62-1.18,15.34-6.25,16.73C1483.99,1399.84,1483.38,1399.92,1482.76,1399.92z M1471.71,1383.19
									c2.71,8.91,8.48,14.05,11.95,13.1c2.89-0.79,4.46-5.61,3.87-11.46L1471.71,1383.19z"/>
							</g>
							<g>
								<path d="M1460.61,1380.67c-0.18,7.16-3,12.68-7.18,13.26c-5.16,0.72-10.37-6.47-11.71-16.02c-0.27-1.97-0.35-3.84-0.24-5.68
									C1441.48,1372.23,1447.08,1375.99,1460.61,1380.67z"/>
								<path d="M1452.72,1395.73c-5.84,0-11.33-7.45-12.74-17.58c-0.29-2.09-0.37-4.06-0.25-6.03l0.2-3.04l2.54,1.7
									c0.06,0.04,5.64,3.72,18.72,8.23l1.22,0.42l-0.03,1.29c-0.21,8.25-3.71,14.26-8.71,14.96
									C1453.35,1395.71,1453.03,1395.73,1452.72,1395.73z M1443.23,1375.27c0.04,0.78,0.12,1.58,0.23,2.4
									c1.3,9.31,6.15,15.02,9.72,14.51c2.92-0.4,5.19-4.65,5.61-10.29C1451.03,1379.15,1446.01,1376.75,1443.23,1375.27z"/>
							</g>
							<g>
								<path d="M1632.9,1385.86c-0.01,0.84-0.02,1.67,0.04,2.57c0.59,9.6,5.3,17.1,10.5,16.72c5.14-0.38,8.89-8.5,8.3-18.11
									c-0.03-0.45-0.06-0.9-0.14-1.27L1632.9,1385.86z"/>
								<path d="M1643.04,1406.91c-1.87,0-3.72-0.76-5.38-2.21c-3.59-3.13-6.07-9.32-6.49-16.17c-0.06-0.94-0.05-1.82-0.04-2.7
									l0.02-1.73l21.84-0.12l0.31,1.38c0.11,0.46,0.15,1.01,0.18,1.56c0.66,10.74-3.71,19.51-9.93,19.97
									C1643.39,1406.91,1643.22,1406.91,1643.04,1406.91z M1634.66,1387.61c0.01,0.23,0.02,0.47,0.03,0.71
									c0.36,5.85,2.43,11.25,5.29,13.74c1.1,0.96,2.22,1.4,3.32,1.33c3.56-0.26,7.14-6.82,6.7-15.86L1634.66,1387.61z"/>
							</g>
							<g>
								<path d="M1665.23,1385.3c-0.04,0.39-0.01,0.84,0.01,1.22c0.57,9.61,5.26,17.11,10.46,16.73c5.2-0.38,8.91-8.49,8.34-18.09
									c-0.01-0.19-0.02-0.38-0.04-0.58L1665.23,1385.3z"/>
								<path d="M1675.33,1405.03c-1.87,0-3.73-0.76-5.39-2.22c-3.57-3.14-6.04-9.33-6.45-16.19c-0.03-0.47-0.06-1.03,0-1.51
									l0.16-1.52l22.03-0.83l0.13,2.27c0.64,10.76-3.74,19.52-9.97,19.98C1675.66,1405.03,1675.5,1405.03,1675.33,1405.03z
									 M1667.04,1386.99c0.44,5.63,2.46,10.76,5.21,13.17c1.1,0.97,2.2,1.39,3.32,1.34c3.54-0.26,6.97-6.32,6.76-15.09
									L1667.04,1386.99z"/>
							</g>
							<g>
								<path d="M1698.04,1382.48c-0.59,9.6,3.16,17.53,8.38,17.67c5.22,0.14,9.88-7.55,10.47-17.15c0.08-1.28,0.1-2.56-0.01-3.78
									L1698.04,1382.48z"/>
								<path d="M1706.57,1401.91c-0.07,0-0.13,0-0.19,0c-2.06-0.06-4-1.02-5.62-2.79c-3.18-3.48-4.89-9.9-4.47-16.74l0.08-1.39
									l22.09-3.82l0.17,1.9c0.11,1.19,0.11,2.51,0.02,4.05C1718,1393.71,1712.71,1401.91,1706.57,1401.91z M1699.74,1383.97
									c-0.08,5.32,1.28,10.23,3.61,12.77c0.97,1.06,2.02,1.62,3.12,1.65c3.78,0.27,8.09-6.1,8.67-15.5
									c0.04-0.57,0.06-1.1,0.06-1.6L1699.74,1383.97z"/>
							</g>
							<g>
								
									<rect x="1525.39" y="1294.88" transform="matrix(0.7972 -0.6037 0.6037 0.7972 -467.4971 1201.5544)" width="58.71" height="3.52"/>
							</g>
							<g>
								
									<rect x="1562.58" y="1310.62" transform="matrix(0.7822 -0.623 0.623 0.7822 -471.1815 1276.8666)" width="56.31" height="3.52"/>
							</g>
							<g>
								
									<rect x="1598.09" y="1321.04" transform="matrix(0.7533 -0.6577 0.6577 0.7533 -468.7881 1395.8856)" width="56.21" height="3.52"/>
							</g>
						</g>
					</g>
				</g>
				<g>
					<g>
						<path d="M1585.72,671.25c-89.41,21.15-175.36,39.48-267.82,31.67c-92.87-7.85-179.44-40.01-266.36-71.55
							c-35.1-12.74-57.83,40.76-22.62,53.54c91.42,33.18,183.2,67.32,280.88,75.58c97.86,8.27,188.62-9.18,283.41-31.6
							C1629.24,720.35,1622.14,662.63,1585.72,671.25z"/>
					</g>
					<g>
						<g>
							<path style="fill:#FFFFFF;" d="M1507.94,663.53c0,0-38.04-32.53-38.57,31.26s7.26,91.61,35.74,60.39
								c0,0,6.18,57.07,154.65,30.18c7.66-1.39,16.66-4.69,18.86-12.16c3.08-10.45-14.15-24.06-73.2-30.31
								c0,0,103.86,6.91,100.15-22.28c-0.7-5.55-5.59-9.64-10.76-11.74c-10.64-4.33-57.12-9.29-90.62-8.1
								c0,0,63.44-4.73,83.42-14.33c19.98-9.61,24.04-28.9-16.67-31.41c-10.51-0.65-21.06-0.41-31.56,0.44l-49.56,4.01
								c0,0,49.84-28.82,35.81-50.3C1616.79,595.66,1524.89,609.12,1507.94,663.53z"/>
							<path d="M1589.54,794.28c-38.22,0-59.38-8.39-71.04-17.11c-9.32-6.97-12.94-14.3-14.32-18.45
								c-9.02,9.25-16.26,12.64-22.06,10.37c-10.57-4.15-14.92-26.38-14.51-74.33c0.19-22.25,4.98-35.67,14.24-39.89
								c9.57-4.35,20.7,2.47,25.21,5.74c11.75-32.69,51.52-52.17,86.44-57.04c13.54-1.89,29.48-1.67,33.58,4.61
								c2.67,4.08,3.42,8.66,2.24,13.62c-3.43,14.38-22.46,28.65-32.49,35.31l42.39-3.43c11.34-0.92,21.74-1.06,31.81-0.44
								c26.32,1.63,31.85,10.02,32.8,14.88c1.35,6.9-4.72,14.7-15.47,19.88c-10.83,5.21-33.74,8.97-52.92,11.35
								c26.23,1.29,52.18,4.67,60.02,7.87c6.72,2.73,11.15,7.65,11.85,13.15c0.51,4-0.71,7.59-3.63,10.69
								c-10.82,11.49-44.23,14.07-69.15,14.29c23.46,4.61,38.79,11.18,44.11,19.13c1.99,2.97,2.57,6.15,1.67,9.19
								c-2.5,8.49-12.38,11.97-20.23,13.4C1631.74,792.21,1608.53,794.28,1589.54,794.28z M1506.44,751.1l0.42,3.88
								c0.01,0.09,1.33,10.18,13.93,19.51c16.95,12.55,54.77,24.33,138.66,9.13c6.88-1.25,15.49-4.15,17.48-10.93
								c0.6-2.04,0.19-4.13-1.22-6.24c-3.11-4.65-16.2-16.08-70.47-21.82l0.3-3.5c0.79,0.05,79.09,5.04,95.58-12.46
								c2.19-2.33,3.08-4.89,2.71-7.84c-0.53-4.22-4.16-8.09-9.68-10.34c-10.78-4.39-57.2-9.14-89.9-7.97l-0.19-3.51
								c0.63-0.05,63.34-4.81,82.78-14.17c9.12-4.39,14.57-10.83,13.55-16.03c-1.28-6.57-12.07-10.96-29.57-12.04
								c-9.89-0.61-20.14-0.47-31.3,0.44l-57.33,4.64l6.75-3.91c0.33-0.19,32.73-19.12,36.97-36.93c0.96-4.04,0.38-7.6-1.76-10.88
								c-2.09-3.2-12.42-5.52-30.15-3.05c-25.87,3.61-72.75,19.67-84.37,56.98l-0.79,2.54l-2.03-1.73
								c-0.13-0.11-13.5-11.35-23.49-6.78c-7.8,3.56-12.01,16.25-12.18,36.71c-0.24,28.32,0.78,66.51,12.28,71.02
								c4.71,1.85,11.56-2.14,20.4-11.83L1506.44,751.1z"/>
						</g>
						<g>
							
								<rect x="1561.62" y="720.25" transform="matrix(0.0176 -0.9998 0.9998 0.0176 852.9365 2312.1094)" width="82.86" height="3.52"/>
						</g>
						<g>
							<path d="M1538.25,715.43l-0.12-3.52c18.13-0.63,30.75-9.06,37.49-25.07c5.11-12.14,4.77-24.3,4.77-24.42l3.52-0.12
								C1583.92,662.82,1585.09,713.81,1538.25,715.43z"/>
						</g>
						<g>
							<path d="M1504.47,699.46c-1.62-6.17-2.27-12.51-1.93-18.85c0.29-5.43,1.29-10.8,3-15.98l3.34,1.1
								c-1.61,4.88-2.56,9.94-2.83,15.06c-0.32,5.97,0.3,11.95,1.82,17.77L1504.47,699.46z"/>
						</g>
						<g>
							
								<rect x="1503.12" y="733.05" transform="matrix(0.9997 -0.0258 0.0258 0.9997 -18.6964 39.0722)" width="3.52" height="22.12"/>
						</g>
					</g>
				</g>
			</g>
			<g>
				<g>
					<polygon style="fill:#A3E8FE;" points="283.39,428.54 375.98,926.44 419.36,1159.56 672.03,1276.21 1271.9,1162.45 
						1227.91,903.17 1140.85,389.97 1135.54,358.82 976.55,178.32 962.03,102.73 351.16,193.36 357.91,269.89 					"/>
					<path d="M671.8,1278.05l-0.51-0.24l-253.5-117.03L281.56,428.3l74.56-158.73l-6.86-77.71l1.64-0.24l612.54-90.88l14.75,76.78
						l159,180.51l5.39,31.65l131.34,774.18l-1.7,0.32L671.8,1278.05z M420.92,1158.35l251.33,116.03l597.62-113.34L1133.89,359.6
						L974.91,179.13l-14.3-74.4l-607.56,90.14l6.65,75.35l-0.2,0.43l-74.28,158.13L420.92,1158.35z"/>
				</g>
				<g>
					<g>
						<path style="fill:#FF4568;" d="M1126.23,936.57c36.34-10.61,70.28-21.91,101.67-33.39l43.99,259.27l-599.87,113.77
							l-252.67-116.65l-43.37-233.12c78.27,24.39,156.53,48.78,234.87,73.08c1.39,0.09,2.77,0.1,4.16,0.19
							c48.8,1.87,104.4,1.77,165.5-2.2l192.99,65.97L1126.23,936.57z"/>
						<path d="M671.8,1278.05l-0.51-0.24l-253.5-117.03l-44.07-236.89l6.35,1.98c77.01,24,154.02,47.99,231.1,71.9
							c0.61,0.04,1.22,0.06,1.82,0.08c0.71,0.02,1.42,0.05,2.13,0.1c54.87,2.1,110.49,1.36,165.28-2.2l0.35-0.02l192.39,65.77
							l152.25-126.51l0.35-0.1c34.07-9.94,68.24-21.17,101.56-33.36l1.98-0.73l44.63,263.06l-1.7,0.32L671.8,1278.05z
							 M420.92,1158.35l251.33,116.03l597.62-113.34l-43.35-255.49c-32.65,11.9-66.1,22.86-99.45,32.6l-153.21,127.31l-193.59-66.18
							c-54.79,3.55-110.41,4.28-165.33,2.18c-0.72-0.05-1.4-0.07-2.08-0.1c-0.71-0.02-1.42-0.05-2.13-0.1l-0.4-0.08
							c-77.15-23.93-154.23-47.95-231.3-71.97l-0.78-0.24L420.92,1158.35z"/>
					</g>
					<g>
						<polygon style="fill:#00C793;" points="381.88,960.48 621.8,1038.95 775.82,1035.36 985.97,1099.42 1147.99,955.64 
							1231.09,933.03 1227.91,903.17 1126.23,936.57 973.51,1063.48 780.52,997.51 615.02,999.71 375.98,926.44 						"/>
						<path d="M986.4,1101.39l-0.94-0.29l-209.89-63.97l-154.03,3.59l-0.29-0.09l-240.93-78.8l-6.57-37.91l241.51,74.03l165.54-2.21
							l192.34,65.75L1125.37,935l0.32-0.11l103.74-34.07l3.57,33.51l-84.14,22.89L986.4,1101.39z M776.06,1033.59l0.27,0.08
							l209.22,63.77l161.59-143.4l82.05-22.32l-2.79-26.2l-99.29,32.61l-153.23,127.33l-193.63-66.2l-165.48,2.2l-236.55-72.51
							l5.23,30.17l238.63,78.05L776.06,1033.59z"/>
					</g>
					<g>
						<polygon style="fill:#00C793;" points="1162.79,1005 1124.45,1011.86 1111.6,1050.64 1137.09,1082.59 1175.44,1075.73 
							1188.28,1036.94 						"/>
						<path d="M1136.37,1084.5l-26.74-33.5l13.48-40.69l40.4-7.22l26.74,33.5l-13.48,40.69L1136.37,1084.5z M1113.57,1050.29
							l24.25,30.38l36.28-6.48l12.22-36.89l-24.24-30.38l-36.28,6.48L1113.57,1050.29z"/>
					</g>
					<g>
						<g>
							<g>
								<polygon style="fill:#FFFFFF;" points="667.78,1233.12 414.8,1123.21 413.94,1118.44 668.26,1229.03 1263.14,1125.29 
									1263.83,1129.19 								"/>
							</g>
						</g>
					</g>
				</g>
				<g>
					<g>
						<polygon style="fill:#00BEFB;" points="976.53,178.34 357.94,269.88 351.14,193.4 962.04,102.73 						"/>
						<path d="M356.36,271.9l-7.12-80l614.21-91.16l15.16,79.08l-1.82,0.27L356.36,271.9z M353.04,194.9l6.5,72.98l614.92-91
							l-13.83-72.16L353.04,194.9z"/>
					</g>
					<g>
						<g>
							
								<rect x="452.79" y="640.79" transform="matrix(0.2107 -0.9775 0.9775 0.2107 -354.3652 1020.1435)" width="3.52" height="177.46"/>
						</g>
						<g>
							
								<rect x="458.39" y="708.45" transform="matrix(0.2249 -0.9744 0.9744 0.2249 -420.4893 1066.576)" width="3.52" height="178.28"/>
						</g>
						<g>
							
								<rect x="466.51" y="770.83" transform="matrix(0.2822 -0.9594 0.9594 0.2822 -493.3705 1069.8912)" width="3.52" height="187.63"/>
						</g>
					</g>
					<g>
						<g>
							<polygon style="fill:#00BEFB;" points="503.92,460.57 288.11,427.07 412.65,342.25 503.92,460.57 672.03,1276.21 							"/>
							<path d="M670.31,1276.57L502.44,462.12l-219-34l129.59-88.27l92.53,119.96l0.08,0.4l168.11,815.65L670.31,1276.57z
								 M292.79,426.01l207.05,32.14l-87.56-113.52L292.79,426.01z"/>
						</g>
						<g>
							<polygon points="503.16,462.47 356.55,270.95 359.34,268.81 504.68,458.67 1135.22,357.07 1135.78,360.54 							"/>
						</g>
					</g>
				</g>
			</g>
			<g>
				<g>
					<path d="M653.66,1071.83c-97.38-4.8-211.22-4.52-301.94-44.66c-112.89-49.95,98.08-200.22,140.6-228.86
						c30.86-20.78,1.8-71.15-29.33-50.18c-77.41,52.13-257.91,174.56-186.89,290.29c30.3,49.38,101.24,59.48,153.25,69.13
						c74.02,13.74,149.24,18.69,224.32,22.39C691.04,1131.79,690.94,1073.67,653.66,1071.83z"/>
				</g>
				<g>
					<g>
						<path style="fill:#FFFFFF;" d="M573.19,1120.84c-1.16,9.06-0.62,18.21,4.14,26.32c5.58,9.28,17.14,12.65,27.52,9.98
							c4.39-1.1,8.51-3.41,12.06-6.15c0.25-0.21,4.22-4,4.3-3.99c3.24,1.73,6.9,8.56,9.49,11.39c3.16,3.36,6.4,6.57,9.83,9.56
							c12.21,10.58,26.39,17.95,41.78,21.78c6.98,1.73,14.1,2.77,21.46,3.05c28.59,1.07,60.86-5.04,87.14-15.64
							c10.3-4.16,31.73-13.62,32.17-27.03c0.02-3.27-2.19-5.98-4.1-8.59c-0.28-0.34-0.48-0.59-0.68-0.93
							c34.13-16.64,10.96-38.62,10.96-38.62c0.17-0.14,0.26-0.28,0.36-0.43c4.25-5.79,9.42-13.73,6.2-21.06
							c-4.71-10.98-20.87-13.42-31.42-15.12c-15.61-2.46-31.57-3.08-47.19-5.38c-6.74-1-13.38-2.23-19.93-3.6
							c-3.73-0.77-7.46-1.62-11.1-2.46c-1.89-0.51-3.71-1-11.07-2.77c14.7-7.59,62.43-30.22,41.36-51.52
							c-9.86-10.03-35.51-7.07-43.12-6.44c-3.37,0.28-7.08,0.83-11.14,1.66c-18.51,3.78-42.15,13.64-54.48,32.29
							c-2.38,3.49-7.38,12.08-11.41,11.2c-2.12-0.53-0.26-0.49-5.28-9.17c-3.43-5.95-34.25-35.32-43.97,18.51
							c-1.04,5.57-1.92,11.16-2.88,16.73c-2.13,12.38-4.17,24.77-7.06,36.99C575.63,1107.64,573.95,1114.23,573.19,1120.84z"/>
						<path d="M710.15,1194.66c-2.17,0-4.32-0.04-6.44-0.12c-7.31-0.29-14.65-1.33-21.82-3.11c-15.77-3.93-30.08-11.38-42.52-22.16
							c-3.23-2.82-6.48-5.99-9.96-9.69c-1.01-1.1-2.09-2.66-3.24-4.3c-1.49-2.13-3.28-4.69-4.82-6.05c-0.5,0.46-1.11,1.04-1.67,1.57
							c-0.83,0.79-1.55,1.46-1.66,1.54c-4.18,3.24-8.46,5.42-12.74,6.49c-11.9,3.06-23.74-1.27-29.46-10.77
							c-4.37-7.43-5.8-16.4-4.38-27.44c0.69-6.05,2.13-11.99,3.52-17.74l0.45-1.89c2.64-11.17,4.61-22.71,6.52-33.86l1.47-8.67
							c0.62-3.71,1.24-7.41,1.93-11.11c3.64-20.15,10.65-31.27,20.85-33.04c12.29-2.11,24.39,10.55,26.37,13.98
							c2.53,4.38,3.37,6.63,3.82,7.84c0.07,0.19,0.12,0.34,0.17,0.46c0.06,0.01,0.12,0.03,0.19,0.05c2.33,0.54,6.84-6.39,8.54-8.99
							l0.99-1.49c15.38-23.25,46.43-31.15,55.58-33.02c4.09-0.84,7.91-1.4,11.34-1.69l1.6-0.14c9.9-0.86,33.09-2.9,42.92,7.1
							c4.57,4.61,6.45,9.66,5.59,14.99c-2.54,15.82-28.94,29.87-43.18,37.17c3.42,0.84,4.86,1.22,6.18,1.58
							c3.89,0.9,7.6,1.75,11.32,2.52c7.01,1.47,13.49,2.64,19.83,3.58c7.42,1.09,15.07,1.82,22.46,2.52
							c8.13,0.77,16.54,1.57,24.75,2.86l0.53,0.08c10.84,1.75,27.23,4.39,32.24,16.08c3.67,8.36-2.39,17.29-5.87,22.06
							c2.52,2.82,8.33,10.45,6.92,19.58c-1.18,7.64-7.07,14.29-17.54,19.79c1.86,2.51,3.91,5.36,3.89,8.9
							c-0.34,10.4-11.22,19.76-33.27,28.65C766.58,1188.87,736.62,1194.66,710.15,1194.66z M621.07,1145.22
							c0.09,0,0.19,0.01,0.3,0.02l0.67,0.2c2.47,1.32,4.78,4.63,7.02,7.83c1.08,1.55,2.1,3.01,2.94,3.93
							c3.38,3.6,6.56,6.69,9.69,9.43c12.01,10.4,25.82,17.61,41.05,21.4c6.94,1.72,14.04,2.73,21.1,3
							c27.47,1.01,59.81-4.77,86.42-15.51c20.33-8.19,30.78-16.76,31.07-25.46c0.01-2.38-1.6-4.56-3.3-6.87l-0.45-0.62
							c-0.29-0.35-0.53-0.66-0.77-1.06l-0.99-1.65l1.73-0.84c10.53-5.14,16.41-11.22,17.48-18.09c1.47-9.5-6.88-17.59-6.97-17.67
							l-1.45-1.38l1.56-1.26c4.75-6.52,8.74-13.29,6.06-19.42c-4.25-9.93-19.49-12.38-29.57-14l-0.52-0.08
							c-8.09-1.27-16.45-2.07-24.52-2.84c-7.44-0.71-15.13-1.44-22.65-2.54c-6.41-0.95-12.96-2.14-20.03-3.62
							c-3.74-0.77-7.48-1.62-11.14-2.47l-0.37-0.1c-1.79-0.48-3.79-1.01-10.71-2.67l-4.6-1.1l6.71-3.46
							c12.17-6.21,40.67-20.75,43.04-35.47c0.68-4.22-0.83-8.14-4.62-11.96c-8.68-8.82-31.51-6.83-40.11-6.07l-1.62,0.14
							c-3.3,0.27-6.97,0.82-10.93,1.63c-8.82,1.8-38.72,9.39-53.37,31.53l-0.97,1.46c-3.01,4.58-7.58,11.51-12.28,10.48
							c-1.85-0.46-2.27-1.14-2.85-2.7c-0.42-1.11-1.19-3.18-3.57-7.31c-1.98-3.44-12.97-13.97-22.72-12.27
							c-8.47,1.47-14.7,11.92-18,30.21c-0.69,3.68-1.31,7.37-1.92,11.05l-1.47,8.69c-1.92,11.21-3.9,22.8-6.57,34.08l-0.46,1.9
							c-1.37,5.65-2.77,11.48-3.44,17.32l0,0.02c-1.32,10.24-0.04,18.49,3.92,25.21c4.82,8.02,15.33,11.8,25.56,9.17
							c3.76-0.95,7.71-2.97,11.42-5.84c0.09-0.08,0.71-0.67,1.43-1.35C620.1,1145.58,620.48,1145.22,621.07,1145.22z"/>
					</g>
					<g>
						<path d="M790.36,1107.87c-33.53,0-65.79-6.69-66.25-6.78l0.72-3.44c0.63,0.14,63.3,13.12,104.02,2.64l0.88,3.41
							C817.76,1106.78,803.96,1107.87,790.36,1107.87z"/>
					</g>
					<g>
						<path d="M752.74,1149.35c-10.05,0-20.01-0.57-28.86-2.06l0.58-3.47c37.03,6.23,93.94-3.94,94.5-4.04l0.63,3.46
							C819.16,1143.33,785.43,1149.35,752.74,1149.35z"/>
					</g>
					<g>
						
							<rect x="625.8" y="1046.94" transform="matrix(0.169 -0.9856 0.9856 0.169 -504.9023 1498.5447)" width="20.87" height="3.52"/>
					</g>
					<g>
						
							<rect x="613.66" y="1136.01" transform="matrix(0.2394 -0.9709 0.9709 0.2394 -630.7786 1470.3287)" width="18.82" height="3.52"/>
					</g>
				</g>
			</g>
			<g>
				<g>
					<g>
						<g>
							<g>
								<path style="fill:#FFFFFF;" d="M1025.5,690.74c3.14,16.4,18.18,25.76,25.15,40.18c1.55,3.21,2.5,6.54,3.23,9.99
									c3.44-3.23,7.29-6.31,11.52-9.07c6.65-4.39,14.08-8.31,22.22-11.42c7.32-2.88,15.25-5.1,23.52-6.68
									c17.47-3.26,34.3-2.9,49.13,0.43c-0.02-1.32,0.07-2.51,0.08-3.68c1.23-15.99,11.94-30.12,8.97-46.47
									c-2.4-12.96-12.63-24.88-16.57-37.3c-4.14-13.09-2.7-23.11-1.19-36.42c3.58-30.63-5.21-44.39-23.08-68.11
									c-11.33-15.22-10.1-27.93-9.87-46.3c0.22-11.51-2.87-23.16-8.47-33.7c-1.23-2.34-2.59-4.57-4.1-6.78
									c-13.92-20.58-37.79-34.88-64.5-30.63c-42.3,6.76-50.75,57.19-36.47,92.28c6.84,17.02,12.53,28.41,7.37,46.7
									c-7.95,28.58-11.21,44.56,3.06,71.86c6.26,11.9,11.08,20.81,12.04,34.43C1028.39,663.05,1023.12,677.86,1025.5,690.74z"/>
								<path d="M1052.82,744.32l-0.65-3.05c-0.84-3.93-1.79-6.89-3.1-9.59c-2.76-5.7-6.95-10.74-11-15.62
									c-6.08-7.3-12.36-14.86-14.3-25v-0.01c-1.38-7.45-0.3-15.47,0.75-23.23c0.84-6.22,1.63-12.09,1.27-17.68
									c-0.92-12.94-5.33-21.33-11.43-32.93l-0.41-0.79c-14.68-28.09-11.19-44.4-3.19-73.15c4.6-16.32,0.25-26.98-5.76-41.74
									l-1.55-3.83c-9.49-23.33-8.67-50.76,2.1-69.87c7.73-13.73,20.09-22.3,35.73-24.81c25.07-3.99,50.45,8.04,66.23,31.38
									c1.59,2.31,2.97,4.59,4.2,6.95c5.89,11.09,8.89,23.04,8.67,34.56l-0.07,4.35c-0.27,15.89-0.46,27.36,9.6,40.87
									c17.42,23.13,27.11,37.76,23.42,69.36l-0.22,1.91c-1.39,12.11-2.49,21.68,1.34,33.78c1.68,5.29,4.5,10.44,7.49,15.88
									c3.8,6.92,7.73,14.08,9.13,21.63c1.83,10.07-1.29,19.32-4.31,28.26c-2.04,6.05-4.15,12.3-4.64,18.67
									c0,0.38-0.01,0.9-0.03,1.42c-0.02,0.67-0.05,1.36-0.04,2.1l0.03,2.23l-2.17-0.49c-15.06-3.38-31.8-3.52-48.43-0.42
									c-8.34,1.59-16.14,3.81-23.19,6.59c-7.68,2.94-15.04,6.72-21.9,11.25c-3.99,2.6-7.78,5.59-11.29,8.88L1052.82,744.32z
									 M1027.23,690.41c1.77,9.25,7.49,16.13,13.55,23.41c4.19,5.04,8.52,10.25,11.46,16.34c1.08,2.24,1.94,4.61,2.68,7.45
									c3.02-2.64,6.22-5.07,9.54-7.23c7.07-4.67,14.65-8.56,22.55-11.59c7.24-2.85,15.26-5.13,23.82-6.77
									c16.32-3.05,32.78-3.05,47.74-0.01c0-0.02,0-0.05,0-0.07c0.02-0.49,0.04-0.97,0.04-1.45c0.53-6.93,2.71-13.39,4.82-19.65
									c3-8.91,5.84-17.33,4.18-26.5c-1.29-6.98-5.08-13.89-8.75-20.57c-2.94-5.36-5.98-10.9-7.76-16.51
									c-4.05-12.81-2.92-22.71-1.48-35.24l0.22-1.91c3.54-30.33-5.36-43.78-22.74-66.85c-10.78-14.48-10.57-27.08-10.29-43.04
									l0.07-4.34c0.21-10.93-2.65-22.29-8.27-32.86c-1.18-2.24-2.48-4.4-4-6.61c-15.02-22.21-39.06-33.66-62.77-29.89
									c-14.55,2.33-26.03,10.3-33.22,23.06c-10.1,17.93-10.86,44.79-1.9,66.83l1.55,3.82c6.04,14.83,10.81,26.54,5.88,44.02
									c-7.75,27.86-11.14,43.66,2.92,70.57l0.41,0.78c6.07,11.54,10.85,20.65,11.83,34.33c0.39,5.95-0.47,12.28-1.29,18.39
									C1027,675.78,1025.96,683.52,1027.23,690.41z"/>
							</g>
							<g>
								<path d="M1067.73,652.64c6.06,12.49,10.71,21.73,11.86,35.94c0.88,11.53,5.18,21,8.04,31.84c7.32-2.88,15.25-5.1,23.52-6.68
									c17.47-3.26,34.3-2.9,49.13,0.43c-0.02-1.32,0.07-2.51,0.08-3.68c1.23-15.99,11.94-30.12,8.97-46.47
									c-2.4-12.96-12.63-24.88-16.57-37.3c-4.14-13.09-2.7-23.11-1.19-36.42c3.58-30.63-5.21-44.39-23.08-68.11
									c-11.33-15.22-10.1-27.93-9.87-46.3c0.22-11.51-2.87-23.16-8.47-33.7c-1.23-2.34-2.59-4.57-4.1-6.78
									c-6.15-1.56-12.53-1.89-19.04-0.88c-38.83,6.1-45.48,58.21-31.52,94.92c6.68,17.83,12.16,29.73,7.82,48.64
									c-1.69,7.5-3.14,14.17-4.12,20.44l69.84,6.37l-67.11,33.19C1063.4,642.63,1065.18,647.44,1067.73,652.64z"/>
								<path d="M1086.43,722.78l-0.5-1.91c-0.89-3.39-1.95-6.7-2.97-9.9c-2.22-6.96-4.51-14.17-5.13-22.25
									c-1.09-13.46-5.32-22.18-11.18-34.25l-0.51-1.06c-2.22-4.54-4.05-9.1-5.91-14.79l-0.48-1.45l62.89-31.1l-65.5-5.98
									l0.29-1.85c1.03-6.54,2.55-13.46,4.14-20.55c3.88-16.95-0.36-28.14-6.23-43.62l-1.52-4.03
									c-9.89-25.99-8.97-56.49,2.29-75.89c6.92-11.93,17.51-19.32,30.6-21.38c6.63-1.03,13.27-0.72,19.74,0.91l0.64,0.16
									l0.37,0.55c1.59,2.32,2.97,4.6,4.21,6.96c5.89,11.09,8.89,23.04,8.67,34.56l-0.07,4.35c-0.27,15.89-0.46,27.36,9.6,40.87
									c17.42,23.13,27.11,37.76,23.42,69.36l-0.22,1.91c-1.39,12.11-2.49,21.68,1.34,33.78c1.68,5.29,4.5,10.44,7.49,15.88
									c3.8,6.92,7.73,14.08,9.13,21.63c1.83,10.07-1.29,19.32-4.31,28.26c-2.04,6.05-4.15,12.3-4.64,18.67
									c0,0.38-0.01,0.9-0.03,1.42c-0.02,0.67-0.05,1.36-0.04,2.1l0.03,2.23l-2.17-0.49c-15.06-3.38-31.8-3.52-48.43-0.42
									c-8.34,1.59-16.14,3.81-23.19,6.59L1086.43,722.78z M1064.06,638.98c1.65,4.87,3.29,8.89,5.25,12.89l0,0.01l0.52,1.06
									c5.79,11.95,10.37,21.38,11.52,35.51c0.59,7.68,2.72,14.38,4.97,21.46c0.84,2.65,1.71,5.38,2.5,8.18
									c6.77-2.53,14.16-4.57,22-6.07c16.32-3.05,32.78-3.05,47.74-0.01c0-0.02,0-0.05,0-0.07c0.02-0.49,0.04-0.97,0.04-1.45
									c0.53-6.93,2.71-13.39,4.82-19.65c3-8.91,5.84-17.33,4.18-26.5c-1.29-6.98-5.08-13.89-8.75-20.57
									c-2.94-5.36-5.98-10.9-7.76-16.52c-4.05-12.81-2.92-22.71-1.48-35.24l0.22-1.91c3.54-30.33-5.36-43.78-22.74-66.85
									c-10.78-14.48-10.57-27.08-10.29-43.04l0.07-4.34c0.21-10.93-2.65-22.29-8.27-32.86c-1.08-2.05-2.27-4.04-3.62-6.06
									c-5.8-1.38-11.76-1.62-17.69-0.69c-12.18,1.91-21.64,8.53-28.1,19.67c-10.76,18.53-11.57,47.82-2.04,72.88l1.52,4.02
									c6.09,16.06,10.5,27.66,6.37,45.65c-1.43,6.36-2.8,12.58-3.8,18.47l74.16,6.77L1064.06,638.98z"/>
							</g>
						</g>
						<g>
							<g>
								<path d="M1117,515.34c-0.57,0-0.9-0.01-0.94-0.01l0.11-3.52c0.62,0.03,62.36,1.42,83.13-42.16l3.17,1.52
									C1182.15,513.79,1125.05,515.34,1117,515.34z"/>
							</g>
							<g>
								<path d="M1148.69,565.13l-0.07-3.52c0.62-0.01,62.35-1.71,80.9-46.29l3.25,1.35
									C1213.33,563.39,1149.33,565.12,1148.69,565.13z"/>
							</g>
							<g>
								<path d="M1158.47,616.15c-2.95,0-4.69-0.11-4.8-0.12l0.26-3.51c0.64,0.05,62.24,4.02,84.82-38.65l3.11,1.65
									C1222,613.04,1173.84,616.15,1158.47,616.15z"/>
							</g>
						</g>
					</g>
					<g>
						<g>
							<g>
								<path style="fill:#FFFFFF;" d="M749.4,704.34c1.09,13.05-3.86,27.95-1.17,40.77c3.44,16.34,18.73,25.35,25.91,39.65
									c1.63,3.2,2.63,6.44,3.44,9.87c3.42-3.31,7.21-6.37,11.33-9.26c6.54-4.52,13.89-8.5,21.91-11.83
									c7.37-3.05,15.25-5.49,23.51-7.15c17.32-3.62,34.25-3.59,49.17-0.59c-0.09-1.31-0.08-2.48-0.01-3.74
									c0.84-15.99,11.28-30.31,8-46.68c-2.69-12.82-13.12-24.55-17.34-36.84c-4.36-13.05-3.17-23.1-1.9-36.44
									c2.86-30.72-6.19-44.2-24.47-67.61c-11.6-15.01-10.69-27.74-10.77-46.13c-0.01-11.46-3.4-23.06-9.21-33.49
									c-1.3-2.33-2.74-4.55-4.33-6.73c-14.32-20.26-38.41-34.06-65.02-29.29c-42.12,7.66-49.61,58.22-34.61,93.02
									c7.2,16.87,13.18,28.13,8.36,46.59c-7.38,28.7-10.32,44.71,4.44,71.75C743.18,681.98,748.19,690.69,749.4,704.34z"/>
								<path d="M776.59,798.04l-0.71-3c-0.91-3.86-1.93-6.78-3.3-9.48c-2.86-5.68-7.16-10.65-11.33-15.46
									c-6.2-7.15-12.61-14.55-14.73-24.62c-1.56-7.45-0.65-15.53,0.24-23.34c0.67-5.93,1.37-12.07,0.9-17.65
									c-1.14-12.91-5.71-21.12-12.02-32.48l-0.52-0.94c-15.19-27.82-12.03-44.18-4.61-73.04c4.28-16.41-0.28-26.95-6.58-41.53
									l-1.7-3.94c-9.95-23.09-9.69-50.51,0.67-69.84c7.46-13.91,19.64-22.77,35.25-25.6c24.93-4.49,50.52,7.01,66.77,30
									c1.67,2.3,3.12,4.56,4.43,6.89c6.16,11.06,9.43,22.94,9.43,34.34l0.01,4c0.01,16.04,0.02,27.63,10.39,41.05
									c18.34,23.48,27.77,37.21,24.83,68.84l-0.15,1.58c-1.18,12.27-2.1,21.97,1.97,34.14c1.79,5.21,4.71,10.29,7.81,15.66
									c3.94,6.84,8.02,13.91,9.58,21.38c2.02,10.06-0.9,19.35-3.73,28.34c-1.92,6.1-3.9,12.41-4.24,18.8
									c-0.06,1.19-0.07,2.29,0.01,3.52l0.17,2.31l-2.27-0.45c-15.24-3.06-32-2.86-48.46,0.59c-7.92,1.59-15.72,3.96-23.2,7.05
									c-7.85,3.26-15.11,7.18-21.58,11.65c-4.19,2.95-7.83,5.92-11.11,9.08L776.59,798.04z M768.84,459.69
									c-3.36,0-6.72,0.29-10.08,0.9c-14.51,2.64-25.84,10.87-32.77,23.8c-9.87,18.42-10.08,44.64-0.54,66.79l1.69,3.93
									c6.34,14.65,11.34,26.22,6.76,43.8c-7.19,27.98-10.27,43.82,4.28,70.46l0.52,0.93c6.28,11.31,11.25,20.23,12.45,33.89v0.01
									c0.5,5.92-0.22,12.23-0.91,18.34c-0.85,7.54-1.73,15.33-0.29,22.22c1.93,9.18,7.77,15.91,13.94,23.04
									c4.31,4.97,8.76,10.11,11.81,16.18c1.13,2.22,2.04,4.57,2.83,7.36c2.83-2.54,5.91-4.98,9.36-7.4
									c6.68-4.62,14.16-8.66,22.24-12.02c7.7-3.18,15.71-5.62,23.84-7.25c16.14-3.37,32.57-3.72,47.69-1
									c0-0.53,0.02-1.09,0.05-1.7c0.36-6.83,2.41-13.36,4.4-19.67c2.81-8.95,5.47-17.41,3.63-26.57
									c-1.45-6.91-5.38-13.73-9.18-20.33c-3.04-5.28-6.19-10.74-8.09-16.28c-4.32-12.9-3.36-22.91-2.14-35.6l0.15-1.58
									c2.82-30.3-6.33-43.59-24.11-66.36c-11.12-14.38-11.13-27.1-11.14-43.21l-0.01-3.99c0-10.82-3.11-22.1-8.99-32.63
									c-1.24-2.21-2.62-4.36-4.22-6.56C808.78,470.41,789.06,459.69,768.84,459.69z"/>
							</g>
							<g>
								<path d="M789.6,706.16c6.34,12.35,11.22,21.56,12.68,35.71c1.1,11.48,5.55,20.85,8.55,31.66
									c7.37-3.05,15.25-5.49,23.51-7.15c17.32-3.62,34.25-3.59,49.17-0.59c-0.1-1.31-0.08-2.48-0.01-3.74
									c0.84-15.99,11.28-30.31,8-46.68c-2.69-12.82-13.12-24.55-17.34-36.84c-4.36-13.05-3.17-23.1-1.9-36.44
									c2.86-30.72-6.19-44.2-24.47-67.61c-11.6-15.01-10.69-27.74-10.77-46.13c-0.01-11.46-3.4-23.06-9.21-33.49
									c-1.3-2.33-2.74-4.55-4.33-6.73c-6.1-1.33-12.47-1.59-18.95-0.43c-38.69,6.85-44.3,59.08-29.62,95.49
									c7.04,17.68,12.82,29.52,8.79,48.46c-1.51,7.62-2.81,14.26-3.7,20.59l70.03,4.93l-66.46,34.54
									C785.13,696.26,787.05,700.96,789.6,706.16z"/>
								<path d="M809.66,775.92l-0.53-1.91c-0.95-3.44-2.08-6.8-3.17-10.05c-2.3-6.85-4.67-13.94-5.44-21.92
									c-1.38-13.44-5.84-22.12-12.01-34.13l-0.5-0.97c-2.41-4.92-4.41-9.7-6.12-14.64l-0.5-1.44l62.27-32.37l-65.69-4.63
									l0.26-1.87c0.93-6.59,2.34-13.75,3.72-20.69c3.6-16.94-0.87-28.03-7.06-43.37l-1.64-4.1c-10.4-25.79-10.09-56.3,0.78-75.91
									c6.68-12.06,17.11-19.65,30.16-21.96c6.4-1.15,13.01-1,19.64,0.44l0.65,0.14l0.39,0.54c1.68,2.32,3.14,4.58,4.44,6.91
									c6.16,11.06,9.43,22.94,9.43,34.34l0.01,4c0.01,16.04,0.02,27.63,10.39,41.05c18.34,23.48,27.77,37.21,24.83,68.84
									l-0.15,1.58c-1.18,12.27-2.1,21.97,1.97,34.14c1.79,5.21,4.71,10.29,7.81,15.66c3.94,6.84,8.02,13.91,9.58,21.38
									c2.02,10.06-0.9,19.35-3.73,28.34c-1.92,6.1-3.9,12.41-4.24,18.8c-0.06,1.19-0.07,2.29,0.01,3.52l0.17,2.31l-2.27-0.45
									c-15.23-3.06-31.99-2.85-48.46,0.59c-7.92,1.59-15.72,3.96-23.2,7.05L809.66,775.92z M791.17,705.38l0.48,0.93
									c6.1,11.89,10.93,21.27,12.38,35.39c0.73,7.59,2.94,14.18,5.27,21.15c0.9,2.7,1.83,5.47,2.68,8.33
									c7.13-2.82,14.53-5.01,22.01-6.51c16.14-3.37,32.57-3.72,47.69-1c0-0.53,0.02-1.09,0.05-1.7c0.36-6.83,2.41-13.36,4.4-19.67
									c2.81-8.95,5.47-17.41,3.63-26.57c-1.45-6.91-5.38-13.73-9.18-20.33c-3.04-5.28-6.19-10.74-8.09-16.29
									c-4.32-12.9-3.36-22.91-2.14-35.6l0.15-1.58c2.82-30.3-6.33-43.59-24.11-66.36c-11.12-14.38-11.13-27.1-11.14-43.21
									l-0.01-3.99c0-10.82-3.11-22.1-8.99-32.63c-1.13-2.03-2.39-4-3.82-6.01c-5.95-1.22-11.88-1.31-17.61-0.28
									c-12.14,2.15-21.46,8.95-27.69,20.2c-10.39,18.74-10.63,48.03-0.59,72.9l1.64,4.09c6.18,15.32,11.06,27.43,7.24,45.39
									c-1.23,6.21-2.5,12.63-3.41,18.61l74.36,5.24l-70.64,36.72C787.28,696.87,789.06,701.07,791.17,705.38z"/>
							</g>
						</g>
						<g>
							<g>
								<path d="M684.39,597.94c-15.03,0-31.1-3.63-44.99-14.81l2.21-2.74c37.61,30.28,92.64,2.27,93.19,1.98l1.62,3.12
									C736.04,585.68,711.99,597.94,684.39,597.94z"/>
							</g>
							<g>
								<path d="M680.86,654.46c-16.38,0-34.29-4.02-49.05-17.18l2.34-2.62c36.04,32.14,92.41,6.92,92.97,6.67l1.46,3.2
									C728.23,644.68,706.4,654.46,680.86,654.46z"/>
							</g>
							<g>
								<path d="M690.89,707.24c-13.92,0-28.63-3.29-41.78-13l2.09-2.83c38.88,28.71,92.65-1.61,93.19-1.92l1.75,3.05
									C745.77,692.76,720.08,707.24,690.89,707.24z"/>
							</g>
						</g>
					</g>
				</g>
				<g>
					<path style="fill:#00BEFB;" d="M950.02,672.26l7.59,35.81c0,0,57.25-15.52,63.86,14.54c6.6,30.05-62.13,30.71-62.13,30.71
						L950.02,672.26z"/>
					<path d="M959.34,755.07l-0.04-3.52c0.45,0,45.21-0.62,57.72-16.33c2.85-3.58,3.73-7.58,2.71-12.24
						c-1.15-5.25-4.11-9.35-8.78-12.18c-17.31-10.5-52.55-1.14-52.9-1.04l-1.79,0.49l-7.97-37.63l3.44-0.73l7.21,34.02
						c7.68-1.85,37.38-8.09,53.84,1.88c5.52,3.35,9.03,8.21,10.39,14.43c1.25,5.68,0.11,10.79-3.4,15.19
						C1006.23,754.43,961.25,755.05,959.34,755.07z"/>
				</g>
				<g>
					<g id="XMLID_10_">
						<path style="fill:#FFFFFF;" d="M991.86,801.24c40.61-5.8,64.94-30.89,102.18-36.74c20.9-3.29,41.94-2.19,47.4,21.48
							c10,43.36-16.08,78.97-51.39,104.36c-45.61,32.79-103.83,42.72-158.48,29.72c-46.03-10.95-96.46-35.06-97.42-88.15
							c-0.44-24.29,18.15-31.4,39.1-34.34C910.6,792.33,954.7,806.54,991.86,801.24z"/>
						<path d="M978.69,927.38c-15.77,0-31.71-1.85-47.51-5.61c-44.51-10.59-97.77-34.77-98.77-89.84
							c-0.49-26.9,21.45-33.43,40.62-36.11c18.85-2.64,39.62-0.36,59.71,1.85c19.9,2.19,40.48,4.45,58.88,1.83
							c20.68-2.96,37.29-11.08,53.36-18.93c15.01-7.34,30.52-14.93,48.8-17.8c18.28-2.86,43.29-3.63,49.39,22.83
							c11.25,48.73-22.11,84.64-52.08,106.18C1058.54,915.16,1019.21,927.38,978.69,927.38z M891.64,798.15
							c-6.2,0-12.27,0.33-18.13,1.15c-18.83,2.64-38.02,8.57-37.59,32.57c0.52,29.15,17.61,67.81,96.06,86.48
							c55.43,13.19,112.68,2.46,157.04-29.43c29.1-20.92,61.51-55.69,50.7-102.54c-4.2-18.21-18.21-24.41-45.41-20.14
							c-17.76,2.79-32.35,9.93-47.8,17.48c-16.31,7.98-33.17,16.22-54.4,19.26l0,0c-18.83,2.69-39.64,0.4-59.76-1.82
							C918.8,799.67,904.93,798.15,891.64,798.15z"/>
					</g>
					<g>
						<path d="M929.95,920.72c-8.39-20.59-13.67-42.23-15.69-64.31c-1.79-19.59-1-39.37,2.36-58.79l3.47,0.6
							c-3.31,19.12-4.09,38.58-2.33,57.87c1.99,21.73,7.19,43.03,15.44,63.3L929.95,920.72z"/>
					</g>
					<g>
						<path d="M1010.69,923.42c-9.18-20.26-15.53-41.65-18.87-63.58c-2.95-19.41-3.53-39.18-1.71-58.76l3.5,0.33
							c-1.79,19.3-1.22,38.78,1.69,57.91c3.29,21.61,9.55,42.69,18.59,62.66L1010.69,923.42z"/>
					</g>
					<g>
						<path d="M1088.49,891.15c-8.97-17.34-15.66-35.78-19.91-54.79c-4.63-20.79-6.32-42.12-5-63.42l3.51,0.22
							c-1.3,20.96,0.36,41.97,4.92,62.43c4.17,18.72,10.77,36.87,19.6,53.95L1088.49,891.15z"/>
					</g>
				</g>
			</g>
		</g>
		<g>
			<g>
				<path style="fill:#FFFFFF;" d="M1558.92,661.83c1.5,18.38-0.53,36.28-5.64,52.94c-12.14,40.32-41.81,73.56-80.79,90.15
					c-13.77,5.93-28.71,9.68-44.46,10.96c-15.75,1.28-31.1-0.01-45.65-3.64c-45.37-11.06-82.79-43.98-99.45-87.82
					c-4.76-12.32-7.83-25.6-8.95-39.43c-1.78-21.84,1.43-42.93,8.76-62.14c13.54-35.9,41.27-65.23,76.87-80.6
					c13.98-6.11,29.18-10,45.26-11.3c16.08-1.31,31.72,0.07,46.49,3.85c40.89,10.27,75.2,38.25,93.57,75.98
					C1552.55,626.33,1557.43,643.55,1558.92,661.83z"/>
				<path d="M1416.21,818.12c-11.64,0-23.12-1.39-34.26-4.17c-46.16-11.26-83.8-44.49-100.67-88.9
					c-4.89-12.65-7.93-26.08-9.06-39.91c-1.77-21.7,1.22-42.87,8.87-62.91c13.74-36.42,42.1-66.16,77.81-81.59
					c14.39-6.29,29.81-10.14,45.82-11.44c15.99-1.3,31.84,0.01,47.08,3.89c41.46,10.42,75.99,38.45,94.71,76.91
					c7.92,16.18,12.68,33.58,14.16,51.7c1.49,18.35-0.43,36.38-5.71,53.6c-12.38,41.14-42.19,74.4-81.78,91.25
					c-14.14,6.08-29.29,9.82-45.01,11.1C1424.17,817.95,1420.18,818.12,1416.21,818.12z M1416.67,532.22
					c-3.88,0-7.76,0.16-11.66,0.48c-15.62,1.27-30.66,5.02-44.7,11.16c-34.84,15.06-62.52,44.07-75.92,79.62
					c-7.46,19.56-10.37,40.2-8.65,61.38c1.09,13.5,4.07,26.6,8.84,38.94c16.46,43.33,53.18,75.76,98.22,86.74
					c14.58,3.63,29.74,4.84,45.09,3.59c15.34-1.25,30.12-4.89,43.91-10.82c38.63-16.44,67.71-48.89,79.8-89.04
					c5.15-16.8,7.02-34.39,5.57-52.29l0,0c-1.44-17.68-6.08-34.65-13.81-50.44c-18.27-37.53-51.96-64.89-92.42-75.04
					C1439.79,533.64,1428.3,532.22,1416.67,532.22z"/>
			</g>
			<g>
				<g>
					<polygon points="1450.93,722.77 1390.92,727.96 1356.43,678.58 1381.94,624.02 1441.95,618.84 1476.44,668.21 					"/>
					<path d="M1390.07,729.8l-35.66-51.04l26.37-56.4l62.03-5.36l35.66,51.04l-26.37,56.4L1390.07,729.8z M1358.45,678.41
						l33.33,47.71l57.98-5.01l24.65-52.72l-33.33-47.71l-57.98,5.01L1358.45,678.41z"/>
				</g>
				<g>
					<path d="M1558.92,661.83c1.5,18.38-0.53,36.28-5.64,52.94l-4.72,0.38l-34.51-49.4l25.51-54.55l5.38-0.44
						C1552.55,626.33,1557.43,643.55,1558.92,661.83z"/>
					<path d="M1547.69,716.98l-35.67-51.06l26.37-56.4l7.59-0.62l0.53,1.08c7.92,16.19,12.68,33.58,14.16,51.7l0,0
						c1.49,18.35-0.43,36.38-5.71,53.6l-0.35,1.14L1547.69,716.98z M1516.07,665.57l33.35,47.74l2.52-0.21
						c4.89-16.44,6.65-33.64,5.22-51.14l0,0c-1.4-17.28-5.87-33.88-13.29-49.36l-3.16,0.26L1516.07,665.57z"/>
				</g>
				<g>
					<path d="M1451.36,534.78l-13.36,28.6l-60.01,5.21l-18.38-26.35c13.98-6.11,29.18-10,45.26-11.3
						C1420.95,529.63,1436.58,531.01,1451.36,534.78z"/>
					<path d="M1377.12,570.43l-20.19-28.94l1.97-0.86c14.4-6.29,29.82-10.14,45.83-11.44c15.99-1.3,31.84,0.01,47.08,3.89l2.06,0.52
						l-14.7,31.44L1377.12,570.43z M1362.28,543.01l16.57,23.74l57.99-5.04l12.03-25.74c-14.22-3.39-28.95-4.5-43.86-3.29
						C1390.12,533.9,1375.76,537.37,1362.28,543.01z"/>
				</g>
				<g>
					<path d="M1472.49,804.91c-13.77,5.93-28.71,9.68-44.46,10.96c-15.75,1.28-31.1-0.01-45.65-3.64l12.66-27.1l60.01-5.21
						L1472.49,804.91z"/>
					<path d="M1416.21,818.12c-11.64,0-23.12-1.39-34.26-4.17l-2.07-0.52l13.99-29.96l62.04-5.38l19.26,27.59l-1.98,0.85
						c-14.14,6.08-29.29,9.82-45.02,11.1C1424.17,817.95,1420.18,818.12,1416.21,818.12z M1384.88,811.03
						c13.93,3.24,28.37,4.28,43,3.09c14.6-1.19,28.69-4.55,41.92-9.98l-15.61-22.37l-57.99,5.04L1384.88,811.03z"/>
				</g>
				<g>
					<path d="M1315.13,669.27l-25.51,54.55l-6.69,0.6c-4.76-12.32-7.83-25.6-8.95-39.43c-1.78-21.84,1.43-42.93,8.76-62.14
						L1315.13,669.27z"/>
					<path d="M1281.76,726.29l-0.48-1.24c-4.89-12.66-7.94-26.09-9.06-39.93c-1.77-21.7,1.22-42.87,8.87-62.91l1.19-3.1l34.87,49.98
						l-26.36,56.39L1281.76,726.29z M1283.22,626.62c-6.6,18.61-9.12,38.19-7.49,58.23c1.06,13.05,3.88,25.72,8.37,37.71l4.35-0.39
						l24.65-52.72L1283.22,626.62z"/>
				</g>
			</g>
		</g>
	</g>
	<g>
		<g>
			<g>
				
					<rect x="1536.25" y="428.51" transform="matrix(0.4663 -0.8846 0.8846 0.4663 464.4921 1652.4369)" style="fill:#712CE5;" width="131" height="25.5"/>
			</g>
		</g>
		<g>
			<g>
				
					<rect x="1282.52" y="320.03" transform="matrix(0.9823 -0.1872 0.1872 0.9823 -48.2982 249.2033)" style="fill:#712CE5;" width="25.49" height="120.58"/>
			</g>
		</g>
		<g>
			<g>
				
					<rect x="1383.81" y="373.56" transform="matrix(0.2349 -0.972 0.972 0.2349 737.0639 1709.0151)" style="fill:#712CE5;" width="140.66" height="25.5"/>
			</g>
		</g>
	</g>
</g>
</svg>
