<?xml version="1.0" encoding="iso-8859-1"?>
<!-- Generator: Adobe Illustrator 30.0.0, SVG Export Plug-In . SVG Version: 9.03 Build 0)  -->
<svg version="1.1" id="Capa_1" xmlns="http://www.w3.org/2000/svg" xmlns:xlink="http://www.w3.org/1999/xlink" x="0px" y="0px"
	 viewBox="0 0 2000 2000" style="enable-background:new 0 0 2000 2000;" xml:space="preserve">
<g>
	<g>
		<g>
			<path style="fill:#FFFFFF;" d="M1893.72,622.77l-575.39,1.35c0,0-34.94-232.12,145.27-171.52c0,0,16.6-100.75,114.02-114.54
				c43.2-6.12,87.02,7.08,118.4,42.4c17.68,19.91,32.29,47,33.74,82.75C1729.74,463.2,1901.22,378.28,1893.72,622.77z"/>
			<path d="M1316.8,625.88l-0.22-1.5c-0.05-0.3-4.43-29.99-2.02-64.92c2.23-32.4,10.93-76.09,39.7-100.22
				c25.22-21.15,61.54-24.15,107.99-8.94c3.06-14.39,25.22-101.26,115.11-113.99c46.17-6.54,89.89,9.13,119.96,42.97
				c20.81,23.42,32.25,50.74,34.05,81.24c12.19-5.34,68.15-27.19,111.21,0.46c37.65,24.18,55.44,78.63,52.89,161.84l-0.05,1.7
				l-1.7,0L1316.8,625.88z M1409.43,444.28c-21.19,0-38.88,5.89-52.9,17.64c-50.07,41.99-38.45,146.64-36.68,160.43l572.15-1.34
				c2.22-80.92-15.03-133.76-51.31-157.07c-46.66-29.98-109.55,0.51-110.18,0.83l-2.42,1.2l-0.11-2.7
				c-1.24-30.72-12.45-58.19-33.29-81.65c-29.27-32.95-71.85-48.2-116.84-41.83c-94.98,13.45-112.37,112.09-112.53,113.09
				l-0.34,2.04l-1.96-0.66C1443.24,447.61,1425.35,444.28,1409.43,444.28z"/>
		</g>
		<g>
			<path style="fill:#FFFFFF;" d="M580.79,796.13l-476.18,1.11c0,0-28.92-192.1,120.22-141.94c0,0,13.74-83.38,94.36-94.8
				c35.75-5.06,72.02,5.86,97.98,35.09c14.64,16.47,26.72,38.9,27.92,68.48C445.09,664.08,587,593.8,580.79,796.13z"/>
			<path d="M103.1,799.01l-0.22-1.5c-0.04-0.24-3.67-24.85-1.67-53.79c1.85-26.87,9.07-63.12,32.96-83.15
				c20.9-17.52,50.95-20.06,89.34-7.56c2.81-12.9,21.53-83.77,95.45-94.24c38.32-5.43,74.59,7.57,99.54,35.66
				c17.17,19.32,26.66,41.84,28.23,66.99c10.89-4.71,56.61-22.1,91.92,0.57c31.25,20.07,46.02,65.22,43.91,134.2l-0.05,1.7
				L103.1,799.01z M180.01,648.73c-17.46,0-32.04,4.84-43.58,14.53c-41.02,34.39-31.86,119.84-30.28,132.23l472.94-1.11
				c1.79-66.68-12.45-110.23-42.33-129.43c-38.46-24.72-90.36,0.44-90.88,0.7l-2.42,1.2l-0.11-2.7
				c-1.03-25.35-10.27-48.03-27.48-67.39c-24.16-27.19-59.3-39.78-96.42-34.51c-78.37,11.1-92.74,92.52-92.88,93.34l-0.34,2.04
				l-1.96-0.66C207.93,651.47,193.15,648.73,180.01,648.73z"/>
		</g>
		<g>
			<path style="fill:#FFFFFF;" d="M1258.86,306.99l-412,0.96c0,0-25.02-166.21,104.02-122.81c0,0,11.89-72.14,81.64-82.02
				c30.93-4.38,62.31,5.07,84.78,30.36c12.66,14.25,23.12,33.66,24.16,59.25C1141.45,192.74,1264.23,131.93,1258.86,306.99z"/>
			<path d="M845.35,309.72l-0.22-1.5c-0.04-0.21-3.18-21.53-1.45-46.59c2.3-33.41,12.2-58.35,28.61-72.11
				c18.11-15.18,44.1-17.42,77.27-6.66c2.63-11.85,19.1-72.46,82.72-81.47c33.23-4.71,64.69,6.57,86.34,30.93
				c14.81,16.66,23.03,36.08,24.46,57.74c10.02-4.39,48.71-19.07,79.45,0.67c27.11,17.41,39.93,56.55,38.1,116.32l-0.05,1.7
				L845.35,309.72z M912.1,179.69c-15.05,0-27.62,4.18-37.56,12.52c-35.19,29.51-27.57,102.59-26.14,113.99l408.75-0.96
				c1.51-57.49-10.78-95.02-36.53-111.56c-33.2-21.32-77.93,0.4-78.38,0.63l-2.43,1.2l-0.11-2.7c-0.89-21.88-8.87-41.45-23.72-58.16
				c-20.85-23.46-51.19-34.32-83.21-29.78c-67.69,9.59-80.04,79.85-80.15,80.56l-0.34,2.04l-1.96-0.66
				C936.21,182.06,923.44,179.69,912.1,179.69z"/>
		</g>
		<g>
			<path style="fill:#FFFFFF;" d="M558.31,1209.7l-347.91,0.81c0,0-21.13-140.36,87.84-103.71c0,0,10.04-60.92,68.94-69.26
				c26.12-3.7,52.62,4.29,71.59,25.64c10.69,12.03,19.52,28.42,20.4,50.03C459.16,1113.22,562.84,1061.87,558.31,1209.7z"/>
			<path d="M208.88,1212.28l-0.22-1.5c-0.44-2.94-10.47-72.4,23.03-100.49c15.31-12.84,37.25-14.78,65.23-5.77
				c2.43-10.73,16.63-61.15,70.02-68.71c28.15-3.99,54.81,5.57,73.15,26.21c12.46,14.02,19.41,30.34,20.7,48.54
				c9.02-3.9,41.28-15.77,66.99,0.74c22.99,14.76,33.85,47.89,32.3,98.46l-0.05,1.7L208.88,1212.28z M265.49,1102.47
				c-12.65,0-23.2,3.5-31.55,10.5c-29.36,24.62-23.28,85.43-22.01,95.78l344.66-0.81c1.23-48.29-9.11-79.82-30.73-93.7
				c-27.9-17.92-65.55,0.36-65.93,0.54l-2.43,1.2l-0.11-2.71c-0.75-18.41-7.46-34.88-19.96-48.94
				c-17.54-19.74-43.06-28.87-70.02-25.06c-56.91,8.06-67.36,67.21-67.46,67.81l-0.34,2.04l-1.95-0.65
				C285.78,1104.47,275.04,1102.47,265.49,1102.47z"/>
		</g>
		<g>
			<path style="fill:#FFFFFF;" d="M1805.71,1062.95l-347.91,0.81c0,0-21.13-140.36,87.84-103.71c0,0,10.04-60.92,68.94-69.26
				c26.12-3.7,52.62,4.29,71.59,25.64c10.69,12.03,19.52,28.42,20.4,50.03C1706.56,966.46,1810.24,915.12,1805.71,1062.95z"/>
			<path d="M1456.28,1065.52l-0.22-1.5c-0.44-2.94-10.47-72.4,23.02-100.49c15.32-12.84,37.26-14.78,65.23-5.77
				c2.43-10.73,16.63-61.15,70.01-68.71c28.14-3.98,54.81,5.57,73.15,26.21c12.46,14.02,19.41,30.34,20.7,48.53
				c9.03-3.9,41.28-15.77,66.99,0.74c22.99,14.76,33.85,47.89,32.3,98.46l-0.05,1.7L1456.28,1065.52z M1512.89,955.72
				c-12.65,0-23.2,3.51-31.55,10.51c-29.37,24.63-23.28,85.43-22,95.77l344.66-0.81c1.23-48.29-9.11-79.82-30.73-93.7
				c-27.9-17.92-65.55,0.36-65.93,0.54l-2.43,1.2l-0.11-2.71c-0.75-18.41-7.46-34.88-19.95-48.94
				c-17.54-19.74-43.07-28.88-70.03-25.06c-56.97,8.07-67.35,67.21-67.45,67.8l-0.34,2.04l-1.95-0.66
				C1533.18,957.72,1522.44,955.72,1512.89,955.72z"/>
		</g>
	</g>
	<g>
		<g id="XMLID_17_">
			<rect x="100.21" y="1482.47" style="fill:#00C793;" width="1799.58" height="417.53"/>
		</g>
		<g style="opacity:0.27;">
			<g style="opacity:0.27;">
				<rect x="100.21" y="1482.47" style="fill:#FFFFFF;" width="196.15" height="417.53"/>
			</g>
			<g style="opacity:0.27;">
				<rect x="807.08" y="1482.47" style="fill:#FFFFFF;" width="209.24" height="417.53"/>
			</g>
			<g style="opacity:0.27;">
				<rect x="1153.15" y="1482.47" style="fill:#FFFFFF;" width="206.62" height="417.53"/>
			</g>
			<g style="opacity:0.27;">
				<rect x="1496.59" y="1482.47" style="fill:#FFFFFF;" width="169.92" height="417.53"/>
			</g>
			<g style="opacity:0.27;">
				<rect x="1803.34" y="1482.47" style="fill:#FFFFFF;" width="96.46" height="417.53"/>
			</g>
			<g style="opacity:0.27;">
				<rect x="464.5" y="1482.47" style="fill:#FFFFFF;" width="205.76" height="417.53"/>
			</g>
		</g>
		<g>
			<g>
				<rect x="100.21" y="1524.69" style="fill:#FFFFFF;" width="1799.58" height="18.18"/>
			</g>
			<g>
				<rect x="952.94" y="1524.68" style="fill:#FFFFFF;" width="17.94" height="374.82"/>
			</g>
		</g>
	</g>
	<g>
		<g>
			<g>
				<g>
					<g>
						<path d="M963.73,1513.14c1.98-39.9,63.63-32.49,61.66,7.32c-2.78,56.31-16.63,153.04,43.74,187.66
							c24.96,14.32,59.5,4.46,85.48-2.01c42.4-10.57,82.59-28.17,121.77-47.23c35.96-17.48,60.68,39.47,24.79,56.91
							c-48.68,23.67-98.96,43.82-152.07,55.11c-39.02,8.29-81.96,10.58-116.61-12.66C952.11,1704.36,959.59,1596.86,963.73,1513.14z
							"/>
					</g>
					<g>
						<g>
							<path style="fill:#FFBC00;" d="M1261.72,1706.28c0,0-36.45,19.41-42.51,39.16c-3.58,11.68,10.75,21.52,20.61,14.52
								l30.93-21.98c-0.33-6.33-1.34-14.13-4.71-22.69C1264.71,1711.92,1263.23,1708.92,1261.72,1706.28z"/>
							<path d="M1232.47,1764.06c-3.17,0-6.39-1.03-9.23-3.07c-5.29-3.82-7.54-10.13-5.72-16.07c6.21-20.21,41.85-39.39,43.37-40.19
								l1.51-0.8l0.84,1.48c1.69,2.95,3.18,6.06,4.43,9.24c2.84,7.22,4.38,14.61,4.83,23.25l0.05,0.96l-31.71,22.54
								C1238.32,1763.17,1235.42,1764.06,1232.47,1764.06z M1261.04,1708.67c-6.88,3.9-35.05,20.7-40.15,37.29
								c-1.67,5.43,1.19,9.85,4.42,12.19c3.21,2.32,8.67,3.81,13.49,0.39l30.14-21.41c-0.32-5.18-1.2-12.7-4.53-21.18
								C1263.43,1713.45,1262.3,1711.02,1261.04,1708.67z"/>
						</g>
						<g>
							<path style="fill:#FFFFFF;" d="M1305.3,1632.52c4.5,1.64,8.82,4.2,12.44,6.63c16.04,10.77,117.38,132.13,112.17,145.46
								c-13.55,34.65-77.11-17.63-83.75-22.61c0,0-35.67-26.75-76.73-23.51c0,0,4.27-39.45-39.97-55.14
								c-1.78-0.62,35.09-41.38,60.98-51.48C1295.17,1630.03,1300.34,1630.72,1305.3,1632.52z"/>
							<path d="M1412.35,1798.17c-14.94,0-36.91-11.2-65.48-33.41c-0.77-0.6-1.37-1.07-1.76-1.36
								c-0.36-0.27-35.51-26.33-75.53-23.16l-2.11,0.17l0.22-2.11c0.17-1.55,3.54-38.28-38.81-53.29l-1.15-0.41l-0.08-1.32
								c-0.07-4.17,37.74-43.52,62.16-53.04c4.6-1.79,10.01-1.58,16.09,0.64l0,0c3.9,1.42,8.09,3.65,12.82,6.82
								c14.17,9.51,118.85,132.15,112.82,147.56c-2.5,6.39-6.77,10.46-12.71,12.09C1416.85,1797.89,1414.68,1798.17,1412.35,1798.17
								z M1276.34,1736.46c38.41,0,70.73,23.98,71.02,24.24c0.26,0.19,0.88,0.66,1.67,1.28c39.98,31.08,59.52,34.55,68.88,31.97
								c4.87-1.34,8.27-4.61,10.37-9.99c1.59-4.06-12.59-27.89-47.85-71.95c-26.87-33.58-56.02-66.28-63.66-71.41
								c-4.49-3.01-8.44-5.12-12.07-6.44c-5.25-1.91-9.84-2.14-13.62-0.66c-22.59,8.81-53.54,41.4-59.15,48.88
								c22.15,8.45,31.67,22.96,35.75,33.79c3.39,8.99,3.7,16.83,3.61,20.42C1272.99,1736.51,1274.67,1736.46,1276.34,1736.46z
								 M1230.04,1681.7c0,0,0.01,0,0.01,0C1230.06,1681.7,1230.05,1681.7,1230.04,1681.7z"/>
						</g>
						<g>
							<path style="fill:#FFBC00;" d="M1275.71,1668.35c-13.26,10.27-28.21,11.08-43.28,10.63c9.69-11.56,40.53-41.61,61.66-47.5
								C1294.08,1632.12,1293.78,1654.35,1275.71,1668.35z"/>
							<path d="M1238.23,1680.83c-1.98,0-3.93-0.04-5.85-0.09l-3.62-0.11l2.33-2.78c8.95-10.67,40.39-41.9,62.54-48.06l2.3-0.64
								l-0.07,2.39c-0.06,2.48-1.13,24.3-19.06,38.2l0,0C1264.59,1679.2,1250.83,1680.83,1238.23,1680.83z M1236.21,1677.31
								c13.01,0.18,26.37-1.01,38.42-10.35l0,0c13.93-10.79,16.9-26.75,17.53-33.02
								C1273.99,1640.38,1248.26,1663.86,1236.21,1677.31z"/>
						</g>
						<g>
							<path style="fill:#FFBC00;" d="M1297.67,1708.72c10.31,3.06,19.69,8.28,28.42,14.04c11.48,7.59,22.19,16.74,31.72,26.46
								c9.45,9.64,18,20.53,23.63,32.89c0.47,1.04,0.9,2.11,1.34,3.17c-10.15-5.06-22.21-12.52-36.61-23.29
								c0,0-35.67-26.75-76.73-23.51c0,0,1.6-14.93-7.46-30.08C1274.07,1704.97,1286.24,1705.33,1297.67,1708.72z"/>
							<path d="M1386.17,1788.95l-4.18-2.09c-11.01-5.49-23.42-13.38-36.88-23.45c-0.36-0.26-35.57-26.32-75.53-23.16l-2.1,0.17
								l0.22-2.1c0.01-0.14,1.4-14.57-7.22-28.99l-1.18-1.97l2.2-0.63c12.06-3.43,24.4-3.33,36.68,0.32l0,0
								c9.05,2.69,18.23,7.22,28.88,14.26c10.97,7.25,21.74,16.23,32.01,26.7c11.02,11.24,18.86,22.16,23.97,33.39
								c0.41,0.89,0.78,1.81,1.15,2.72L1386.17,1788.95z M1276.31,1736.47c38.26,0,70.56,23.87,70.9,24.13
								c11.53,8.63,22.26,15.62,31.96,20.85c-4.95-10.36-12.36-20.51-22.63-30.98c-10.09-10.29-20.67-19.11-31.43-26.23
								c-10.36-6.84-19.24-11.24-27.95-13.82l0,0c-10.88-3.23-21.82-3.52-32.54-0.88c6.28,11.59,6.77,22.61,6.67,27.08
								C1272.98,1736.51,1274.65,1736.47,1276.31,1736.47z"/>
						</g>
						<g>
							<path d="M1322.38,1642.08c0.53-0.27,1.06-0.55,1.6-0.79c6.29-2.73,12.53-2.34,13.92,0.87c1.15,2.69-1.44,6.5-5.99,9.24
								L1322.38,1642.08z"/>
							<path d="M1331.66,1653.62l-12.24-11.98l2.15-1.12c0.56-0.29,1.13-0.58,1.71-0.84c4.73-2.05,9.66-2.54,12.9-1.25
								c1.6,0.64,2.75,1.69,3.34,3.04c1.51,3.52-1.18,8.12-6.7,11.44L1331.66,1653.62z M1325.43,1642.61l6.71,6.57
								c3.32-2.33,4.73-4.95,4.15-6.31c-0.21-0.49-0.68-0.88-1.4-1.16C1332.68,1640.83,1329.04,1641.19,1325.43,1642.61z"/>
						</g>
						<g>
							<path d="M1318.35,1637.74c3.86-3.32,5.68-7.27,4.22-9.72c-1.81-3.01-7.98-2.48-13.8,1.13c-1.2,0.75-2.26,1.55-3.22,2.44
								C1305.55,1631.6,1310.01,1632.81,1318.35,1637.74z"/>
							<path d="M1318.54,1639.9l-1.09-0.64c-7.97-4.71-12.32-5.96-12.37-5.97l-3.03-0.84l2.31-2.14c1.05-0.97,2.19-1.83,3.48-2.64
								c4.38-2.72,9.19-3.9,12.52-3.1c1.67,0.4,2.96,1.29,3.72,2.55c1.93,3.21,0.13,7.9-4.58,11.95L1318.54,1639.9z M1309.1,1631.03
								c2.04,0.85,5.06,2.27,9.01,4.54c2.84-2.78,3.67-5.43,2.95-6.64c-0.27-0.45-0.78-0.77-1.53-0.95
								c-2.42-0.59-6.29,0.46-9.84,2.67C1309.49,1630.78,1309.3,1630.91,1309.1,1631.03z"/>
						</g>
						<g>
							<path d="M1394.75,1725.03c0.46-0.38,0.91-0.77,1.43-1.14c5.53-4.02,11.65-4.96,13.67-2.07c1.99,2.85-0.88,8.46-6.41,12.48
								c-0.26,0.19-0.52,0.38-0.76,0.5L1394.75,1725.03z"/>
							<path d="M1402.22,1737.03l-9.92-12.22l1.32-1.11c0.49-0.41,0.97-0.82,1.52-1.22c4.14-3.02,8.84-4.54,12.23-3.97
								c1.71,0.29,3.06,1.08,3.91,2.31c2.58,3.7-0.41,10.25-6.82,14.91c-0.35,0.25-0.67,0.48-0.98,0.64L1402.22,1737.03z
								 M1397.23,1725.3l5.78,7.12c4.87-3.8,6.45-8.09,5.39-9.6c-0.31-0.44-0.84-0.72-1.61-0.85
								C1404.33,1721.56,1400.58,1722.86,1397.23,1725.3z"/>
						</g>
						<g>
							<path d="M1408.25,1742.11c0.2-0.2,0.45-0.38,0.68-0.54c5.52-4.04,11.64-4.98,13.66-2.1c2.01,2.88-0.86,8.46-6.38,12.5
								c-0.11,0.08-0.22,0.16-0.33,0.24L1408.25,1742.11z"/>
							<path d="M1415.51,1754.62l-9.58-12.67l1.08-1.08c0.26-0.26,0.59-0.51,0.89-0.73c4.13-3.02,8.83-4.54,12.21-3.98
								c1.71,0.28,3.06,1.08,3.91,2.3c2.64,3.75-0.28,10.17-6.78,14.92L1415.51,1754.62z M1410.72,1742.45l5.49,7.27
								c4.21-3.47,6.09-7.61,4.94-9.26c-0.31-0.44-0.85-0.72-1.61-0.85C1417.26,1739.24,1413.87,1740.34,1410.72,1742.45z"/>
						</g>
						<g>
							<path d="M1420.71,1760.45c5.02-4.64,10.98-6.26,13.29-3.61c2.31,2.65,0.07,8.54-4.95,13.18c-0.67,0.62-1.37,1.21-2.08,1.7
								L1420.71,1760.45z"/>
							<path d="M1426.36,1774.27l-7.87-14.17l1.02-0.94c3.76-3.48,8.25-5.53,11.67-5.33c1.73,0.09,3.16,0.74,4.14,1.87
								c3.01,3.45,0.82,10.17-5.08,15.62c-0.73,0.67-1.49,1.31-2.28,1.86L1426.36,1774.27z M1422.93,1760.84l4.56,8.22
								c0.12-0.11,0.24-0.21,0.36-0.33c4.49-4.15,6.24-9.09,4.81-10.74c-0.35-0.4-0.91-0.62-1.68-0.66
								C1428.69,1757.17,1425.72,1758.56,1422.93,1760.84z"/>
						</g>
						<g>
							
								<rect x="1310.64" y="1704.35" transform="matrix(0.9999 -0.0117 0.0117 0.9999 -20.0876 15.4736)" width="3.52" height="40.33"/>
						</g>
						<g>
							
								<rect x="1317" y="1734.52" transform="matrix(0.0127 -0.9999 0.9999 0.0127 -416.7412 3050.4878)" width="38.73" height="3.52"/>
						</g>
						<g>
							
								<rect x="1337.8" y="1748.22" transform="matrix(0.0576 -0.9983 0.9983 0.0576 -468.0748 3004.0972)" width="38.76" height="3.52"/>
						</g>
					</g>
				</g>
				<g>
					<g>
						<path d="M1216.49,1407.73c-10.31-38.6,50.65-50.38,60.94-11.87c14.55,54.46,30.94,150.8,99,165.32
							c28.14,6,58.02-13.93,80.78-28.04c37.14-23.02,70.03-52.07,101.51-82.18c28.9-27.64,69.83,19.03,41,46.62
							c-39.12,37.42-80.83,71.97-127.95,98.94c-34.62,19.82-74.81,35.12-114.9,23.59
							C1263.87,1593.36,1238.13,1488.72,1216.49,1407.73z"/>
					</g>
					<g>
						<g>
							<path style="fill:#FFBC00;" d="M1559.25,1500.57c0,0-28.77,29.62-28.5,50.27c0.16,12.21,16.82,17.21,24.06,7.53l22.73-30.38
								c-2.25-5.93-5.59-13.05-11.42-20.17C1563.82,1505.03,1561.49,1502.62,1559.25,1500.57z"/>
							<path d="M1544.44,1565.24c-1.68,0-3.4-0.27-5.1-0.82c-6.21-2.02-10.28-7.34-10.36-13.55c-0.27-21.14,27.81-50.29,29-51.52
								l1.19-1.22l1.26,1.15c2.52,2.3,4.88,4.8,7.05,7.45c4.92,6.01,8.64,12.58,11.7,20.65l0.34,0.9l-23.31,31.15
								C1553.39,1563.19,1549.08,1565.24,1544.44,1565.24z M1559.32,1503.05c-5.35,5.81-27.05,30.42-26.82,47.77
								c0.07,5.68,4.14,9.02,7.93,10.25c3.76,1.22,9.42,0.98,12.97-3.75l22.15-29.6c-1.89-4.83-5.02-11.72-10.79-18.78
								C1563.06,1506.88,1561.25,1504.91,1559.32,1503.05z"/>
						</g>
						<g>
							<path style="fill:#FFFFFF;" d="M1578.2,1417.02c4.79,0.18,9.68,1.3,13.87,2.51c18.56,5.35,152.14,89.94,151.25,104.22
								c-2.31,37.14-78.81,6.77-86.65,4.06c0,0-42.14-14.57-80.24,1.07c0,0-7.99-38.87-54.91-40.28
								c-1.88-0.05,20.76-50.12,42.33-67.65C1567.79,1417.75,1572.93,1416.82,1578.2,1417.02z"/>
							<path d="M1717.12,1543.86c-14.35,0-34.06-4.55-58.92-13.63c-0.92-0.34-1.63-0.59-2.1-0.76c-0.42-0.15-41.94-14.18-79,1.03
								l-1.95,0.8l-0.43-2.07c-0.32-1.53-8.33-37.53-53.24-38.88l-1.22-0.04l-0.49-1.23c-1.35-3.94,22.63-52.97,42.97-69.5
								c3.83-3.11,9.03-4.58,15.52-4.31c4.15,0.16,8.82,1,14.29,2.58c16.39,4.73,153.55,89.51,152.52,106.01
								c-0.43,6.85-3.26,12.03-8.4,15.4C1731.99,1542.33,1725.46,1543.86,1717.12,1543.86z M1615.98,1519.84
								c23.26,0,41.26,6.29,41.49,6.4c0.26,0.07,0.99,0.34,1.94,0.69c47.57,17.37,67.23,14.7,75.35,9.39
								c4.23-2.77,6.46-6.91,6.82-12.68c0.27-4.35-20.51-22.7-67.55-53.88c-35.85-23.76-73.6-45.99-82.44-48.54
								c-5.19-1.5-9.59-2.3-13.45-2.45l0,0c-5.54-0.19-10.02,0.97-13.17,3.53c-18.81,15.29-38.32,55.78-41.38,64.61
								c23.67,1.28,37.17,12.19,44.37,21.25c5.98,7.52,8.66,14.89,9.68,18.34C1590.68,1521.5,1604.02,1519.84,1615.98,1519.84z
								 M1521.58,1486.84c0,0,0.01,0,0.02,0C1521.59,1486.84,1521.58,1486.84,1521.58,1486.84z"/>
						</g>
						<g>
							<path style="fill:#FFBC00;" d="M1560.98,1460.17c-9.48,13.83-23.48,19.17-37.96,23.35c5.69-13.97,25.87-52.01,44.19-64.07
								C1567.39,1420.07,1573.91,1441.32,1560.98,1460.17z"/>
							<path d="M1520.03,1486.22l1.37-3.35c5.26-12.9,25.65-52.24,44.85-64.87l1.99-1.31l0.66,2.3c0.7,2.37,6.36,23.47-6.47,42.2
								l0,0c-10.1,14.74-25.39,20.14-38.92,24.04L1520.03,1486.22z M1566.13,1422.38c-15.34,11.69-32.66,41.91-40.02,58.4
								c12.39-3.79,24.8-9.02,33.42-21.59C1569.5,1444.65,1567.45,1428.54,1566.13,1422.38z"/>
						</g>
						<g>
							<path style="fill:#FFBC00;" d="M1594.23,1491.91c10.75-0.24,21.28,1.86,31.35,4.68c13.25,3.71,26.24,9.16,38.29,15.5
								c11.94,6.29,23.42,14.05,32.55,24.09c0.77,0.85,1.5,1.73,2.24,2.61c-11.21-1.72-24.98-5.13-41.97-10.98
								c0,0-42.14-14.57-80.24,1.07c0,0-3.04-14.71-16.3-26.36C1570.61,1495.55,1582.3,1492.17,1594.23,1491.91z"/>
							<path d="M1703.01,1541.24l-4.62-0.71c-12.15-1.86-26.37-5.58-42.28-11.06c-0.42-0.14-41.98-14.16-79,1.03l-1.95,0.8
								l-0.43-2.07c-0.03-0.14-3.12-14.3-15.74-25.4l-1.72-1.51l1.91-1.27c10.43-6.95,22.22-10.62,35.02-10.91l0,0
								c9.39-0.21,19.55,1.3,31.86,4.75c12.67,3.55,25.67,8.81,38.64,15.64c13.93,7.33,24.73,15.34,33.03,24.46
								c0.66,0.73,1.29,1.48,1.92,2.23L1703.01,1541.24z M1615.75,1519.94c23.13,0,41.22,6.11,41.5,6.21
								c13.62,4.69,25.98,8.08,36.81,10.09c-7.88-8.35-18.04-15.75-31.02-22.58c-12.74-6.71-25.51-11.88-37.94-15.37
								c-11.96-3.35-21.74-4.81-30.84-4.62l0,0c-11.35,0.25-21.86,3.31-31.25,9.1c9.52,9.12,13.36,19.46,14.63,23.74
								C1590.51,1521.58,1603.8,1519.94,1615.75,1519.94z"/>
						</g>
						<g>
							<path d="M1597.39,1420.9c0.42-0.42,0.84-0.85,1.29-1.24c5.16-4.52,11.22-6.06,13.51-3.42c1.92,2.2,0.62,6.63-2.88,10.63
								L1597.39,1420.9z"/>
							<path d="M1609.75,1429.06l-15.31-7.66l1.7-1.72c0.45-0.45,0.9-0.9,1.38-1.32c3.87-3.4,8.44-5.35,11.89-5.13
								c1.72,0.12,3.14,0.77,4.11,1.88c2.52,2.89,1.36,8.09-2.88,12.94L1609.75,1429.06z M1600.45,1420.47l8.4,4.2
								c2.45-3.23,3-6.16,2.02-7.27c-0.35-0.4-0.92-0.63-1.69-0.68C1606.86,1416.6,1603.45,1418.02,1600.45,1420.47z"/>
						</g>
						<g>
							<path d="M1592.22,1418.01c2.66-4.34,3.19-8.66,1.04-10.54c-2.64-2.31-8.36,0.08-12.79,5.29c-0.91,1.08-1.68,2.17-2.32,3.3
								C1578.16,1416.06,1582.77,1415.86,1592.22,1418.01z"/>
							<path d="M1593.06,1420l-1.23-0.28c-9.02-2.05-13.56-1.91-13.61-1.9l-3.15,0.12l1.54-2.75c0.71-1.25,1.53-2.42,2.51-3.58
								c3.34-3.92,7.54-6.52,10.97-6.77c1.73-0.12,3.21,0.32,4.31,1.3c2.82,2.46,2.54,7.48-0.7,12.78L1593.06,1420z
								 M1581.37,1414.44c2.2,0.19,5.52,0.61,9.97,1.57c1.85-3.52,1.83-6.29,0.77-7.22c-0.39-0.34-0.96-0.49-1.74-0.44
								c-2.49,0.18-5.84,2.36-8.55,5.54C1581.66,1414.08,1581.51,1414.26,1581.37,1414.44z"/>
						</g>
						<g>
							<path d="M1691.65,1477.77c0.32-0.5,0.63-1.01,1.01-1.52c4.03-5.52,9.58-8.28,12.38-6.15c2.76,2.1,1.75,8.32-2.29,13.84
								c-0.19,0.26-0.38,0.51-0.57,0.71L1691.65,1477.77z"/>
							<path d="M1702.41,1486.9l-13.17-8.61l0.92-1.46c0.34-0.54,0.67-1.08,1.08-1.62c3.02-4.13,7.02-7.01,10.43-7.51
								c1.71-0.25,3.24,0.09,4.43,1c3.59,2.74,2.74,9.89-1.93,16.28c-0.23,0.33-0.49,0.66-0.75,0.92L1702.41,1486.9z
								 M1694.09,1477.26l7.67,5.02c3.48-5.1,3.67-9.67,2.2-10.79c-0.42-0.32-1.03-0.43-1.79-0.32
								C1699.71,1471.53,1696.54,1473.92,1694.09,1477.26z"/>
						</g>
						<g>
							<path d="M1709.72,1489.9c0.13-0.25,0.32-0.5,0.48-0.72c4.02-5.53,9.57-8.3,12.36-6.18c2.8,2.12,1.77,8.32-2.25,13.85
								c-0.08,0.11-0.16,0.22-0.24,0.33L1709.72,1489.9z"/>
							<path d="M1720.71,1499.28l-1.66-0.66l-11.59-8.16l0.7-1.36c0.16-0.32,0.4-0.65,0.61-0.94c3.02-4.16,7.01-7.05,10.42-7.55
								c1.71-0.25,3.24,0.09,4.43,0.99c3.65,2.77,2.84,9.77-1.89,16.28L1720.71,1499.28z M1720.3,1496.84L1720.3,1496.84
								L1720.3,1496.84L1720.3,1496.84z M1712.17,1489.47l7.46,5.25c2.95-4.59,3.47-9.11,1.87-10.33c-0.42-0.32-1.02-0.43-1.79-0.31
								C1717.42,1484.42,1714.53,1486.51,1712.17,1489.47z"/>
						</g>
						<g>
							<path d="M1727.18,1503.55c3.36-5.95,8.54-9.31,11.55-7.5c3.01,1.82,2.68,8.11-0.68,14.06c-0.45,0.79-0.93,1.56-1.47,2.25
								L1727.18,1503.55z"/>
							<path d="M1736.79,1514.99l-11.82-11.1l0.68-1.2c2.52-4.46,6.15-7.77,9.48-8.65c1.68-0.44,3.23-0.26,4.51,0.51
								c3.92,2.37,3.89,9.43-0.06,16.43c-0.5,0.87-1.02,1.71-1.61,2.46L1736.79,1514.99z M1729.42,1503.25l6.85,6.43
								c0.08-0.14,0.17-0.28,0.25-0.42c3.01-5.32,3.17-10.56,1.3-11.69c-0.46-0.28-1.07-0.31-1.8-0.12
								C1733.89,1498.01,1731.38,1500.23,1729.42,1503.25z"/>
						</g>
						<g>
							
								<rect x="1611.3" y="1482.29" transform="matrix(0.9485 -0.3167 0.3167 0.9485 -392.8034 588.2101)" width="3.52" height="40.33"/>
						</g>
						<g>
							
								<rect x="1637.72" y="1487.01" transform="matrix(0.9559 -0.2937 0.2937 0.9559 -370.117 547.9476)" width="3.51" height="38.74"/>
						</g>
						<g>
							
								<rect x="1661.79" y="1493.63" transform="matrix(0.9681 -0.2506 0.2506 0.9681 -326.0763 465.1596)" width="3.52" height="38.76"/>
						</g>
					</g>
				</g>
			</g>
			<g>
				<g>
					<g>
						<g>
							<path style="fill:#FFD96E;" d="M1190.93,1549.77c-288.97,153.61-374.26-17.7-393.22-199.44c-2-19.24-3.31-38.61-3.97-57.78
								c-4.39-124.19,15.79-237.52,15.79-237.52l159.56-80.86c0,0,116.18,61.31,218.22,149.46c13.28,11.44,26.32,23.29,38.8,35.59
								C1345.91,1276.84,1417.79,1429.16,1190.93,1549.77z"/>
							<path d="M997.28,1611.01c-31.04,0-58.7-6.43-82.9-19.31c-65.52-34.88-105.36-116.02-118.42-241.18
								c-1.97-18.98-3.31-38.46-3.98-57.9c-4.34-122.95,15.62-236.75,15.82-237.89l0.15-0.86l161.16-81.67l0.8,0.43
								c1.16,0.62,117.52,62.41,218.55,149.68c14.4,12.4,27.12,24.07,38.88,35.67c84.07,82.53,121.67,159.12,111.74,227.65
								c-9.09,62.81-58.66,118.56-147.34,165.71l0,0C1116.97,1591.08,1051.91,1611,997.28,1611.01z M811.11,1056.21
								c-1.83,10.73-19.75,119.36-15.62,236.29c0.66,19.36,1.99,38.76,3.96,57.66c12.93,123.92,52.15,204.15,116.58,238.44
								c65.68,34.96,157.89,21.38,274.07-40.38l0,0c87.63-46.59,136.58-101.47,145.51-163.11c9.75-67.36-27.51-142.94-110.73-224.64
								c-11.7-11.55-24.37-23.16-38.71-35.51c-96.31-83.2-206.62-143.19-217.09-148.81L811.11,1056.21z"/>
						</g>
					</g>
					<g>
						<g>
							<path style="fill:#712CE5;" d="M1190.93,1549.77c-288.97,153.61-374.26-17.7-393.22-199.44c-0.95-9.38-1.82-18.78-2.45-28.2
								c-0.65-9.88-1.2-19.72-1.52-29.57l241.99,6.97l151.59-175.9c8.53,7.35,16.96,14.89,25.21,22.58
								c4.57,4.24,9.1,8.58,13.58,13.01C1345.91,1276.84,1417.79,1429.16,1190.93,1549.77z"/>
							<path d="M997.28,1611.01c-31.04,0-58.7-6.43-82.9-19.31c-65.52-34.88-105.36-116.02-118.42-241.18
								c-0.78-7.71-1.76-17.89-2.46-28.27c-0.76-11.58-1.24-20.99-1.52-29.64l-0.06-1.87l243.02,7l152.19-176.59l1.33,1.15
								c8.78,7.56,17.27,15.17,25.26,22.62c4.56,4.23,9.14,8.62,13.62,13.05c84.06,82.53,121.66,159.12,111.74,227.65
								c-9.09,62.81-58.66,118.56-147.34,165.71l0,0C1116.97,1591.08,1051.91,1611.01,997.28,1611.01z M795.56,1294.37
								c0.28,8.1,0.75,16.95,1.45,27.65c0.7,10.32,1.67,20.46,2.44,28.14c12.93,123.92,52.15,204.14,116.58,238.44
								c65.68,34.96,157.89,21.38,274.07-40.38c87.63-46.59,136.58-101.47,145.51-163.11c9.75-67.36-27.51-142.94-110.73-224.64
								c-4.45-4.4-9.01-8.77-13.55-12.98c-7.56-7.05-15.57-14.23-23.84-21.39l-150.98,175.2L795.56,1294.37z"/>
						</g>
						<g>
							<path d="M1212.53,1146.21l-160,188.43l-257.27-12.51c-0.65-9.88-1.2-19.72-1.52-29.57l241.99,6.97l151.59-175.9
								C1195.84,1130.98,1204.28,1138.52,1212.53,1146.21z"/>
							<path d="M1053.3,1336.44l-0.86-0.04l-258.83-12.59l-0.1-1.56c-0.76-11.57-1.24-20.99-1.52-29.63l-0.06-1.87l243.02,7
								l152.19-176.59l1.33,1.15c8.78,7.56,17.27,15.17,25.26,22.62l1.23,1.15l-1.09,1.28L1053.3,1336.44z M796.91,1320.46
								l254.84,12.39l158.36-186.49c-7.19-6.68-14.78-13.48-22.6-20.24l-150.98,175.2l-240.96-6.94
								C795.83,1302.07,796.26,1310.45,796.91,1320.46z"/>
						</g>
						<g>
							
								<ellipse transform="matrix(0.9288 -0.3706 0.3706 0.9288 -470.9599 442.7552)" style="fill:#FFBC00;" cx="916.69" cy="1446.95" rx="46.23" ry="43.15"/>
							<path d="M914.53,1492.35c-18.48,0-35.6-10.34-42.47-27.57c-9.18-23,3.35-49.69,27.92-59.5c24.58-9.8,52.04,0.93,61.21,23.93
								c4.45,11.16,3.99,23.51-1.31,34.76c-5.28,11.21-14.73,19.99-26.61,24.74C927.1,1491.18,920.74,1492.35,914.53,1492.35z
								 M918.74,1405.17c-5.77,0-11.69,1.09-17.45,3.38c-22.77,9.08-34.42,33.73-25.96,54.93c8.46,21.2,33.87,31.06,56.64,21.97
								c11.05-4.41,19.84-12.57,24.74-22.97c4.88-10.36,5.32-21.71,1.22-31.96C951.62,1414.68,935.82,1405.17,918.74,1405.17z"/>
						</g>
					</g>
				</g>
				<g>
					<g>
						<g>
							<path style="fill:#FF4568;" d="M830.83,1270.24c9.6-3.81,19.51-7.82,29.65-12c95.62-39.52,175.66-77.54,241.8-113.69
								c163.85-89.74,242-168.1,258.89-230.67l-0.03-0.07c20.23-75.03-47.91-127.06-162.08-148.24c0,0-23.66-29.13-62.75-68.21
								c-28.69-28.67-65.54-62.67-107.46-94.57c-81.38-62.04-181.65-116.02-277.11-107.24c-29.52,2.66-58.55,11.42-86.42,27.72
								c-13.55,7.96-26.15,16.98-37.83,26.95c-77.21,65.64-114.43,171.47-131.61,272.17c-6.15,36.11-9.71,71.59-11.68,104.33
								c-5.51,93.98,2.61,165.52,2.61,165.52s-36.73,66.47-42.25,130.26C436.53,1315.53,495.02,1402.95,830.83,1270.24z"/>
							<path d="M562.64,1339.76c-37.11,0-65.81-7.5-85.96-22.51c-26.22-19.53-37.61-51.46-33.86-94.91
								c5.24-60.55,38.83-124.22,42.19-130.46c-0.73-6.88-7.77-76.52-2.56-165.26c2.2-36.7,6.13-71.86,11.7-104.53
								c21.29-124.81,65.77-216.73,132.21-273.21c11.93-10.17,24.74-19.29,38.09-27.12c26.96-15.77,56.29-25.17,87.15-27.96
								c81.21-7.46,174.87,28.73,278.33,107.6c35.77,27.21,71.98,59.08,107.64,94.72c35.94,35.92,59.14,63.8,62.46,67.85
								c76.74,14.34,129.69,41.6,153.16,78.87c13.35,21.19,16.65,45.04,9.82,70.88l-0.12,0.63
								c-18.55,68.71-108.37,148.85-259.74,231.75c-68.57,37.48-149.98,75.76-241.97,113.77c-10.15,4.19-20.07,8.2-29.68,12.01h0
								C717.06,1317.09,627.16,1339.76,562.64,1339.76z M772.72,496.36c-7.03,0-13.96,0.32-20.82,0.95
								c-30.35,2.74-59.19,11.98-85.7,27.49c-13.16,7.73-25.8,16.73-37.58,26.76c-65.79,55.93-109.87,147.15-131.02,271.13
								c-5.54,32.54-9.46,67.57-11.65,104.14c-5.44,92.73,2.52,164.5,2.61,165.21l0.06,0.56l-0.27,0.49
								c-0.36,0.66-36.61,66.89-42.04,129.56c-3.64,42.15,7.28,73.03,32.46,91.78c54.16,40.35,172.38,24.93,351.41-45.82h0
								c9.6-3.8,19.5-7.81,29.64-11.99c91.87-37.97,173.16-76.19,241.62-113.61c150.12-82.21,239.27-161.4,257.89-229.04l0.12-0.6
								c6.76-25.07,3.65-48.17-9.25-68.65c-23-36.52-75.36-63.28-151.45-77.4l-0.64-0.12l-0.4-0.5
								c-0.24-0.29-24.06-29.52-62.63-68.08c-35.54-35.53-71.64-67.29-107.28-94.41C933.82,532.56,848.13,496.36,772.72,496.36z"/>
						</g>
						<g>
							<g>
								<g>
									<path style="fill:#FFFFFF;" d="M1245.86,805.17c31.09,7.77,57.2,28.19,68.48,58.78c10.36,28.09,7.26,59.87-8.03,85.54
										c-9.82,16.47-23.82,28.6-40.45,37.86c-6.63,3.69-15.68-1.48-18.21-7.87c-3.1-7.81,1.22-14.51,7.87-18.21
										c25.61-14.26,39.34-42.74,36.55-70.12c-2.78-27.26-21.3-50.94-50.45-58.23c-7.34-1.84-12.97-8.01-11.75-15.99
										C1230.94,809.97,1238.48,803.32,1245.86,805.17L1245.86,805.17z"/>
								</g>
							</g>
							<g>
								<g>
									<path style="fill:#FFFFFF;" d="M1230.67,1017.5c-16.78,6.66-27.15-19.42-10.34-26.08
										C1237.12,984.77,1247.49,1010.84,1230.67,1017.5L1230.67,1017.5z"/>
								</g>
							</g>
						</g>
					</g>
					<g>
						<g>
							<path style="fill:#FFFFFF;" d="M699.99,557.35c27.15,47.16,10.92,107.47-36.24,134.63c-41.64,23.98-93.44,14.21-123.72-20.79
								c21.04-46.46,49.37-88.59,87.48-120.98c11.66-9.96,24.25-18.99,37.78-26.93l1.1-0.64
								C679.85,530.97,691.53,542.65,699.99,557.35z"/>
							<path d="M614.54,706.89c-28.36,0-56.3-11.96-75.85-34.55l-0.74-0.85l0.47-1.02c22.9-50.56,52.5-91.47,87.94-121.59
								c11.88-10.14,24.67-19.27,38.03-27.11l2.02-1.17l0.89,0.55c14.08,8.72,25.91,20.94,34.2,35.33
								c13.37,23.22,16.89,50.26,9.92,76.15c-6.97,25.89-23.59,47.51-46.81,60.88C648.95,702.52,631.67,706.89,614.54,706.89z
								 M542.1,670.88c30.33,34.25,80.93,42.51,120.78,19.58c22.4-12.9,38.44-33.76,45.17-58.75c6.73-24.99,3.33-51.08-9.57-73.48
								c-7.82-13.59-18.91-25.16-32.11-33.54l-0.19,0.11c-13.17,7.73-25.79,16.73-37.52,26.75
								C593.84,581.12,564.72,621.27,542.1,670.88z"/>
						</g>
						<g>
							<path style="fill:#FFFFFF;" d="M581.93,861.89c27.15,47.16,10.92,107.47-36.24,134.63c-19.92,11.47-42.19,15.24-63.3,12.16
								c-0.3-23.88,0.05-51.76,1.84-81.95c1.94-32.75,5.47-68.27,11.6-104.36c0.59-3.28,1.14-6.61,1.73-9.89
								C531.28,812.88,563.87,830.53,581.93,861.89z"/>
							<path d="M496.75,1011.49c-4.85,0-9.72-0.36-14.61-1.07l-1.49-0.21l-0.02-1.5c-0.35-28.07,0.27-55.68,1.84-82.08
								c2.19-36.86,6.1-72.04,11.62-104.54l1.99-11.37l1.49,0.02c35.34,0.41,68.24,19.68,85.87,50.29
								c27.61,47.95,11.06,109.42-36.89,137.03C531.13,1006.94,514.14,1011.49,496.75,1011.49z M484.14,1007.15
								c21.12,2.76,42.06-1.43,60.67-12.15c46.27-26.64,62.24-85.96,35.6-132.23c-16.76-29.11-47.83-47.59-81.37-48.5l-1.47,8.41
								c-5.5,32.37-9.39,67.41-11.58,104.15C484.46,952.68,483.83,979.69,484.14,1007.15z"/>
						</g>
						<g>
							<path style="fill:#FFFFFF;" d="M614.27,1230.19c19.4,33.69,16.7,73.99-3.56,104.21c-138.5,18.96-169.99-40.7-166.54-105.49
								l-0.04-0.06c8.33-14,20.35-26.18,35.5-34.91C526.8,1166.79,587.12,1183.03,614.27,1230.19z"/>
							<path d="M562.74,1339.71c-41.4,0-72.45-9.33-92.63-27.91c-20.21-18.6-29.53-46.34-27.71-82.45l-0.26-0.44l0.5-0.95
								c8.72-14.65,21.22-26.94,36.14-35.53c23.22-13.37,50.26-16.89,76.15-9.92c25.89,6.97,47.51,23.59,60.88,46.81l0,0
								c19.23,33.4,17.84,74.04-3.63,106.07l-0.44,0.65l-0.78,0.11C593.58,1338.52,577.5,1339.71,562.74,1339.71z M445.91,1229.31
								c-1.81,35.12,7.13,62,26.57,79.9c26.47,24.36,72.62,32.29,137.21,23.56c20.29-30.81,21.49-69.7,3.06-101.7l0,0
								c-26.65-46.27-85.96-62.23-132.23-35.6C466.27,1203.68,454.31,1215.37,445.91,1229.31z"/>
						</g>
						<g>
							<path style="fill:#FFFFFF;" d="M1018.6,595.07c-7.42,21.9-22.55,41.29-44.16,53.73c-47.16,27.15-107.47,10.92-134.63-36.24
								c-20.1-34.91-16.48-76.97,5.86-107.47C906.53,521.71,966.12,556.3,1018.6,595.07z"/>
							<path d="M925.44,663.74c-8.76,0-17.58-1.16-26.27-3.49c-25.89-6.97-47.51-23.59-60.88-46.81
								c-19.83-34.44-17.48-77.37,5.97-109.39l0.71-0.97l1.17,0.32c54.02,14.76,112.4,45.13,173.5,90.26l1.03,0.76l-0.41,1.22
								c-7.81,23.08-23.77,42.5-44.94,54.69C959.9,659.2,942.78,663.74,925.44,663.74z M846.39,507.11
								c-21.97,30.78-23.98,71.7-5.05,104.58c12.9,22.4,33.76,38.44,58.75,45.17c25,6.73,51.08,3.32,73.48-9.57
								c20.05-11.55,35.27-29.83,42.94-51.56C956.58,551.59,899.36,521.78,846.39,507.11z"/>
						</g>
						<g>
							<path style="fill:#FFFFFF;" d="M1268.13,784.24c-6.95,23.26-22.45,44.02-45.21,57.13c-47.22,27.19-107.53,10.95-134.72-36.27
								c-25.25-43.85-12.98-99.1,26.88-128.46c7.45,7.16,14.52,14.07,21.22,20.73c39.11,39.04,62.77,68.18,62.77,68.18
								C1224.52,770.3,1247.68,776.53,1268.13,784.24z"/>
							<path d="M1173.84,856.33c-8.76,0-17.57-1.16-26.26-3.49c-25.9-6.97-47.53-23.61-60.92-46.86
								c-25.49-44.27-13.73-100.48,27.36-130.75l1.2-0.88l1.07,1.03c7.39,7.1,14.53,14.08,21.24,20.75
								c35.96,35.89,59.16,63.78,62.49,67.82c25.45,4.77,48.58,11.05,68.74,18.66l1.53,0.58l-0.47,1.57
								c-7.36,24.64-23.71,45.3-46.03,58.15C1208.34,851.79,1191.2,856.33,1173.84,856.33z M1114.92,678.94
								c-38.69,29.41-49.56,82.99-25.21,125.29c12.91,22.43,33.79,38.49,58.78,45.21c24.98,6.73,51.1,3.32,73.54-9.59
								c21.06-12.13,36.6-31.45,43.93-54.54c-19.78-7.34-42.38-13.4-67.23-18.03l-0.64-0.12l-0.4-0.5
								c-0.24-0.29-24.06-29.53-62.65-68.05C1128.68,692.28,1121.91,685.67,1114.92,678.94z"/>
						</g>
						<g>
							<path style="fill:#FFFFFF;" d="M1299.57,1006.19l0.27,0.46c-35.91,35.68-87.8,74.37-158.24,115.63
								c-4.87-5.24-9.21-11.17-12.96-17.67c-27.19-47.22-10.95-107.53,36.26-134.72C1212.06,942.74,1272.38,958.97,1299.57,1006.19z
								"/>
							<path d="M1141.27,1124.51l-0.96-1.03c-4.94-5.31-9.38-11.37-13.19-17.99c-13.38-23.25-16.92-50.31-9.95-76.21
								c6.97-25.9,23.61-47.53,46.86-60.92c47.93-27.61,109.43-11.04,137.06,36.94l0.94,1.63l-0.96,0.95
								c-37.44,37.2-90.8,76.19-158.59,115.9L1141.27,1124.51z M1213.91,958.53c-16.37,0-32.95,4.15-48.13,12.89
								c-22.43,12.92-38.49,33.79-45.21,58.78c-6.73,24.99-3.32,51.11,9.6,73.54c3.43,5.97,7.39,11.45,11.77,16.32
								c66.38-38.97,118.75-77.21,155.7-113.69C1279.63,975.69,1247.2,958.53,1213.91,958.53z"/>
						</g>
						<g>
							<path style="fill:#FFFFFF;" d="M979.07,1137.53c11.44,19.86,15.18,42.07,12.21,63.11l-0.06,0.03
								c-39.87,18.86-83.36,38.02-130.73,57.57c-7.95,3.26-15.71,6.42-23.25,9.45c-11.58-8.03-21.61-18.72-29.1-31.74
								c-27.19-47.22-10.92-107.47,36.24-134.63C891.6,1074.13,951.88,1090.31,979.07,1137.53z"/>
							<path d="M837.02,1269.67l-0.78-0.54c-12.17-8.43-22.13-19.3-29.62-32.3c-27.61-47.95-11.06-109.42,36.89-137.03
								c47.98-27.63,109.47-11.1,137.09,36.85c11.29,19.6,15.58,41.82,12.43,64.23l-0.12,0.84l-0.73,0.43
								c-40.1,18.98-84.1,38.36-131.01,57.71c-7.95,3.26-15.73,6.42-23.27,9.45L837.02,1269.67z M893.47,1089.93
								c-16.4,0-33,4.16-48.21,12.91c-46.27,26.65-62.24,85.96-35.59,132.23c7.06,12.27,16.42,22.57,27.81,30.62
								c7.26-2.91,14.73-5.96,22.36-9.08c46.53-19.2,90.21-38.42,129.84-57.15c2.8-21.32-1.39-42.41-12.13-61.06
								C959.66,1107.33,927.01,1089.93,893.47,1089.93z"/>
						</g>
					</g>
				</g>
			</g>
			<g>
				<g>
					<g>
						<g>
							<g>
								<path style="fill:#FFBC00;" d="M865.13,801.32c-32.61-80.2-21.23-162.05,24.21-192.43c3.98-2.74,8.3-4.99,12.81-6.82
									c55.93-22.74,130.05,29.55,165.56,116.87c35.47,87.22,18.87,176.4-37.06,199.14c-4.5,1.83-9.18,3.23-13.93,4.05
									C962.97,932.1,897.74,881.52,865.13,801.32z"/>
								<path d="M1003.01,925.15c-51.89,0-109.81-50.11-139.52-123.16l0,0c-32.43-79.76-21.74-163.4,24.86-194.55
									c3.9-2.68,8.32-5.03,13.12-6.99c56.76-23.08,132.05,29.78,167.85,117.84c35.78,87.99,18.72,178.36-38.02,201.43
									c-4.81,1.95-9.61,3.35-14.29,4.16C1012.42,924.73,1007.74,925.15,1003.01,925.15z M866.75,800.66
									c31.8,78.18,96.12,129.65,149.64,119.76c4.45-0.77,9.02-2.1,13.58-3.96c54.95-22.35,71.14-110.65,36.1-196.85
									C1031,633.35,957.75,581.36,902.8,603.7c-4.57,1.86-8.77,4.09-12.47,6.64C845.06,640.6,834.94,722.42,866.75,800.66
									L866.75,800.66z"/>
							</g>
							<g>
								<path d="M852.27,741.08l-0.04-0.08c-7.39-59.09,5.88-109.59,37.33-131.56c3.92-2.79,8.22-5.14,12.73-6.98
									c35.37-14.27,79.5,4.84,117.3,45.64c0.33,0.56,0.59,1.16,0.84,1.76c24.97,58.21,5.79,122.34-42.83,143.2
									C933.6,811.94,880.48,788.82,852.27,741.08z"/>
								<path d="M945.74,801.26c-35.83,0-72.96-22.02-94.98-59.29l-0.26-0.76c-7.68-61.4,6.55-111.2,38.06-133.22
									c4.01-2.86,8.42-5.27,13.07-7.16c34.9-14.08,79.48,3.15,119.25,46.07l0.22,0.31c0.37,0.63,0.66,1.29,0.94,1.95
									c12.24,28.53,14.46,59.35,6.25,86.8c-8.24,27.56-26,48.41-50.01,58.71C967.9,799.14,956.88,801.26,945.74,801.26z
									 M853.94,740.45c28.01,47.16,80.82,69.08,122.96,51c23.03-9.88,40.09-29.94,48.02-56.49c7.98-26.66,5.8-56.64-6.11-84.41
									c-0.2-0.47-0.4-0.95-0.65-1.4c-38.71-41.71-81.78-58.55-115.21-45.05c-4.4,1.79-8.56,4.06-12.37,6.77
									C860.2,632.09,846.52,680.52,853.94,740.45z"/>
							</g>
						</g>
					</g>
					<g>
						<g>
							<g>
								<path style="fill:#FFBC00;" d="M549.79,920.28c-27.54-82.08-11.06-163.06,36.18-190.54c4.14-2.48,8.6-4.46,13.21-6
									c57.24-19.21,127.95,37.61,157.94,126.99c29.95,89.27,7.82,177.23-49.42,196.44c-4.61,1.55-9.36,2.65-14.16,3.17
									C639.28,1056.9,577.33,1002.36,549.79,920.28z"/>
								<path d="M684.62,1052.62c-53.21,0-110.61-54.65-136.49-131.78l0,0c-27.38-81.63-11.5-164.44,36.96-192.62
									c4.05-2.43,8.62-4.51,13.53-6.16c28.27-9.49,60.53-1.3,90.85,23.07c30.09,24.19,54.7,61.49,69.31,105.02
									c30.22,90.06,7.55,179.18-50.53,198.67c-4.92,1.65-9.81,2.75-14.53,3.26C690.71,1052.44,687.67,1052.62,684.62,1052.62z
									 M551.46,919.72c26.85,80.02,87.9,135.43,141.87,128.87c4.49-0.49,9.13-1.53,13.81-3.1
									c56.24-18.87,77.91-105.99,48.32-194.21c-14.4-42.9-38.61-79.63-68.19-103.4c-29.34-23.59-60.43-31.57-87.53-22.48
									c-4.68,1.57-9.01,3.54-12.86,5.85C539.81,758.62,524.59,839.64,551.46,919.72L551.46,919.72z"/>
							</g>
							<g>
								<path d="M540.73,859.34l-0.03-0.09c-3.68-59.44,12.72-109.01,45.47-128.97c4.09-2.54,8.52-4.62,13.14-6.17
									c36.2-12.03,79.04,9.8,114.22,52.88c0.3,0.58,0.51,1.2,0.73,1.81c21.29,59.65-1.87,122.46-51.69,140.25
									C617.47,935.14,565.9,908.75,540.73,859.34z"/>
								<path d="M635.65,925.42c-37.53,0-75.85-24.77-96.48-65.28l-0.22-0.78c-3.83-61.76,13.48-110.57,46.31-130.58
									c4.17-2.59,8.72-4.73,13.49-6.33c35.71-11.87,79.12,8.1,116.15,53.43l0.21,0.32c0.32,0.63,0.56,1.28,0.79,1.94
									c21.61,60.56-2.06,124.48-52.73,142.57C654.22,923.9,644.96,925.42,635.65,925.42z M542.43,858.81
									c25.01,48.82,76.35,74,119.54,58.58c48.85-17.44,71.56-79.34,50.63-138c-0.19-0.52-0.36-0.99-0.57-1.44
									c-36.03-44.04-77.97-63.55-112.18-52.17c-4.51,1.52-8.81,3.53-12.77,5.99C555.45,751.07,538.77,798.54,542.43,858.81z"/>
							</g>
						</g>
					</g>
				</g>
				<g>
					<g>
						<path style="fill:#FF6DCE;" d="M885.08,939.97c-22.84,8.01-45.47,16.78-67.7,26.51c-19.15,8.38-73.16,18.14-53.37,74.19
							c9.53,26.99,31.48,42.74,47.73,51.89c43.23,24.34,86.41,24.16,121.05,2.17c28.57-18.14,56.96-50.91,62.13-103.05
							c2.63-26.62-4.84-60.69-26.19-68.75c-15.35-5.79-29.99-0.45-43.32,3.71C911.9,930.84,898.45,935.27,885.08,939.97z"/>
						<path d="M876.84,1112.87c-21.39,0-43.74-6.26-65.96-18.78c-25.09-14.12-40.96-31.41-48.53-52.83
							c-17.74-50.26,21.66-64.44,45.21-72.91c3.56-1.28,6.63-2.39,9.12-3.48c21.22-9.28,44.03-18.22,67.82-26.56
							c12.92-4.53,26.51-9.02,40.38-13.35l2.55-0.8c12.64-3.99,26.97-8.52,41.91-2.88c21.71,8.19,30.17,41.7,27.32,70.57
							c-5.92,59.8-41.97,91.06-62.94,104.36C916.23,1107.32,896.96,1112.86,876.84,1112.87z M954.42,922.12
							c-8.88,0-17.5,2.72-25.93,5.38l-2.57,0.81c-13.83,4.31-27.38,8.79-40.26,13.31l0,0c-23.7,8.31-46.43,17.22-67.57,26.46
							c-2.6,1.14-5.72,2.26-9.34,3.56c-23.76,8.55-59.65,21.47-43.08,68.44c7.27,20.59,22.62,37.25,46.93,50.94
							c41.94,23.61,84.29,24.4,119.24,2.21c20.42-12.97,55.54-43.43,61.32-101.74c2.66-26.86-5.22-59.45-25.06-66.93
							C963.47,922.82,958.91,922.12,954.42,922.12z"/>
					</g>
					<g>
						<g>
							<path style="fill:#FFFFFF;" d="M883,962.22c-17.96,6.56-35.75,13.64-53.23,21.36c-15.06,6.66-57.53,15.79-41.96,53.85
								c7.5,18.32,24.76,28.3,37.54,33.94c34,15.01,67.95,13,95.19-3.78c22.47-13.84,44.78-37.83,48.83-74.26
								c2.07-18.6-3.82-41.93-20.61-46.59c-12.07-3.35-23.58,1-34.07,4.47C904.09,954.72,893.52,958.39,883,962.22z"/>
							<path d="M871.15,1083.32c-15.17,0-30.87-3.44-46.5-10.34c-19.86-8.78-32.45-20.19-38.46-34.89
								c-4.22-10.31-4.62-19.5-1.2-27.32c6.39-14.6,24.76-21.45,36.91-25.99c2.73-1.02,5.19-1.94,7.16-2.81
								c16.67-7.37,34.62-14.57,53.33-21.4l0,0c10.2-3.72,20.88-7.44,31.75-11.03l2-0.67c9.96-3.33,21.27-7.11,33.08-3.83
								c17.36,4.82,24.15,28.04,21.88,48.48c-4.67,42-33.11,65.37-49.66,75.57C906.1,1078.56,889,1083.32,871.15,1083.32z
								 M883.61,963.88c-18.65,6.81-36.52,13.98-53.12,21.32c-2.03,0.9-4.55,1.84-7.35,2.89c-11.6,4.33-29.13,10.88-34.92,24.11
								c-3.02,6.91-2.61,15.18,1.23,24.58c5.65,13.82,17.63,24.62,36.63,33c32.92,14.54,66.14,13.23,93.55-3.67
								c16-9.85,43.51-32.44,48.01-72.96c2.05-18.5-4.03-40.45-19.33-44.71c-10.79-3-21.08,0.44-31.03,3.77l-2.01,0.67
								C904.41,956.47,893.76,960.17,883.61,963.88L883.61,963.88z"/>
						</g>
						<g>
							<path d="M837.87,1077.47c-8.49-15.18-14.96-31.44-19.22-48.33c-3.35-13.28-5.24-26.63-5.61-39.68l3.52-0.1
								c0.36,12.79,2.21,25.89,5.5,38.92c4.19,16.59,10.54,32.56,18.88,47.48L837.87,1077.47z"/>
						</g>
						<g>
							<path d="M886.69,1080.68c-8.71-19.38-16.33-39.5-22.65-59.8c-4.73-15.23-8.8-30.77-12.09-46.2l3.44-0.73
								c3.27,15.32,7.31,30.76,12.01,45.89c6.28,20.17,13.84,40.15,22.5,59.4L886.69,1080.68z"/>
						</g>
						<g>
							<path d="M929.45,1060.56c-3.86-19.46-10.14-38.48-18.64-56.52c-7.18-15.22-15.78-29.36-25.58-42.05l2.78-2.15
								c9.96,12.88,18.7,27.25,25.98,42.7c8.63,18.3,14.99,37.59,18.91,57.34L929.45,1060.56z"/>
						</g>
						<g>
							<path d="M957.99,1026.41c-2.92-15.5-8.37-31.02-15.76-44.87c-6.31-11.83-13.87-22.32-22.48-31.18l2.52-2.45
								c8.84,9.1,16.6,19.86,23.06,31.98c7.55,14.17,13.12,30.03,16.11,45.88L957.99,1026.41z"/>
						</g>
					</g>
				</g>
				<g>
					<path style="fill:#FFFFFF;" d="M873.09,878.35c11.79,20.48,4.75,46.64-15.73,58.42c-20.48,11.79-46.64,4.75-58.42-15.73
						c-11.79-20.48-4.75-46.64,15.73-58.42C835.14,850.83,861.3,857.88,873.09,878.35z"/>
					<path d="M836.08,944.26c-3.88,0-7.79-0.51-11.65-1.55c-11.49-3.09-21.08-10.47-27.02-20.78c-5.93-10.31-7.5-22.31-4.41-33.8
						c3.09-11.49,10.47-21.08,20.78-27.02c10.31-5.94,22.3-7.51,33.8-4.41c11.49,3.09,21.08,10.47,27.02,20.78l0,0
						c5.93,10.31,7.5,22.31,4.41,33.8c-3.09,11.49-10.48,21.08-20.79,27.02C851.38,942.25,843.78,944.26,836.08,944.26z
						 M835.94,858.69c-6.94,0-13.97,1.76-20.4,5.46c-9.5,5.47-16.3,14.31-19.15,24.89c-2.85,10.58-1.4,21.64,4.06,31.13
						c5.47,9.5,14.31,16.3,24.89,19.15c10.59,2.85,21.65,1.4,31.13-4.06c9.5-5.47,16.3-14.31,19.15-24.89
						c2.85-10.58,1.4-21.64-4.06-31.13C863.98,866.06,850.15,858.69,835.94,858.69z"/>
				</g>
			</g>
			<g>
				<g>
					<g>
						<path d="M797.68,1350.35l0,0.31c-76.97,28.2-149.44,66-221.33,109.07c-29.59,17.7-58.64-27.24-29.12-44.87
							c79.73-47.7,160.35-89.76,246.62-119.79C794.51,1313.39,795.79,1331.95,797.68,1350.35z"/>
					</g>
					<g>
						<g>
							<g>
								<path style="fill:#FFFFFF;" d="M496.88,1416.04c0,0-58.65-4.69-63.1,12.63c-4.44,17.31,44.09,15.68,44.09,15.68
									L496.88,1416.04z"/>
								<path d="M474.44,1446.15c-9.2,0-33.61-0.85-40.64-9.6c-1.94-2.41-2.52-5.21-1.72-8.31c4.68-18.23,58.78-14.44,64.94-13.94
									l2.99,0.24l-21.17,31.55l-0.9,0.03C477.68,1446.11,476.41,1446.15,474.44,1446.15z M480.32,1417.19
									c-18.59,0-42.35,2.25-44.82,11.91c-0.51,2-0.17,3.72,1.05,5.24c5.99,7.46,30.34,8.52,40.38,8.27l16.8-25.03
									C489.98,1417.35,485.34,1417.19,480.32,1417.19z"/>
							</g>
							<g>
								<path style="fill:#FFFFFF;" d="M482.84,1429.71c0,0-62.24,2.57-65.19,21.33c-2.95,18.75,48.01,10.84,48.01,10.84
									L482.84,1429.71z"/>
								<path d="M443.9,1465.28c-9.98,0-20.59-1.28-25.37-6.06c-2.27-2.27-3.15-5.12-2.63-8.46c3.09-19.61,60.34-22.54,66.86-22.81
									l3.07-0.13l-19.05,35.65l-0.86,0.14C465.12,1463.73,454.9,1465.28,443.9,1465.28z M479.82,1431.62
									c-18.66,1.13-58.33,6.27-60.44,19.68c-0.35,2.2,0.19,3.97,1.65,5.43c7.09,7.1,32.99,5.06,43.5,3.53L479.82,1431.62z"/>
							</g>
							<g>
								<path style="fill:#FFFFFF;" d="M508.49,1457.59c4.91-0.96,9.85-0.91,14.55,0.93c5.85,2.29,7.94,7.77,4.52,13.84
									c-5.04,8.95-16.11,11.97-24.5,14.81c-10.35,3.51-21.4,6.05-30.51,13.04c-5.98,4.58-9.59,13.13-2.47,18.79
									c5.15,4.1,12.14,4.26,18.24,4.62c38.65,2.3,90.93-13.82,96.67-59.82c0.26-2.06,2.01-3.49,2.87-5.34
									c7.8,4.29,25.11-0.72,21.93-15.33c-4.04-18.56-8.56-34.59-15.79-52.36c-3.2-7.87-5.6-16.91-15.57-15.26
									c-9.69,1.61-10.62,11.52-9.56,19.96c-21.7,6.51-45.78,2.06-66.69,12.45c-20.28,10.07-40.06,31.09-57.8,46.11
									c-6.2,5.25-29.51,20.73-18.55,31.42c6.89,6.72,21.22,0.18,28.45-2.74c11.42-4.61,22.14-11.12,33.18-16.76
									C493.86,1462.68,501.15,1459.02,508.49,1457.59z"/>
								<path d="M495.22,1525.58c-2.4,0-4.74-0.07-7-0.2l-1.06-0.06c-6.04-0.34-12.88-0.73-18.17-4.94
									c-3.04-2.41-4.63-5.53-4.59-9.04c0.04-4.41,2.76-9.21,7.09-12.53c7.63-5.85,16.51-8.67,25.1-11.39
									c1.98-0.63,3.96-1.26,5.91-1.92l2.11-0.71c8.03-2.66,17.12-5.68,21.42-13.3c1.42-2.52,1.79-4.93,1.06-6.97
									c-0.69-1.92-2.31-3.43-4.69-4.37c-4-1.56-8.45-1.85-13.57-0.84l0,0c-7.25,1.41-14.64,5.18-20.57,8.21
									c-3.47,1.77-6.9,3.63-10.34,5.48c-7.41,4-15.07,8.15-22.99,11.34l-1.5,0.61c-8.07,3.31-21.58,8.84-28.84,1.76
									c-2.43-2.37-3.58-5.12-3.41-8.19c0.49-8.9,12.11-18,19.05-23.44c1.2-0.94,2.23-1.74,2.99-2.39
									c4.7-3.98,9.47-8.31,14.52-12.91c14.03-12.75,28.54-25.94,43.64-33.44c12.32-6.12,25.78-7.22,38.79-8.28
									c8.92-0.73,18.13-1.48,26.77-3.87c-1.1-11.8,2.84-19.03,11.18-20.42c10.4-1.74,13.69,6.64,16.58,14.03l0.91,2.29
									c6.66,16.35,11.4,32.1,15.88,52.65c1.35,6.21-0.54,11.6-5.34,15.18c-4.94,3.68-12.31,4.77-17.58,2.78
									c-0.17,0.26-0.35,0.5-0.52,0.75c-0.65,0.92-1.22,1.72-1.32,2.55C581.01,1509.91,531.29,1525.58,495.22,1525.58z
									 M514.55,1455.21c3.26,0,6.28,0.56,9.13,1.68c3.31,1.3,5.7,3.59,6.72,6.46c1.08,3.03,0.63,6.44-1.3,9.88
									c-4.96,8.81-15.17,12.2-23.37,14.91l-2.1,0.7c-1.97,0.67-3.97,1.3-5.98,1.94c-8.3,2.63-16.89,5.35-24.03,10.83
									c-3.49,2.68-5.68,6.42-5.71,9.77c-0.02,2.41,1.08,4.51,3.27,6.25c4.43,3.51,10.4,3.85,16.19,4.18l1.07,0.06
									c34.97,2.07,89.02-11.73,94.82-58.28c0.21-1.71,1.13-3,1.94-4.14c0.39-0.55,0.79-1.1,1.08-1.71l0.79-1.72l1.66,0.91
									c4.11,2.25,10.99,1.46,15.35-1.8c2.57-1.92,5.35-5.49,4.01-11.62c-4.43-20.34-9.12-35.91-15.7-52.07l-0.93-2.34
									c-3.19-8.16-5.63-13.03-12.73-11.85c-6.74,1.12-9.46,7.18-8.11,18.01l0.19,1.47l-1.42,0.43c-9.4,2.82-19.31,3.63-28.9,4.41
									c-12.68,1.03-25.79,2.11-37.51,7.92c-14.66,7.28-28.99,20.3-42.84,32.89c-5.08,4.61-9.87,8.97-14.61,12.99
									c-0.79,0.67-1.86,1.51-3.1,2.48c-6.05,4.74-17.31,13.55-17.71,20.86c-0.11,2.04,0.66,3.84,2.35,5.49
									c5.61,5.46,17.78,0.49,25.05-2.5l1.52-0.62c7.73-3.12,15.31-7.21,22.63-11.17c3.46-1.87,6.92-3.74,10.41-5.52
									c6.13-3.13,13.76-7.02,21.49-8.53l0,0C510.38,1455.42,512.51,1455.21,514.55,1455.21z"/>
							</g>
							<g>
								
									<rect x="569.58" y="1395.06" transform="matrix(0.9648 -0.263 0.263 0.9648 -349.0069 199.6712)" width="3.52" height="16.89"/>
							</g>
							<g>
								
									<rect x="584" y="1446.09" transform="matrix(0.9606 -0.2779 0.2779 0.9606 -380.4098 219.974)" width="3.52" height="11.59"/>
							</g>
						</g>
					</g>
				</g>
				<g>
					<g>
						<path d="M1345.73,1309.88c-4.71,3.09-9.67,4.5-14.41,4.69c-23.53,0.7-42.77-30.41-19.43-46.16c0.15-0.08,0.3-0.23,0.46-0.31
							c32.93-21.32,66.79-41.5,98.64-64.49c12.77-9.18,25.77-18.52,37.61-28.99c14.12-12.55,29.16-25.42,7.47-35.12
							c-33.34-15.04-86.74-3.06-121.07,4.3c-32.65,7.03-63.59,17.94-94.45,30.08c-4.7-4.93-9.54-9.79-14.47-14.64
							c-9-8.88-18.23-17.44-27.69-25.86c0.69-0.46,1.45-0.77,2.21-1.09c57.14-23.17,115.97-44.22,177.98-49.55
							c40.39-3.42,100.35-6.52,131.82,24.43C1586.65,1182.18,1388.93,1281.91,1345.73,1309.88z"/>
					</g>
					<g>
						<g>
							<g>
								<path style="fill:#FFFFFF;" d="M1308.06,1256.42c0,0,8.38-28.02,23.58-15.34c11.58,9.66,29.12,36.75,36.82,49.11
									c3.55,5.7,3.94,13.03,0.36,18.71c-2.31,3.68-12.25,8.15-18.65,8.14c-3.76,11.89-6.11,31.24-25.4,48.83
									c-14.43,13.15-32.67,23.64-51.66,28.47c-9.76,2.48-19.75,3.15-29.24-0.66c-5.28-2.12-10.42-5.43-13.72-10.15
									c-1.65-2.35-2.76-5.02-3.13-7.88c-0.11-0.83-0.67-6.68-0.67-6.68s-28.46-9.76-13.2-35.56c0,0-43.26-18.61,11.77-47.48
									c3.33-1.75-3.63-17.09,3.56-31.43c1.07-2.13,8.69-16.83,24.12-22.04C1270.97,1226.26,1294.17,1235.56,1308.06,1256.42z"/>
								<path d="M1258.38,1398.11c-5.47,0-10.5-0.94-15.16-2.81c-4.42-1.78-10.52-5.09-14.5-10.77c-1.88-2.69-3.04-5.6-3.44-8.66
									c-0.08-0.61-0.4-3.91-0.57-5.66c-3.29-1.35-13.09-6.08-16.58-15.56c-2.27-6.17-1.41-13.05,2.57-20.49
									c-4.32-2.24-15.06-8.83-15.46-19.14c-0.39-10.1,9.33-20.41,28.86-30.66c0.22-0.49-0.06-3.35-0.28-5.65
									c-0.61-6.29-1.53-15.8,3.09-25.01c2.05-4.07,9.9-17.77,25.13-22.92c18.82-6.36,41.22,2.58,55.49,21.83
									c1.97-4.99,6.44-14.06,13.39-16.15c3.86-1.16,7.85-0.06,11.83,3.26c11.45,9.55,28.22,35.14,37.19,49.53
									c4.01,6.46,4.16,14.53,0.36,20.58c-2.53,4.02-11.96,8.4-18.82,8.91c-0.48,1.61-0.95,3.34-1.44,5.18
									c-3.2,11.9-7.59,28.2-24.09,43.24c-15.26,13.91-33.87,24.16-52.41,28.87C1268.13,1397.42,1263.09,1398.11,1258.38,1398.11z
									 M1264.31,1232.34c-3.82,0-7.57,0.58-11.13,1.79c-14.32,4.84-21.77,18.48-23.11,21.16c-4.16,8.3-3.3,17.2-2.73,23.09
									c0.46,4.74,0.76,7.88-1.59,9.11c-17.97,9.43-27.31,18.9-26.99,27.4c0.39,10.43,14.95,16.84,15.09,16.9l1.83,0.79l-1.01,1.72
									c-4.21,7.12-5.3,13.56-3.24,19.14c3.56,9.67,15.37,13.82,15.49,13.86l1.07,0.37l0.11,1.13c0,0,0.56,5.8,0.66,6.62
									c0.32,2.49,1.27,4.87,2.83,7.09c3.48,4.97,8.96,7.92,12.94,9.52c7.94,3.2,17.15,3.39,28.15,0.59
									c17.99-4.57,36.07-14.54,50.91-28.06c15.74-14.35,19.97-30.07,23.06-41.56c0.63-2.34,1.22-4.52,1.84-6.5l0.39-1.23l1.29,0
									c0.01,0,0.02,0,0.04,0c6.05,0,15.21-4.29,17.12-7.31c3.09-4.91,2.95-11.53-0.37-16.85c-7.13-11.45-24.96-39.11-36.45-48.69
									c-3.07-2.56-5.88-3.4-8.57-2.59c-6.4,1.93-10.98,12.98-12.21,17.08l-1.08,3.58l-2.07-3.11
									C1296.17,1241.74,1279.68,1232.34,1264.31,1232.34z"/>
							</g>
							<g>
								<line style="fill:none;" x1="1213.82" y1="1333.32" x2="1235.88" y2="1324.07"/>
								
									<rect x="1212.85" y="1326.96" transform="matrix(0.9221 -0.3869 0.3869 0.9221 -418.7011 577.3685)" width="23.91" height="3.51"/>
							</g>
							<g>
								<line style="fill:none;" x1="1226.36" y1="1368.97" x2="1248.46" y2="1357.51"/>
								
									<rect x="1225.03" y="1361.5" transform="matrix(0.8875 -0.4609 0.4609 0.8875 -489.0356 723.7488)" width="24.9" height="3.52"/>
							</g>
							<g>
								<line style="fill:none;" x1="1224.94" y1="1285.93" x2="1256.07" y2="1271.01"/>
								
									<rect x="1223.19" y="1276.76" transform="matrix(0.9019 -0.4319 0.4319 0.9019 -430.5349 661.1635)" width="34.53" height="3.51"/>
							</g>
							<g>
								<line style="fill:none;" x1="1308.06" y1="1256.42" x2="1322.17" y2="1276.19"/>
								
									<rect x="1313.39" y="1254.21" transform="matrix(0.814 -0.5809 0.5809 0.814 -490.9688 999.5142)" width="3.52" height="24.29"/>
							</g>
							<g>
								<line style="fill:none;" x1="1339.6" y1="1302.83" x2="1350.18" y2="1317.05"/>
								
									<rect x="1343.11" y="1301.1" transform="matrix(0.8023 -0.5969 0.5969 0.8023 -516.0558 1061.7283)" width="3.52" height="17.72"/>
							</g>
						</g>
					</g>
				</g>
			</g>
		</g>
		<g>
			<g>
				<path style="fill:#FFFFFF;" d="M420.08,425.59c-1,23.9,2.53,46.99,10.01,68.31c17.78,51.63,57.92,93.18,109.27,112.7
					c18.14,6.98,37.7,11.08,58.17,11.94c20.48,0.86,40.3-1.6,58.97-7.04c58.23-16.65,105.04-61.21,124.39-118.86
					c5.54-16.2,8.84-33.57,9.59-51.55c1.19-28.39-4.04-55.55-14.52-80.08c-19.38-45.83-56.8-82.42-103.7-100.53
					c-18.42-7.2-38.32-11.46-59.23-12.34s-41.09,1.71-60.05,7.35c-52.46,15.38-95.5,53.39-117.37,103.22
					C426.52,379.26,421.07,401.83,420.08,425.59z"/>
				<path d="M605.48,620.45c-2.67,0-5.35-0.06-8.03-0.17c-20.39-0.85-40.15-4.91-58.73-12.06c-52-19.76-92.21-61.23-110.3-113.77
					c-7.7-21.97-11.1-45.17-10.1-68.96c0.98-23.48,6.25-46.2,15.67-67.52c22.24-50.65,65.43-88.63,118.48-104.19
					c19.48-5.79,39.9-8.29,60.62-7.42c20.75,0.87,40.87,5.06,59.79,12.46c46.92,18.12,85.08,55.11,104.69,101.48
					c10.9,25.5,15.83,52.7,14.65,80.84c-0.75,17.93-4.01,35.44-9.68,52.05c-19.54,58.24-66.49,103.09-125.57,119.98
					C640.38,618.01,623.09,620.45,605.48,620.45z M605.07,249.73c-17.65,0-34.96,2.5-51.6,7.44
					c-52.07,15.27-94.44,52.53-116.27,102.24c-9.24,20.92-14.41,43.21-15.37,66.25l0,0c-0.98,23.34,2.36,46.1,9.91,67.66
					c17.75,51.56,57.2,92.24,108.24,111.64c18.23,7.01,37.62,10.99,57.62,11.83c20.01,0.84,39.65-1.51,58.41-6.97
					c57.98-16.57,104.04-60.59,123.22-117.73c5.57-16.29,8.76-33.47,9.5-51.06c1.16-27.6-3.68-54.29-14.38-79.31
					c-19.24-45.51-56.68-81.8-102.72-99.58c-18.57-7.26-38.3-11.37-58.67-12.22C610.32,249.78,607.69,249.73,605.07,249.73z"/>
			</g>
			<g>
				<g>
					<polygon points="563.11,499.05 641.12,502.71 683.3,436.98 647.47,367.59 569.45,363.93 527.27,429.66 					"/>
					<path d="M642.06,504.52l-80.04-3.76l-36.77-71.2l43.28-67.44l80.04,3.76l36.77,71.2L642.06,504.52z M564.21,497.35l75.99,3.57
						l41.08-64.02l-34.9-67.59l-75.99-3.57l-41.08,64.02L564.21,497.35z"/>
				</g>
				<g>
					<path d="M420.08,425.59c-1,23.9,2.53,46.99,10.01,68.31l6.13,0.26l42.2-65.77l-35.83-69.39l-6.99-0.29
						C426.52,379.26,421.07,401.83,420.08,425.59z"/>
					<path d="M437.15,495.95l-8.33-0.35l-0.39-1.12c-7.7-21.98-11.1-45.18-10.1-68.97c0.98-23.48,6.25-46.2,15.67-67.52l0.49-1.1
						l9.21,0.39l36.76,71.2L437.15,495.95z M431.36,492.19l3.93,0.17l41.1-64.06l-34.9-67.58l-4.77-0.2
						c-8.94,20.6-13.95,42.51-14.89,65.15l0,0C420.88,448.59,424.08,470.97,431.36,492.19z"/>
				</g>
				<g>
					<path d="M552.97,255.49l18.77,36.37l78.03,3.69l22.48-35.08c-18.42-7.2-38.32-11.46-59.23-12.34
						C592.12,247.26,571.93,249.85,552.97,255.49z"/>
					<path d="M650.7,297.36l-80.05-3.79l-20.22-39.16l2.04-0.6c19.48-5.79,39.91-8.29,60.63-7.42c20.75,0.87,40.87,5.06,59.79,12.46
						l2,0.78L650.7,297.36z M572.84,290.15l76,3.6l20.76-32.41c-17.97-6.78-37.02-10.63-56.65-11.45
						c-19.67-0.83-38.95,1.43-57.44,6.69L572.84,290.15z"/>
				</g>
				<g>
					<path d="M539.36,606.59c18.14,6.98,37.7,11.08,58.17,11.94c20.48,0.86,40.3-1.6,58.97-7.04l-17.78-34.47l-78.03-3.69
						L539.36,606.59z"/>
					<path d="M605.48,620.45c-2.67,0-5.35-0.06-8.03-0.17c-20.39-0.85-40.15-4.91-58.73-12.06l-2.01-0.77l23.04-35.94l80.05,3.79
						l19.23,37.27l-2.05,0.59C640.39,618.01,623.09,620.45,605.48,620.45z M542,605.71c17.64,6.54,36.33,10.26,55.59,11.06
						c19.27,0.8,38.22-1.34,56.35-6.38l-16.33-31.67l-76-3.6L542,605.71z"/>
				</g>
				<g>
					<path d="M736.35,422.81l35.83,69.39l8.7,0.44c5.54-16.2,8.84-33.57,9.59-51.55c1.19-28.39-4.04-55.55-14.52-80.08
						L736.35,422.81z"/>
					<path d="M782.12,494.46l-11.04-0.55l-36.76-71.19l41.94-65.45l1.3,3.06c10.9,25.51,15.83,52.71,14.66,80.84
						c-0.75,17.93-4.01,35.44-9.68,52.05L782.12,494.46z M773.28,490.49l6.36,0.32c5.31-15.91,8.36-32.66,9.07-49.81
						c1.11-26.47-3.29-52.1-13.09-76.23l-37.24,58.12L773.28,490.49z"/>
				</g>
			</g>
		</g>
	</g>
	<g>
		<g>
			<g>
				
					<rect x="583.85" y="100.96" transform="matrix(0.9863 -0.1652 0.1652 0.9863 -17.09 100.2176)" style="fill:#FF6DCE;" width="20.21" height="103.79"/>
			</g>
		</g>
		<g>
			<g>
				
					<rect x="361.48" y="213.81" transform="matrix(0.6679 -0.7443 0.7443 0.6679 -71.2714 363.427)" style="fill:#FF6DCE;" width="20.2" height="95.53"/>
			</g>
		</g>
		<g>
			<g>
				
					<rect x="464.4" y="133.38" transform="matrix(0.9155 -0.4023 0.4023 0.9155 -35.983 206.8686)" style="fill:#FF6DCE;" width="20.2" height="111.43"/>
			</g>
		</g>
	</g>
</g>
</svg>
