<?xml version="1.0" encoding="iso-8859-1"?>
<!-- Generator: Adobe Illustrator 30.0.0, SVG Export Plug-In . SVG Version: 9.03 Build 0)  -->
<svg version="1.1" id="Capa_1" xmlns="http://www.w3.org/2000/svg" xmlns:xlink="http://www.w3.org/1999/xlink" x="0px" y="0px"
	 viewBox="0 0 2000 2000" style="enable-background:new 0 0 2000 2000;" xml:space="preserve">
<g>
	<g>
		<g id="XMLID_20_">
			<rect x="102.6" y="1011.9" style="fill:#00C793;" width="1794.81" height="887.84"/>
		</g>
		<g style="opacity:0.27;">
			<g style="opacity:0.27;">
				<rect x="102.6" y="1011.9" style="fill:#FFFFFF;" width="195.63" height="887.84"/>
			</g>
			<g style="opacity:0.27;">
				<rect x="807.59" y="1011.9" style="fill:#FFFFFF;" width="208.69" height="887.84"/>
			</g>
			<g style="opacity:0.27;">
				<rect x="1152.74" y="1011.9" style="fill:#FFFFFF;" width="206.08" height="887.84"/>
			</g>
			<g style="opacity:0.27;">
				<rect x="1495.28" y="1011.9" style="fill:#FFFFFF;" width="169.47" height="887.84"/>
			</g>
			<g style="opacity:0.27;">
				<rect x="1801.2" y="1011.9" style="fill:#FFFFFF;" width="96.2" height="887.84"/>
			</g>
			<g style="opacity:0.27;">
				<rect x="465.92" y="1011.9" style="fill:#FFFFFF;" width="205.21" height="887.84"/>
			</g>
		</g>
		<g>
			<g>
				<rect x="102.6" y="1582.7" style="fill:#FFFFFF;" width="1794.6" height="34.38"/>
			</g>
		</g>
	</g>
	<g>
		<g>
			<g>
				<g>
					<g>
						<g>
							<g>
								<path d="M227.55,1465.41l-2.61-2.36c33.78-37.54,70.81-66.25,105.79-91.69c9.09-6.82,16.77-15.22,24.9-24.11
									c4.29-4.69,8.72-9.54,13.58-14.4l2.49,2.49c-4.8,4.8-9.21,9.62-13.47,14.29c-8.25,9.02-16.03,17.54-25.41,24.57
									C297.97,1399.53,261.12,1428.11,227.55,1465.41z"/>
							</g>
						</g>
						<g>
							<g>
								<path d="M230.93,1342.45l-2.34-2.63c23.12-20.55,47.6-37.02,73.52-54.46c9.37-6.31,19.07-12.83,28.63-19.52
									c3.96-4,8.58-7.55,13.46-11.32c7.38-5.68,15.02-11.56,21.31-19.95l2.81,2.11c-6.58,8.78-14.41,14.8-21.98,20.63
									c-4.79,3.69-9.32,7.18-13.36,11.21c-9.83,6.91-19.53,13.44-28.92,19.76C278.26,1305.64,253.87,1322.05,230.93,1342.45z"/>
							</g>
						</g>
						<g>
							<g>
								<path d="M227.24,1240.58l-2-2.89c21.25-14.71,43.44-27.26,64.9-39.38c25.54-14.44,49.65-28.07,72.22-44.99l2.11,2.82
									c-22.74,17.06-46.96,30.75-72.6,45.23C270.48,1213.46,248.36,1225.96,227.24,1240.58z"/>
							</g>
						</g>
						<g>
							<g>
								<path d="M227.34,1145.55l-2.2-2.75c23.69-18.95,50.22-32.96,78.3-47.8c13.5-7.13,27.46-14.5,41.29-22.57l10.39-10.39
									l2.49,2.49l-10.91,10.83c-13.97,8.15-28.03,15.58-41.62,22.76C277.15,1112.87,250.77,1126.81,227.34,1145.55z"/>
							</g>
						</g>
						<g>
							<g>
								<path d="M227.09,1040.21l-1.68-3.09c19.39-10.57,39.97-20.42,59.87-29.94c19.86-9.5,40.4-19.32,59.71-29.85l1.68,3.09
									c-19.39,10.57-39.97,20.42-59.87,29.94C266.93,1019.86,246.39,1029.68,227.09,1040.21z"/>
							</g>
						</g>
						<g>
							<g>
								<path d="M226.9,938.3l-1.31-3.26c11.76-4.7,24.09-9.08,36.02-13.31c23.76-8.43,48.32-17.15,69.29-28.8l1.71,3.08
									c-21.23,11.8-45.93,20.56-69.82,29.04C250.89,929.26,238.59,933.63,226.9,938.3z"/>
							</g>
						</g>
						<g>
							<g>
								<path d="M227.17,839.68l-1.86-2.98c14.36-8.97,29.73-11.69,44.59-14.31c14.53-2.56,29.56-5.22,43.34-13.83l1.86,2.98
									c-14.36,8.97-29.73,11.69-44.59,14.31C255.98,828.42,240.95,831.07,227.17,839.68z"/>
							</g>
						</g>
						<g>
							<g>
								<path d="M226.8,730.83l-1.11-3.34c8.69-2.9,18.04-3.47,27.09-4.03c13.31-0.82,27.07-1.67,39.31-9.83l1.95,2.93
									c-13.03,8.69-27.27,9.56-41.05,10.42C243.77,727.54,235.05,728.08,226.8,730.83z"/>
							</g>
						</g>
						<g>
							<g>
								<path d="M278.35,632.32c-12.83-5.13-25.45-4.5-38.83-3.83c-4.34,0.22-8.84,0.44-13.28,0.44v-3.52c4.35,0,8.8-0.22,13.1-0.44
									c13.15-0.66,26.76-1.34,40.31,4.08L278.35,632.32z"/>
							</g>
						</g>
						<g>
							<g>
								<path d="M273.75,1482.13c-21.94-120.68-16.96-243.22-10.58-348.61c0-19.27,0.89-39.86,1.76-59.76
									c0.87-19.86,1.76-40.41,1.76-59.71c9.99-133.31,17.95-275.29-3.5-418.27l3.48-0.52c21.5,143.34,13.53,285.55,3.53,418.92
									c0.01,19.25-0.89,39.83-1.76,59.73c-0.87,19.86-1.76,40.41-1.76,59.71c-6.38,105.29-11.35,227.58,10.52,347.87
									L273.75,1482.13z"/>
							</g>
						</g>
						<g>
							<g>
								<path d="M337.07,1425.89c-10.25-51.22-13.82-105.03-17.29-157.07l-0.33-4.95c-1.06-50.76-0.2-102.27,0.63-152.08
									c1.93-116.11,3.94-236.17-18.19-354.17l3.45-0.65c22.19,118.35,20.19,238.59,18.25,354.87
									c-0.83,49.78-1.68,101.26-0.63,151.87l0.32,4.86c3.45,51.93,7.03,105.61,17.23,156.61L337.07,1425.89z"/>
							</g>
						</g>
					</g>
					<g>
						<g>
							<g>
								<path d="M1786.71,1472.62c-44.09-36.07-77.77-67.58-109.22-102.17l-41.96-31.43l2.11-2.82l42.21,31.65
									c31.57,34.68,65.14,66.08,109.09,102.04L1786.71,1472.62z"/>
							</g>
						</g>
						<g>
							<g>
								<path d="M1776.25,1346.08c-24.65-17.61-47.9-35.49-70.39-52.79c-22.46-17.28-45.7-35.15-70.29-52.72l2.05-2.86
									c24.65,17.61,47.9,35.49,70.39,52.79c22.46,17.28,45.7,35.15,70.29,52.72L1776.25,1346.08z"/>
							</g>
						</g>
						<g>
							<g>
								<path d="M1786.97,1258.26c-29.22-16.23-57.25-36.42-88.23-63.52c-8.45-5.04-18.24-9.49-27.71-13.79
									c-9.55-4.34-19.43-8.83-28.31-14.16l1.8-3.01c8.71,5.22,18.5,9.67,27.96,13.98c9.55,4.34,19.43,8.83,28.31,14.16
									c31.04,27.12,58.88,47.17,87.88,63.28L1786.97,1258.26z"/>
							</g>
						</g>
						<g>
							<g>
								<path d="M1783.61,1149.31c-28.3-12.14-52.32-29.12-75.54-45.55c-17.32-12.25-35.23-24.92-54.73-35.41l1.67-3.1
									c19.69,10.6,37.69,23.33,55.09,35.64c23.07,16.32,46.93,33.2,74.9,45.18L1783.61,1149.31z"/>
							</g>
						</g>
						<g>
							<g>
								<path d="M1783.88,1047.41c-14.26-3.56-28.65-10.76-42.56-17.72c-22.86-16.3-46.65-30.36-77.38-45.72l1.57-3.14
									c30.9,15.45,54.83,29.59,77.61,45.86c13.51,6.73,27.73,13.84,41.61,17.31L1783.88,1047.41z"/>
							</g>
						</g>
						<g>
							<g>
								<path d="M1783.99,948.95c-19.68-3.58-36.81-14.4-53.38-24.86c-16.29-10.29-33.12-20.92-52.13-24.37l0.63-3.46
									c19.68,3.58,36.81,14.4,53.38,24.86c16.29,10.29,33.12,20.92,52.13,24.37L1783.99,948.95z"/>
							</g>
						</g>
						<g>
							<g>
								<path d="M1784.02,843.44c-22.44-3.74-43.27-11.08-60.24-21.23c-5.09-1.68-9.26-2.52-13.67-3.4
									c-4.38-0.88-8.9-1.78-14.28-3.57l1.11-3.34c5.17,1.72,9.39,2.57,13.86,3.46c4.38,0.88,8.9,1.78,14.28,3.57l0.35,0.16
									c16.63,9.98,37.09,17.19,59.18,20.87L1784.02,843.44z"/>
							</g>
						</g>
						<g>
							<g>
								<path d="M1783.52,737.77c-5.93-2.97-11.83-3.29-18.07-3.64c-7.94-0.44-16.16-0.9-24.4-7.08
									c-5.85-2.86-16.71,0.38-27.64-3.26l1.11-3.34c10.14,3.38,20.69-0.22,28.37,3.61c7.66,5.71,14.99,6.12,22.76,6.55
									c6.33,0.35,12.87,0.71,19.45,4L1783.52,737.77z"/>
							</g>
						</g>
						<g>
							<g>
								<rect x="1731.55" y="632.44" width="52.76" height="3.52"/>
							</g>
						</g>
						<g>
							<g>
								<path d="M1733.32,1489.03c-18.4-176.66-5.8-346.3,10.55-503.31c18.07-133.76,9.91-264.3,0-386.56l3.5-0.28
									c9.93,122.44,18.11,253.2-0.01,387.26c-16.33,156.77-28.91,326.19-10.54,502.52L1733.32,1489.03z"/>
							</g>
						</g>
						<g>
							<g>
								<path d="M1694.64,1422.27c-13.04-94.53-11.89-194.78,3.52-306.47c14.74-128.99,17.04-248.52,7.03-365.38l3.5-0.3
									c10.04,117.1,7.74,236.86-7.04,366.12c-15.37,111.41-16.52,211.34-3.52,305.55L1694.64,1422.27z"/>
							</g>
						</g>
					</g>
					<g>
						<g>
							<g>
								<path d="M1395.6,638.79c-160.37,0-320.75-5.95-477.94-11.77c-46.85-1.73-95.29-3.53-142.82-5.13
									c-157.89-3.51-312.01-0.06-471.11,10.55l-0.23-3.51c159.21-10.61,313.42-14.06,471.44-10.55c47.56,1.6,96,3.4,142.85,5.14
									c262.62,9.73,534.17,19.79,799.57,1.9l0.23,3.51C1610.92,636.11,1503.27,638.79,1395.6,638.79z"/>
							</g>
						</g>
						<g>
							<g>
								<path d="M1394.51,723.18c-147.3,0-293.89-5.86-437.6-11.61c-44.65-1.79-90.82-3.63-136.35-5.28
									c-150.45-3.5-303.04,0.05-453.52,10.55l-0.24-3.51c150.58-10.51,303.28-14.05,453.86-10.55
									c45.55,1.65,91.73,3.49,136.38,5.28c240.6,9.62,489.38,19.56,735.68,1.76l0.25,3.51
									C1593.67,720.51,1493.92,723.18,1394.51,723.18z"/>
							</g>
						</g>
						<g>
							<g>
								<path d="M1355.55,802.21c-25.78,0-51.65-0.29-77.74-0.95c-54.01-1.78-108.77-3.79-161.73-5.74
									c-259.98-9.55-528.79-19.43-794.78-4.82l-0.19-3.51c266.14-14.62,535.05-4.75,795.09,4.81
									c52.96,1.95,107.71,3.96,161.7,5.74c138.34,3.46,271.06-3.18,411.58-10.21l6.81-0.34l0.18,3.51l-6.81,0.34
									C1575.56,796.76,1466.58,802.21,1355.55,802.21z"/>
							</g>
						</g>
						<g>
							<g>
								<path d="M1330.89,883.99c-64.72,0-129.46-1.49-193.84-5.35c-295.74-11.83-554.55-12.98-791.16-3.51l-0.14-3.52
									c236.71-9.47,495.61-8.32,791.48,3.52c175.81,10.55,354.55,3.4,527.42-3.52l0.14,3.52
									C1555.13,879.51,1443.06,883.99,1330.89,883.99z"/>
							</g>
						</g>
						<g>
							<g>
								<path d="M1348.36,966.86c-68.72,0-132.68-1.27-193.68-3.82c-242.32-9.45-524.64-18.27-808.76-3.52l-0.18-3.51
									c284.27-14.77,566.69-5.93,809.09,3.51c145.12,6.05,307.12,4.93,509.84-3.52l0.14,3.52
									C1547.18,964.43,1443.24,966.86,1348.36,966.86z"/>
							</g>
						</g>
						<g>
							<g>
								<path d="M1310.96,1053.87c-46.33,0-92.62-0.84-138.71-2.9c-323.45-17.02-570.71-19.19-801.72-7.04l-0.19-3.51
									c231.14-12.17,478.51-10,802.08,7.04c158.18,7.02,319.05-0.12,474.63-7.04l0.16,3.51
									C1536.86,1048.85,1423.83,1053.87,1310.96,1053.87z"/>
							</g>
						</g>
						<g>
							<g>
								<path d="M1289.23,1129.74c-44.92,0-88.51-0.46-131-1.39c-171.55-8.58-398.08-17.93-629.49-14.07
									c-51.81,3.45-105.48,7.04-158.3,7.04v-3.52c52.7,0,106.31-3.57,158.15-7.03c231.6-3.85,458.21,5.49,629.76,14.07
									c146.63,3.18,306.51,0.89,488.71-7.04l0.15,3.52C1517.71,1126.94,1399.47,1129.74,1289.23,1129.74z"/>
							</g>
						</g>
						<g>
							<g>
								<path d="M1325.54,1232.24c-60.14,0-120.34-1.52-181.45-5.42c-289.03-11.88-542.09-13.03-773.57-3.51l-0.14-3.52
									c231.58-9.52,484.72-8.36,773.9,3.52c163.87,10.47,321.35,3.76,488.09-3.34l4.15-0.18l0.15,3.52l-4.15,0.18
									C1527.85,1227.94,1426.8,1232.24,1325.54,1232.24z"/>
							</g>
						</g>
						<g>
							<g>
								<path d="M1407.26,1311.76c-35.73,0-71.26-0.32-106.41-0.64c-62.86-0.57-127.86-1.16-191.79,0.12
									c-246.28-21.1-496.54-13.95-738.57-7.04l-0.1-3.52c242.12-6.92,492.49-14.07,738.78,7.04c63.78-1.28,128.81-0.69,191.7-0.12
									c110,1,223.74,2.03,335.57-6.91l0.28,3.5C1560.51,1310.3,1483.42,1311.76,1407.26,1311.76z"/>
							</g>
						</g>
						<g>
							<g>
								<path d="M453.11,1369.46c-2.81-25.29-6.81-51.01-10.68-75.9c-5.81-37.39-11.83-76.05-13.94-114.13
									c0-5.09-1.67-10.08-3.43-15.37c-1.77-5.32-3.61-10.82-3.61-16.38l-21.1-295.31c-10.37-103.65-21.09-210.88-42.17-312.78
									l3.44-0.71c21.12,102.09,31.85,209.41,42.23,313.2l21.11,295.48c0.01,5.11,1.67,10.11,3.43,15.39
									c1.77,5.32,3.61,10.82,3.61,16.38c2.1,37.8,8.1,76.38,13.91,113.68c3.88,24.92,7.88,50.68,10.7,76.04L453.11,1369.46z"/>
							</g>
						</g>
						<g>
							<g>
								<path d="M534.01,1369.56c-5.28-31.67-9.75-62.97-14.07-93.25c-4.32-30.25-8.79-61.53-14.06-93.16
									c-8.53-74.66-13.28-148.12-17.87-219.15c-3.01-46.56-6.12-94.7-10.28-143.25c-2.11-18.24-4.08-36.54-6.05-54.83
									c-7.74-71.88-15.75-146.2-32.6-219.26l3.43-0.79c16.91,73.26,24.92,147.69,32.67,219.67c1.97,18.28,3.94,36.57,6.05,54.85
									c4.17,48.64,7.28,96.8,10.29,143.37c4.59,71,9.33,144.4,17.85,218.89c5.27,31.59,9.74,62.88,14.06,93.15
									c4.32,30.25,8.79,61.53,14.06,93.16L534.01,1369.56z"/>
							</g>
						</g>
						<g>
							<g>
								<path d="M614.88,1369.4c-2.34-30.39-7.89-61.34-13.27-91.27c-2.69-15-5.47-30.5-7.82-45.76
									c-3.53-35.26-7.05-69.55-10.56-103.84s-7.04-68.59-10.55-103.76c-6.63-152.45-22.73-311.15-49.23-485.27l3.48-0.53
									c26.52,174.24,42.63,333.07,49.26,485.55c3.51,35.07,7.03,69.36,10.55,103.65s7.04,68.59,10.55,103.76
									c2.33,15.13,5.11,30.61,7.8,45.59c5.39,30.01,10.96,61.05,13.31,91.62L614.88,1369.4z"/>
							</g>
						</g>
						<g>
							<g>
								<path d="M695.79,1369.54c-18.01-115.28-31.82-226.91-42.22-341.27c-12.77-195.8-27.95-345.44-49.22-485.25l3.48-0.53
									c21.29,139.92,36.48,289.65,49.26,485.51c10.38,114.24,24.19,225.79,42.19,341L695.79,1369.54z"/>
							</g>
						</g>
						<g>
							<g>
								<path d="M769.65,1369.51c-18.39-132.8-23.84-267.02-29.1-396.82c-3.83-94.28-7.78-191.76-16.63-289.09
									c-3.51-22.78-6.19-46.04-8.79-68.54c-2.59-22.46-5.27-45.69-8.78-68.52l3.48-0.53c3.52,22.9,6.21,46.16,8.8,68.65
									c2.59,22.46,5.27,45.69,8.78,68.52c8.87,97.52,12.83,195.05,16.65,289.37c5.26,129.72,10.71,263.85,29.07,396.49
									L769.65,1369.51z"/>
							</g>
						</g>
						<g>
							<g>
								<path d="M850.53,1372.98c-10.48-94.35-17.35-183.28-24.62-281.43c-3.39-132.34-6.9-269.1-17.59-407.98
									c-3.45-44.92-7.03-91.37-14.05-137.03l3.48-0.53c7.05,45.79,10.62,92.31,14.09,137.3c10.69,138.97,14.2,275.77,17.59,408.07
									c7.26,98.04,14.13,186.93,24.61,281.21L850.53,1372.98z"/>
							</g>
						</g>
						<g>
							<g>
								<path d="M924.4,1369.49c-17.06-134.02-18.96-270.23-20.8-401.96c-0.82-58.51-1.66-119.02-3.83-178.52
									c0-90.71-4.6-170.02-14.05-242.52l3.49-0.45c9.48,72.65,14.09,152.11,14.09,242.9c2.16,59.47,3.01,120,3.83,178.54
									c1.84,131.63,3.74,267.74,20.78,401.56L924.4,1369.49z"/>
							</g>
						</g>
						<g>
							<g>
								<path d="M1008.8,1376.53c-8.47-64.92-7.89-132.47-7.33-197.79c0.14-16.31,0.28-32.54,0.28-48.63V954.26
									c7.54-143.31,6.36-279.31-3.51-404.33l3.51-0.27c9.88,125.17,11.06,261.32,3.52,404.69l0,175.76
									c0,16.1-0.14,32.34-0.28,48.66c-0.56,65.2-1.14,132.63,7.3,197.31L1008.8,1376.53z"/>
							</g>
						</g>
						<g>
							<g>
								<path d="M1564.5,1369.49c-2.15-17.19-0.4-35.73,1.29-53.66c1.09-11.52,2.21-23.42,2.21-34.49
									c2.43-21.95,4.47-44.14,6.45-65.62c3.81-41.39,7.75-84.2,14.68-128.1l4.63-30.05c26.85-174.15,52.21-338.64,62.18-511.4
									l3.51,0.21c-9.98,172.93-35.35,337.5-62.21,511.73l-4.63,30.06c-6.91,43.8-10.85,86.54-14.65,127.88
									c-1.97,21.48-4.02,43.7-6.44,65.49c0.01,11.03-1.12,23.02-2.22,34.62c-1.67,17.74-3.41,36.09-1.31,52.89L1564.5,1369.49z"/>
							</g>
						</g>
						<g>
							<g>
								<path d="M1487.11,1369.27h-3.52c0-47.26,3.65-96,10.57-140.95l-0.02-34.9c7.06-42.51,10.55-80.95,14.07-123.24
									c29.78-189.88,49.89-356.36,63.31-524.04l3.5,0.28c-13.42,167.77-33.54,334.32-63.32,524.17
									c-3.52,42.24-7.01,80.77-14.07,123.11l0.02,34.88C1490.75,1273.63,1487.11,1322.19,1487.11,1369.27z"/>
							</g>
						</g>
						<g>
							<g>
								<path d="M1402.69,1369.44l-3.5-0.35c4.18-41.86,7.31-83.81,10.34-124.37c4.58-61.46,9.32-125.02,17.81-188.7
									c2.04-14.64,4.07-29.18,6.09-43.64c15.58-111.46,30.3-216.75,39.62-325.57c1.77-8.9,2.66-17.8,3.52-26.4
									c0.87-8.69,1.77-17.67,3.54-26.54c-0.04-13.78,0.86-29,1.73-43.72c0.86-14.67,1.76-29.84,1.76-43.86h3.52
									c0,14.12-0.9,29.35-1.76,44.07c-0.86,14.67-1.76,29.84-1.76,43.86c-1.78,9.05-2.67,17.95-3.53,26.55
									c-0.87,8.69-1.77,17.67-3.54,26.54c-9.31,108.73-24.03,214.05-39.62,325.56c-2.02,14.46-4.05,29-6.09,43.62
									c-8.48,63.57-13.21,127.08-17.79,188.49C1410.01,1285.57,1406.88,1327.54,1402.69,1369.44z"/>
							</g>
						</g>
						<g>
							<g>
								<path d="M1335.88,1365.75h-3.52c0-56.69,3.15-110.04,6.48-166.52l0.56-9.44c5.7-44.2,10.32-88.5,14.79-131.34
									c6.61-63.34,13.44-128.84,23.92-195.91c14.05-105.38,17.63-212.62,21.08-316.32l3.52,0.12
									c-3.46,103.79-7.04,211.11-21.12,316.71c-10.47,67.02-17.3,132.48-23.9,195.77c-4.47,42.86-9.09,87.18-14.79,131.31
									l-0.55,9.32C1339.02,1255.87,1335.88,1309.17,1335.88,1365.75z"/>
							</g>
						</g>
						<g>
							<g>
								<path d="M1247.93,1369.53l-3.48-0.52c5.26-35.06,6.15-70.77,7.01-105.3c0.87-34.64,1.76-70.45,7.05-105.73l-0.02-34.91
									c23.12-181.76,45.5-377.25,52.76-576.87l3.52,0.13c-7.26,199.75-29.65,395.34-52.77,576.96l0.01,34.95
									c-5.28,35.33-6.17,71.03-7.04,105.56C1254.12,1298.44,1253.23,1334.25,1247.93,1369.53z"/>
							</g>
						</g>
						<g>
							<g>
								<path d="M1167.05,1372.87l-3.51-0.16c1.76-38.67,2.65-77.1,3.51-114.27c0.87-37.18,1.76-75.64,3.52-114.34
									c3.71-42.4,7.8-85.01,11.75-126.23c15.28-159.41,29.71-309.99,26.94-468.05l3.52-0.06
									c2.78,158.26-11.66,308.93-26.95,468.45c-3.95,41.21-8.03,83.81-11.74,126.12c-1.75,38.6-2.65,77.02-3.51,114.19
									C1169.71,1295.7,1168.82,1334.16,1167.05,1372.87z"/>
							</g>
						</g>
						<g>
							<g>
								<path d="M1082.65,1369.34c-3.58-93.27,0.19-191.4,3.52-277.99c16.8-214.18,24.62-386.24,24.62-541.56h3.52
									c0,155.41-7.82,327.57-24.63,541.77c-3.32,86.45-7.09,184.51-3.51,277.64L1082.65,1369.34z"/>
							</g>
						</g>
					</g>
				</g>
				<g>
					<g>
						<g>
							<path style="fill:#FFE9AB;" d="M374.32,1365.41l-18.69-349.84c-0.18-3.34-0.6-6.7-1.26-9.98l-77.36-386.54
								c-3.15-15.75-13.11-29.72-27.32-38.33l-19.64-11.89c0.6-2.14,2.03-6.08,5.55-9.87c4.27-4.6,9.24-6.42,11.51-7.1
								c5.22,3.09,10.45,6.18,15.67,9.28c19.86,12.03,33.78,31.56,38.19,53.57l77.36,386.54c0.87,4.32,1.42,8.75,1.65,13.14
								l18.69,349.84L374.32,1365.41z"/>
							<path d="M372.66,1367.25l-0.1-1.75l-18.69-349.84c-0.18-3.27-0.59-6.54-1.23-9.73l-77.36-386.54
								c-3.05-15.27-12.71-28.82-26.51-37.17L228,569.64l0.36-1.29c1.1-3.92,3.15-7.58,5.95-10.59c4.14-4.47,8.97-6.59,12.29-7.59
								l0.74-0.22l16.33,9.67c20.3,12.3,34.52,32.25,39.02,54.74l77.36,386.54c0.88,4.39,1.45,8.9,1.68,13.39l18.78,351.61
								L372.66,1367.25z M232.15,568.03l18.46,11.18c14.63,8.86,24.88,23.26,28.13,39.49l77.36,386.54c0.67,3.35,1.1,6.8,1.29,10.23
								l18.6,348.1l20.85-1.01l-18.6-348.09c-0.23-4.32-0.78-8.66-1.62-12.89l-77.36-386.54c-4.31-21.53-17.93-40.63-37.38-52.41
								l-14.98-8.86c-2.85,0.95-6.69,2.81-10.01,6.38C234.78,562.43,233.15,565.13,232.15,568.03z"/>
						</g>
					</g>
					<g>
						<g>
							<path style="fill:#FFE9AB;" d="M1637.47,1371.2l18.69-349.84c0.18-3.34,0.6-6.7,1.26-9.98l77.36-386.54
								c3.15-15.75,13.11-29.72,27.32-38.33l19.64-11.89c-0.6-2.14-2.03-6.08-5.55-9.87c-4.27-4.6-9.25-6.42-11.51-7.1
								c-5.22,3.09-10.45,6.18-15.67,9.28c-19.86,12.03-33.78,31.56-38.19,53.57l-77.36,386.54c-0.87,4.32-1.42,8.75-1.65,13.14
								l-18.69,349.84L1637.47,1371.2z"/>
							<path d="M1639.14,1373.04l-27.87-1.35l0.09-1.76l18.69-349.84c0.24-4.51,0.81-9.02,1.69-13.4l77.36-386.54
								c4.5-22.49,18.72-42.44,39-54.73l16.34-9.67l0.74,0.22c3.32,1,8.15,3.12,12.29,7.59c2.8,3.01,4.86,6.68,5.95,10.59l0.36,1.29
								L1763,588.01c-13.79,8.35-23.45,21.9-26.51,37.17l-77.36,386.54c-0.64,3.19-1.05,6.47-1.23,9.73L1639.14,1373.04z
								 M1614.97,1368.35l20.85,1.01l18.6-348.1c0.18-3.43,0.62-6.87,1.29-10.23l77.36-386.54c3.25-16.23,13.5-30.63,28.14-39.49
								l18.46-11.18c-0.78-2.25-2.2-5.14-4.75-7.88c-3.32-3.57-7.16-5.43-10-6.38l-14.99,8.88c-19.43,11.77-33.05,30.88-37.36,52.41
								l-77.36,386.54c-0.84,4.21-1.39,8.55-1.63,12.89L1614.97,1368.35z"/>
						</g>
					</g>
				</g>
				<g>
					<path style="fill:#FFE9AB;" d="M1831.94,1586.27V533.42c0-15.34-13.15-27.8-29.41-27.86L209.7,498.92
						c-16.52-0.07-29.95,12.54-29.95,28.12v1058.81c0,0,48.04-0.22,48.04,0.82V578.1c0-14.84,12.64-26.85,28.18-26.79l1498.95,6.32
						c15.31,0.06,27.68,11.93,27.68,26.54v1002.1L1831.94,1586.27L1831.94,1586.27z"/>
					<path d="M227.12,1588.26c-2.4-0.62-30.34-0.72-47.37-0.64l-1.77,0.01V527.04c0-7.7,3.09-15.01,8.68-20.58
						c6.06-6.04,14.3-9.23,23.03-9.3l1592.83,6.63c17.18,0.07,31.16,13.36,31.16,29.62v1054.61h-52.85V584.17
						c0-13.61-11.63-24.72-25.93-24.78l-1498.95-6.32c-0.04,0-0.08,0-0.12,0c-7.25,0-14,2.74-19.01,7.74
						c-4.7,4.68-7.29,10.82-7.29,17.29v1008.57h-3.52h1.76L227.12,1588.26z M193.62,1584.06c20.27,0,28.74,0.27,32.41,0.61V578.1
						c0-7.42,2.95-14.44,8.32-19.78c5.68-5.66,13.31-8.77,21.49-8.77c0.05,0,0.09,0,0.14,0l1498.95,6.32
						c16.23,0.07,29.43,12.76,29.43,28.3v1000.35h45.82V533.42c0-14.33-12.41-26.04-27.66-26.11l-1592.83-6.63
						c-7.99-0.09-15.15,2.91-20.54,8.27c-4.93,4.91-7.65,11.34-7.65,18.09v1057.05C185.95,1584.07,189.98,1584.06,193.62,1584.06z"
						/>
				</g>
			</g>
			<g>
				<g>
					<g>
						<g>
							<path style="fill:#FFFFFF;" d="M892.76,503.06H629.34c-5-24.8-8.07-51.26-9.04-78.77c-0.62-17.87-0.26-35.31,0.97-52.22
								v-0.09c3.16-45.21,12.37-86.3,26.06-120.56c23.52-58.53,60.19-96.47,102.57-98.05c54.14-1.93,102.84,55.46,128.64,140.98
								c0.18,0.09,0.18,0.18,0.18,0.35c10.62,35.66,17.46,76.23,18.87,119.42C898.64,445.23,896.88,475.2,892.76,503.06z"/>
							<path d="M894.28,504.82H627.91l-0.28-1.41c-5.06-25.08-8.11-51.68-9.07-79.05c-0.61-17.59-0.28-35.23,0.97-52.41
								c3.07-44.14,12.13-86.01,26.18-121.18c24.7-61.47,62.65-97.61,104.14-99.15c53.42-1.82,103.19,52.43,130.26,141.8
								c0.18,0.25,0.32,0.56,0.36,0.97c11.17,37.58,17.52,77.85,18.88,119.68c1.03,30.52-0.59,60.55-4.84,89.25L894.28,504.82z
								 M630.79,501.3h260.45c4.05-28.04,5.59-57.34,4.59-87.12c-1.35-41.45-7.63-81.34-18.67-118.56l-0.08-0.04l-0.21-0.72
								c-26.55-88.03-75.14-141.54-126.89-139.73c-40.04,1.49-76.85,36.82-101.01,96.94c-13.92,34.83-22.89,76.34-25.94,120.03
								c-1.24,17.15-1.56,34.66-0.96,52.12C623,450.91,625.93,476.83,630.79,501.3z"/>
						</g>
						<g>
							<g>
								<path d="M646.65,253.03c-39.6-17.76-38.56-69.43-38.55-69.95l3.52,0.1c-0.01,0.5-0.96,49.84,36.47,66.64L646.65,253.03z"/>
							</g>
							<g>
								<path d="M630.17,300.6c-46.83-3.88-58.65-59.19-58.76-59.75l3.44-0.7c0.03,0.14,2.85,13.58,11.15,27.27
									c11.02,18.16,25.98,28.14,44.45,29.68L630.17,300.6z"/>
							</g>
							<g>
								<path d="M621.11,373.76c-46.78-4.89-59.89-53-60.02-53.49l3.41-0.89c0.12,0.46,12.66,46.25,56.98,50.88L621.11,373.76z"/>
							</g>
						</g>
						<g>
							<path d="M876.61,503.06H648.74c-0.53-4.47-0.88-8.94-1.14-13.49c-5.53-97.43,41.24-179.27,104.42-182.86
								c63.18-3.5,118.9,72.55,124.42,169.98C876.96,485.63,876.96,494.48,876.61,503.06z"/>
							<path d="M878.3,504.82H647.17l-0.18-1.55c-0.49-4.13-0.85-8.45-1.15-13.6c-5.57-98.21,42.01-181.07,106.07-184.71
								c64.1-3.58,120.71,73.44,126.28,171.63c0.5,8.39,0.56,17.32,0.18,26.54L878.3,504.82z M650.31,501.3h224.61
								c0.3-8.51,0.22-16.74-0.24-24.51c-5.46-96.26-60.36-171.75-122.57-168.33C689.99,312,643.89,393.2,649.35,489.47
								C649.61,493.9,649.91,497.71,650.31,501.3z"/>
						</g>
						<g>
							<path style="fill:#FFFFFF;" d="M811.97,424.85c-42.24,7.75-47.15,14.23-53.55,70.72c-5.6-56.57-10.42-63.12-52.54-71.45
								c42.24-7.75,47.15-14.23,53.55-70.72C765.02,409.96,769.84,416.51,811.97,424.85z"/>
						</g>
					</g>
					<g>
						<g>
							<path style="fill:#FFFFFF;" d="M1395.55,407.03c0.09,33.91-3.25,66.24-9.3,96.03h-258.77c-6.05-29.53-9.39-61.77-9.3-95.42
								c-0.18-146.85,61.86-266.1,138.46-266.27c42.47-0.18,80.46,36.45,105.91,93.93c0,0,0,0.09,0.09,0.09
								c16.04,37.76,26.29,78.23,30.19,119.42C1394.69,371.98,1395.51,389.65,1395.55,407.03z"/>
							<path d="M1387.68,504.82h-261.64l-0.29-1.4c-6.28-30.64-9.42-62.86-9.34-95.77c-0.18-147.61,62.72-267.85,140.22-268.03
								c0.1,0,0.21,0,0.31,0c41.2,0,80.07,34.23,106.79,94.02h0.06c23.44,53.56,33.68,114.81,33.51,173.42
								c0.09,33.04-3.06,65.47-9.34,96.37L1387.68,504.82z M1128.92,501.3h255.89c6.04-30.25,9.07-61.96,8.98-94.27
								c-0.04-17.44-0.82-34.78-2.77-52.55l0.07-0.13c-4.02-40.21-14.07-80.57-29.59-117.21h-0.61l-0.07-1.43
								c-26.14-58.87-63.97-92.59-103.87-92.59c-0.1,0-0.19,0-0.29,0c-75.56,0.17-136.89,118.83-136.71,264.51
								C1119.85,439.82,1122.88,471.32,1128.92,501.3z"/>
						</g>
						<g>
							<g>
								<path d="M1363.46,236.93l-1.56-3.15c36.87-18.27,34.18-67.53,34.15-68.03l3.51-0.22
									C1399.59,166.04,1402.4,217.63,1363.46,236.93z"/>
							</g>
							<g>
								<path d="M1381.57,283.82l-0.43-3.49c18.42-2.25,33.02-12.82,43.4-31.4c7.83-14.01,10.18-27.55,10.2-27.69l3.47,0.58
									C1438.13,222.38,1428.24,278.11,1381.57,283.82z"/>
							</g>
							<g>
								<path d="M1393.16,356.58l-0.5-3.48c44.2-6.36,55.09-52.61,55.19-53.08l3.43,0.77
									C1451.17,301.28,1439.73,349.87,1393.16,356.58z"/>
							</g>
						</g>
						<g>
							<path d="M1370.45,482.65c-0.44,6.92-1.05,13.75-2.02,20.41h-226.65c-0.79-11.21-0.88-22.78-0.09-34.52
								c6.05-97.43,62.12-173.22,125.3-169.28C1330.17,303.12,1376.51,385.3,1370.45,482.65z"/>
							<path d="M1369.96,504.82h-229.81l-0.12-1.64c-0.82-11.7-0.85-23.4-0.09-34.76c2.95-47.45,17.71-91.35,41.57-123.59
								c24.03-32.47,54.47-49.29,85.59-47.33c22.62,1.38,43.92,12.68,61.6,32.68c31,35.07,47.26,92.1,43.5,152.57l0,0
								c-0.49,7.79-1.15,14.52-2.03,20.56L1369.96,504.82z M1143.43,501.3h223.48c0.76-5.56,1.35-11.71,1.79-18.77
								c3.7-59.56-12.23-115.64-42.62-150.03c-17.04-19.28-37.51-30.17-59.18-31.49c-29.95-1.86-59.25,14.43-82.55,45.91
								c-23.46,31.7-37.98,74.93-40.89,121.72C1142.73,479.34,1142.73,490.31,1143.43,501.3z"/>
						</g>
						<g>
							<path style="fill:#FFFFFF;" d="M1311.25,424.85c-42.24,7.75-47.15,14.23-53.55,70.72c-5.6-56.57-10.42-63.12-52.54-71.45
								c42.24-7.75,47.15-14.23,53.55-70.72C1264.31,409.96,1269.12,416.51,1311.25,424.85z"/>
						</g>
					</g>
				</g>
				<g>
					<path style="fill:#FF4568;" d="M1082.36,504.84l-120.29-0.74c-1.52-5.17-2.47-10.5-2.7-16.07
						c-1.41-35.1,29.5-63.38,63.75-62.92c34.39,0.56,59.15,29.74,60.56,64.84C1083.94,495.06,1083.5,500.11,1082.36,504.84z"/>
					<path d="M1083.75,506.61l-122.99-0.75l-0.37-1.26c-1.64-5.57-2.54-10.96-2.77-16.49c-0.66-16.49,5.57-32.35,17.54-44.64
						c12.67-13.01,30.22-20.33,47.99-20.1c34.01,0.55,60.79,29.15,62.29,66.52c0.26,5.28-0.2,10.46-1.37,15.37L1083.75,506.61z
						 M963.41,502.36l117.55,0.72c0.87-4.18,1.2-8.55,0.97-13.03c-1.42-35.5-26.71-62.64-58.83-63.17
						c-17.02-0.2-33.42,6.72-45.42,19.04c-11.3,11.6-17.17,26.53-16.55,42.05C961.33,492.79,962.08,497.51,963.41,502.36z"/>
				</g>
				<g>
					<g>
						<path style="fill:#FFBC00;" d="M1251.73,510.42c-5.14,92.53-113.74,179.37-246.28,173.56
							c-126.71-5.53-229.98-95.35-233.96-182.59l32.28,0.06l408.15,0.46l40.02,0.03C1252,504.68,1251.86,507.6,1251.73,510.42z"/>
						<path d="M1017.56,686c-4.05,0-8.11-0.09-12.19-0.26c-121.3-5.29-231.4-91.39-235.64-184.26l-0.08-1.84l34.12,0.07l449.89,0.5
							l0.04,1.72c0.06,2.77-0.07,5.68-0.21,8.5l-0.01,0.11C1248.17,606.22,1139.39,686,1017.56,686z M773.35,503.15
							c5.51,90.46,113.4,173.89,232.18,179.06c138.17,6.13,239.66-85.73,244.45-171.9l0-0.08c0.1-2.17,0.21-4.39,0.22-6.53
							L773.35,503.15z"/>
					</g>
					<g>
						<g>
							<path style="fill:#FFFFFF;" d="M1008.42,646.99c-106.17-3.49-190.78-58.68-189.92-123.37l387.05,1
								c0.35,3.45,0.51,6.98,0.4,10.56C1203.87,600.48,1115.39,650.55,1008.42,646.99z"/>
							<path d="M1019.24,648.93c-3.61,0-7.23-0.06-10.88-0.18c-106.53-3.5-192.49-59.65-191.62-125.16l0.02-1.74l1.74,0l388.63,1.01
								l0.16,1.58c0.38,3.78,0.51,7.31,0.41,10.8c-0.71,22.23-11.34,43.59-30.75,61.78
								C1141.92,629.85,1083.55,648.93,1019.24,648.93z M820.25,525.38c0.71,62.86,84.55,116.45,188.22,119.85l0,0
								c67.65,2.25,129.74-16.73,166.08-50.78c18.71-17.54,28.96-38.05,29.63-59.32c0.09-2.84,0.01-5.72-0.24-8.76L820.25,525.38z"
								/>
						</g>
						<g>
							
								<rect x="926.28" y="523.11" transform="matrix(0.9998 -0.0216 0.0216 0.9998 -12.2917 20.18)" width="3.52" height="111.99"/>
						</g>
						<g>
							
								<rect x="952.77" y="583.77" transform="matrix(1.999996e-03 -1 1 1.999996e-03 428.3119 1600.2177)" width="126.2" height="3.52"/>
						</g>
						<g>
							
								<rect x="1052.08" y="577.38" transform="matrix(1.899997e-03 -1 1 1.899997e-03 525.5093 1684.7887)" width="109.34" height="3.52"/>
						</g>
					</g>
				</g>
				<g>
					<g>
						<g>
							<path d="M599.06,131.11c-1.64,12.45,50.6,29.09,155.14,61.86c105.57,33.09,158.47,49.4,164.29,38.17
								c9.27-17.89-53.95-90.96-138.54-117.45C695.36,87.19,601.68,111.15,599.06,131.11z"/>
							<path d="M908.23,236.47c-19.79,0-65.32-13.87-154.55-41.83c-117.56-36.85-158.13-50.28-156.36-63.76
								c0.51-3.93,3.77-7.82,9.66-11.59c26.45-16.9,103.46-29.21,173.5-7.29c70.02,21.93,126.2,75.94,138.26,104.89
								c2.69,6.47,3.13,11.53,1.31,15.05C918.49,234.95,914.76,236.47,908.23,236.47z M599.06,131.11l1.74,0.23
								c-1.47,11.24,60.35,30.62,153.93,59.95c94.51,29.62,156.94,49.2,162.2,39.04c1.31-2.52,0.81-6.7-1.44-12.08
								c-11.8-28.33-67.05-81.27-136.07-102.88c-69.04-21.62-144.66-9.65-170.56,6.89c-4.91,3.13-7.7,6.28-8.07,9.08L599.06,131.11z
								"/>
						</g>
					</g>
					<g>
						<g>
							<path d="M1424.96,130.9c1.64,12.45-50.6,29.09-155.14,61.86c-105.57,33.09-158.47,49.4-164.29,38.17
								c-9.27-17.89,53.95-90.96,138.54-117.45C1328.66,86.98,1422.33,110.94,1424.96,130.9z"/>
							<path d="M1115.79,236.26c-6.54,0-10.26-1.51-11.83-4.53c-1.82-3.52-1.38-8.58,1.31-15.05
								c12.06-28.95,68.24-82.96,138.26-104.89c70.04-21.93,147.04-9.61,173.5,7.28c5.9,3.77,9.15,7.67,9.67,11.59l0,0
								c1.77,13.48-38.8,26.91-156.36,63.76C1181.12,222.4,1135.58,236.26,1115.79,236.26z M1324.29,103.47
								c-25.39,0-53.03,3.34-79.7,11.69c-69.01,21.61-124.26,74.55-136.07,102.88c-2.24,5.38-2.74,9.56-1.43,12.08
								c5.25,10.15,67.68-9.41,162.2-39.04c93.58-29.33,155.4-48.71,153.92-59.95l0,0c-0.37-2.81-3.16-5.95-8.07-9.09
								C1399.25,111.9,1364.62,103.47,1324.29,103.47z"/>
						</g>
					</g>
				</g>
			</g>
		</g>
		<g>
			<g>
				<g>
					
						<rect x="1674.06" y="1614.17" transform="matrix(0.4825 -0.8759 0.8759 0.4825 -714.5746 2402.418)" width="3.51" height="383.53"/>
				</g>
				<g>
					
						<rect x="1586.57" y="1689.21" transform="matrix(0.4829 -0.8757 0.8757 0.4829 -762.8106 2326.3413)" width="3.51" height="239.67"/>
				</g>
				<g>
					
						<rect x="1612.49" y="1639.91" transform="matrix(0.4434 -0.8963 0.8963 0.4434 -643.0615 2404.1311)" width="3.52" height="159.89"/>
				</g>
			</g>
			<g>
				<g>
					<path style="fill:#FFFFFF;" d="M1552.56,1552.75c-16.16,55.41-45.85,103.4-85.49,142.41
						c-72.06,71.22-176.87,112.72-291.93,114.99c-55.61,1.07-113.69-7.05-171.52-25.32c-31.12-9.88-60.59-22.34-88.38-36.83
						c-6.29-3.24-12.5-6.55-18.6-9.99c-2.29-1.27-4.51-2.54-6.73-3.88c-2.55-1.48-5.02-2.96-7.5-4.5
						c-12.33-7.52-24.24-15.5-35.67-23.85c-10.2-7.38-19.99-15.15-29.44-23.18c-90.8-76.79-148.25-179.78-157.41-285.61
						c-0.53-6.06-0.93-12.13-1.06-18.18c-1.29-35.06,2.88-70.34,13.03-104.96c14.5-49.49,39.78-93.1,73.22-129.6
						c3.52-3.94,7.18-7.74,10.9-11.46c76.35-76.13,189.64-118.67,313.14-116.28c49.55,0.92,100.65,9.14,151.75,25.33
						c65.59,20.73,124.35,52.66,174,92.13c93.67,74.5,154.82,176.21,168.19,281.79l0,0.07
						C1568.86,1461.39,1565.78,1507.61,1552.56,1552.75z"/>
					<path d="M1165.33,1812.01c-54.14,0-108.67-8.57-162.24-25.5c-30.2-9.59-60.03-22.02-88.66-36.95
						c-6.82-3.51-12.93-6.8-18.65-10.03c-2.29-1.27-4.53-2.55-6.77-3.9c-2.54-1.48-5.03-2.97-7.52-4.52
						c-12.25-7.47-24.29-15.52-35.78-23.92c-9.81-7.1-19.48-14.71-29.54-23.26c-91.33-77.24-148.93-181.78-158.03-286.8
						c-0.59-6.83-0.94-12.81-1.06-18.29c-1.32-35.83,3.09-71.33,13.1-105.49c14.28-48.72,39.04-92.55,73.61-130.29
						c3.17-3.55,6.76-7.32,10.95-11.52c76.82-76.6,191.37-119.09,314.42-116.79c50.78,0.95,102,9.49,152.24,25.41
						c64.2,20.29,122.93,51.39,174.57,92.42c93.99,74.76,155.53,177.88,168.84,282.94l0.02,0.15l-0.01,0.23
						c5.97,46.71,2.41,93.02-10.57,137.34l0,0c-15.91,54.53-44.82,102.7-85.95,143.17c-73.03,72.18-177.14,113.2-293.13,115.5
						C1171.89,1811.97,1168.61,1812.01,1165.33,1812.01z M1059.37,1018.17c-118.36,0-228.02,41.94-302.15,115.86
						c-4.14,4.15-7.69,7.88-10.83,11.39c-34.21,37.35-58.71,80.72-72.84,128.92c-9.9,33.8-14.26,68.92-12.96,104.4
						c0.12,5.43,0.46,11.34,1.05,18.09c9.02,104.11,66.17,207.77,156.8,284.42c10,8.49,19.59,16.04,29.33,23.09
						c11.42,8.35,23.38,16.35,35.55,23.77c2.48,1.54,4.94,3.01,7.47,4.48c2.22,1.34,4.43,2.6,6.69,3.86
						c5.7,3.21,11.76,6.47,18.55,9.97c28.46,14.84,58.1,27.19,88.1,36.72c56.45,17.84,113.91,26.31,170.95,25.24
						c115.09-2.27,218.34-42.93,290.74-114.48c40.69-40.05,69.3-87.72,85.03-141.65l0,0c12.85-43.86,16.36-89.69,10.44-136.22
						l-0.02-0.15l0.01-0.23c-13.18-103.84-74.25-206.13-167.53-280.32c-51.29-40.77-109.64-71.66-173.44-91.82
						c-49.92-15.82-100.81-24.31-151.25-25.25C1065.85,1018.2,1062.6,1018.17,1059.37,1018.17z"/>
				</g>
				<g>
					<g>
						<path d="M794.31,1192.47l-60.57,181.19l-74.91,5.14c-1.29-35.06,2.88-70.34,13.03-104.96c14.5-49.49,39.78-93.1,73.22-129.6
							L794.31,1192.47z"/>
						<path d="M657.15,1380.68l-0.07-1.82c-1.32-35.85,3.09-71.35,13.1-105.52c14.28-48.72,39.04-92.55,73.61-130.29l1.23-1.34
							l51.31,50.27l-61.29,183.35L657.15,1380.68z M745.16,1146.78c-33.56,37.03-57.65,79.94-71.6,127.56
							c-9.74,33.22-14.11,67.72-13.02,102.58l71.92-4.94l59.84-179.03L745.16,1146.78z"/>
					</g>
					<g>
						<path d="M1394.85,1133.94l-107.92,77.82l-183.2-66.06l-34.63-129.2c49.54,0.95,100.7,9.16,151.74,25.31
							C1286.49,1062.59,1345.22,1094.47,1394.85,1133.94z"/>
						<path d="M1287.2,1213.72l-0.87-0.31l-184.06-66.37l-0.24-0.89l-35.23-131.46l2.34,0.05c50.83,0.97,102.05,9.52,152.23,25.39
							c64.32,20.36,123.05,51.46,174.58,92.43l1.82,1.45L1287.2,1213.72z M1105.19,1144.35l181.46,65.43l105.28-75.91
							c-50.75-40-108.48-70.4-171.62-90.39c-49.09-15.53-99.18-24-148.9-25.18L1105.19,1144.35z"/>
					</g>
					<g>
						<path d="M1137.98,1808.46c-56.03-2.73-113.7-14.73-170.3-36.79c-56.92-22.22-107.66-52.63-150.73-88.8l110.98-73.65
							l181.13,71.49L1137.98,1808.46z"/>
						<path d="M1140.21,1810.33l-2.31-0.11c-57.77-2.82-115.26-15.23-170.85-36.9c-55.97-21.85-106.85-51.83-151.22-89.09l-1.8-1.51
							l113.71-75.46l182.84,72.17l0.2,0.91L1140.21,1810.33z M819.89,1683.03c43.65,36.32,93.58,65.59,148.43,87
							c54.5,21.24,110.82,33.53,167.43,36.55l-28.21-124.58l-179.41-70.82L819.89,1683.03z"/>
					</g>
					<g>
						<path d="M1552.57,1552.77c-16.18,55.38-45.89,103.37-85.47,142.38l-154.49-111.84l65.07-179.42l185.41,11.88
							C1568.88,1461.38,1565.79,1507.6,1552.57,1552.77z"/>
						<path d="M1467.28,1697.45l-156.78-113.49l65.97-181.91l1.32,0.08l186.86,11.98l0.18,1.44c5.97,46.99,2.42,93.32-10.57,137.71
							c-15.92,54.48-44.83,102.64-85.92,143.14L1467.28,1697.45z M1314.72,1582.67l152.21,110.19
							c40.11-39.87,68.35-87.15,83.96-140.58l0,0c12.72-43.47,16.29-88.82,10.64-134.83l-182.65-11.71L1314.72,1582.67z"/>
					</g>
					<g>
						<polygon points="893.05,1496.37 1094.39,1573.74 1249.43,1465.81 1203.13,1280.5 1001.79,1203.13 846.75,1311.07 						"/>
						<path d="M1094.63,1575.71l-0.87-0.33l-202.19-77.7l-46.82-187.37l156.8-109.16l203.06,78.03l0.22,0.89l46.6,186.48l-0.99,0.69
							L1094.63,1575.71z M894.53,1495.06l199.62,76.7l153.28-106.71l-45.79-183.24l-199.61-76.71l-153.28,106.71L894.53,1495.06z"/>
					</g>
				</g>
			</g>
			<g>
				<g>
					<g>
						<g>
							<path style="fill:#FFFFFF;" d="M1168.7,1270.57c-1.15,2.03-7.27,14.82-8.93,19.19c-23.52,61.47-3.97,130.59,46.28,170.91
								c8.5,6.89,17.87,12.91,28.03,17.91c74.79,36.81,165.29,6.16,202.15-68.52c36.92-74.64,6.17-165.05-68.62-201.86
								c-5.87-2.9-11.9-5.4-17.94-7.48c-44.7-15.33-92.88-8.42-130.87,16.11c-0.04,0.06-0.04,0.06-0.04,0.06
								c-1.21,0.76-2.45,1.58-3.66,2.34C1196.37,1232.16,1180.31,1249.43,1168.7,1270.57z"/>
							<path d="M1300.6,1495.86c-22.65,0-45.64-5.05-67.31-15.71c-10.15-5-19.69-11.09-28.36-18.11
								c-51.69-41.49-70.51-110.98-46.81-172.91c1.65-4.33,7.75-17.15,9.04-19.43c11.46-20.87,27.25-38.34,46.93-51.92l3.74-2.43
								c39.67-25.62,87.93-31.55,132.39-16.3c6.22,2.15,12.32,4.69,18.14,7.56c36.63,18.03,64.02,49.23,77.12,87.86
								c13.08,38.55,10.34,79.87-7.71,116.36C1411.26,1464.62,1356.96,1495.86,1300.6,1495.86z M1220.07,1218.11l-0.37,0.27
								l-3.66,2.34c-19.16,13.23-34.59,30.29-45.79,50.68l-0.01,0.02c-1.17,2.06-7.23,14.77-8.82,18.96
								c-23.15,60.5-4.77,128.38,45.73,168.92c8.47,6.87,17.79,12.82,27.71,17.7c73.82,36.33,163.44,5.95,199.8-67.72
								c17.63-35.64,20.3-76,7.53-113.67c-12.8-37.73-39.56-68.22-75.35-85.84c-5.69-2.81-11.66-5.29-17.74-7.39
								C1305.77,1187.52,1258.76,1193.25,1220.07,1218.11z"/>
						</g>
						<g>
							<path style="fill:#00BEFB;" d="M1168.95,1270.7c-23.92,44.57-24.97,100.66-0.13,145.74c2.58,4.68,5.42,9.23,8.49,13.6
								c8.08,11.49,17.78,21.84,28.73,30.63c18.33-6.12,10.73-29.79,26.39-38.77c13.05-7.42,27.51-5.11,34.67-19.5
								c5.85-11.53-0.47-26.39-0.65-39.59c-0.37-26,17.01-21.42,37.44-35.22c13.04-8.75,14.58-18.25,12.89-34.03
								c-1.99-18.28-5.73-19.64,11.13-27.72c10.11-4.89,25.16-6.29,32.47-14.37c10.38-11.61,8.81-30.46-4.49-44.48
								c-2.02-2.14-4.14-4.25-6.23-6.27c-44.7-15.33-92.88-8.42-130.91,16.17c-0.94,1-2.11,1.7-3.66,2.34
								c-6.97,2.86-14.13,10.79-19.46,15.96C1184.85,1245.68,1175.93,1257.7,1168.95,1270.7z"/>
							<path d="M1205.69,1462.64l-0.75-0.6c-11.09-8.9-20.87-19.33-29.07-30.99c-3.1-4.41-5.99-9.04-8.59-13.76
								c-24.69-44.79-24.64-101.28,0.12-147.42c7.21-13.44,16.3-25.52,27.02-35.93c0.84-0.82,1.74-1.71,2.67-2.64
								c4.97-4.97,11.17-11.15,17.35-13.69c1.42-0.58,2.33-1.15,3.05-1.91l0.33-0.27c39.67-25.66,87.94-31.62,132.43-16.35
								l0.65,0.39c2.11,2.04,4.25,4.17,6.29,6.32c13.84,14.6,15.74,34.31,4.52,46.86c-5.04,5.57-13.24,8.08-21.16,10.52
								c-4.31,1.32-8.38,2.57-11.86,4.26c-12.94,6.2-12.77,7.34-11.18,18.15c0.33,2.21,0.7,4.77,1.03,7.8
								c1.72,16.04,0.06,26.48-13.66,35.68c-6.49,4.39-12.61,6.93-18.03,9.18c-11.77,4.89-18.87,7.84-18.63,24.56
								c0.06,4.3,0.81,8.92,1.54,13.39c1.51,9.26,3.07,18.84-1.08,27.02c-5,10.03-13.22,12.46-21.91,15.05
								c-4.46,1.32-9.08,2.69-13.46,5.18c-6.75,3.87-8.8,10.75-10.96,18.03c-2.54,8.53-5.16,17.35-15.74,20.88L1205.69,1462.64z
								 M1219.89,1218.26c-1.04,1.06-2.32,1.86-4.12,2.6c-5.53,2.27-11.44,8.18-16.2,12.92c-0.94,0.94-1.84,1.84-2.7,2.67
								c-10.46,10.15-19.33,21.95-26.37,35.07l0,0c-24.2,45.1-24.26,100.3-0.14,144.06c2.54,4.6,5.36,9.12,8.39,13.44
								c7.82,11.12,17.11,21.1,27.63,29.65c8.1-3.16,10.29-10.49,12.59-18.23c2.27-7.62,4.62-15.51,12.59-20.08
								c4.75-2.7,9.55-4.12,14.21-5.5c8.29-2.46,15.45-4.58,19.77-13.25c3.63-7.17,2.23-15.77,0.75-24.87
								c-0.75-4.6-1.52-9.35-1.59-13.91c-0.27-19.11,9.03-22.97,20.8-27.86c5.25-2.18,11.21-4.65,17.41-8.84
								c12.38-8.31,13.77-17.06,12.13-32.38c-0.32-2.97-0.7-5.49-1.02-7.67c-1.76-11.98-1.62-14.76,13.14-21.83
								c3.72-1.8,8.1-3.14,12.35-4.45c7.47-2.29,15.19-4.67,19.58-9.51c9.96-11.14,8.09-28.85-4.46-42.09
								c-1.91-2.02-3.91-4.02-5.89-5.93C1305.44,1187.53,1258.51,1193.36,1219.89,1218.26z"/>
						</g>
						<g>
							
								<rect x="1285.77" y="1131.59" transform="matrix(0.9949 -0.101 0.101 0.9949 -110.9273 135.9882)" width="3.51" height="63.8"/>
						</g>
						<g>
							
								<rect x="1366.85" y="1188.37" transform="matrix(0.5569 -0.8306 0.8306 0.5569 -369.8104 1687.0686)" width="58.82" height="3.51"/>
						</g>
						<g>
							
								<rect x="1437.41" y="1274.39" transform="matrix(0.9084 -0.4181 0.4181 0.9084 -399.0064 731.0482)" width="63.02" height="3.52"/>
						</g>
					</g>
					<g>
						<g>
							<path style="fill:#FFFFFF;" d="M771.11,1107.94c-1.05,2.09-6.5,15.17-7.94,19.62c-20.36,62.59,2.68,130.62,54.91,168.34
								c8.84,6.46,18.51,11.98,28.91,16.46c76.57,32.97,165.39-2.23,198.4-78.69c33.08-76.42-2.23-165.15-78.8-198.12
								c-6.01-2.6-12.16-4.78-18.3-6.56c-45.42-13.05-93.19-3.7-129.88,22.73c-0.03,0.06-0.03,0.06-0.03,0.06
								c-1.17,0.82-2.37,1.7-3.54,2.52C796.79,1068.18,781.62,1086.25,771.11,1107.94z"/>
							<path d="M906.57,1326.45c-20.16,0-40.63-4-60.29-12.47c-10.39-4.47-20.24-10.08-29.25-16.65
								c-53.74-38.81-76.06-107.26-55.55-170.31c1.5-4.63,7-17.78,8.04-19.86c10.39-21.43,25.27-39.68,44.23-54.23l3.62-2.61
								c38.3-27.59,86.2-35.98,131.4-23c6.33,1.83,12.55,4.06,18.51,6.63c37.51,16.15,66.45,45.92,81.5,83.83
								c15.02,37.84,14.39,79.24-1.78,116.59C1022.13,1291.95,965.72,1326.45,906.57,1326.45z M819.75,1052.94l0,0.01l-3.9,2.81
								c-18.47,14.18-33.01,32.01-43.16,52.95l-0.01,0.02c-1.07,2.13-6.47,15.14-7.84,19.38c-20.04,61.6,1.77,128.46,54.27,166.38
								c8.8,6.43,18.42,11.9,28.57,16.27c75.56,32.53,163.53-2.35,196.09-77.77c15.79-36.49,16.41-76.94,1.74-113.9
								c-14.7-37.04-42.98-66.13-79.62-81.9c-5.82-2.52-11.91-4.7-18.09-6.48C903.76,1018.04,857.12,1026.16,819.75,1052.94z"/>
						</g>
						<g>
							<path style="fill:#00BEFB;" d="M771.36,1108.06c-21.62,45.73-19.82,101.8,7.28,145.55c2.82,4.54,5.88,8.94,9.17,13.15
								c8.65,11.07,18.86,20.91,30.26,29.13c17.99-7.05,9.2-30.29,24.39-40.06c12.66-8.07,27.21-6.5,33.64-21.23
								c5.26-11.82-1.81-26.33-2.67-39.51c-1.7-25.94,15.9-22.26,35.59-37.08c12.58-9.4,13.64-18.97,11.14-34.64
								c-2.92-18.16-6.73-19.32,9.71-28.25c9.85-5.4,24.8-7.56,31.7-16c9.77-12.12,7.25-30.86-6.74-44.2
								c-2.12-2.03-4.35-4.03-6.54-5.94c-45.42-13.05-93.19-3.7-129.91,22.79c-0.89,1.05-2.02,1.81-3.54,2.52
								c-6.81,3.21-13.56,11.49-18.62,16.93C785.97,1082.27,777.67,1094.72,771.36,1108.06z"/>
							<path d="M817.82,1297.9l-0.78-0.56c-11.53-8.33-21.83-18.25-30.61-29.48c-3.32-4.25-6.44-8.73-9.28-13.31
								c-26.94-43.48-29.76-99.9-7.38-147.24l0,0c6.52-13.78,14.98-26.32,25.16-37.26c0.8-0.86,1.65-1.8,2.53-2.78
								c4.71-5.21,10.58-11.7,16.62-14.55c1.39-0.65,2.27-1.27,2.95-2.07l0.31-0.29c38.32-27.65,86.22-36.04,131.43-23.06l0.66,0.36
								c2.22,1.93,4.46,3.95,6.61,6c14.56,13.88,17.47,33.47,6.9,46.57c-4.76,5.82-12.81,8.75-20.6,11.58
								c-4.23,1.54-8.23,3-11.62,4.85c-12.61,6.85-12.38,7.97-10.24,18.7c0.44,2.19,0.94,4.73,1.43,7.73
								c2.54,15.93,1.4,26.44-11.83,36.33c-6.26,4.71-12.25,7.56-17.53,10.08c-11.51,5.48-18.45,8.78-17.36,25.48
								c0.28,4.28,1.27,8.86,2.22,13.29c1.98,9.17,4.02,18.67,0.3,27.04c-4.48,10.27-12.56,13.12-21.12,16.14
								c-4.39,1.55-8.93,3.15-13.18,5.86c-6.54,4.2-8.24,11.18-10.03,18.56c-2.1,8.65-4.27,17.59-14.66,21.66L817.82,1297.9z
								 M819.56,1053.11c-0.98,1.1-2.22,1.97-3.98,2.8c-5.41,2.55-11.01,8.75-15.52,13.73c-0.89,0.99-1.75,1.94-2.56,2.81
								c-9.93,10.67-18.19,22.9-24.55,36.36l0,0c-21.88,46.27-19.13,101.4,7.19,143.88c2.77,4.47,5.82,8.85,9.07,13
								c8.37,10.71,18.16,20.2,29.1,28.21c7.94-3.56,9.74-10.99,11.65-18.84c1.88-7.73,3.82-15.72,11.55-20.69
								c4.6-2.93,9.33-4.6,13.91-6.22c8.15-2.87,15.19-5.36,19.07-14.24c3.26-7.34,1.43-15.86-0.52-24.88
								c-0.98-4.55-2-9.26-2.29-13.81c-1.25-19.07,7.84-23.4,19.35-28.88c5.14-2.44,10.96-5.22,16.93-9.72
								c11.94-8.92,12.89-17.74,10.47-32.96c-0.47-2.95-0.97-5.45-1.4-7.6c-2.37-11.87-2.37-14.65,12.01-22.47
								c3.62-1.98,7.93-3.55,12.1-5.07c7.34-2.67,14.94-5.44,19.07-10.5c9.38-11.63,6.61-29.22-6.6-41.81
								c-2.01-1.92-4.11-3.82-6.19-5.63C903.43,1018.08,856.87,1026.28,819.56,1053.11z"/>
						</g>
						<g>
							
								<rect x="882.57" y="963.13" transform="matrix(0.9885 -0.1515 0.1515 0.9885 -140.5333 145.4547)" width="3.52" height="63.8"/>
						</g>
						<g>
							
								<rect x="964.8" y="1014.35" transform="matrix(0.5134 -0.8581 0.8581 0.5134 -388.205 1347.5811)" width="58.81" height="3.52"/>
						</g>
						<g>
							
								<rect x="1039.75" y="1096.52" transform="matrix(0.8857 -0.4643 0.4643 0.8857 -387.4574 622.9242)" width="63.01" height="3.52"/>
						</g>
					</g>
				</g>
				<g>
					<path style="fill:#FFBC00;" d="M1107.18,1350.24c-2.9,26.37-27.3,44.86-54.5,41.31c-27.21-3.56-46.91-27.81-44.02-54.18
						c2.9-26.37,27.3-44.86,54.5-41.31C1090.36,1299.62,1110.07,1323.87,1107.18,1350.24z"/>
					<path d="M1059.43,1393.74c-2.31,0-4.65-0.15-6.99-0.46c-28.11-3.68-48.53-28.85-45.54-56.12c1.42-12.92,7.87-24.49,18.15-32.56
						c10.78-8.46,24.39-12.1,38.33-10.29c28.11,3.67,48.53,28.85,45.54,56.12c-1.42,12.92-7.86,24.49-18.14,32.56
						C1081.81,1390.03,1070.88,1393.74,1059.43,1393.74z M1056.4,1297.38c-10.67,0-20.84,3.45-29.17,10
						c-9.54,7.48-15.51,18.2-16.83,30.18c-2.79,25.38,16.28,48.82,42.5,52.25c12.99,1.71,25.68-1.7,35.71-9.57
						c9.53-7.49,15.51-18.2,16.82-30.18l0,0c2.79-25.38-16.28-48.82-42.49-52.24C1060.74,1297.52,1058.56,1297.38,1056.4,1297.38z"
						/>
				</g>
				<g>
					<g id="XMLID_19_">
						<path style="fill:#FFFFFF;" d="M1043.4,1423.68c55.52,23.96,105.61,12.52,156.94,33.85c28.82,11.98,54.38,29.28,42.81,61.7
							c-21.19,59.38-81.67,82.06-145.79,85.51c-82.82,4.46-167.71-24.1-222.18-85.05c-65.9-73.72-78.41-149.06-53.72-179.34
							c21.87-26.83,47.24-23.7,75.85-11.26C948.28,1351.24,992.59,1401.75,1043.4,1423.68z"/>
						<path d="M1080.4,1606.96c-81.52,0-157.76-31.53-206.53-86.09c-66.07-73.92-79.23-150.4-53.78-181.63
							c24.2-29.68,52.97-22.6,77.92-11.77c25.64,11.14,49.9,29.63,73.36,47.51c23.34,17.79,47.48,36.18,72.73,47.08l0,0
							c28.41,12.26,55.67,15.2,82.03,18.05c25.62,2.76,49.81,5.37,74.89,15.79c51.98,21.61,49.89,46.83,43.79,63.92
							c-13.07,36.63-49.25,81.39-147.35,86.67C1091.75,1606.81,1086.06,1606.96,1080.4,1606.96z M861.13,1321.55
							c-13.29,0-26.3,5.18-38.31,19.92c-24.52,30.08-11.15,104.54,53.67,177.06c51.45,57.56,133.96,89.1,220.78,84.46
							c96.17-5.17,131.51-48.72,144.23-84.34c11.59-32.49-16.26-48.87-41.83-59.49c-24.6-10.23-48.56-12.82-73.92-15.55
							c-26.62-2.87-54.15-5.84-83.05-18.31l0,0c-25.64-11.07-49.95-29.59-73.46-47.51c-23.29-17.75-47.38-36.11-72.63-47.08
							C884.9,1325.62,872.9,1321.55,861.13,1321.55z"/>
					</g>
					<g>
						<path d="M850.58,1485.88l-3.5-0.36c6.78-64.67,43.22-115.6,72.59-146.93l2.56,2.4
							C893.24,1371.94,857.26,1422.19,850.58,1485.88z"/>
					</g>
					<g>
						<path d="M943.26,1568.77l-3.49-0.47c4.23-31.11,12.9-61.42,25.75-90.09c11.38-25.37,26.02-49.36,43.51-71.32l2.75,2.19
							c-17.31,21.73-31.79,45.47-43.05,70.57C956.01,1508,947.44,1537.99,943.26,1568.77z"/>
					</g>
					<g>
						<path d="M1071.72,1604.46l-3.5-0.28c1.36-16.86,5.49-50.18,17.82-83.91c10.34-28.29,24.81-54.99,43.01-79.35l2.82,2.1
							c-18,24.09-32.31,50.49-42.52,78.46C1077.17,1554.82,1073.08,1587.78,1071.72,1604.46z"/>
					</g>
				</g>
			</g>
		</g>
	</g>
</g>
</svg>
