<?xml version="1.0" encoding="iso-8859-1"?>
<!-- Generator: Adobe Illustrator 30.0.0, SVG Export Plug-In . SVG Version: 9.03 Build 0)  -->
<svg version="1.1" id="Capa_1" xmlns="http://www.w3.org/2000/svg" xmlns:xlink="http://www.w3.org/1999/xlink" x="0px" y="0px"
	 viewBox="0 0 2000 2000" style="enable-background:new 0 0 2000 2000;" xml:space="preserve">
<g>
	<g>
		<g id="XMLID_14_">
			<rect x="100" y="1495.84" style="fill:#00C793;" width="1800" height="404.11"/>
		</g>
		<g style="opacity:0.27;">
			<g style="opacity:0.27;">
				<rect x="100" y="1495.84" style="fill:#FFFFFF;" width="196.2" height="404.11"/>
			</g>
			<g style="opacity:0.27;">
				<rect x="807.03" y="1495.84" style="fill:#FFFFFF;" width="209.29" height="404.11"/>
			</g>
			<g style="opacity:0.27;">
				<rect x="1153.18" y="1495.84" style="fill:#FFFFFF;" width="206.67" height="404.11"/>
			</g>
			<g style="opacity:0.27;">
				<rect x="1496.71" y="1495.84" style="fill:#FFFFFF;" width="169.96" height="404.11"/>
			</g>
			<g style="opacity:0.27;">
				<rect x="1803.52" y="1495.84" style="fill:#FFFFFF;" width="96.48" height="404.11"/>
			</g>
			<g style="opacity:0.27;">
				<rect x="464.37" y="1495.84" style="fill:#FFFFFF;" width="205.81" height="404.11"/>
			</g>
		</g>
		<g>
			<g>
				<rect x="100" y="1536.7" style="fill:#FFFFFF;" width="1800" height="17.59"/>
			</g>
		</g>
	</g>
	<g>
		<g>
			<g>
				
					<rect x="655.36" y="88.63" transform="matrix(0.7407 -0.6718 0.6718 0.7407 55.1671 497.9222)" style="fill:#00BEFB;" width="34.6" height="177.71"/>
			</g>
		</g>
		<g>
			<g>
				
					<rect x="435.52" y="458.09" transform="matrix(0.16 -0.9871 0.9871 0.16 -152.5615 900.4675)" style="fill:#00BEFB;" width="34.58" height="163.57"/>
			</g>
		</g>
		<g>
			<g>
				
					<rect x="516.8" y="244.81" transform="matrix(0.5531 -0.8331 0.8331 0.5531 -44.754 597.0022)" style="fill:#00BEFB;" width="34.59" height="190.81"/>
			</g>
		</g>
	</g>
	<g>
		<g>
			<g>
				<g>
					<g>
						<path d="M1762.8,921.55c-1.45-31.34-1.34-62.75-2.78-94.1c-2.07-45.12-70.35-45.38-68.26,0c2.29,49.9,3.91,99.87,5.95,149.78
							c1.89,46.1,1.13,96.13-8.68,141.32c-2.96,13.65-6.19,36.47-19.51,43.79c-12.37,6.8-30.64,1.36-42.66-3.71
							c-42.86-18.1-79.52-49.93-115.59-79.14c-14.48-11.73-34.14-14.58-48.27,0c-11.83,12.2-14.58,37.98,0,49.79
							c45.09,36.52,89.35,73.74,142.97,96.11c49.62,20.71,110.92,9.42,134.51-44.53c23.34-53.37,25.34-116.24,25.95-173.99
							C1766.73,978.34,1764.12,950,1762.8,921.55z"/>
					</g>
					<g>
						<g>
							<path style="fill:#FFFFFF;" d="M1721.01,696.49c0,0-39.55-131.56-88.54-114.21c-38.55,13.66,26.15,135.48,26.15,135.48
								L1721.01,696.49z"/>
							<path d="M1657.77,719.91l-0.7-1.32c-2.02-3.8-49.31-93.5-36.37-126.75c2.17-5.59,5.94-9.36,11.18-11.22
								c7.81-2.76,15.87-2.11,23.92,1.98c38.26,19.4,65.74,109.55,66.89,113.38l0.49,1.62L1657.77,719.91z M1641.42,582.47
								c-2.82,0-5.61,0.49-8.36,1.46c-4.29,1.52-7.27,4.52-9.08,9.18c-11.54,29.64,29.61,111.08,35.5,122.49l59.33-20.24
								c-3.94-12.43-30.41-92.3-64.61-109.63C1649.92,583.56,1645.64,582.47,1641.42,582.47z"/>
						</g>
						<g>
							<path style="fill:#FFFFFF;" d="M1771.3,689.4c0,0,42.67-130.46-9.24-129.94c-51.91,0.51-46.88,133.42-46.88,133.42
								L1771.3,689.4z"/>
							<path d="M1713.48,694.75l-0.07-1.81c-0.14-3.83-3.21-94.14,26.22-125.02c6.4-6.71,13.93-10.15,22.4-10.23
								c8.28-0.04,14.97,3.06,19.58,9.36c21.56,29.43-7.4,119.09-8.65,122.89l-0.37,1.13L1713.48,694.75z M1762.37,561.22
								c-0.1,0-0.2,0-0.3,0c-7.49,0.07-14.18,3.15-19.89,9.14c-26.2,27.48-25.58,107.59-25.3,120.65l53.1-3.29
								c3.33-10.62,28.04-92.3,8.79-118.58C1774.87,563.81,1769.5,561.22,1762.37,561.22z"/>
						</g>
						<g>
							<path style="fill:#FFFFFF;" d="M1642.96,727.54c0,0-36.49,64.88,25.14,90.96c0,0-25.42,25.54,11.78,35.16
								c37.2,9.62,115.08,1.2,94.31-35.15c0,0,73.19-42.32,27.04-113.38L1642.96,727.54z"/>
							<path d="M1713.36,859.12c-12.46,0-24.51-1.32-33.92-3.76c-12.04-3.11-19.12-8.26-21.05-15.31
								c-2.34-8.55,3.69-17.2,6.78-20.92c-16.27-7.42-26.96-18.32-31.78-32.43c-9.61-28.14,7.31-58.74,8.04-60.03l0.43-0.76
								l0.86-0.12l159.38-22.58l0.61,0.94c13.9,21.4,18.52,42.41,13.72,62.42c-7.24,30.2-33.33,48.39-39.89,52.55
								c5.15,10.11,2.4,17.33-0.92,21.68C1765.82,853.62,1738.75,859.12,1713.36,859.12z M1644.09,729.15
								c-2.51,4.85-15.67,32.14-7.36,56.43c4.7,13.75,15.49,24.28,32.06,31.29l2.39,1.01l-1.83,1.85c-0.1,0.1-10.06,10.28-7.56,19.4
								c1.57,5.73,7.81,10.04,18.53,12.82c27.06,7,78.95,4.44,92.49-13.28c4.13-5.4,4.07-11.89-0.16-19.29l-0.87-1.52l1.51-0.88
								c0.32-0.19,31.94-18.83,39.7-51.25c4.48-18.74,0.23-38.49-12.65-58.71L1644.09,729.15z"/>
						</g>
						<g>
							<path d="M1704.46,827.28c-16.54,0-36.13-6.83-36.95-7.12l1.17-3.32c0.2,0.07,19.85,6.92,35.78,6.92c0.02,0,0.03,0,0.05,0
								v3.52C1704.5,827.28,1704.48,827.28,1704.46,827.28z"/>
						</g>
						<g>
							<path d="M1742.3,824.97c-0.96,0-1.52-0.02-1.63-0.02l0.14-3.52c0.14,0.01,14.59,0.52,32.9-4.62l0.95,3.39
								C1759.19,824.54,1746.66,824.97,1742.3,824.97z"/>
						</g>
						<g>
							<path style="fill:#FFFFFF;" d="M1805.34,670.27c-9.1-2.16-20.41,1.14-27.92,7.06c-11.16,8.8-16.05,23.38-18.19,36.29
								c-1.85,11.21-0.89,24.76,11.26,30.2c17.39,7.79,31.98-5.98,40.18-19.42c7.66-12.56,13.25-29.38,7.59-43.22
								C1815.74,675.02,1810.96,671.61,1805.34,670.27z"/>
							<path d="M1780.62,747.87c-3.42,0-7.04-0.73-10.85-2.43c-10.55-4.73-14.91-16.13-12.28-32.09
								c2.83-17.2,9.17-29.78,18.83-37.39c8.38-6.61,20.22-9.58,29.42-7.39c6.7,1.59,11.59,5.73,14.15,11.96
								c7.11,17.38-3.03,37.12-7.72,44.81C1808.54,731.29,1796.94,747.87,1780.62,747.87z M1799.46,671.38
								c-7.08,0-15.07,2.7-20.95,7.34c-8.94,7.05-14.85,18.89-17.54,35.19c-1.67,10.08-1.24,23.17,10.24,28.31
								c18.82,8.43,32.81-10.29,37.96-18.73c4.41-7.22,13.96-25.75,7.46-41.64c-2.11-5.14-6.15-8.55-11.7-9.87l0,0
								C1803.22,671.58,1801.37,671.38,1799.46,671.38z"/>
						</g>
						<g>
							<path style="fill:#FFFFFF;" d="M1642.38,728.32c22.38-31.26,86.5-39.78,110.21-42.17c13.59-1.37,27.58-0.83,34.12,10.16
								c21.51,36.1-69.87,63.87-69.87,63.87s12.77,26.21-11.89,38.01L1642.38,728.32z"/>
							<path d="M1705.71,799.77l-1.52-3.18c6.56-3.14,10.91-7.63,12.9-13.37c3.72-10.66-1.78-22.16-1.83-22.28l-0.91-1.85l1.97-0.6
								c0.61-0.18,60.69-18.71,70.56-44.21c2.25-5.8,1.69-11.39-1.69-17.07c-6.23-10.45-19.88-10.56-32.43-9.31
								c-31.91,3.21-88.5,12.87-108.95,41.44l-2.86-2.05c21.26-29.7,78.96-39.62,111.47-42.89c12.85-1.3,28.53-1.21,35.81,11.01
								c3.92,6.58,4.58,13.35,1.95,20.14c-9.58,24.76-60.33,42.29-70.95,45.72c1.54,3.98,4.49,13.67,1.2,23.11
								C1718.1,791.03,1713.15,796.21,1705.71,799.77z"/>
						</g>
					</g>
				</g>
				<g>
					<g>
						<g>
							<path d="M866.3,1158.64c-6.16,22.16-22.2,44.84-31.26,66.05c-11.36,26.59-21.85,53.54-31.73,80.75
								c-18.4,50.68-35.17,102.09-49.76,154.08c-29.06,103.56-44.86,207.82-46.38,315.63c-0.77,54.56,81.12,48.02,81.89-6.07
								c1.49-105.49,20.1-207.34,49.28-308.26c14.48-50.07,31.27-99.55,49.9-148.14c17.71-46.18,45.53-90.78,58.7-138.2
								C961.51,1122.01,880.73,1106.65,866.3,1158.64z"/>
						</g>
						<g>
							<g>
								<path style="fill:#FF6DCE;" d="M741.07,1708.85c0,0,10.33-55.3-4.94-78.66c-9.03-13.81-31.07-7.05-32.06,9.41l-3.1,51.64
									c6.78,5.08,15.64,10.7,27.24,14.46C732.78,1707.19,737.1,1708.18,741.07,1708.85z"/>
								<path d="M742.48,1710.86l-1.7-0.28c-4.42-0.74-8.83-1.82-13.11-3.2c-9.74-3.16-18.56-7.84-27.76-14.73l-0.76-0.57l3.16-52.6
									c0.51-8.55,6.36-15.54,14.89-17.81c8.14-2.17,15.95,0.74,20.4,7.54c15.48,23.68,5.62,77.65,5.19,79.94L742.48,1710.86z
									 M702.79,1690.4c5.61,4.14,14.22,9.82,25.98,13.63c3.56,1.16,7.21,2.09,10.87,2.78c1.56-9.46,8.24-55.42-4.98-75.65
									c-4.3-6.57-11.36-7.44-16.54-6.07c-7.04,1.87-11.86,7.61-12.28,14.62L702.79,1690.4z"/>
							</g>
							<g>
								<path style="fill:#712CE5;" d="M780.7,1818.31c-5.43,3.37-11.65,5.75-17.16,7.51c-24.4,7.78-233.42,11.22-242.79-5.72
									c-24.37-44.08,82.22-66.67,92.85-69.45c0,0,57.15-14.91,87.94-61.23c0,0,37.02,38.35,89.91,4.87
									c2.12-1.35,13.39,72.69,2.26,108.81C791.68,1809.69,786.67,1814.6,780.7,1818.31z"/>
								<path d="M644.6,1834.01c-2.7,0-5.4-0.01-8.1-0.02c-41.23-0.21-111.28-2.18-117.29-13.04c-4.46-8.07-5.03-16.01-1.69-23.61
									c8.24-18.75,39.46-34.8,92.77-47.69c1.26-0.31,2.24-0.54,2.87-0.7c0.57-0.15,56.82-15.21,86.92-60.5l1.21-1.82l1.52,1.57
									c0.09,0.09,9.24,9.42,24.57,14.6c20.48,6.92,41.72,3.56,63.14-9.99l1.04-0.65l1.12,0.76c4.35,3.3,13.29,76.42,2.72,110.71
									c-1.93,6.26-6.56,11.71-13.76,16.18l0,0c-4.67,2.9-10.41,5.42-17.56,7.69C752.48,1831.19,699.91,1834.01,644.6,1834.01z
									 M614.03,1752.31l0.01,0.05c-0.64,0.17-1.64,0.41-2.93,0.72c-65.01,15.72-85.03,33.52-90.37,45.69
									c-2.92,6.63-2.41,13.33,1.55,20.48c2.72,4.93,34.28,10.83,114.23,11.23c56.92,0.3,114.83-2.61,126.49-6.33
									c6.86-2.18,12.35-4.58,16.77-7.33l0,0c6.46-4.01,10.58-8.8,12.26-14.23c10.03-32.53,1.69-95.04-1.28-105.78
									c-27.19,16.55-50.12,14.22-64.65,9.28c-12.51-4.26-20.94-10.99-24.26-13.96C672.04,1735.27,619.35,1750.93,614.03,1752.31z
									 M792.4,1695.78c0,0-0.01,0.01-0.01,0.01C792.39,1695.78,792.39,1695.78,792.4,1695.78z"/>
							</g>
							<g>
								<path style="fill:#FF6DCE;" d="M768.44,1756.21c0.45-22.87,12.05-39.42,25.04-55.02c3.84,20.19,9.11,78.67-2.41,106.12
									C790.44,1806.75,767.83,1787.38,768.44,1756.21z"/>
								<path d="M791.75,1810.27l-1.84-1.64c-2.47-2.17-23.83-21.84-23.22-52.45l1.76,0.04l-1.76-0.04
									c0.48-24.14,13.39-41.62,25.44-56.11l2.39-2.87l0.69,3.67c3.53,18.59,9.49,78.51-2.51,107.13L791.75,1810.27z
									 M792.4,1705.27c-11.32,13.91-21.77,29.5-22.2,50.98c-0.5,25.12,14.61,42.48,20.18,48
									C800.17,1777.3,795.78,1726.2,792.4,1705.27z"/>
							</g>
							<g>
								<path style="fill:#FF6DCE;" d="M708.68,1744.89c-11.71,8.31-24.88,13.79-38.05,18.1c-17.34,5.68-35.65,9.18-53.57,10.96
									c-17.77,1.76-36.08,1.49-53.45-3.13c-1.47-0.39-2.92-0.86-4.37-1.3c13.64-6.43,31.33-12.83,54.37-18.87
									c0,0,57.15-14.91,87.94-61.23c0,0,14.03,14.5,37.13,17.87C732.15,1723.07,721.67,1735.67,708.68,1744.89z"/>
								<path d="M597.69,1776.72c-12.6,0-24.01-1.39-34.55-4.2c-1.22-0.32-2.43-0.7-3.64-1.07l-5.15-1.58l4.12-1.94
									c14.75-6.95,33.15-13.34,54.67-18.98c0.57-0.15,56.87-15.3,86.92-60.5l1.21-1.82l1.52,1.57
									c0.13,0.14,13.92,14.11,36.12,17.35l2.24,0.33l-0.86,2.09c-6.46,15.63-16.75,28.54-30.6,38.36l0,0
									c-10.23,7.26-22.48,13.09-38.53,18.34c-16.54,5.41-34.7,9.12-53.94,11.03C610.41,1776.38,603.91,1776.72,597.69,1776.72z
									 M564.24,1769.16c15.28,4.04,32.49,5.03,52.64,3.03c18.99-1.88,36.89-5.54,53.19-10.88c15.7-5.14,27.65-10.82,37.59-17.87
									l0,0c12.69-9,22.27-20.69,28.5-34.78c-18.04-3.25-30.18-12.83-34.33-16.54c-31.07,45.01-87.22,60.08-87.79,60.23
									C594.76,1757.41,578.03,1763.05,564.24,1769.16z"/>
							</g>
							<g>
								<path d="M756.66,1828.23c-0.16,0.8-0.31,1.6-0.52,2.37c-2.42,9.02-8,15.3-12.46,14.01c-3.72-1.08-5.49-7.1-4.53-14.28
									L756.66,1828.23z"/>
								<path d="M744.87,1846.55c-0.57,0-1.13-0.08-1.68-0.24c-4.58-1.33-6.91-7.84-5.78-16.2l0.18-1.35l21.28-2.56l-0.48,2.38
									l-1.73-0.35l1.72,0.37c-0.16,0.82-0.33,1.64-0.54,2.45c-1.8,6.7-5.35,12.23-9.26,14.43
									C747.34,1846.19,746.08,1846.55,744.87,1846.55z M740.74,1831.92c-0.48,5.66,0.91,10.27,3.42,11
									c0.79,0.23,1.69,0.06,2.68-0.5c3.05-1.72,6.01-6.48,7.56-12.15L740.74,1831.92z"/>
							</g>
							<g>
								<path d="M764.48,1827.67c0.21,6.94,2.75,12.27,6.49,12.8c4.6,0.66,9.18-6.34,10.3-15.6c0.23-1.91,0.29-3.73,0.17-5.5
									C781.44,1819.37,776.48,1823.05,764.48,1827.67z"/>
								<path d="M771.57,1842.27c-0.28,0-0.57-0.02-0.85-0.06c-4.61-0.66-7.75-6.35-7.99-14.49l-0.04-1.24l1.17-0.45
									c11.56-4.45,16.5-8.04,16.54-8.07l2.6-1.91l0.21,3.22c0.12,1.92,0.06,3.82-0.18,5.83c-0.83,6.9-3.55,12.87-7.1,15.58
									C774.54,1841.73,773.04,1842.27,771.57,1842.27z M766.31,1828.85c0.41,5.44,2.39,9.52,4.91,9.88
									c0.8,0.13,1.67-0.18,2.56-0.86c2.78-2.13,5.03-7.32,5.75-13.21c0.08-0.72,0.15-1.42,0.18-2.11
									C777.18,1824.02,772.84,1826.27,766.31,1828.85z"/>
							</g>
							<g>
								<path d="M611.23,1833.88c0.01,0.81,0.03,1.62-0.01,2.49c-0.46,9.31-4.59,16.61-9.22,16.27c-4.58-0.33-7.97-8.18-7.51-17.5
									c0.02-0.43,0.04-0.87,0.12-1.24L611.23,1833.88z"/>
								<path d="M602.3,1854.42c-0.14,0-0.29,0-0.43-0.01c-5.64-0.41-9.66-8.91-9.14-19.34c0.03-0.58,0.07-1.07,0.15-1.49l0.28-1.42
									l19.8-0.04l0.04,1.73c0.02,0.85,0.03,1.7-0.01,2.61c-0.34,6.91-2.64,13.04-6,16.02
									C605.53,1853.75,603.93,1854.42,602.3,1854.42z M596.22,1835.67c-0.29,8.5,2.83,14.99,5.9,15.22
									c0.81,0.08,1.67-0.29,2.52-1.05c2.64-2.33,4.53-7.65,4.82-13.55c0.01-0.21,0.02-0.43,0.02-0.64L596.22,1835.67z"/>
							</g>
							<g>
								<path d="M582.46,1833.56c0.04,0.38,0.02,0.81,0,1.18c-0.44,9.31-4.56,16.62-9.19,16.29c-4.63-0.33-7.99-8.17-7.55-17.48
									c0.01-0.19,0.02-0.37,0.03-0.56L582.46,1833.56z"/>
								<path d="M573.56,1852.81c-0.14,0-0.28,0-0.42-0.01c-5.73-0.41-9.68-8.72-9.18-19.32l0.08-1.74l1.76-0.5l18.25,0.62
									l0.15,1.54c0.05,0.45,0.03,0.98,0.01,1.43c-0.33,6.92-2.61,13.06-5.97,16.04C576.81,1852.14,575.19,1852.81,573.56,1852.81z
									 M567.44,1834.82c-0.1,8.33,2.95,14.25,5.95,14.47c0.87,0.06,1.68-0.3,2.53-1.06c2.54-2.26,4.38-7.3,4.75-12.96
									L567.44,1834.82z M565.72,1833.56l-0.01,0L565.72,1833.56z"/>
							</g>
							<g>
								<path d="M553.25,1831.05c0.6,9.3-2.69,17.01-7.34,17.19c-4.65,0.18-8.85-7.25-9.44-16.55c-0.08-1.24-0.1-2.48-0.01-3.67
									L553.25,1831.05z"/>
								<path d="M545.75,1850c-5.64,0-10.37-7.75-11.03-18.2c-0.1-1.49-0.1-2.77-0.01-3.91l0.15-1.95l20.07,3.62l0.09,1.38
									c0.44,6.9-1.15,13.25-4.15,16.57c-1.4,1.56-3.09,2.42-4.87,2.49C545.9,1849.99,545.82,1850,545.75,1850z M538.16,1830.11
									c0.01,0.46,0.03,0.94,0.06,1.46c0.56,8.84,4.4,14.91,7.53,14.91c0.03,0,0.06,0,0.09,0c0.82-0.03,1.63-0.48,2.39-1.32
									c2.17-2.4,3.43-7.26,3.31-12.62L538.16,1830.11z"/>
							</g>
							<g>
								
									<rect x="678.31" y="1719.83" transform="matrix(0.6313 -0.7755 0.7755 0.6313 -1103.9656 1171.4291)" width="3.52" height="53.98"/>
							</g>
							<g>
								
									<rect x="646.42" y="1736.39" transform="matrix(0.6499 -0.76 0.76 0.6499 -1112.4735 1109.5977)" width="3.52" height="51.88"/>
							</g>
							<g>
								
									<rect x="614.98" y="1746.69" transform="matrix(0.6834 -0.73 0.73 0.6834 -1098.8507 1011.4241)" width="3.52" height="51.98"/>
							</g>
						</g>
					</g>
					<g>
						<g>
							<path d="M1253.81,1158.55c6.14,22.17,22.17,44.86,31.21,66.07c11.34,26.6,21.82,53.56,31.68,80.77
								c18.37,50.7,35.1,102.11,49.65,154.12c29,103.58,44.72,207.85,46.17,315.67c0.74,54.56-81.16,47.96-81.88-6.13
								c-1.42-105.49-19.97-207.35-49.08-308.29c-14.45-50.08-31.2-99.57-49.8-148.17c-17.67-46.19-45.47-90.81-58.61-138.24
								C1158.62,1121.84,1239.41,1106.54,1253.81,1158.55z"/>
						</g>
						<g>
							<g>
								<path style="fill:#FF6DCE;" d="M1378.67,1708.84c0,0-10.29-55.31,4.99-78.65c9.04-13.8,31.07-7.03,32.05,9.43l3.07,51.65
									c-6.79,5.07-15.65,10.68-27.25,14.44C1386.96,1707.19,1382.64,1708.18,1378.67,1708.84z"/>
								<path d="M1377.25,1710.86l-0.31-1.69c-0.43-2.29-10.25-56.28,5.25-79.94c4.45-6.81,12.27-9.71,20.4-7.53
									c8.53,2.27,14.36,9.26,14.88,17.82l3.13,52.59l-0.76,0.57c-5.79,4.33-14.97,10.56-27.76,14.71
									c-4.3,1.39-8.71,2.47-13.11,3.19L1377.25,1710.86z M1397.4,1624.53c-4.34,0-9.07,1.73-12.27,6.62
									c-13.23,20.22-6.57,66.19-5.03,75.65c3.66-0.68,7.31-1.61,10.87-2.77c11.75-3.81,20.36-9.47,25.98-13.61l-3.01-50.7
									c-0.42-7.01-5.23-12.75-12.27-14.63C1400.36,1624.74,1398.9,1624.53,1397.4,1624.53z"/>
							</g>
							<g>
								<path style="fill:#712CE5;" d="M1338.97,1818.28c5.43,3.37,11.65,5.76,17.15,7.52c24.39,7.8,233.41,11.39,242.79-5.55
									c24.4-44.06-82.17-66.73-92.8-69.51c0,0-57.14-14.95-87.9-61.29c0,0-37.04,38.33-89.92,4.81
									c-2.11-1.36-13.43,72.68-2.33,108.81C1327.99,1809.65,1333,1814.56,1338.97,1818.28z"/>
								<path d="M1476.21,1834.07c-55.73,0-108.95-2.87-120.62-6.6c-7.15-2.29-12.89-4.81-17.55-7.71
									c-7.2-4.48-11.83-9.93-13.76-16.19c-10.55-34.3-1.55-107.41,2.8-110.71l0.98-0.75l1.19,0.65
									c21.45,13.6,42.74,16.96,63.27,9.98c15.29-5.19,24.34-14.44,24.43-14.53l1.52-1.57l1.21,1.82
									c30.07,45.31,86.31,60.42,86.87,60.56c0.64,0.17,1.61,0.4,2.88,0.71c53.3,12.93,84.49,29,92.72,47.76
									c3.33,7.6,2.76,15.54-1.7,23.6c-6.01,10.86-76.07,12.78-117.3,12.96C1480.84,1834.07,1478.52,1834.07,1476.21,1834.07z
									 M1339.9,1816.78c4.41,2.74,9.89,5.15,16.76,7.34c11.66,3.73,69.58,6.63,126.48,6.42c79.95-0.35,111.51-6.22,114.23-11.15
									c3.96-7.15,4.47-13.85,1.56-20.48c-5.34-12.16-25.34-29.98-90.33-45.75c-1.3-0.31-2.29-0.55-2.94-0.73l0.01-0.05
									c-5.32-1.39-57.99-17.06-87.77-60.25c-3.31,2.97-11.75,9.68-24.26,13.93c-14.55,4.94-37.47,7.25-64.65-9.31
									c-2.99,10.74-11.36,73.24-1.36,105.78C1329.32,1807.97,1333.44,1812.76,1339.9,1816.78L1339.9,1816.78z"/>
							</g>
							<g>
								<path style="fill:#FF6DCE;" d="M1351.27,1756.19c-0.44-22.87-12.03-39.43-25-55.04c-3.85,20.19-9.16,78.66,2.33,106.12
									C1329.23,1806.71,1351.86,1787.36,1351.27,1756.19z"/>
								<path d="M1327.96,1810.17l-0.98-2.22c-11.99-28.64-5.98-88.55-2.44-107.13l0.7-3.66l2.39,2.87
									c12.05,14.49,24.95,31.98,25.4,56.12l0,0c0.59,30.66-20.78,50.27-23.22,52.41L1327.96,1810.17z M1327.34,1705.22
									c-3.99,24.23-7.05,73.86,1.96,98.98c5.63-5.58,20.69-22.88,20.21-47.98l0,0C1349.1,1734.74,1338.65,1719.14,1327.34,1705.22
									z"/>
							</g>
							<g>
								<path style="fill:#FF6DCE;" d="M1411.04,1744.9c11.71,8.32,24.87,13.81,38.04,18.13c17.34,5.69,35.65,9.21,53.57,10.99
									c17.76,1.77,36.08,1.52,53.45-3.09c1.47-0.39,2.92-0.85,4.37-1.3c-13.64-6.44-31.32-12.85-54.36-18.9
									c0,0-57.14-14.95-87.9-61.29c0,0-14.04,14.49-37.14,17.85C1387.58,1723.07,1398.05,1735.67,1411.04,1744.9z"/>
								<path d="M1522.13,1776.81c-6.25,0-12.79-0.35-19.66-1.03c-19.24-1.92-37.39-5.64-53.94-11.08
									c-16.03-5.26-28.27-11.09-38.51-18.37l0,0c-13.84-9.84-24.12-22.75-30.56-38.37l-0.86-2.09l2.24-0.33
									c22.19-3.23,36-17.19,36.14-17.33l1.52-1.56l1.21,1.82c30.04,45.26,86.31,60.42,86.88,60.56
									c21.52,5.65,39.91,12.05,54.66,19.02l4.12,1.95l-5.29,1.62c-1.16,0.36-2.33,0.72-3.5,1.03
									C1546.04,1775.42,1534.67,1776.81,1522.13,1776.81z M1412.05,1743.47c9.94,7.06,21.88,12.74,37.57,17.89
									c16.31,5.35,34.21,9.03,53.19,10.92c20.14,2.01,37.36,1.04,52.64-2.99c-13.79-6.12-30.51-11.78-49.79-16.85
									c-0.57-0.15-56.71-15.26-87.75-60.29c-4.15,3.72-16.3,13.29-34.34,16.52C1389.8,1722.76,1399.37,1734.45,1412.05,1743.47
									L1412.05,1743.47z"/>
							</g>
							<g>
								<path d="M1363,1828.21c0.16,0.8,0.31,1.6,0.52,2.38c2.42,9.02,7.99,15.31,12.45,14.02c3.72-1.08,5.5-7.1,4.54-14.27
									L1363,1828.21z"/>
								<path d="M1374.79,1846.54c-1.21,0-2.47-0.36-3.71-1.05c-3.92-2.21-7.47-7.74-9.25-14.44c-0.2-0.77-0.36-1.55-0.51-2.33
									l-0.48-2.38l2.38,0.13l18.86,2.28l0.18,1.35c1.12,8.36-1.2,14.87-5.79,16.2
									C1375.92,1846.46,1375.36,1846.54,1374.79,1846.54z M1365.25,1830.26c1.54,5.67,4.5,10.43,7.55,12.15
									c0.99,0.56,1.89,0.73,2.68,0.5c2.51-0.73,3.91-5.35,3.43-11L1365.25,1830.26z"/>
							</g>
							<g>
								<path d="M1355.18,1827.65c-0.21,6.94-2.76,12.27-6.49,12.8c-4.6,0.66-9.18-6.35-10.29-15.61c-0.23-1.91-0.28-3.73-0.17-5.5
									C1338.23,1819.33,1343.18,1823.02,1355.18,1827.65z"/>
								<path d="M1348.09,1842.25c-1.48,0-2.97-0.55-4.36-1.61c-3.54-2.72-6.26-8.69-7.09-15.59c-0.24-2.01-0.3-3.92-0.18-5.83
									l0.21-3.22l2.59,1.92c0.05,0.04,4.98,3.63,16.53,8.09l1.17,0.45l-0.04,1.24c-0.25,8.14-3.39,13.83-8.01,14.49
									C1348.65,1842.23,1348.37,1842.25,1348.09,1842.25z M1339.96,1822.51c0.04,0.69,0.09,1.39,0.18,2.11
									c0.71,5.9,2.97,11.09,5.74,13.22c0.89,0.69,1.74,0.97,2.56,0.86c2.52-0.36,4.51-4.43,4.92-9.88
									C1346.83,1826.24,1342.49,1823.98,1339.96,1822.51z"/>
							</g>
							<g>
								<path d="M1508.43,1833.96c-0.01,0.81-0.03,1.62,0.01,2.49c0.45,9.31,4.58,16.61,9.21,16.28c4.58-0.33,7.97-8.18,7.52-17.49
									c-0.02-0.43-0.04-0.87-0.12-1.24L1508.43,1833.96z"/>
								<path d="M1517.35,1854.51c-1.63,0-3.24-0.67-4.68-1.94c-3.36-2.98-5.65-9.12-5.99-16.02c-0.05-0.92-0.03-1.76-0.01-2.62
									l0.04-1.73l19.81,0.05l0.27,1.42c0.09,0.44,0.12,0.97,0.14,1.49c0.51,10.43-3.51,18.92-9.15,19.33
									C1517.64,1854.51,1517.49,1854.51,1517.35,1854.51z M1510.18,1835.73c0,0.21,0.01,0.43,0.02,0.65
									c0.29,5.9,2.17,11.22,4.81,13.55c0.85,0.76,1.71,1.15,2.52,1.05c3.08-0.22,6.21-6.75,5.91-15.21L1510.18,1835.73z"/>
							</g>
							<g>
								<path d="M1537.21,1833.67c-0.04,0.38-0.02,0.81,0,1.18c0.43,9.31,4.55,16.63,9.18,16.3c4.63-0.32,7.99-8.16,7.56-17.47
									c-0.01-0.19-0.02-0.37-0.02-0.56L1537.21,1833.67z"/>
								<path d="M1546.08,1852.92c-1.63,0-3.24-0.67-4.68-1.95c-3.35-2.98-5.63-9.12-5.95-16.03c-0.03-0.44-0.04-0.97,0-1.43
									l0.14-1.55l19.99-0.66l0.12,2.29c0.49,10.61-3.46,18.91-9.19,19.31C1546.36,1852.92,1546.22,1852.92,1546.08,1852.92z
									 M1539,1835.37c0.37,5.67,2.2,10.71,4.74,12.97c0.85,0.76,1.71,1.11,2.52,1.06c2.99-0.21,6.05-6.13,5.96-14.46L1539,1835.37
									z"/>
							</g>
							<g>
								<path d="M1566.41,1831.17c-0.6,9.3,2.68,17.01,7.32,17.19c4.65,0.18,8.85-7.24,9.45-16.54c0.08-1.24,0.11-2.48,0.02-3.67
									L1566.41,1831.17z"/>
								<path d="M1573.9,1850.13c-0.08,0-0.16,0-0.24,0c-1.78-0.07-3.46-0.93-4.87-2.49c-3-3.33-4.59-9.68-4.14-16.58l0.09-1.38
									l20.07-3.61l0.15,1.94c0.08,1.13,0.08,2.41-0.02,3.91C1584.27,1842.38,1579.55,1850.13,1573.9,1850.13z M1568.11,1832.66
									c-0.12,5.36,1.13,10.22,3.3,12.62c0.76,0.85,1.57,1.29,2.39,1.32c0.03,0,0.06,0,0.09,0c3.13,0,6.96-6.05,7.53-14.9
									c0.04-0.51,0.06-1,0.06-1.45L1568.11,1832.66z"/>
							</g>
							<g>
								
									<rect x="1412.58" y="1745.17" transform="matrix(0.7757 -0.6311 0.6311 0.7757 -779.5961 1300.3512)" width="53.98" height="3.52"/>
							</g>
							<g>
								
									<rect x="1445.58" y="1760.57" transform="matrix(0.7601 -0.6498 0.6498 0.7601 -792.1545 1378.9763)" width="51.88" height="3.52"/>
							</g>
							<g>
								
									<rect x="1477.03" y="1771.11" transform="matrix(0.7302 -0.6833 0.6833 0.7302 -805.7811 1505.3512)" width="51.98" height="3.52"/>
							</g>
						</g>
					</g>
				</g>
			</g>
			<g>
				<g>
					<path style="fill:#00C793;" d="M1376.2,294.54c0,0-57.1,18.02-125.45,55.86c58.55-89.43,75.72-164.34,75.72-164.34
						c-90.4,43.14-128.7,92.79-159.92,157.91c26.97-129.21-54.74-238.43-54.74-238.43c-80.01,87.55-75.74,167.04-78.78,227.17
						c-42.08-126.08-129.67-177.52-129.67-177.52c2.38,91.21,30.61,160.83,63.61,211.59c-77.86-45.74-148.03-66.98-148.03-66.98
						c44.5,141.05,153.48,204.71,234.68,233.15c20.26,9.03,46.62,12.61,86.34-1.7C1221.33,502.02,1331.38,437.04,1376.2,294.54z"/>
					<path d="M1091.32,542.64c-13.67,0-26.33-2.69-38.41-8.08c-82.88-29.02-191.17-93.27-235.64-234.23l-1-3.18l3.19,0.96
						c0.68,0.21,67.49,20.67,142.15,63.52c-37.83-60.62-58.01-130.02-60-206.4l-0.08-3.17l2.73,1.61
						c0.86,0.51,84.57,50.78,127.43,169.79c0.09-2.32,0.19-4.67,0.28-7.05c2.27-58.67,5.11-131.69,78.55-212.06l1.43-1.57l1.27,1.7
						c0.8,1.06,76.69,104.3,57.33,227.39c30.49-60.07,69.1-106.33,155.16-147.4l3.29-1.57l-0.81,3.55
						c-0.17,0.74-17.14,72.94-72.19,159.06c65.03-35.23,119.1-52.48,119.66-52.65l3.22-1.02l-1.01,3.23
						c-44.71,142.16-153.74,207.8-237.31,237.83C1122.54,539.4,1106.31,542.64,1091.32,542.64z M821.66,302.51
						c44.66,137.32,150.93,200.19,232.54,228.78c24.58,10.95,51.61,10.39,85.16-1.7c82.19-29.53,189.18-93.78,234.1-232.29
						c-13.05,4.42-63.64,22.41-121.86,54.64l-6.22,3.44l3.89-5.94c50.5-77.13,70.29-144.14,74.56-160.15
						c-88,42.77-124.94,91.3-155.7,155.45l-6.28,13.09l2.97-14.21c24.66-118.14-43.04-220.76-53.18-235.27
						c-71.14,78.78-73.93,150.51-76.17,208.21c-0.21,5.56-0.43,10.98-0.69,16.25l-0.47,9.33l-2.96-8.86
						c-37.19-111.42-110.98-164.8-126.14-174.82c2.55,76.98,23.81,146.73,63.23,207.37l4.07,6.26l-6.43-3.78
						C898.66,328.69,836.31,307.28,821.66,302.51z"/>
				</g>
				<g>
					<g>
						<path style="fill:#FFBC00;" d="M1529.46,1074.67c-0.09,16.23-0.89,32.36-2.31,48.5c-1.78,20.19-4.8,40.29-8.99,60.01
							c-15.84,74.16-48.58,143.71-98.85,198.91c-117.09,128.52-305.45,162.01-464.99,123.89c-29.72-7.08-58.81-16.79-86.93-29.25
							c-109.53-48.88-193.88-145.78-225.64-267.88c-13.97-53.69-18.33-108.7-15.04-163.43c7.21-122.19,52.32-242.97,113.53-344.69
							c58.28-96.72,142.72-209.28,262.3-211.64c85.6-1.7,170.21-14.06,250.55,15.85c56.41,20.95,100.37,65.2,134.89,115.68
							c35.06,51.52,63.71,108.42,85.77,167.48C1507.58,878.5,1530.27,976.82,1529.46,1074.67z"/>
						<path d="M1080.51,1522.63c-42.32,0-84.91-4.98-126.59-14.94c-30.08-7.16-59.43-17.04-87.23-29.35
							c-112.62-50.26-195.22-148.32-226.64-269.05c-13.45-51.69-18.52-106.86-15.09-163.98c8.45-143.33,66.54-266.99,113.78-345.49
							c23.8-39.49,60.94-97.14,108.47-141.58c49.19-45.99,101.44-69.85,155.31-70.91c17.34-0.35,34.9-1.14,51.89-1.91
							c69.39-3.14,134.93-6.1,199.31,17.87c49.96,18.55,95.62,57.69,135.73,116.34c34.22,50.28,63.14,106.76,85.97,167.86
							c37.77,100.97,56.54,197.6,55.81,287.19v0c-0.08,15.81-0.87,32.18-2.32,48.64c-1.77,20.12-4.81,40.38-9.02,60.22
							c-16.55,77.53-50.88,146.6-99.27,199.73c-55.42,60.83-130.62,104.04-217.47,124.96
							C1163.3,1517.83,1122.04,1522.63,1080.51,1522.63z M1123.08,486.85c-22.47,0-45.27,1.03-68.51,2.08
							c-17.01,0.77-34.6,1.56-51.98,1.91c-121.38,2.39-206.99,121.45-260.83,210.79c-47.04,78.16-104.87,201.27-113.29,343.88
							c-3.41,56.75,1.63,111.55,14.98,162.88c31.14,119.69,113.02,216.9,224.66,266.72c27.6,12.23,56.74,22.03,86.62,29.15
							c82.05,19.61,167.67,19.79,247.59,0.54c86.16-20.75,160.74-63.6,215.69-123.91c47.96-52.67,82-121.16,98.43-198.09
							c4.18-19.71,7.2-39.83,8.96-59.8c1.44-16.37,2.22-32.64,2.31-48.35v0c0.73-89.16-17.97-185.37-55.59-285.94
							c-22.73-60.84-51.52-117.06-85.58-167.11c-39.68-58.03-84.78-96.73-134.05-115.03
							C1210.24,490.85,1167.32,486.85,1123.08,486.85z"/>
					</g>
					<g>
						<g>
							<path d="M1523.51,1148.77c-119.3-85.85-237.01-176.5-350.85-264.16c-119.08-91.71-242.22-186.54-367.27-275.93l2.05-2.87
								c125.1,89.43,248.27,184.29,367.37,276.01c113.81,87.65,231.5,178.28,350.76,264.09L1523.51,1148.77z"/>
						</g>
						<g>
							
								<rect x="1229.47" y="355.41" transform="matrix(0.5826 -0.8127 0.8127 0.5826 -46.8674 1288.6349)" width="3.52" height="669.07"/>
						</g>
						<g>
							<path d="M1439,1354.9c-119.27-85.26-238.55-170.5-357.83-255.73c-132.24-94.5-264.48-188.99-396.7-283.51l2.05-2.87
								c132.22,94.52,264.46,189.02,396.69,283.52c119.28,85.24,238.57,170.48,357.84,255.73L1439,1354.9z"/>
						</g>
						<g>
							<path d="M1287.74,1477.43c-109.29-78.11-221.91-146.66-330.83-212.95c-109.01-66.35-221.73-134.96-331.17-213.18l2.05-2.87
								c109.33,78.14,222,146.72,330.95,213.04c108.97,66.32,221.65,134.91,331.05,213.09L1287.74,1477.43z"/>
						</g>
						<g>
							
								<rect x="836.85" y="1162.36" transform="matrix(0.5815 -0.8136 0.8136 0.5815 -776.3891 1262.2223)" width="3.53" height="446.71"/>
						</g>
						<g>
							<path d="M631.89,1001.9l-1.86-2.99c115.5-71.52,233.6-144.17,347.8-214.43c118.46-72.88,240.96-148.24,360.75-222.45
								l1.86,2.99c-119.79,74.22-242.29,149.58-360.76,222.46C865.48,857.73,747.39,930.38,631.89,1001.9z"/>
						</g>
						<g>
							<path d="M714.37,752.93l-1.86-2.99c68.96-42.72,140.1-87.56,208.9-130.92c71.21-44.88,144.84-91.29,216.2-135.44l1.85,2.99
								c-71.35,44.15-144.97,90.55-216.18,135.43C854.49,665.35,783.34,710.2,714.37,752.93z"/>
						</g>
						<g>
							<path d="M652.87,1243.96l-1.86-2.99l245.86-152.23c186.06-115.21,372.12-230.41,558.2-345.59l1.85,2.99
								c-186.07,115.18-372.14,230.38-558.2,345.59L652.87,1243.96z"/>
						</g>
						<g>
							<path d="M784.38,1427.8l-1.85-2.99c125.5-77.68,248.24-160.6,366.94-240.79c118.48-80.04,240.99-162.8,366.26-240.37
								l1.86,2.99c-125.22,77.53-247.7,160.28-366.15,240.3C1032.71,1267.15,909.94,1350.09,784.38,1427.8z"/>
						</g>
						<g>
							<path d="M988.85,1513.06l-1.86-2.99l162.92-100.9c122.46-75.84,244.93-151.69,367.39-227.5l1.85,2.99
								c-122.47,75.82-244.94,151.66-367.39,227.5L988.85,1513.06z"/>
						</g>
					</g>
				</g>
				<g>
					<g>
						<path style="fill:#FF4568;" d="M1529.46,1074.67c-0.09,13.96-0.71,27.93-1.78,41.9c-0.18,2.17-0.36,4.43-0.54,6.6
							c-1.78,20.19-4.8,40.29-8.99,60.01c-15.84,74.16-48.58,143.71-98.85,198.91c-117.09,128.52-305.45,162.01-464.99,123.89
							c-29.72-7.08-58.81-16.79-86.93-29.25c-109.53-48.88-193.88-145.78-225.64-267.88c-10.23-39.54-15.39-79.64-15.93-119.93
							c-0.36-14.53,0-29.06,0.89-43.5l445.32,191.92L1529.46,1074.67z"/>
						<path d="M1080.51,1522.63c-42.32,0-84.91-4.98-126.59-14.94c-30.08-7.16-59.43-17.04-87.23-29.35
							c-112.62-50.26-195.22-148.32-226.64-269.05c-10.06-38.89-15.44-79.38-15.98-120.35c-0.34-13.86-0.04-28.54,0.89-43.64
							l0.15-2.5l2.3,0.99l444.69,191.65l459.14-163.28l-0.02,2.51c-0.08,13.54-0.69,27.67-1.79,42.02l-0.53,6.62
							c-1.77,20.13-4.81,40.39-9.02,60.23c-16.55,77.53-50.88,146.6-99.27,199.73c-55.42,60.83-130.62,104.04-217.47,124.96
							C1163.3,1517.83,1122.04,1522.63,1080.51,1522.63z M628.33,1048.02c-0.81,14.11-1.06,27.85-0.74,40.85
							c0.54,40.71,5.88,80.92,15.87,119.53c31.14,119.68,113.02,216.9,224.66,266.71c27.6,12.23,56.74,22.03,86.62,29.15
							c82.05,19.61,167.67,19.79,247.59,0.54c86.16-20.75,160.74-63.6,215.69-123.91c47.96-52.67,82-121.16,98.43-198.09
							c4.18-19.71,7.2-39.83,8.96-59.8l0.53-6.6c1.02-13.37,1.61-26.56,1.75-39.24l-455.71,162.06l-0.64-0.27L628.33,1048.02z"/>
					</g>
					<g>
						<path style="fill:#FFFFFF;" d="M1529.46,1074.67c-0.09,13.96-0.71,27.93-1.78,41.9l-448.97,155.03l-452.89-182.68
							c-0.36-14.53,0-29.06,0.89-43.5l445.32,191.92L1529.46,1074.67z"/>
						<path d="M1078.67,1273.47l-0.61-0.24l-453.96-183.11l-0.03-1.16c-0.34-13.88-0.04-28.56,0.89-43.65l0.15-2.5l2.3,0.99
							l444.69,191.65l459.14-163.28l-0.02,2.51c-0.08,13.54-0.69,27.67-1.79,42.02l-0.08,1.15l-1.09,0.38L1078.67,1273.47z
							 M627.56,1087.72l451.2,182l447.26-154.44c0.97-12.98,1.53-25.79,1.67-38.1l-455.71,162.06l-0.64-0.27l-443.02-190.93
							C627.54,1061.72,627.28,1075.05,627.56,1087.72z"/>
					</g>
					<g>
						<polygon style="fill:#00C793;" points="1369,1236.09 1308.31,1236.09 1277.97,1291.82 1308.31,1347.56 1369,1347.56 
							1399.34,1291.82 						"/>
						<path d="M1370.04,1349.31h-62.78l-31.3-57.49l31.3-57.49h62.78l31.3,57.49L1370.04,1349.31z M1309.36,1345.8h58.59
							l29.38-53.97l-29.38-53.97h-58.59l-29.38,53.97L1309.36,1345.8z"/>
					</g>
				</g>
			</g>
			<g>
				<g>
					<g>
						<g>
							<g>
								<ellipse style="fill:#FFFFFF;" cx="1271.16" cy="781.98" rx="134.86" ry="139.11"/>
								<path d="M1271.38,922.88c-8.46,0-16.96-0.81-25.43-2.45c-74.03-14.33-122.95-88.09-109.07-164.43
									c6.87-37.74,27.74-70.21,58.78-91.43c29.79-20.38,65.56-27.85,100.7-21.05c74.03,14.33,122.95,88.09,109.07,164.43
									c-6.87,37.74-27.74,70.21-58.78,91.43C1324.04,914.85,1297.99,922.88,1271.38,922.88z M1270.94,644.6
									c-25.91,0-51.27,7.82-73.29,22.88c-30.26,20.69-50.61,52.35-57.3,89.16c-13.54,74.44,34.13,146.37,106.27,160.33
									c34.22,6.62,69.04-0.66,98.05-20.49c30.25-20.69,50.61-52.36,57.3-89.16c13.54-74.44-34.13-146.37-106.27-160.33
									C1287.45,645.39,1279.17,644.6,1270.94,644.6z"/>
							</g>
							<g>
								<path d="M1251.49,890.08c55.67,10.78,109.28-27.04,119.72-84.47c0.26-1.41,0.35-2.8,0.55-4.2l-93.84-10.52l91.71-31.19
									c-9.65-38.49-39.92-69.78-80.31-77.59c-55.67-10.78-109.28,27.04-119.72,84.47
									C1159.16,824.01,1195.82,879.31,1251.49,890.08z"/>
								<path d="M1270.59,893.68c-6.46,0-12.96-0.62-19.43-1.87l0,0c-56.53-10.94-93.89-67.26-83.29-125.54
									c5.24-28.81,21.18-53.61,44.89-69.81c22.76-15.56,50.07-21.27,76.91-16.07c39.53,7.65,71.59,38.62,81.69,78.9l0.39,1.57
									l-85.78,29.17l87.81,9.84l-0.25,1.8c-0.07,0.53-0.14,1.06-0.2,1.6c-0.1,0.89-0.21,1.78-0.37,2.67
									c-5.24,28.82-21.18,53.61-44.88,69.82C1310.8,887.55,1290.9,893.68,1270.59,893.68z M1270.24,682.03
									c-19.62,0-38.83,5.92-55.5,17.33c-22.92,15.67-38.34,39.66-43.41,67.54c-10.26,56.39,25.85,110.88,80.49,121.45l0,0
									c25.92,5.03,52.29-0.49,74.26-15.52c22.92-15.67,38.33-39.66,43.4-67.54c0.14-0.78,0.23-1.55,0.32-2.33l-99.9-11.2
									l97.62-33.2c-10.19-38.18-40.85-67.43-78.53-74.72C1282.75,682.63,1276.47,682.03,1270.24,682.03z"/>
							</g>
						</g>
						<g>
							<g>
								
									<rect x="1380.71" y="876.4" transform="matrix(0.7425 -0.6698 0.6698 0.7425 -250.4218 1159.095)" width="3.52" height="57.76"/>
							</g>
							<g>
								
									<rect x="1407.16" y="848.09" transform="matrix(0.5303 -0.8478 0.8478 0.5303 -80.5525 1605.7489)" width="3.52" height="54.97"/>
							</g>
							<g>
								
									<rect x="1419.17" y="809.6" transform="matrix(0.3854 -0.9227 0.9227 0.3854 102.3294 1824.6394)" width="3.52" height="51.79"/>
							</g>
						</g>
						<g>
							<path style="fill:#FFFFFF;" d="M1356.55,722.02c-0.37,15.96-13.21,28.59-28.68,28.21c-15.47-0.38-27.72-13.63-27.35-29.59
								c0.37-15.96,13.21-28.59,28.68-28.21C1344.67,692.81,1356.92,706.06,1356.55,722.02z"/>
						</g>
					</g>
					<g>
						<g>
							<g>
								<path style="fill:#FFFFFF;" d="M1040.99,760.57c-6.15-76.57-71.31-133.49-145.54-127.14s-129.4,73.56-123.25,150.13
									c6.15,76.57,71.31,133.49,145.53,127.14C991.96,904.36,1047.14,837.14,1040.99,760.57z"/>
								<path d="M906.42,912.95c-31.54,0-61.9-11.16-86.52-32.01c-28.81-24.4-46.37-58.93-49.45-97.24
									c-6.22-77.41,49.79-145.6,124.85-152.02c35.64-3.03,70.39,8.15,97.99,31.51c28.81,24.4,46.37,58.93,49.45,97.24l0,0
									c6.22,77.4-49.79,145.6-124.85,152.02C914.05,912.78,910.23,912.95,906.42,912.95z M906.77,634.71
									c-3.71,0-7.43,0.16-11.16,0.48c-73.14,6.25-127.71,72.75-121.65,148.23c3,37.36,20.13,71.04,48.22,94.83
									c26.87,22.75,60.77,33.65,95.41,30.69c73.14-6.25,127.71-72.75,121.65-148.23l0,0c-3-37.36-20.13-71.05-48.22-94.84
									C967.04,645.58,937.48,634.71,906.77,634.71z"/>
							</g>
							<g>
								<path d="M915.4,881.68c-56.45,4.83-106.01-38.47-110.69-96.7c-0.12-1.43-0.07-2.82-0.13-4.24l101.36-1.76l-95.09-39.5
									c13.43-37.27,46.65-65.18,87.61-68.69c56.45-4.83,106.01,38.47,110.69,96.7C1013.83,825.73,971.86,876.85,915.4,881.68z"/>
								<path d="M906.79,883.81c-24.08,0-47.27-8.52-66.07-24.44c-22-18.63-35.41-45-37.76-74.24c-0.07-0.91-0.08-1.8-0.1-2.7
									c-0.01-0.53-0.01-1.07-0.04-1.61l-0.07-1.8l94.71-1.65l-88.84-36.9l0.57-1.58c14.05-38.99,49.03-66.41,89.11-69.84
									c27.19-2.33,53.76,6.22,74.83,24.07c22,18.63,35.41,45,37.76,74.24c4.75,59.1-38.02,111.17-95.34,116.08
									C912.63,883.69,909.7,883.81,906.79,883.81z M806.38,782.48c0.01,0.79,0.02,1.57,0.08,2.37
									c2.27,28.31,15.25,53.82,36.53,71.84c20.35,17.23,46,25.48,72.26,23.25c55.4-4.74,96.73-55.11,92.14-112.29
									c-2.27-28.31-15.25-53.82-36.53-71.84c-20.35-17.23-46.01-25.48-72.26-23.25c-38.17,3.27-71.57,29.08-85.52,65.95
									l101.32,42.09L806.38,782.48z"/>
							</g>
						</g>
						<g>
							
								<rect x="766.4" y="895.81" transform="matrix(0.6822 -0.7312 0.7312 0.6822 -403.5375 866.7473)" width="57.74" height="3.52"/>
						</g>
						<g>
							
								<rect x="741.84" y="865.73" transform="matrix(0.857 -0.5154 0.5154 0.857 -337.0464 520.5696)" width="54.95" height="3.52"/>
						</g>
						<g>
							
								<rect x="731.98" y="825.33" transform="matrix(0.9294 -0.369 0.369 0.9294 -251.7198 338.033)" width="51.78" height="3.52"/>
						</g>
						<g>
							<path style="fill:#FFFFFF;" d="M877.73,707.48c-0.37,15.96-13.21,28.59-28.68,28.21c-15.47-0.38-27.72-13.63-27.35-29.59
								c0.37-15.96,13.21-28.59,28.68-28.21C865.86,678.27,878.1,691.52,877.73,707.48z"/>
						</g>
					</g>
				</g>
				<g>
					<g id="XMLID_51_">
						<path style="fill:#FFFFFF;" d="M1082.44,954.48c-62.49-1.85-103.68-34.54-161.08-37.01c-32.22-1.39-63.87,3.64-68.02,39.14
							c-7.6,65.01,38.07,112.8,95.95,144.14c74.76,40.48,164.61,45.49,245.08,17.57c67.78-23.52,139.93-66.99,132.14-144.76
							c-3.56-35.58-32.93-42.94-65.17-43.81C1203.9,928.18,1139.62,956.17,1082.44,954.48z"/>
						<path d="M1090.51,1137.7c-49.77,0-98.68-11.91-142.06-35.4c-88.55-47.95-101.55-105.8-96.86-145.89
							c4.56-38.98,42.06-41.88,69.85-40.7c28.03,1.21,51.67,9.36,76.69,18c25.75,8.88,52.38,18.07,84.36,19.02
							c28.46,0.84,59.25-5.85,89.06-12.31c29.96-6.49,60.88-13.22,89.83-12.43c29.1,0.79,62.99,6.66,66.88,45.4
							c8.03,80.14-68.06,123.95-133.31,146.6C1160.79,1131.82,1125.43,1137.7,1090.51,1137.7z M912.14,919.01
							c-26.18,0-53.31,5.88-57.05,37.8c-4.56,39.01,8.22,95.37,95.04,142.39c72.96,39.5,161.77,45.86,243.66,17.45
							c64.05-22.22,138.76-65.07,130.96-142.92c-3.59-35.79-34.1-41.43-63.47-42.23c-28.44-0.8-59.23,5.9-88.99,12.35
							c-30.02,6.51-61.05,13.21-89.91,12.39l0,0c-32.52-0.96-59.41-10.24-85.41-19.21c-24.77-8.55-48.17-16.62-75.69-17.81
							C918.27,919.1,915.21,919.01,912.14,919.01z"/>
					</g>
					<g>
						<g>
							<path d="M1196.06,1118.8l-3.38-0.98c8.99-31.04,13.17-63.09,12.39-95.27c-0.68-28.54-5.26-56.94-13.62-84.41l3.37-1.02
								c8.45,27.77,13.08,56.48,13.77,85.35C1209.37,1055,1205.15,1087.42,1196.06,1118.8z"/>
						</g>
						<g>
							<path d="M1074.31,1135.89l-3.34-1.11c10.25-30.72,16.07-62.62,17.28-94.82c1.08-28.49-1.45-57.13-7.53-85.11l3.44-0.75
								c6.15,28.27,8.71,57.2,7.62,85.99C1090.54,1072.63,1084.66,1104.86,1074.31,1135.89z"/>
						</g>
						<g>
							<path d="M950.93,1101.39l-3.28-1.29c10.42-26.45,17.26-54.12,20.33-82.24c3.36-30.74,2.21-61.78-3.43-92.28l3.46-0.64
								c5.7,30.83,6.86,62.22,3.47,93.3C968.38,1046.67,961.47,1074.65,950.93,1101.39z"/>
						</g>
					</g>
				</g>
				<g>
					<g>
						<path style="fill:#FFE08A;" d="M1078.33,838.96l1.78,37.49l45.41,1.12c0,0,10.81,41.93-39.77,45.9L1078.33,838.96z"/>
						<path d="M1085.9,925.21l-0.27-3.51c15.75-1.24,26.93-6.33,33.24-15.15c7.45-10.4,5.94-23.21,5.22-27.26l-45.65-1.12
							l-1.85-39.12l3.51-0.17l1.7,35.85l45.1,1.11l0.33,1.29c0.18,0.71,4.39,17.63-5.48,31.45
							C1114.81,918.29,1102.75,923.89,1085.9,925.21z"/>
					</g>
				</g>
			</g>
		</g>
		<g>
			<g>
				<g>
					<path style="fill:#FFFFFF;" d="M711.16,1105.11c-0.04,29.08-5.37,56.94-15.25,82.45c-23.56,61.78-72.93,110.16-134.39,131.17
						c-21.72,7.53-44.95,11.49-69.1,11.46c-24.15-0.03-47.38-4.05-69.08-11.64c-67.72-23.27-120.58-79.85-140.44-150.89
						c-5.7-19.97-8.7-41.25-8.67-63.12c0.04-34.55,7.57-67.27,21.16-96.51c25.14-54.66,71.06-97.14,127.22-116.68
						c22.06-7.79,45.71-11.92,70.37-11.89c24.66,0.03,48.3,4.23,70.34,12.07c60.99,21.44,109.74,69.85,132.98,131.52
						C705.93,1048.51,711.2,1076.2,711.16,1105.11z"/>
					<path d="M492.7,1331.95c-0.1,0-0.19,0-0.29,0c-24.02-0.03-47.45-3.98-69.65-11.73c-68.61-23.57-121.53-80.42-141.55-152.08
						c-5.83-20.43-8.77-41.83-8.74-63.6c0.04-34.17,7.21-66.88,21.32-97.25c25.4-55.21,72.14-98.08,128.24-117.6
						c22.63-7.98,46.5-12.08,70.95-11.98c24.45,0.03,48.31,4.13,70.93,12.17c61.59,21.65,110.45,69.96,134.03,132.55
						c9.98,26.33,15.03,54.15,14.99,82.68l0,0c-0.04,28.88-5.21,56.84-15.37,83.08c-23.93,62.76-73.31,110.95-135.46,132.2
						C539.97,1328.07,516.62,1331.95,492.7,1331.95z M492.66,881.23c-23.94,0-47.32,3.97-69.48,11.79
						c-55.2,19.21-101.2,61.41-126.21,115.76c-13.89,29.9-20.95,62.12-21,95.78c-0.03,21.45,2.87,42.52,8.61,62.64
						c19.72,70.54,71.8,126.51,139.32,149.71c21.84,7.63,44.89,11.51,68.51,11.54c0.09,0,0.19,0,0.28,0
						c23.53,0,46.49-3.82,68.24-11.36c61.17-20.91,109.76-68.34,133.33-130.13c10-25.85,15.09-53.38,15.13-81.83
						c0.04-28.1-4.93-55.5-14.77-81.43c-23.21-61.62-71.29-109.18-131.91-130.48c-22.24-7.92-45.71-11.94-69.76-11.97
						C492.87,881.23,492.76,881.23,492.66,881.23z"/>
				</g>
				<g>
					<g>
						<polygon points="539.01,1186.87 446.96,1187.23 400.63,1105.18 446.35,1022.76 538.4,1022.39 584.73,1104.45 						"/>
						<path d="M445.93,1188.99l-47.33-83.81l46.7-84.18l94.11-0.37l47.33,83.81l-46.7,84.18L445.93,1188.99z M402.65,1105.17
							l45.34,80.3l89.99-0.36l44.74-80.66l-45.34-80.29l-89.99,0.36L402.65,1105.17z"/>
					</g>
					<g>
						<path d="M711.16,1105.11c-0.04,29.08-5.37,56.94-15.25,82.45l-7.24-0.01l-46.35-82.1l45.71-82.41l8.25,0.01
							C705.93,1048.51,711.2,1076.2,711.16,1105.11z"/>
						<path d="M697.12,1189.33l-9.47-0.01l-47.35-83.85l46.7-84.18l10.5,0.01l0.43,1.13c9.98,26.33,15.03,54.16,14.99,82.69l0,0
							c-0.04,28.88-5.21,56.84-15.37,83.08L697.12,1189.33z M689.71,1185.8l5,0.01c9.72-25.51,14.66-52.65,14.7-80.69
							c0.04-27.69-4.79-54.7-14.34-80.29l-5.99-0.01l-44.73,80.64L689.71,1185.8z"/>
					</g>
					<g>
						<path d="M563.31,891.54l-23.95,43.2l-92.07,0.4l-24.69-43.78c22.06-7.79,45.71-11.92,70.37-11.89
							C517.63,879.5,541.27,883.7,563.31,891.54z"/>
						<path d="M446.26,936.9l-26.23-46.51l1.98-0.7c22.54-7.95,46.31-11.99,70.65-11.99c0.1,0,0.21,0,0.31,0
							c24.45,0.03,48.31,4.13,70.93,12.17l1.96,0.69l-25.46,45.92L446.26,936.9z M425.17,892.33l23.14,41.05l90-0.39l22.44-40.47
							c-21.65-7.46-44.45-11.26-67.79-11.28c-0.1,0-0.2,0-0.3,0C469.44,881.23,446.74,884.96,425.17,892.33z"/>
					</g>
					<g>
						<path d="M561.52,1318.74c-21.72,7.53-44.95,11.49-69.1,11.46c-24.15-0.03-47.38-4.05-69.08-11.64l22.69-40.95l92.07-0.4
							L561.52,1318.74z"/>
						<path d="M492.7,1331.95c-0.1,0-0.19,0-0.29,0c-24.02-0.03-47.45-3.98-69.65-11.73l-1.97-0.69l24.2-43.67l94.13-0.41
							l24.97,44.26l-1.99,0.69C539.97,1328.07,516.62,1331.95,492.7,1331.95z M425.9,1317.57c21.24,7.18,43.61,10.83,66.52,10.86
							c0.09,0,0.19,0,0.28,0c22.81,0,45.09-3.59,66.25-10.68l-21.88-38.78l-90.01,0.39L425.9,1317.57z"/>
					</g>
					<g>
						<path d="M338.88,1085.18l-45.71,82.41l-10.27,0.07c-5.7-19.97-8.7-41.25-8.67-63.12c0.04-34.55,7.57-67.27,21.16-96.51
							L338.88,1085.18z"/>
						<path d="M281.57,1169.44l-0.36-1.29c-5.83-20.43-8.77-41.83-8.74-63.61c0.04-34.17,7.21-66.88,21.32-97.25l1.44-3.11
							l45.67,80.99l-46.69,84.17L281.57,1169.44z M295.55,1011.92c-12.95,29.01-19.53,60.15-19.57,92.63
							c-0.03,20.99,2.75,41.62,8.24,61.35l7.9-0.06l44.74-80.65L295.55,1011.92z"/>
					</g>
				</g>
			</g>
			<g>
				<g>
					<path style="fill:#FFFFFF;" d="M275.16,1063.24c-0.1-0.96-30.89,10.69-32.64,11.56c-21.58,10.68-40.88,27.06-52.07,49.21
						c-7.08,14.02-10.53,29.64-10.98,45.39c-1.56,54.67,35.42,102.54,89,108.9c39.22,4.66,75.92-15.33,105.01-40.75
						c2.46-2.15,5.2-4.26,7.38-6.71c0.02-0.02,28.09-33.92-15.67-41.91c0,0,43.11-41.22-9.98-53.67c0,0,36.78-63.99-75.94-33.43
						C279.28,1101.84,275.16,1063.28,275.16,1063.24z"/>
					<path d="M279.84,1280.74c-3.82,0-7.68-0.22-11.57-0.68c-53.24-6.32-92.17-53.91-90.56-110.7c0.49-16.89,4.24-32.41,11.17-46.13
						c10.5-20.79,28.77-38.08,52.86-50c0.29-0.14,31.92-12.85,34.25-11.56l0.81,0.44l0.12,0.95c0.02,0.19,3.05,28.6,3.91,36.55
						c41.85-11.11,68.01-10.32,77.78,2.34c8.35,10.82,1.96,26.56-0.77,32.16c14.19,3.72,22.59,10.03,24.96,18.75
						c3.76,13.78-8.73,29.2-14.08,35c11.85,2.72,19.16,7.81,21.77,15.16c4.72,13.3-8.13,28.82-8.26,28.97
						c-1.73,1.94-3.72,3.62-5.64,5.24c-0.65,0.55-1.3,1.1-1.92,1.64C352.15,1258.54,318.24,1280.74,279.84,1280.74z M273.6,1065.3
						c-6.21,1.84-28.31,10.08-30.31,11.08c-16.31,8.07-38.45,23.03-51.27,48.43c-6.69,13.26-10.32,28.28-10.79,44.65
						c-1.57,54.95,36.03,101,87.45,107.11c41.85,4.95,79.46-19.19,103.65-40.33c0.64-0.56,1.3-1.12,1.97-1.68
						c1.83-1.55,3.72-3.14,5.26-4.87c0.07-0.09,11.67-14.3,7.55-25.59c-2.42-6.65-9.9-11.16-22.22-13.41l-3.39-0.62l2.49-2.39
						c0.2-0.19,19.5-18.89,15.4-33.89c-2.14-7.82-10.41-13.47-24.57-16.79l-2.3-0.54l1.18-2.05c0.11-0.19,10.77-19.09,2.11-30.31
						c-6.17-7.99-24.37-14.56-76.06-0.55l-1.99,0.54l-0.22-2.05C277.53,1102.02,274.44,1073.05,273.6,1065.3z"/>
				</g>
				<g>
					
						<rect x="285.96" y="1143.21" transform="matrix(0.9651 -0.2618 0.2618 0.9651 -288.5553 124.0301)" width="70.49" height="3.52"/>
				</g>
				<g>
					
						<rect x="296.23" y="1197.92" transform="matrix(0.9518 -0.3068 0.3068 0.9518 -352.0076 159.937)" width="73.04" height="3.52"/>
				</g>
				<g>
					
						<rect x="236.36" y="1105.33" transform="matrix(0.9672 -0.2541 0.2541 0.9672 -272.7814 102.3326)" width="46.75" height="3.52"/>
				</g>
			</g>
		</g>
	</g>
</g>
</svg>
