<?xml version="1.0" encoding="iso-8859-1"?>
<!-- Generator: Adobe Illustrator 30.0.0, SVG Export Plug-In . SVG Version: 9.03 Build 0)  -->
<svg version="1.1" id="Capa_1" xmlns="http://www.w3.org/2000/svg" xmlns:xlink="http://www.w3.org/1999/xlink" x="0px" y="0px"
	 viewBox="0 0 2000 2000" style="enable-background:new 0 0 2000 2000;" xml:space="preserve">
<g>
	<g>
		<g id="XMLID_32_">
			<rect x="102.9" y="1497.2" style="fill:#00C793;" width="1794.2" height="402.8"/>
		</g>
		<g style="opacity:0.27;">
			<g style="opacity:0.27;">
				<rect x="102.9" y="1497.2" style="fill:#FFFFFF;" width="195.57" height="402.8"/>
			</g>
			<g style="opacity:0.27;">
				<rect x="807.66" y="1497.2" style="fill:#FFFFFF;" width="208.62" height="402.8"/>
			</g>
			<g style="opacity:0.27;">
				<rect x="1152.69" y="1497.2" style="fill:#FFFFFF;" width="206.01" height="402.8"/>
			</g>
			<g style="opacity:0.27;">
				<rect x="1495.11" y="1497.2" style="fill:#FFFFFF;" width="169.41" height="402.8"/>
			</g>
			<g style="opacity:0.27;">
				<rect x="1800.93" y="1497.2" style="fill:#FFFFFF;" width="96.17" height="402.8"/>
			</g>
			<g style="opacity:0.27;">
				<rect x="466.1" y="1497.2" style="fill:#FFFFFF;" width="205.14" height="402.8"/>
			</g>
		</g>
		<g>
			<g>
				<rect x="102.9" y="1537.92" style="fill:#FFFFFF;" width="1794.2" height="17.54"/>
			</g>
		</g>
	</g>
	<g>
		<g>
			<path style="fill:#00BEFB;" d="M363.01,185.94c-60.25,20.3-66.04,29.38-63.17,99.08c-20.48-66.68-28.96-73.32-92.53-72.43
				c60.25-20.3,66.04-29.38,63.17-99.08C290.96,180.19,299.44,186.83,363.01,185.94z"/>
			<path d="M302.15,298.52l-3.99-12.99c-20.3-66.09-27.95-72.11-90.83-71.19l-11.2,0.16l10.61-3.58
				c59.61-20.08,64.82-28.27,61.98-97.35L268.17,100l3.99,12.99c20.3,66.09,27.93,72.09,90.83,71.19l11.2-0.16l-10.61,3.58
				c-59.61,20.08-64.82,28.27-61.98,97.35L302.15,298.52z M217.97,210.77c51.27,0.15,62.53,8.67,79.68,61.46
				c-1.38-55.48,6.4-67.27,54.7-84.46c-51.28-0.15-62.53-8.67-79.68-61.46C274.05,181.79,266.27,193.57,217.97,210.77z"/>
		</g>
		<g>
			<path style="fill:#00BEFB;" d="M1708.58,221.01c-52.5,0.57-59.37,6.23-74.91,61.71c0.93-57.61-4.04-64.99-54.2-80.51
				c52.5-0.57,59.37-6.23,74.91-61.71C1653.45,198.11,1658.42,205.49,1708.58,221.01z"/>
			<path d="M1631.7,296.28l0.22-13.59c0.92-56.88-3.54-63.51-52.96-78.8l-10.7-3.31l11.2-0.12c51.74-0.56,57.9-5.64,73.24-60.43
				l3.66-13.08l-0.22,13.58c-0.92,56.88,3.54,63.51,52.96,78.8l10.7,3.31l-11.2,0.12c-51.74,0.56-57.9,5.64-73.24,60.43
				L1631.7,296.28z M1589.99,203.75c37.99,12.74,45.24,23.12,45.51,66.37c12.59-41.38,22.51-49.26,62.55-50.64
				c-37.99-12.74-45.24-23.12-45.51-66.37C1639.95,194.49,1630.04,202.37,1589.99,203.75z"/>
		</g>
		<g>
			<path style="fill:#00BEFB;" d="M370.83,1129.34c-43.65,13.95-47.93,20.43-46.65,70.7c-14.01-48.29-20.05-53.18-65.87-53.25
				c43.65-13.95,47.93-20.43,46.65-70.7C318.97,1124.38,325.01,1129.27,370.83,1129.34z"/>
			<path d="M326.28,1213.58l-3.78-13.05c-13.79-47.54-19.19-51.91-64.19-51.98l-11.2-0.02l10.66-3.41
				c42.87-13.7,46.69-19.5,45.43-68.98l-0.34-13.58l3.78,13.05c13.79,47.54,19.19,51.91,64.19,51.98l11.2,0.02l-10.66,3.41
				c-42.87,13.7-46.69,19.5-45.43,68.98L326.28,1213.58z M268.71,1145.17c33.64,1,42.52,7.9,53.55,42.43
				c0.05-36.24,6.42-45.51,38.18-56.65c-33.64-1-42.52-7.9-53.55-42.43C306.84,1124.76,300.46,1134.04,268.71,1145.17z"/>
		</g>
		<g>
			<path style="fill:#00BEFB;" d="M500.46,444.42c-29.17,10.71-31.88,15.23-29.56,49.26c-10.89-32.32-15.12-35.45-46.17-34.18
				c29.17-10.71,31.88-15.23,29.56-49.26C465.17,442.56,469.41,445.7,500.46,444.42z"/>
			<path d="M473.57,507.12l-4.34-12.88c-10.6-31.45-14.34-34.23-44.44-32.98l-11.19,0.46l10.51-3.86
				c28.28-10.39,30.68-14.38,28.42-47.49l-0.92-13.55l4.34,12.87c10.59,31.45,14.34,34.22,44.44,32.98l11.19-0.46l-10.51,3.86
				c-28.28,10.39-30.68,14.38-28.42,47.49L473.57,507.12z M434.62,457.53c19.78,0.12,26.28,4.69,33.93,24.38
				c-0.48-21.12,3.78-27.83,22-35.52c-19.79-0.12-26.28-4.69-33.93-24.38C457.1,443.14,452.85,449.85,434.62,457.53z"/>
		</g>
		<g>
			<path style="fill:#00BEFB;" d="M1792.11,1136.58c-31.04,1.66-34.95,5.18-42.74,38.39c-0.9-34.09-4.03-38.33-34.08-46.24
				c31.04-1.66,34.95-5.18,42.74-38.39C1758.93,1124.43,1762.05,1128.67,1792.11,1136.58z"/>
			<path d="M1747.97,1188.6l-0.36-13.59c-0.88-33.17-3.63-36.92-32.77-44.6l-10.83-2.85l11.18-0.6
				c30.09-1.61,33.55-4.73,41.13-37.03l3.1-13.23l0.36,13.58c0.88,33.17,3.64,36.92,32.77,44.6l10.83,2.85l-11.18,0.6
				c-30.09,1.61-33.55,4.73-41.13,37.03L1747.97,1188.6z M1725.32,1129.75c18.88,5.93,23.74,12.21,25.26,33.28
				c5.76-20.32,11.8-25.49,31.48-27.47c-18.87-5.93-23.74-12.21-25.26-33.28C1751.05,1122.6,1745.01,1127.77,1725.32,1129.75z"/>
		</g>
	</g>
	<g>
		<g>
			<g>
				<path style="fill:#FFFFFF;" d="M445.6,1708.68c0,19.64-3.7,38.47-10.56,55.71c-16.36,41.75-50.73,74.48-93.54,88.73
					c-15.13,5.1-31.32,7.8-48.15,7.8s-33.02-2.7-48.15-7.8c-47.21-15.66-84.1-53.84-98-101.81c-3.99-13.49-6.1-27.86-6.1-42.64
					c0-23.34,5.22-45.45,14.66-65.21c17.48-36.95,49.44-65.68,88.56-78.94c15.37-5.28,31.85-8.09,49.03-8.09
					c17.18,0,33.66,2.82,49.03,8.09c42.52,14.43,76.53,47.09,92.78,88.73C441.9,1670.45,445.6,1689.16,445.6,1708.68z"/>
				<path d="M293.35,1862.69c-16.79,0-33.18-2.65-48.71-7.89c-47.99-15.92-85.05-54.42-99.12-102.99
					c-4.09-13.84-6.17-28.35-6.17-43.12c0-23.18,4.99-45.37,14.83-65.97c17.71-37.45,50.37-66.56,89.57-79.85
					c15.81-5.43,32.5-8.19,49.59-8.19s33.78,2.75,49.6,8.19c43.09,14.62,77.29,47.33,93.84,89.75
					c7.01,17.85,10.56,36.71,10.56,56.06c0,19.59-3.59,38.55-10.68,56.36c-16.68,42.57-51.17,75.29-94.62,89.75
					C326.54,1860.03,310.14,1862.69,293.35,1862.69z M293.35,1558.19c-16.71,0-33.01,2.69-48.46,8
					c-38.32,12.99-70.23,41.43-87.54,78.03c-9.62,20.13-14.49,41.82-14.49,64.47c0,14.43,2.03,28.61,6.03,42.14
					c13.75,47.46,49.97,85.08,96.87,100.64c15.18,5.12,31.19,7.71,47.6,7.71c16.41,0,32.42-2.59,47.59-7.71
					c42.46-14.14,76.16-46.1,92.47-87.71c6.92-17.4,10.44-35.93,10.44-55.07c0-18.91-3.47-37.34-10.32-54.78
					c-16.17-41.46-49.6-73.42-91.71-87.71C326.36,1560.88,310.06,1558.19,293.35,1558.19z"/>
			</g>
			<g>
				<g>
					<polygon points="325.7,1764.06 261.55,1764.39 229.19,1709 260.98,1653.28 325.13,1652.96 357.49,1708.35 					"/>
					<path d="M260.55,1766.15l-33.38-57.14l32.8-57.48l66.17-0.34l33.38,57.14l-32.8,57.48L260.55,1766.15z M231.22,1708.99
						l31.34,53.64l62.12-0.32l30.78-53.96l-31.34-53.64l-62.12,0.32L231.22,1708.99z"/>
				</g>
				<g>
					<path d="M445.6,1708.68c0,19.64-3.7,38.47-10.56,55.71H430l-32.37-55.42l31.79-55.71h5.75
						C441.9,1670.45,445.6,1689.16,445.6,1708.68z"/>
					<path d="M436.23,1766.15h-7.24l-33.39-57.17l32.79-57.48h7.96l0.44,1.11c7.01,17.85,10.56,36.71,10.56,56.06
						c0,19.59-3.59,38.55-10.68,56.36L436.23,1766.15z M431.01,1762.64h2.84c6.64-17.07,10-35.22,10-53.96
						c0-18.51-3.32-36.55-9.89-53.66h-3.53l-30.78,53.95L431.01,1762.64z"/>
				</g>
				<g>
					<path d="M342.38,1564.53l-16.66,29.21l-64.16,0.35l-17.24-29.56c15.37-5.28,31.85-8.09,49.03-8.09
						C310.53,1556.44,327.01,1559.25,342.38,1564.53z"/>
					<path d="M260.56,1595.85l-18.83-32.28l2.03-0.69c15.82-5.43,32.5-8.19,49.6-8.19s33.78,2.75,49.6,8.19l2,0.69l-18.21,31.93
						L260.56,1595.85z M246.93,1565.51l15.64,26.82l62.13-0.34l15.1-26.47c-14.85-4.86-30.46-7.32-46.45-7.32
						C277.38,1558.19,261.77,1560.66,246.93,1565.51z"/>
				</g>
				<g>
					<path d="M341.5,1853.13c-15.13,5.1-31.32,7.8-48.15,7.8s-33.02-2.7-48.15-7.8l15.78-27.68l64.16-0.35L341.5,1853.13z"/>
					<path d="M293.35,1862.69c-16.79,0-33.18-2.65-48.71-7.89l-2.02-0.68l17.33-30.41l66.19-0.36l17.96,30.77l-2.04,0.69
						C326.54,1860.03,310.14,1862.69,293.35,1862.69z M247.79,1852.13c14.56,4.67,29.88,7.04,45.56,7.04
						c15.68,0,30.98-2.37,45.54-7.04l-14.76-25.29l-62.13,0.34L247.79,1852.13z"/>
				</g>
				<g>
					<path d="M186.14,1695.55l-31.79,55.71l-7.16,0.06c-3.99-13.49-6.1-27.86-6.1-42.64c0-23.34,5.22-45.45,14.66-65.21
						L186.14,1695.55z"/>
					<path d="M145.9,1753.09l-0.38-1.27c-4.09-13.85-6.17-28.36-6.17-43.13c0-23.18,4.99-45.37,14.83-65.97l1.43-2.99l32.56,55.82
						l-32.79,57.47L145.9,1753.09z M155.94,1647.26c-8.68,19.27-13.08,39.92-13.08,61.43c0,13.98,1.9,27.73,5.66,40.87l4.82-0.04
						l30.78-53.96L155.94,1647.26z"/>
				</g>
			</g>
		</g>
		<g>
			<g>
				<g>
					<g>
						<path d="M1784.9,535.81c-3.2,86.16-5.16,172.42-9.43,258.5c-1.3,26.17-1.64,52.35-9.19,77.62
							c-5.84,19.56-16.79,41.65-37.96,47.6c-19.69,5.54-43.45-9.87-59.03-20.55c-20.45-14.02-36.82-32.25-51.75-51.86
							c-40.58-53.32-70.43-112.21-103.8-170.11c-22.55-39.12-83.23-3.82-60.61,35.43c33.89,58.8,64.36,118.32,105.59,172.47
							c38.18,50.14,89,99.11,155.1,105.39c68.02,6.46,112.71-58.03,124.62-117.35c6.62-33.01,6.96-67.65,8.2-101.19
							c1.28-34.39,2.49-68.77,4.19-103.14c2.19-44.02,3.36-88.11,4.72-132.18C1832.01,536.09,1808.45,535.91,1784.9,535.81z"/>
					</g>
					<g>
						<g>
							<path style="fill:#FFFFFF;" d="M1788.29,433.91c0,0-13.96-124.09-51.98-110.15c-29.47,10.8,2.3,126.97,2.3,126.97
								s-70.45,44.34,12.53,114.77c3.66,3.11-15.2,10.55-10.25,25.13c10.85,31.97,101.58,17.59,123.37,6.02
								c17.17-9.12,13.54-37.42-3.85-34.89l-0.33,0.17c0,0,32.98-14.7,26.49-51.59c0,0,37.74-85.34-32.48-83.39
								c-0.95-3.8-3.85-13.14-12.56-20.47c-1.84-1.55-16.7-13.65-32.86-7.75C1795.74,403.46,1787.08,417.84,1788.29,433.91z"/>
							<path d="M1790.97,611.85c-13.13,0-25.55-1.49-35.05-5.26c-8.79-3.49-14.41-8.67-16.69-15.39
								c-3.46-10.21,3.6-17.31,7.81-21.55c1-1,2.32-2.33,2.71-3.02c-28.63-24.37-42.31-48.4-40.68-71.41
								c1.84-25.91,22.44-41.72,27.51-45.24c-3.52-13.22-30.19-117.12-0.89-127.86c5.57-2.05,10.97-1.48,16.07,1.67
								c21.18,13.09,32.17,68.91,36.3,95.65c3.09-10.4,10.32-18.81,19.99-22.35c16.63-6.07,31.73,5.64,34.6,8.06
								c7.54,6.34,11.09,14.16,12.77,20.03c17.25-0.2,29.55,4.93,36.48,15.26c15.66,23.33-1.28,64.87-3.53,70.13
								c4.66,27.9-12.78,43.57-22.1,49.79c4.55,1.25,8.11,4.8,9.84,10.1c3,9.16-0.31,22.05-11.04,27.75
								C1853.58,604.31,1820.49,611.85,1790.97,611.85z M1742.18,324.42c-1.72,0-3.47,0.33-5.27,0.99
								c-22.94,8.4-5.33,92.98,3.39,124.86l0.34,1.25l-1.1,0.69c-0.25,0.16-25.05,16.12-26.97,43.28
								c-1.54,21.9,11.81,45,39.69,68.67c0.86,0.73,1.07,1.58,1.09,2.16c0.08,1.87-1.56,3.52-3.84,5.81
								c-4.11,4.13-9.74,9.8-6.98,17.95c1.94,5.71,6.87,10.17,14.67,13.26c30,11.91,90.03,0.37,106.22-8.23
								c9.1-4.83,11.9-15.77,9.36-23.55c-0.91-2.78-3.92-9.08-11.84-8.09c-0.09,0.05-0.15,0.07-0.17,0.08l-0.03-0.05
								c-0.04,0.01-0.07,0.01-0.11,0.01l-0.05-0.34l-1.34-2.78l0.68-0.32c4.42-2.17,30.68-16.58,24.89-49.41l-0.09-0.52l0.21-0.49
								c0.2-0.44,19.34-44.44,4.03-67.25c-6.41-9.54-18.15-14.17-34.86-13.67l-1.41,0.04l-0.34-1.36
								c-1.13-4.48-4.17-12.98-11.99-19.55c-2.6-2.19-16.34-12.85-31.13-7.44c-12.46,4.55-20.37,18.29-19.23,33.4l-3.49,0.33
								c-0.1-0.91-10.54-91.22-36.62-107.34C1747.39,325.2,1744.82,324.42,1742.18,324.42z"/>
						</g>
						<g>
							<path style="fill:#FFFFFF;" d="M1854.08,426.95c2.45,17.06,2.25,38.03-7.22,53c-5.18,8.19-13.35,13.13-23,14.03
								c-12.15,1.14-24.16-1.25-29.78-12.95c-7.87-16.41-7.03-38.51-4.93-56.13L1854.08,426.95z"/>
							<path d="M1818.57,496c-12.78,0-21.53-4.76-26.07-14.21c-6.41-13.35-8.07-32.03-5.08-57.09l3.48,0.41
								c-2.9,24.38-1.34,42.42,4.77,55.16c4.44,9.27,13.9,13.31,28.03,11.97c9.13-0.85,16.83-5.55,21.68-13.22
								c9.7-15.35,9.15-36.65,6.97-51.81l3.47-0.5c2.26,15.75,2.8,37.94-7.48,54.19c-5.45,8.61-14.09,13.88-24.32,14.84
								C1822.13,495.91,1820.31,496,1818.57,496z"/>
						</g>
						<g>
							<path style="fill:#FFFFFF;" d="M1887.92,506.78c-1.58,1.82-8.42,7.81-16.92,9.68c-2.11,0.46-9.31,1.79-16.79-1.56
								c-14.23-6.38-16.14-23.78-16.21-24.56L1887.92,506.78z"/>
							<path d="M1864.88,518.87c-3.34,0-7.32-0.56-11.38-2.37c-15.3-6.86-17.17-25.22-17.24-26l3.5-0.32
								c0.01,0.17,1.73,17.08,15.18,23.12c6.61,2.96,13.18,2,15.69,1.45c8.2-1.8,14.78-7.74,15.96-9.11l2.65,2.3
								c-1.42,1.65-8.64,8.21-17.86,10.24C1869.82,518.51,1867.55,518.87,1864.88,518.87z"/>
						</g>
						<g>
							<path style="fill:#FFFFFF;" d="M1738.61,450.73c9.73-4.27,19.91-7.69,30.19-10.35c20.86-5.4,56.28-14.41,65.18,12.55
								c8.73,26.44-31.6,40.02-59.89,47.49c0,0,40.11-6.47,47.67,38.29L1738.61,450.73z"/>
							<path d="M1820.03,539.01c-7.17-42.48-44.1-37.1-45.66-36.86l-0.73-3.43c20.71-5.46,49.2-14.49,57.49-29.79
								c2.63-4.85,3.02-9.9,1.18-15.45c-8.44-25.56-42.64-16.69-63.08-11.4c-10.59,2.74-20.66,6.2-29.92,10.26l-1.41-3.21
								c9.43-4.14,19.67-7.65,30.45-10.44c20.2-5.24,57.82-14.98,67.29,13.7c2.12,6.43,1.64,12.56-1.43,18.22
								c-7.41,13.66-28.85,22.45-48.13,28.26c13.01,1.81,32.35,9.64,37.4,39.56L1820.03,539.01z"/>
						</g>
						<g>
							<path style="fill:#FFFFFF;" d="M1862.17,561.03c0,0-8.77,8.29-31.6,12.22L1862.17,561.03z"/>
							<path d="M1830.87,574.97l-0.6-3.46c21.91-3.76,30.61-11.69,30.7-11.77l2.41,2.55C1863,562.65,1853.96,571,1830.87,574.97z"/>
						</g>
						<g>
							<path style="fill:#FFFFFF;" d="M1788.18,575.79c0,0-15.88,1.99-37.04-10.29L1788.18,575.79z"/>
							<path d="M1785.38,577.67c-5.69,0-18.85-1.21-35.12-10.66l1.76-3.04c20.42,11.85,35.79,10.1,35.94,10.07l0.44,3.48
								C1788.24,577.55,1787.18,577.67,1785.38,577.67z"/>
						</g>
					</g>
				</g>
				<g>
					<g>
						<path d="M215.1,535.81c3.2,86.16,5.16,172.42,9.43,258.5c1.3,26.17,1.64,52.35,9.19,77.62c5.84,19.56,16.79,41.65,37.96,47.6
							c19.69,5.54,43.45-9.87,59.03-20.55c20.45-14.02,36.82-32.25,51.75-51.86c40.58-53.32,70.43-112.21,103.8-170.11
							c22.55-39.12,83.23-3.82,60.61,35.43c-33.89,58.8-64.36,118.32-105.59,172.47c-38.18,50.14-89,99.11-155.1,105.39
							c-68.02,6.46-112.71-58.03-124.62-117.35c-6.62-33.01-6.96-67.65-8.2-101.19c-1.28-34.39-2.49-68.77-4.19-103.14
							c-2.19-44.02-3.36-88.11-4.72-132.18C167.99,536.09,191.54,535.91,215.1,535.81z"/>
					</g>
					<g>
						<g>
							<path style="fill:#FFFFFF;" d="M211.71,433.91c0,0,13.96-124.09,51.98-110.15c29.47,10.8-2.3,126.97-2.3,126.97
								s70.45,44.34-12.53,114.77c-3.66,3.11,15.2,10.55,10.25,25.13c-10.85,31.97-101.58,17.59-123.37,6.02
								c-17.17-9.12-13.54-37.42,3.85-34.89l0.33,0.17c0,0-32.98-14.7-26.49-51.59c0,0-37.74-85.34,32.48-83.39
								c0.95-3.8,3.85-13.14,12.56-20.47c1.84-1.55,16.7-13.65,32.86-7.75C204.25,403.46,212.92,417.84,211.71,433.91z"/>
							<path d="M209.03,611.85c-29.52,0-62.61-7.54-74.11-13.65c-10.73-5.7-14.04-18.58-11.04-27.74c1.73-5.3,5.3-8.85,9.85-10.1
								c-9.31-6.22-26.76-21.89-22.1-49.79c-2.25-5.26-19.18-46.8-3.52-70.13c6.93-10.33,19.21-15.42,36.49-15.26
								c1.47-5.12,4.93-13.44,12.76-20.03c2.86-2.41,17.99-14.12,34.59-8.05c9.68,3.54,16.9,11.95,19.99,22.35
								c4.13-26.74,15.12-82.56,36.3-95.65c5.09-3.15,10.5-3.71,16.07-1.67c29.3,10.74,2.64,114.64-0.89,127.86
								c5.07,3.52,25.66,19.33,27.51,45.24c1.64,23.02-12.05,47.05-40.68,71.41c0.4,0.7,1.72,2.02,2.71,3.02
								c4.22,4.24,11.28,11.34,7.82,21.55c-2.29,6.73-7.9,11.91-16.69,15.39C234.57,610.36,222.15,611.85,209.03,611.85z
								 M137.4,563.36c-6.74,0-9.35,5.61-10.2,8.2c-2.55,7.78,0.26,18.72,9.36,23.55c16.2,8.6,76.22,20.13,106.22,8.23
								c7.8-3.09,12.73-7.55,14.67-13.26c2.77-8.15-2.87-13.81-6.98-17.95c-2.27-2.29-3.92-3.93-3.84-5.81
								c0.02-0.58,0.23-1.43,1.09-2.16c27.9-23.67,41.25-46.79,39.69-68.7c-1.93-27.19-26.71-43.09-26.96-43.24l-1.1-0.69l0.34-1.26
								c8.72-31.88,26.32-116.45,3.39-124.86c-4.57-1.67-8.83-1.23-13.02,1.36c-26.08,16.13-36.52,106.43-36.62,107.34l-3.5-0.33
								c1.13-15.11-6.77-28.84-19.23-33.4c-14.79-5.41-28.53,5.25-31.13,7.44c-7.81,6.58-10.86,15.07-11.98,19.55l-0.34,1.36
								l-1.41-0.04c-16.77-0.5-28.46,4.14-34.86,13.67c-15.31,22.81,3.84,66.81,4.03,67.25l0.21,0.49l-0.09,0.52
								c-5.72,32.52,20.7,47.28,24.92,49.41l0.66,0.32l-1.39,3.12c-0.04,0-0.07-0.01-0.11-0.01l-0.02,0.05
								c-0.01,0-0.07-0.03-0.17-0.08C138.47,563.39,137.92,563.36,137.4,563.36z"/>
						</g>
						<g>
							<path style="fill:#FFFFFF;" d="M145.91,426.95c-2.45,17.06-2.25,38.03,7.22,53c5.18,8.19,13.35,13.13,23,14.03
								c12.15,1.14,24.16-1.25,29.78-12.95c7.87-16.41,7.03-38.51,4.93-56.13L145.91,426.95z"/>
							<path d="M181.43,496c-1.75,0-3.57-0.09-5.46-0.27c-10.24-0.96-18.87-6.23-24.31-14.84c-10.28-16.26-9.74-38.44-7.48-54.19
								l3.47,0.5c-2.18,15.16-2.74,36.46,6.97,51.81c4.85,7.67,12.55,12.37,21.68,13.22c14.15,1.34,23.59-2.69,28.03-11.97
								c6.11-12.74,7.67-30.78,4.77-55.16l3.48-0.41c2.99,25.06,1.32,43.73-5.09,57.09C202.96,491.23,194.21,496,181.43,496z"/>
						</g>
						<g>
							<path style="fill:#FFFFFF;" d="M112.07,506.78c1.58,1.82,8.42,7.81,16.92,9.68c2.11,0.46,9.31,1.79,16.79-1.56
								c14.23-6.38,16.14-23.78,16.21-24.56L112.07,506.78z"/>
							<path d="M135.12,518.87c-2.67,0-4.93-0.36-6.5-0.7c-9.22-2.03-16.44-8.59-17.87-10.24l2.65-2.3
								c1.19,1.37,7.77,7.31,15.97,9.11c2.51,0.56,9.08,1.52,15.69-1.45c13.45-6.04,15.17-22.95,15.18-23.12l3.5,0.32
								c-0.07,0.78-1.94,19.13-17.24,26C142.44,518.31,138.46,518.87,135.12,518.87z"/>
						</g>
						<g>
							<path style="fill:#FFFFFF;" d="M261.39,450.73c-9.73-4.27-19.91-7.69-30.19-10.35c-20.87-5.4-56.28-14.41-65.18,12.55
								c-8.73,26.44,31.6,40.02,59.89,47.49c0,0-40.11-6.47-47.67,38.29L261.39,450.73z"/>
							<path d="M179.97,539.01l-3.46-0.58c5.05-29.91,24.39-37.75,37.4-39.56c-19.27-5.81-40.72-14.6-48.13-28.26
								c-3.07-5.66-3.55-11.79-1.43-18.22c9.47-28.68,47.08-18.94,67.29-13.7c10.77,2.79,21.02,6.3,30.45,10.44l-1.41,3.21
								c-9.26-4.06-19.33-7.51-29.92-10.26c-20.44-5.29-54.64-14.15-63.08,11.4c-1.83,5.55-1.45,10.6,1.18,15.45
								c8.29,15.3,36.78,24.33,57.49,29.79l-0.72,3.43C224.06,501.9,187.14,496.54,179.97,539.01z"/>
						</g>
						<g>
							<path style="fill:#FFFFFF;" d="M137.83,561.03c0,0,8.77,8.29,31.6,12.22L137.83,561.03z"/>
							<path d="M169.13,574.97c-23.09-3.97-32.14-12.32-32.51-12.67l2.41-2.55c0.08,0.08,8.78,8,30.7,11.77L169.13,574.97z"/>
						</g>
						<g>
							<path style="fill:#FFFFFF;" d="M211.82,575.79c0,0,15.88,1.99,37.04-10.29L211.82,575.79z"/>
							<path d="M214.62,577.67c-1.8,0-2.86-0.12-3.02-0.14l0.44-3.48c0.15,0.01,15.62,1.73,35.94-10.07l1.76,3.04
								C233.47,576.46,220.3,577.67,214.62,577.67z"/>
						</g>
					</g>
				</g>
			</g>
			<g>
				<g>
					<g>
						<path d="M1247.08,1266.08c-21.66-44.19-87.64-5.47-66.03,38.6c61.73,125.95,62.94,269.7,61.27,407.23
							c-0.6,49.23,75.88,49.26,76.48,0C1320.64,1559.65,1315.22,1405.09,1247.08,1266.08z"/>
					</g>
					<g>
						<g>
							<path style="fill:#FFFFFF;" d="M1297.02,1705.5c0,0-11.55-57.63,4.7-82.13c9.61-14.49,33.39-7.6,34.59,9.56l3.74,53.88
								c-7.26,5.35-16.76,11.29-29.22,15.31C1305.93,1703.7,1301.29,1704.78,1297.02,1705.5z"/>
							<path d="M1295.64,1707.52l-0.34-1.67c-0.47-2.38-11.5-58.63,4.96-83.45c4.71-7.1,13.35-10.2,22.03-7.9
								c8.97,2.37,15.16,9.56,15.77,18.32l3.81,54.83l-0.77,0.57c-9.83,7.25-19.28,12.2-29.72,15.57
								c-4.59,1.48-9.32,2.64-14.06,3.45L1295.64,1707.52z M1316.59,1617.26c-4.77,0-9.93,1.85-13.4,7.08
								c-14.14,21.3-6.48,69.49-4.76,79.12c4-0.75,7.99-1.77,11.87-3.02c12.67-4.09,21.92-10.11,27.94-14.49l-3.68-52.91
								c-0.5-7.23-5.67-13.19-13.16-15.17C1319.9,1617.5,1318.27,1617.26,1316.59,1617.26z"/>
						</g>
						<g>
							<path style="fill:#FF6DCE;" d="M1255.22,1820.06c5.87,3.47,12.59,5.91,18.53,7.7c26.33,7.92,251.38,9.84,261.33-7.92
								c25.9-46.2-89.03-68.92-100.5-71.73c0,0-61.64-15.1-95.15-63.2c0,0-39.55,40.32-96.76,5.81
								c-2.29-1.4-13.85,75.97-1.58,113.58C1243.33,1811.15,1248.75,1816.23,1255.22,1820.06z"/>
							<path d="M1388.23,1835.32c-54.33,0-103.46-2.41-114.99-5.88c-7.7-2.32-13.89-4.89-18.92-7.87l0,0
								c-7.77-4.6-12.78-10.23-14.9-16.73c-11.51-35.28-2.6-111.84,1.99-115.47l0.96-0.76l1.21,0.61
								c28.97,17.48,53.17,15.02,68.36,9.88c16.45-5.57,26.14-15.32,26.24-15.41l1.48-1.51l1.21,1.74
								c32.78,47.06,93.51,62.35,94.12,62.49c0.69,0.17,1.74,0.4,3.1,0.72c57.83,13.1,91.58,29.71,100.31,49.34
								c3.46,7.77,2.85,15.93-1.8,24.23c-6.35,11.33-81.7,13.94-126.04,14.49C1403.09,1835.28,1395.61,1835.32,1388.23,1835.32z
								 M1256.11,1818.55c4.79,2.83,10.72,5.3,18.14,7.53c12.59,3.79,74.99,6.36,136.28,5.6c86.14-1.06,120.11-7.5,123.02-12.7
								c4.14-7.39,4.68-14.29,1.66-21.09c-5.68-12.77-27.27-31.34-97.88-47.35c-1.4-0.32-2.47-0.56-3.16-0.73l0.01-0.04
								c-5.38-1.26-62.12-16.54-95.02-62.23c-7.87,6.85-45.15,35.12-95.79,5.62c-3.1,10.77-11.75,76.39-0.6,110.59
								C1244.61,1809.42,1249.1,1814.4,1256.11,1818.55L1256.11,1818.55z"/>
						</g>
						<g>
							<path style="fill:#FFFFFF;" d="M1267.92,1755.15c-0.66-23.86-13.28-41.05-27.38-57.22c-3.97,21.1-9.19,82.17,3.41,110.73
								C1244.63,1808.07,1268.83,1787.68,1267.92,1755.15z"/>
							<path d="M1243.36,1811.5l-1.02-2.12c-13.15-29.78-7.19-92.35-3.53-111.77l0.67-3.56l2.38,2.73
								c13.09,15.02,27.11,33.15,27.81,58.32l0,0c0.89,31.88-21.91,52.59-24.52,54.85L1243.36,1811.5z M1241.64,1701.89
								c-3.48,21.74-7.92,75.66,2.97,103.78c5.89-5.71,22.29-24.06,21.55-50.47l0,0C1265.54,1732.65,1254.03,1716.4,1241.64,1701.89
								z"/>
						</g>
						<g>
							<path style="fill:#FFFFFF;" d="M1332.17,1742.86c12.67,8.58,26.89,14.19,41.11,18.59c18.71,5.78,38.45,9.29,57.76,11.01
								c19.14,1.69,38.85,1.27,57.52-3.7c1.58-0.42,3.14-0.91,4.7-1.39c-14.74-6.6-33.83-13.14-58.68-19.25
								c0,0-61.64-15.1-95.15-63.2c0,0-14.99,15.24-39.83,18.95C1306.74,1720.28,1318.11,1733.34,1332.17,1742.86z"/>
							<path d="M1450.49,1775.11c-6.25,0-12.77-0.3-19.6-0.91c-20.73-1.84-40.29-5.57-58.12-11.08
								c-17.3-5.35-30.51-11.33-41.57-18.81l0,0c-14.97-10.13-26.14-23.51-33.2-39.75l-0.91-2.1l2.26-0.34
								c23.93-3.57,38.7-18.3,38.85-18.45l1.48-1.5l1.21,1.73c32.75,47.01,93.52,62.35,94.13,62.49
								c23.21,5.71,43.05,12.22,58.97,19.36l4.26,1.91l-5.31,1.63c-1.3,0.4-2.6,0.8-3.92,1.15
								C1477.31,1773.56,1464.6,1775.11,1450.49,1775.11z M1333.16,1741.4c10.77,7.29,23.68,13.12,40.64,18.37
								c17.6,5.44,36.91,9.12,57.4,10.94c21.82,1.93,40.44,0.74,56.91-3.64c0.01,0,0.02,0,0.03-0.01
								c-14.94-6.31-33.07-12.1-53.98-17.24c-0.61-0.15-61.24-15.45-95-62.25c-4.29,3.82-17.39,14.11-37.03,17.65
								C1308.96,1719.92,1319.39,1732.08,1333.16,1741.4L1333.16,1741.4z"/>
						</g>
						<g>
							<path d="M1281.16,1830.22c0.18,0.83,0.35,1.66,0.58,2.48c2.68,9.39,8.74,15.91,13.52,14.52c4-1.16,5.86-7.46,4.76-14.93
								L1281.16,1830.22z"/>
							<path d="M1293.96,1849.16c-1.3,0-2.65-0.38-3.99-1.12c-4.15-2.3-7.95-8-9.9-14.86c-0.23-0.8-0.41-1.62-0.59-2.44l-0.51-2.38
								l2.38,0.12l20.22,2.21l0.2,1.34c1.27,8.69-1.15,15.47-6.02,16.88C1295.18,1849.07,1294.57,1849.16,1293.96,1849.16z
								 M1283.44,1832.24c1.69,5.9,4.91,10.9,8.22,12.74c1.15,0.64,2.2,0.83,3.12,0.56c2.76-0.8,4.26-5.7,3.68-11.66
								L1283.44,1832.24z"/>
						</g>
						<g>
							<path d="M1272.74,1829.7c-0.17,7.24-2.87,12.82-6.88,13.41c-4.94,0.73-9.94-6.55-11.21-16.2c-0.26-1.99-0.34-3.89-0.22-5.74
								C1254.42,1821.17,1259.78,1824.98,1272.74,1829.7z"/>
							<path d="M1265.18,1844.92c-1.58,0-3.18-0.58-4.67-1.71c-3.75-2.83-6.67-8.99-7.6-16.07c-0.28-2.1-0.35-4.09-0.24-6.07
								l0.19-3.15l2.58,1.82c0.05,0.04,5.39,3.75,17.9,8.32l1.18,0.43l-0.03,1.26c-0.2,8.46-3.48,14.39-8.38,15.11
								C1265.8,1844.89,1265.49,1844.92,1265.18,1844.92z M1256.16,1824.28c0.04,0.78,0.12,1.58,0.22,2.4
								c0.8,6.09,3.25,11.47,6.23,13.73c1.03,0.78,2.02,1.11,2.98,0.97c2.77-0.41,4.93-4.73,5.33-10.47
								C1263.63,1828.17,1258.86,1825.79,1256.16,1824.28z"/>
						</g>
						<g>
							<path d="M1437.78,1834.95c-0.01,0.85-0.02,1.69,0.03,2.6c0.57,9.72,5.07,17.3,10.06,16.91c4.93-0.39,8.52-8.6,7.95-18.32
								c-0.03-0.45-0.05-0.91-0.13-1.29L1437.78,1834.95z"/>
							<path d="M1447.51,1856.23c-1.74,0-3.47-0.71-5.02-2.06c-3.55-3.1-6.02-9.43-6.43-16.52c-0.06-0.95-0.05-1.84-0.04-2.72
								l0.02-1.72l21.05-0.12l0.3,1.4c0.1,0.47,0.14,1.02,0.17,1.56c0.63,10.83-3.57,19.69-9.56,20.16
								C1447.84,1856.22,1447.67,1856.23,1447.51,1856.23z M1439.54,1836.69c0,0.25,0.01,0.5,0.03,0.76
								c0.36,6.09,2.41,11.61,5.23,14.08c0.99,0.86,2.03,1.28,2.94,1.18c3.39-0.27,6.79-6.92,6.35-16.1L1439.54,1836.69z"/>
						</g>
						<g>
							<path d="M1468.76,1834.39c-0.04,0.39-0.01,0.85,0.01,1.23c0.54,9.72,5.04,17.31,10.02,16.93s8.53-8.59,7.99-18.3
								c-0.01-0.19-0.02-0.39-0.03-0.58L1468.76,1834.39z"/>
							<path d="M1478.43,1854.32c-1.75,0-3.47-0.71-5.03-2.07c-3.55-3.11-5.99-9.44-6.39-16.53c-0.03-0.47-0.05-1.02-0.01-1.5
								l0.15-1.52l21.24-0.85l0.09,1.73l-1.72,0.68l1.75-0.1c0.61,10.84-3.61,19.69-9.61,20.15
								C1478.76,1854.32,1478.59,1854.32,1478.43,1854.32z M1470.55,1836.08c0.43,5.88,2.43,11.15,5.17,13.54
								c0.99,0.87,2.02,1.26,2.93,1.19c3.29-0.25,6.61-6.54,6.42-15.31L1470.55,1836.08z"/>
						</g>
						<g>
							<path d="M1500.18,1831.53c-0.57,9.71,3.03,17.73,8.03,17.88c5,0.15,9.47-7.63,10.04-17.35c0.08-1.29,0.09-2.59-0.01-3.83
								L1500.18,1831.53z"/>
							<path d="M1508.34,1851.16c-0.07,0-0.13,0-0.19,0c-1.92-0.06-3.73-0.96-5.26-2.63c-3.17-3.46-4.88-10.02-4.47-17.11l0.08-1.37
								l21.32-3.89l0.16,1.93c0.1,1.19,0.1,2.52,0.01,4.07C1519.37,1842.88,1514.27,1851.16,1508.34,1851.16z M1501.88,1833
								c-0.08,5.56,1.28,10.62,3.61,13.16c0.88,0.96,1.81,1.46,2.77,1.49c3.44,0.13,7.68-6.32,8.23-15.69
								c0.04-0.58,0.05-1.12,0.06-1.63L1501.88,1833z"/>
						</g>
						<g>
							
								<rect x="1334.27" y="1742.97" transform="matrix(0.7805 -0.6252 0.6252 0.7805 -791.5713 1235.1129)" width="57.42" height="3.51"/>
						</g>
						<g>
							
								<rect x="1369.86" y="1758.86" transform="matrix(0.7646 -0.6445 0.6445 0.7646 -805.7684 1315.087)" width="55.14" height="3.51"/>
						</g>
						<g>
							
								<rect x="1403.84" y="1769.45" transform="matrix(0.7354 -0.6777 0.6777 0.7354 -821.4881 1438.7582)" width="55.18" height="3.51"/>
						</g>
					</g>
				</g>
				<g>
					<g>
						<path d="M813.76,1266.08c21.66-44.19,87.64-5.47,66.03,38.6c-61.73,125.95-62.94,269.7-61.27,407.23
							c0.6,49.23-75.88,49.26-76.48,0C740.2,1559.65,745.63,1405.09,813.76,1266.08z"/>
					</g>
					<g>
						<g>
							<path style="fill:#FFFFFF;" d="M763.83,1705.5c0,0,11.55-57.63-4.7-82.13c-9.61-14.49-33.39-7.6-34.59,9.56l-3.74,53.88
								c7.26,5.35,16.76,11.29,29.22,15.31C754.92,1703.7,759.56,1704.78,763.83,1705.5z"/>
							<path d="M765.22,1707.52l-1.68-0.28c-4.74-0.81-9.48-1.96-14.06-3.45c-13.71-4.43-23.53-11.01-29.72-15.57l-0.78-0.57
								l3.81-54.83c0.61-8.76,6.8-15.95,15.77-18.32c8.67-2.29,17.32,0.81,22.03,7.9c16.47,24.81,5.44,81.06,4.96,83.45
								L765.22,1707.52z M722.61,1685.97c6.02,4.38,15.27,10.39,27.94,14.49c3.87,1.25,7.86,2.26,11.87,3.02
								c1.72-9.63,9.37-57.82-4.76-79.12c-4.69-7.06-12.49-7.97-18.21-6.45c-7.49,1.98-12.66,7.93-13.16,15.17L722.61,1685.97z"/>
						</g>
						<g>
							<path style="fill:#FF6DCE;" d="M805.63,1820.06c-5.87,3.47-12.59,5.91-18.53,7.7c-26.33,7.92-251.38,9.84-261.33-7.92
								c-25.9-46.2,89.03-68.92,100.5-71.73c0,0,61.64-15.1,95.15-63.2c0,0,39.55,40.32,96.76,5.81
								c2.29-1.4,13.85,75.97,1.58,113.58C817.53,1811.15,812.09,1816.23,805.63,1820.06z"/>
							<path d="M672.62,1835.32c-7.38,0-14.86-0.05-22.35-0.14c-44.35-0.55-119.68-3.16-126.04-14.49
								c-4.66-8.31-5.26-16.46-1.8-24.23c8.73-19.64,42.49-36.24,100.32-49.35c1.37-0.31,2.42-0.55,3.1-0.71
								c0.61-0.15,61.37-15.47,94.12-62.49l1.21-1.73l1.48,1.5c0.1,0.1,9.89,9.92,26.39,15.46c22.06,7.42,45.01,4.08,68.21-9.93
								l1.04-0.63l1.13,0.78c4.59,3.63,13.5,80.19,1.99,115.47c-2.12,6.5-7.13,12.13-14.91,16.73l0,0
								c-5.04,2.98-11.22,5.56-18.92,7.87C776.08,1832.91,726.94,1835.32,672.62,1835.32z M626.68,1749.78l0.01,0.04
								c-0.7,0.17-1.77,0.41-3.16,0.73c-70.62,16-92.21,34.58-97.89,47.35c-3.03,6.8-2.48,13.7,1.66,21.09
								c2.91,5.19,36.87,11.64,123.02,12.7c61.28,0.77,123.68-1.81,136.28-5.6c7.42-2.23,13.35-4.7,18.14-7.53
								c7.01-4.15,11.51-9.13,13.35-14.8c11.15-34.2,2.5-99.82-0.6-110.59c-29.43,17.14-54.09,14.54-69.71,9.25
								c-13.59-4.6-22.66-11.8-26.1-14.85C688.78,1733.24,632.06,1748.52,626.68,1749.78z"/>
						</g>
						<g>
							<path style="fill:#FFFFFF;" d="M792.93,1755.15c0.66-23.86,13.28-41.05,27.38-57.22c3.97,21.1,9.19,82.17-3.41,110.73
								C816.21,1808.07,792.02,1787.68,792.93,1755.15z"/>
							<path d="M817.53,1811.57l-1.8-1.59c-2.65-2.29-25.45-23-24.56-54.88l0,0c0.7-25.18,14.73-43.31,27.81-58.32l2.38-2.73
								l0.67,3.56c3.66,19.42,9.61,81.99-3.53,111.77L817.53,1811.57z M794.68,1755.2c-0.74,26.47,15.75,44.85,21.55,50.47
								c10.89-28.12,6.46-82.04,2.98-103.79C806.82,1716.4,795.31,1732.65,794.68,1755.2L794.68,1755.2z"/>
						</g>
						<g>
							<path style="fill:#FFFFFF;" d="M728.68,1742.86c-12.67,8.58-26.89,14.19-41.11,18.59c-18.71,5.78-38.45,9.29-57.76,11.01
								c-19.14,1.69-38.85,1.27-57.52-3.7c-1.58-0.42-3.14-0.91-4.7-1.39c14.74-6.6,33.83-13.14,58.68-19.25
								c0,0,61.64-15.1,95.15-63.2c0,0,14.99,15.24,39.83,18.95C754.11,1720.28,742.74,1733.34,728.68,1742.86z"/>
							<path d="M610.36,1775.11c-14.1,0-26.83-1.54-38.52-4.66c-1.3-0.34-2.59-0.74-3.87-1.14l-5.36-1.64l4.27-1.91
								c15.93-7.13,35.77-13.65,58.98-19.36c0.61-0.15,61.4-15.52,94.13-62.5l1.21-1.73l1.48,1.5c0.14,0.15,14.92,14.88,38.84,18.45
								l2.26,0.34l-0.91,2.1c-7.06,16.24-18.23,29.61-33.2,39.75l0,0c-11.06,7.49-24.27,13.46-41.58,18.81
								c-17.84,5.51-37.39,9.24-58.12,11.08C623.14,1774.81,616.61,1775.11,610.36,1775.11z M572.71,1767.05
								c0.01,0,0.02,0,0.03,0.01c16.48,4.38,35.1,5.57,56.92,3.64c20.48-1.82,39.8-5.5,57.4-10.94
								c16.96-5.24,29.87-11.08,40.64-18.36l0,0c13.77-9.32,24.2-21.49,31.02-36.18c-19.64-3.54-32.74-13.84-37.03-17.65
								c-33.75,46.79-94.38,62.1-95,62.25C605.78,1754.96,587.65,1760.75,572.71,1767.05z"/>
						</g>
						<g>
							<path d="M779.68,1830.22c-0.18,0.83-0.35,1.66-0.58,2.48c-2.68,9.39-8.74,15.91-13.52,14.52c-4-1.16-5.86-7.46-4.76-14.93
								L779.68,1830.22z"/>
							<path d="M766.9,1849.16c-0.62,0-1.22-0.08-1.81-0.25c-4.87-1.41-7.29-8.19-6.01-16.88l0.2-1.34l22.63-2.47l-0.5,2.37
								l-1.72-0.37l1.7,0.45c-0.18,0.84-0.36,1.68-0.59,2.51c-1.96,6.87-5.76,12.57-9.91,14.87
								C769.55,1848.78,768.2,1849.16,766.9,1849.16z M762.38,1833.87c-0.58,5.96,0.92,10.86,3.68,11.66
								c0.91,0.27,1.97,0.08,3.12-0.56c3.31-1.84,6.54-6.84,8.23-12.74L762.38,1833.87z"/>
						</g>
						<g>
							<path d="M788.11,1829.7c0.17,7.24,2.87,12.82,6.88,13.41c4.94,0.73,9.94-6.55,11.21-16.2c0.26-1.99,0.34-3.89,0.23-5.74
								C806.43,1821.17,801.06,1824.98,788.11,1829.7z"/>
							<path d="M795.67,1844.92c-0.31,0-0.63-0.02-0.94-0.07c-4.89-0.72-8.19-6.65-8.38-15.11l-0.03-1.26l1.18-0.43
								c12.51-4.56,17.86-8.28,17.91-8.32l2.57-1.81l0.19,3.14c0.12,1.97,0.04,3.96-0.24,6.07c-0.94,7.08-3.85,13.24-7.6,16.07
								C798.85,1844.34,797.25,1844.92,795.67,1844.92z M789.92,1830.9c0.39,5.75,2.55,10.07,5.33,10.47
								c0.94,0.13,1.95-0.19,2.98-0.97c2.99-2.25,5.43-7.64,6.24-13.73c0.11-0.82,0.18-1.62,0.22-2.4
								C801.99,1825.79,797.22,1828.17,789.92,1830.9z"/>
						</g>
						<g>
							<path d="M623.07,1834.95c0.01,0.85,0.02,1.69-0.03,2.6c-0.57,9.72-5.07,17.3-10.06,16.91c-4.93-0.39-8.52-8.6-7.95-18.32
								c0.03-0.45,0.05-0.91,0.13-1.29L623.07,1834.95z"/>
							<path d="M613.34,1856.23c-0.17,0-0.33,0-0.5-0.02c-6-0.47-10.2-9.33-9.56-20.17c0.03-0.55,0.07-1.09,0.17-1.55l0.3-1.4
								l21.06,0.12l0.02,1.72c0.01,0.89,0.02,1.77-0.04,2.72c-0.41,7.09-2.88,13.42-6.43,16.52
								C616.81,1855.52,615.08,1856.23,613.34,1856.23z M606.76,1836.61c-0.43,9.18,2.97,15.83,6.35,16.1
								c0.98,0.1,1.95-0.32,2.94-1.18c2.82-2.46,4.88-7.99,5.23-14.08c0.01-0.26,0.02-0.51,0.03-0.76L606.76,1836.61z"/>
						</g>
						<g>
							<path d="M592.09,1834.39c0.04,0.39,0.01,0.85-0.01,1.23c-0.54,9.72-5.04,17.31-10.02,16.93c-4.99-0.38-8.53-8.59-7.99-18.3
								c0.01-0.19,0.02-0.39,0.03-0.58L592.09,1834.39z"/>
							<path d="M582.42,1854.32c-0.16,0-0.33-0.01-0.49-0.02c-6-0.46-10.21-9.31-9.61-20.15l0.14-2.31l21.23,0.85l0.14,1.52
								c0.05,0.48,0.02,1.03-0.01,1.5c-0.4,7.09-2.84,13.42-6.39,16.53C585.89,1853.61,584.16,1854.32,582.42,1854.32z
								 M575.78,1835.5c-0.19,8.79,3.12,15.06,6.41,15.31c0.95,0.07,1.95-0.33,2.93-1.19c2.74-2.39,4.74-7.67,5.17-13.54
								L575.78,1835.5z"/>
						</g>
						<g>
							<path d="M560.67,1831.53c0.57,9.71-3.03,17.73-8.03,17.88c-5,0.15-9.47-7.63-10.04-17.35c-0.08-1.29-0.09-2.59,0.01-3.83
								L560.67,1831.53z"/>
							<path d="M552.5,1851.16c-5.92,0-11.02-8.28-11.65-19c-0.09-1.55-0.08-2.89,0.01-4.08l0.16-1.93l21.31,3.89l0.08,1.37
								c0.41,7.09-1.3,13.64-4.47,17.11c-1.52,1.66-3.34,2.57-5.26,2.63C552.63,1851.16,552.57,1851.16,552.5,1851.16z
								 M544.3,1830.32c0,0.51,0.02,1.05,0.06,1.64c0.55,9.3,4.72,15.69,8.15,15.69c0.02,0,0.05,0,0.08,0
								c0.96-0.03,1.9-0.53,2.77-1.49c2.32-2.54,3.7-7.61,3.61-13.16L544.3,1830.32z"/>
						</g>
						<g>
							
								<rect x="696.2" y="1715.9" transform="matrix(0.6253 -0.7804 0.7804 0.6253 -1099.9478 1198.3956)" width="3.51" height="57.41"/>
						</g>
						<g>
							
								<rect x="661.69" y="1732.94" transform="matrix(0.6439 -0.7651 0.7651 0.6439 -1110.7292 1134.5154)" width="3.51" height="55.14"/>
						</g>
						<g>
							
								<rect x="627.68" y="1743.67" transform="matrix(0.6776 -0.7354 0.7354 0.6776 -1099.6863 1033.9237)" width="3.51" height="55.17"/>
						</g>
					</g>
				</g>
			</g>
			<g>
				<g>
					<path style="fill:#FFFFFF;" d="M860.49,105.53c-10.23-0.14-20.66,0.29-31.31,1.36c-107.11,10.78-203.08,59.18-236.45,167.1
						c-32.72,105.83-0.36,225.91-55.87,325.71c-24.23,43.56-61.38,78.04-100.99,107.75c-56.82,42.62-102.82,106.89-99.65,180.31
						c2.63,60.8,44.92,100.95,85.77,141.07c20.26,19.9,40.25,40.64,53.82,65.78c21.85,40.49,24.3,88.2,44.64,129.6
						c20.21,41.15,51.7,74.7,90.46,99.32c54.21,34.43,126.84,61.3,192.05,53.52c93.46-11.16,182.47-92.91,279.38-53.76
						c45.71,18.47,82.44,54.19,129.28,70.3c224.12,77.1,496.42-124.22,420.83-360.74c-15.65-48.99-38.76-94.89-38.63-148.11
						c0.19-74.81,43.87-146.01,57.13-218.88c21.45-117.9-8.32-239.18-87.16-332.91c-78.68-93.54-178.72-81.76-291.52-88.12
						C1121.42,236.36,1013.15,107.61,860.49,105.53z"/>
					<path d="M1312.5,1411.82c-34.64,0-68.98-5.4-101.45-16.56c-25.08-8.63-47.58-23.02-69.34-36.94
						c-19.05-12.19-38.75-24.8-60.02-33.39c-60.55-24.46-119.21-0.71-175.95,22.25c-33.38,13.51-67.89,27.48-102.56,31.62
						c-57.19,6.83-129.42-13.28-193.19-53.78c-39.9-25.34-71.4-59.93-91.1-100.03c-9.81-19.97-15.56-41.65-21.11-62.61
						c-6-22.62-12.2-46-23.49-66.93c-13.57-25.15-33.87-46.08-53.5-65.36l-2.81-2.76c-39.76-39.03-80.88-79.39-83.48-139.49
						c-2.84-65.57,33.73-131.84,100.34-181.79c47.86-35.9,79.8-69.96,100.51-107.2c31.69-56.99,34.62-121.97,37.44-184.8
						c2.11-46.87,4.29-95.34,18.28-140.57c29.71-96.09,114.21-155.87,237.95-168.33c10.46-1.05,21.05-1.52,31.51-1.37
						c78.66,1.07,146.57,36.1,212.25,69.98c62.17,32.07,126.45,65.23,199.61,69.35c16.11,0.91,32.1,1.45,47.56,1.97
						c95.13,3.22,177.28,6,245.21,86.77c77.52,92.17,109.43,214.03,87.54,334.35c-5.45,29.96-16.19,60.1-26.57,89.25
						c-14.96,41.99-30.43,85.42-30.53,129.32c-0.1,39.67,13.13,76.11,25.93,111.36c4.28,11.79,8.71,23.99,12.62,36.21
						c31.79,99.5,4.47,201.13-74.96,278.83C1492.76,1376.12,1401.63,1411.82,1312.5,1411.82z M1027.81,1311.06
						c18.18,0,36.57,3.08,55.19,10.6c21.58,8.72,41.41,21.41,60.6,33.69c21.58,13.81,43.9,28.09,68.59,36.58
						c32.1,11.04,66.08,16.38,100.34,16.38c88.22,0,178.42-35.35,244.17-99.68c78.45-76.74,105.45-177.06,74.07-275.25
						c-3.88-12.15-8.3-24.32-12.57-36.08c-12.9-35.53-26.24-72.28-26.14-112.57c0.11-44.5,15.68-88.21,30.73-130.49
						c10.33-29.02,21.02-59.02,26.42-88.7c21.71-119.29-9.93-240.1-86.77-331.46c-66.92-79.56-148.35-82.32-242.64-85.52
						c-15.48-0.52-31.48-1.07-47.64-1.98c-73.91-4.16-138.53-37.5-201.02-69.73c-65.32-33.69-132.86-68.53-210.69-69.59l0,0
						c-10.31-0.15-20.78,0.31-31.11,1.35c-122.24,12.31-205.68,71.21-234.95,165.87c-13.85,44.8-16.02,93.04-18.12,139.69
						c-2.84,63.25-5.79,128.64-37.88,186.35c-20.96,37.68-53.2,72.09-101.47,108.3c-65.67,49.25-101.73,114.43-98.94,178.83
						c2.54,58.72,43.16,98.58,82.43,137.14l2.81,2.76c19.82,19.47,40.33,40.62,54.12,66.2c11.49,21.29,17.75,44.88,23.8,67.7
						c5.52,20.8,11.22,42.31,20.88,61.97c19.41,39.52,50.47,73.61,89.83,98.61c63.11,40.08,134.46,59.99,190.9,53.26
						c34.2-4.08,68.5-17.96,101.66-31.39C944.53,1327.69,985.6,1311.06,1027.81,1311.06z"/>
				</g>
				<g>
					<ellipse style="fill:#FFBC00;" cx="1033.01" cy="782.67" rx="352.93" ry="350.2"/>
					<path d="M1033.08,1134.46c-93.28,0.01-186.4-36.17-255.94-108.06c-65.59-67.81-100.66-156.9-98.74-250.87
						c1.92-94.01,40.63-181.65,109-246.77c141.08-134.38,366.05-129.82,501.48,10.18c65.59,67.81,100.66,156.9,98.74,250.87
						c-1.92,94.01-40.63,181.65-109,246.77l0,0C1209.98,1101.97,1121.46,1134.46,1033.08,1134.46z M1032.94,434.4
						c-87.52,0-175.15,32.17-243.12,96.91c-67.68,64.47-106.01,151.23-107.91,244.3c-1.9,93.03,32.81,181.23,97.75,248.36
						c134.09,138.61,356.84,143.14,496.54,10.08l1.21,1.27l-1.21-1.27c67.68-64.47,106.01-151.22,107.91-244.3
						c1.9-93.03-32.81-181.23-97.75-248.36C1217.51,470.22,1125.29,434.4,1032.94,434.4z"/>
				</g>
				<g>
					<g>
						<g>
							<g>
								<g>
									<path style="fill:#FFFFFF;" d="M984.56,694.86c0.14,62.73-22.04,116.92-54.28,142.43c-12.59,9.93-26.65,15.47-41.59,15.48
										c-53.14,0.04-96.38-70.59-96.58-157.75s42.72-157.86,95.86-157.9c14.14-0.01,27.57,4.96,39.62,13.88
										C961.04,575.73,984.41,630.82,984.56,694.86z"/>
									<path d="M888.65,854.52c-54.01,0-98.08-71.53-98.28-159.5c-0.13-55.97,17.22-106.86,46.41-136.14
										c26.62-27.06,62.14-31.55,91.86-9.3c34.89,25.81,57.53,82.83,57.68,145.27c0.14,60.84-21.43,117.29-54.94,143.81
										c-13.33,10.51-27.69,15.85-42.68,15.86C888.68,854.52,888.66,854.52,888.65,854.52z M888.03,538.86
										c-17.24,0-34.09,7.78-48.76,22.5c-28.54,28.63-45.51,78.6-45.39,133.65c0.19,86.03,42.71,156,94.78,156
										c0.01,0,0.03,0,0.05,0c14.18-0.01,27.81-5.09,40.5-15.11c32.7-25.87,53.74-81.23,53.61-141.04l0,0
										c-0.14-61.37-22.22-117.29-56.25-142.46C914.41,543.42,901.45,538.86,888.03,538.86z"/>
								</g>
							</g>
							<g>
								<path d="M918.51,577.51c-9.01-7.22-19.05-11.25-29.64-11.24c-39.75,0.04-71.86,57.3-71.72,127.88
									c0.01,3.39,0.11,6.73,0.26,10.06l76.65-21.08l-71.93,57.3c10.55,47.69,36.71,81.49,67.26,81.47
									c11.18-0.01,21.69-4.5,31.11-12.54c24.11-20.65,40.71-64.54,40.61-115.34C961.02,642.15,943.53,597.54,918.51,577.51z"/>
								<path d="M889.36,823.64c-30.76,0-57.81-32.51-68.94-82.84l-0.24-1.07l66.09-52.65l-70.51,19.4l-0.1-2.19
									c-0.15-3.35-0.26-6.72-0.27-10.13c-0.09-46.54,14.08-89.73,36.99-112.72c19.79-20.1,45.69-22.76,67.21-5.29
									c26.18,20.96,43.17,67.23,43.27,117.87c0.1,50.1-15.69,94.81-41.22,116.67c-10.07,8.59-20.92,12.95-32.25,12.96
									C889.39,823.64,889.38,823.64,889.36,823.64z M824.09,741.11c10.75,47.32,36.89,79.02,65.27,79.02c0.01,0,0.02,0,0.04,0
									c10.48-0.01,20.57-4.09,29.98-12.12c24.39-20.89,40.09-65.64,39.99-114c-0.11-49.62-16.58-94.81-41.96-115.13l0,0
									c-20.18-16.35-43.95-13.8-62.53,5.03c-22.28,22.35-36.07,64.59-35.97,110.23c0,2.62,0.07,5.21,0.17,7.78l82.78-22.77
									L824.09,741.11z"/>
							</g>
						</g>
						<g>
							<g>
								<g>
									<path style="fill:#FFFFFF;" d="M1086.12,694.55c-0.42,62.73,21.53,117.02,53.65,142.66c12.54,9.98,26.58,15.59,41.52,15.66
										c53.14,0.28,96.69-70.17,97.27-157.32c0.58-87.16-42.03-158.05-95.17-158.33c-14.14-0.07-27.59,4.84-39.68,13.71
										C1110.17,575.52,1086.55,630.51,1086.12,694.55z"/>
									<path d="M1181.6,854.63c-0.11,0-0.21,0-0.32,0c-14.98-0.08-29.32-5.48-42.6-16.05c-33.4-26.66-54.71-83.2-54.31-144.05
										c0.41-62.44,23.3-119.36,58.31-145.02c29.95-22.06,65.27-17.5,91.82,9.7c29.06,29.41,46.19,80.38,45.82,136.34
										C1279.73,783.37,1235.48,854.62,1181.6,854.63z M1183.08,538.98c-13.33,0-26.22,4.49-38.32,13.37
										c-34.15,25.02-56.47,80.84-56.88,142.21l0,0c-0.4,59.81,20.4,115.26,52.99,141.28c12.65,10.07,26.26,15.21,40.44,15.28
										c0.09,0,0.2,0,0.3,0c51.96,0.01,94.63-69.68,95.2-155.58c0.37-55.06-16.38-105.1-44.81-133.85
										C1217.31,546.83,1200.45,538.98,1183.08,538.98z"/>
								</g>
							</g>
							<g>
								<path d="M1152.69,577.49c9.05-7.18,19.1-11.17,29.68-11.11c39.75,0.21,71.61,57.61,71.16,128.19
									c-0.02,3.39-0.14,6.73-0.31,10.06l-76.56-21.42l71.68,57.62c-10.76,47.64-37.06,81.33-67.62,81.17
									c-11.18-0.06-21.68-4.6-31.06-12.68c-24.02-20.76-40.43-64.72-40.1-115.51C1109.89,641.94,1127.58,597.41,1152.69,577.49z"
									/>
								<path d="M1180.94,823.75c-0.08,0-0.15,0-0.23,0c-11.34-0.06-22.17-4.47-32.19-13.1c-25.43-21.98-41.03-66.75-40.71-116.86
									c0.33-50.64,17.52-96.83,43.79-117.67c21.69-17.29,47.46-14.63,67.19,5.59c22.81,23.08,36.8,66.34,36.5,112.88
									c-0.02,3.41-0.14,6.78-0.31,10.13l-0.11,2.19l-70.43-19.7l65.86,52.94l-0.24,1.07
									C1238.73,791.38,1211.61,823.74,1180.94,823.75z M1182.14,568.13c-9.85,0-19.4,3.61-28.36,10.73l0,0
									c-25.47,20.21-42.13,65.33-42.46,114.95c-0.31,48.36,15.19,93.18,39.49,114.17c9.37,8.07,19.44,12.19,29.92,12.25
									c0.07,0,0.14,0,0.2,0c28.32,0,54.52-31.55,65.45-78.73l-77.5-62.29l82.68,23.13c0.11-2.57,0.19-5.16,0.2-7.78
									c0.3-45.65-13.3-87.94-35.49-110.39C1205.91,573.68,1194.14,568.13,1182.14,568.13z"/>
							</g>
						</g>
					</g>
					<g>
						<g>
							<path d="M1152.73,968.62c-0.14,0.13-0.28,0.19-0.42,0.32c-46.9,32.63-108.68,40.02-164.1,25.27
								c-19.75-5.25-41.3-13.99-60.18-26.09c-29.48-18.76-52.36-45.72-51.35-80.38c1.03-32.11,26.86-40.89,56.65-40.71
								c26.29,0.19,55.76,7.37,73.88,11.8c15.73,3.74,31.54,6.43,47.76,5.53c26.18-1.32,49.99-12.82,75.78-15.32
								c5.09-0.5,10.86-0.73,16.96-0.37c17.56,0.82,37.39,5.28,48.68,15.69C1229.98,895.6,1179.07,950.22,1152.73,968.62z"/>
							<path d="M1043.46,1003.21c-18.5,0-37.27-2.41-55.7-7.31c-21.61-5.74-43.15-15.08-60.67-26.31
								c-24.42-15.55-53.31-42.38-52.16-81.91c0.91-28.38,20.57-42.67,58.41-42.42c26.62,0.19,56.46,7.49,74.29,11.85
								c12.86,3.06,29.85,6.43,47.24,5.48c13.74-0.69,27.11-4.31,40.05-7.8c11.52-3.12,23.44-6.33,35.66-7.52
								c5.86-0.58,11.66-0.7,17.24-0.37c10.2,0.48,35.51,3.01,49.76,16.15c8.48,7.89,12.37,17.73,11.56,29.25
								c-2.09,29.87-34.99,63.46-55.31,77.68l-0.32,0.24C1122.39,991.9,1083.57,1003.21,1043.46,1003.21z M932.41,848.78
								c-35.47,0-53.13,12.77-53.97,39.02c-1.1,37.88,26.88,63.78,50.54,78.84c17.22,11.04,38.42,20.23,59.68,25.87
								c57.39,15.28,118.19,5.92,162.66-25.01l0.42-0.32c21.24-14.84,52.01-47.95,53.91-75.12c0.73-10.41-2.78-19.3-10.44-26.43
								c-9.43-8.69-26.77-14.24-47.57-15.22c-5.41-0.33-11.03-0.2-16.71,0.36c-11.93,1.16-23.7,4.34-35.09,7.42
								c-13.11,3.54-26.67,7.2-40.77,7.92c-17.83,0.98-35.15-2.46-48.25-5.57c-17.69-4.32-47.28-11.56-73.49-11.75
								C933.01,848.78,932.71,848.78,932.41,848.78z"/>
						</g>
						<g>
							<path style="fill:#FF4568;" d="M1152.73,968.62c-0.14,0.13-0.28,0.19-0.42,0.32c-46.9,32.63-108.68,40.02-164.1,25.27
								c-19.75-5.25-41.3-13.99-60.18-26.09c22.55-29.85,64.36-49.94,112.21-49.84C1088.3,918.31,1130.18,938.52,1152.73,968.62z"/>
							<path d="M1043.46,1003.21c-18.5,0-37.27-2.41-55.7-7.31c-21.61-5.74-43.15-15.08-60.67-26.31l-1.6-1.02l1.14-1.51
								c23.57-31.19,66.94-50.54,113.27-50.54c0.11,0,0.23,0,0.34,0c46.68,0.04,90.32,19.59,113.89,51.05l0.95,1.27l-1.58,1.39
								C1122.39,991.9,1083.57,1003.21,1043.46,1003.21z M930.6,967.66c16.92,10.58,37.46,19.37,58.06,24.85
								c56.93,15.16,117.22,6.08,161.57-24.27c-23.16-29.75-65.11-48.18-109.99-48.21c-0.11,0-0.22,0-0.34,0
								C995.41,920.03,953.77,938.22,930.6,967.66z"/>
						</g>
					</g>
					<g>
						<g>
							<g>
								<g>
									<path style="fill:#FFBC00;" d="M1096.35,485.5c65.65-43.62,156.15-20.1,189.47,55.89L1096.35,485.5z"/>
									<path d="M1284.26,542.18c-32.02-73.83-121.75-98.85-187.02-55.17l-1.78-3.03c66.93-44.83,159.29-18.76,191.93,56.62
										L1284.26,542.18z"/>
								</g>
								<g>
									<path d="M1096.09,485.04c64.7-58.51,167.6-28.37,190.21,56.11l-0.94,0.47c-33.14-73.53-121.02-99.25-188.74-55.68
										L1096.09,485.04z"/>
								</g>
							</g>
						</g>
						<g>
							<g>
								<g>
									<path style="fill:#FFBC00;" d="M766.6,557.84c22.57-75.52,107.18-115.32,181.4-78.23L766.6,557.84z"/>
									<path d="M768.25,558.43l-3.3-1.19c22.77-77.27,110.45-116.32,183.75-79.24l-1.4,3.22
										C875.47,444.95,790.48,483.1,768.25,558.43z"/>
								</g>
								<g>
									<path d="M766.1,557.66c12.31-86.36,110.69-129.01,182.1-78.53l-0.42,0.97c-72.51-35.33-156.51,1.12-180.69,77.93
										L766.1,557.66z"/>
								</g>
							</g>
						</g>
					</g>
					<g>
						<g>
							<path style="fill:#FFBC00;" d="M819.63,819.82c57.17-5.83,94.02,34.5,93.47,82.06c-0.55,47.56-36.22,85.71-79.66,85.21
								L819.63,819.82z"/>
							<path d="M834.29,988.86c-0.29,0-0.58,0-0.87,0l0.04-3.51c42.39,0.6,77.35-36.95,77.88-83.47
								c0.27-23.48-8.95-45.51-25.28-60.44c-16.89-15.44-40.42-22.48-66.26-19.86l-0.36-3.49c26.84-2.74,51.34,4.64,68.98,20.76
								c17.08,15.6,26.71,38.59,26.43,63.07C914.3,950.05,878.24,988.85,834.29,988.86z"/>
						</g>
						<g>
							<path style="fill:#FFBC00;" d="M1246.6,818.76c-45.77,9.27-80.33,46.66-76.48,96.04c3.85,49.38,47.41,74.1,77.38,83.33
								L1246.6,818.76z"/>
							<path d="M1246.99,999.81c-17.3-5.33-74.12-27.19-78.61-84.87c-3.72-47.61,28.31-87.87,77.88-97.9l0.7,3.44
								c-47.78,9.67-78.65,48.4-75.08,94.18c4.32,55.47,59.38,76.63,76.15,81.79L1246.99,999.81z"/>
						</g>
					</g>
					<g>
						<g>
							<path style="fill:#FFBC00;" d="M1074.07,803.1c0.05,15.97-13.92,28.97-31.19,29.02s-31.32-12.86-31.37-28.83
								s13.92-28.97,31.19-29.02C1059.98,774.22,1074.02,787.12,1074.07,803.1z"/>
							<path d="M1042.78,833.87c-18.16,0-32.97-13.7-33.02-30.58c-0.05-16.92,14.73-30.72,32.94-30.78c0.04,0,0.07,0,0.11,0
								c18.16,0,32.96,13.7,33.02,30.58l0,0c0.05,16.92-14.73,30.72-32.94,30.78C1042.85,833.87,1042.81,833.87,1042.78,833.87z
								 M1042.81,776.03c-0.04,0-0.07,0-0.1,0c-16.28,0.05-29.49,12.28-29.45,27.26c0.05,14.95,13.28,27.08,29.51,27.08
								c0.04,0,0.06,0,0.09,0c16.28-0.05,29.49-12.28,29.45-27.26C1072.27,788.15,1059.05,776.03,1042.81,776.03z"/>
						</g>
						<g>
							<path style="fill:#FFE087;" d="M1055.55,784.68c-12.56,0.04-12.52,19.56,0.06,19.53
								C1068.17,804.17,1068.14,784.64,1055.55,784.68z"/>
						</g>
					</g>
				</g>
			</g>
		</g>
	</g>
</g>
</svg>
