<?xml version="1.0" encoding="iso-8859-1"?>
<!-- Generator: Adobe Illustrator 30.0.0, SVG Export Plug-In . SVG Version: 9.03 Build 0)  -->
<svg version="1.1" id="Capa_1" xmlns="http://www.w3.org/2000/svg" xmlns:xlink="http://www.w3.org/1999/xlink" x="0px" y="0px"
	 viewBox="0 0 2000 2000" style="enable-background:new 0 0 2000 2000;" xml:space="preserve">
<g>
	<g>
		<g id="XMLID_35_">
			<rect x="100.26" y="1482.5" style="fill:#00C793;" width="1799.48" height="417.5"/>
		</g>
		<g style="opacity:0.27;">
			<g style="opacity:0.27;">
				<rect x="100.26" y="1482.5" style="fill:#FFFFFF;" width="196.14" height="417.5"/>
			</g>
			<g style="opacity:0.27;">
				<rect x="807.09" y="1482.5" style="fill:#FFFFFF;" width="209.23" height="417.5"/>
			</g>
			<g style="opacity:0.27;">
				<rect x="1153.14" y="1482.5" style="fill:#FFFFFF;" width="206.61" height="417.5"/>
			</g>
			<g style="opacity:0.27;">
				<rect x="1496.57" y="1482.5" style="fill:#FFFFFF;" width="169.91" height="417.5"/>
			</g>
			<g style="opacity:0.27;">
				<rect x="1803.29" y="1482.5" style="fill:#FFFFFF;" width="96.45" height="417.5"/>
			</g>
			<g style="opacity:0.27;">
				<rect x="464.53" y="1482.5" style="fill:#FFFFFF;" width="205.75" height="417.5"/>
			</g>
		</g>
		<g>
			<g>
				<rect x="100.26" y="1524.7" style="fill:#FFFFFF;" width="1799.48" height="18.18"/>
			</g>
			<g>
				<rect x="952.94" y="1524.7" style="fill:#FFFFFF;" width="17.94" height="374.8"/>
			</g>
		</g>
	</g>
	<g>
		<g>
			<g>
				<g>
					<path style="fill:#FFFFFF;" d="M163.64,186.11c-11.31,20.22-16.87,42.12-16.99,64.53c-0.64,54.12,29.67,111.18,82.7,154.98
						c18.71,15.55,40.31,29.34,64.38,40.79c24.08,11.45,48.79,19.69,73.36,24.73c76.55,16,151.3,1.8,198.82-38.13
						c13.47-11.17,24.77-24.53,33.28-39.74c13.44-24.03,18.71-50.34,16.59-77.11c-3.72-49.92-32.89-101.25-81.21-141.51
						c-18.94-15.89-40.89-30-65.47-41.69c-24.58-11.69-49.77-20.01-74.79-25.03c-69.13-14.07-136.6-3.59-183.82,28.22
						C190.95,149.26,174.89,166,163.64,186.11z"/>
					<path d="M428.51,479.38c-20.08,0-40.82-2.14-61.77-6.52c-25.07-5.14-49.88-13.5-73.76-24.86
						c-23.88-11.36-45.67-25.16-64.75-41.02c-53.62-44.27-83.99-101.26-83.34-156.35c0.12-23.17,5.91-45.17,17.21-65.37l0,0
						c11.15-19.93,27.1-36.94,47.41-50.55c47.94-32.29,115.43-42.68,185.15-28.48c25.59,5.13,50.89,13.6,75.2,25.16
						c24.32,11.56,46.47,25.67,65.84,41.93c48.25,40.19,78.07,92.21,81.83,142.73c2.21,27.93-3.44,54.21-16.8,78.1
						c-8.51,15.22-19.85,28.76-33.69,40.24C532.05,463.76,482.72,479.38,428.51,479.38z M334.28,103.51
						c-46.58,0-89.51,11.67-122.8,34.1c-19.85,13.3-35.42,29.91-46.3,49.35l0,0c-11.01,19.67-16.65,41.1-16.77,63.68
						c-0.64,54.03,29.27,110.02,82.06,153.62c18.86,15.68,40.4,29.33,64.02,40.56c23.62,11.23,48.17,19.51,72.96,24.59
						c76.42,15.97,150.19,1.86,197.34-37.76c13.51-11.21,24.57-24.41,32.88-39.25c13.02-23.27,18.53-48.88,16.37-76.11
						c-3.69-49.57-33.06-100.7-80.59-140.3c-19.15-16.07-41.06-30.01-65.1-41.45c-24.04-11.44-49.07-19.81-74.38-24.89
						C373.73,105.54,353.68,103.51,334.28,103.51z"/>
				</g>
				<g>
					<g>
						<polygon points="303.26,324.69 394.83,368.67 473.02,333.67 459.63,254.68 368.06,210.7 289.87,245.7 						"/>
						<path d="M394.8,370.61l-93.13-44.73l-13.77-81.22l80.17-35.89l93.13,44.73l13.77,81.22L394.8,370.61z M304.84,323.5
							l90.02,43.24l76.2-34.12l-13.01-76.75l-90.02-43.24l-76.2,34.12L304.84,323.5z"/>
					</g>
					<g>
						<path d="M163.64,186.11c-11.31,20.22-16.87,42.12-16.99,64.53l7.22,3.43l78.23-35.03l-13.38-78.98l-8.22-3.91
							C190.95,149.26,174.89,166,163.64,186.11z"/>
						<path d="M153.85,256.01l-8.95-4.26l0.01-1.12c0.12-23.18,5.91-45.18,17.21-65.39c11.15-19.93,27.1-36.94,47.41-50.55
							l0.83-0.56l9.95,4.73l13.76,81.22L153.85,256.01z M148.42,249.54l5.47,2.6L230.14,218l-13-76.73l-6.49-3.09
							c-19.45,13.21-34.74,29.61-45.47,48.79l0,0C154.35,206.32,148.72,227.36,148.42,249.54z"/>
					</g>
					<g>
						<path d="M394.31,107.94l7,41.4l91.57,44.01l41.69-18.7c-18.94-15.89-40.89-30-65.47-41.69
							C444.53,121.27,419.33,112.96,394.31,107.94z"/>
						<path d="M492.87,195.29l-93.13-44.76l-7.58-44.81l2.51,0.5c25.59,5.13,50.89,13.6,75.2,25.16
							c24.32,11.56,46.47,25.67,65.84,41.93l2.15,1.8L492.87,195.29z M402.9,148.14l90.01,43.26l38.37-17.21
							c-18.63-15.31-39.79-28.64-62.93-39.65c-23.25-11.06-47.42-19.25-71.87-24.37L402.9,148.14z"/>
					</g>
					<g>
						<path d="M229.36,405.62c18.71,15.55,40.31,29.34,64.38,40.79c24.08,11.45,48.79,19.69,73.36,24.73l-6.62-39.23l-91.57-44.01
							L229.36,405.62z"/>
						<path d="M369.26,473.38l-2.51-0.51c-25.07-5.14-49.89-13.51-73.77-24.86c-23.88-11.36-45.67-25.16-64.75-41.02l-2.17-1.8
							l42.87-19.21l93.13,44.76L369.26,473.38z M232.66,406.07c18.33,14.92,39.12,27.96,61.83,38.76
							c22.82,10.85,46.51,18.95,70.45,24.07l-6.04-35.79l-90.02-43.26L232.66,406.07z"/>
					</g>
					<g>
						<path d="M542.34,349.1l13.38,78.98l10.2,4.93c13.47-11.17,24.77-24.53,33.28-39.74c13.44-24.03,18.71-50.34,16.59-77.11
							L542.34,349.1z"/>
						<path d="M566.17,435.08l-12.04-5.81l-13.76-81.21l76.96-34.52l0.2,2.49c2.22,27.94-3.44,54.22-16.8,78.1
							c-8.51,15.22-19.85,28.76-33.69,40.24L566.17,435.08z M557.3,426.89l8.36,4.04c13.11-11.05,23.88-24,32-38.52
							c12.62-22.56,18.18-47.32,16.54-73.62l-69.91,31.36L557.3,426.89z"/>
					</g>
				</g>
			</g>
			<g>
				<g>
					
						<rect x="771.63" y="305.12" transform="matrix(0.4442 -0.8959 0.8959 0.4442 19.1622 947.6566)" width="3.51" height="306.52"/>
				</g>
				<g>
					
						<rect x="691.25" y="380.91" transform="matrix(0.4448 -0.8956 0.8956 0.4448 -42.1764 885.3241)" width="3.51" height="191.54"/>
				</g>
				<g>
					
						<rect x="730.28" y="314.38" transform="matrix(0.3863 -0.9224 0.9224 0.3863 100.0035 907.5902)" width="3.51" height="128.53"/>
				</g>
			</g>
		</g>
		<g>
			<g>
				<g>
					<g>
						<path d="M972.92,1004.38c36.54-36.88,89.73,23.79,53.28,60.59c-51.56,52.04-148.88,133.58-120.55,219.45
							c11.72,35.5,53.67,55.95,84.42,72.23c50.18,26.57,104.33,44.43,158.75,60c49.95,14.29,24.43,90.82-25.42,76.56
							c-67.63-19.35-133.73-43.49-194.89-78.66c-44.94-25.84-88.45-60.9-101.8-113.43C795.74,1179.23,896.25,1081.76,972.92,1004.38
							z"/>
					</g>
					<g>
						<g>
							<path style="fill:#FFBC00;" d="M1093.5,1449.77c0,0-52.1-12.85-75.09,0.99c-13.6,8.18-8.28,30.15,7.33,31.92l48.98,5.58
								C1082,1480.03,1091.18,1463.02,1093.5,1449.77z"/>
							<path d="M1075.48,1490.12l-49.94-5.69c-8.03-0.92-14.39-6.89-16.21-15.24c-1.75-8.07,1.45-15.89,8.17-19.93
								c23.34-14.05,74.26-1.72,76.42-1.19l1.66,0.41C1092.43,1464.09,1086.07,1477.25,1075.48,1490.12z M1049.66,1446.11
								c-11.39,0-22.63,1.51-30.34,6.16c-6.56,3.95-7.68,10.94-6.55,16.18c1.49,6.85,6.66,11.75,13.17,12.49l48.01,5.47
								c5.8-6.5,15.08-22.92,17.45-35.32C1085.87,1449.86,1067.57,1446.11,1049.66,1446.11z"/>
						</g>
						<g>
							<path style="fill:#A57AEF;" d="M1199.66,1416.26c17.92,29.84,5.24,237.12-11.46,255.22c-43.18,21.76-59.28-83.96-61.38-94.54
								c0,0-11.29-56.82-53.81-89.32c0,0,38.37-34.45,9.19-88.01c-1.18-2.14,69.84-9.57,103.65,3.13
								C1192.02,1405.05,1196.43,1410.21,1199.66,1416.26z"/>
							<path d="M1176.85,1676.18c-68.04-22.23-22.49-123.56-106.58-188.45c2.55-2.59,9.6-7.75,16.7-24.82
								c7.62-19.77,5.5-40.79-6.31-62.47l-0.58-1.07l0.83-1.07c3.5-4.05,73.82-9.13,105.56,2.79c5.88,2.21,10.84,7.03,14.74,14.34
								l0,0C1214.92,1438.09,1217.58,1680.07,1176.85,1676.18z M1075.67,1487.46c42.91,36.09,52.52,87,53.42,92.04
								c15.55,71.34,26.7,100.29,58.32,90.43c14.03-3.19,28.25-241.35,10.71-252.83l0,0c-19.09-31.91-101.49-16.87-113.47-16.64
								C1109.24,1447.53,1082.44,1480.28,1075.67,1487.46z M1083.75,1398.76c0,0,0,0.01,0,0.01
								C1083.75,1398.77,1083.75,1398.77,1083.75,1398.76z"/>
						</g>
						<g>
							<path style="fill:#FFBC00;" d="M1139.96,1425.23c-21.74-1.57-36.9-13.77-51.08-27.27c19.4-2.77,75.31-5.08,100.85,7.57
								C1189.16,1406.12,1169.58,1427.37,1139.96,1425.23z"/>
							<path d="M1144.11,1427.14c-1.4,0-2.83-0.05-4.29-0.15c-24.6-1.9-40.4-16.49-54.79-30.26c21.18-3.06,78.48-6.77,107.61,8.29
								C1188.17,1409.29,1173.31,1426.38,1144.11,1427.14z M1140.08,1423.48c23.89,1.72,41.07-12.22,46.61-17.42
								c-23.41-10.06-70.66-9.54-93.9-6.84C1105.43,1411.01,1119.72,1422.01,1140.08,1423.48z"/>
						</g>
						<g>
							<path style="fill:#FFBC00;" d="M1126.16,1483.33c23.27,44.29,30.42,99.9,15.87,147.89c-23.01-49.37-1.22-78.73-69.01-143.61
								c0,0,14.5-13.06,18.89-35.57C1106.59,1459.22,1118.04,1470.13,1126.16,1483.33z"/>
							<path d="M1142.11,1636.24c-25.31-52.74-2.47-84.21-71.84-148.5c1.03-0.32,17.38-16.65,20.34-38.26
								c15.41,7.12,28,18.17,37.03,32.94l0,0C1151,1524.17,1159.27,1590.73,1142.11,1636.24z M1075.68,1487.47
								c65.03,64.52,45.1,89.33,66.25,138.6c12.12-42.24,4.31-104.05-17.28-141.81l0,0c-7.9-12.85-18.49-22.8-31.51-29.6
								C1089.14,1472.16,1079.43,1483.58,1075.68,1487.47z"/>
						</g>
						<g>
							<path d="M1207.89,1440.33c17.03,3.38,21.7,20.99,1.12,17.29L1207.89,1440.33z"/>
							<path d="M1213.77,1459.86c-1.96,0.02-4.33-0.33-6.43-0.76l-1.37-21.08l2.35,0.61l-0.44,1.7l0.48-1.69
								C1222.17,1440.38,1233.82,1459.15,1213.77,1459.86z M1210.67,1456.11c16.44,2.16,10.59-10.43-0.87-13.41L1210.67,1456.11z"/>
						</g>
						<g>
							<path d="M1207.75,1432.63c23.06-0.2,9.42-18.41-7.04-17.05C1200.71,1415.58,1203.96,1420.62,1207.75,1432.63z"/>
							<path d="M1208.35,1434.39c-0.44,0-1.45-0.02-1.9-0.03c-4.45-13.89-6.45-16.59-8.92-20.49
								C1214.69,1410.2,1236.74,1432.14,1208.35,1434.39z M1203.74,1417.47c1.27,2.55,3.18,6.9,5.29,13.39
								C1226.9,1429.94,1215.1,1417.62,1203.74,1417.47z"/>
						</g>
						<g>
							<path d="M1205.89,1583.35c22.47,0.12,22.38,19.86-0.81,16.33L1205.89,1583.35z"/>
							<path d="M1209.45,1601.78c-2.01,0-4.25-0.14-6.19-0.75l0.97-19.48C1223.49,1579.61,1236.17,1600.77,1209.45,1601.78z
								 M1206.92,1598.15c20.43,1.54,16.51-12.43,0.64-12.96L1206.92,1598.15z"/>
						</g>
						<g>
							<path d="M1204.14,1611.58c21.67,1.03,20.46,19.21-1.38,16.37L1204.14,1611.58z"/>
							<path d="M1206.56,1629.93c-1.73,0.02-3.92-0.22-5.69-0.41l1.65-19.62C1221.64,1608.15,1232.07,1629.43,1206.56,1629.93z
								 M1204.65,1626.35c19.01,1.07,16.12-11.77,1.09-12.9L1204.65,1626.35z"/>
						</g>
						<g>
							<path d="M1200.26,1640.12c24.94,0.04,16.59,19.26-3.73,16.33L1200.26,1640.12z"/>
							<path d="M1199.49,1658.38c-1.85,0.02-3.42-0.21-5.11-0.43l4.48-19.56C1221.42,1636.37,1225.6,1658.24,1199.49,1658.38z
								 M1198.7,1654.85c18.8,0.48,20.79-12.55,2.96-12.96L1198.7,1654.85z"/>
						</g>
						<g>
							
								<rect x="1100.28" y="1509.69" transform="matrix(0.6591 -0.752 0.752 0.6591 -752.6724 1362.3613)" width="52.41" height="3.51"/>
						</g>
						<g>
							
								<rect x="1114.49" y="1541.79" transform="matrix(0.6766 -0.7363 0.7363 0.6766 -768.0187 1338.3025)" width="50.33" height="3.51"/>
						</g>
						<g>
							
								<rect x="1122.94" y="1573.17" transform="matrix(0.7091 -0.7052 0.7052 0.7091 -776.5278 1267.8239)" width="50.37" height="3.51"/>
						</g>
					</g>
				</g>
				<g>
					<g>
						<path d="M1308.84,1121.79c23.52-46.28,92.71-4.77,69.24,41.41c-33.19,65.3-100.94,172.69-47.71,245.8
							c22.01,30.22,68.2,36.87,102.46,42.98c55.89,9.96,112.92,10.42,169.49,8.61c51.93-1.66,51.02,79.01-0.8,80.66
							c-114.46-2.42-264.82,9.69-341.2-92.24C1193.58,1342.42,1259.49,1218.89,1308.84,1121.79z"/>
					</g>
					<g>
						<g>
							<path style="fill:#FFBC00;" d="M1559.77,1509.01c0,0-53.53,3.68-71.2,23.89c-10.45,11.95,1.33,31.23,16.73,28.16l48.35-9.66
								C1558.07,1541.34,1561.61,1522.33,1559.77,1509.01z"/>
							<path d="M1502.05,1563.14c-14.98,0.64-25.49-20.22-14.8-31.4c19.64-21.06,69.84-24.3,74.1-24.6
								c1.76,15.82-0.25,30.31-6.41,45.8C1553.56,1553.03,1501.87,1563.96,1502.05,1563.14z M1558.18,1510.91
								c-8.49,1.07-83.85,8.08-69.57,40.55c3.51,6.06,9.91,9.15,16.36,7.87l47.39-9.47
								C1555.9,1541.91,1559.72,1523.44,1558.18,1510.91z"/>
						</g>
						<g>
							<path style="fill:#A57AEF;" d="M1650.61,1444.66c26.18,22.94,77.46,224.18,67.09,246.51c-34.46,33.91-82.1-61.83-87.33-71.26
								c0,0-28.11-50.66-78.53-68.6c0,0,26-44.52-18.15-86.61C1531.6,1464.9,1623.8,1417.48,1650.61,1444.66z"/>
							<path d="M1701.56,1700.18c-63.93-11.73-55.51-111.06-152.31-147.92c14.97-20.93,9.02-67.21-17.65-87.12
								c1.58-5.2,93.58-48.82,120.24-21.74l0,0C1669.23,1454.73,1756.92,1709.89,1701.56,1700.18z M1631.9,1619.06
								c35.78,62.28,56.15,90.76,84.56,70.87c12.39-7.31-46.87-238.44-67.07-244.01l0,0c-27.95-24.56-101.81,14.95-113.12,18.83
								c37.82,37.32,22.3,76.7,18.04,85.59c45.64,17.18,74.34,61.96,77.52,68.76L1631.9,1619.06z"/>
						</g>
						<g>
							<path style="fill:#FFBC00;" d="M1596.5,1471.45c-21.18,5.15-39.34-1.83-56.97-10.36c17.63-8.57,70.15-27.85,98.34-23.61
								C1637.51,1438.22,1625.37,1464.43,1596.5,1471.45z"/>
							<path d="M1582.02,1474.95c-17.7-0.06-32.49-7.02-46.52-13.85c19.23-9.39,72.66-30.43,104.99-25
								c-3.01,5.51-13.09,28.83-43.57,37.06C1591.8,1474.4,1586.83,1474.95,1582.02,1474.95z M1543.64,1461.11
								c15.65,7.35,32.62,13.46,52.45,8.63c23.22-5.65,35.37-24.18,39.05-30.83C1609.74,1436.48,1564.95,1451.43,1543.64,1461.11z"
								/>
						</g>
						<g>
							<path style="fill:#FFBC00;" d="M1601.12,1530.99c35.69,35.06,59.5,85.82,60.31,135.97
								c-36.99-39.97-25.23-74.59-109.59-115.65c0,0,9.82-16.86,7.11-39.64C1575.12,1514.02,1589.36,1520.9,1601.12,1530.99z"/>
							<path d="M1663.04,1671.7c-40.21-42.46-28.09-79.44-113.79-119.44c0.88-0.61,11.48-21.16,7.68-42.65
								c16.85,2.07,32.21,8.75,45.33,20.05l0,0C1637.25,1562.28,1665.47,1623.11,1663.04,1671.7z M1554.32,1550.35
								c81.64,41.55,70.26,71.28,105.44,111.72c-1.37-43.94-27.69-100.38-59.79-129.75l0,0c-11.45-9.82-24.57-16.06-39.05-18.55
								C1562.46,1531.67,1556.7,1545.51,1554.32,1550.35z"/>
						</g>
						<g>
							<path d="M1665.8,1465.07c17.24-1.99,27.07,13.36,6.35,16.12L1665.8,1465.07z"/>
							<path d="M1671.01,1483.1l-7.74-19.65l2.43-0.14l0.1,1.75l-0.09-1.76C1685.08,1460.68,1696.02,1480.55,1671.01,1483.1z
								 M1668.34,1466.75l4.93,12.5C1689.59,1476.27,1680.16,1466.08,1668.34,1466.75z"/>
						</g>
						<g>
							<path d="M1663.31,1457.78c21.89-7.24,3.34-20.41-11.92-14.08C1651.4,1443.69,1656.04,1447.5,1663.31,1457.78z"/>
							<path d="M1662.61,1459.82c-8.48-11.87-11.21-13.82-14.76-16.78C1664.88,1433.61,1691.03,1450.37,1662.61,1459.82z
								 M1654.86,1444.57c1.98,2.05,5.14,5.6,9.13,11.13C1680.72,1449.37,1665.73,1441.24,1654.86,1444.57z"/>
						</g>
						<g>
							<path d="M1707.61,1601.86c21.43-6.75,27.38,12.07,4.22,15.79L1707.61,1601.86z"/>
							<path d="M1710.5,1619.49l-5.04-18.84l1.66-0.48l0.48,1.69l-0.45-1.7C1731.46,1592.25,1737.93,1616.59,1710.5,1619.49z
								 M1709.76,1603.09l3.35,12.54C1733.04,1610.86,1725.03,1598.76,1709.76,1603.09z"/>
						</g>
						<g>
							<path d="M1714.56,1629.27c20.95-5.64,25.35,12.04,3.69,16.02L1714.56,1629.27z"/>
							<path d="M1717.45,1647.26c-0.83,0.21-4.7-18.35-4.94-19.09C1735.23,1619.71,1745.01,1642.51,1717.45,1647.26z
								 M1716.67,1630.57l2.91,12.61C1737.95,1638.42,1731.35,1627.04,1716.67,1630.57z"/>
						</g>
						<g>
							<path d="M1719.6,1657.63c23.76-7.59,21.68,13.27,1.44,16.69L1719.6,1657.63z"/>
							<path d="M1719.45,1676.4l-1.72-19.99C1744.5,1646.45,1745.66,1672.99,1719.45,1676.4z M1721.47,1658.89l1.14,13.25
								C1740.54,1667.19,1738.16,1653.63,1721.47,1658.89z"/>
						</g>
						<g>
							
								<rect x="1583.83" y="1555.98" transform="matrix(0.3974 -0.9176 0.9176 0.3974 -459.2582 2416.0942)" width="52.41" height="3.51"/>
						</g>
						<g>
							
								<rect x="1607.36" y="1582.47" transform="matrix(0.4197 -0.9077 0.9077 0.4197 -490.5708 2401.1472)" width="50.34" height="3.52"/>
						</g>
						<g>
							
								<rect x="1624.69" y="1609.79" transform="matrix(0.4596 -0.8881 0.8881 0.4596 -539.6738 2336.1477)" width="50.37" height="3.52"/>
						</g>
					</g>
				</g>
			</g>
			<g>
				<g>
					<g>
						<path style="fill:#FF4568;" d="M1762.86,1013.11c-129.74,253.01-409.15,280.44-676.71,184.21
							c-305.16-109.74-369.27-401.03-239.53-654.05s440.02-352.94,693.04-223.2C1792.67,449.81,1892.6,760.1,1762.86,1013.11z"/>
						<path d="M1357.48,1250.36c-84.96,0-177.07-17.28-271.93-51.39c-134.61-48.41-229.75-134.78-275.13-249.78
							c-48.07-121.82-35.45-270.06,34.63-406.72c129.98-253.47,441.93-353.94,695.4-223.96s353.94,441.93,223.96,695.4
							c-61.52,119.96-158.36,195.32-287.86,223.98C1438.94,1246.23,1399.06,1250.36,1357.48,1250.36z M1305.58,265.17
							c-186.49,0-366.62,101.87-457.4,278.91c-69.62,135.77-82.19,282.96-34.49,403.83c45,114.03,139.42,199.7,273.04,247.76
							c140.65,50.58,275.2,64,389.06,38.8c128.42-28.42,224.47-103.17,285.49-222.15l1.56,0.8l-1.56-0.8
							c129.09-251.75,29.3-561.58-222.44-690.67C1464.15,283.33,1384.28,265.17,1305.58,265.17z"/>
					</g>
					<g>
						<path style="fill:#00C793;" d="M1432.01,258.9c296,40.64,326.73,229.97,326.73,229.97
							c-254.42,16.59-294.15-156.78-294.15-156.78c23.33,159.9-158.94,191.88-158.94,191.88c-113.38-98.06-7.07-215.23-7.07-215.23
							c-99.97,107.61-335.12,40.68-335.12,40.68c176.53-224.64,396.87-103.32,396.87-103.32l20.18-97.11l71.69,23.01L1432.01,258.9z
							"/>
						<path d="M1305.12,525.84l-0.63-0.55c-32.76-28.33-50.48-61.03-52.67-97.18c-2.65-43.76,18.44-82.77,32.79-103.91
							c-106.34,86.76-319.39,27.54-321.64,26.9l-2.52-0.72l1.62-2.06c91.64-116.62,195.29-138.61,266.07-136.57
							c68.35,1.99,120.1,26.24,130.94,31.71l20.11-96.76l75.08,24.1l-20.11,86.59c84.53,11.85,199.89,44.15,273.56,130.56
							c44.49,52.18,52.68,100.13,52.76,100.61l0.31,1.91l-1.93,0.13c-72.91,4.75-174.38-3.99-243.84-72.67
							c-26.58-26.28-40.44-53.68-47.01-70.16c4.72,73.79-36.41,117.55-73.18,141.68c-42.46,27.86-88.42,36.16-88.88,36.24
							L1305.12,525.84z M1297.27,307.54l2.59,2.38c-0.48,0.54-48.42,54.2-44.54,118.01c2.12,34.93,19.22,66.6,50.82,94.15
							c6.31-1.24,48.06-10.15,86.84-35.62c55.92-36.73,79.42-88.58,69.86-154.13l3.45-0.65c0.1,0.43,10.36,43.46,51.33,83.9
							c67.9,67.01,167.04,76.05,238.99,71.65c-2-9.34-12.8-51.56-51.74-97.16c-73.51-86.09-189.1-117.91-273.12-129.45l-1.91-0.26
							l20.26-87.19l-68.29-21.92l-20.27,97.53l-2.08-1.15c-0.55-0.3-55.72-30.19-131.59-32.37
							c-69.41-1.98-171.12,19.56-261.4,133.14C992.22,355.18,1204.75,407.15,1297.27,307.54z"/>
					</g>
				</g>
				<g>
					<g>
						<g>
							<g>
								<path style="fill:#FFBC00;" d="M1326.01,829.3c34.19-3.92,75.69-0.05,118.41,12.71c6.47,1.89,12.74,3.94,18.82,6.25
									c31.48,11.17,59.06,26.04,80.59,42.56c17.81-29.48,32.62-64.78,42.55-103.79c3.78-15.09,6.65-29.89,8.6-44.5
									c5.44-38.86,4.7-75.73-1.48-107.43c-10.45-54.27-36.6-93.56-74.57-103.13c-1.05-0.27-2.02-0.44-3.08-0.62
									c-47.63-9.76-100.55,29.29-138.57,95.4c-0.1,0.08-0.19,0.16-0.2,0.25c-15.25,26.74-28.29,58.06-37.28,92.32
									c-0.51,1.75-1.02,3.58-1.44,5.43C1329.01,761.13,1325.18,796.81,1326.01,829.3z"/>
								<path d="M1544.32,893.41l-1.56-1.19c-22.01-16.88-49.71-31.51-80.11-42.3c-5.78-2.19-11.9-4.22-18.73-6.22
									c-40.8-12.18-82.61-16.67-117.71-12.65l-1.91,0.22l-0.05-1.92c-0.87-33.79,3.42-70.11,12.4-105.04
									c0.42-1.83,0.94-3.7,1.46-5.49c8.56-32.63,21.44-64.57,37.25-92.36l0.03-0.35l0.49-0.47
									c39.66-68.85,93.38-105.65,140.33-96.03c1.05,0.18,2.06,0.36,3.16,0.64c37.22,9.38,64.88,47.47,75.86,104.5
									c6.32,32.42,6.85,69.77,1.49,108c-1.95,14.58-4.85,29.61-8.63,44.69c-9.64,37.88-24.42,73.94-42.75,104.27L1544.32,893.41z
									 M1352.41,826.1c29.17,0,61.15,4.86,92.51,14.22c6.91,2.02,13.11,4.08,18.95,6.29c29.98,10.64,57.43,25.02,79.47,41.61
									c17.68-29.69,31.97-64.79,41.34-101.64c3.75-14.94,6.63-29.85,8.56-44.3c5.3-37.87,4.79-74.81-1.46-106.86
									c-10.72-55.64-37.43-92.73-73.27-101.76c-1.01-0.26-1.93-0.42-2.94-0.59c-45.47-9.33-97.86,26.91-136.76,94.54l-0.26,0.36
									c-15.72,27.58-28.53,59.32-37.04,91.79c-0.51,1.76-1.01,3.57-1.43,5.38c-8.74,34-12.99,69.28-12.34,102.2
									C1335.66,826.52,1343.92,826.1,1352.41,826.1z"/>
							</g>
							<g>
								<g>
									<path d="M1593.84,636.84l-0.66-3.45c36.66-6.98,44.78-48.88,44.86-49.3l3.46,0.63
										C1641.42,585.17,1632.89,629.4,1593.84,636.84z"/>
								</g>
								<g>
									<path d="M1607.57,680.92c-2.44,0-4.97-0.17-7.57-0.51l0.47-3.48c40.51,5.46,60.15-37.01,60.35-37.44l3.2,1.45
										C1663.82,641.36,1645.45,680.92,1607.57,680.92z"/>
								</g>
								<g>
									<path d="M1602.36,744.7c-2.43,0-4.94-0.14-7.54-0.44l0.4-3.49c40.61,4.61,60.3-31.67,60.49-32.04l3.11,1.63
										C1658.64,710.72,1640.37,744.7,1602.36,744.7z"/>
								</g>
							</g>
							<g>
								<path d="M1377.08,626.99c0.01-0.09,0.11-0.17,0.2-0.25c38.02-66.11,90.94-105.16,138.57-95.4
									c20.48,29.95,28.86,71.77,19.84,114.89c-4.47,21.3-12.8,40.5-23.7,56.91l-55.07-32.92l29.02,62.55
									c-25.28,21.53-56.63,31.77-87.7,25.26c-23.76-4.97-43.8-19.02-58.44-38.71C1348.78,685.06,1361.82,653.74,1377.08,626.99z"
									/>
								<path d="M1417.12,761.75c-6.43,0-12.86-0.66-19.25-2c-23.4-4.89-43.97-18.51-59.49-39.38l-0.5-0.68l0.21-0.82
									c8.57-32.67,21.45-64.61,37.26-92.4l0.03-0.35l0.49-0.47c39.66-68.85,93.38-105.65,140.33-96.03l0.7,0.14l0.4,0.59
									c21.62,31.61,28.95,73.98,20.1,116.24c-4.37,20.81-12.42,40.16-23.95,57.52l-0.93,1.39l-51.62-30.86l27.19,58.59l-1.02,0.87
									C1465.77,752.26,1441.49,761.75,1417.12,761.75z M1341.71,718.94c14.93,19.79,34.58,32.71,56.88,37.37
									c29.1,6.1,59.31-2.43,85.18-24.02l-30.86-66.51l58.53,34.99c10.79-16.62,18.37-35.08,22.52-54.89
									c8.6-41.07,1.61-82.19-19.17-112.95c-45.27-8.81-97.31,27.41-136,94.69l-0.26,0.36
									C1362.96,655.33,1350.23,686.76,1341.71,718.94z"/>
							</g>
							<g>
								<path style="fill:#FFFFFF;" d="M1390.23,627.8c55.24,29.67,32.85,32.85,18.57,100.15c30.91-61.47,20.41-74.21,82.08-62.85
									c-55.24-29.67-39.53-31.78-25.26-99.08C1434.71,627.48,1451.89,639.15,1390.23,627.8z"/>
							</g>
						</g>
						<g>
							<g>
								<path style="fill:#FFBC00;" d="M922.94,713.25c0,0.4-0.1,0.78,0.01,1.11c-0.07,0.29-0.05,0.59-0.04,0.9
									c-0.08,1.09-0.07,2.2-0.06,3.31c5.1-0.58,10.23-0.95,15.63-1.16c2.87-0.16,5.83-0.29,8.86-0.31l0.1,0.02
									c26.41-0.36,55.66,3.15,85.7,10.9c11.92,3.01,23.38,6.62,34.32,10.68c1.56,0.61,3.04,1.1,4.5,1.68
									c26.94,10.37,50.47,23.38,69.2,37.75c17.45-27.41,32.62-59.96,43.44-95.95c36.95-122.06,12.1-237.68-55.44-258.26
									c-37.46-11.41-80.18,8.9-117.02,49.9c0,0-0.02,0.1-0.12,0.07c-5.56,6.21-10.98,13.06-16.19,20.28
									c-0.5,0.77-1.08,1.43-1.58,2.21c-0.77,1.01-1.54,2.02-2.3,3.03c-0.94,1.27-1.9,2.63-2.86,3.99
									c-1.56,2.11-3.03,4.25-4.42,6.51c-1.97,2.92-3.85,5.85-5.66,8.91c-1.93,3.13-3.76,6.28-5.5,9.45
									c-4.82,8.42-9.39,17.41-13.68,26.88c-1.41,3.06-2.83,6.22-4.17,9.4c-0.14,0.17-0.19,0.36-0.24,0.54
									c-1.85,4.36-3.72,8.81-5.42,13.41c-1.21,3.11-2.36,6.34-3.51,9.57c-0.83,2.41-1.66,4.81-2.49,7.22
									c-0.27,0.64-0.42,1.2-0.68,1.84c-1.19,3.42-2.35,7.05-3.38,10.61C928.85,644.3,923.38,680.29,922.94,713.25z"/>
								<path d="M1141.62,780.71l-1.52-1.17c-18.89-14.49-42.67-27.46-68.77-37.5c-0.77-0.31-1.54-0.59-2.31-0.87
									c-0.73-0.26-1.45-0.53-2.2-0.82c-11.08-4.12-22.56-7.7-34.11-10.62c-28.92-7.46-58.44-11.2-85.25-10.85l-0.23,0l-0.22-0.06
									c-2.66,0.05-5.59,0.18-8.43,0.33c-5.5,0.2-10.57,0.58-15.53,1.15l-1.94,0.22l-0.02-1.95c-0.01-1.24-0.02-2.36,0.06-3.46
									c-0.02-0.1-0.04-0.38,0-0.74c-0.05-0.36-0.02-0.68,0-0.92l0.02-0.25c0.46-33.99,6.36-70.63,17.06-105.98
									c1.07-3.7,2.22-7.3,3.4-10.68c0.15-0.38,0.24-0.64,0.33-0.9c0.12-0.35,0.24-0.69,0.39-1.05l2.44-7.1
									c1.16-3.26,2.31-6.51,3.54-9.64c1.7-4.57,3.54-8.97,5.44-13.45c-0.01-0.02,0.07-0.35,0.32-0.73
									c1.32-3.13,2.73-6.24,4.11-9.26c4.33-9.55,8.95-18.65,13.75-27.02c1.7-3.1,3.56-6.31,5.53-9.5c1.72-2.92,3.59-5.86,5.7-8.97
									c1.32-2.14,2.8-4.31,4.47-6.57c0.95-1.34,1.92-2.71,2.86-3.99l2.32-3.05c0.2-0.32,0.49-0.71,0.79-1.1
									c0.25-0.32,0.49-0.65,0.72-1c5.53-7.65,11.01-14.52,16.35-20.49l0.72-0.81l0.05,0.01c38.65-42.69,81.69-60.79,118.19-49.69
									c68.38,20.84,93.78,137.67,56.61,260.45c-10.37,34.51-25.46,67.85-43.63,96.39L1141.62,780.71z M951.03,715.35
									c26.17,0,54.62,3.78,82.54,10.98c11.66,2.95,23.27,6.56,34.5,10.74c0.75,0.29,1.45,0.55,2.15,0.8
									c0.81,0.29,1.6,0.58,2.39,0.9c25.69,9.88,49.19,22.6,68.09,36.83c17.54-27.91,32.12-60.34,42.21-93.9
									c36.6-120.93,12.26-235.8-54.27-256.07c-35.25-10.74-77.13,7.15-114.91,49.07l-0.07,0.29l-0.57,0.37
									c-5.18,5.81-10.51,12.5-15.83,19.86c-0.23,0.35-0.52,0.74-0.81,1.13c-0.25,0.33-0.5,0.65-0.73,1.01l-2.38,3.14
									c-0.91,1.23-1.86,2.58-2.82,3.94c-1.63,2.21-3.05,4.3-4.37,6.42c-2.1,3.11-3.93,6-5.63,8.88c-1.95,3.17-3.79,6.32-5.47,9.4
									c-4.76,8.31-9.34,17.31-13.62,26.77c-1.4,3.05-2.82,6.19-4.15,9.35l-0.3,0.48c-1.83,4.51-3.65,8.87-5.33,13.4
									c-1.22,3.12-2.36,6.34-3.5,9.55l-2.49,7.2c-0.17,0.4-0.26,0.67-0.35,0.94c-0.11,0.33-0.23,0.66-0.37,1.01
									c-1.11,3.17-2.26,6.81-3.31,10.42c-10.61,35.05-16.46,71.36-16.91,105.03c0,0.17-0.01,0.34-0.03,0.5l0.18,0.51l-0.2,0.53
									c-0.01,0.08,0.01,0.21,0.02,0.33c-0.04,0.52-0.05,1.01-0.06,1.47c4.43-0.46,8.97-0.77,13.81-0.95
									c2.86-0.16,5.86-0.3,8.91-0.31l0.22,0l0.09,0.02C948.77,715.36,949.9,715.35,951.03,715.35z"/>
							</g>
							<g>
								<g>
									<path d="M1010.85,475.18c-29.64-26.5-14.15-68.8-13.99-69.22l3.29,1.24c-0.15,0.4-14.78,40.49,13.04,65.36L1010.85,475.18z
										"/>
								</g>
								<g>
									<path d="M983.12,509.34c-39.84-17.21-34.58-66.32-34.52-66.81l3.49,0.4c-0.06,0.47-5,47.01,32.42,63.18L983.12,509.34z"/>
								</g>
								<g>
									<path d="M954.65,566.73c-39.5-18.02-37.41-61.59-37.38-62.03l3.51,0.2c-0.02,0.42-1.94,41.63,35.33,58.63L954.65,566.73z"
										/>
								</g>
							</g>
							<g>
								<path d="M985.47,512.08c0.01-0.09,0.11-0.16,0.21-0.24c42.06-63.62,97.31-99.3,144.24-86.59
									c18.58,31.16,24.34,73.42,12.65,115.9c-5.79,20.98-15.29,39.62-27.19,55.32l-51.83-33.21l23.98,61.17
									c-26.57,19.92-58.5,28.18-89.11,19.76c-23.41-6.43-42.53-21.71-55.92-42.27C953.63,568.27,968.59,537.82,985.47,512.08z"/>
								<path d="M1022.92,649.25c-8.39,0-16.74-1.12-24.95-3.38c-23.05-6.34-42.74-21.21-56.92-43.01l-0.46-0.71l0.26-0.8
									c10.59-32.08,25.43-63.16,42.94-89.92l0.05-0.33l0.51-0.43c43.88-66.26,99.8-99.63,146.04-87.12l0.69,0.19l0.36,0.61
									c19.61,32.89,24.29,75.64,12.84,117.27c-5.65,20.5-14.9,39.31-27.48,55.92l-0.98,1.3l-48.63-31.17l22.49,57.37l-1.07,0.8
									C1067.99,641.28,1045.34,649.25,1022.92,649.25z M944.46,601.65c13.67,20.68,32.48,34.79,54.45,40.83
									c28.67,7.89,59.35,1.27,86.51-18.67l-25.47-64.96l55.02,35.26c11.82-15.93,20.53-33.89,25.92-53.43
									c11.13-40.46,6.72-81.93-12.1-113.92c-44.65-11.6-98.82,21.3-141.63,86.05l-0.28,0.34
									C969.62,539.48,954.96,570.07,944.46,601.65z"/>
							</g>
							<g>
								<path style="fill:#FFFFFF;" d="M1001.95,506.25c52.64,34.06,30.07,35.41,10.36,101.33c35.81-58.75,26.38-72.3,86.92-55.97
									c-52.64-34.06-36.82-34.89-17.11-100.81C1046.31,509.55,1062.48,522.58,1001.95,506.25z"/>
							</g>
						</g>
					</g>
					<g>
						<path style="fill:#FF6DCE;" d="M1266.47,799.14c-9.9,17.83-32.37,24.26-50.2,14.37c-17.83-9.9-24.26-32.37-14.36-50.2
							c9.9-17.83,32.37-24.26,50.2-14.36C1269.93,758.84,1276.36,781.31,1266.47,799.14z"/>
						<path d="M1234.12,819.89c-6.35,0-12.78-1.56-18.7-4.85c-9.03-5.01-15.58-13.24-18.42-23.17c-2.84-9.93-1.64-20.37,3.37-29.41
							c10.36-18.65,33.95-25.4,52.59-15.05c9.03,5.01,15.58,13.24,18.42,23.17s1.64,20.37-3.37,29.41l0,0
							C1260.94,812.71,1247.72,819.89,1234.12,819.89z M1234.24,746.07c-12.37,0-24.39,6.53-30.8,18.09
							c-4.56,8.21-5.64,17.71-3.06,26.74c2.58,9.03,8.53,16.51,16.74,21.07c16.95,9.4,38.4,3.27,47.81-13.68
							c4.56-8.21,5.64-17.71,3.06-26.74s-8.53-16.51-16.74-21.07C1245.85,747.49,1240.01,746.07,1234.24,746.07z"/>
					</g>
					<g>
						<g id="XMLID_281_">
							<path style="fill:#FFFFFF;" d="M1229.96,851.34c64.47,19.38,118.36,0.26,177.87,17.27c33.4,9.55,63.89,25.42,55.29,62.8
								c-15.77,68.47-79.71,101.36-150.15,113.44c-90.98,15.6-188.51-5.09-256.6-65.55c-82.36-73.14-105.91-154.93-82.52-191.64
								c20.72-32.52,49.17-32.32,82.41-22.24C1115.45,783.38,1170.96,833.6,1229.96,851.34z"/>
							<path d="M1254.28,1051.63c-75.67,0-147.28-25.01-199.08-71.01c-82.5-73.26-106.9-156.12-82.83-193.9
								c22.86-35.87,55.49-31.74,84.4-22.97c29.76,9.03,58.96,26.36,87.19,43.13c28.11,16.69,57.17,33.96,86.51,42.77
								c33.02,9.93,63.55,9.66,93.08,9.43c28.66-0.24,55.73-0.46,84.77,7.84c60.09,17.18,61.03,45.26,56.51,64.89
								c-9.71,42.17-43.9,96.32-151.56,114.78C1293.52,1049.97,1273.75,1051.63,1254.28,1051.63z M1022.43,761.13
								c-17.43,0-33.84,6.67-47.1,27.48c-23.28,36.53,1.11,117.36,82.2,189.38c64.34,57.14,159.72,81.49,255.14,65.14
								c105.76-18.14,139.26-70.97,148.73-112.1c8.67-37.64-24.34-52.22-54.06-60.72c-28.54-8.16-55.35-7.93-83.77-7.7
								c-29.77,0.25-60.58,0.51-94.11-9.57c-29.75-8.94-59-26.32-87.29-43.12c-28.05-16.66-57.06-33.89-86.42-42.79
								C1044.58,763.73,1033.31,761.13,1022.43,761.13z"/>
						</g>
						<g>
							<path d="M1021.1,945.08c-0.84-72.41,32.85-133.44,61.27-171.89l2.83,2.09c-28.09,38.01-61.41,98.32-60.58,169.76
								L1021.1,945.08z"/>
						</g>
						<g>
							<path d="M1137.76,1024.86l-3.51-0.07c0.67-34.97,6.33-69.62,16.85-103c9.31-29.54,22.39-57.98,38.88-84.52l2.99,1.86
								c-16.34,26.29-29.3,54.45-38.52,83.72C1144.03,955.91,1138.42,990.23,1137.76,1024.86z"/>
						</g>
						<g>
							<path d="M1280.87,1047.97c-0.66-18.84-0.39-56.24,8.88-95.14c7.78-32.64,20.33-64.04,37.3-93.33l3.04,1.76
								c-16.8,29-29.22,60.09-36.92,92.39c-9.17,38.49-9.44,75.54-8.79,94.2L1280.87,1047.97z"/>
						</g>
					</g>
				</g>
			</g>
			<g>
				<g>
					<g>
						<path d="M784.99,833.1c-12.56,0.96-25.15,0.35-37.32-1.64c-33.88-5.59-63.47-24.19-91.91-42.49
							c-29.17-18.79-56.5-40.27-85.17-59.75c-32.84-22.39-0.38-75.18,32.69-52.63c23.27,15.81,45.59,32.92,68.79,48.85
							c22.16,15.2,45.82,32.5,71.39,41.34c12.59,4.36,26.68,6.16,40.19,4.56C782.69,792.11,783.15,812.74,784.99,833.1z"/>
					</g>
					<g>
						<g>
							<path style="fill:#FFFFFF;" d="M570.86,580.47c-0.27-0.02-1.66-7.41-6.34-13.8c-7.04-9.61-21.29-19.8-32.45-24.33
								c-9.74-3.95-20.72-4.2-29.86,1.83c-10.1,6.67-11.44,20.17-5.74,30.27c-1.07-0.58-2.67-1.32-4.7-1.91
								c-1.3-0.37-2.24-0.52-2.5-0.55c-3.65-0.43-7.38-0.33-10.98,0.41c-8.4,1.75-15.2,7.71-18.72,15.44
								c-4.01,8.81-2.8,18.16-1.31,27.41c-0.26,0.04-3.09,0.26-3.35,0.29c-17.68,2.55-27.61,19.31-24.45,36.88
								c7.56,41.99,58.82,52.07,58.82,52.07c10.31,62,62.16,40.22,62.16,40.22c14.71,34.77,49.05,20.11,88.11-32.19
								c39.06-52.3-16.51-54.52-16.51-54.52C658.68,584.92,586.47,581.34,570.86,580.47z"/>
							<path d="M574.86,765.37c-1,0-1.99-0.06-2.95-0.18c-9.16-1.11-16.35-7.24-21.39-18.24c-5.44,1.92-23.41,7.08-39.27-1.67
								c-12.14-6.7-20.04-19.92-23.48-39.32c-7.86-1.89-51.98-14.18-59.01-53.22c-1.74-9.64,0.31-19.39,5.62-26.75
								c4.81-6.66,12.01-10.99,20.3-12.19c0.13-0.02,0.82-0.08,1.57-0.14c-1.45-9.46-2.12-18.06,1.74-26.55
								c3.87-8.5,11.33-14.65,19.96-16.44c3.65-0.76,7.54-0.91,11.54-0.44c0.29,0.04,1.34,0.19,2.79,0.61
								c0.24,0.07,0.48,0.14,0.71,0.21c-3.96-10.76-0.79-22.38,8.27-28.36c8.93-5.9,20.12-6.61,31.49-1.99
								c12.13,4.92,26.4,15.64,33.2,24.91c3.73,5.09,5.44,10.72,6.18,13.15c12.04,0.68,44.81,3.03,57.49,24.64
								c7.71,13.14,6.41,30.98-3.88,53.06c6.26,0.71,21.92,3.64,27.52,15.4c4.88,10.23,0.74,24.26-12.29,41.7
								C615.9,747.15,592.58,765.37,574.86,765.37z M552.39,742.43l0.68,1.62c4.54,10.72,11.01,16.67,19.26,17.67
								c16.74,2.05,40.12-15.81,65.83-50.23c12.18-16.31,16.19-29.12,11.93-38.08c-6-12.62-26.89-13.62-27.1-13.63l-2.68-0.11
								l1.18-2.42c10.73-22.02,12.45-39.54,5.1-52.05c-12.06-20.54-44.79-22.36-55.55-22.96l-0.29-0.01
								c-1.29-0.08-1.57-1.05-1.98-2.39c-0.68-2.24-2.27-7.49-5.66-12.12c-6.46-8.82-20.09-19.03-31.69-23.73
								c-10.26-4.17-20.3-3.57-28.23,1.67c-9.91,6.55-10.07,19.28-5.18,27.94l3.01,5.33l-5.38-2.92c-1.35-0.73-2.8-1.32-4.34-1.76
								c-1.16-0.33-2-0.47-2.23-0.5c-3.62-0.42-7.13-0.29-10.41,0.39c-7.54,1.56-14.07,6.97-17.47,14.45
								c-3.71,8.15-2.73,16.78-1.18,26.4l0.29,1.78l-1.79,0.24c-0.13,0.02-0.9,0.08-1.69,0.15c-0.74,0.06-1.49,0.12-1.66,0.14
								c-7.42,1.07-13.63,4.79-17.93,10.76c-4.75,6.59-6.58,15.36-5.01,24.07c7.26,40.34,56.93,50.56,57.43,50.66l1.19,0.24l0.2,1.2
								c3.15,18.92,10.52,31.7,21.92,37.99c17.08,9.42,37.62,0.98,37.83,0.9L552.39,742.43z M570.87,580.29l-0.01,0.18l0.04-0.19
								L570.87,580.29z"/>
						</g>
						<g>
							<g>
								<g>
									<path style="fill:#FFFFFF;" d="M454.68,668.69c0,0,65.64,29.29,70.18-2.8c4.61-32.56-66.59-50.63-66.59-50.63
										L454.68,668.69z"/>
									<path d="M502.64,682.67c-20.65,0-47.26-11.74-48.68-12.37l1.43-3.21c0.43,0.19,43.11,19.03,60.69,9.31
										c4.02-2.23,6.32-5.74,7.03-10.75c4.33-30.63-64.59-48.5-65.28-48.68l0.87-3.41c2.97,0.75,72.67,18.84,67.9,52.57
										c-0.86,6.09-3.83,10.58-8.81,13.34C513.64,681.76,508.37,682.67,502.64,682.67z"/>
								</g>
								<g>
									<path style="fill:#FFFFFF;" d="M473.46,620.12c49.21,17.71,52.23,45.42,52.23,45.42c73.51-34.28-30.62-91.94-30.62-91.94
										c34.65,19.17,48.61,39.53,48.61,39.53c62-30.14,2.7-71.8-24.79-73.3L473.46,620.12z"/>
									<path d="M524.22,668.16l-0.29-2.43c-0.03-0.27-3.66-26.9-51.07-43.96l1.19-3.31c41.9,15.08,51,37.24,52.9,44.52
										c15.05-7.45,22.87-16.47,23.23-26.83c1.01-29.02-55.07-60.51-55.96-61.01c0,0,0,0-0.01,0l0,0l1.7-3.07
										c30.16,16.69,44.68,34.08,48.3,38.84c18.51-9.32,26.99-20.6,24.55-32.69c-3.82-18.92-32.97-35.7-49.99-36.63l0.19-3.51
										c18.01,0.98,48.99,18.36,53.24,39.44c1.95,9.65-1.1,23.72-26.26,36.44c4.89,7.17,8,14.75,7.73,22.31
										c-0.43,12.24-9.6,22.62-27.27,30.86L524.22,668.16z"/>
								</g>
							</g>
							<g>
								<path style="fill:#FFFFFF;" d="M626.93,658.53c6.93-18.31,6.89-34.31,5.72-42.02c-3-19.65-20.8-28.56-45.53-33.32
									c-32.35-6.22-47.96-5.25-64.1-2.37c-11.5,2.06-20.99,11.38-21.76,23.05c-2.21,33.6,67.66,39.55,67.66,39.55
									s-44.74,41.79,15.12,62.12L626.93,658.53z"/>
								<path d="M583.48,707.2c-18.61-6.32-29.31-15.42-31.81-27.03c-3.22-14.98,8.15-29.55,13.48-35.39
									c-14.68-1.77-67.66-10.28-65.64-41.03c0.79-12.03,10.55-22.4,23.2-24.66c17.21-3.07,33.33-3.67,64.74,2.37
									c18.41,3.54,43.31,11,46.94,34.78c1.44,9.49,0.68,25.75-5.81,42.9l-3.29-1.24c6.25-16.52,7-32.08,5.63-41.13
									c-2.54-16.65-16.15-26.48-44.13-31.86c-30.89-5.94-46.65-5.37-63.46-2.37c-11.09,1.98-19.63,10.99-20.31,21.43
									c-2.07,31.5,65.38,37.62,66.06,37.68l3.94,0.33l-2.88,2.7c-0.19,0.18-18.69,17.73-15.02,34.75
									c2.23,10.32,12.15,18.54,29.51,24.43L583.48,707.2z"/>
							</g>
						</g>
						<g>
							<g>
								<path d="M552.3,746.47l-1.1-3.34c9.35-3.08,19.64-10.62,30.6-22.42l2.57,2.39C573.01,735.35,562.22,743.21,552.3,746.47z"/>
							</g>
							<g>
								<path d="M604.53,704.99l-2.39-2.58c14.12-13.06,20.12-34.63,23-44.99l3.4,0.9C625.55,669.04,619.38,691.25,604.53,704.99z"
									/>
							</g>
						</g>
					</g>
				</g>
				<g>
					<g>
						<path d="M1824.62,1076.94c-28.2-67.4-70.93-124.47-112.02-184.22c-24.63-35.83-77.85,5.57-53.33,41.25
							c26.57,38.64,55.24,75.62,78.05,116.73c18.21,32.82,59.3,101.5,49.63,140.02c-18.87,75.12-225.03-31.37-268.11-52.47
							c-39.05-19.13-64.82,43.2-26.02,62.22c68.12,33.37,139.9,64.8,214.88,78.71c47.11,8.74,107.87,11.6,134.8-36.88
							C1871.34,1190.36,1845.27,1126.28,1824.62,1076.94z"/>
					</g>
					<g>
						<g>
							<g>
								<path style="fill:#FFFFFF;" d="M1581.81,1154.23c0,0,34.26-9.64,31.13,14.25c-2.38,18.2-18.8,53.88-26.49,69.85
									c-3.55,7.37-10.82,12.54-19,12.57c-5.29,0.02-16.36-7.28-20.51-13.87c-14.67,3.88-36.09,14.08-66.73,5.71
									c-22.92-6.26-45.59-18.18-62.92-34.54c-8.91-8.41-16.11-18.24-18.37-30.49c-1.26-6.81-1.2-14.24,1.49-20.72
									c1.34-3.23,3.36-6.11,6.05-8.35c0.78-0.65,6.43-5.04,6.43-5.04s-8.51-35.61,27.95-36.74c0,0-9.06-56.59,56.47-18.84
									c3.97,2.29,15.2-14.86,34.62-16.82c2.88-0.29,22.96-2.03,38.37,10.43C1588.64,1096.45,1594.19,1126.37,1581.81,1154.23z"/>
								<path d="M1567.43,1252.66c-5.76,0-16.39-6.91-21.24-13.6c-2.05,0.57-4.22,1.25-6.52,1.97
									c-14.28,4.44-33.83,10.54-59.93,3.41c-24.18-6.61-46.79-19.02-63.66-34.96c-10.67-10.08-16.85-20.36-18.89-31.45
									c-1.04-5.65-1.61-14,1.6-21.71c1.51-3.63,3.72-6.67,6.56-9.03c0.6-0.5,3.99-3.14,5.61-4.41c-0.73-3.95-2.44-17.27,5.07-27.1
									c4.85-6.35,12.53-9.9,22.85-10.59c-0.53-5.52-1.01-21.22,9.4-28.4c9.99-6.89,26.78-3.62,49.92,9.7
									c0.74,0.07,3.71-2.18,6.05-4c6.04-4.7,15.16-11.8,27.52-13.04c3.89-0.39,24.15-1.72,39.65,10.81
									c18.84,15.23,24.12,44.23,13.35,71.47c6.12-1.24,18.88-2.87,25.69,3.02c3.61,3.12,5.04,7.82,4.23,13.94
									c-2.36,17.96-17.71,51.81-26.65,70.39c-3.95,8.21-12.03,13.53-20.57,13.56C1567.45,1252.66,1567.44,1252.66,1567.43,1252.66
									z M1547.74,1235l0.69,1.09c3.98,6.31,14.55,13.05,19.01,13.05c0,0,0.01,0,0.01,0c7.21-0.03,14.05-4.57,17.42-11.57
									c7.12-14.8,23.95-51.2,26.33-69.32c0.65-4.95-0.35-8.49-3.05-10.83c-7.54-6.54-25.68-1.55-25.86-1.5l-3.6,1.01l1.52-3.42
									c11.68-26.27,7.05-55.93-11-70.52c-14.44-11.67-33.42-10.42-37.09-10.05c-11.35,1.14-19.99,7.87-25.71,12.32
									c-4.45,3.46-7.4,5.76-9.97,4.27c-21.55-12.41-37.51-15.82-46.17-9.86c-10.68,7.36-7.72,26.7-7.69,26.89l0.32,1.97l-2,0.06
									c-10.18,0.31-17.6,3.44-22.08,9.3c-7.72,10.11-4.25,25.13-4.22,25.28l0.26,1.1l-0.89,0.69c0,0-5.6,4.35-6.38,5
									c-2.39,1.99-4.27,4.57-5.56,7.68c-2.88,6.91-2.34,14.54-1.39,19.72c1.91,10.32,7.74,19.98,17.85,29.53
									c16.47,15.55,38.55,27.67,62.17,34.13c25.11,6.86,44.09,0.94,57.95-3.38c2.81-0.88,5.43-1.69,7.87-2.33L1547.74,1235z"/>
							</g>
							<g>
								<line style="fill:none;" x1="1441.36" y1="1107.48" x2="1465.23" y2="1124.12"/>
								
									<rect x="1451.58" y="1101.29" transform="matrix(0.5721 -0.8202 0.8202 0.5721 -293.3097 1669.4863)" width="3.51" height="29.1"/>
							</g>
							<g>
								<line style="fill:none;" x1="1412.89" y1="1143.6" x2="1439.07" y2="1158.84"/>
								
									<rect x="1424.26" y="1136.07" transform="matrix(0.5032 -0.8642 0.8642 0.5032 -286.3875 1804.2761)" width="3.52" height="30.3"/>
							</g>
							<g>
								<line style="fill:none;" x1="1497.31" y1="1088.02" x2="1532.93" y2="1110.3"/>
								
									<rect x="1513.32" y="1078.1" transform="matrix(0.5303 -0.8478 0.8478 0.5303 -220.2058 1800.7363)" width="3.51" height="42.02"/>
							</g>
							<g>
								<line style="fill:none;" x1="1581.81" y1="1154.23" x2="1570.68" y2="1181.61"/>
								
									<rect x="1561.49" y="1166.19" transform="matrix(0.3763 -0.9265 0.9265 0.3763 -98.9827 2188.8511)" width="29.55" height="3.51"/>
							</g>
							<g>
								<line style="fill:none;" x1="1554.66" y1="1216.89" x2="1546.94" y2="1237.03"/>
								
									<rect x="1540.06" y="1225.18" transform="matrix(0.3584 -0.9336 0.9336 0.3584 -150.3907 2235.0415)" width="21.57" height="3.51"/>
							</g>
						</g>
					</g>
				</g>
			</g>
		</g>
	</g>
</g>
</svg>
