<?xml version="1.0" encoding="iso-8859-1"?>
<!-- Generator: Adobe Illustrator 30.0.0, SVG Export Plug-In . SVG Version: 9.03 Build 0)  -->
<svg version="1.1" id="Capa_1" xmlns="http://www.w3.org/2000/svg" xmlns:xlink="http://www.w3.org/1999/xlink" x="0px" y="0px"
	 viewBox="0 0 2000 2000" style="enable-background:new 0 0 2000 2000;" xml:space="preserve">
<g>
	<g>
		<g>
			<path style="fill:#FFFFFF;" d="M102,389.22l576.56,1.35c0,0,35.01-232.6-145.56-171.86c0,0-16.63-100.96-114.25-114.77
				c-43.29-6.13-87.2,7.1-118.63,42.48c-17.72,19.95-32.35,47.1-33.8,82.92C266.31,229.33,94.48,144.24,102,389.22z"/>
			<path d="M680.07,392.33l-579.77-1.36l-0.05-1.7c-2.56-83.38,15.27-137.94,52.99-162.17c43.14-27.71,99.22-5.8,111.44-0.46
				c1.79-30.56,13.26-57.94,34.12-81.41c30.13-33.91,73.94-49.6,120.19-43.06c90.08,12.75,112.28,99.81,115.34,114.22
				c46.54-15.25,82.93-12.24,108.21,8.95c28.83,24.17,37.54,67.95,39.78,100.42c2.41,35-1.98,64.76-2.02,65.05L680.07,392.33z
				 M103.71,387.46l573.31,1.34c1.78-13.81,13.43-118.68-36.75-160.76c-24.61-20.63-60.51-23.21-106.72-7.68l-1.96,0.66l-0.34-2.04
				c-0.17-1-17.59-99.84-112.76-113.32c-45.06-6.37-87.74,8.9-117.07,41.91c-20.89,23.51-32.12,51.04-33.36,81.82l-0.11,2.7
				l-2.43-1.2c-0.63-0.32-63.65-30.87-110.4-0.82C118.78,253.43,101.48,306.38,103.71,387.46z"/>
		</g>
		<g>
			<path style="fill:#FFFFFF;" d="M1317.13,697.16l576.56,1.35c0,0,35.01-232.6-145.56-171.86c0,0-16.63-100.96-114.25-114.77
				c-43.29-6.13-87.2,7.1-118.63,42.48c-17.72,19.95-32.35,47.1-33.8,82.92C1481.44,537.27,1309.61,452.18,1317.13,697.16z"/>
			<path d="M1895.21,700.27l-579.78-1.35l-0.05-1.7c-2.56-83.38,15.27-137.94,52.99-162.17c43.15-27.7,99.22-5.8,111.44-0.45
				c1.8-30.56,13.27-57.94,34.12-81.41c30.13-33.92,73.93-49.62,120.2-43.06c90.08,12.75,112.28,99.8,115.35,114.22
				c46.55-15.25,82.93-12.23,108.2,8.95c28.82,24.18,37.54,67.95,39.78,100.42c2.41,35-1.98,64.76-2.02,65.05L1895.21,700.27z
				 M1318.84,695.41l573.31,1.34c1.78-13.81,13.43-118.68-36.75-160.76c-24.6-20.63-60.51-23.21-106.72-7.68l-1.96,0.66l-0.34-2.04
				c-0.17-1-17.59-99.85-112.77-113.32c-45.07-6.37-87.74,8.89-117.07,41.91c-20.89,23.51-32.12,51.04-33.36,81.82l-0.11,2.7
				l-2.43-1.2c-0.63-0.31-63.66-30.86-110.4-0.83C1333.91,561.37,1316.62,614.33,1318.84,695.41z"/>
		</g>
		<g>
			<path style="fill:#FFFFFF;" d="M263.76,919.73l381.6,0.89c0,0,23.17-153.95-96.34-113.75c0,0-11.01-66.82-75.62-75.97
				c-28.65-4.06-57.71,4.7-78.52,28.12c-11.73,13.2-21.41,31.17-22.38,54.88C372.51,813.9,258.78,757.58,263.76,919.73z"/>
			<path d="M646.88,922.39l-384.83-0.9l-0.05-1.7c-1.7-55.41,10.19-91.69,35.35-107.85c28.35-18.19,63.97-4.86,73.54-0.71
				c1.36-20.02,8.98-37.96,22.68-53.37c20.07-22.59,49.28-33.04,80.08-28.69c58.76,8.32,74.16,64.08,76.7,75.42
				c30.72-9.93,54.78-7.83,71.56,6.24c15.23,12.77,24.41,35.9,26.54,66.88c1.6,23.23-1.31,42.99-1.34,43.19L646.88,922.39z
				 M265.47,917.97l378.35,0.88c1.36-10.91,8.23-78.17-24.18-105.35c-16.11-13.52-39.69-15.19-70.06-4.97l-1.96,0.66l-0.34-2.04
				c-0.11-0.65-11.58-65.65-74.13-74.51c-29.63-4.2-57.68,5.85-76.96,27.54c-13.73,15.46-21.11,33.55-21.93,53.79l-0.11,2.7
				l-2.43-1.2c-0.42-0.2-41.84-20.27-72.5-0.58C275.45,830.19,264.1,864.86,265.47,917.97z"/>
		</g>
	</g>
	<g>
		<g id="XMLID_31_">
			<rect x="101.12" y="1495.42" style="fill:#00C793;" width="1798.87" height="403.85"/>
		</g>
		<g style="opacity:0.27;">
			<g style="opacity:0.27;">
				<rect x="101.12" y="1495.42" style="fill:#FFFFFF;" width="196.08" height="403.85"/>
			</g>
			<g style="opacity:0.27;">
				<rect x="807.72" y="1495.42" style="fill:#FFFFFF;" width="209.16" height="403.85"/>
			</g>
			<g style="opacity:0.27;">
				<rect x="1153.65" y="1495.42" style="fill:#FFFFFF;" width="206.54" height="403.85"/>
			</g>
			<g style="opacity:0.27;">
				<rect x="1496.96" y="1495.42" style="fill:#FFFFFF;" width="169.85" height="403.85"/>
			</g>
			<g style="opacity:0.27;">
				<rect x="1803.58" y="1495.42" style="fill:#FFFFFF;" width="96.42" height="403.85"/>
			</g>
			<g style="opacity:0.27;">
				<rect x="465.27" y="1495.42" style="fill:#FFFFFF;" width="205.68" height="403.85"/>
			</g>
		</g>
		<g>
			<g>
				<rect x="101.12" y="1536.25" style="fill:#FFFFFF;" width="1798.87" height="17.58"/>
			</g>
		</g>
	</g>
	<g>
		<g>
			<g>
				<g>
					<g>
						<g>
							<path d="M1648.18,1630.11c-51.43-103.98-114.1-201.43-174.59-300.24c-59.48-97.18-125.13-183.02-204.58-264.75
								c-32.55-33.49-82.9,18.58-50.41,52c79.37,81.65,142.39,167.9,201.9,264.76c57.7,93.89,116.78,186.85,165.71,285.75
								C1606.87,1709.38,1668.76,1671.71,1648.18,1630.11z"/>
						</g>
						<g>
							<g>
								<path style="fill:#FFFFFF;" d="M1674.12,1693.45c0,0,11.41-91.97-27.33-121.12c-22.91-17.24-74.91-8.38-75.46,42.48
									l1.96,79.26c14.89,5.28,52.1-3.18,75.42-1.26C1657.9,1693.57,1666.41,1693.7,1674.12,1693.45z"/>
								<path d="M1587.74,1697.59c-5.99,0-11.16-0.49-15.03-1.86l-1.14-0.41l-1.99-80.47c0.23-21.82,9.83-38.46,27.01-46.92
									c16.57-8.16,38.13-6.9,51.27,2.99c16.49,12.41,26.21,36.89,28.89,72.77c1.98,26.5-0.84,49.75-0.87,49.98l-0.19,1.49
									l-1.51,0.05c-8.51,0.27-17.12,0.06-25.6-0.64c-10.05-0.83-22.87,0.31-35.26,1.42
									C1604.17,1696.8,1595.3,1697.59,1587.74,1697.59z M1575.02,1692.77c8.26,2.36,22.72,1.07,37.98-0.29
									c12.54-1.12,25.5-2.28,35.86-1.42c7.83,0.65,15.79,0.87,23.67,0.67c1.23-11.96,8-91.8-26.81-118
									c-12.13-9.14-32.15-10.25-47.6-2.65c-15.93,7.84-24.83,23.38-25.04,43.74L1575.02,1692.77z"/>
							</g>
							<g>
								<path style="fill:#FFBC00;" d="M1720.85,1784.47l-191.03,7.52c-17.66,0.69-31.58-13.58-28.81-29.65
									c4.37-25.4,15.29-61.17,42.47-86.3c17.59-16.25,41.97-28.06,75.72-29.79c35.56-1.78,61.64,8.57,80.64,24.12
									c28.36,23.07,41.37,57.94,47.27,82.82C1750.82,1768.86,1738.27,1783.79,1720.85,1784.47z"/>
								<path d="M1528.58,1793.78c-9.02,0-17.38-3.67-23.08-10.17c-5.28-6.02-7.55-13.88-6.22-21.56
									c4.44-25.79,15.51-61.87,43.01-87.29c20.03-18.49,45.88-28.67,76.83-30.25c32.42-1.63,59.98,6.62,81.84,24.52
									c28.66,23.32,41.85,58.43,47.87,83.77c1.81,7.62,0.14,15.33-4.7,21.71c-5.38,7.09-13.83,11.36-23.2,11.74l-191.03,7.52
									C1529.45,1793.77,1529.01,1793.78,1528.58,1793.78z M1627,1647.82c-2.54,0-5.1,0.06-7.71,0.19
									c-30.1,1.54-55.21,11.4-74.62,29.32c-26.77,24.75-37.58,60.05-41.93,85.31c-1.16,6.73,0.75,13.35,5.4,18.64
									c5.28,6.02,13.14,9.3,21.61,8.95l191.03-7.52c8.31-0.33,15.79-4.1,20.53-10.34c4.2-5.53,5.64-12.19,4.08-18.78
									c-5.89-24.81-18.77-59.16-46.67-81.86C1679.3,1655.85,1655.2,1647.82,1627,1647.82z"/>
							</g>
							<g>
								<path style="fill:#FFFFFF;" d="M1699.84,1670.38c-9.47,25.08-40.06,43.93-77.05,45c-36.39,1.06-67.89-15.42-79.31-39.34
									c17.59-16.25,41.97-28.06,75.72-29.79C1654.75,1644.48,1680.83,1654.83,1699.84,1670.38z"/>
								<path d="M1619.47,1717.19c-35.01,0-65.92-15.97-77.58-40.38l-0.56-1.17l0.96-0.88c20.03-18.49,45.88-28.67,76.82-30.25
									c32.42-1.63,59.98,6.62,81.84,24.52l0.98,0.8l-0.45,1.18c-10.01,26.52-41.62,45.06-78.64,46.14
									C1621.71,1717.17,1620.59,1717.19,1619.47,1717.19z M1545.64,1676.45c11.88,23.29,42.7,38.28,77.1,37.17
									c35.06-1.02,64.99-18.12,74.99-42.69c-21-16.76-47.4-24.47-78.44-22.92C1589.69,1649.53,1564.91,1659.1,1545.64,1676.45z"/>
							</g>
							<g>
								<g>
									<path d="M1570.15,1790.55c-0.33,1.16-0.65,2.33-1.07,3.46c-4.78,13.07-14.7,21.48-22.14,18.75
										c-6.21-2.28-8.75-11.61-6.58-22.17L1570.15,1790.55z"/>
									<path d="M1549.88,1815.04c-1.23,0-2.41-0.2-3.54-0.62c-6.94-2.55-10.1-12.49-7.69-24.18l0.29-1.4l33.54-0.05l-0.63,2.24
										l-1.69-0.48l1.69,0.51c-0.33,1.19-0.67,2.39-1.1,3.56c-3.26,8.92-9.12,16.24-15.28,19.1
										C1553.56,1814.59,1551.68,1815.04,1549.88,1815.04z M1541.83,1792.35c-1.53,9.18,0.79,16.96,5.72,18.77
										c1.91,0.71,4.07,0.5,6.43-0.59c5.34-2.48,10.5-9.04,13.46-17.12c0.13-0.36,0.26-0.73,0.37-1.09L1541.83,1792.35z"/>
								</g>
								<g>
									<path d="M1685.82,1788.76c0.4,1.14,0.8,2.29,1.29,3.39c5.59,12.77,16.03,20.58,23.28,17.43c6.06-2.63,8-12.1,5.16-22.51
										L1685.82,1788.76z"/>
									<path d="M1706.91,1812.06c-7.57,0-16.3-7.54-21.41-19.2c-0.49-1.12-0.9-2.28-1.3-3.44l-0.78-2.21l2.31-0.21l31.16-1.77
										l0.37,1.38c3.14,11.53,0.61,21.65-6.16,24.59C1709.77,1811.78,1708.36,1812.06,1706.91,1812.06z M1688.29,1790.39
										c0.14,0.36,0.28,0.71,0.44,1.06c5.12,11.68,14.72,19.24,20.97,16.52c4.8-2.09,6.62-9.99,4.52-19.07L1688.29,1790.39z"/>
								</g>
							</g>
						</g>
					</g>
					<g>
						<g>
							<g>
								<path style="fill:#FFBC00;" d="M1268.2,1796.19c-35.19,40.7-125.03,17.97-192.8-59.54
									c-51.23-58.72-86.34-101.18-91.43-135.24c-2.41-15.14,1.27-28.69,12.18-41.29c10.63-12.3,23.59-17.69,39.08-17.35
									c36.05,0.3,86.18,30.73,153.51,75.08C1274.83,1674.49,1303.39,1755.49,1268.2,1796.19z"/>
								<path d="M1218.59,1817.83c-46,0-101.34-30.64-144.51-80.02c-50.52-57.9-86.67-101.55-91.85-136.13
									c-2.55-15.99,1.57-29.97,12.59-42.71c10.76-12.44,23.97-18.34,40.45-17.96c37.56,0.32,89.91,32.86,154.45,75.36
									c52.85,34.76,88.02,81.53,94.07,125.1c3.08,22.2-1.84,41.51-14.25,55.86l0,0c-11.54,13.35-29.06,20.43-50.65,20.49
									C1218.78,1817.83,1218.68,1817.83,1218.59,1817.83z M1033.89,1544.53c-14.76,0-26.68,5.49-36.42,16.76
									c-10.3,11.91-14.15,24.95-11.77,39.86c5.04,33.65,40.9,76.91,91.02,134.35c42.61,48.74,97.15,79.01,142.14,78.82
									c20.55-0.06,37.15-6.72,48-19.27l0,0c11.72-13.55,16.36-31.9,13.42-53.07c-5.92-42.58-40.5-88.43-92.52-122.64
									c-64.05-42.19-115.95-74.48-152.56-74.79C1034.76,1544.53,1034.32,1544.53,1033.89,1544.53z"/>
							</g>
							<g>
								<path style="fill:#FFFFFF;" d="M1132.79,1629.55c62.69,50.6,96.18,100.91,79.99,119.64
									c-16.19,18.72-76.47-10.57-134.13-66.67c-48.28-46.98-45.15-51.27-28.96-69.99
									C1065.88,1593.81,1070.67,1579.41,1132.79,1629.55z"/>
								<path d="M1197.71,1756.59c-27.25,0-75.23-28.97-120.28-72.81c-48.26-46.95-46.5-52.23-29.07-72.4
									c1.05-1.21,2.05-2.41,3.02-3.57c15.6-18.63,25.62-25.55,82.52,20.37c49.9,40.27,82.31,80.98,84.57,106.25
									c0.59,6.54-0.88,11.89-4.35,15.91c-3.32,3.85-8.31,5.94-14.83,6.22C1198.77,1756.57,1198.24,1756.59,1197.71,1756.59z
									 M1073.6,1597.07c-8.64,0-13.47,5.76-19.52,12.99c-0.98,1.17-2,2.38-3.06,3.61c-15.35,17.76-18.55,21.45,28.86,67.58
									c44.58,43.37,93.51,72.85,119.26,71.78c5.5-0.24,9.65-1.92,12.32-5.01c2.82-3.27,4-7.74,3.51-13.29
									c-2.15-23.98-34.84-64.73-83.28-103.82C1100.47,1605.71,1084.18,1597.07,1073.6,1597.07z"/>
							</g>
							<g>
								<g>
									
										<rect x="1083.99" y="1682.71" transform="matrix(0.6545 -0.7561 0.7561 0.6545 -880.7883 1441.5575)" width="105.7" height="3.52"/>
								</g>
								<g>
									
										<rect x="1106.8" y="1704.48" transform="matrix(0.6545 -0.756 0.756 0.6545 -889.3501 1466.1882)" width="105.69" height="3.52"/>
								</g>
								<g>
									
										<rect x="1130.63" y="1722.06" transform="matrix(0.6545 -0.7561 0.7561 0.6545 -894.4265 1490.4148)" width="105.7" height="3.52"/>
								</g>
							</g>
							<g>
								<path style="fill:#FFFFFF;" d="M1035.22,1542.78c-2.06,11.82-8.14,24.52-17.76,35.64c-9.83,11.36-21.8,19.23-33.49,23
									c-2.41-15.14,1.27-28.69,12.18-41.29C1006.78,1547.84,1019.73,1542.45,1035.22,1542.78z"/>
								<path d="M982.55,1603.73l-0.32-2.03c-2.55-16.01,1.57-29.98,12.58-42.72c10.76-12.44,23.97-18.34,40.45-17.96l2.05,0.05
									l-0.35,2.02c-2.18,12.51-8.63,25.47-18.17,36.49c-9.65,11.15-21.82,19.51-34.28,23.52L982.55,1603.73z M1033.09,1544.53
									c-14.38,0.19-26.05,5.68-35.62,16.75c-9.81,11.35-13.77,23.73-12.06,37.79c11.16-4.04,22-11.72,30.71-21.8
									C1024.72,1567.33,1030.7,1555.78,1033.09,1544.53z"/>
							</g>
						</g>
						<g>
							<path d="M1052.49,1654.3c0.14-0.18,0.28-0.37,0.42-0.55c14.66-18.95,29.43-37.82,44.26-56.63
								c-71.29-56.91-151.7-102.12-223.06-159.08c-39.37-31.42-81.55-66.59-98.78-115.89c-17.22-49.29,16.15-100.2,46.75-135.62
								c41.66-48.23,91.7-88.47,139.96-129.78c35.62-30.49-12.67-84.87-48.25-54.41c-46.76,40.02-94.67,79.11-135.83,125.07
								c-42.74,47.73-77.29,99.16-78.77,165.51c-1.33,59.84,35.33,118.1,78.23,157.59c48.55,44.69,101.68,81.87,156.36,118.48
								c28.79,19.28,56.03,40.59,84.52,60.27C1030.09,1637.41,1041.45,1645.69,1052.49,1654.3z"/>
						</g>
						<g>
							<path style="fill:#FFFFFF;" d="M1128.29,1619.93c0,0-57.85-64.34-92.03-54.51c-23.92,6.88-45.12,42.99-12.9,73.93
								l45.71,43.89C1089.35,1664.57,1123.89,1624.9,1128.29,1619.93z"/>
							<path d="M1069.06,1685.65l-46.91-45.04c-14.05-13.49-19.64-29.61-15.73-45.41c3.67-14.84,15.47-27.49,29.36-31.48
								c34.82-10.05,91.43,52.37,93.82,55.03l1.05,1.17l-2.78,3.14c-25.87,29.4-45.24,50.08-57.6,61.46L1069.06,1685.65z
								 M1043.92,1566.15c-2.49,0-4.89,0.31-7.17,0.96c-12.72,3.66-23.54,15.29-26.92,28.94c-3.59,14.52,1.65,29.44,14.75,42.03
								l44.52,42.74c12.3-11.51,31.18-31.71,56.13-60.07l0.69-0.78C1118.55,1612.05,1074.45,1566.15,1043.92,1566.15z"/>
						</g>
					</g>
				</g>
				<g>
					<g>
						<g>
							<path d="M662.38,864.88c-0.48,1.48-1.06,3.08-1.3,4.58c-2.4,15.15,8.92,54.83,8.92,54.83c-7.3,3.66-113.12,68.49-149.86,92
								c-71.68,45.61-131.69,101.47-189.43,163.28c-11.52,12.33-34.12,7.84-44-3.84c-11.77-14.02-7.69-31.67,3.84-44
								c30.63-32.83,60.84-65.48,95.5-94.22c32.18-26.84,66.09-51.48,101.43-74.03c38.84-24.66,78.14-48.78,118.29-71.06
								C624.24,882.25,643.07,873.22,662.38,864.88z"/>
						</g>
						<g>
							<g>
								<path style="fill:#FFFFFF;" d="M237.35,1140.42c0,0-75.49,12.34-76.27,32.96c-0.79,20.62,60.14,4.27,60.14,4.27
									L237.35,1140.42z"/>
								<path d="M180.92,1185.52c-7.49,0-14.14-1.08-17.96-4.12c-2.55-2.03-3.77-4.76-3.65-8.09c0.81-21.44,69.87-33.34,77.74-34.63
									l3.18-0.52l-17.75,40.95l-0.82,0.22C220.37,1179.69,198.37,1185.52,180.92,1185.52z M234.44,1142.7
									c-22.44,4-71.04,15.77-71.61,30.74c-0.08,2.19,0.68,3.9,2.32,5.21c9.19,7.33,41.88,0.87,54.79-2.49L234.44,1142.7z"/>
							</g>
							<g>
								<path style="fill:#FFFFFF;" d="M223.4,1159.85c0,0-78,21.5-76.5,43.27c1.5,21.77,63.74-2.3,63.74-2.3L223.4,1159.85z"/>
								<path d="M162.28,1213.96c-5.04,0-9.4-0.76-12.43-2.69c-2.88-1.83-4.46-4.53-4.7-8.02c-0.68-9.86,12.36-20.48,38.76-31.55
									c19.2-8.05,38.83-13.49,39.03-13.54l3.11-0.86l-13.97,44.86l-0.79,0.31C209.76,1203.05,181.28,1213.96,162.28,1213.96z
									 M220.75,1162.43c-23.09,6.71-73.2,24.66-72.1,40.58c0.16,2.35,1.17,4.08,3.08,5.29c10.54,6.71,44.31-3.82,57.48-8.81
									L220.75,1162.43z"/>
							</g>
							<g>
								<path style="fill:#FFFFFF;" d="M263.62,1183.22c5.95-2.54,12.2-3.96,18.66-3.32c8.03,0.8,12.21,6.27,9.58,14.06
									c-3.87,11.47-17.03,18.16-26.85,23.83c-12.11,7-25.37,13.15-34.95,23.66c-6.28,6.9-8.47,17.51,2.12,21.67
									c7.66,3.02,16.54,1.11,24.36-0.31c49.52-9.01,111.15-42.61,105.56-95.57c-0.25-2.37,1.57-4.49,2.13-6.8
									c11.07,2.44,31.56-8.32,23.45-23.64c-10.29-19.46-20.48-35.97-34.58-53.6c-6.25-7.81-11.8-17.16-23.95-12.34
									c-11.8,4.69-10.22,16.01-6.53,25.1c-25.62,13.75-57.32,16.01-80.87,33.83c-22.84,17.29-41.99,46.63-60.23,68.67
									c-6.38,7.71-31.54,31.93-14.69,40.56c10.6,5.42,26.89-6.16,35.22-11.57c13.16-8.55,24.89-19.02,37.28-28.6
									C246.55,1193.28,254.74,1187.01,263.62,1183.22z"/>
								<path d="M241.57,1266.49c-3.41,0-6.8-0.46-10.02-1.73c-5.62-2.21-7.55-5.92-8.19-8.64c-1.13-4.87,0.94-10.94,5.41-15.85
									c7.95-8.73,18.35-14.49,28.4-20.07c2.34-1.3,4.67-2.59,6.97-3.92l2.48-1.42c9.01-5.14,20.24-11.55,23.58-21.45
									c1.04-3.1,0.9-5.81-0.41-7.85c-1.39-2.16-4.12-3.54-7.68-3.9c-5.63-0.56-11.45,0.48-17.8,3.19
									c-8.88,3.79-17.2,10.22-23.88,15.4c-3.9,3.01-7.72,6.11-11.56,9.22c-8.24,6.67-16.76,13.57-25.84,19.47l-1.73,1.14
									c-9.14,6.01-24.44,16.06-35.25,10.53c-3.66-1.87-5.84-4.56-6.48-8c-1.86-10.01,10.24-23.57,17.48-31.68
									c1.26-1.4,2.34-2.62,3.13-3.57c4.83-5.84,9.66-12.11,14.77-18.73c14.16-18.38,28.81-37.39,45.76-50.22
									c13.78-10.43,30.43-15.67,46.53-20.73c11.22-3.53,22.8-7.16,33.19-12.53c-2.63-7.09-2.96-13.02-0.99-17.64
									c1.59-3.72,4.64-6.5,9.08-8.27c12.19-4.84,18.57,3.35,24.18,10.59c0.6,0.77,1.19,1.53,1.79,2.28
									c12.97,16.21,23.36,32.32,34.76,53.87c3.08,5.82,2.66,11.81-1.18,16.86c-4.85,6.37-14.86,10.52-22.64,9.59
									c-0.19,0.46-0.4,0.91-0.6,1.35c-0.57,1.24-1.08,2.31-0.97,3.29c5.92,56.16-60.74,89.07-106.99,97.49l-1.36,0.25
									C251.07,1265.61,246.3,1266.49,241.57,1266.49z M279.12,1177.99c1.12,0,2.23,0.06,3.33,0.17c4.65,0.46,8.3,2.41,10.28,5.49
									c1.92,2.97,2.19,6.73,0.79,10.88c-3.77,11.17-15.63,17.94-25.17,23.38l-2.46,1.41c-2.31,1.34-4.66,2.64-7.02,3.95
									c-9.8,5.44-19.95,11.07-27.5,19.37c-3.71,4.06-5.46,8.92-4.59,12.69c0.64,2.76,2.68,4.84,6.05,6.17
									c6.75,2.66,14.87,1.16,22.03-0.16l1.36-0.25c44.96-8.18,109.8-39.88,104.13-93.65c-0.2-1.95,0.58-3.65,1.28-5.14
									c0.37-0.8,0.72-1.55,0.89-2.26l0.41-1.67l1.69,0.37c5.89,1.29,15.81-1.67,20.64-8.02c3.05-4.01,3.35-8.41,0.87-13.09
									c-11.29-21.35-21.58-37.29-34.4-53.32c-0.61-0.77-1.22-1.54-1.82-2.32c-5.56-7.16-10.35-13.35-20.11-9.48
									c-3.58,1.42-5.92,3.51-7.14,6.38c-1.72,4.04-1.19,9.57,1.6,16.42l0.6,1.47l-1.39,0.74c-11.03,5.92-23.31,9.78-35.18,13.51
									c-15.81,4.97-32.17,10.11-45.46,20.17c-16.57,12.55-31.07,31.36-45.1,49.56c-5.13,6.65-9.97,12.94-14.85,18.83
									c-0.81,0.98-1.92,2.23-3.21,3.67c-6.36,7.12-18.2,20.37-16.65,28.68c0.44,2.34,1.95,4.14,4.62,5.51
									c8.98,4.61,23.21-4.75,31.71-10.34l1.75-1.15c8.93-5.8,17.38-12.65,25.55-19.26c3.85-3.12,7.7-6.23,11.62-9.26
									c6.84-5.29,15.36-11.88,24.65-15.85l0,0C268.61,1179.18,273.94,1177.99,279.12,1177.99z"/>
							</g>
							<g>
								
									<rect x="326.2" y="1094.36" transform="matrix(0.8559 -0.5171 0.5171 0.8559 -523.7319 328.6842)" width="3.52" height="19.65"/>
							</g>
							<g>
								
									<rect x="358.04" y="1147.05" transform="matrix(0.847 -0.5317 0.5317 0.847 -558.3754 367.8814)" width="3.52" height="13.5"/>
							</g>
						</g>
					</g>
					<g>
						<g>
							<path d="M1834.93,1019.33c-28.78,42.18-79.48,74.86-122.42,101.03c-47.97,29.17-97.98,55.07-146.49,83.2
								c-15.08,8.69-33.73,8.28-45.03-6.9c-9.35-12.94-8.04-36.33,7.04-45.02c55.01-31.8,112.35-60.17,165.45-95.08
								c23.58-15.47,47.37-32.51,68.33-51.26c14.38-13.06,35.26-33.69,28.96-54.9c-6.67-22.68-33.61-33.52-53.71-41.51
								c-26.23-10.39-52.95-19.34-80.81-24.87c-40.5-8.03-81.76-11.16-123.06-13.29c1.08-21.92-1.41-43.82-6.99-64.5
								c48.08,2.52,96.44,5.35,143.68,15.07c49.1,10.09,104.91,26.64,145.12,57.66C1861,914.26,1866.62,972.78,1834.93,1019.33z"/>
						</g>
						<g>
							<g>
								<g>
									<path style="fill:#FFFFFF;" d="M1567.61,1107.91c0,0,17.13-33.91,33.66-14.21c12.6,15,28.83,53.66,35.84,71.22
										c3.24,8.1,2.06,17.56-3.82,24.01c-3.8,4.17-17.53,7.62-25.7,6.13c-7.53,14.34-14.95,38.55-43.64,56.62
										c-21.46,13.52-47.19,22.75-72.56,24.58c-13.04,0.94-25.97-0.49-37.23-7.54c-6.26-3.92-12.07-9.33-15.22-16.11
										c-1.57-3.38-2.38-7.05-2.2-10.79c0.05-1.09,0.67-8.69,0.67-8.69s-34.16-18.99-8.74-48.49c0,0-51.05-33.69,25.91-58.01
										c4.66-1.47-0.73-22.68,11.74-39.37c1.85-2.48,14.97-19.52,35.88-22.66C1527.08,1060.86,1554.62,1078.07,1567.61,1107.91z"
										/>
									<path d="M1484.61,1278.27c-12.44,0-22.77-2.65-31.39-8.06c-5.18-3.25-12.15-8.81-15.88-16.87
										c-1.76-3.78-2.56-7.69-2.37-11.61c0.04-0.84,0.41-5.5,0.59-7.66c-3.55-2.21-15.35-10.47-17.67-23.5
										c-1.49-8.39,1.27-17,8.21-25.61c-4.64-3.48-17.48-14.44-15.61-27.84c1.78-12.78,16.44-23.6,43.56-32.17
										c0.72-0.53,1.05-4.71,1.3-7.75c0.66-8.13,1.65-20.4,9.56-30.99c2.5-3.35,16.04-20.2,37.03-23.35
										c25.58-3.83,52.21,12.98,65.83,41.18c3.37-5.63,11.33-17.05,20.93-18.16c4.97-0.56,9.71,1.67,13.92,6.69
										c12.42,14.79,27.97,51.27,36.12,71.7c3.59,8.99,1.96,19.13-4.15,25.85c-4.12,4.53-17.25,7.94-26.02,6.87
										c-1.04,2.04-2.08,4.27-3.19,6.62c-6.79,14.43-16.09,34.19-40.5,49.56c-22.62,14.25-48.68,23.07-73.37,24.85
										C1489.14,1278.18,1486.84,1278.27,1484.61,1278.27z M1508.97,1065.85c-2.18,0-4.35,0.16-6.51,0.48
										c-19.63,2.94-32.38,18.83-34.74,21.98c-7.3,9.77-8.25,21.44-8.87,29.17c-0.48,5.96-0.8,9.89-3.75,10.82
										c-25.34,8.01-39.56,18.14-41.13,29.3c-1.93,13.76,15.48,25.45,15.66,25.57l1.67,1.1l-1.3,1.51
										c-7.11,8.25-10.02,16.38-8.64,24.15c2.37,13.4,16.76,21.57,16.91,21.65l0.99,0.55l-0.09,1.13c0,0-0.61,7.55-0.67,8.63
										c-0.16,3.34,0.53,6.69,2.04,9.96c3.37,7.27,9.78,12.37,14.56,15.36c9.52,5.96,21.36,8.34,36.17,7.28
										c24.13-1.73,49.61-10.37,71.75-24.31c23.54-14.82,32.58-34.04,39.19-48.08c1.34-2.84,2.58-5.49,3.83-7.86l0.6-1.15
										l1.27,0.23c7.86,1.43,20.87-2.05,24.09-5.58c5.21-5.73,6.58-14.43,3.49-22.17c-6.51-16.29-23-55.79-35.56-70.74
										c-3.45-4.11-7.01-5.87-10.82-5.46c-10.67,1.24-19.83,19.15-19.92,19.33l-1.69,3.34l-1.49-3.44
										C1554.81,1082.91,1531.59,1065.85,1508.97,1065.85z"/>
								</g>
								<g>
									<line style="fill:none;" x1="1429.53" y1="1184.67" x2="1459.83" y2="1177.9"/>
									
										<rect x="1429.08" y="1179.52" transform="matrix(0.9758 -0.2185 0.2185 0.9758 -223.2114 344.2042)" width="31.06" height="3.52"/>
								</g>
								<g>
									<line style="fill:none;" x1="1437.4" y1="1233.12" x2="1468.28" y2="1223.52"/>
									
										<rect x="1436.59" y="1226.6" transform="matrix(0.9549 -0.2968 0.2968 0.9549 -299.1233 486.5477)" width="32.33" height="3.52"/>
								</g>
								<g>
									<line style="fill:none;" x1="1454.57" y1="1126.62" x2="1497.79" y2="1114.68"/>
									
										<rect x="1453.76" y="1118.9" transform="matrix(0.964 -0.2659 0.2659 0.964 -244.8409 432.8589)" width="44.85" height="3.51"/>
								</g>
								<g>
									<line style="fill:none;" x1="1567.61" y1="1107.91" x2="1581.12" y2="1136.41"/>
									
										<rect x="1572.63" y="1106.35" transform="matrix(0.9036 -0.4284 0.4284 0.9036 -328.927 782.6441)" width="3.52" height="31.54"/>
								</g>
								<g>
									<line style="fill:none;" x1="1597.32" y1="1174.46" x2="1607.59" y2="1195.06"/>
									
										<rect x="1600.64" y="1173.19" transform="matrix(0.8948 -0.4464 0.4464 0.8948 -360.3369 839.9332)" width="3.52" height="23.02"/>
								</g>
							</g>
						</g>
					</g>
				</g>
			</g>
			<g>
				<g>
					<g>
						<g>
							<path d="M1220.74,182.27l223.37-67.65c17.85-5.93,36.27,6.83,34.26,23.73l-35.43,241.13L1220.74,182.27z"/>
							<path d="M1444.2,382.96L1217.22,181.5l226.38-68.56c9.57-3.18,20.23-1.34,27.78,4.82c6.49,5.3,9.68,12.88,8.74,20.8
								L1444.2,382.96z M1224.25,183.04l217.41,192.96l34.96-237.91c0.79-6.66-1.93-13.1-7.47-17.61c-6.62-5.4-16.01-7-24.49-4.19
								L1224.25,183.04z"/>
						</g>
						<g>
							<path d="M868.43,201.33l-228.95-45.3c-18.35-4.14-35.42,10.38-31.76,26.99l59.03,236.46L868.43,201.33z"/>
							<path d="M665.84,423.07l-59.82-239.62c-1.73-7.84,0.69-15.7,6.63-21.61c6.9-6.87,17.33-9.75,27.22-7.53l231.99,45.9
								L665.84,423.07z M633.2,157.09c-6.8,0-13.37,2.57-18.06,7.24c-5.07,5.04-7.14,11.72-5.69,18.31l58.23,233.26l197.33-213.46
								l-225.86-44.69C637.17,157.31,635.18,157.09,633.2,157.09z"/>
						</g>
					</g>
					<g>
						<path style="fill:#FF9DDE;" d="M1547.76,693.68c2.25,45.44,0.17,89.96-5.88,132.85c-36.24,259.95-215.9,461.28-441.8,472.44
							c-225.41,11.14-423.71-170.73-485.94-425.04c-10.46-42.51-17.03-87.13-19.31-133.17c-15.87-321.26,184.65-592.2,447.78-605.2
							C1305.73,122.56,1531.89,372.42,1547.76,693.68z"/>
						<path d="M1080.99,1301.2c-101.99,0-202.95-40.02-286.23-113.89c-87.09-77.24-151.84-188.39-182.32-312.96
							c-10.6-43.08-17.11-88-19.36-133.5c-7.7-155.77,34.78-304.7,119.61-419.34c84.9-114.73,202.03-181.4,329.84-187.71
							c263.71-13.11,491.1,238.1,507,559.79c2.22,44.9,0.24,89.71-5.89,133.18c-17.75,127.32-71.1,244.68-150.23,330.46
							c-80.4,87.16-184.53,138.12-293.23,143.49C1093.78,1301.04,1087.38,1301.2,1080.99,1301.2z M1062.14,136.84
							c-6.47,0-12.92,0.16-19.44,0.48c-126.73,6.26-242.92,72.42-327.18,186.29C631.17,437.6,588.94,585.72,596.6,740.68
							c2.24,45.28,8.72,89.97,19.26,132.84c30.31,123.88,94.68,234.39,181.24,311.16c89.08,79.01,193.78,117.9,302.91,112.54
							c107.77-5.33,211.05-55.88,290.81-142.36c78.64-85.26,131.68-201.95,149.33-328.57c6.1-43.26,8.07-87.84,5.86-132.52
							C1530.6,381.98,1315.49,136.84,1062.14,136.84z"/>
					</g>
				</g>
				<g>
					<g>
						<path style="fill:#712CE5;" d="M1093.02,1008.3l448.87-181.77c-0.93,6.74-2.2,13.54-3.08,20.23
							c-25.05,189.44-161.69,400.51-370.85,443.42c-217.6,44.64-395.25-86.11-487.71-248.71c-30.03-52.81-51.83-109.59-66.09-167.54
							L1093.02,1008.3z"/>
						<path d="M1082.97,1300.67c-71.83,0-142.06-18.75-206.67-55.6c-78.55-44.79-148.72-116.79-197.58-202.73
							c-29.16-51.29-51.46-107.8-66.27-167.99l-0.72-2.93l481.2,135.02l451.13-182.68c-0.99,7.72-2.46,15.53-3.49,23.23
							c-24.9,188.25-160.76,401.53-372.24,444.92C1139.78,1297.77,1111.25,1300.67,1082.97,1300.67z M616.58,876.45
							c14.74,58.77,36.66,113.99,65.19,164.16c48.55,85.39,118.26,156.92,196.27,201.41c89.29,50.92,189.42,66.98,289.56,46.44
							c209.88-43.06,344.73-254.91,369.46-441.93c0.75-5.71,1.78-11.5,2.65-17.22l-446.59,180.84l-0.58-0.16L616.58,876.45z"/>
					</g>
					<g>
						<path style="fill:#FFFFFF;" d="M1541.89,826.53c-2.15,15.98-5.04,32.05-8.33,47.7l-437.68,179.14L627.32,920.31
							c-2.41-7.53-4.73-15.15-6.96-22.78c-2.14-7.81-4.27-15.69-6.22-23.6l478.87,134.36L1541.89,826.53z"/>
						<path d="M1095.98,1055.23l-0.59-0.17L625.94,921.75l-0.29-0.9c-2.32-7.23-4.66-14.91-6.97-22.82
							c-2.09-7.63-4.28-15.71-6.24-23.67l-0.72-2.93l481.2,135.02l451.13-182.68c-2.52,18.71-5,32.77-8.96,51.74l-0.87,0.35
							L1095.98,1055.23z M628.71,918.88l467.06,132.63l436.24-178.56c3.37-16.32,5.45-27.82,7.7-43.64l-446.6,180.85l-0.58-0.16
							L616.58,876.44c1.76,6.96,3.66,13.97,5.48,20.62C624.26,904.6,626.5,911.94,628.71,918.88z"/>
					</g>
					<g>
						
							<ellipse transform="matrix(0.9988 -0.0494 0.0494 0.9988 -53.2763 43.2572)" style="fill:#FFBC00;" cx="848.5" cy="1099.46" rx="52.39" ry="46.86"/>
						<path d="M847.83,1148.11c-28.5,0-52.2-20.09-53.48-45.96c-1.32-26.78,21.86-49.76,51.69-51.23
							c29.83-1.54,55.16,19.11,56.49,45.89c1.32,26.77-21.86,49.76-51.69,51.23C849.83,1148.09,848.83,1148.11,847.83,1148.11z
							 M849.05,1054.36c-0.94,0-1.88,0.02-2.83,0.07c-27.89,1.38-49.57,22.71-48.34,47.55c1.22,24.83,24.9,43.86,52.8,42.55
							c27.88-1.38,49.57-22.71,48.34-47.55C897.83,1072.99,875.68,1054.36,849.05,1054.36z"/>
					</g>
				</g>
			</g>
			<g>
				<g>
					<g>
						<g>
							<g>
								<path style="fill:#FFFFFF;" d="M982.57,596.62c1.49,96.43-45.68,177.01-108.12,190.46c-5.5,1.26-11.17,1.87-16.86,1.98
									c-70.64,1.32-129.24-82.66-130.86-187.66c-1.62-104.87,54.34-190.99,124.98-192.31c5.69-0.11,11.38,0.3,16.91,1.35
									C931.43,421.54,981.08,500.19,982.57,596.62z"/>
								<path d="M855.95,790.83c-25.45,0-50.12-10.85-71.44-31.46c-36.3-35.08-58.56-94.13-59.55-157.95
									c-1.63-105.69,55.21-192.76,126.71-194.09c6.04-0.12,11.85,0.35,17.27,1.38c64.29,11.37,113.9,92.15,115.38,187.89
									c1.48,95.81-45.6,178.44-109.51,192.21c-5.37,1.22-11.16,1.9-17.2,2.02C857.06,790.82,856.51,790.83,855.95,790.83z
									 M853.45,410.83c-0.57,0-1.14,0.01-1.71,0.02c-69.57,1.3-124.86,86.77-123.26,190.52c0.97,62.91,22.83,121.03,58.47,155.47
									c21.1,20.39,45.51,30.97,70.6,30.46c5.8-0.11,11.35-0.76,16.5-1.94c62.33-13.42,108.21-94.55,106.75-188.72l0,0
									c-1.46-94.09-49.82-173.4-112.5-184.48C863.62,411.28,858.63,410.83,853.45,410.83z"/>
							</g>
							<g>
								<path d="M970.99,664.41l0,0.1c-17.04,64.4-52.96,111.62-96.57,121.91c-5.46,1.34-11.14,2.07-16.84,2.17
									c-44.63,0.71-84.62-36.78-108.51-94.31c-0.12-0.72-0.15-1.44-0.17-2.16c-2.51-70.51,45.65-129.55,107.53-131.83
									C912.42,558.24,960.51,603.5,970.99,664.41z"/>
								<path d="M856.35,790.37c-43.41,0-84.04-35.55-108.89-95.4l-0.11-0.38c-0.13-0.8-0.17-1.59-0.2-2.4
									c-2.53-71.38,46.46-131.33,109.22-133.65c55.75-2,105.65,43.34,116.35,105.57l0.04,0.59l-0.07,0.26
									c-17.69,66.84-54.27,112.89-97.87,123.18c-5.56,1.36-11.36,2.11-17.21,2.22C857.2,790.36,856.77,790.37,856.35,790.37z
									 M750.79,693.81c24.29,58.37,63.67,93.04,105.56,93.04c0.41,0,0.8,0,1.21-0.01c5.58-0.1,11.12-0.82,16.45-2.12
									c42.25-9.97,77.81-54.94,95.19-120.31c-10.51-60.35-58.93-104.47-112.71-102.34c-60.82,2.24-108.3,60.56-105.83,130
									C750.69,692.64,750.71,693.23,750.79,693.81z"/>
							</g>
						</g>
						<g>
							<g>
								
									<rect x="692.77" y="474.72" transform="matrix(0.324 -0.9461 0.9461 0.324 -18.6325 1005.8786)" width="3.52" height="82.52"/>
							</g>
							<g>
								
									<rect x="715.07" y="427.48" transform="matrix(0.5908 -0.8068 0.8068 0.5908 -83.6632 769.5436)" width="3.52" height="79.55"/>
							</g>
							<g>
								
									<rect x="687.88" y="529.4" transform="matrix(0.1765 -0.9843 0.9843 0.1765 7.7306 1147.4893)" width="3.52" height="79.45"/>
							</g>
						</g>
					</g>
					<g>
						<g>
							<g>
								<path style="fill:#FFFFFF;" d="M1417.33,573.29c1.49,96.43-45.68,177.01-108.12,190.46c-5.5,1.26-11.17,1.87-16.86,1.98
									c-70.64,1.32-129.24-82.66-130.86-187.66c-1.62-104.87,54.34-190.99,124.98-192.31c5.69-0.11,11.38,0.3,16.91,1.35
									C1366.2,398.21,1415.84,476.86,1417.33,573.29z"/>
								<path d="M1290.71,767.5c-25.45,0-50.11-10.85-71.43-31.46c-36.3-35.08-58.56-94.13-59.55-157.95
									c-1.64-105.69,55.21-192.76,126.71-194.09c6.07-0.11,11.85,0.35,17.27,1.38c64.29,11.37,113.9,92.15,115.38,187.89l0,0
									c1.48,95.81-45.6,178.44-109.51,192.21c-5.37,1.22-11.16,1.9-17.2,2.02C1291.83,767.5,1291.27,767.5,1290.71,767.5z
									 M1288.21,387.5c-0.57,0-1.14,0.01-1.7,0.02c-69.57,1.3-124.86,86.77-123.26,190.52c0.98,62.91,22.84,121.03,58.48,155.47
									c21.1,20.39,45.53,30.85,70.59,30.46c5.8-0.11,11.35-0.76,16.51-1.94c62.33-13.42,108.21-94.55,106.75-188.72l0,0
									c-1.46-94.09-49.82-173.4-112.5-184.48C1298.38,387.95,1293.4,387.5,1288.21,387.5z"/>
							</g>
							<g>
								<path d="M1405.76,641.08l0,0.1c-17.04,64.4-52.96,111.62-96.57,121.91c-5.46,1.34-11.14,2.07-16.84,2.17
									c-44.63,0.71-84.62-36.78-108.51-94.31c-0.12-0.72-0.15-1.44-0.17-2.16c-2.51-70.51,45.65-129.55,107.53-131.83
									C1347.18,534.91,1395.28,580.17,1405.76,641.08z"/>
								<path d="M1291.12,767.04c-43.42,0-84.04-35.55-108.9-95.4l-0.11-0.37c-0.14-0.8-0.17-1.6-0.2-2.4
									c-2.53-71.38,46.46-131.33,109.22-133.64c55.68-2.04,105.65,43.33,116.36,105.57l0.04,0.6l-0.07,0.25
									c-17.69,66.84-54.28,112.89-97.86,123.18c-5.55,1.36-11.35,2.1-17.21,2.22C1291.97,767.03,1291.54,767.04,1291.12,767.04z
									 M1185.55,670.48c24.53,58.93,64.41,93.6,106.78,93.03c5.6-0.11,11.13-0.82,16.45-2.12c42.25-9.97,77.81-54.94,95.2-120.32
									c-10.52-60.34-59.02-104.37-112.71-102.34c-60.82,2.24-108.3,60.56-105.83,130C1185.45,669.32,1185.47,669.9,1185.55,670.48
									z"/>
							</g>
						</g>
						<g>
							<g>
								
									<rect x="1396.18" y="460.1" transform="matrix(0.9095 -0.4157 0.4157 0.9095 -61.9081 639.3398)" width="82.52" height="3.52"/>
							</g>
							<g>
								
									<rect x="1370.66" y="413.74" transform="matrix(0.7442 -0.668 0.668 0.7442 83.2781 1048.4384)" width="79.55" height="3.52"/>
							</g>
							<g>
								
									<rect x="1407.85" y="512.4" transform="matrix(0.962 -0.2732 0.2732 0.962 -85.3966 415.0201)" width="79.45" height="3.52"/>
							</g>
						</g>
					</g>
				</g>
				<g>
					<g>
						<path d="M1190.09,875.64c-0.12,0.13-0.25,0.2-0.37,0.33c-41.93,33.71-98.73,43.57-150.63,31.68
							c-18.5-4.23-38.81-11.77-56.8-22.69c-28.09-16.91-50.44-42.08-51.04-75.75c-0.47-31.2,23.03-40.85,50.59-41.98
							c24.32-0.97,51.89,4.71,68.84,8.22c14.71,2.94,29.45,4.86,44.41,3.28c24.15-2.42,45.66-14.62,69.4-18.18
							c4.69-0.71,10.01-1.18,15.67-1.09c16.28,0.03,34.81,3.5,45.71,13.09C1258.3,801.42,1213.63,856.64,1190.09,875.64z"/>
						<path d="M1081.65,914.24c-14.25,0-28.68-1.6-42.97-4.88c-20.25-4.63-40.61-12.76-57.32-22.9
							c-23.29-14.03-51.2-38.81-51.89-77.22c-0.41-27.61,17.17-42.34,52.27-43.77c24.66-0.96,52.58,4.81,69.27,8.26
							c12.02,2.4,27.88,4.94,43.87,3.25c12.65-1.27,24.84-5.35,36.64-9.31c10.53-3.53,21.41-7.17,32.69-8.86
							c5.39-0.82,10.73-1.2,15.96-1.12c9.47,0.02,33.05,1.38,46.84,13.53c8.23,7.32,12.26,16.75,11.99,28.02
							c-0.7,29.04-29.58,62.99-47.7,77.66l-0.32,0.27C1160.91,901.38,1122,914.24,1081.65,914.24z M987.45,768.88
							c-1.87,0-3.72,0.04-5.55,0.11c-33.29,1.36-49.28,14.5-48.9,40.19c0.66,36.79,27.65,60.7,50.19,74.27
							c16.4,9.96,36.39,17.94,56.28,22.48c53.68,12.3,109.44,0.59,149.14-31.33l0.37-0.33c18.93-15.28,45.88-48.67,46.51-75.1
							c0.25-10.19-3.39-18.7-10.81-25.3c-9.08-8-25.32-12.61-44.55-12.65c-5.05-0.07-10.2,0.29-15.4,1.08
							c-10.97,1.64-21.71,5.24-32.09,8.72c-11.98,4.01-24.36,8.16-37.39,9.47c-16.45,1.76-32.66-0.85-44.93-3.3
							C1035.03,774.01,1010.24,768.88,987.45,768.88z"/>
					</g>
					<g>
						<path style="fill:#FF4568;" d="M1190.09,875.64c-0.12,0.13-0.25,0.2-0.37,0.33c-41.93,33.71-98.73,43.57-150.63,31.68
							c-18.5-4.23-38.81-11.77-56.8-22.69c19.53-29.94,57.31-51.26,101.56-53.26C1128.28,829.64,1167.9,847.42,1190.09,875.64z"/>
						<path d="M1081.65,914.24c-14.25,0-28.68-1.6-42.97-4.88c-20.25-4.63-40.61-12.76-57.32-22.9l-1.55-0.94l0.99-1.52
							c20.49-31.4,59.93-52.12,102.95-54.05c43.18-2.01,84.5,15.08,107.71,44.61l0.91,1.16l-1.4,1.47
							C1160.91,901.38,1122,914.24,1081.65,914.24z M984.77,884.39c16.09,9.51,35.44,17.13,54.7,21.54
							c53.24,12.19,108.52,0.78,148.15-30.55c-22.71-27.81-62.27-43.84-103.7-41.93C1042.72,835.31,1004.92,854.78,984.77,884.39z"
							/>
					</g>
				</g>
				<g>
					<path d="M1136.67,698.74c1,20.18-24.43,37.83-56.78,39.43c-32.36,1.6-59.39-13.46-60.39-33.64
						c-1-20.18,24.43-37.83,56.78-39.43C1108.64,663.5,1135.68,678.56,1136.67,698.74z"/>
					<path d="M1075.25,740.04c-31.15,0-56.51-15.32-57.5-35.43c-1.04-21.12,25.18-39.63,58.45-41.27
						c15.94-0.82,31.21,2.36,42.9,8.87c11.96,6.66,18.83,16.05,19.34,26.44l0,0c0.51,10.39-5.39,20.41-16.64,28.22
						c-10.99,7.63-25.84,12.27-41.82,13.06C1078.39,740,1076.81,740.04,1075.25,740.04z M1081.02,666.74
						c-1.54,0-3.09,0.04-4.65,0.11c-31.34,1.55-56.06,18.41-55.12,37.59c0.95,19.17,27.23,33.51,58.55,31.97
						c15.32-0.76,29.52-5.18,39.98-12.43c10.21-7.09,15.58-16.02,15.13-25.15l0,0c-0.45-9.13-6.68-17.49-17.54-23.54
						C1107.39,669.72,1094.62,666.74,1081.02,666.74z"/>
				</g>
				<g>
					<g>
						<g>
							<g>
								<g>
									<path style="fill:#FF9DDE;" d="M732.74,342.03c14.55-16.25,58.62-60.98,122.56-60.3c58.3,0.62,100.17,38.64,115.89,54.63
										L732.74,342.03z"/>
									<path d="M734.05,343.2l-2.62-2.35c20.44-22.82,63.39-60.89,122.42-60.89c0.49,0,0.97,0,1.46,0.01
										c55.28,0.59,97.11,34.81,117.13,55.15l-2.51,2.47c-19.64-19.96-60.64-53.53-114.66-54.1c-0.47,0-0.95-0.01-1.42-0.01
										C796.18,283.48,754.09,320.81,734.05,343.2z"/>
								</g>
								<g>
									<path d="M732.26,341.6c11.85-19.95,28.77-37.11,49.03-49.9c10.02-6.63,21.25-11.45,32.84-15.25
										c11.67-3.55,23.9-5.71,36.2-5.99l4.61-0.08c1.54,0.02,3.07,0.17,4.6,0.25l4.6,0.3c1.53,0.1,3.07,0.17,4.58,0.43l9.11,1.3
										c3,0.6,5.99,1.26,8.95,2.02c0.74,0.19,1.48,0.36,2.22,0.57l2.18,0.7l4.35,1.41c2.92,0.87,5.73,2.02,8.53,3.15l4.21,1.68
										c1.37,0.63,2.74,1.26,4.08,1.95c2.7,1.35,5.39,2.68,7.96,4.24c2.59,1.52,5.21,2.94,7.68,4.62
										c2.49,1.65,5.04,3.17,7.35,5.05c2.35,1.82,4.75,3.55,6.98,5.49c2.26,1.9,4.56,3.73,6.67,5.79
										c8.53,8.09,16.34,16.81,22.64,26.59l-0.91,0.89c-8.01-7.99-16.62-15.36-25.79-21.96c-9.12-6.65-18.8-12.54-28.99-17.37
										c-20.32-9.66-42.8-15.16-65.31-14.32c-11.25,0.05-22.44,1.92-33.27,4.88c-5.46,1.37-10.72,3.4-16,5.36l-7.73,3.4
										c-2.56,1.18-5.02,2.55-7.54,3.82c-9.93,5.33-19.33,11.65-28.14,18.71c-8.86,7-17.12,14.77-24.75,23.13L732.26,341.6z"/>
								</g>
							</g>
						</g>
					</g>
					<g>
						<g>
							<g>
								<g>
									<path style="fill:#FF9DDE;" d="M1138.62,342.03c14.55-16.25,58.62-60.98,122.56-60.3c58.3,0.62,100.17,38.64,115.89,54.63
										L1138.62,342.03z"/>
									<path d="M1139.94,343.2l-2.62-2.35c20.43-22.82,63.39-60.89,122.42-60.89c0.48,0,0.97,0,1.46,0.01
										c55.28,0.59,97.12,34.81,117.13,55.15l-2.51,2.47c-19.64-19.96-60.64-53.53-114.66-54.1c-0.48,0-0.95-0.01-1.43-0.01
										C1202.07,283.48,1159.98,320.81,1139.94,343.2z"/>
								</g>
								<g>
									<path d="M1138.15,341.6c11.85-19.95,28.77-37.11,49.03-49.9c10.02-6.63,21.25-11.45,32.84-15.25
										c11.67-3.55,23.9-5.71,36.2-5.99l4.61-0.08c1.54,0.02,3.07,0.17,4.6,0.25l4.6,0.3c1.53,0.1,3.07,0.17,4.58,0.43l9.11,1.3
										c3,0.6,5.99,1.26,8.95,2.02c0.74,0.19,1.48,0.36,2.22,0.57l2.18,0.7l4.35,1.41c2.92,0.87,5.73,2.02,8.53,3.15l4.21,1.68
										c1.37,0.63,2.74,1.26,4.08,1.95c2.7,1.35,5.39,2.68,7.96,4.24c2.59,1.52,5.21,2.94,7.68,4.62
										c2.49,1.65,5.04,3.17,7.35,5.05c2.35,1.82,4.75,3.55,6.98,5.49c2.26,1.9,4.56,3.73,6.67,5.79
										c8.53,8.09,16.34,16.81,22.64,26.59l-0.91,0.89c-8.01-7.99-16.63-15.36-25.79-21.96c-9.12-6.65-18.8-12.54-28.99-17.37
										c-20.32-9.66-42.8-15.16-65.31-14.32c-11.25,0.05-22.44,1.92-33.27,4.88c-5.46,1.37-10.72,3.4-16,5.36l-7.73,3.4
										c-2.56,1.18-5.02,2.55-7.54,3.82c-9.93,5.33-19.33,11.65-28.14,18.71c-8.86,7-17.12,14.77-24.75,23.13L1138.15,341.6z"/>
								</g>
							</g>
						</g>
					</g>
				</g>
			</g>
		</g>
		<g>
			<g>
				<path style="fill:#FFFFFF;" d="M794.47,1810.96c11.6,19.24,26.33,35.5,43.23,48.34c40.68,31.24,93.66,43,144.01,31.69
					c17.83-3.93,35.28-10.85,51.77-20.79c16.48-9.94,30.75-22.14,42.56-36.07c37-43.21,50.59-102.38,35.88-157.58
					c-4.06-15.56-10.47-30.89-19.2-45.36c-13.78-22.86-31.95-41.44-52.86-55.22c-38.93-25.87-87.2-35.15-133.34-25.04
					c-18.17,3.9-35.97,10.87-52.8,21.02s-31.31,22.63-43.25,36.87c-33.13,39.23-47.16,91.31-38.49,141.69
					C775.51,1771.32,782.94,1791.83,794.47,1810.96z"/>
				<path d="M943.37,1897.01c-38.27,0-75.75-12.52-106.74-36.32c-17.42-13.24-32.12-29.67-43.67-48.83l0,0
					c-11.41-18.93-19.05-39.47-22.72-61.06c-8.82-51.25,5.35-103.41,38.88-143.11c12.26-14.63,26.95-27.16,43.68-37.25
					c16.72-10.08,34.67-17.22,53.34-21.24c46.18-10.12,95.28-0.9,134.69,25.3c21.77,14.34,39.73,33.11,53.39,55.78
					c8.71,14.45,15.24,29.86,19.39,45.83c14.87,55.79,1.32,115.29-36.24,159.17c-12.1,14.27-26.57,26.53-42.99,36.43
					c-16.43,9.9-34.03,16.96-52.29,21C969.24,1895.59,956.25,1897.01,943.37,1897.01z M795.97,1810.05
					c11.32,18.78,25.72,34.88,42.79,47.85c40.6,31.18,92.56,42.62,142.56,31.37c17.9-3.95,35.14-10.87,51.24-20.58
					c16.09-9.7,30.27-21.71,42.12-35.69c36.82-43,50.1-101.31,35.52-155.99c-4.08-15.64-10.47-30.75-19-44.91
					c-13.39-22.22-31-40.6-52.33-54.66c-38.63-25.67-86.74-34.71-132-24.79c-18.3,3.93-35.88,10.94-52.27,20.81
					c-16.39,9.88-30.79,22.16-42.8,36.5c-32.86,38.91-46.75,90.03-38.11,140.26C777.3,1771.37,784.8,1791.5,795.97,1810.05
					L795.97,1810.05z"/>
			</g>
			<g>
				<g>
					<polygon points="944.6,1794.42 1007.63,1756.86 1006.62,1683.51 942.59,1647.7 879.56,1685.25 880.57,1758.61 					"/>
					<path d="M944.63,1796.45l-65.81-36.79l-1.04-75.4l64.77-38.59l65.81,36.79l1.03,75.39L944.63,1796.45z M882.31,1757.57
						l62.26,34.82l61.28-36.51l-0.98-71.32l-62.26-34.82l-61.28,36.51L882.31,1757.57z"/>
				</g>
				<g>
					<path d="M794.47,1810.96c11.6,19.24,26.33,35.5,43.23,48.34l4.94-2.98l-1.01-73.4l-64.03-35.8l-5.63,3.39
						C775.51,1771.32,782.94,1791.83,794.47,1810.96z"/>
					<path d="M837.59,1861.43l-0.95-0.72c-17.43-13.24-32.13-29.67-43.68-48.84l0,0c-11.41-18.93-19.05-39.47-22.72-61.06l-0.2-1.18
						l7.53-4.54l65.81,36.79l1.04,75.42L837.59,1861.43z M795.97,1810.05c11.11,18.43,25.19,34.28,41.84,47.12l3.05-1.84
						l-0.98-71.37l-62.25-34.81l-3.72,2.24C777.58,1772.12,785,1791.85,795.97,1810.05L795.97,1810.05z"/>
				</g>
				<g>
					<path d="M810.46,1608.82l33.56,18.77l63.05-37.53l-0.56-39.13c-18.17,3.9-35.97,10.87-52.8,21.02
						C836.88,1582.1,822.4,1594.59,810.46,1608.82z"/>
					<path d="M844.05,1629.63l-36.3-20.31l1.36-1.63c12.26-14.63,26.96-27.17,43.69-37.25c16.72-10.08,34.67-17.22,53.34-21.24
						l2.1-0.45l0.61,42.3L844.05,1629.63z M813.19,1608.33l30.8,17.23l61.31-36.5l-0.52-35.95c-17.54,4-34.41,10.84-50.17,20.34
						C838.85,1582.97,824.92,1594.69,813.19,1608.33z"/>
				</g>
				<g>
					<path d="M981.71,1890.99c17.83-3.93,35.28-10.85,51.77-20.79c16.48-9.94,30.75-22.14,42.56-36.07l-31.8-17.8l-63.05,37.53
						L981.71,1890.99z"/>
					<path d="M979.98,1893.17l-0.57-40.29l64.8-38.57l34.55,19.34l-1.38,1.63c-12.11,14.28-26.57,26.54-43,36.44
						c-16.43,9.9-34.03,16.96-52.29,21L979.98,1893.17z M982.96,1854.86l0.48,33.92c17.14-4.02,33.66-10.77,49.13-20.09
						c15.47-9.32,29.16-20.78,40.73-34.07l-29.03-16.25L982.96,1854.86z"/>
				</g>
				<g>
					<path d="M1040.84,1644.92l64.03,35.8l7.04-4.17c-4.06-15.56-10.47-30.89-19.2-45.36c-13.78-22.86-31.95-41.44-52.86-55.22
						L1040.84,1644.92z"/>
					<path d="M1104.89,1682.75l-65.8-36.79l-1.05-73.28l2.78,1.83c21.77,14.35,39.74,33.11,53.4,55.79
						c8.71,14.45,15.24,29.86,19.39,45.83l0.34,1.28L1104.89,1682.75z M1042.59,1643.88l62.26,34.81l5.02-2.97
						c-4.09-15.18-10.36-29.85-18.66-43.62c-12.81-21.24-29.46-38.99-49.55-52.79L1042.59,1643.88z"/>
				</g>
			</g>
		</g>
	</g>
</g>
</svg>
