<?xml version="1.0" encoding="iso-8859-1"?>
<!-- Generator: Adobe Illustrator 30.0.0, SVG Export Plug-In . SVG Version: 9.03 Build 0)  -->
<svg version="1.1" id="Capa_1" xmlns="http://www.w3.org/2000/svg" xmlns:xlink="http://www.w3.org/1999/xlink" x="0px" y="0px"
	 viewBox="0 0 2000 2000" style="enable-background:new 0 0 2000 2000;" xml:space="preserve">
<g>
	<g>
		<g id="XMLID_34_">
			<rect x="100" y="1482.16" style="fill:#00C793;" width="1800" height="417.62"/>
		</g>
		<g style="opacity:0.27;">
			<g style="opacity:0.27;">
				<rect x="1703.8" y="1482.15" style="fill:#FFFFFF;" width="196.2" height="417.62"/>
			</g>
			<g style="opacity:0.27;">
				<rect x="983.67" y="1482.15" style="fill:#FFFFFF;" width="209.29" height="417.62"/>
			</g>
			<g style="opacity:0.27;">
				<rect x="640.14" y="1482.15" style="fill:#FFFFFF;" width="206.67" height="417.62"/>
			</g>
			<g style="opacity:0.27;">
				<rect x="333.33" y="1482.15" style="fill:#FFFFFF;" width="169.96" height="417.62"/>
			</g>
			<g style="opacity:0.27;">
				<rect x="100" y="1482.15" style="fill:#FFFFFF;" width="96.48" height="417.62"/>
			</g>
			<g style="opacity:0.27;">
				<rect x="1329.82" y="1482.15" style="fill:#FFFFFF;" width="205.81" height="417.62"/>
			</g>
		</g>
		<g>
			<g>
				<rect x="100" y="1524.37" style="fill:#FFFFFF;" width="1800" height="18.18"/>
			</g>
			<g>
				<rect x="1450.76" y="1524.37" style="fill:#FFFFFF;" width="17.95" height="374.91"/>
			</g>
		</g>
	</g>
	<g>
		<g>
			<g>
				<path style="fill:#FFFFFF;" d="M170.88,1613.09c-1.71,21.03,0.61,41.49,6.45,60.54c13.88,46.11,47.81,84.12,92.38,103.09
					c15.75,6.78,32.84,11.07,50.85,12.53c18.01,1.47,35.57-0.01,52.2-4.16c51.88-12.65,94.68-50.3,113.72-100.42
					c5.44-14.09,8.95-29.28,10.24-45.09c2.03-24.98-1.63-49.09-10.02-71.06c-15.49-41.06-47.19-74.59-87.9-92.17
					c-15.98-6.98-33.37-11.43-51.76-12.92c-18.39-1.49-36.27,0.08-53.17,4.4c-46.75,11.74-86,43.74-107,86.88
					C178.16,1572.49,172.58,1592.19,170.88,1613.09z"/>
				<path d="M334.08,1791.56c-4.54,0-9.09-0.19-13.65-0.56c-17.96-1.45-35.25-5.72-51.4-12.67c-45.2-19.24-79.23-57.22-93.37-104.19
					c-6.03-19.66-8.22-40.25-6.52-61.19v0c1.68-20.68,7.12-40.54,16.16-59.03c21.38-43.92,60.8-75.93,108.15-87.82
					c17.38-4.43,35.48-5.92,53.74-4.44c18.28,1.48,35.88,5.88,52.33,13.06c40.76,17.61,73.15,51.57,88.84,93.16
					c8.73,22.88,12.14,47.05,10.12,71.83c-1.29,15.8-4.77,31.13-10.35,45.58c-19.27,50.7-62.24,88.65-114.95,101.5
					C360.47,1789.97,347.37,1791.56,334.08,1791.56z M333.54,1464.62c-13.33,0-26.47,1.63-39.23,4.89
					c-46.35,11.64-84.93,42.97-105.86,85.95c-8.85,18.09-14.17,37.53-15.82,57.77l0,0c-1.67,20.5,0.48,40.65,6.38,59.88
					c13.84,45.99,47.15,83.15,91.39,101.98c15.81,6.8,32.73,10.97,50.3,12.4c17.59,1.42,34.95,0.05,51.64-4.11
					c51.6-12.58,93.65-49.72,112.51-99.35c5.46-14.15,8.87-29.15,10.13-44.61c1.97-24.25-1.36-47.9-9.91-70.29
					c-15.36-40.72-47.06-73.95-86.96-91.19c-16.09-7.03-33.32-11.34-51.21-12.79C342.43,1464.8,337.98,1464.62,333.54,1464.62z"/>
			</g>
			<g>
				<g>
					<polygon points="294.37,1682.78 362.99,1688.71 402.43,1632.25 373.26,1569.86 304.64,1563.93 265.2,1620.39 					"/>
					<path d="M363.85,1690.55l-70.64-6.1l-30.04-64.23l40.61-58.13l70.64,6.1l30.04,64.23L363.85,1690.55z M295.54,1681.11
						l66.59,5.76l38.28-54.79l-28.32-60.55l-66.59-5.76l-38.28,54.8L295.54,1681.11z"/>
				</g>
				<g>
					<path d="M170.88,1613.09c-1.71,21.03,0.61,41.49,6.45,60.54l5.4,0.44l39.46-56.49l-29.17-62.39l-6.15-0.5
						C178.16,1572.49,172.58,1592.19,170.88,1613.09z"/>
					<path d="M183.59,1675.89l-7.59-0.61l-0.35-1.14c-6.03-19.66-8.22-40.25-6.52-61.2c1.68-20.68,7.12-40.54,16.16-59.03l0.53-1.08
						l8.36,0.68l30.03,64.23L183.59,1675.89z M178.67,1671.97l3.19,0.26l38.31-54.83l-28.31-60.54l-3.93-0.32
						c-8.54,17.78-13.68,36.85-15.29,56.69l0,0C171,1633.32,173.03,1653.08,178.67,1671.97z"/>
				</g>
				<g>
					<path d="M293.88,1467.8l15.28,32.7l68.63,5.96l21.02-30.13c-15.98-6.98-33.37-11.43-51.76-12.92
						C328.66,1461.91,310.78,1463.49,293.88,1467.8z"/>
					<path d="M378.65,1508.3l-70.66-6.13l-16.61-35.54l2.06-0.52c17.38-4.43,35.46-5.92,53.74-4.44
						c18.28,1.48,35.88,5.88,52.33,13.06l1.97,0.86L378.65,1508.3z M310.32,1498.84l66.61,5.78l19.2-27.52
						c-15.52-6.53-32.07-10.54-49.23-11.94c-17.18-1.38-34.17-0.11-50.53,3.84L310.32,1498.84z"/>
				</g>
				<g>
					<path d="M269.72,1776.71c15.75,6.78,32.84,11.07,50.85,12.53c18.01,1.47,35.57-0.01,52.2-4.16l-14.47-30.99l-68.63-5.95
						L269.72,1776.71z"/>
					<path d="M334.08,1791.56c-4.53,0-9.08-0.19-13.65-0.56c-17.96-1.45-35.25-5.72-51.4-12.67l-1.98-0.85l21.77-31.18l70.65,6.13
						l15.81,33.85l-2.07,0.51C360.47,1789.96,347.37,1791.56,334.08,1791.56z M272.4,1775.94c15.23,6.31,31.47,10.19,48.3,11.56
						c16.87,1.36,33.52,0.16,49.56-3.61l-13.13-28.13l-66.61-5.78L272.4,1775.94z"/>
				</g>
				<g>
					<path d="M449.67,1621.59l29.17,62.39l7.65,0.68c5.44-14.09,8.95-29.28,10.24-45.09c2.03-24.98-1.63-49.09-10.02-71.06
						L449.67,1621.59z"/>
					<path d="M487.66,1686.53l-9.98-0.89l-30.03-64.22l39.52-56.64l1.18,3.1c8.74,22.89,12.15,47.06,10.13,71.83
						c-1.29,15.8-4.77,31.13-10.35,45.58L487.66,1686.53z M480,1682.32l5.32,0.48c5.18-13.78,8.43-28.36,9.65-43.37
						c1.88-23.12-1.06-45.7-8.75-67.16l-34.54,49.5L480,1682.32z"/>
				</g>
			</g>
		</g>
		<g>
			<g>
				<g>
					<path d="M706.15,802.78c-43.9,23.66-85.16,51.42-127.55,77.59c-30.48,18.81-85.75,62.32-123.89,54.52
						c-42.21-8.63-69.06-80.46-84.64-116.26c-20.6-47.33-34.69-97.06-49.06-146.54c-10.25-35.27-66.59-23.84-56.24,11.78
						c17.67,60.79,35.13,122.4,62.63,179.65c21.05,43.84,48.07,103.06,96.17,122.4c46.15,18.55,92.59-3.53,132.88-26.03
						c59.64-33.31,115.21-73.28,175.37-105.7C764.34,836.65,738.78,785.19,706.15,802.78z"/>
				</g>
				<g>
					<g>
						<path style="fill:#FFFFFF;" d="M331.6,605.35c-0.26-0.1,0.69-7.84-1.93-15.62c-3.93-11.7-14.82-26.24-24.41-34.21
							c-8.38-6.96-19.14-10.66-30.07-7.56c-12.07,3.42-17.63,16.34-15.17,28.09c-0.87-0.91-2.22-2.15-4.04-3.36
							c-1.17-0.78-2.05-1.22-2.3-1.33c-3.47-1.57-7.18-2.65-10.98-3.04c-8.84-0.91-17.43,2.84-23.34,9.38
							c-6.72,7.45-8.47,17.06-9.9,26.66c-0.27-0.05-3.13-0.72-3.4-0.76c-18.26-3.03-33.34,10.4-35.72,28.76
							c-5.71,43.84,41.75,69.9,41.75,69.9c-9.28,64.47,48.77,59.24,48.77,59.24c3.61,38.96,42.14,35.26,97.14-4.14
							c55-39.39,0.81-59.03,0.81-59.03C416.94,637.32,346.75,611.11,331.6,605.35z"/>
						<path d="M287.56,790.62c-4.86,0-9.18-0.84-12.9-2.53c-8.69-3.97-13.86-12.29-15.37-24.74c-5.92,0.19-25.33-0.31-38.27-13.96
							c-9.88-10.42-13.52-25.96-10.83-46.2c-7.07-4.27-46.9-30.25-41.59-71.05c1.31-10.05,6.38-19.02,13.92-24.61
							c6.83-5.07,15.29-7.08,23.84-5.65c0.12,0.02,0.87,0.19,1.66,0.36c1.53-9.81,3.57-18.53,10.05-25.71
							c6.47-7.16,15.7-10.91,24.82-9.95c3.84,0.39,7.71,1.47,11.52,3.18c0.11,0.05,1.1,0.5,2.54,1.46c0.25,0.17,0.5,0.34,0.75,0.51
							c-0.59-11.9,6.19-22.41,17.02-25.48c10.66-3.02,21.91-0.2,31.67,7.9c10.43,8.67,21.16,23.72,24.95,35.01
							c2.09,6.21,2.01,12.32,1.97,14.93c0,0,0,0.01,0,0.02c11.63,4.43,43.31,17.03,49.06,42.35c3.49,15.4-3.41,32.61-20.54,51.21
							c5.91,2.63,20.55,10.43,22.4,23.84c1.6,11.61-6.88,24.15-25.2,37.27C329.83,779.7,305.13,790.62,287.56,790.62z
							 M262.45,759.59l0.16,1.75c1.12,12.04,5.66,19.96,13.51,23.55c15.92,7.28,44.63-3.02,80.85-28.95
							c17.17-12.3,25.17-23.71,23.77-33.93c-1.97-14.39-22.33-21.94-22.54-22.02l-2.52-0.92l1.85-1.95
							c17.53-18.4,24.73-35.18,21.4-49.87c-5.47-24.11-37.26-36.19-47.7-40.16l-0.27-0.11c-1.2-0.47-1.18-1.5-1.17-2.93
							c0.04-2.43,0.11-8.12-1.79-13.77c-3.61-10.75-13.87-25.12-23.87-33.42c-8.84-7.35-18.95-9.92-28.47-7.22
							c-11.88,3.36-16.05,15.93-13.93,26.04l1.25,5.98l-4.24-4.41c-1.1-1.14-2.36-2.19-3.74-3.11c-1.04-0.69-1.83-1.09-2.05-1.18
							c-3.46-1.56-6.97-2.54-10.44-2.9c-7.93-0.81-16.12,2.47-21.85,8.81c-6.23,6.9-7.97,15.74-9.46,25.74l-0.26,1.79l-1.78-0.32
							c-0.13-0.02-0.82-0.18-1.56-0.35c-0.78-0.18-1.62-0.37-1.82-0.41c-7.7-1.28-15.02,0.45-21.16,5.01
							c-6.77,5.03-11.34,13.13-12.53,22.24c-5.49,42.17,40.39,67.88,40.85,68.13l1.07,0.59l-0.17,1.2
							c-2.84,19.69,0.44,34.65,9.74,44.45c13.93,14.69,36.9,12.8,37.14,12.78L262.45,759.59z M331.66,605.18l-0.07,0.18l0.1-0.18
							L331.66,605.18z"/>
					</g>
					<g>
						<g>
							<g>
								<path style="fill:#FFFFFF;" d="M189.15,656.02c0,0,55.64,49.54,70.2,19.26c14.77-30.72-49.88-70.91-49.88-70.91
									L189.15,656.02z"/>
								<path d="M243.64,686.83c-22.25,0-54.22-28.22-55.66-29.5l2.34-2.62c0.36,0.32,36.64,32.37,57.08,28.26
									c4.69-0.94,8.08-3.71,10.37-8.45c13.92-28.95-48.59-68.26-49.23-68.66l1.85-2.99c2.69,1.68,65.82,41.39,50.54,73.16
									c-2.75,5.73-7.07,9.22-12.84,10.37C246.66,686.7,245.17,686.83,243.64,686.83z"/>
							</g>
							<g>
								<path style="fill:#FFFFFF;" d="M222.95,613.94c43.05,32.94,37.33,61.26,37.33,61.26c83.37-10.78-1.38-100.42-1.38-100.42
									c28.2,29.81,35.6,54.31,35.6,54.31c70.7-10.31,25.21-70.07-1.47-80.18L222.95,613.94z"/>
								<path d="M258.08,677.25l0.47-2.4c0.05-0.27,4.84-27.75-36.67-59.52l2.13-2.8c36.76,28.13,38.67,52.93,38.25,60.6
									c17.28-2.63,27.87-9.11,31.49-19.26c10.1-28.33-35.25-76.94-36.13-77.88c0,0-0.01-0.01-0.01-0.01l0,0l2.55-2.42
									c24.62,26.02,33.47,47.8,35.52,53.55c21.27-3.39,33.23-11.9,34.62-24.64c2.17-19.92-21.39-45.68-37.91-51.94l1.24-3.29
									c17.46,6.62,42.58,33.48,40.16,55.61c-1.11,10.13-8.53,23.06-37.39,27.7c2.6,8.63,3.29,17.1,0.66,24.49
									c-4.26,11.93-16.56,19.3-36.57,21.88L258.08,677.25z"/>
							</g>
						</g>
						<g>
							<path style="fill:#FFFFFF;" d="M362.47,700.06c12.59-15.91,17.58-31.73,18.84-39.71c3.21-20.35-11.57-34.74-34.52-47.21
								c-30-16.31-45.73-20.24-62.57-22.46c-12.01-1.58-24.31,4.65-28.73,15.93c-12.73,32.5,54.42,60.3,54.42,60.3
								s-57.31,27.24-4.57,66.11L362.47,700.06z"/>
							<path d="M304.31,734.44c-16.38-12.07-24.09-24.39-22.91-36.63c1.53-15.86,17.46-26.69,24.5-30.74
								c-13.78-6.27-63.69-31.34-52.04-61.1c4.54-11.61,17.42-18.76,30.6-17.04c17.95,2.37,34.05,6.83,63.17,22.66
								c17.06,9.27,39.3,24.43,35.41,49.02c-1.55,9.82-7.41,25.63-19.2,40.53l-2.75-2.18c11.37-14.36,17-29.51,18.48-38.89
								c2.73-17.28-7.64-31.28-33.62-45.39c-28.65-15.57-44.41-19.95-61.96-22.26c-11.61-1.53-22.9,4.71-26.86,14.83
								c-11.96,30.52,52.8,57.77,53.46,58.04l3.65,1.51l-3.57,1.7c-0.24,0.12-24.06,11.66-25.78,29.66
								c-1.04,10.92,6.19,22.17,21.5,33.45L304.31,734.44z"/>
						</g>
					</g>
					<g>
						<g>
							<path d="M261.15,763.43l-0.04-3.52c10.21-0.1,22.76-4.33,37.3-12.55l1.73,3.06C285.08,758.95,271.96,763.32,261.15,763.43z"
								/>
						</g>
						<g>
							<path d="M325.73,738.86l-1.5-3.18c18.07-8.48,30.77-27.91,36.87-37.25l2.97,1.88C357.77,709.96,344.7,729.96,325.73,738.86z"
								/>
						</g>
					</g>
				</g>
			</g>
			<g>
				<path style="fill:#00BEFB;" d="M563.58,1028.3l-73.01-142.11c0,0,199.7-146.46,245.15-30.3
					C763.5,926.85,563.58,1028.3,563.58,1028.3z"/>
				<path d="M562.81,1030.65l-0.8-1.55l-73.69-143.45l1.21-0.89c5.23-3.84,128.98-93.75,203.41-72.12
					c20.78,6.03,35.72,20.36,44.42,42.6c11.84,30.26-13.81,68.92-76.26,114.87c-46.09,33.92-96.23,59.49-96.73,59.75L562.81,1030.65
					z M492.83,886.73l71.51,139.2c18.58-9.69,195.35-103.99,169.75-169.4c-8.28-21.17-22.46-34.79-42.13-40.5
					C622.99,795.99,506.04,877.31,492.83,886.73z"/>
			</g>
			<g>
				<g>
					<path d="M1481.9,1508.83c-54.04-7.67-107.5-18.15-161.01-28.79c-52.02-10.35-114.95-15.96-160.92-43.77
						c-47.98-29.02-71.77-80.51-45.01-131.88c24.94-47.87,58.43-91.78,89.87-135.45c28.19-39.13-36.27-77.23-64.26-38.37
						c-38.09,52.89-86.08,109.68-106.48,172.53c-19.8,60.99,5.44,126.1,50.44,169.24c49.68,47.63,118.37,60.45,183.57,73.34
						c70.54,13.95,140.94,27.88,212.16,37.99C1527.91,1590.43,1529.02,1515.51,1481.9,1508.83z"/>
				</g>
				<g>
					<g>
						<path style="fill:#712CE5;" d="M1428.48,1536.31c0,0-53.54,4.82-70.8,25.43c-10.21,12.19,1.99,31.25,17.35,27.85l48.21-10.69
							c2.81-7.76,5.55-17.63,5.85-29.6C1429.21,1544.59,1428.95,1540.24,1428.48,1536.31z"/>
						<path d="M1371.43,1591.74c-6.51,0-12.65-3.5-16.34-9.58c-4.29-7.07-3.81-15.53,1.23-21.55
							c17.53-20.92,69.78-25.85,71.99-26.05l1.7-0.15l0.2,1.69c0.53,4.37,0.74,8.83,0.63,13.24c-0.33,13.19-3.55,23.52-5.95,30.14
							l-0.33,0.91l-49.16,10.9C1374.08,1591.6,1372.75,1591.74,1371.43,1591.74z M1426.92,1538.24c-9.22,1.04-53.01,6.85-67.9,24.63
							c-4.93,5.88-3.71,12.88-0.92,17.46c3.65,6,10.13,8.97,16.55,7.54l47.27-10.48c2.27-6.41,5.12-16.04,5.42-28.13
							C1427.43,1545.59,1427.29,1541.89,1426.92,1538.24z"/>
					</g>
					<g>
						<path style="fill:#FF4568;" d="M1518.1,1469.93c4.57,4.24,8.45,9.51,11.56,14.26c13.78,21.04,73.84,217.89,60.84,231.23
							c-33.8,34.7-83.53-60.19-88.97-69.53c0,0-29.23-50.14-80.1-67.05c0,0,25.1-45.14-20.01-86.36
							c-1.82-1.65,63.03-31.85,99.19-30.85C1507.2,1461.81,1513.07,1465.26,1518.1,1469.93z"/>
						<path d="M1574.04,1724.77c-1.05,0-2.12-0.07-3.2-0.21c-19.54-2.57-42.89-27.9-69.41-75.26c-0.62-1.12-1.1-1.97-1.42-2.52
							c-0.29-0.49-29.51-49.77-79.14-66.26l-2-0.67l1.02-1.85c0.06-0.11,6.12-11.23,6.7-27.1c0.77-21.21-8.09-40.43-26.35-57.11
							l-0.9-0.82l0.43-1.29c1.97-4.9,64.78-31.82,99.17-31.82c0.58,0,1.15,0.01,1.72,0.02c6.29,0.18,12.56,3.12,18.63,8.77l0,0
							c3.93,3.65,7.8,8.42,11.84,14.58c12.15,18.55,75.57,218.09,60.63,233.42C1586.49,1722.05,1580.55,1724.77,1574.04,1724.77z
							 M1423.87,1577.82c49.76,17.52,78.88,66.68,79.17,67.18c0.33,0.57,0.82,1.44,1.45,2.58c32.32,57.73,54.16,71.83,66.8,73.49
							c6.72,0.88,12.57-1.37,17.94-6.88c3.77-3.87,0.58-35.27-20.81-111.03c-15.23-53.92-33.65-107.97-40.24-118.02
							c-3.88-5.92-7.57-10.48-11.29-13.93l0,0c-5.43-5.04-10.93-7.68-16.34-7.83c-32.24-0.95-87.45,23.43-96.57,29.08
							C1442.65,1529.05,1427.95,1568.82,1423.87,1577.82z"/>
					</g>
					<g>
						<path style="fill:#712CE5;" d="M1464.47,1497.91c-21.1,5.61-39.44-1-57.28-9.17c17.47-8.95,69.67-29.38,97.99-25.73
							C1504.84,1463.76,1493.23,1490.27,1464.47,1497.91z"/>
						<path d="M1448.68,1501.73c-15.69,0-29.79-5.7-42.22-11.39l-3.3-1.51l3.22-1.66c16.1-8.25,69.49-29.73,99.02-25.91l2.38,0.31
							l-1,2.17c-1.32,2.92-13.55,28.34-41.86,35.87C1459.34,1501.09,1453.92,1501.73,1448.68,1501.73z M1411.3,1488.67
							c15.82,7.03,32.93,12.8,52.72,7.54l0,0c23.14-6.15,34.91-24.98,38.46-31.71C1477.02,1462.64,1432.45,1478.52,1411.3,1488.67z"
							/>
					</g>
					<g>
						<path style="fill:#712CE5;" d="M1470.35,1557.45c10.81,8.89,19.42,19.9,26.96,31.23c9.93,14.91,18.13,31.31,24.64,47.8
							c6.45,16.34,11.19,33.74,11.68,51.4c0.04,1.49,0.01,2.99,0,4.48c-9.61-11.21-20.3-26.26-32.11-46.46
							c0,0-29.23-50.14-80.1-67.05c0,0,9.48-17.1,6.29-39.85C1443.95,1540.99,1458.36,1547.58,1470.35,1557.45z"/>
						<path d="M1535.35,1697.05l-3.05-3.56c-10.39-12.12-21.26-27.84-32.29-46.72c-0.29-0.49-29.51-49.77-79.13-66.26l-2.01-0.67
							l1.02-1.85c0.09-0.17,9.15-16.9,6.08-38.75l-0.32-2.27l2.28,0.28c16.1,1.98,30.76,8.32,43.54,18.84
							c9.44,7.76,18.13,17.81,27.31,31.61c9.47,14.22,17.81,30.42,24.8,48.13c7.5,19,11.36,36.01,11.8,52
							c0.04,1.23,0.02,2.46,0.01,3.69L1535.35,1697.05z M1423.89,1577.83c49.75,17.53,78.86,66.67,79.15,67.18
							c9.83,16.82,19.51,31.1,28.82,42.5c-0.49-15.45-4.27-31.94-11.55-50.38c-6.9-17.48-15.14-33.45-24.46-47.47
							c-8.99-13.51-17.45-23.31-26.62-30.85l0,0c-11.67-9.59-24.95-15.56-39.5-17.76
							C1431.65,1558.94,1426.17,1572.93,1423.89,1577.83z"/>
					</g>
					<g>
						<path d="M1533.74,1490.05c0.78-0.06,1.55-0.12,2.32-0.13c8.93-0.09,16.22,3.54,16.24,8.09c0.02,3.8-5.02,7.07-11.86,8.05
							L1533.74,1490.05z"/>
						<path d="M1539.35,1508l-8.17-19.51l2.42-0.19l0.14,1.75l-0.13-1.75c0.81-0.06,1.62-0.13,2.43-0.13
							c6.69-0.08,12.59,1.8,15.71,4.88c1.5,1.47,2.29,3.19,2.3,4.96c0.03,4.71-5.34,8.65-13.37,9.81L1539.35,1508z M1536.32,1491.68
							l5.2,12.42c5.24-1.04,9.04-3.54,9.02-6.08c0-0.83-0.43-1.67-1.25-2.48c-2.4-2.36-7.45-3.87-12.92-3.87
							C1536.36,1491.68,1536.34,1491.68,1536.32,1491.68z"/>
					</g>
					<g>
						<path d="M1531.1,1482.8c6.31-2.03,10.5-5.84,9.98-9.51c-0.64-4.52-8.32-7.02-17.12-5.63c-1.82,0.29-3.5,0.72-5.09,1.29
							C1518.86,1468.95,1523.59,1472.67,1531.1,1482.8z"/>
						<path d="M1530.44,1484.86l-0.75-1.01c-7.23-9.77-11.86-13.48-11.91-13.52l-2.47-1.95l2.96-1.08c1.7-0.62,3.47-1.07,5.42-1.38
							c6.5-1.02,12.7-0.05,16.18,2.53c1.68,1.24,2.7,2.83,2.95,4.59c0.64,4.55-3.74,9.04-11.18,11.44L1530.44,1484.86z
							 M1522.34,1469.75c2.03,2,5.27,5.5,9.39,10.97c4.8-1.81,7.95-4.73,7.6-7.19c-0.12-0.82-0.64-1.58-1.56-2.26
							c-2.72-2.01-8.03-2.75-13.54-1.88C1523.58,1469.5,1522.96,1469.61,1522.34,1469.75z"/>
					</g>
					<g>
						<path d="M1578.51,1626.17c0.74-0.23,1.48-0.46,2.29-0.64c8.67-2.03,16.49-0.04,17.44,4.43c0.94,4.42-5.34,9.7-14,11.72
							c-0.41,0.1-0.81,0.19-1.17,0.22L1578.51,1626.17z"/>
						<path d="M1581.78,1643.76l-5.44-18.76l1.65-0.51c0.78-0.24,1.56-0.48,2.41-0.68c6.36-1.48,12.59-0.96,16.27,1.37
							c1.78,1.13,2.92,2.65,3.29,4.41c1.16,5.46-5.57,11.52-15.33,13.8c-0.53,0.12-1.01,0.22-1.43,0.25L1581.78,1643.76z
							 M1580.69,1627.37l3.62,12.49c8.01-2.01,12.84-6.58,12.21-9.53c-0.18-0.82-0.75-1.55-1.73-2.17
							c-2.86-1.82-8.2-2.18-13.58-0.91C1581.02,1627.27,1580.85,1627.32,1580.69,1627.37z"/>
					</g>
					<g>
						<path d="M1586.05,1653.48c0.33-0.13,0.74-0.23,1.08-0.31c8.66-2.04,16.48-0.07,17.45,4.4c0.96,4.47-5.32,9.71-13.98,11.75
							c-0.17,0.04-0.35,0.08-0.52,0.12L1586.05,1653.48z"/>
						<path d="M1589.33,1671.42l-0.94-1.56l-4.41-17.45l1.43-0.57c0.41-0.16,0.9-0.29,1.33-0.39c6.36-1.5,12.6-0.99,16.28,1.34
							c1.78,1.13,2.92,2.65,3.3,4.4c1.17,5.46-5.54,11.53-15.29,13.83L1589.33,1671.42z M1590.61,1669.31L1590.61,1669.31
							L1590.61,1669.31z M1588.19,1654.74l3.18,12.57c7.58-2.1,12.12-6.51,11.5-9.37c-0.18-0.82-0.76-1.55-1.73-2.17
							C1598.38,1654.03,1593.35,1653.63,1588.19,1654.74z"/>
					</g>
					<g>
						<path d="M1591.7,1681.78c8.37-3.02,16.33-1.94,17.76,2.41c1.43,4.35-4.24,10.28-12.61,13.3c-1.12,0.4-2.25,0.75-3.36,0.98
							L1591.7,1681.78z"/>
						<path d="M1591.95,1700.58l-2.15-19.99l1.3-0.47c6.15-2.22,12.38-2.41,16.28-0.51c1.89,0.92,3.18,2.31,3.74,4.02
							c1.74,5.3-4.27,12.11-13.68,15.5c-1.32,0.48-2.5,0.82-3.6,1.05L1591.95,1700.58z M1593.6,1683l1.42,13.25
							c0.39-0.12,0.8-0.26,1.23-0.42c8-2.88,12.5-8.16,11.54-11.1c-0.26-0.8-0.92-1.45-1.95-1.96
							C1603.06,1681.42,1598.37,1681.52,1593.6,1683z"/>
					</g>
					<g>
						
							<rect x="1453.71" y="1582.22" transform="matrix(0.3788 -0.9255 0.9255 0.3788 -546.5828 2353.6543)" width="52.51" height="3.52"/>
					</g>
					<g>
						
							<rect x="1477.55" y="1608.28" transform="matrix(0.4004 -0.9163 0.9163 0.4004 -574.2972 2342.3865)" width="50.43" height="3.52"/>
					</g>
					<g>
						
							<rect x="1495.74" y="1635.2" transform="matrix(0.4417 -0.8972 0.8972 0.4417 -619.4506 2278.5046)" width="50.46" height="3.51"/>
					</g>
				</g>
			</g>
			<g>
				<path style="fill:#FFBC00;" d="M1058.31,1412.69C794.69,1435.09,566.44,1282.6,548.55,1072
					c-8.53-99.8,31.76-194.68,104.64-269.29c21.01-21.5,44.65-41.36,70.67-59.09c-21.5-12.72-41.45-27.16-59.59-42.92
					c-45.22-39.48-78.95-87.9-96.68-142.32c-6.81-20.76-11.33-42.43-13.21-64.76c-5.83-67.88,12.89-133.37,49.98-190.74
					c40.87-63.2,104.24-116.46,181.96-152.25c53.68-24.79,114.16-41.12,178.92-46.62c26.02-2.22,51.71-2.63,76.82-1.23
					c69.35,3.69,134.27,20.52,190.74,47.68c87.74,42.18,154.79,109.32,185.65,190.82c26.19,67.59,24.18,146.75-3.69,213.14
					c-23.72,57.86-65.25,110.14-119.58,152.16c15.51,8.05,30.45,16.74,44.57,26.18c92.66,61.64,154.55,152.58,163.49,258.04
					C1521.12,1201.43,1321.93,1390.28,1058.31,1412.69z"/>
				<path d="M1006.7,1416.64c-109.19,0-212.89-29.66-296.4-85.46c-96.74-64.65-154.81-156.64-163.5-259.03
					c-8.27-96.67,29.07-192.8,105.14-270.66c20.68-21.16,43.77-40.59,68.67-57.76c-20.39-12.25-39.72-26.27-57.48-41.7
					c-46.24-40.37-79.85-89.85-97.2-143.1c-6.96-21.21-11.43-43.13-13.29-65.15c-5.66-65.91,11.72-132.25,50.26-191.84
					c41.44-64.07,104.62-116.94,182.7-152.89c55.51-25.63,115.91-41.37,179.51-46.77c26-2.22,51.94-2.63,77.07-1.23
					c67.63,3.6,133.82,20.15,191.4,47.86c89.81,43.18,156.05,111.29,186.53,191.78c26.18,69.24,24.81,145.1-3.71,214.43
					c-23.24,56.7-64,108.93-117.97,151.21c15.14,7.95,29.36,16.36,42.31,25.01c97.22,64.68,155.56,156.78,164.26,259.36
					c17.94,211.21-182.37,401.31-446.53,423.76C1041.11,1415.91,1023.83,1416.64,1006.7,1416.64z M1012.75,103.74
					c-15.65,0-31.49,0.68-47.36,2.03c-63.19,5.37-123.19,21-178.33,46.46c-77.48,35.67-140.14,88.1-181.22,151.6
					c-38.11,58.94-55.3,124.51-49.71,189.64c1.84,21.75,6.26,43.4,13.13,64.35c17.15,52.65,50.41,101.59,96.17,141.54
					c18.28,15.89,38.24,30.26,59.32,42.73l2.38,1.41l-2.29,1.56c-25.57,17.43-49.25,37.24-70.4,58.87
					c-75.34,77.12-112.33,172.27-104.15,267.9c8.61,101.31,66.12,192.37,161.96,256.41c95.95,64.11,218.78,93.47,345.91,82.67
					l0.15,1.75l-0.15-1.75c262.23-22.29,461.1-210.68,443.32-419.96c-8.61-101.48-66.39-192.65-162.71-256.72
					c-13.53-9.05-28.47-17.82-44.4-26.08l-2.44-1.27l2.18-1.68c54.55-42.19,95.71-94.56,119.03-151.44
					c28.19-68.51,29.55-143.46,3.68-211.86c-30.16-79.65-95.77-147.07-184.77-189.86c-57.17-27.51-122.89-43.94-190.07-47.51
					C1032.33,104.01,1022.57,103.74,1012.75,103.74z"/>
			</g>
			<g>
				<g>
					<path style="fill:#FFDC7A;" d="M1232.8,150.47c-13.05,39.15-49.98,67.38-93.57,67.38c-54.41,0-98.57-44.16-98.57-98.57
						c0-5.66,0.49-11.16,1.39-16.5C1111.41,106.48,1176.33,123.31,1232.8,150.47z"/>
					<path d="M1139.23,219.61c-55.32,0-100.33-45.01-100.33-100.33c0-5.57,0.48-11.22,1.42-16.79l0.26-1.55l1.57,0.08
						c67.63,3.6,133.82,20.15,191.41,47.86l1.39,0.67l-0.49,1.47C1220.79,192.05,1182.52,219.61,1139.23,219.61z M1043.54,104.63
						c-0.75,4.88-1.12,9.8-1.12,14.66c0,53.38,43.43,96.81,96.81,96.81c41.25,0,77.78-25.94,91.39-64.71
						C1174.23,124.5,1109.62,108.35,1043.54,104.63z"/>
				</g>
				<g>
					<path style="fill:#FFDC7A;" d="M802.07,210.14c3.33,99.86-124.2,158.01-197.72,92.74c40.87-63.2,104.24-116.46,181.96-152.25
						C796.33,168.2,802.07,188.47,802.07,210.14z"/>
					<path d="M681.51,332.46c-29.11,0.01-57.4-10.42-79.48-29.23c41.76-65.18,105.93-118.77,185.01-154.87
						C835.42,226.63,773.76,334.75,681.51,332.46z M606.69,302.52c98.54,81.63,242.01-38.12,178.89-149.61
						C709.31,188.32,647.51,240,606.69,302.52z"/>
				</g>
				<g>
					<path style="fill:#FFDC7A;" d="M1414.76,554.44c-154.21,7.72-150.03-226.14,3.7-213.14
						C1444.63,408.89,1442.63,488.04,1414.76,554.44z"/>
					<path d="M1406.38,556.61c-151.84-3.95-137.65-231.8,13.34-216.93c26.69,69.79,25.29,146.52-3.73,216.38
						C1412.98,556.45,1410.38,556.6,1406.38,556.61z M1414.75,554.44h0.04H1414.75z M1406.38,342.32
						c-143.07,3.19-135.75,217.19,7.14,210.49c27.67-67.9,29.02-142.08,3.66-209.89C1413.67,342.52,1410.05,342.32,1406.38,342.32z"
						/>
				</g>
				<g>
					<path style="fill:#FFDC7A;" d="M677.81,651.86c0,17.89-4.92,34.55-13.54,48.83c-45.22-39.48-78.95-87.9-96.68-142.32
						c0.01,0.02,29.25,0.02,32.26,0.48C644.46,565.65,677.81,607.35,677.81,651.86z"/>
					<path d="M664.69,703.39l-1.58-1.38c-46.07-40.22-79.61-89.5-97.01-142.53c-0.13-0.21-0.2-0.49-0.26-0.87l1.75-0.41l0.06-1.6
						c0.16,0.01,1.14,0.01,2.67,0.01c12.67,0.05,27.51,0.14,29.79,0.49c44.56,6.78,79.46,48.4,79.46,94.74
						c0,17.59-4.77,34.78-13.8,49.74L664.69,703.39z M570.03,560.15c17.16,51.15,49.53,98.72,93.81,137.82
						c8-13.98,12.22-29.87,12.22-46.11c0-44.65-33.59-84.74-76.48-91.27c-2.31-0.35-22.61-0.42-29.27-0.45
						C570.21,560.15,570.12,560.15,570.03,560.15z"/>
				</g>
				<g>
					<ellipse style="fill:#FFDC7A;" cx="786.62" cy="907.54" rx="76.11" ry="76.11"/>
					<path d="M786.63,985.34c-42.93,0-77.87-34.93-77.87-77.87c0-42.94,34.93-77.87,77.87-77.87c42.94,0,77.87,34.93,77.87,77.87
						C864.5,950.4,829.57,985.34,786.63,985.34z M786.63,833.12c-41,0-74.35,33.35-74.35,74.35c0,41,33.35,74.35,74.35,74.35
						c41,0,74.35-33.35,74.35-74.35C860.98,866.47,827.63,833.12,786.63,833.12z"/>
				</g>
				<g>
					<circle style="fill:#FFDC7A;" cx="1180.59" cy="870.72" r="103.16"/>
					<path d="M1180.58,975.64c-57.85,0-104.92-47.07-104.92-104.93s47.07-104.93,104.92-104.93c57.86,0,104.93,47.07,104.93,104.93
						C1285.51,928.57,1238.44,975.64,1180.58,975.64z M1180.58,769.31c-55.91,0-101.41,45.49-101.41,101.41
						c0,55.91,45.49,101.41,101.41,101.41c55.91,0,101.41-45.49,101.41-101.41S1236.5,769.31,1180.58,769.31z"/>
				</g>
				<g>
					<path style="fill:#FFDC7A;" d="M1289.49,296.71c-0.21,47.89-73.03,47.89-73.24,0C1216.46,248.82,1289.28,248.82,1289.49,296.71
						z"/>
					<path d="M1252.87,335.09c-50.18-0.26-50.17-76.5,0-76.76C1303.05,258.59,1303.04,334.83,1252.87,335.09z M1252.87,261.85
						c-45.22-0.63-45.22,70.36,0,69.73C1298.09,332.2,1298.09,261.21,1252.87,261.85z"/>
				</g>
				<g>
					<path style="fill:#FFDC7A;" d="M1276.21,631.58c-0.21,47.89-73.03,47.89-73.24,0C1203.19,583.68,1276,583.69,1276.21,631.58z"
						/>
					<path d="M1239.59,669.95c-50.18-0.26-50.18-76.5,0-76.76C1289.77,593.46,1289.77,669.7,1239.59,669.95z M1239.59,596.71
						c-45.22-0.63-45.22,70.36,0,69.73C1284.81,667.06,1284.81,596.08,1239.59,596.71z"/>
				</g>
				<g>
					<path style="fill:#FFDC7A;" d="M905.77,321.61c0.5,33.89-52.74,33.89-52.24,0C853.03,287.72,906.26,287.72,905.77,321.61z"/>
					<path d="M879.64,349.49c-36.16,0.5-36.16-56.26,0-55.76C915.8,293.23,915.81,349.99,879.64,349.49z M879.64,297.25
						c-31.6-0.44-31.6,49.17,0,48.72C911.24,346.41,911.24,296.81,879.64,297.25z"/>
				</g>
				<g>
					<circle style="fill:#FFDC7A;" cx="950.46" cy="802.52" r="26.12"/>
					<path d="M950.46,830.4c-15.37,0-27.88-12.5-27.88-27.88s12.51-27.88,27.88-27.88c15.37,0,27.88,12.51,27.88,27.88
						C978.33,817.89,965.83,830.4,950.46,830.4z M950.46,778.16c-13.43,0-24.36,10.93-24.36,24.36c0,13.43,10.93,24.36,24.36,24.36
						c13.43,0,24.36-10.93,24.36-24.36C974.82,789.09,963.89,778.16,950.46,778.16z"/>
				</g>
			</g>
			<g>
				<g>
					<path style="fill:#00BEFB;" d="M1058.31,1412.69C794.69,1435.09,566.44,1282.6,548.55,1072
						c-7.22-84.13,20.36-164.8,72.88-232.76c9.68-12.64,20.35-24.87,31.76-36.52l276.26,189.76l410.29-259.68
						c15.1,10.1,29.46,20.93,42.84,32.58c68.61,59.18,113.18,137.23,120.65,225.46C1521.12,1201.43,1321.93,1390.28,1058.31,1412.69
						z"/>
					<path d="M1006.7,1416.64c-109.19,0-212.89-29.66-296.4-85.46c-96.74-64.65-154.81-156.64-163.5-259.03
						c-7.04-81.98,18.28-162.89,73.24-233.98c9.57-12.49,20.31-24.84,31.9-36.68l1.03-1.06l276.52,189.94l410.28-259.67l0.95,0.63
						c15.56,10.4,30.04,21.41,43.02,32.72c72.02,62.11,113.95,140.49,121.24,226.64c17.94,211.21-182.37,401.31-446.53,423.76
						C1041.11,1415.91,1023.83,1416.64,1006.7,1416.64z M653.41,805c-11.09,11.42-21.38,23.29-30.59,35.3
						c-54.41,70.4-79.49,150.46-72.52,231.54c8.61,101.31,66.12,192.37,161.96,256.41c95.95,64.11,218.78,93.47,345.91,82.67
						l0.15,1.75l-0.15-1.75c262.23-22.29,461.1-210.68,443.32-419.96c-7.22-85.21-48.73-162.77-120.04-224.27
						c-12.61-10.99-26.64-21.68-41.72-31.82L929.41,994.56L653.41,805z"/>
				</g>
				<g>
					<path style="fill:#FFFFFF;" d="M1382.58,765.37l-449.6,286.11L621.43,839.23c9.68-12.64,20.35-24.87,31.76-36.52l276.26,189.76
						l410.29-259.68C1354.84,742.88,1369.2,753.72,1382.58,765.37z"/>
					<path d="M932.95,1053.59l-0.95-0.65L618.9,839.64l1.13-1.47c9.58-12.5,20.31-24.84,31.9-36.68l1.03-1.06l276.52,189.94
						l410.28-259.67l0.95,0.63c15.56,10.4,30.04,21.41,43.02,32.72l1.78,1.55L932.95,1053.59z M623.96,838.83l309.06,210.55
						l446.63-284.22c-12.15-10.44-25.56-20.61-39.93-30.27L929.41,994.57L653.41,805C642.77,815.95,632.87,827.32,623.96,838.83z"/>
				</g>
			</g>
			<g>
				<g>
					<path style="fill:#FFBC00;" d="M915.69,437.56l6.07,36.7c-101.45-18.51-59.21,47.78,7.78,40.98L915.69,437.56z"/>
					<path d="M927.94,517.02c-69.97,6.02-107.03-62.47-8.34-45.01l-5.65-34.17l3.47-0.57l6.49,39.29
						c-100.47-19.93-61.02,42.93,5.59,36.93l0.07,3.52C929.36,517.01,928.81,517.02,927.94,517.02z"/>
				</g>
				<g>
					<g>
						<g>
							<g>
								<path style="fill:#FFFFFF;" d="M845.21,512.04c0.23,22.81-22.11,39.11-20.94,62.23c-37.48-21.47-91.58-21.64-129.86-4.89
									c-0.3-1.47-0.68-2.77-0.97-4.06c-47.88-73.22,7.26-69.19-18.54-135.32c-11.48-33.12-4.57-50.42,10.49-80.88
									c16.51-33.29-13.72-67.47,5.29-101.45c39.82-86.52,150.51-49.19,131.9,44.87c-3.86,20.45-7.74,34.41,2.62,53.49
									C870.41,423.52,810.92,420.1,845.21,512.04z"/>
								<path d="M825.99,577.32c-38.88-23.15-92.48-23.37-132.88-5.46c-20.06-52.12-31.94-40.83-12.64-101.39
									c-2.36-53.49-29.33-66.29,3.34-122.13c15.77-31.29-11.01-60.14,2.04-92.71c13.66-51.29,83.54-81.14,120.54-38.27
									c41.1,49.54,0.42,86.26,20.35,127.84c34.72,54.56,8.34,68.77,8.09,121.95C862.53,540.74,833.39,518.73,825.99,577.32z
									 M754.54,555.69c24.06,0.12,46.93,4.46,68.05,15.62c14.15-55.72,32.72-38.65,8.77-103.66c-0.48-52,26.53-68.01-7.7-120.77
									c-20.68-42.11,19.85-80.31-19.91-127.21c-35.32-40.63-101.54-11.76-114.52,36.99c-12.71,33.12,14.34,60.75-2.25,93.24
									c-32.69,54.95-4.31,68.46-3,120.96c-16.54,53.76-10.99,48.24,11.67,96.09C713.18,559.63,733.93,555.67,754.54,555.69z"/>
							</g>
							<g>
								<path d="M787.09,479.63c-9.5,26.16-2.43,52.86-6.88,79.78c-27.65-4.71-61.92-0.83-85.8,9.97c-0.3-1.47-0.68-2.77-0.97-4.06
									c-47.88-73.2,7.26-69.21-18.54-135.32c-11.48-33.12-4.57-50.42,10.49-80.88c16.53-33.3-13.73-67.46,5.29-101.45
									c55.32-25.85,91.8,39.78,81.16,92.51c-8.2,28.37-0.77,52.6,12.24,77.45l-79.52,23.31l85.82,21.18
									C789.72,467.52,788.8,473.26,787.09,479.63z"/>
								<path d="M693.11,571.86c-1.42-9.39-6.19-17.61-11.23-25.69c-29.9-37.38,14.78-74.52-8.66-115.6
									c-11.81-34.11-4.09-52.55,10.58-82.23c16.07-33.9-14.21-67.52,5.52-101.98c57.61-27.02,95.2,40.3,84.24,94.11
									c-8.49,28.08-0.02,53.13,12.84,78.31l-75.11,22.03l81,19.99c-0.64,5.72-1.65,12.71-3.85,20.57
									c-9.13,26.43-2.04,53.18-6.59,80.08C753.16,556.35,718.86,559.94,693.11,571.86z M692.02,249
									c-18.44,34.77,11.97,66.27-5.05,100.9c-14.68,29.67-21.8,46.68-10.42,79.53c26.37,70.32-29.68,57.48,19.09,137.52
									c24.22-10.31,56.12-13.65,82.93-9.57c4.35-25.79-2.64-52.17,6.47-76.9c1.72-6.09,2.85-12.61,3.39-17.01l-90.62-22.37
									l83.92-24.6c-13.52-24.69-19.3-49.43-11.61-76.6C780.18,289.41,746.85,224.81,692.02,249z"/>
							</g>
						</g>
						<g>
							<g>
								<path d="M648.44,402.94c-24.92,0-63.46-5.45-85.1-35.77l2.86-2.04c32.34,45.31,104.59,32.76,105.31,32.62l0.63,3.46
									C671.88,401.27,662.24,402.94,648.44,402.94z"/>
							</g>
							<g>
								<path d="M640.66,463.25c-23.79,0-53.68-5.5-73.81-28.75l2.66-2.3c36.56,42.23,107.34,23.41,108.05,23.21l0.93,3.39
									C678.15,458.9,661.82,463.25,640.66,463.25z"/>
							</g>
						</g>
					</g>
					<g>
						<g>
							<g>
								<path style="fill:#FFFFFF;" d="M1135.69,479.84c21.58,70.1-1.11,50.15-15.35,106.14c-36.32-23.62-90.04-26.89-129.41-12.49
									c-0.14-1.48-0.39-2.79-0.71-4.18c-43.26-76.11,11.56-68.52-10.22-136.14c-9.33-33.8-1.38-50.54,15.43-80.1
									c18.51-32.29-9.71-68.25,11.6-101.02c44.93-83.92,153.15-40.09,128.86,52.67c-21.98,50,32.04,84.47,8.08,134.61
									C1138.61,453.7,1134.45,464.37,1135.69,479.84z"/>
								<path d="M1121.88,589.1c-37.36-25.26-91.14-28.71-132.49-13.18c-16.31-54.37-29.76-40.85-6.25-101.98
									c0.92-53.73-25.42-67.32,10.76-121.74c17.64-30.39-7.39-60.5,7.72-92.43c16.86-50.32,88.31-76.13,122.7-31
									c38.04,51.96-4.93,86.17,12.44,128.81c31.36,56.52,4.18,69.08,0.67,122.12C1160.49,554.04,1132.95,531.42,1121.88,589.1z
									 M1042.05,563.11c26.46-0.06,54.42,6.14,76.8,19.84c17.46-54.68,34.99-36.72,15.08-102.96
									c2.7-51.93,30.65-66.16-0.36-120.92c-18.11-43.26,24.82-78.89-12.05-128.17c-32.86-42.83-100.57-17.71-116.61,30.1
									c-14.79,32.47,10.57,61.37-7.96,92.92c-35.74,52.89-8.61,68.12-10.35,120.6c-19.87,52.54-13.9,47.52,5.77,96.58
									C1007.66,565.84,1024.67,563.11,1042.05,563.11z"/>
							</g>
							<g>
								<path d="M1089.07,489.37c-11.16,25.58-5.83,52.55-11.69,79.23c-27.49-6.34-61.75-4.46-86.45,4.89
									c-0.14-1.48-0.39-2.79-0.71-4.18c-43.25-76.07,11.56-68.55-10.22-136.14c-9.33-33.8-1.38-50.54,15.43-80.1
									c18.53-32.3-9.72-68.24,11.6-101.02c56.74-22.25,89.07,45.16,75.28,97.18c-9.95,27.87-3.98,52.52,7.5,78.11l-80.89,18.55
									l84.41,26.22C1092.36,477.47,1091.04,483.08,1089.07,489.37z"/>
								<path d="M989.4,575.91c-0.5-9.45-5.11-18.19-9.52-26.47c-27.51-39.08,19.37-73.41-1.57-115.81
									c-9.58-34.74-1.24-51.81,15.6-81.44c18.12-32.96-10.22-68.23,11.87-101.55c59.23-23.25,92.36,45.92,78.24,98.98
									c-10.24,27.55-3.25,53.15,8.06,78.99l-76.42,17.52l79.66,24.75c-3.13,20.92-14.41,39.09-12.35,60.63
									c0.98,14.04-2.76,25.8-4.05,39.22C1049.73,563.92,1016.47,565.5,989.4,575.91z M1008.27,253.46
									c-20.79,33.7,7.8,66.83-11.31,100.47c-16.37,28.8-24.48,45.38-15.27,78.77c22.11,71.79-33.16,55.52,10.69,138.41
									c25.41-8.85,56.22-10.32,83.48-4.63c1.49-11.81,4.48-22.62,3.59-34.72c-1.95-21.53,8.09-38.26,11.85-58.43l-89.15-27.7
									l85.36-19.57c-12.01-25.22-16.17-51.17-6.92-77.22C1093.65,299.05,1064.5,232.82,1008.27,253.46z"/>
							</g>
						</g>
						<g>
							<g>
								<path d="M1183.99,412.78c-20,0-35.17-3.8-35.51-3.89l0.88-3.41c0.72,0.19,71.74,17.93,107.75-24.86l2.69,2.26
									C1239.31,407.23,1208.14,412.78,1183.99,412.78z"/>
							</g>
							<g>
								<path d="M1185.33,473.42c-26.15,0-47.6-7.44-47.99-7.58l1.18-3.31c0.69,0.24,69.71,24.16,109.69-15.28l2.47,2.5
									C1231.86,468.32,1206.99,473.42,1185.33,473.42z"/>
							</g>
						</g>
					</g>
				</g>
				<g>
					<g id="XMLID_33_">
						<path style="fill:#FFFFFF;" d="M963.36,539.19c0,0,12.02,194.5-54.01,196.71c-75.15,2.52-57.23-192.99-57.23-192.99
							C874.58,560,941.22,557.57,963.36,539.19z"/>
						<path d="M907.93,737.68c-11.29,0-21.15-4.4-29.34-13.08c-17.04-18.06-26.96-54.19-29.49-107.41
							c-1.86-42.35,1.21-73.16,1.51-77.04c24.45,18.63,90.56,15.9,114.33-3.91l0.18,2.83c0.36,5.84,8.39,143.44-30.39,186.1
							c-7.24,7.96-15.75,12.16-25.31,12.48C908.91,737.67,908.42,737.68,907.93,737.68z M853.66,545.64
							c-1.44,19.04-8.88,138.03,27.48,176.55c7.82,8.29,17.26,12.39,28.15,11.95c8.57-0.29,16.25-4.1,22.82-11.33
							c34.82-38.29,30.59-160.55,29.63-180.7C931.74,561.13,879.77,560.8,853.66,545.64z"/>
					</g>
					<g>
						<polygon points="929.01,728.25 927.26,728.1 927.52,552.5 931.04,552.5 930.77,728.17 						"/>
					</g>
					<g>
						
							<rect x="886.85" y="554.35" transform="matrix(1 -5.699907e-03 5.699907e-03 1 -3.6482 5.0754)" width="3.52" height="176.47"/>
					</g>
					<g>
						
							<rect x="852.74" y="638.89" transform="matrix(0.9994 -0.0332 0.0332 0.9994 -20.7706 30.461)" width="108.15" height="3.52"/>
					</g>
				</g>
			</g>
			<g>
				<g>
					<path d="M1097.45,1234.42c-78.55,5.47-157.39,16.56-235.17,27.97c-73.95,10.85-155.85,37.15-205.9,92.33
						c-49.08,54.11-51.48,131.59-53.15,199.04c-2.06,83.49,9.22,166.69,9.92,250.12c30.79-17.21,60.32-39.86,79.71-69.3
						c-2.55-45.71-6.29-91.4-7.46-137.14c-1.45-56.5-9.55-140.1,29.06-188.17c39.56-49.27,115.57-65.9,177.06-74.2
						c68.3-9.22,137.08-19.37,205.92-24.17C1149.8,1307.23,1150.23,1230.74,1097.45,1234.42z"/>
				</g>
				<g>
					<g>
						<path style="fill:#712CE5;" d="M633.29,1702.1c0,0,19-55.8,6.04-82.28c-7.67-15.66-32.21-11.92-35.64,4.99l-10.75,53.08
							c6.52,6.27,15.19,13.41,27.06,19.04C624.67,1699.15,629.14,1700.82,633.29,1702.1z"/>
						<path d="M634.41,1704.28l-1.63-0.5c-4.6-1.41-9.16-3.18-13.53-5.25c-9.94-4.72-18.68-10.87-27.52-19.36l-0.7-0.67l10.94-54.03
							c1.75-8.62,8.84-14.97,18.07-16.15c8.94-1.14,17.12,3.07,20.87,10.74c13.14,26.82-5.17,81.31-5.95,83.62L634.41,1704.28z
							 M594.86,1677.29c5.42,5.14,13.83,12.33,25.89,18.05c3.7,1.75,7.53,3.28,11.41,4.55c2.96-9.34,16.87-56.27,5.59-79.3
							c-3.74-7.64-11.38-9.55-17.26-8.79c-7.71,0.99-13.63,6.24-15.07,13.37L594.86,1677.29z"/>
					</g>
					<g>
						<path style="fill:#FF4568;" d="M659.92,1821.46c-6.29,2.69-13.29,4.24-19.43,5.24c-27.21,4.44-251.24-23.01-258.83-41.97
							c-19.72-49.32,97.51-56.92,109.29-58.21c0,0,63.26-6.97,102.85-50.43c0,0,34.07,45.25,95.46,18.4
							c2.46-1.09,3.86,77.35-13.24,113.14C672.91,1814.16,666.84,1818.5,659.92,1821.46z"/>
						<path d="M631.6,1828.93c-22.85,0-75.28-5.09-128.13-12.69c-44.02-6.33-118.6-18.76-123.43-30.85
							c-3.55-8.87-3.09-17.05,1.37-24.33c11.25-18.39,46.98-30.49,106.2-35.97c1.39-0.13,2.47-0.23,3.17-0.31
							c0.63-0.07,63.04-7.39,101.75-49.86l1.42-1.56l1.28,1.69c0.08,0.11,8.54,11.16,24.22,18.82c20.97,10.25,44.21,9.92,69.12-0.98
							l1.12-0.49l1.01,0.92c4.09,4.21,2.96,81.5-13.09,115.08c-2.96,6.19-8.67,11.13-17,14.69c-5.38,2.3-11.87,4.05-19.84,5.36
							C638.74,1828.77,635.63,1828.93,631.6,1828.93z M593.73,1678.76c-40.14,42.66-102.21,49.51-102.78,49.51
							c-0.52,0.07-1.61,0.17-3.04,0.3c-72.31,6.7-96.21,22.35-103.52,34.31c-3.9,6.37-4.26,13.3-1.11,21.19
							c2.22,5.54,35.15,16.38,120.67,28.68c60.83,8.75,123.24,14.34,136.24,12.22c7.69-1.26,13.91-2.93,19.03-5.13l0,0
							c7.51-3.21,12.63-7.58,15.21-12.97c15.55-32.56,15.52-98.94,13.83-110.04c-31.49,13.2-55.68,7.4-70.52,0.11
							C604.83,1690.59,596.75,1682.24,593.73,1678.76z"/>
					</g>
					<g>
						<path style="fill:#712CE5;" d="M655.75,1755.27c3.78-23.64,18.56-39.08,34.69-53.32c1.19,21.5-1.58,82.9-17.84,109.66
							C672.01,1810.92,650.61,1787.49,655.75,1755.27z"/>
						<path d="M672.86,1814.57l-1.58-1.8c-2.33-2.62-22.32-26.14-17.27-57.78l0,0c3.99-24.95,20.3-41.14,35.26-54.36l2.72-2.4
							l0.2,3.62c1.1,19.79-1.14,82.79-18.09,110.67L672.86,1814.57z M657.49,1755.54c-4.2,26.27,9.81,46.66,14.85,53
							c14.5-26.53,17.13-80.74,16.5-102.82C674.63,1718.53,661.06,1733.19,657.49,1755.54L657.49,1755.54z"/>
					</g>
					<g>
						<path style="fill:#712CE5;" d="M593.47,1734.66c-13.72,6.88-28.59,10.61-43.3,13.12c-19.36,3.31-39.45,4.23-58.87,3.41
							c-19.25-0.81-38.8-3.81-56.71-11.18c-1.51-0.62-3-1.32-4.49-2c15.51-4.64,35.35-8.65,60.86-11.49c0,0,63.26-6.97,102.85-50.43
							c0,0,12.92,17.12,37.14,24.04C621.71,1715.52,608.69,1727.03,593.47,1734.66z"/>
						<path d="M504.61,1753.22c-4.42,0-8.88-0.09-13.39-0.28c-22.36-0.94-41.1-4.64-57.31-11.31c-1.28-0.52-2.54-1.1-3.79-1.68
							l-5.01-2.29l4.48-1.34c16.76-5.01,37.33-8.9,61.17-11.55c0.63-0.07,63.08-7.42,101.76-49.86l1.42-1.56l1.28,1.69
							c0.13,0.17,12.89,16.74,36.22,23.41l2.2,0.63l-1.18,1.97c-9.14,15.23-21.99,27.07-38.2,35.19
							c-11.97,6-25.88,10.22-43.79,13.28C535.99,1751.98,520.62,1753.22,504.61,1753.22z M435.22,1738.36
							c0.01,0.01,0.02,0.01,0.04,0.02c15.82,6.51,34.17,10.12,56.12,11.04c20.57,0.87,40.28-0.27,58.5-3.38
							c17.56-3,31.16-7.12,42.81-12.96l0,0c14.91-7.47,26.87-18.21,35.57-31.93c-19.08-6.08-30.75-18.03-34.52-22.39
							c-39.67,42.13-101.95,49.43-102.59,49.5C469.67,1730.65,450.89,1734.05,435.22,1738.36z"/>
					</g>
					<g>
						<path d="M632.79,1828.18c-0.28,0.8-0.57,1.61-0.9,2.38c-3.89,8.99-10.76,14.68-15.34,12.67c-3.82-1.67-4.85-8.18-2.79-15.47
							L632.79,1828.18z"/>
						<path d="M618.52,1845.4c-0.94,0-1.84-0.18-2.67-0.55c-4.66-2.04-6.17-9.09-3.78-17.56l0.37-1.31l22.83,0.5l-0.82,2.29
							l-1.66-0.59l1.6,0.75c-0.28,0.78-0.56,1.56-0.89,2.33c-2.84,6.58-7.36,11.74-11.79,13.49
							C620.62,1845.18,619.54,1845.4,618.52,1845.4z M615.11,1829.56c-1.36,5.85-0.5,10.92,2.13,12.07
							c0.88,0.38,1.95,0.33,3.17-0.15c3.54-1.39,7.4-5.94,9.85-11.6L615.11,1829.56z"/>
					</g>
					<g>
						<path d="M641.23,1828.76c-0.77,7.22,1.18,13.12,5.09,14.23c4.82,1.37,10.73-5.21,13.26-14.65c0.52-1.95,0.84-3.82,0.97-5.68
							C660.56,1822.67,654.73,1825.75,641.23,1828.76z"/>
						<path d="M647.63,1844.93c-0.61,0-1.2-0.08-1.78-0.24c-4.7-1.33-7.26-7.81-6.36-16.12l0.13-1.25l1.23-0.27
							c13.04-2.91,18.83-5.9,18.89-5.93l2.79-1.46l-0.21,3.14c-0.14,1.98-0.48,3.95-1.03,6.01c-1.85,6.92-5.55,12.66-9.65,14.99
							C650.3,1844.55,648.94,1844.93,647.63,1844.93z M642.87,1830.19c-0.36,5.77,1.23,10.35,3.93,11.11
							c0.92,0.26,1.97,0.07,3.09-0.57c3.26-1.85,6.4-6.89,7.99-12.84c0.21-0.8,0.39-1.59,0.54-2.37
							C655.55,1826.68,650.49,1828.43,642.87,1830.19z"/>
					</g>
					<g>
						<path d="M476.44,1812.45c-0.1,0.84-0.2,1.69-0.37,2.58c-1.83,9.59-7.3,16.54-12.21,15.5c-4.85-1.02-7.34-9.67-5.52-19.25
							c0.08-0.45,0.17-0.89,0.3-1.26L476.44,1812.45z"/>
						<path d="M464.84,1832.4c-0.45,0-0.9-0.05-1.34-0.14c-5.9-1.25-8.92-10.61-6.88-21.3c0.1-0.54,0.21-1.07,0.37-1.52l0.47-1.36
							l20.93,2.87l-0.2,1.71c-0.1,0.88-0.21,1.76-0.39,2.7c-1.33,7-4.61,12.97-8.55,15.59
							C467.81,1831.91,466.31,1832.4,464.84,1832.4z M460.01,1811.98c-1.63,9.07,0.88,16.13,4.22,16.84c0.93,0.2,1.98-0.06,3.08-0.8
							c3.13-2.08,5.9-7.31,7.04-13.32c0.05-0.25,0.09-0.5,0.13-0.75L460.01,1811.98z"/>
					</g>
					<g>
						<path d="M445.71,1807.85c-0.01,0.39-0.1,0.84-0.17,1.23c-1.81,9.59-7.26,16.56-12.17,15.53c-4.91-1.03-7.37-9.65-5.56-19.24
							c0.04-0.19,0.07-0.38,0.11-0.57L445.71,1807.85z"/>
						<path d="M434.34,1826.47c-0.45,0-0.89-0.05-1.33-0.14c-5.9-1.24-8.94-10.59-6.93-21.29l0.41-2.28l21.03,3.62l-0.05,1.54
							c-0.02,0.47-0.11,0.99-0.2,1.45c-1.32,7.04-4.58,13.02-8.51,15.64C437.32,1825.97,435.81,1826.47,434.34,1826.47z
							 M429.35,1806.82c-1.34,8.7,1.14,15.39,4.39,16.07c0.93,0.19,1.98-0.07,3.08-0.8c3.03-2.03,5.71-7.01,6.9-12.79
							L429.35,1806.82z"/>
					</g>
					<g>
						<path d="M414.84,1800.91c-0.7,9.73-5.33,17.24-10.32,16.73c-4.99-0.51-8.42-8.83-7.71-18.56c0.1-1.3,0.25-2.59,0.51-3.8
							L414.84,1800.91z"/>
						<path d="M405,1819.42c-0.22,0-0.44-0.01-0.66-0.04c-5.99-0.61-10.07-9.58-9.29-20.43c0.11-1.54,0.29-2.86,0.55-4.05l0.41-1.89
							l20.68,6.65l-0.1,1.38c-0.51,7.1-3.07,13.39-6.68,16.43C408.39,1818.75,406.7,1819.42,405,1819.42z M398.72,1797.57
							c-0.06,0.51-0.11,1.05-0.15,1.63c-0.68,9.4,2.69,16.33,6.14,16.69c0.98,0.12,1.96-0.28,2.95-1.12
							c2.65-2.22,4.67-7.08,5.3-12.62L398.72,1797.57z"/>
					</g>
					<g>
						<polygon points="581.32,1754.42 541.45,1712.87 543.98,1710.44 583.85,1751.98 						"/>
					</g>
					<g>
						
							<rect x="524.51" y="1716.14" transform="matrix(0.738 -0.6748 0.6748 0.738 -1038.8306 811.9959)" width="3.52" height="55.3"/>
					</g>
					<g>
						
							<rect x="489.34" y="1722.24" transform="matrix(0.7675 -0.641 0.641 0.7675 -1007.5548 721.6105)" width="3.52" height="55.33"/>
					</g>
				</g>
			</g>
			<g>
				<g>
					<path d="M1738.59,1224.22c-11.56-70.38-26.39-140.19-41.78-209.82c-11.42-51.69-22.22-113.85-61.19-152.87
						c-86.81-86.89-233.72-10.45-324.64,31.05c-36.29,16.57-4.78,70.08,31.33,53.6c44.54-20.33,89.31-41.87,137.23-53.13
						c27.24-6.4,68.67-14.74,95.23-1.16c23.34,11.93,34.62,39.15,42.47,62.27c30.94,91.08,45.96,191.87,61.5,286.56
						C1685.19,1280.05,1745.02,1263.36,1738.59,1224.22z"/>
				</g>
				<g>
					<g>
						<g>
							<path style="fill:#FFFFFF;" d="M1655,1206.04c0,0-35.06-22.53-11.69-38.34c17.8-12.05,61.81-25.38,81.78-31.04
								c9.21-2.61,19.39-0.25,25.77,6.89c4.12,4.62,6.33,19.99,3.78,28.74c14.79,9.84,40.37,20.69,56.83,54.04
								c12.31,24.95,19.48,54.07,18.6,81.96c-0.45,14.34-3.47,28.29-12.45,39.78c-4.99,6.39-11.55,12.12-19.31,14.78
								c-3.87,1.33-7.97,1.8-12.02,1.18c-1.18-0.18-9.41-1.72-9.41-1.72s-24.59,35.12-53.9,4.05c0,0-42.55,51.89-60.36-34.85
								c-1.08-5.25-24.83-1.77-41.63-17.27c-2.49-2.3-19.61-18.55-20.66-41.73C1599.06,1244.93,1620.96,1216.83,1655,1206.04z"/>
							<path d="M1696.01,1383.52c-1.67,0-3.37-0.19-5.08-0.61c-13.67-3.37-23.78-20.55-30.05-51.04c-0.18-0.89-5.35-1.85-8.44-2.43
								c-8.77-1.63-22.03-4.1-32.65-13.91c-3.36-3.09-20.17-19.71-21.23-42.94c-1.29-28.35,20.18-55.53,52.58-67.11
								c-5.65-4.2-17.5-14.26-17.62-24.95c-0.07-5.48,2.9-10.29,8.8-14.29c18.18-12.3,63.6-25.97,82.28-31.28
								c10.16-2.88,20.98,0.03,27.56,7.41c4.47,5,6.65,19.76,4.49,29.14c2.13,1.38,4.48,2.8,6.97,4.3
								c14.96,9.04,35.44,21.4,49.43,49.74c12.97,26.27,19.64,55.67,18.78,82.79c-0.55,17.11-4.74,30.45-12.82,40.8
								c-4.12,5.27-10.95,12.22-20.13,15.37c-4.31,1.48-8.64,1.9-12.86,1.26c-0.92-0.14-6.1-1.1-8.39-1.53
								c-2.71,3.49-13.06,15.58-27.59,16.64c-9.33,0.66-18.4-3.34-27-11.93C1719.37,1372.95,1708.45,1383.52,1696.01,1383.52z
								 M1732.47,1137.38c-2.29,0-4.62,0.32-6.91,0.97c-18.52,5.26-63.51,18.79-81.27,30.8c-4.86,3.29-7.31,7.11-7.26,11.34
								c0.14,11.87,18.73,23.95,18.92,24.07l3.15,2.03l-3.57,1.13c-32.22,10.21-54.7,37.43-53.46,64.72
								c1,21.85,16.92,37.58,20.1,40.51c9.88,9.11,22.54,11.47,30.91,13.03c6.37,1.19,10.58,1.97,11.24,5.18
								c5.96,29.05,15.2,45.31,27.44,48.34c14.96,3.71,29.69-14.07,29.84-14.25l1.27-1.55l1.37,1.45
								c8.25,8.74,16.83,12.88,25.53,12.22c15-1.09,25.54-15.92,25.65-16.07l0.65-0.93l1.11,0.21c0,0,8.18,1.53,9.35,1.71
								c3.64,0.56,7.42,0.19,11.19-1.11c8.35-2.87,14.67-9.31,18.5-14.21c7.6-9.74,11.56-22.42,12.07-38.75
								c0.84-26.56-5.7-55.37-18.42-81.13c-13.53-27.41-33.51-39.48-48.1-48.29c-2.94-1.78-5.69-3.44-8.14-5.07l-1.07-0.72
								l0.36-1.24c2.47-8.47,0.11-23.15-3.4-27.08C1745.31,1139.98,1739.04,1137.38,1732.47,1137.38z"/>
						</g>
						<g>
							<line style="fill:none;" x1="1723.11" y1="1365.42" x2="1719.16" y2="1331.58"/>
							
								<rect x="1719.48" y="1331.49" transform="matrix(0.9932 -0.116 0.116 0.9932 -144.8025 208.7562)" width="3.52" height="34.07"/>
						</g>
						<g>
							<line style="fill:none;" x1="1776.88" y1="1362.32" x2="1769.9" y2="1327.53"/>
							
								<rect x="1771.68" y="1327.18" transform="matrix(0.9805 -0.1966 0.1966 0.9805 -229.796 374.8982)" width="3.52" height="35.47"/>
						</g>
						<g>
							<line style="fill:none;" x1="1662.61" y1="1331.51" x2="1654.47" y2="1282.99"/>
							
								<rect x="1656.79" y="1282.59" transform="matrix(0.9862 -0.1655 0.1655 0.9862 -193.4701 292.5194)" width="3.52" height="49.19"/>
						</g>
						<g>
							<line style="fill:none;" x1="1655" y1="1206.04" x2="1687.63" y2="1194.53"/>
							
								<rect x="1654.13" y="1198.49" transform="matrix(0.9433 -0.3321 0.3321 0.9433 -303.7291 623.166)" width="34.61" height="3.52"/>
						</g>
						<g>
							<line style="fill:none;" x1="1730.99" y1="1181.16" x2="1754.63" y2="1172.29"/>
							
								<rect x="1730.23" y="1174.96" transform="matrix(0.9361 -0.3518 0.3518 0.9361 -302.553 688.3419)" width="25.25" height="3.52"/>
						</g>
					</g>
				</g>
				<g>
					<path style="fill:#00BEFB;" d="M1490.26,767.29l37.59,155.28c0,0-228.51,95.47-245.41-28.12
						C1272.11,818.96,1490.26,767.29,1490.26,767.29z"/>
					<path d="M1373.62,959.59c-24.55,0-44.52-4.35-59.74-13.06c-18.78-10.74-29.94-28.19-33.18-51.84
						c-4.41-32.2,29.61-63.75,101.1-93.76c52.77-22.15,107.51-35.23,108.06-35.36l1.7-0.41l38.36,158.44l-1.38,0.58
						c-0.36,0.16-37.11,15.41-81.6,25.74C1419.21,956.38,1394.72,959.59,1373.62,959.59z M1488.97,769.42
						c-20.33,5.06-214.3,55.21-204.79,124.8c3.08,22.52,13.66,39.09,31.44,49.26c62.29,35.64,195.11-15.92,210.17-21.97
						L1488.97,769.42z"/>
				</g>
			</g>
			<g>
				<polygon style="fill:#712CE5;" points="1264.03,938.93 1151.59,938.93 1095.36,1036.31 1151.59,1133.69 1264.03,1133.69 
					1320.26,1036.31 				"/>
				<path d="M1265.05,1135.45h-114.48l-0.5-0.88l-56.73-98.26l57.24-99.14h114.48l0.5,0.88l56.73,98.26L1265.05,1135.45z
					 M1152.6,1131.94h110.41l55.21-95.62l-55.21-95.62H1152.6l-55.21,95.62L1152.6,1131.94z"/>
			</g>
		</g>
	</g>
</g>
</svg>
