<?xml version="1.0" encoding="iso-8859-1"?>
<!-- Generator: Adobe Illustrator 30.0.0, SVG Export Plug-In . SVG Version: 9.03 Build 0)  -->
<svg version="1.1" id="Capa_1" xmlns="http://www.w3.org/2000/svg" xmlns:xlink="http://www.w3.org/1999/xlink" x="0px" y="0px"
	 viewBox="0 0 2000 2000" style="enable-background:new 0 0 2000 2000;" xml:space="preserve">
<g>
	<g>
		<g id="XMLID_25_">
			<rect x="100.31" y="1009.94" style="fill:#00C793;" width="1798.08" height="889.94"/>
		</g>
		<g style="opacity:0.27;">
			<g style="opacity:0.27;">
				<rect x="100.31" y="1009.94" style="fill:#FFFFFF;" width="195.99" height="889.94"/>
			</g>
			<g style="opacity:0.27;">
				<rect x="806.59" y="1009.94" style="fill:#FFFFFF;" width="209.07" height="889.94"/>
			</g>
			<g style="opacity:0.27;">
				<rect x="1152.37" y="1009.94" style="fill:#FFFFFF;" width="206.45" height="889.94"/>
			</g>
			<g style="opacity:0.27;">
				<rect x="1495.52" y="1009.94" style="fill:#FFFFFF;" width="169.78" height="889.94"/>
			</g>
			<g style="opacity:0.27;">
				<rect x="1802.01" y="1009.94" style="fill:#FFFFFF;" width="96.37" height="889.94"/>
			</g>
			<g style="opacity:0.27;">
				<rect x="464.29" y="1009.94" style="fill:#FFFFFF;" width="205.59" height="889.94"/>
			</g>
		</g>
		<g>
			<g>
				<rect x="100.31" y="1522.6" style="fill:#FFFFFF;" width="1797.87" height="34.46"/>
			</g>
		</g>
	</g>
	<g>
		<g>
			<g>
				<g>
					<g>
						<path d="M153.51,1391.07l-2.49-2.49c38.99-38.99,77.48-70.45,123.29-105.68c5.7-4.27,9.7-9.88,13.58-15.3
							c5.57-7.78,11.32-15.83,22.02-20.11l1.31,3.27c-9.74,3.9-14.95,11.18-20.46,18.89c-4.03,5.64-8.2,11.48-14.31,16.06
							C230.76,1320.84,192.37,1352.22,153.51,1391.07z"/>
					</g>
				</g>
				<g>
					<g>
						<path d="M157.19,1260.74l-2.81-2.11c6.58-8.78,14.41-14.8,21.98-20.63c4.79-3.69,9.33-7.18,13.36-11.21l0.46-0.33
							c6.65-3.33,17.05-10.15,24.17-17.26c3.81-3.81,9.37-5.67,14.76-7.46c5.22-1.74,10.16-3.39,13.38-6.61
							c5.29-5.29,10.51-8.6,17.13-12.8c2.38-1.51,4.94-3.13,7.76-5.01c3.93-3.98,8.54-7.53,13.43-11.3
							c7.38-5.68,15.02-11.56,21.31-19.95l2.81,2.11c-6.58,8.78-14.41,14.8-21.98,20.63c-4.79,3.69-9.33,7.18-13.36,11.21
							c-3.11,2.11-5.69,3.75-8.09,5.27c-6.43,4.08-11.52,7.3-16.53,12.31c-3.81,3.81-9.37,5.67-14.76,7.46
							c-5.22,1.74-10.16,3.39-13.38,6.61c-7.3,7.3-17.92,14.29-24.83,17.79c-4.14,4.11-8.69,7.61-13.5,11.31
							C171.12,1246.46,163.48,1252.34,157.19,1260.74z"/>
					</g>
				</g>
				<g>
					<g>
						<path d="M153.51,1151.88l-2.49-2.49c10.28-10.28,22.21-16.76,34.84-23.63c4.76-2.59,9.69-5.27,14.56-8.18l10.69-10.69
							l0.39-0.13c3.35-1.12,6.66-1.88,9.86-2.61c7.03-1.62,13.09-3.01,17.6-7.51c10.28-10.28,22.21-16.76,34.84-23.63
							c4.76-2.59,9.69-5.27,14.56-8.18l10.4-10.4l2.49,2.49l-10.89,10.82c-5,3-10.02,5.73-14.88,8.37
							c-12.4,6.74-24.11,13.11-34.03,23.02c-5.21,5.21-12.05,6.79-19.29,8.45c-2.99,0.69-6.08,1.4-9.14,2.4l-10.6,10.52
							c-5,3-10.02,5.73-14.88,8.37C175.14,1135.59,163.43,1141.96,153.51,1151.88z"/>
					</g>
				</g>
				<g>
					<g>
						<path d="M153.34,1046.49l-2.16-2.78c19.11-14.86,39.08-24.45,60.23-34.59c13.73-6.58,27.92-13.39,41.96-21.81
							c4.99-3.75,10.09-6.66,15.02-9.48c8.55-4.88,16.62-9.48,23.16-18.21l2.81,2.11c-6.98,9.31-15.36,14.09-24.24,19.15
							c-4.84,2.76-9.85,5.62-14.81,9.34c-14.33,8.61-28.6,15.45-42.39,22.07C191.96,1022.36,172.15,1031.86,153.34,1046.49z"/>
					</g>
				</g>
				<g>
					<g>
						<path d="M156.84,937.47l-2.11-2.81c24.77-18.58,54.85-33.62,91.96-45.99c8.63-4.33,16-10.13,23.12-15.73
							c4.01-3.15,7.79-6.13,11.64-8.69l1.95,2.93c-3.73,2.49-7.46,5.42-11.41,8.53c-7.26,5.71-14.77,11.62-23.95,16.21
							C211.05,904.25,181.3,919.12,156.84,937.47z"/>
					</g>
				</g>
				<g>
					<g>
						<path d="M153.51,828.26l-2.49-2.49c1.2-1.2,1.96-2.43,2.63-3.51c1.17-1.91,2.4-3.88,5.29-4.03
							c11.69-4.66,23.94-8.61,35.78-12.43c23.71-7.65,48.23-15.56,69.14-29.49l1.95,2.93c-21.31,14.2-46.07,22.19-70.01,29.92
							c-11.88,3.83-24.17,7.8-35.84,12.47l-0.65,0.13c-1.09,0-1.45,0.42-2.66,2.37C155.91,825.29,155,826.77,153.51,828.26z"/>
					</g>
				</g>
				<g>
					<g>
						<path d="M153.51,719.21l-2.49-2.49c3.81-3.81,11.04-7.41,15.08-7.55c6.63-1.65,13.33-3.13,19.81-4.56
							c21.55-4.75,41.9-9.23,60.45-19.84l1.74,3.05c-19.02,10.87-39.62,15.41-61.44,20.22c-6.52,1.44-13.26,2.92-19.91,4.58
							l-0.43,0.05C163.55,712.69,156.96,715.76,153.51,719.21z"/>
					</g>
				</g>
				<g>
					<g>
						<path d="M156.34,603.56l-1.11-3.33c10.7-3.57,23.3-5.37,35.48-7.11c12.03-1.72,24.47-3.5,34.87-6.96l1.11,3.33
							c-10.7,3.57-23.3,5.37-35.48,7.11C179.18,598.31,166.74,600.09,156.34,603.56z"/>
					</g>
				</g>
				<g>
					<g>
						<rect x="152.26" y="491.09" width="56.28" height="3.52"/>
					</g>
				</g>
				<g>
					<g>
						<path d="M203.28,1411.16c-13.1-101.57-17.84-214.1-14.08-334.45c1.87-36.8,4.11-74.16,6.27-110.29
							c10.03-167.54,20.4-340.79-2.74-508.51l3.48-0.48c23.18,168.06,12.8,341.48,2.76,509.2c-2.16,36.12-4.4,73.48-6.27,110.22
							c-3.75,120.13,0.97,232.47,14.06,333.85L203.28,1411.16z"/>
					</g>
				</g>
				<g>
					<g>
						<path d="M273.64,1347.91c-10.51-63.08-17.62-127.06-21.12-190.14c-1.06-52.9-0.2-106.56,0.63-158.45
							c1.93-120.45,3.93-245.01-18.19-365.45l3.46-0.64c22.18,120.78,20.19,245.52,18.25,366.14
							c-0.83,51.86-1.69,105.49-0.64,158.26c3.5,62.9,10.59,126.74,21.08,189.69L273.64,1347.91z"/>
					</g>
				</g>
			</g>
			<g>
				<g>
					<g>
						<path d="M1850.31,1401.86c-31.81-20.45-56.77-47.21-80.9-73.08c-13.47-14.44-27.4-29.38-42.46-43.18l-42.08-31.55l2.11-2.81
							l42.21,31.66c15.29,14,29.27,28.99,42.78,43.48c23.99,25.72,48.79,52.32,80.23,72.53L1850.31,1401.86z"/>
					</g>
				</g>
				<g>
					<g>
						<path d="M1836.15,1264.62c-26.4-19.37-51.45-39.04-75.67-58.08c-24.2-19.01-49.22-38.67-75.58-58.01l2.08-2.84
							c26.4,19.37,51.45,39.04,75.67,58.08c24.2,19.01,49.22,38.67,75.58,58.01L1836.15,1264.62z"/>
					</g>
				</g>
				<g>
					<g>
						<path d="M1851.26,1166.46c-3.6,0-11.04,0-15.12-3.84c-24.65-13.18-46.46-29.56-67.55-45.4
							c-24.89-18.7-48.39-36.36-76.37-49.41l1.49-3.19c28.3,13.21,53.06,31.8,76.99,49.79c21.05,15.81,42.81,32.16,67.31,45.23
							l0.42,0.31c3,3,9.64,3,12.83,3L1851.26,1166.46L1851.26,1166.46z"/>
					</g>
				</g>
				<g>
					<g>
						<path d="M1843.25,1053.61c-15.8-10.53-31.88-20.36-47.43-29.86c-15.58-9.52-31.69-19.37-47.55-29.94
							c-6.47-3.88-12-7.77-17.34-11.53c-8.83-6.21-17.16-12.08-28.07-16.44l1.31-3.27c11.29,4.52,19.79,10.5,28.79,16.83
							c5.29,3.73,10.76,7.57,17.19,11.43c15.87,10.58,31.95,20.4,47.5,29.91c15.58,9.52,31.69,19.37,47.55,29.94L1843.25,1053.61z"
							/>
					</g>
				</g>
				<g>
					<g>
						<path d="M1843.5,944.7c-39.84-18.11-72.78-40.36-105.81-63.48c-3.09-1.52-7.44-2.39-11.64-3.23
							c-4.44-0.89-9.03-1.8-12.76-3.67l1.57-3.15c3.31,1.65,7.66,2.53,11.87,3.37c4.44,0.89,9.03,1.8,12.76,3.67
							c33.11,23.15,65.9,45.3,105.47,63.29L1843.5,944.7z"/>
					</g>
				</g>
				<g>
					<g>
						<path d="M1843.5,839.17c-13.93-6.33-27.54-13.65-40.7-20.72c-24.16-12.98-46.97-25.24-71.59-31.95l0.93-3.39
							c25.01,6.82,48,19.17,72.33,32.25c13.11,7.04,26.67,14.33,40.49,20.61L1843.5,839.17z"/>
					</g>
				</g>
				<g>
					<g>
						<path d="M1844.03,723.24c-18.09-2.01-35.3-8.65-51.94-15.08c-12.8-4.94-26.04-10.06-39.7-13.09l0.76-3.44
							c13.92,3.1,27.28,8.26,40.21,13.24c17.19,6.64,33.42,12.91,51.06,14.87L1844.03,723.24z"/>
					</g>
				</g>
				<g>
					<g>
						<path d="M1847.26,610.62c-4.65-1.33-9.29-2.78-13.97-4.24c-19.79-6.19-40.27-12.59-62.72-9.78l-0.44-3.49
							c23.24-2.9,44.06,3.61,64.2,9.91c4.64,1.45,9.27,2.9,13.89,4.22L1847.26,610.62z"/>
					</g>
				</g>
				<g>
					<g>
						<path d="M1819.74,502.53c-4.99,0-10.01-0.23-14.96-0.46c-4.66-0.22-9.07-0.42-13.32-0.42v-3.52c4.33,0,8.78,0.21,13.49,0.43
							c14.35,0.67,29.2,1.36,42.14-3.82l1.31,3.27C1839.34,501.62,1829.59,502.53,1819.74,502.53z"/>
					</g>
				</g>
				<g>
					<g>
						<path d="M1789.71,1414.65c-4.73-42.55-6.25-82.58-7.86-124.96c-0.76-20.04-1.55-40.76-2.7-61.57
							c-2.95-120.94,8.73-235.14,21.11-356.06c2.37-23.13,4.75-46.4,7.04-69.84c15.03-123.97,12.73-235.41-7.01-340.71l3.45-0.65
							c19.81,105.66,22.12,217.45,7.05,341.74c-2.28,23.41-4.66,46.68-7.03,69.81c-12.36,120.8-24.04,234.9-21.1,355.56
							c1.15,20.79,1.95,41.53,2.71,61.58c1.61,42.31,3.13,82.28,7.84,124.7L1789.71,1414.65z"/>
					</g>
				</g>
				<g>
					<g>
						<path d="M1747.5,1344.29c-14.9-134.12-1.86-270.39,10.76-402.18c2.29-23.94,4.66-48.7,6.82-73.05
							c7.9-90.88,5.54-173.57-7.01-245.78l3.46-0.6c12.61,72.51,14.99,155.5,7.06,246.68c-2.16,24.36-4.53,49.12-6.83,73.07
							c-12.6,131.61-25.63,267.7-10.76,401.45L1747.5,1344.29z"/>
					</g>
				</g>
			</g>
			<g>
				<g>
					<g>
						<path d="M1436.23,504.62c-140.14,0-279.82-4.06-416.93-8.04c-67.44-1.96-137.18-3.99-205.77-5.49
							c-218.34-7.94-401.59-5.71-576.72,7.03l-0.25-3.51c175.25-12.75,358.62-14.99,577.08-7.04c68.57,1.51,138.32,3.53,205.77,5.49
							c247.26,7.18,502.93,14.61,754.35-1.97l0.23,3.51C1661.86,501.99,1548.9,504.62,1436.23,504.62z"/>
					</g>
				</g>
				<g>
					<g>
						<path d="M1309.55,596.61l-10.07-0.26c-129.88-3.42-264.19-6.95-394.54-13.81c-110.64-5.27-221.65-4.6-329.01-3.96
							c-36.16,0.21-73.54,0.44-110.59,0.44c-51.79,3.46-105.47,7.04-158.29,7.04v-3.52c52.7,0,106.32-3.57,158.18-7.03
							c37.16,0,74.54-0.23,110.69-0.44c107.41-0.65,218.47-1.31,329.21,3.96c130.31,6.86,264.6,10.39,394.46,13.81l10.02,0.26
							c145.81,0,292.53-3.55,436.05-10.55l0.17,3.51C1602.24,593.06,1455.46,596.61,1309.55,596.61z"/>
					</g>
				</g>
				<g>
					<g>
						<path d="M1397.01,676.32c-188.96,0-377.61-6.5-562.39-12.88c-216.92-7.89-406.71-5.59-580.21,7.03l-0.25-3.51
							c173.64-12.63,363.56-14.93,580.59-7.04c300.87,10.37,611.97,21.1,917.93,3.52l0.2,3.51
							C1634.71,673.75,1515.8,676.32,1397.01,676.32z"/>
					</g>
				</g>
				<g>
					<g>
						<path d="M1349.62,767.36c-70.47,0-140.99-1.52-212.53-5.42c-317.54-11.76-584.4-16.86-854.59-3.51l-0.18-3.51
							c270.32-13.35,537.27-8.25,854.93,3.52c192.02,10.47,376.88,3.75,572.59-3.37l4.16-0.15l0.13,3.51l-4.16,0.15
							C1587.08,763.04,1468.44,767.35,1349.62,767.36z"/>
					</g>
				</g>
				<g>
					<g>
						<path d="M1394.98,856.37c-132.44,0-264.45-4.06-394.02-8.04c-63.74-1.96-129.64-3.99-194.46-5.49
							c-198.34-7.94-364.83-5.7-523.94,7.03l-0.28-3.51c159.27-12.74,325.87-14.98,524.33-7.04c64.8,1.51,130.72,3.53,194.46,5.49
							c233.67,7.18,475.29,14.61,712.89-1.97l0.25,3.51C1608.22,853.75,1501.46,856.37,1394.98,856.37z"/>
					</g>
				</g>
				<g>
					<g>
						<path d="M1413.2,946.23c-35.38,0-69.8-0.46-103.71-1.38c-104.62-1.1-210.61-3.97-313.1-6.75
							c-224.33-6.08-456.3-12.37-685.75-0.29l-0.19-3.51c229.6-12.08,461.64-5.8,686.03,0.28c102.48,2.78,208.44,5.65,313.07,6.75
							c116.78,3.15,239.68,0.92,386.82-7.03l0.19,3.51C1592.06,943.47,1499.76,946.23,1413.2,946.23z"/>
					</g>
				</g>
				<g>
					<g>
						<path d="M1360.13,1029.56c-67.76,0-138.03-1.08-208.94-3.81c-58.93-1.18-118.41-3.18-175.92-5.11
							c-113.67-3.82-231.21-7.78-348.09-5.44c-20.12,0-40.06-0.4-59.34-0.79c-39.5-0.8-76.8-1.54-116.47,0.79
							c-22.87,1.76-47.03,2.65-70.39,3.52c-23.33,0.87-47.45,1.76-70.28,3.51l-0.27-3.51c22.9-1.76,47.06-2.66,70.42-3.52
							c23.33-0.87,47.45-1.76,70.28-3.51c39.83-2.34,77.21-1.59,116.78-0.8c19.27,0.39,39.19,0.79,59.24,0.79
							c116.94-2.34,234.53,1.61,348.25,5.44c57.51,1.93,116.97,3.94,175.91,5.11c201.07,7.73,396.94,2.18,545.12-3.51l0.14,3.51
							C1600.57,1025.93,1484.58,1029.56,1360.13,1029.56z"/>
					</g>
				</g>
				<g>
					<g>
						<path d="M1352.44,1138.66c-72.19,0-139.45-1.29-204.77-3.85c-56.26-1.17-113.49-3.16-168.84-5.08
							c-110.65-3.84-225.08-7.81-337.59-5.47c-21.03,0-42.83-0.39-63.9-0.77c-42.89-0.77-87.23-1.58-129.5,0.77
							c-22.86,1.76-46.13,2.65-68.63,3.52c-22.46,0.87-45.69,1.76-68.52,3.51l-0.27-3.51c22.9-1.76,46.16-2.66,68.66-3.52
							c22.46-0.87,45.69-1.76,68.52-3.51c42.45-2.36,86.85-1.55,129.8-0.78c21.06,0.38,42.84,0.77,63.8,0.77
							c112.57-2.34,227.05,1.63,337.75,5.47c55.33,1.92,112.55,3.91,168.82,5.08c155.07,6.08,321.01,5,538.09-3.51l0.14,3.51
							C1560.28,1136.22,1451.69,1138.66,1352.44,1138.66z"/>
					</g>
				</g>
				<g>
					<g>
						<path d="M1352.44,1226.59c-72.19,0-139.45-1.29-204.77-3.85c-56.26-1.17-113.49-3.16-168.84-5.08
							c-110.65-3.84-225.08-7.81-337.59-5.47c-21.03,0-42.83-0.39-63.9-0.77c-42.89-0.77-87.23-1.57-129.5,0.77
							c-22.86,1.76-46.13,2.65-68.63,3.52c-22.46,0.87-45.69,1.76-68.52,3.51l-0.27-3.51c22.9-1.76,46.16-2.66,68.66-3.52
							c22.46-0.87,45.69-1.76,68.52-3.51c42.45-2.36,86.85-1.55,129.8-0.78c21.06,0.38,42.84,0.77,63.8,0.77
							c112.57-2.34,227.05,1.63,337.75,5.47c55.33,1.92,112.55,3.91,168.82,5.08c155.07,6.08,321.01,5,538.09-3.51l0.14,3.51
							C1560.28,1224.16,1451.69,1226.59,1352.44,1226.59z"/>
					</g>
				</g>
				<g>
					<g>
						<path d="M400.28,1288.1c-26.43-161.89-44.85-333.38-56.3-524.3c-11.96-139.51-26.91-259.12-45.7-365.63l3.46-0.61
							c18.81,106.61,33.78,226.33,45.75,365.99c11.45,190.84,29.86,362.22,56.27,523.99L400.28,1288.1z"/>
					</g>
				</g>
				<g>
					<g>
						<path d="M488.23,1288.2c-27.73-126.32-36.73-254.69-45.44-378.83c-1.26-18.03-2.53-36.05-3.84-54.08
							C424.64,701.45,406.89,550,386.2,405.16l3.48-0.5c20.7,144.9,38.45,296.41,52.77,450.34c1.32,18.06,2.59,36.09,3.85,54.12
							c8.7,124.02,17.69,252.26,45.36,378.33L488.23,1288.2z"/>
					</g>
				</g>
				<g>
					<g>
						<path d="M576.16,1288.12c-28.74-165.25-42.75-329.89-56.3-489.1c-7.57-143.89-22.52-274.99-45.71-400.84l3.46-0.64
							c23.21,126,38.18,257.24,45.76,401.23c13.54,159.08,27.54,323.63,56.26,488.74L576.16,1288.12z"/>
					</g>
				</g>
				<g>
					<g>
						<path d="M664.1,1288.12c-25.11-143.83-37.15-292.27-48.8-435.84c-6.35-78.34-12.92-159.34-21.57-239.65
							c-3.33-22.22-6.36-44.45-9.3-65.95c-6.55-48.04-12.73-93.41-22.34-141.43l3.45-0.69c9.62,48.13,15.82,93.55,22.37,141.64
							c2.93,21.49,5.96,43.71,9.3,65.98c8.66,80.43,15.24,161.46,21.59,239.82c11.64,143.48,23.67,291.85,48.75,435.52
							L664.1,1288.12z"/>
					</g>
				</g>
				<g>
					<g>
						<path d="M744.99,1288.04c-6.92-55.37-14.08-112.62-17.6-172.48c-1.74-8.64-2.64-17.62-3.51-26.31
							c-0.86-8.6-1.75-17.5-3.49-26.21c-4.33-67.91-7.36-136.27-10.29-202.37c-6.63-149.5-13.48-304.09-35.46-455.51l3.48-0.51
							c22,151.59,28.86,306.27,35.49,455.86c2.93,66.09,5.96,134.42,10.25,202.07c1.74,8.64,2.64,17.63,3.51,26.32
							c0.86,8.6,1.75,17.5,3.49,26.21c3.55,59.98,10.69,117.18,17.61,172.49L744.99,1288.04z"/>
					</g>
				</g>
				<g>
					<g>
						<path d="M832.93,1291.57c-19.83-147.6-25.98-299.3-31.92-446c-3.56-87.87-7.24-178.73-13.82-268.17
							c-3.48-55.62-10.5-115.67-17.58-172.27l3.49-0.44c7.08,56.66,14.12,116.78,17.6,172.47c6.58,89.48,10.26,180.37,13.83,268.27
							c5.94,146.62,12.09,298.23,31.89,445.68L832.93,1291.57z"/>
					</g>
				</g>
				<g>
					<g>
						<path d="M910.34,1288.16c-4.77-23.85-6.29-45.68-7.9-68.79c-0.75-10.81-1.53-21.98-2.67-33.39
							c-9.39-115.79-10.45-233.44-11.47-347.23c-1.28-142.14-2.6-289.13-20.18-433.64l3.49-0.43
							c17.6,144.71,18.93,291.79,20.21,434.03c1.02,113.72,2.08,231.32,11.46,346.94c1.14,11.43,1.92,22.63,2.68,33.47
							c1.6,23,3.12,44.72,7.84,68.34L910.34,1288.16z"/>
					</g>
				</g>
				<g>
					<g>
						<path d="M1005.28,1294.85h-3.52c0-39.11-3.05-75.45-6.27-113.93l-0.76-9.04c-4.53-108.68-1.25-219.07,1.93-325.83
							c4.24-142.25,8.61-289.34-5.45-433.95l3.5-0.34c14.08,144.84,9.7,292.04,5.46,434.39c-3.18,106.7-6.46,217.02-1.94,325.5
							l0.75,8.97C1002.23,1219.19,1005.28,1255.6,1005.28,1294.85z"/>
					</g>
				</g>
				<g>
					<g>
						<path d="M1610.3,1287.82h-3.52v-35.17c3.47-27.84,7.04-56.39,7.04-84.42c12.62-121.24,30.25-236.07,48.92-357.65
							c7.12-46.35,14.48-94.28,21.45-142.1c5.27-43.89,8.84-87.69,12.3-130.04c3.46-42.39,7.04-86.21,12.32-130.22l3.49,0.42
							c-5.27,43.94-8.85,87.73-12.31,130.09c-3.46,42.39-7.04,86.21-12.32,130.22c-6.98,47.88-14.34,95.81-21.46,142.17
							c-18.66,121.53-36.29,236.33-48.89,357.3c0.01,28.07-3.57,56.74-7.04,84.46L1610.3,1287.82z"/>
					</g>
				</g>
				<g>
					<g>
						<path d="M1522.36,1287.91l-3.51-0.18c7.96-159.12,29.48-309.32,52.27-468.34c7.22-50.35,14.68-102.41,21.61-154.42
							c10.78-89.88,17.68-174.98,21.09-260.14l3.52,0.14c-3.41,85.26-10.32,170.45-21.12,260.44
							c-6.94,52.05-14.4,104.12-21.62,154.47C1551.82,978.83,1530.31,1128.95,1522.36,1287.91z"/>
					</g>
				</g>
				<g>
					<g>
						<path d="M1430.92,1287.99c-2.11-21.15-0.41-41.43,1.23-61.03c1.12-13.3,2.27-27.04,2.27-41.15
							c9.07-111.98,24.22-224.96,38.88-334.22c19.43-144.94,39.53-294.81,45.55-443.24l3.52,0.14
							c-6.03,148.59-26.13,298.54-45.58,443.56c-14.65,109.21-29.79,222.15-38.85,333.9c0.01,14.12-1.15,27.94-2.28,41.3
							c-1.71,20.34-3.32,39.56-1.24,60.39L1430.92,1287.99z"/>
					</g>
				</g>
				<g>
					<g>
						<path d="M1357.03,1284.46l-3.5-0.31c2.84-32.67,4.57-66.02,6.24-98.27c2.49-48.01,5.06-97.66,11.36-148.02l-0.01-34.96
							c32.12-228.97,50-418.93,56.28-598.05l3.52,0.12c-6.29,179.25-24.18,369.33-56.3,598.17l0.02,34.93
							c-6.29,50.45-8.86,100.04-11.34,147.99C1361.61,1218.34,1359.88,1251.72,1357.03,1284.46z"/>
					</g>
				</g>
				<g>
					<g>
						<path d="M1265.58,1287.85l-3.52-0.06c2.41-153.89,19.97-309.52,36.97-460.02c7.94-70.34,16.15-143.07,22.84-215.49
							c3.51-35.13,4.41-69.96,5.27-103.65c0.87-33.76,1.76-68.66,5.29-103.9l3.5,0.35c-3.51,35.11-4.4,69.95-5.27,103.64
							c-0.87,33.76-1.76,68.66-5.29,103.9c-6.68,72.44-14.9,145.19-22.84,215.55C1285.54,978.59,1267.98,1134.13,1265.58,1287.85z"
							/>
					</g>
				</g>
				<g>
					<g>
						<path d="M1177.64,1291.34h-3.52c0-167.12,15.52-335.32,30.52-497.98c2.75-29.81,5.51-59.67,8.18-89.62
							c7-97.96,10.55-197.33,10.55-295.32h3.52c0,98.07-3.55,197.53-10.56,295.6c-2.68,29.98-5.44,59.85-8.18,89.66
							C1193.15,956.26,1177.64,1124.38,1177.64,1291.34z"/>
					</g>
				</g>
				<g>
					<g>
						<path d="M1086.21,1288.09c-5.32-34.56-4.63-71.13-3.97-106.49c0.21-11.39,0.43-23.17,0.43-34.48
							c1.19-27.28,1.98-55.42,2.76-82.63c1.54-54.09,3.13-110.01,7.8-163.75c18.59-174.77,21.1-346.94,21.1-492.31h3.52
							c0,145.46-2.51,317.75-21.12,492.65c-4.66,53.6-6.25,109.48-7.78,163.51c-0.78,27.22-1.58,55.38-2.76,82.61
							c0,11.26-0.22,23.06-0.43,34.47c-0.66,35.22-1.34,71.63,3.93,105.89L1086.21,1288.09z"/>
					</g>
				</g>
			</g>
		</g>
		<g>
			<g>
				<g>
					<path style="fill:#EBE1FB;" d="M313.33,1283.79l-20.32-375.22c-0.2-3.58-0.65-7.18-1.37-10.7l-84.11-414.57
						c-3.43-16.9-14.25-31.88-29.71-41.11l-21.35-12.76c0.65-2.3,2.2-6.52,6.03-10.59c4.65-4.94,10.05-6.88,12.52-7.61
						c5.68,3.32,11.36,6.63,17.04,9.95c21.6,12.91,36.73,33.85,41.52,57.46l84.11,414.58c0.94,4.64,1.54,9.38,1.8,14.1l20.32,375.22
						L313.33,1283.79z"/>
					<path d="M311.66,1285.63l-20.42-376.97c-0.19-3.51-0.64-7.03-1.34-10.45l-84.11-414.57c-3.33-16.41-13.86-30.97-28.88-39.95
						l-22.51-13.45l0.37-1.3c1.19-4.19,3.42-8.1,6.44-11.31c4.49-4.76,9.71-7.03,13.3-8.09l0.73-0.22l17.69,10.33
						c22.04,13.17,37.48,34.53,42.36,58.63l84.11,414.58c0.95,4.71,1.57,9.54,1.83,14.35l20.42,376.99L311.66,1285.63z
						 M158.56,428.63l20.16,12.05c15.88,9.49,27.01,24.9,30.53,42.27l84.11,414.57c0.73,3.59,1.2,7.28,1.4,10.96l20.23,373.48
						l22.97-1.1L317.74,907.4c-0.25-4.64-0.85-9.3-1.77-13.84l-84.11-414.57c-4.69-23.13-19.53-43.65-40.7-56.3l-16.36-9.55
						c-3.13,1.02-7.36,3.03-11.02,6.91C161.45,422.52,159.66,425.47,158.56,428.63z"/>
				</g>
			</g>
			<g>
				<g>
					<path style="fill:#EBE1FB;" d="M1686.8,1290l20.32-375.22c0.2-3.58,0.65-7.18,1.37-10.7l84.11-414.57
						c3.43-16.9,14.26-31.88,29.71-41.11l21.35-12.76c-0.65-2.3-2.2-6.52-6.03-10.59c-4.65-4.94-10.05-6.88-12.52-7.61
						c-5.68,3.32-11.36,6.63-17.04,9.95c-21.6,12.91-36.73,33.85-41.52,57.46l-84.11,414.58c-0.94,4.64-1.54,9.38-1.8,14.1
						l-20.32,375.22L1686.8,1290z"/>
					<path d="M1688.46,1291.84l-30-1.43l20.42-376.99c0.26-4.8,0.87-9.63,1.83-14.35l84.11-414.58
						c4.89-24.09,20.32-45.46,42.34-58.62l17.71-10.34l0.73,0.21c3.6,1.07,8.82,3.33,13.3,8.09c3.03,3.21,5.25,7.12,6.44,11.31
						l0.37,1.3l-22.51,13.45c-15.03,8.98-25.56,23.54-28.88,39.95l-84.11,414.57c-0.69,3.41-1.14,6.92-1.34,10.45L1688.46,1291.84z
						 M1662.16,1287.07l22.97,1.1l20.23-373.48c0.21-3.7,0.68-7.38,1.4-10.96l84.11-414.57c3.53-17.38,14.66-32.79,30.53-42.27
						l20.16-12.05c-1.1-3.16-2.88-6.11-5.22-8.58c-3.66-3.88-7.89-5.89-11.02-6.91l-16.37,9.56c-21.16,12.65-36,33.17-40.69,56.29
						l-84.11,414.58c-0.92,4.55-1.52,9.21-1.77,13.84L1662.16,1287.07z"/>
				</g>
			</g>
		</g>
		<g>
			<path style="fill:#EBE1FB;" d="M1898.25,1520.67V391.45c0-16.45-14.3-29.81-31.98-29.88l-1731.94-7.11
				c-17.96-0.07-32.56,13.45-32.56,30.16v1135.6c0,0,52.23-0.24,52.23,0.88V439.38c0-15.92,13.74-28.8,30.65-28.73l1629.86,6.78
				c16.64,0.07,30.09,12.79,30.09,28.47v1074.78L1898.25,1520.67L1898.25,1520.67z"/>
			<path d="M153.32,1522.68c-2.54-0.67-32.98-0.78-51.55-0.7l-1.77,0.01V384.62c0-8.14,3.28-15.9,9.24-21.83
				c6.48-6.45,15.68-10.12,25.09-10.09l1731.94,7.11c18.6,0.07,33.73,14.27,33.73,31.65v1130.98h-57.17V445.89
				c0-14.66-12.71-26.64-28.34-26.71L184.63,412.4c-7.9,0.14-15.61,3.06-21.06,8.48c-5.04,5.02-7.82,11.59-7.82,18.49V1521.1h-3.52
				h1.76L153.32,1522.68z M116.65,1518.43c22.56,0,31.73,0.3,35.59,0.67V439.38c0-7.84,3.14-15.3,8.85-20.98
				c6.1-6.08,14.75-9.69,23.56-9.51l1629.86,6.78c17.56,0.07,31.85,13.63,31.85,30.23v1073.03h50.13V391.45
				c0-15.44-13.56-28.06-30.23-28.13l-1731.94-7.11c-8.48-0.09-16.77,3.27-22.59,9.07c-5.29,5.27-8.21,12.14-8.21,19.34v1133.84
				C108.33,1518.44,112.7,1518.43,116.65,1518.43z"/>
		</g>
	</g>
	<g>
		<g>
			<g>
				<g>
					<path d="M787.44,1266.1c-36.84,154.14-76.06,311.25-61.68,470.86c1.42,46.71,71.56,46.7,71.64,0
						c-13.85-153.78,23.63-303.3,59.12-451.8C867.24,1240.32,798.17,1221.18,787.44,1266.1z"/>
				</g>
				<g>
					<g>
						<path style="fill:#FFFFFF;" d="M732.95,1687.46c0,0,12.8-63.89-5.21-91.05c-10.65-16.06-37-8.43-38.32,10.6l-4.15,59.73
							C695.63,1675.13,716.76,1685.36,732.95,1687.46z"/>
						<path d="M734.34,1689.48c-17.55-1.88-41.32-13.77-50.89-21.9c4.43-17.94-5.3-76.88,21.56-80.83
							C755.47,1578.1,735.44,1686.03,734.34,1689.48z M687.09,1665.9c8.26,6.79,29.09,17.37,44.45,19.53
							c1.42-9.35,17.64-102.06-25.64-95.27c-8.39,2.21-14.17,8.88-14.73,16.98L687.09,1665.9z"/>
					</g>
					<g>
						<path style="fill:#FFBC00;" d="M779.27,1814.46c-35.22,23.33-287.25,19.05-310.09-0.24c-28.7-51.22,98.64-76.41,111.35-79.53
							c0,0,68.29-16.74,105.43-70.06c0,0,43.83,44.7,107.21,6.44C793.6,1668.57,819.66,1791.74,779.27,1814.46z"/>
						<path d="M631.9,1831.2c-46.5-0.19-154.2-1.26-164.26-16.12c-17.91-46.74,37.76-62.3,109.04-81.3
							c1.52-0.34,2.68-0.61,3.43-0.79c0.04,0.63,71.47-19.21,105.61-71.1c19.68,23.94,75.82,31.83,107.58,7.05
							c6.14,2.98,16.33,86.88,3.29,128.59C767.42,1842.43,716.32,1825.77,631.9,1831.2z M580.93,1736.37l0.01,0.04
							c-84.68,22.09-124.62,36.93-110.24,76.95c19.76,18.27,285.64,21.57,307.67-0.41l0,0c37.89-24.57,15.2-125.95,14.16-139.45
							c-56.48,33.06-97.95,1.12-106.29-6.21C650.44,1717.11,586.65,1734.98,580.93,1736.37z"/>
					</g>
					<g>
						<path style="fill:#FFFFFF;" d="M765.19,1742.51c0.74-26.46,14.72-45.5,30.34-63.43c4.4,23.39,10.19,91.09-3.78,122.76
							C790.99,1801.17,764.18,1778.57,765.19,1742.51z"/>
						<path d="M792.38,1804.74c-5.02-4.8-29.23-24.64-28.96-62.28l0,0c0.96-29.49,17.52-49.39,33.16-67.27
							C801.28,1700.01,808.68,1769.2,792.38,1804.74z M766.95,1742.56c-0.83,29.75,17.87,50.27,24.14,56.29
							c12.28-31.31,7.23-91.89,3.35-115.81C780.58,1699.22,767.65,1717.33,766.95,1742.56L766.95,1742.56z"/>
					</g>
					<g>
						<path style="fill:#FFFFFF;" d="M694,1728.88c-52.45,30.6-119.51,42.26-178.48,27.17c58.64-30.56,95.41-5.7,170.44-91.41
							c0,0,16.61,16.9,44.13,21.01C722.18,1703.84,709.57,1718.32,694,1728.88z"/>
						<path d="M562.9,1764.44c-19.59-0.02-35.49-2.49-52.38-8.09c62.24-33.11,100.8-7.22,175.2-94.46l1.49,1.51
							c-0.86-0.11,20.55,18.55,45.41,20.84c-7.77,18.84-20.41,34.46-37.63,46.09l0,0C659.7,1753.51,607.43,1763.71,562.9,1764.44z
							 M520.61,1755.74c52.21,12.98,127.36,0.09,172.4-28.32l0,0c15.35-10.4,26.96-23.98,34.54-40.41
							c-22.1-3.92-36.74-15.59-41.33-19.71C611.34,1750.21,579.64,1726.94,520.61,1755.74z"/>
					</g>
					<g>
						<path d="M750.51,1825.73c-3.18,20.84-24.29,27.45-20.91,2.28L750.51,1825.73z"/>
						<path d="M736.34,1846.53c-7.64-0.18-10.05-10.1-8.28-20.12l24.67-2.69C750.96,1833.59,745.71,1845.79,736.34,1846.53z
							 M731.18,1829.61c-1.96,21.16,14.18,13.03,17.07-1.86L731.18,1829.61z"/>
					</g>
					<g>
						<path d="M759.84,1825.15c1.48,27.97,22.83,10.44,20.3-9.46C780.15,1815.69,774.2,1819.91,759.84,1825.15z"/>
						<path d="M768.22,1841.84c-6.5,0.03-10.27-8.55-10.17-17.9c16.25-6.02,19.75-8.76,23.65-11.49
							C782.85,1823.2,779.51,1840.56,768.22,1841.84z M761.66,1826.35c2.09,22.89,17.6,6.97,16.76-7.54
							C775.48,1820.48,770.08,1823.21,761.66,1826.35z"/>
					</g>
					<g>
						<path d="M576.98,1830.97c0.65,27.61-22.48,28.58-19.84-0.11L576.98,1830.97z"/>
						<path d="M566.21,1854.37c-7.73,0.4-12.85-13.99-10.48-25.28l23,0.13C579.04,1839.37,576.26,1853.28,566.21,1854.37z
							 M558.74,1832.63c-0.61,26.36,16.63,20.47,16.49,0.09L558.74,1832.63z"/>
					</g>
					<g>
						<path d="M542.66,1830.35c-0.09,26.35-22.19,25.85-19.93-0.8L542.66,1830.35z"/>
						<path d="M531.94,1852.26c-7.75,0.25-12.23-12.97-10.87-24.54l23.2,0.93C544.73,1838.63,541.34,1851.23,531.94,1852.26z
							 M524.4,1831.38c-0.14,24.42,15.76,20.17,16.46,0.66L524.4,1831.38z"/>
					</g>
					<g>
						<path d="M507.85,1827.18c0.85,30.63-22.13,21.44-20-3.66L507.85,1827.18z"/>
						<path d="M498.8,1848.76c-8.18,0.76-14.42-16.49-12.54-27.31l23.27,4.25C510.04,1835.7,508.36,1847.55,498.8,1848.76z
							 M489.52,1825.62c0.13,23.66,17.25,25.83,16.63,3.04L489.52,1825.62z"/>
					</g>
					<g>
						
							<rect x="658.14" y="1699.01" transform="matrix(0.6255 -0.7802 0.7802 0.6255 -1103.2906 1163.0339)" width="3.52" height="63.63"/>
					</g>
					<g>
						
							<rect x="619.9" y="1717.95" transform="matrix(0.6441 -0.7649 0.7649 0.6441 -1116.2367 1097.7742)" width="3.52" height="61.11"/>
					</g>
					<g>
						
							<rect x="582.42" y="1729.76" transform="matrix(0.6778 -0.7353 0.7353 0.6778 -1106.0818 996.7513)" width="3.52" height="61.15"/>
					</g>
				</g>
			</g>
			<g>
				<g>
					<path d="M1210.56,1266.1c36.84,154.14,76.06,311.25,61.68,470.86c-1.42,46.71-71.56,46.7-71.64,0
						c13.85-153.78-23.63-303.3-59.12-451.8C1130.76,1240.32,1199.82,1221.18,1210.56,1266.1z"/>
				</g>
				<g>
					<g>
						<path style="fill:#FFFFFF;" d="M1265.05,1687.46c0,0-12.8-63.89,5.21-91.05c10.65-16.06,37-8.43,38.32,10.6l4.15,59.73
							C1302.36,1675.13,1281.23,1685.36,1265.05,1687.46z"/>
						<path d="M1263.66,1689.48c-1-4.96-13.1-64.6,5.14-94.04c5.17-7.8,14.67-11.2,24.2-8.69c9.87,2.61,16.67,10.51,17.34,20.14
							l4.21,60.69C1298.56,1679.58,1282.5,1686.48,1263.66,1689.48z M1286.73,1589.46c-37.33,4.34-21.18,86.05-20.27,95.97
							c15.37-2.16,36.19-12.74,44.45-19.53l-4.08-58.76C1306.34,1597.22,1296.97,1589.35,1286.73,1589.46z"/>
					</g>
					<g>
						<path style="fill:#FFBC00;" d="M1218.73,1814.46c35.22,23.33,287.25,19.05,310.09-0.24c28.7-51.22-98.64-76.41-111.35-79.53
							c0,0-68.29-16.74-105.43-70.06c0,0-43.83,44.7-107.21,6.44C1204.39,1668.57,1178.33,1791.74,1218.73,1814.46z"/>
						<path d="M1366.1,1831.2c-79.74-2.52-112.64,2.96-148.27-15.22l0,0c-8.57-5.08-14.1-11.28-16.43-18.44
							c-13.14-41.78-2.62-125.26,3.11-128.57c42.79,27.42,86.56,14.67,107.76-7.07c39.74,55.21,100.82,69.91,109.03,71.89
							c71.35,19.03,126.88,34.49,109.06,81.29C1520.24,1829.94,1412.65,1831.01,1366.1,1831.2z M1205.47,1673.5
							c-1.03,13.54-23.74,114.84,14.16,139.45l0,0c21.29,21.93,288.62,18.65,307.66,0.41c14.49-39.96-25.66-54.9-110.24-76.95
							l0.01-0.04c-5.72-1.39-69.5-19.27-105.3-69.08C1303.42,1674.62,1261.93,1706.56,1205.47,1673.5z"/>
					</g>
					<g>
						<path style="fill:#FFFFFF;" d="M1232.81,1742.51c-0.74-26.46-14.72-45.5-30.34-63.43c-4.4,23.39-10.19,91.09,3.78,122.76
							C1207,1801.17,1233.81,1778.57,1232.81,1742.51z"/>
						<path d="M1205.66,1804.67c-16.46-35.47-8.89-104.68-4.25-129.49c15.64,17.88,32.21,37.81,33.15,67.28l0,0
							C1234.82,1780.11,1210.66,1799.94,1205.66,1804.67z M1203.57,1683.04c-3.88,23.92-8.93,84.5,3.35,115.81
							C1238.3,1773.09,1238.57,1715.56,1203.57,1683.04z"/>
					</g>
					<g>
						<path style="fill:#FFFFFF;" d="M1304,1728.88c52.45,30.6,119.51,42.26,178.48,27.17c-58.64-30.56-95.41-5.7-170.44-91.41
							c0,0-16.61,16.9-44.13,21.01C1275.81,1703.84,1288.42,1718.32,1304,1728.88z"/>
						<path d="M1435.09,1764.44c-44.51-0.72-96.81-10.94-132.08-34.11l0,0c-17.22-11.62-29.86-27.25-37.63-46.09
							c24.77-2.24,46.42-21.02,45.41-20.84l1.49-1.51c74.47,87.29,112.9,61.31,175.2,94.46
							C1470.59,1761.95,1454.68,1764.42,1435.09,1764.44z M1270.44,1687.01c7.58,16.42,19.19,30.01,34.54,40.41l0,0
							c45.03,28.41,120.19,41.3,172.4,28.32c-58.99-28.77-90.77-5.55-165.61-88.43C1307.18,1671.42,1292.54,1683.1,1270.44,1687.01z
							"/>
					</g>
					<g>
						<path d="M1247.48,1825.73c3.18,20.84,24.29,27.45,20.91,2.28L1247.48,1825.73z"/>
						<path d="M1261.65,1846.53c-9.37-0.73-14.62-12.96-16.4-22.82l24.68,2.7C1271.7,1836.44,1269.29,1846.35,1261.65,1846.53z
							 M1249.75,1827.74c2.87,14.9,19.03,23.02,17.07,1.86L1249.75,1827.74z"/>
					</g>
					<g>
						<path d="M1238.15,1825.15c-1.48,27.96-22.83,10.44-20.3-9.46C1217.85,1815.69,1223.79,1819.91,1238.15,1825.15z"/>
						<path d="M1229.77,1841.84c-11.28-1.27-14.63-18.64-13.49-29.4c3.85,2.7,7.45,5.5,23.65,11.49
							C1240.04,1833.29,1236.27,1841.86,1229.77,1841.84z M1219.58,1818.82c-0.84,14.52,14.68,30.42,16.76,7.54
							C1227.91,1823.21,1222.51,1820.48,1219.58,1818.82z"/>
					</g>
					<g>
						<path d="M1421.01,1830.97c-0.65,27.61,22.48,28.58,19.84-0.11L1421.01,1830.97z"/>
						<path d="M1431.79,1854.37c-10.01-1.08-12.81-14.89-12.52-25.03c-0.02-0.23,22.25-0.22,23-0.26
							C1444.65,1840.46,1439.48,1854.77,1431.79,1854.37z M1422.76,1832.72c-0.13,20.39,17.11,26.24,16.49-0.09L1422.76,1832.72z"/>
					</g>
					<g>
						<path d="M1455.33,1830.35c0.09,26.35,22.19,25.85,19.93-0.8L1455.33,1830.35z"/>
						<path d="M1466.06,1852.26c-9.39-1.03-12.81-13.64-12.33-23.61l23.18-0.93C1478.31,1839.29,1473.79,1852.51,1466.06,1852.26z
							 M1457.12,1832.04c0.71,19.53,16.6,23.74,16.46-0.66L1457.12,1832.04z"/>
					</g>
					<g>
						<path d="M1490.15,1827.18c-0.85,30.63,22.13,21.44,20-3.66L1490.15,1827.18z"/>
						<path d="M1499.2,1848.76c-9.56-1.21-11.25-13.05-10.73-23.06l23.27-4.25C1513.62,1832.26,1507.37,1849.53,1499.2,1848.76z
							 M1491.85,1828.66c-0.63,22.89,16.55,20.46,16.63-3.04L1491.85,1828.66z"/>
					</g>
					<g>
						
							<rect x="1306.3" y="1729.18" transform="matrix(0.7805 -0.6252 0.6252 0.7805 -788.4106 1216.547)" width="63.63" height="3.52"/>
					</g>
					<g>
						
							<rect x="1345.74" y="1746.82" transform="matrix(0.7646 -0.6445 0.6445 0.7646 -802.9902 1298.6357)" width="61.11" height="3.52"/>
					</g>
					<g>
						
							<rect x="1383.24" y="1758.52" transform="matrix(0.7353 -0.6777 0.6777 0.7353 -818.7676 1424.0804)" width="61.14" height="3.52"/>
					</g>
				</g>
			</g>
		</g>
		<g>
			<g>
				<path style="fill:#00C793;" d="M1181.43,524.41c-0.06,0.12-34.37,53.48-74.13,94.98c-59.98,53.45-109.76,113.66-110.22,113.67
					c-19.72-18.59-173.89-142.45-192-182.09c58.09-5.31,107.42,36.48,146.16,78.75L828.77,465.71
					c73.09,14.08,119.8,82.06,147.57,142.15c-14.15-65.48-21.29-150.13,12.19-219.67c0,0,47.23,73.42,33.78,221.06
					c18.18-61.28,55.63-141.26,128.57-169.78l-101.04,182.29C1081.33,576.51,1127.23,528.14,1181.43,524.41z"/>
				<path d="M996.4,734.85l-0.53-0.5c-4.26-4.02-14.7-12.87-29.16-25.11c-52.04-44.09-148.9-126.16-163.23-157.52l-1.03-2.26
					l2.47-0.23c51.14-4.66,95.45,27.34,128.31,59.32L824.65,463.13l4.46,0.86c39.66,7.64,95.84,36.68,142.68,130.33
					c-15.98-83.24-10.89-152.78,15.16-206.89l1.36-2.83l1.7,2.64c0.46,0.71,44.12,70.37,35.26,206.76
					c19.8-59.42,56.93-129.57,124.97-156.17l4.54-1.78l-90.66,163.56c29.43-36.93,70.17-73.72,117.2-76.96l2.95-0.2l-1.23,2.69
					c-0.16,0.34-34.79,54.08-74.46,95.47c-33.68,30.02-69.49,66.83-106.54,109.51c-4.06,4.68-4.06,4.68-4.9,4.7L996.4,734.85z
					 M807.82,552.52c17.43,32.24,110.57,111.16,161.17,154.03c13.2,11.18,23.06,19.54,27.99,24.03c0.58-0.66,1.39-1.59,2.4-2.76
					c37.15-42.79,73.07-79.71,106.75-109.73c34.19-35.69,64.11-79.86,71.85-91.6c-53.15,5.66-98.11,55.2-126.71,96.28l-2.98-1.86
					L1146.9,443c-39.49,17.02-91.22,59.9-122.91,166.75l-3.44-0.66c11.8-129.56-23.68-202.32-31.87-217.12
					c-25.85,55.97-29.43,128.46-10.63,215.52l3.36,15.56l-6.68-14.44c-25.6-55.4-70.83-124.08-141.78-140.21l119.69,160.29
					l-2.71,2.24C882.69,557.52,836.9,550.45,807.82,552.52z"/>
			</g>
			<g>
				<path style="fill:#FF4568;" d="M1362.48,1201.52c-82.02,156.18-207.25,288.27-345.07,302.69
					c-134.16-1.37-277.25-140.24-371.57-307.26c-88.46-156.64-134.02-338.01-89.12-453.91c102.17-263.68,387.57-121.18,440.52-28.14
					c45-92.97,293.21-242.61,434.89,2.08C1492.14,820.63,1454.52,1026.23,1362.48,1201.52z"/>
				<path d="M1017.6,1505.95c-63.62-0.64-133.42-32.43-202.06-91.93c-62.95-54.57-122.17-129.34-171.23-216.21
					c-97.19-172.1-131.38-346.6-89.23-455.41c25.12-64.82,77.29-143.74,183.23-151.58c109.65-8.12,224.84,64.96,258.8,120.4
					c14.44-27.7,44.93-58.19,82.27-82.14c44.5-28.54,94.69-45.21,141.32-46.93c109.54-4.06,176.27,70.6,212.95,133.94
					c57.34,99.04,28.72,298.99-69.61,486.25l0,0C1271.01,1379.49,1141.5,1492.99,1017.6,1505.95z M755.4,593.72
					c-5.62,0-11.23,0.2-16.83,0.61c-82.4,6.1-144.72,57.74-180.21,149.34c-21.15,54.61-23.01,127.46-5.36,210.68
					c16.57,78.14,49.2,161.73,94.38,241.73c48.87,86.53,107.81,160.97,170.47,215.28c68,58.95,137.02,90.45,199.59,91.08
					c122.53-12.83,251.01-125.64,343.49-301.75l0,0c97.79-186.24,126.44-384.79,69.68-482.85
					c-36.19-62.5-101.91-136.14-209.78-132.19c-66.21,2.45-183.37,50.16-222.01,129.99l-1.46,3.01l-1.65-2.91
					C966.03,663.6,860.26,593.72,755.4,593.72z"/>
			</g>
			<g>
				<g>
					<path style="fill:#FFBC00;" d="M855.01,716.19c0.15,16.45-3.88,29.82-9.02,29.87c-5.14,0.05-9.43-13.24-9.59-29.7
						c-0.15-16.45,3.88-29.82,9.02-29.87C850.56,686.45,854.85,699.75,855.01,716.19z"/>
					<path d="M845.96,747.83c-3.35,0-6.22-3.42-8.31-9.88c-1.86-5.77-2.93-13.43-3.01-21.56c-0.15-15.68,3.5-31.58,10.76-31.65
						c0.01,0,0.03,0,0.05,0c7.23,0,11.17,15.8,11.31,31.44l0,0c0.07,8.13-0.85,15.81-2.6,21.61c-1.97,6.53-4.79,10-8.16,10.04
						C845.98,747.83,845.97,747.83,845.96,747.83z M845.45,688.26c0,0-0.01,0-0.01,0c-3.08,0.03-7.44,10.99-7.28,28.1
						c0.07,7.78,1.08,15.07,2.84,20.51c1.77,5.49,3.78,7.44,4.96,7.44c0,0,0.01,0,0.01,0c1.18-0.01,3.15-1.99,4.83-7.54
						c1.65-5.48,2.53-12.78,2.45-20.56l0,0C853.09,699.13,848.53,688.26,845.45,688.26z"/>
				</g>
				<g>
					<path style="fill:#FFBC00;" d="M913.1,845.94c0.09,16.45-4,29.81-9.14,29.84c-5.14,0.03-9.37-13.28-9.47-29.73
						c-0.09-16.45,4-29.81,9.14-29.84C908.77,816.17,913.01,829.49,913.1,845.94z"/>
					<path d="M903.95,877.53c-7.24,0-11.12-15.83-11.21-31.48c-0.08-15.68,3.63-31.57,10.89-31.61c0.01,0,0.02,0,0.03,0
						c7.24,0,11.12,15.83,11.21,31.48l0,0c0.08,15.68-3.62,31.57-10.89,31.61C903.97,877.53,903.95,877.53,903.95,877.53z
						 M903.65,817.96C903.65,817.96,903.65,817.96,903.65,817.96c-3.08,0.02-7.49,10.96-7.39,28.07
						c0.09,17.09,4.62,27.98,7.69,27.98c0,0,0,0,0.01,0c3.07-0.02,7.48-10.96,7.39-28.07l0,0
						C911.25,828.85,906.73,817.96,903.65,817.96z"/>
				</g>
				<g>
					<path style="fill:#FFBC00;" d="M694.86,667.88c0.09,16.45-4,29.81-9.14,29.84c-5.14,0.03-9.37-13.28-9.47-29.73
						c-0.09-16.45,4-29.81,9.14-29.84C690.53,638.12,694.76,651.43,694.86,667.88z"/>
					<path d="M685.7,699.47c-7.24,0-11.12-15.83-11.21-31.48c-0.08-15.68,3.63-31.57,10.89-31.61c0.01,0,0.02,0,0.03,0
						c7.25,0,11.12,15.83,11.21,31.48l0,0c0.08,15.68-3.62,31.57-10.88,31.61C685.72,699.47,685.71,699.47,685.7,699.47z
						 M685.4,639.9c0,0-0.01,0-0.01,0c-3.07,0.02-7.48,10.96-7.39,28.07c0.09,17.1,4.62,27.99,7.69,27.99c0,0,0,0,0.01,0
						c3.07-0.02,7.48-10.96,7.39-28.07l0,0C693,650.8,688.48,639.9,685.4,639.9z"/>
				</g>
				<g>
					<path style="fill:#FFBC00;" d="M1265.55,809.54c-1.43,16.39-6.74,29.31-11.86,28.86c-5.12-0.45-8.1-14.1-6.67-30.48
						c1.43-16.39,6.74-29.31,11.86-28.86C1263.99,779.51,1266.98,793.16,1265.55,809.54z"/>
					<path d="M1253.96,840.18c-0.14,0-0.28-0.01-0.43-0.02c-7.23-0.63-9.64-16.77-8.27-32.39c0.71-8.1,2.37-15.65,4.68-21.26
						c2.59-6.31,5.68-9.46,9.09-9.2c3.35,0.29,5.9,3.97,7.36,10.64c1.3,5.93,1.62,13.65,0.91,21.75l0,0
						c-0.71,8.1-2.37,15.65-4.68,21.26C1260.14,837,1257.15,840.18,1253.96,840.18z M1258.62,780.81c-1.2,0-3.29,1.83-5.44,7.04
						c-2.17,5.29-3.75,12.48-4.43,20.23c-1.49,17.04,2.01,28.31,5.08,28.58c1.09,0.08,3.33-1.67,5.53-7.03
						c2.17-5.29,3.75-12.48,4.43-20.23l1.75,0.15l-1.75-0.15c0.68-7.75,0.38-15.1-0.85-20.69c-1.24-5.66-3.05-7.78-4.22-7.89
						C1258.69,780.81,1258.66,780.81,1258.62,780.81z"/>
				</g>
				<g>
					<path style="fill:#FFBC00;" d="M614.65,856.45c1.83,16.35-0.83,30.07-5.93,30.64c-5.1,0.57-10.73-12.22-12.56-28.57
						c-1.83-16.35,0.83-30.06,5.93-30.64C607.2,827.32,612.82,840.11,614.65,856.45z"/>
					<path d="M608.37,888.87c-6.95,0-12.26-14.96-13.96-30.15c-1.74-15.58,0.27-31.77,7.49-32.58c7.3-0.71,12.76,14.55,14.5,30.12
						c1.74,15.58-0.27,31.77-7.49,32.58C608.73,888.86,608.55,888.87,608.37,888.87z M602.44,829.63c-0.05,0-0.1,0-0.15,0.01
						c-3.06,0.34-6.28,11.69-4.38,28.69c1.9,17,7.62,27.5,10.61,27.02c3.06-0.34,6.28-11.69,4.38-28.69
						C611.03,839.92,605.53,829.63,602.44,829.63z"/>
				</g>
				<g>
					<path style="fill:#FFBC00;" d="M1328.47,1164.93c-1.43,16.39-6.74,29.31-11.86,28.86s-8.11-14.1-6.68-30.48
						c1.43-16.39,6.74-29.31,11.86-28.86C1326.92,1134.9,1329.91,1148.55,1328.47,1164.93z"/>
					<path d="M1316.88,1195.57c-0.14,0-0.28-0.01-0.43-0.02c-7.24-0.63-9.64-16.77-8.27-32.39c0.7-8.1,2.36-15.65,4.67-21.26
						c2.59-6.31,5.68-9.45,9.09-9.2c3.35,0.29,5.9,3.97,7.36,10.64c1.3,5.92,1.62,13.65,0.91,21.75l0,0
						c-0.7,8.1-2.36,15.65-4.67,21.26C1323.07,1192.39,1320.08,1195.57,1316.88,1195.57z M1321.55,1136.2c-1.2,0-3.3,1.83-5.44,7.04
						c-2.17,5.29-3.74,12.48-4.42,20.23c-1.49,17.04,2.01,28.31,5.08,28.58c1.07,0.09,3.33-1.67,5.53-7.04
						c2.17-5.29,3.74-12.47,4.42-20.23l0,0c0.68-7.75,0.38-15.11-0.84-20.69c-1.24-5.66-3.05-7.78-4.23-7.89
						C1321.61,1136.2,1321.58,1136.2,1321.55,1136.2z"/>
				</g>
				<g>
					<path style="fill:#FFBC00;" d="M896.87,1180.94c-1.43,16.39-6.74,29.31-11.86,28.86c-5.12-0.45-8.11-14.1-6.68-30.49
						c1.43-16.39,6.74-29.31,11.86-28.86C895.32,1150.91,898.3,1164.55,896.87,1180.94z"/>
					<path d="M885.29,1211.58c-0.14,0-0.28-0.01-0.43-0.02c-7.23-0.63-9.64-16.77-8.27-32.39c0.71-8.1,2.37-15.65,4.68-21.26
						c2.59-6.31,5.78-9.47,9.09-9.2c7.24,0.63,9.64,16.77,8.27,32.39l0,0C897.29,1196.4,892.29,1211.58,885.29,1211.58z
						 M889.94,1152.21c-1.2,0-3.29,1.83-5.44,7.04c-2.17,5.29-3.74,12.48-4.42,20.23c-1.49,17.04,2.01,28.31,5.08,28.58
						c3.18,0.27,8.46-10.22,9.96-27.26l1.75,0.15l-1.75-0.15c1.49-17.04-2.01-28.31-5.08-28.58
						C890.01,1152.21,889.98,1152.21,889.94,1152.21z"/>
				</g>
				<g>
					<path style="fill:#FFBC00;" d="M1189.8,1368.86c-1.43,16.39-6.74,29.31-11.86,28.86c-5.12-0.45-8.1-14.1-6.67-30.49
						c1.43-16.39,6.74-29.31,11.86-28.86C1188.24,1338.82,1191.23,1352.47,1189.8,1368.86z"/>
					<path d="M1178.21,1399.49c-0.14,0-0.28-0.01-0.43-0.02c-3.35-0.29-5.9-3.97-7.36-10.64c-1.3-5.93-1.62-13.65-0.91-21.75
						c0.7-8.1,2.36-15.65,4.67-21.26c2.59-6.31,5.77-9.46,9.09-9.2c7.24,0.63,9.64,16.77,8.27,32.39
						c-0.71,8.1-2.37,15.65-4.67,21.26C1184.39,1396.32,1181.4,1399.49,1178.21,1399.49z M1182.87,1340.12
						c-1.2,0-3.29,1.83-5.44,7.04c-2.17,5.29-3.74,12.47-4.42,20.23c-0.68,7.75-0.38,15.1,0.85,20.69c1.23,5.66,3.05,7.78,4.23,7.89
						c1.09,0.07,3.33-1.67,5.53-7.03c2.17-5.29,3.74-12.47,4.42-20.23c1.49-17.04-2.01-28.31-5.08-28.58
						C1182.94,1340.12,1182.9,1340.12,1182.87,1340.12z"/>
				</g>
				<g>
					<path style="fill:#FFBC00;" d="M1125.16,852.45c-1.43,16.39-6.74,29.31-11.86,28.86c-5.12-0.45-8.11-14.1-6.67-30.49
						c1.43-16.39,6.74-29.31,11.86-28.86C1123.6,822.42,1126.59,836.07,1125.16,852.45z"/>
					<path d="M1113.57,883.09c-0.14,0-0.28-0.01-0.43-0.02c-7.24-0.63-9.64-16.77-8.27-32.39c1.36-15.61,6.6-31.09,13.77-30.46
						c7.24,0.63,9.64,16.77,8.27,32.39l-1.75-0.15l1.75,0.15C1125.57,867.91,1120.58,883.09,1113.57,883.09z M1118.22,823.72
						c-3.09,0-8.37,10.44-9.84,27.27c-1.49,17.04,2.01,28.31,5.08,28.58c0.04,0,0.07,0,0.11,0c3.09,0,8.37-10.44,9.84-27.27
						c1.49-17.04-2.01-28.31-5.08-28.58C1118.29,823.72,1118.25,823.72,1118.22,823.72z"/>
				</g>
				<g>
					<path style="fill:#FFBC00;" d="M846.44,1008.55c0.18,16.45-3.84,29.83-8.98,29.89s-9.45-13.23-9.63-29.68
						c-0.18-16.45,3.84-29.83,8.98-29.88C841.95,978.82,846.26,992.1,846.44,1008.55z"/>
					<path d="M837.43,1040.2c-3.34,0-6.21-3.41-8.31-9.87c-1.87-5.77-2.95-13.43-3.04-21.56c-0.17-15.68,3.46-31.58,10.72-31.66
						c0.02,0,0.04,0,0.05,0c7.23,0,11.18,15.79,11.35,31.42c0.09,8.13-0.82,15.81-2.57,21.62c-1.96,6.54-4.78,10.01-8.15,10.05
						C837.46,1040.2,837.45,1040.2,837.43,1040.2z M836.85,980.63c0,0-0.01,0-0.01,0c-3.07,0.04-7.43,11-7.24,28.11
						c0.08,7.78,1.1,15.07,2.87,20.51c1.78,5.49,3.79,7.44,4.97,7.44c0,0,0.01,0,0.01,0c1.18-0.01,3.15-1.99,4.82-7.54
						c1.65-5.48,2.5-12.78,2.42-20.57C844.5,991.49,839.92,980.63,836.85,980.63z"/>
				</g>
				<g>
					<path style="fill:#FFBC00;" d="M1169.97,1187c0.66,16.44-2.96,29.93-8.09,30.14s-9.83-12.95-10.5-29.39
						c-0.66-16.44,2.96-29.93,8.09-30.14C1164.61,1157.41,1169.31,1170.57,1169.97,1187z"/>
					<path d="M1161.75,1218.9c-3.29,0-6.2-3.32-8.45-9.62c-2.04-5.71-3.35-13.33-3.68-21.46c-0.63-15.66,2.53-31.67,9.78-31.97
						c0.07,0,0.13,0,0.2,0c7.14,0,11.5,15.56,12.13,31.08c0.33,8.12-0.36,15.82-1.93,21.68c-1.77,6.59-4.49,10.15-7.85,10.29
						C1161.88,1218.9,1161.81,1218.9,1161.75,1218.9z M1159.6,1159.37c-0.02,0-0.04,0-0.05,0c-3.07,0.13-7.1,11.21-6.41,28.31
						c0.31,7.77,1.54,15.02,3.47,20.41c1.93,5.39,3.97,7.29,5.15,7.29c0.02,0,0.03,0,0.05,0c1.18-0.05,3.1-2.09,4.6-7.68
						c1.48-5.53,2.12-12.85,1.81-20.63l0,0C1167.53,1170.08,1162.67,1159.37,1159.6,1159.37z"/>
				</g>
				<g>
					<path style="fill:#FFBC00;" d="M1414.11,907.6c-1.43,16.39-6.74,29.31-11.86,28.86c-5.12-0.45-8.1-14.1-6.67-30.48
						c1.43-16.39,6.74-29.31,11.86-28.86C1412.55,877.56,1415.54,891.21,1414.11,907.6z"/>
					<path d="M1402.52,938.23c-0.14,0-0.28-0.01-0.43-0.02c-3.35-0.29-5.9-3.97-7.36-10.64c-1.3-5.93-1.62-13.65-0.91-21.75
						c0.7-8.1,2.36-15.65,4.67-21.26c2.59-6.31,5.67-9.47,9.09-9.2c7.24,0.63,9.64,16.77,8.27,32.39
						c-0.71,8.1-2.37,15.65-4.67,21.26C1408.7,935.05,1405.72,938.23,1402.52,938.23z M1407.18,878.86c-1.2,0-3.29,1.83-5.44,7.04
						c-2.17,5.29-3.74,12.48-4.42,20.23c-0.68,7.75-0.38,15.1,0.85,20.69c1.24,5.66,3.05,7.78,4.22,7.89
						c1.21,0.04,3.33-1.67,5.53-7.03c2.17-5.29,3.74-12.47,4.42-20.23c1.49-17.04-2.01-28.31-5.08-28.58
						C1407.25,878.86,1407.21,878.86,1407.18,878.86z"/>
				</g>
				<g>
					<path style="fill:#FFBC00;" d="M1184.36,978.64c-1.43,16.39-6.74,29.31-11.86,28.86c-5.12-0.45-8.1-14.1-6.67-30.48
						c1.43-16.39,6.74-29.31,11.86-28.86C1182.8,948.61,1185.79,962.25,1184.36,978.64z"/>
					<path d="M1172.77,1009.27c-0.14,0-0.28-0.01-0.43-0.02c-7.24-0.63-9.64-16.77-8.27-32.39c0.71-8.1,2.37-15.65,4.67-21.26
						c2.59-6.31,5.68-9.46,9.09-9.2c7.23,0.63,9.64,16.77,8.27,32.39c-0.71,8.1-2.37,15.65-4.68,21.26
						C1178.95,1006.1,1175.96,1009.27,1172.77,1009.27z M1177.43,949.9c-1.2,0-3.29,1.83-5.44,7.04
						c-2.17,5.29-3.74,12.48-4.42,20.23c-1.49,17.04,2.01,28.31,5.08,28.58c1.12,0.07,3.33-1.67,5.53-7.03
						c2.17-5.29,3.75-12.48,4.43-20.23c1.49-17.04-2.01-28.31-5.08-28.58C1177.49,949.9,1177.46,949.9,1177.43,949.9z"/>
				</g>
				<g>
					<path style="fill:#FFBC00;" d="M1322.93,1011.04c-1.43,16.39-6.74,29.31-11.86,28.86c-5.12-0.45-8.1-14.1-6.67-30.49
						c1.43-16.39,6.74-29.31,11.86-28.86C1321.37,981,1324.36,994.65,1322.93,1011.04z"/>
					<path d="M1311.34,1041.67c-0.14,0-0.28-0.01-0.43-0.02c-7.23-0.63-9.64-16.77-8.27-32.39c1.36-15.62,6.64-31.01,13.77-30.46
						c7.24,0.63,9.64,16.77,8.27,32.39l0,0C1323.34,1026.5,1318.35,1041.67,1311.34,1041.67z M1315.99,982.3
						c-3.09,0-8.37,10.44-9.84,27.27c-1.49,17.04,2.01,28.31,5.08,28.58c3.19,0.33,8.47-10.23,9.96-27.26l1.75,0.15l-1.75-0.15
						c1.49-17.04-2.01-28.31-5.08-28.58C1316.06,982.3,1316.02,982.3,1315.99,982.3z"/>
				</g>
				<g>
					<path style="fill:#FFBC00;" d="M1290.08,632.88c-1.43,16.39-6.74,29.31-11.86,28.86c-5.12-0.45-8.11-14.1-6.67-30.48
						c1.43-16.39,6.74-29.31,11.86-28.86C1288.53,602.84,1291.51,616.49,1290.08,632.88z"/>
					<path d="M1278.49,663.51c-0.14,0-0.28-0.01-0.43-0.02c-3.35-0.29-5.9-3.97-7.36-10.64c-1.3-5.93-1.62-13.65-0.91-21.75
						c0.7-8.1,2.36-15.65,4.67-21.26c2.59-6.31,5.76-9.49,9.09-9.2c7.23,0.63,9.64,16.77,8.28,32.39l0,0
						c-0.71,8.1-2.37,15.65-4.68,21.26C1284.68,660.34,1281.69,663.51,1278.49,663.51z M1283.15,604.14c-1.2,0-3.29,1.83-5.44,7.04
						c-2.17,5.29-3.74,12.48-4.42,20.23c-0.68,7.75-0.38,15.1,0.85,20.69c1.24,5.66,3.05,7.78,4.23,7.89
						c1.09,0.02,3.33-1.67,5.53-7.03c2.17-5.29,3.75-12.47,4.43-20.23l0,0c1.49-17.04-2.02-28.31-5.08-28.58
						C1283.22,604.14,1283.19,604.14,1283.15,604.14z"/>
				</g>
				<g>
					<path style="fill:#FFBC00;" d="M1025.93,1134.21c0.86,16.43-2.6,29.96-7.73,30.23c-5.13,0.27-9.99-12.83-10.85-29.26
						c-0.86-16.43,2.6-29.96,7.73-30.23C1020.21,1104.68,1025.07,1117.78,1025.93,1134.21z"/>
					<path d="M1018.03,1166.2c-3.26,0-6.2-3.29-8.51-9.52c-2.11-5.69-3.5-13.29-3.93-21.41c-0.82-15.65,2.14-31.7,9.4-32.08
						c7.26-0.32,11.88,15.27,12.7,30.92l0,0c0.43,8.12-0.17,15.83-1.67,21.71c-1.69,6.61-4.36,10.2-7.73,10.38
						C1018.2,1166.2,1018.11,1166.2,1018.03,1166.2z M1015.24,1106.7c-0.02,0-0.05,0-0.07,0c-3.07,0.16-6.97,11.3-6.07,28.39
						c0.41,7.77,1.73,15.01,3.72,20.37c2.01,5.44,4.28,7.3,5.28,7.22c1.18-0.06,3.07-2.12,4.5-7.74c1.42-5.54,1.97-12.88,1.57-20.65
						C1023.28,1117.34,1018.32,1106.7,1015.24,1106.7z"/>
				</g>
				<g>
					<path style="fill:#FFBC00;" d="M736.88,1171.74c2.43,16.27,0.28,30.07-4.8,30.83c-5.08,0.76-11.17-11.81-13.6-28.08
						c-2.43-16.27-0.28-30.07,4.8-30.83C728.36,1142.9,734.45,1155.48,736.88,1171.74z"/>
					<path d="M731.62,1204.37c-6.87,0-12.64-14.63-14.88-29.62c-2.32-15.5-0.9-31.76,6.28-32.84c3.36-0.51,6.66,2.49,9.64,8.63
						c2.65,5.46,4.76,12.9,5.97,20.93c2.32,15.5,0.9,31.76-6.28,32.84C732.1,1204.36,731.86,1204.37,731.62,1204.37z
						 M723.71,1145.39c-0.06,0-0.12,0.01-0.17,0.01c-3.04,0.45-5.85,11.91-3.32,28.84c2.53,16.92,8.56,27.09,11.61,26.6
						c3.04-0.45,5.85-11.91,3.32-28.84l0,0c-1.15-7.7-3.16-14.77-5.65-19.92C727.08,1147.12,724.92,1145.39,723.71,1145.39z"/>
				</g>
				<g>
					<path style="fill:#FFBC00;" d="M839.02,1318.11c1.62,16.37-1.21,30.05-6.33,30.56c-5.11,0.51-10.57-12.35-12.19-28.73
						c-1.62-16.37,1.21-30.05,6.33-30.56C831.95,1288.88,837.4,1301.75,839.02,1318.11z"/>
					<path d="M832.39,1350.45c-3.18,0-6.18-3.14-8.72-9.12c-2.37-5.59-4.12-13.11-4.91-21.21c-1.54-15.6,0.68-31.77,7.9-32.48
						c7.23-0.72,12.57,14.7,14.11,30.3c1.54,15.6-0.68,31.77-7.9,32.48C832.71,1350.44,832.55,1350.45,832.39,1350.45z
						 M827.14,1291.13c-0.05,0-0.09,0-0.13,0.01c-3.06,0.31-6.43,11.61-4.75,28.64c0.77,7.75,2.42,14.91,4.65,20.18
						c2.26,5.34,4.52,7.09,5.61,6.97c3.06-0.3,6.43-11.61,4.75-28.64C835.61,1301.51,830.22,1291.13,827.14,1291.13z"/>
				</g>
				<g>
					<path style="fill:#FFBC00;" d="M1040.61,1293.18c-1.43,16.39-6.74,29.31-11.86,28.86c-5.12-0.45-8.11-14.1-6.68-30.48
						c1.43-16.39,6.74-29.31,11.86-28.86C1039.06,1263.14,1042.05,1276.79,1040.61,1293.18z"/>
					<path d="M1029.03,1323.81c-0.14,0-0.28-0.01-0.43-0.02c-7.24-0.63-9.64-16.77-8.27-32.39c1.36-15.62,6.67-31.04,13.77-30.46
						c7.24,0.63,9.64,16.77,8.27,32.39l0,0C1041.03,1308.63,1036.03,1323.81,1029.03,1323.81z M1033.67,1264.44
						c-3.09,0-8.37,10.44-9.84,27.27c-1.49,17.04,2.01,28.31,5.08,28.58c3.2,0.36,8.47-10.23,9.96-27.26l1.75,0.15l-1.75-0.15
						c1.49-17.04-2.01-28.31-5.08-28.58C1033.74,1264.44,1033.71,1264.44,1033.67,1264.44z"/>
				</g>
				<g>
					<path style="fill:#FFBC00;" d="M975.48,1436.13c-1.43,16.39-6.74,29.31-11.86,28.86c-5.12-0.45-8.11-14.1-6.68-30.49
						c1.43-16.39,6.74-29.31,11.86-28.86C973.92,1406.1,976.91,1419.74,975.48,1436.13z"/>
					<path d="M963.89,1466.77c-0.14,0-0.28-0.01-0.43-0.02c-7.23-0.63-9.64-16.77-8.27-32.39c0.71-8.1,2.37-15.65,4.67-21.26
						c2.6-6.31,5.76-9.51,9.09-9.2c7.23,0.63,9.64,16.77,8.27,32.39l0,0c-0.71,8.1-2.37,15.65-4.68,21.26
						C970.07,1463.59,967.08,1466.77,963.89,1466.77z M968.55,1407.4c-1.2,0-3.29,1.83-5.43,7.04c-2.17,5.29-3.75,12.48-4.42,20.23
						c-1.49,17.04,2.01,28.31,5.08,28.58c1.22,0.13,3.33-1.68,5.53-7.03c2.17-5.29,3.74-12.48,4.42-20.23
						c1.49-17.04-2.01-28.31-5.08-28.58C968.62,1407.4,968.58,1407.4,968.55,1407.4z"/>
				</g>
				<g>
					<path style="fill:#FFBC00;" d="M1406.96,748.08c-1.43,16.39-6.74,29.31-11.86,28.86c-5.12-0.45-8.1-14.1-6.67-30.48
						c1.43-16.39,6.74-29.31,11.86-28.86C1405.4,718.05,1408.39,731.69,1406.96,748.08z"/>
					<path d="M1395.36,778.72c-0.14,0-0.28-0.01-0.43-0.02c-7.23-0.63-9.64-16.77-8.27-32.39c0.71-8.1,2.37-15.65,4.68-21.26
						c2.59-6.31,5.71-9.46,9.09-9.2c3.35,0.29,5.9,3.97,7.36,10.64c1.3,5.92,1.62,13.65,0.91,21.75c-0.71,8.1-2.37,15.65-4.67,21.26
						C1401.55,775.54,1398.56,778.72,1395.36,778.72z M1400.03,719.35c-1.2,0-3.29,1.83-5.44,7.04c-2.17,5.29-3.75,12.48-4.43,20.23
						c-1.49,17.04,2.01,28.31,5.08,28.58c1.11,0.11,3.33-1.67,5.53-7.03c2.17-5.29,3.74-12.47,4.42-20.23
						c0.68-7.75,0.38-15.1-0.85-20.69c-1.24-5.66-3.05-7.78-4.22-7.89C1400.09,719.35,1400.06,719.35,1400.03,719.35z"/>
				</g>
				<g>
					<path style="fill:#FFBC00;" d="M1138.61,703.84c-1.43,16.39-6.74,29.31-11.86,28.86c-5.12-0.45-8.11-14.1-6.68-30.48
						c1.43-16.39,6.74-29.31,11.86-28.86C1137.06,673.8,1140.05,687.45,1138.61,703.84z"/>
					<path d="M1127.03,734.47c-0.14,0-0.28-0.01-0.43-0.02c-7.24-0.64-9.64-16.78-8.27-32.39c0.71-8.1,2.37-15.65,4.68-21.26
						c2.59-6.31,5.7-9.47,9.09-9.2c3.35,0.29,5.9,3.97,7.36,10.64c1.3,5.93,1.62,13.65,0.91,21.75l-1.75-0.15l1.75,0.15
						C1139.03,719.3,1134.03,734.47,1127.03,734.47z M1131.69,675.1c-1.2,0-3.29,1.83-5.44,7.04c-2.17,5.29-3.75,12.48-4.43,20.23
						c-1.49,17.04,2.01,28.31,5.08,28.58c3.13,0.39,8.47-10.23,9.96-27.27c0.68-7.75,0.38-15.1-0.85-20.69
						c-1.24-5.66-3.05-7.78-4.22-7.89C1131.75,675.1,1131.72,675.1,1131.69,675.1z"/>
				</g>
				<g>
					<path style="fill:#FFBC00;" d="M1011.67,753.85c-1.43,16.39-6.74,29.31-11.86,28.86c-5.12-0.45-8.11-14.1-6.68-30.49
						c1.43-16.39,6.74-29.31,11.86-28.86C1010.12,723.81,1013.11,737.46,1011.67,753.85z"/>
					<path d="M1000.09,784.48c-0.14,0-0.28-0.01-0.43-0.02c-7.23-0.64-9.64-16.78-8.27-32.39c1.36-15.62,6.58-31.06,13.77-30.46
						c7.23,0.63,9.64,16.77,8.27,32.39l0,0C1012.09,769.31,1007.1,784.48,1000.09,784.48z M1004.73,725.11
						c-3.08,0-8.37,10.44-9.84,27.27c-1.49,17.04,2.02,28.31,5.08,28.58c3.03,0.36,8.47-10.22,9.96-27.27l0,0
						c1.49-17.04-2.02-28.31-5.08-28.58C1004.8,725.11,1004.77,725.11,1004.73,725.11z"/>
				</g>
				<g>
					<path style="fill:#FFBC00;" d="M762.39,863.5c0.1,16.45-3.99,29.81-9.13,29.84c-5.14,0.03-9.38-13.28-9.48-29.73
						c-0.1-16.45,3.99-29.81,9.13-29.84C758.05,833.74,762.3,847.04,762.39,863.5z"/>
					<path d="M753.25,895.1c-7.24,0-11.13-15.82-11.22-31.48c-0.05-8.13,0.9-15.8,2.68-21.6c1.99-6.53,4.83-9.99,8.2-10.01
						c3.28-0.02,6.24,3.41,8.32,9.91c1.84,5.78,2.88,13.44,2.93,21.57l0,0c0.09,15.68-3.61,31.57-10.87,31.61
						C753.27,895.1,753.26,895.1,753.25,895.1z M752.93,835.53C752.93,835.53,752.93,835.53,752.93,835.53
						c-1.19,0.01-3.17,1.98-4.86,7.52c-1.67,5.47-2.57,12.77-2.52,20.55c0.1,17.09,4.63,27.98,7.7,27.98c0,0,0.01,0,0.01,0
						c3.07-0.02,7.48-10.97,7.38-28.07l0,0c-0.05-7.78-1.03-15.07-2.77-20.52C756.11,837.48,754.11,835.53,752.93,835.53z"/>
				</g>
				<g>
					<path style="fill:#FFBC00;" d="M685.27,1024.74c0.1,16.45-3.99,29.81-9.13,29.84c-5.14,0.03-9.38-13.28-9.48-29.73
						c-0.1-16.45,3.99-29.81,9.13-29.84C680.93,994.98,685.17,1008.29,685.27,1024.74z"/>
					<path d="M676.13,1056.34c-7.24,0-11.13-15.83-11.22-31.48c-0.05-8.13,0.9-15.8,2.67-21.6c1.99-6.53,4.83-9.99,8.2-10.01
						c0.01,0,0.02,0,0.03,0c7.24,0,11.13,15.82,11.22,31.48l0,0c0.09,15.68-3.61,31.57-10.87,31.61
						C676.15,1056.34,676.14,1056.34,676.13,1056.34z M675.81,996.77C675.81,996.77,675.81,996.77,675.81,996.77
						c-1.19,0.01-3.17,1.98-4.86,7.52c-1.67,5.47-2.56,12.77-2.52,20.55c0.1,17.09,4.63,27.98,7.7,27.98c0,0,0.01,0,0.01,0
						c3.07-0.02,7.48-10.96,7.38-28.07l0,0C683.41,1007.65,678.88,996.77,675.81,996.77z"/>
				</g>
			</g>
			<g>
				<g>
					<path style="fill:#00BEFB;" d="M1362.48,1201.52c-8.69,16.53-17.86,32.82-27.49,48.72
						c-81.21,134.13-194.35,241.06-317.57,253.97c-120.69-1.23-248.59-113.72-341.72-257.91c-10.41-16.08-20.35-32.57-29.85-49.35
						l369.29,106.62L1362.48,1201.52z"/>
					<path d="M1017.6,1505.95c-111.19-1.12-239.48-97.84-343.38-258.7c-10.17-15.7-20.23-32.34-29.9-49.44l-2.12-3.75l372.94,107.67
						l350.84-103.07l-1.93,3.68c-8.76,16.67-18.03,33.1-27.54,48.81C1245.53,1401.38,1129.3,1494.25,1017.6,1505.95z
						 M649.51,1199.83c8.98,15.72,18.28,31.01,27.66,45.51c103.26,159.87,230.46,255.99,340.26,257.11
						c110.4-11.58,225.66-103.84,316.05-253.12c8.78-14.5,17.35-29.6,25.5-44.95l-343.85,101.01l-0.49-0.14L649.51,1199.83z"/>
				</g>
				<g>
					<path style="fill:#FFFFFF;" d="M1362.48,1201.52c-8.69,16.53-17.86,32.82-27.49,48.72l-319.29,91.67l-340-95.61
						c-10.41-16.08-20.35-32.57-29.85-49.35l369.29,106.62L1362.48,1201.52z"/>
					<path d="M1015.7,1343.73l-0.48-0.14l-340.64-95.79l-0.36-0.56c-10.17-15.7-20.23-32.34-29.9-49.44l-2.12-3.75l372.94,107.67
						l350.84-103.07l-1.93,3.68c-8.76,16.67-18.03,33.1-27.54,48.81l-0.36,0.59l-0.66,0.19L1015.7,1343.73z M676.81,1244.78
						l338.89,95.29l318.15-91.34c8.66-14.31,17.1-29.22,25.14-44.36l-343.85,101.01l-0.49-0.14l-365.14-105.42
						C658.38,1215.35,667.55,1230.45,676.81,1244.78z"/>
				</g>
				<g>
					<path style="fill:#FFFFFF;" d="M853.85,1316.69c-6.55-2.14-16.7-4.57-29.26-4.2c-12.19,0.36-22.43,1.85-28.86,4.27
						c-0.49,12.94-0.57,27.24-1.05,40.18l27.92,24.39l29.7-23.22L853.85,1316.69z"/>
					<path d="M822.54,1383.61l-29.65-25.89l0.03-0.84c0.24-6.46,0.38-13.26,0.52-20.06c0.14-6.82,0.28-13.64,0.53-20.12l0.04-1.17
						l1.09-0.41c6.54-2.46,16.99-4.02,29.43-4.39c10.16-0.29,20.21,1.14,29.86,4.28l1.26,0.41l-1.63,43.56L822.54,1383.61z
						 M796.46,1356.17l26.2,22.88l27.91-21.83l1.47-39.26c-8.87-2.74-18.08-4.01-27.4-3.71c-11.38,0.33-20.96,1.67-27.2,3.77
						c-0.22,6.1-0.35,12.49-0.48,18.87C796.82,1343.41,796.69,1349.94,796.46,1356.17z"/>
				</g>
			</g>
		</g>
		<g>
			<g>
				<g>
					<path style="fill:#FFFFFF;" d="M843.22,150.94c-21.57,17.68-38.66,38.68-50.96,61.73c-30.02,55.54-32.73,122.72-6.99,182.54
						c9.02,21.2,21.71,41.4,37.98,59.88c16.27,18.48,34.88,33.82,55.1,45.84c62.82,37.74,140.4,43.87,206.5,15.96
						c18.66-7.76,36.48-18.37,52.7-31.67c25.62-21,44.85-46.63,57.42-74.78c23.67-52.44,24.32-113.38,1.06-168.25
						c-9.06-21.62-21.89-42.24-38.51-61.1c-16.61-18.86-35.63-34.42-56.27-46.54c-56.94-33.69-125.68-41.64-187.09-22
						C888.76,120.59,864.65,133.37,843.22,150.94z"/>
					<path d="M998.15,536.04c-41.71,0-83.61-11.33-120.71-33.61c-20.67-12.28-39.35-27.82-55.52-46.18
						c-16.17-18.36-29.05-38.67-38.28-60.35c-26.03-60.51-23.46-127.6,7.06-184.06c12.66-23.72,29.95-44.67,51.39-62.25l0,0
						c21.17-17.35,45.23-30.39,71.51-38.73c62.33-19.92,131.04-11.85,188.52,22.16c21.16,12.42,40.24,28.2,56.7,46.89
						c16.46,18.69,29.51,39.41,38.81,61.59c23.24,54.81,22.85,116.65-1.08,169.66c-13.06,29.25-32.54,54.63-57.91,75.42
						c-16.16,13.25-34.05,24-53.14,31.94C1057.72,530.24,1027.98,536.04,998.15,536.04z M844.33,152.3
						c-21.08,17.28-38.08,37.87-50.52,61.19c-30.01,55.52-32.54,121.49-6.93,181.02c9.08,21.34,21.76,41.33,37.68,59.41
						c15.92,18.09,34.32,33.39,54.68,45.49c62.68,37.64,139.27,43.56,204.91,15.85c18.79-7.81,36.37-18.38,52.27-31.41
						c24.94-20.44,44.09-45.39,56.93-74.14c23.53-52.12,23.91-112.93,1.05-166.85c-9.15-21.83-22-42.22-38.21-60.63
						c-16.22-18.42-35.01-33.95-55.85-46.19c-56.62-33.51-124.29-41.46-185.67-21.84C888.82,122.42,865.16,135.23,844.33,152.3
						L844.33,152.3z"/>
				</g>
				<g>
					<g>
						<polygon points="898.31,332.4 959.96,403.12 1052.05,388.79 1082.48,303.75 1020.84,233.04 928.75,247.36 						"/>
						<path d="M959.27,405.01l-62.96-72.22l31.14-87l94.08-14.64l62.96,72.22l-31.14,87L959.27,405.01z M900.31,332.02l60.33,69.21
							l90.1-14.01l29.74-83.09l-60.33-69.21l-90.09,14.01L900.31,332.02z"/>
					</g>
					<g>
						<path d="M843.22,150.94c-21.57,17.68-38.66,38.68-50.96,61.73l4.88,5.54l92.14-14.34l30.44-85.03l-5.55-6.31
							C888.76,120.59,864.65,133.37,843.22,150.94z"/>
						<path d="M796.45,220.09l-6.32-7.18l0.57-1.08c12.66-23.73,29.95-44.68,51.4-62.26l0,0c21.17-17.35,45.23-30.39,71.51-38.73
							l1.09-0.35l7,7.95l-31.14,86.99L796.45,220.09z M794.38,212.43l3.43,3.89l90.15-14.03l29.74-83.07l-4.11-4.67
							c-25.43,8.22-48.73,20.92-69.26,37.75C823.57,169.32,806.77,189.54,794.38,212.43z"/>
					</g>
					<g>
						<path d="M1101.24,134.53l-15.96,44.57l61.63,70.75l49.12-7.67c-9.06-21.62-21.89-42.24-38.51-61.1
							C1140.91,162.2,1121.89,146.65,1101.24,134.53z"/>
						<path d="M1146.22,251.73l-62.94-72.26l17.02-47.54l1.83,1.08c21.16,12.42,40.24,28.2,56.71,46.89
							c16.46,18.69,29.51,39.41,38.81,61.59l0.87,2.07L1146.22,251.73z M1087.28,178.72l60.31,69.24l45.93-7.17
							c-9.08-21.04-21.63-40.73-37.32-58.55c-15.74-17.88-33.91-33.04-54.02-45.1L1087.28,178.72z"/>
					</g>
					<g>
						<path d="M785.26,395.21c9.02,21.2,21.71,41.4,37.98,59.88c16.27,18.48,34.88,33.82,55.1,45.84l15.14-42.23l-61.63-70.75
							L785.26,395.21z"/>
						<path d="M879.28,503.52l-1.83-1.09c-20.68-12.28-39.36-27.83-55.53-46.19c-16.17-18.36-29.05-38.67-38.28-60.35l-0.88-2.08
							l49.78-7.76l62.94,72.26L879.28,503.52z M787.78,396.59c9.01,20.55,21.38,39.83,36.78,57.33
							c15.44,17.54,33.22,32.47,52.85,44.39l14.07-39.24l-60.31-69.24L787.78,396.59z"/>
					</g>
					<g>
						<path d="M1108.42,423.94l-30.44,85.03l6.85,7.91c18.66-7.76,36.48-18.37,52.7-31.67c25.62-21,44.85-46.63,57.42-74.78
							L1108.42,423.94z"/>
						<path d="M1084.34,518.99l-8.35-9.64l31.14-86.98l90.76-14.18l-1.32,2.95c-13.07,29.26-32.55,54.64-57.91,75.43
							c-16.16,13.25-34.05,24-53.14,31.94L1084.34,518.99z M1079.99,508.6l5.34,6.17c18.34-7.76,35.52-18.16,51.09-30.92
							c24.08-19.74,42.77-43.67,55.58-71.18l-82.27,12.85L1079.99,508.6z"/>
					</g>
				</g>
			</g>
			<g>
				<g>
					<g>
						<path d="M757.72,426.55c-2.55,1.94-5.2,3.88-7.75,5.9c-0.88,0.62-1.76,1.32-2.64,1.94c-13.74,10.48-27.56,20.97-41.21,31.45
							c-75.64,58.41-148.63,119.73-206.39,196.9c-39.27,52.42-53.45,128.36-11.36,184.48c13.83,18.41,32.23,31.89,52.92,42.29
							c2.29,25.9,6.87,52.68,13.39,80.08c-41.21-13.83-79.78-33.48-110.07-65.64c-51.95-55.15-61.9-136.38-41.83-207.21
							c21.22-74.98,89.11-142.19,145.46-193.21c32.93-29.87,67.89-57.88,103.46-85.11c13.03-10.13,26.15-20.09,39.36-29.95
							c9.77-7.4,19.55-14.8,29.32-22.2C732.18,386.82,744.6,406.9,757.72,426.55z"/>
					</g>
					<g>
						<g>
							<path style="fill:#712CE5;" d="M785.28,395.22c-14.73-34.14-20.12-70.69-16.48-106.1c4.37-38.22,22.95-61.81,42.58-76.22
								c17.84-13.1,5.24-41.91-16.19-36.37c-10.44,2.7-20.3,7.2-29.19,12.3c-0.16,0.08-0.28,0.17-0.44,0.26
								c-24.01,13.9-40.61,32.26-40.61,32.26l0.24,0.38c-83.46,80.93-50.33,153.05-50.33,153.05
								c-56.35-0.09-48.54,29.48,19.96,82.69c92.81,72.15,79.63-7.71,79.63-7.71c15.41,5.99,28.97,6.75,45.08,4.11
								C803.68,435.71,794.09,416.01,785.28,395.22z"/>
							<path d="M754.33,489.39c-14.15,0-34.44-10.22-60.58-30.54c-42.95-33.36-62.23-57.57-57.29-71.93
								c3.06-8.9,15.12-13.57,35.85-13.89c-4.79-13.43-22.95-79.44,50.64-151.57l-0.2-0.31l0.9-1c0.17-0.19,17.07-18.73,41.04-32.6
								l0.49-0.29c10.07-5.79,20.03-9.98,29.57-12.45c10.34-2.67,19.98,1.88,24.6,11.59c4,8.41,3.4,20.3-6.93,27.89
								c-24.11,17.71-38.2,42.95-41.87,75.01c-3.65,35.55,2.01,71.94,16.35,105.2l0,0.01c9.52,22.49,18.94,40.98,33.95,58.17
								l2.08,2.38l-3.12,0.51c-16.27,2.67-29.39,1.73-43.26-3.19c0.73,7.45,1.31,26.8-11.1,34.19
								C762.31,488.46,758.6,489.39,754.33,489.39z M674.62,376.54c-20.2,0-32.25,3.99-34.84,11.53
								c-3.02,8.79,4.26,27.73,56.13,68.01c40.83,31.75,59.38,32.48,67.75,27.49c13.14-7.82,9.1-33.28,9.07-33.53l-0.5-3.04
								l2.87,1.12c13.37,5.2,25.81,6.59,41.04,4.49c-14.12-16.85-23.26-34.94-32.47-56.69c-14.58-33.81-20.33-70.8-16.62-106.97
								c3.79-33.09,18.35-59.15,43.28-77.46c8.71-6.4,9.21-16.44,5.84-23.55c-2.93-6.17-10.05-12.39-20.54-9.7
								c-9.23,2.39-18.9,6.47-28.75,12.13l-1.31-1.27l0.88,1.52c-20.34,11.78-35.49,26.98-39.27,30.94l0.28,0.44l-1.03,1
								c-42.63,41.34-53.94,80.21-55.92,105.53c-2.14,27.42,5.88,45.34,5.96,45.52l1.14,2.49l-2.74,0
								C674.79,376.54,674.71,376.54,674.62,376.54z"/>
						</g>
						<g>
							<path style="fill:#712CE5;" d="M735.3,421.43c3.65,4.91,9.4,11.5,17.82,17.55c7.04,5.05,13.75,8.16,18.94,10.09L735.3,421.43
								z"/>
							<path d="M771.45,450.72c-6.88-2.57-13.4-6.04-19.35-10.31c-6.96-5-13.09-11.03-18.21-17.93l2.82-2.1
								c4.91,6.61,10.78,12.38,17.44,17.17c5.7,4.09,11.94,7.42,18.53,9.87L771.45,450.72z"/>
						</g>
						<g>
							
								<rect x="684.6" y="369.48" transform="matrix(0.6454 -0.7639 0.7639 0.6454 -50.3187 660.6448)" width="3.52" height="30.07"/>
						</g>
					</g>
				</g>
				<g>
					<g>
						<path d="M1570.27,881.94c-31.79,38.06-74.93,61.14-120.81,78.06c5.37-27.4,8.98-54.09,10.66-79.56v-0.09
							c25.36-12.69,47.81-29.25,63.13-52.42c38.57-58.5,19.81-133.56-22.54-183.43c-62.34-73.48-138.95-130.21-217.93-183.95
							c-14.35-9.69-28.71-19.3-43.06-28.99c-0.88-0.53-1.85-1.15-2.73-1.76c-2.73-1.76-5.37-3.61-8.1-5.38
							c11.8-20.44,23.07-41.23,33.55-62.46c10.22,6.78,20.43,13.57,30.64,20.35c13.74,9.07,27.47,18.24,41.12,27.58
							c37.07,25.02,73.7,50.92,108.39,78.67c59.35,47.49,131.2,110.39,156.91,183.95C1623.89,742.04,1618.88,823.79,1570.27,881.94z
							"/>
					</g>
					<g>
						<g>
							<path style="fill:#712CE5;" d="M1199.43,394.8c12.63-34.97,15.79-71.78,10.02-106.9c-6.68-37.89-26.66-60.3-47.12-73.5
								c-18.6-12-7.77-41.51,13.95-37.28c10.59,2.06,20.7,5.95,29.88,10.51c0.17,0.07,0.29,0.15,0.45,0.23
								c24.8,12.41,42.49,29.73,42.49,29.73l-0.22,0.4c88.22,75.72,59.52,149.71,59.52,149.71c56.24-3.51,50.24,26.48-14.91,83.75
								c-88.26,77.66-79.95-2.87-79.95-2.87c-15.02,6.92-28.5,8.5-44.75,6.84C1183.52,436.33,1191.91,416.09,1199.43,394.8z"/>
							<path d="M1234.36,486.98c-3.58,0-6.78-0.72-9.59-2.18c-12.83-6.62-13.43-25.97-13.15-33.45
								c-13.55,5.75-26.58,7.48-42.99,5.81l-3.14-0.32l1.93-2.5c13.93-18.06,22.22-37.1,30.36-60.13l0-0.01
								c12.31-34.07,15.74-70.74,9.94-106.02c-5.6-31.76-21.19-56.09-46.34-72.31c-10.77-6.95-12.08-18.78-8.61-27.42
								c4.02-9.98,13.4-15.1,23.85-13.07c9.67,1.89,19.87,5.47,30.33,10.66l0.45,0.23c24.77,12.4,42.76,29.88,42.93,30.05l0.96,0.94
								l-0.18,0.32c77.83,67.53,63.71,134.52,59.74,148.22c20.73-0.92,33.03,2.99,36.62,11.69c5.8,14.04-11.97,39.36-52.83,75.28
								C1268.79,475.52,1248.58,486.98,1234.36,486.98z M1215.62,445.69l-0.32,3.07c-0.02,0.26-2.49,25.93,11.08,32.92
								c8.66,4.46,27.13,2.61,65.95-31.56c49.32-43.36,55.45-62.7,51.9-71.29c-3.05-7.4-15.4-10.64-35.71-9.38l-2.74,0.17l0.98-2.56
								c0.07-0.18,6.99-18.56,3.19-45.8c-3.51-25.16-17.16-63.27-62.21-101.95l-1.09-0.94l0.25-0.45
								c-4.01-3.72-20.06-17.98-41.08-28.5l0.34-1.8l-0.78,1.58c-10.17-5.05-20.08-8.53-29.43-10.36
								c-10.61-2.07-17.36,4.59-19.91,10.93c-2.94,7.3-1.83,17.29,7.25,23.15c26,16.77,42.11,41.89,47.89,74.67
								c5.9,35.9,2.41,73.17-10.1,107.81c-7.88,22.27-15.9,40.88-28.97,58.55c15.32,1.17,27.66-0.97,40.7-6.97L1215.62,445.69z"/>
						</g>
						<g>
							<path style="fill:#712CE5;" d="M1250.92,417.93c-3.35,5.13-8.68,12.05-16.73,18.6c-6.72,5.47-13.23,8.98-18.29,11.23
								L1250.92,417.93z"/>
							<path d="M1216.61,449.36l-1.43-3.22c6.44-2.86,12.46-6.55,17.9-10.98c6.36-5.18,11.87-11.3,16.36-18.2l2.95,1.92
								c-4.7,7.2-10.45,13.59-17.09,19C1229.62,442.52,1223.33,446.37,1216.61,449.36z"/>
						</g>
						<g>
							
								<rect x="1282.58" y="376.35" transform="matrix(0.7231 -0.6908 0.6908 0.7231 98.1567 1001.0683)" width="30.08" height="3.52"/>
						</g>
					</g>
				</g>
			</g>
		</g>
		<g>
			<g>
				<g>
					<path d="M889.42,979.69c-1.01,38.41,52.67,70.94,119.92,72.7c16.22,0.43,31.61-1,45.87-3.91c44.92-9.14,77.03-33.22,77.8-62.41
						c0.07-2.55-0.08-5.02-0.56-7.5c-5.58-35.02-56.65-63.56-119.46-65.21C945.73,911.6,890.42,941.28,889.42,979.69z"/>
					<path d="M1014.95,1054.23c-1.88,0-3.76-0.02-5.65-0.07c-68.1-1.78-122.66-35.21-121.63-74.51
						c0.5-19.23,13.95-36.89,37.87-49.73c23.6-12.67,54.69-19.15,87.5-18.31c63.28,1.66,115.37,30.33,121.16,66.69
						c0.46,2.4,0.65,4.98,0.58,7.82c-0.77,29.3-31.85,54.46-79.2,64.09C1042.48,1052.88,1028.85,1054.23,1014.95,1054.23z
						 M889.42,979.69l1.76,0.05c-0.98,37.36,52.05,69.17,118.2,70.9c15.6,0.42,30.89-0.89,45.47-3.88
						c45.69-9.29,75.67-33.13,76.39-60.74c0.06-2.59-0.11-4.92-0.53-7.12c-5.54-34.77-56.17-62.17-117.78-63.78
						c-32.3-0.85-62.68,5.51-85.74,17.89c-22.75,12.21-35.54,28.8-36.01,46.72L889.42,979.69z"/>
				</g>
				<g>
					<path style="fill:#FF6DCE;" d="M1045.17,1018.28c-0.29,11.22,3.44,21.63,10.03,30.21c44.92-9.14,77.03-33.22,77.8-62.41
						c0.07-2.55-0.08-5.02-0.56-7.5c-8.62-5.7-19.13-9.08-30.48-9.38C1071.36,968.39,1045.9,990.36,1045.17,1018.28z"/>
					<path d="M1054.48,1050.42l-0.67-0.87c-7.09-9.22-10.69-20.06-10.4-31.32l0,0c0.37-14,6.69-27,17.8-36.6
						c11.06-9.56,25.61-14.57,40.79-14.2c11.44,0.3,22.3,3.64,31.41,9.67l0.62,0.41l0.14,0.72c0.47,2.46,0.66,5.03,0.59,7.88
						c-0.77,29.3-31.85,54.46-79.2,64.09L1054.48,1050.42z M1046.93,1018.32c-0.26,10.1,2.85,19.83,9.01,28.21
						c45.07-9.45,74.59-33.13,75.3-60.51c0.06-2.3-0.07-4.4-0.4-6.4c-8.43-5.41-18.41-8.4-28.93-8.68
						c-14.41-0.36-28,4.36-38.4,13.35C1053.16,993.24,1047.27,1005.32,1046.93,1018.32L1046.93,1018.32z"/>
				</g>
			</g>
			<g>
				<g>
					<path style="fill:#FF4568;" d="M1140.82,894.07c-43.92,18.92-67.81,68.93-58.37,113.5c7.21,34.07,33.11,61.24,66.04,70.13
						L1140.82,894.07z"/>
					<path d="M1148.03,1079.4c-33.62-9.08-60.04-37.13-67.31-71.47c-9.94-46.96,15.59-96.61,59.4-115.48l1.39,3.23
						c-42.29,18.22-66.95,66.17-57.35,111.52c7,33.06,32.43,60.07,64.78,68.8L1148.03,1079.4z"/>
				</g>
				<g>
					<path style="fill:#FF4568;" d="M876.68,897.13c44.52,17.44,70.07,66.62,62.14,111.48c-6.07,34.29-31.04,62.32-63.66,72.31
						L876.68,897.13z"/>
					<path d="M875.67,1082.6l-1.03-3.36c32.04-9.81,56.56-37.65,62.44-70.93c8.08-45.65-18.16-92.74-61.04-109.54l1.28-3.28
						c44.41,17.4,71.59,66.16,63.23,113.42C934.43,1043.48,908.96,1072.41,875.67,1082.6z"/>
				</g>
			</g>
			<g>
				<g>
					<g>
						
							<ellipse transform="matrix(1.399999e-03 -1 1 1.399999e-03 16.9539 1598.5869)" style="fill:#FFFFFF;" cx="808.89" cy="790.8" rx="139.84" ry="139.77"/>
						<path d="M809.21,932.45c-6.85,0-13.73-0.5-20.62-1.5c-77.23-11.21-130.94-83.2-119.73-160.47
							c5.43-37.43,25.1-70.51,55.4-93.13c30.29-22.63,67.58-32.1,104.99-26.66c77.23,11.21,130.94,83.2,119.73,160.47
							c-5.43,37.43-25.1,70.51-55.4,93.13C868.86,922.75,839.49,932.45,809.21,932.45z M808.61,652.71
							c-29.54,0-58.17,9.46-82.27,27.46c-29.54,22.06-48.73,54.32-54.02,90.82c-10.93,75.35,41.45,145.55,116.76,156.49
							c36.49,5.3,72.84-3.94,102.38-26c29.54-22.06,48.73-54.32,54.02-90.82l1.74,0.25l-1.74-0.25
							c10.93-75.35-41.45-145.55-116.76-156.49C822,653.19,815.29,652.71,808.61,652.71z"/>
					</g>
					<g>
						<path d="M824.78,681.4c-58.1-8.44-112.04,31.85-120.47,89.98c-0.21,1.42-0.25,2.82-0.4,4.24l74.07,11.1l-70.14,30.7
							c11.59,38.25,44.24,68.37,86.39,74.49c58.1,8.44,112.04-31.85,120.47-89.98C923.14,743.8,882.88,689.84,824.78,681.4z"/>
						<path d="M809.74,894.79c-5.22,0-10.49-0.38-15.75-1.14c-41.22-5.98-75.69-35.71-87.82-75.72l-0.45-1.5l65.98-28.88
							l-69.71-10.44l0.18-1.67c0.06-0.54,0.09-1.07,0.14-1.61c0.07-0.9,0.14-1.8,0.27-2.71c4.15-28.58,19.17-53.83,42.3-71.11
							c23.13-17.28,51.6-24.52,80.16-20.36c58.97,8.56,99.98,63.52,91.42,122.52c-4.14,28.58-19.17,53.83-42.29,71.11
							C855.29,887.39,832.87,894.79,809.74,894.79z M710,818.4c12.13,37.96,45.13,66.05,84.49,71.77
							c27.65,4.02,55.18-2.98,77.55-19.7c22.38-16.71,36.91-41.15,40.92-68.79c8.28-57.08-31.4-110.26-88.44-118.54
							c-27.64-4.01-55.18,2.98-77.55,19.7c-22.38,16.71-36.91,41.14-40.92,68.79c-0.12,0.83-0.18,1.65-0.24,2.47
							c0,0.01,0,0.02,0,0.03l78.48,11.76L710,818.4z"/>
					</g>
				</g>
				<g>
					<g>
						<ellipse style="fill:#FFFFFF;" cx="1189.55" cy="783.03" rx="139.77" ry="139.84"/>
						<path d="M1189.26,924.66c-31.3,0-61.53-10.33-86.63-29.87c-29.83-23.23-48.84-56.69-53.52-94.22l0,0
							c-9.66-77.48,45.49-148.37,122.92-158.04c37.51-4.68,74.6,5.53,104.43,28.76c29.83,23.23,48.84,56.69,53.52,94.22
							c9.66,77.48-45.49,148.37-122.92,158.04C1201.11,924.29,1195.16,924.66,1189.26,924.66z M1052.6,800.12
							c4.57,36.6,23.1,69.23,52.19,91.89c29.09,22.65,65.24,32.62,101.84,28.05c75.51-9.42,129.29-78.56,119.87-154.11
							c-4.56-36.6-23.1-69.23-52.19-91.89c-29.1-22.65-65.25-32.61-101.84-28.05C1096.95,655.44,1043.18,724.57,1052.6,800.12
							L1052.6,800.12z"/>
					</g>
					<g>
						<path d="M1175.87,673.32c58.26-7.27,111.37,34.09,118.64,92.38c0.18,1.42,0.19,2.83,0.31,4.25l-74.28,9.61l69.51,32.1
							c-12.36,38.01-45.6,67.47-87.86,72.74c-58.26,7.27-111.37-34.09-118.64-92.38C1076.28,733.73,1117.61,680.59,1175.87,673.32z"
							/>
						<path d="M1188.81,886.99c-23.9,0-46.98-7.89-66.15-22.81c-22.78-17.74-37.29-43.29-40.86-71.94
							c-7.37-59.16,34.73-113.29,93.86-120.67c28.64-3.57,56.96,4.22,79.74,21.96c22.78,17.74,37.29,43.29,40.86,71.94
							c0.11,0.9,0.16,1.8,0.21,2.69c0.03,0.54,0.06,1.08,0.11,1.63l0.14,1.68l-69.91,9.04l65.39,30.2l-0.49,1.48
							c-12.93,39.76-47.99,68.79-89.32,73.94C1197.86,886.71,1193.32,886.99,1188.81,886.99z M1189.24,674.24
							c-4.36,0-8.75,0.27-13.15,0.82c-57.2,7.14-97.93,59.51-90.8,116.74c3.45,27.72,17.49,52.44,39.54,69.6
							c22.04,17.16,49.43,24.71,77.15,21.25c39.47-4.92,73.02-32.35,85.91-70.06l-73.62-34l78.7-10.18c0-0.01,0-0.03,0-0.04
							c-0.05-0.82-0.09-1.63-0.19-2.46c-3.46-27.72-17.5-52.44-39.53-69.6C1234.69,681.87,1212.35,674.24,1189.24,674.24z"/>
					</g>
				</g>
			</g>
			<g>
				<path style="fill:#FF4568;" d="M1019.43,807.37l-1.62,33.34c0,0-53.76-5.65-55.34,22.37c-1.58,28.01,60.37,18.61,60.37,18.61
					L1019.43,807.37z"/>
				<path d="M1001.05,884.99c-12.59,0-27.34-1.71-35.02-8.7c-3.83-3.48-5.62-7.96-5.32-13.3c0.33-5.85,2.79-10.77,7.31-14.62
					c13.31-11.32,40.69-10.13,48.12-9.56l1.53-31.52l3.51,0.17l-1.71,35.2l-1.85-0.19c-0.33-0.03-33.32-3.33-47.33,8.59
					c-3.81,3.24-5.8,7.22-6.08,12.13c-0.24,4.3,1.12,7.73,4.17,10.5c13.49,12.27,53.77,6.33,54.17,6.27l0.53,3.48
					C1022.27,883.55,1012.56,884.99,1001.05,884.99z"/>
			</g>
		</g>
	</g>
</g>
</svg>
