<?xml version="1.0" encoding="iso-8859-1"?>
<!-- Generator: Adobe Illustrator 30.0.0, SVG Export Plug-In . SVG Version: 9.03 Build 0)  -->
<svg version="1.1" id="Capa_1" xmlns="http://www.w3.org/2000/svg" xmlns:xlink="http://www.w3.org/1999/xlink" x="0px" y="0px"
	 viewBox="0 0 2000 2000" style="enable-background:new 0 0 2000 2000;" xml:space="preserve">
<g>
	<g>
		<g id="XMLID_29_">
			<rect x="100.1" y="1482.43" style="fill:#00C793;" width="1799.8" height="417.57"/>
		</g>
		<g style="opacity:0.27;">
			<g style="opacity:0.27;">
				<rect x="100.1" y="1482.43" style="fill:#FFFFFF;" width="196.17" height="417.57"/>
			</g>
			<g style="opacity:0.27;">
				<rect x="807.05" y="1482.43" style="fill:#FFFFFF;" width="209.27" height="417.57"/>
			</g>
			<g style="opacity:0.27;">
				<rect x="1153.16" y="1482.43" style="fill:#FFFFFF;" width="206.65" height="417.57"/>
			</g>
			<g style="opacity:0.27;">
				<rect x="1496.65" y="1482.43" style="fill:#FFFFFF;" width="169.94" height="417.57"/>
			</g>
			<g style="opacity:0.27;">
				<rect x="1803.43" y="1482.43" style="fill:#FFFFFF;" width="96.47" height="417.57"/>
			</g>
			<g style="opacity:0.27;">
				<rect x="464.43" y="1482.43" style="fill:#FFFFFF;" width="205.78" height="417.57"/>
			</g>
		</g>
		<g>
			<g>
				<rect x="100.1" y="1524.64" style="fill:#FFFFFF;" width="1799.8" height="18.18"/>
			</g>
			<g>
				<rect x="952.94" y="1524.64" style="fill:#FFFFFF;" width="17.94" height="374.87"/>
			</g>
		</g>
	</g>
	<g>
		<g>
			<g>
				<g>
					<g>
						<g>
							<path d="M1489.66,1000.71c-33.94-27.27-76.9,24.88-42.97,52.14c39.46,31.7,87.62,60.96,119.18,100.87
								c37.9,47.92,32.88,91.85-17.19,127.95c-38.14,27.5-82.96,43.85-124.64,65.06c-43.87,22.34-86.25,47.22-127.02,74.81
								c-36.08,24.41,3.52,79.14,39.53,54.78c57.02-38.58,117.15-68.81,179-98.64c48.4-23.35,101.21-51.6,128.83-99.9
								C1713.14,1157.56,1568.41,1063.98,1489.66,1000.71z"/>
						</g>
						<g>
							<g>
								<g>
									<path style="fill:#FFFFFF;" d="M1313.24,1406.77c0,0,11.34-33.41,29.11-17.45c13.54,12.16,33.49,45.59,42.23,60.83
										c4.03,7.03,4.18,15.88-0.39,22.58c-2.95,4.33-15.13,9.29-22.84,8.99c-5.06,14.16-8.74,37.4-32.77,57.74
										c-17.98,15.22-40.43,27.06-63.53,32.04c-11.87,2.56-23.94,2.93-35.22-2.09c-6.27-2.79-12.32-7.01-16.09-12.84
										c-1.88-2.91-3.11-6.18-3.43-9.63c-0.09-1.01-0.51-8.08-0.51-8.08s-33.88-13.02-14.35-43.45c0,0-51.33-24.35,16.28-56.72
										c4.1-1.96-3.62-20.76,5.68-37.73c1.38-2.52,11.23-19.9,30.05-25.51C1269.86,1368.78,1297.42,1381.02,1313.24,1406.77z"/>
									<path d="M1249.29,1575.08c-7.41,0-14.09-1.35-20.18-4.06c-5.21-2.32-12.35-6.54-16.86-13.49
										c-2.12-3.27-3.36-6.78-3.71-10.43c-0.07-0.77-0.33-5.01-0.45-7.05c-3.65-1.63-15.49-7.71-19.31-19.36
										c-2.46-7.53-1.07-15.8,4.16-24.61c-4.82-2.68-17.9-11.09-17.93-23.62c-0.02-12.04,12.07-23.93,35.94-35.36
										c0.51-0.61,0.29-4.25,0.12-7.18c-0.45-7.57-1.14-19.02,4.77-29.81c1.87-3.41,12.14-20.7,31.09-26.35
										c23.01-6.85,49.68,5.09,65.91,29.17c2.43-5.71,8.25-17.02,16.88-19.28c4.58-1.2,9.22,0.27,13.78,4.37
										c13.87,12.46,34.4,47,42.58,61.27c4.49,7.84,4.32,17.43-0.46,24.44c-3.21,4.71-14.84,9.54-23.04,9.76
										c-0.68,1.99-1.34,4.14-2.05,6.43c-4.37,14.16-10.36,33.56-30.83,50.9c-18.96,16.06-41.8,27.57-64.3,32.42
										C1259.68,1574.46,1254.31,1575.08,1249.29,1575.08z M1259.91,1375.43c-4.07,0-8.08,0.56-11.95,1.71
										c-17.63,5.25-27.26,21.47-29.01,24.67c-5.43,9.91-4.78,20.75-4.35,27.91c0.33,5.59,0.56,9.28-2.11,10.56
										c-22.23,10.64-33.96,21.77-33.95,32.19c0.02,12.85,17.48,21.27,17.65,21.36l1.81,0.86l-1.08,1.68
										c-5.45,8.48-7.06,16.29-4.79,23.23c3.9,11.95,18.15,17.58,18.29,17.64l1.05,0.41l0.07,1.13c0,0,0.41,7.02,0.51,8.02
										c0.29,3.08,1.35,6.05,3.16,8.84c4.03,6.22,10.56,10.06,15.33,12.19c9.51,4.24,20.68,4.89,34.14,1.98
										c21.94-4.73,44.23-15.97,62.76-31.67c19.69-16.67,25.5-35.5,29.74-49.25c0.86-2.79,1.67-5.39,2.51-7.74l0.43-1.22
										l1.29,0.05c7.39,0.33,18.83-4.57,21.32-8.22c4.02-5.9,4.14-14.03,0.32-20.71c-8.1-14.12-28.39-48.28-41.87-60.4
										c-3.68-3.3-7.12-4.48-10.55-3.58c-9.58,2.51-15.66,20.11-15.72,20.29l-1.21,3.54l-1.96-3.19
										C1299.45,1387.68,1279.05,1375.43,1259.91,1375.43z"/>
								</g>
								<g>
									<line style="fill:none;" x1="1196.24" y1="1495.32" x2="1223.24" y2="1485.15"/>
									
										<rect x="1195.36" y="1488.48" transform="matrix(0.9361 -0.3518 0.3518 0.9361 -446.9226 520.8507)" width="28.85" height="3.51"/>
								</g>
								<g>
									<line style="fill:none;" x1="1209.79" y1="1538.86" x2="1236.94" y2="1526.02"/>
									
										<rect x="1208.42" y="1530.64" transform="matrix(0.904 -0.4276 0.4276 0.904 -537.7513 670.2787)" width="30.03" height="3.52"/>
								</g>
								<g>
									<line style="fill:none;" x1="1211.73" y1="1438.69" x2="1249.92" y2="1422.08"/>
									
										<rect x="1210.02" y="1428.69" transform="matrix(0.9172 -0.3985 0.3985 0.9172 -468.0703 608.9587)" width="41.65" height="3.52"/>
								</g>
								<g>
									<line style="fill:none;" x1="1313.24" y1="1406.77" x2="1329.38" y2="1431.23"/>
									
										<rect x="1319.57" y="1404.28" transform="matrix(0.8347 -0.5507 0.5507 0.8347 -562.9915 962.2009)" width="3.51" height="29.3"/>
								</g>
								<g>
									<line style="fill:none;" x1="1349.22" y1="1464.11" x2="1361.35" y2="1481.72"/>
									
										<rect x="1353.55" y="1462.25" transform="matrix(0.8236 -0.5672 0.5672 0.8236 -596.3414 1028.568)" width="3.52" height="21.38"/>
								</g>
							</g>
						</g>
					</g>
					<g>
						<g>
							<path d="M1029.05,644.47c-165.94-42.46-321.5-65.04-491.9-34.62c-42.56,7.6-35.02,74.77,7.95,67.1
								c80.61-14.39,159.38-20.94,241.15-12.8c79.96,7.96,155.13,27.27,232.64,47.11C1060.97,722.02,1070.84,655.17,1029.05,644.47z
								"/>
						</g>
						<g>
							<g>
								<path style="fill:#FFFFFF;" d="M450.66,601.98c0,0-64.1-28.45-73.64-10.24s44.96,35.39,44.96,35.39L450.66,601.98z"/>
								<path d="M422.4,629.11l-0.94-0.3c-1.63-0.51-40.01-12.77-46.38-28.2c-1.37-3.32-1.24-6.58,0.39-9.68
									c10.02-19.11,69.19,6.48,75.91,9.45l2.51,1.11L422.4,629.11z M391.77,587.37c-6.39,0-11.24,1.46-13.19,5.18
									c-1.14,2.17-1.22,4.37-0.25,6.71c5.24,12.7,37.34,23.91,43.25,25.88l25.84-22.66C433.79,596.69,407.89,587.37,391.77,587.37
									z"/>
							</g>
							<g>
								<path style="fill:#FFFFFF;" d="M431.39,612.22c0,0-70.02-21.5-78.29-1.05c-8.27,20.45,50.61,31.35,50.61,31.35
									L431.39,612.22z"/>
								<path d="M404.34,644.42l-0.96-0.18c-1.75-0.32-42.9-8.1-51.29-23.39c-1.84-3.35-2.05-6.83-0.63-10.35
									c3.78-9.33,18.63-12.1,44.14-8.22c18.46,2.81,36.12,8.19,36.3,8.25l2.66,0.82L404.34,644.42z M375.78,604.1
									c-10.49,0-18.76,2.03-21.06,7.72c-1.02,2.52-0.87,4.92,0.45,7.34c6.94,12.65,41.67,20.18,47.89,21.43l25.13-27.5
									C415.4,609.38,392.7,604.1,375.78,604.1z"/>
							</g>
							<g>
								<path style="fill:#FFFFFF;" d="M452.57,654.41c5.73,0.83,11.21,2.82,15.96,6.79c5.91,4.94,6.79,12.07,1.37,17.72
									c-7.98,8.32-21.13,7.46-31.22,7.44c-12.46-0.03-25.44-1.44-37.45,3.03c-7.87,2.93-14.17,11.36-7.74,20.68
									c4.66,6.74,12.4,9.68,19.09,12.49c42.45,17.83,104.97,19.81,123.56-30.93c0.83-2.27,3.17-3.23,4.61-5.03
									c7.56,8.01,28.16,9.04,28.49-9.05c0.42-22.97-0.36-43.21-3.69-66.52c-1.48-10.33-1.75-21.68-13.3-23.7
									c-11.22-1.95-14.89,9.09-15.95,19.24c-25.9-1.02-51.55-15.61-77.6-11.87c-25.27,3.64-52.89,20.07-76.63,30.41
									c-8.3,3.61-38.38,12.29-29,28.91c5.9,10.46,23.6,8.54,32.42,8.02c13.95-0.82,27.62-4.12,41.41-6.27
									C434.92,654.54,444.01,653.18,452.57,654.41z"/>
								<path d="M467.4,735.77c-19.94,0-40-5.08-55.5-11.59l-1.16-0.49c-6.57-2.74-14.02-5.85-18.7-12.63
									c-3.6-5.22-3.28-9.76-2.37-12.65c1.47-4.69,5.56-8.68,10.94-10.68c10.04-3.74,20.68-3.49,30.97-3.26
									c2.38,0.06,4.75,0.11,7.1,0.12l2.56,0.02c9.68,0.06,20.59,0.18,27.39-6.92c2.18-2.27,3.25-4.84,3.1-7.45
									c-0.15-2.76-1.69-5.49-4.32-7.7c-4.11-3.43-9.05-5.53-15.09-6.4l0,0c-8.49-1.22-17.72,0.22-25.13,1.38
									c-4.33,0.67-8.66,1.47-12.97,2.26c-9.32,1.71-18.95,3.47-28.6,4.03l-1.85,0.12c-9.78,0.64-26.16,1.69-32.21-9.03
									c-2.15-3.81-2.58-7.55-1.3-11.13c3.43-9.54,18.28-15.26,27.16-18.68c1.58-0.61,2.95-1.13,3.97-1.58
									c6.29-2.74,12.76-5.86,19.61-9.17c19.01-9.18,38.66-18.66,57.47-21.37c15.32-2.2,30.59,1.81,45.35,5.7
									c10.16,2.68,20.65,5.44,30.95,6.07c1.09-8.28,3.66-13.99,7.62-16.99c2.8-2.12,6.22-2.83,10.18-2.14
									c11.7,2.04,13.1,12.74,14.33,22.18c0.13,1.01,0.26,2.01,0.4,3c3.07,21.41,4.18,41.4,3.71,66.81
									c-0.14,7.4-3.52,12.75-9.52,15.07c-6.47,2.51-15.34,0.86-20.68-3.6c-0.28,0.25-0.56,0.48-0.84,0.71
									c-0.97,0.81-1.82,1.51-2.17,2.47c-6.29,17.16-17.8,29.49-34.21,36.64C492.35,733.77,479.9,735.77,467.4,735.77z M424,687.89
									c-7.54,0-15.1,0.52-22.16,3.15c-4.3,1.6-7.68,4.83-8.82,8.44c-0.98,3.11-0.34,6.34,1.91,9.59
									c4.1,5.93,10.74,8.7,17.16,11.38l1.17,0.49c24.55,10.31,60.8,16.97,88.92,4.72c15.5-6.75,26.37-18.4,32.32-34.63
									c0.68-1.85,2.04-2.97,3.23-3.96c0.63-0.52,1.22-1.01,1.66-1.56l1.26-1.58l1.39,1.47c4.13,4.38,12.46,6.21,18.19,3.99
									c4.65-1.8,7.16-5.9,7.27-11.86c0.46-25.21-0.64-45.02-3.68-66.24c-0.14-1.01-0.28-2.03-0.41-3.05
									c-1.23-9.43-2.29-17.57-11.45-19.17c-3.01-0.52-5.45-0.04-7.46,1.49c-3.37,2.55-5.6,8.15-6.44,16.21l-0.17,1.64l-1.65-0.07
									c-11.2-0.44-22.45-3.4-33.32-6.26c-14.42-3.8-29.32-7.73-43.96-5.62c-18.27,2.63-37.67,12-56.44,21.05
									c-6.88,3.32-13.38,6.46-19.74,9.22c-1.06,0.46-2.47,1.01-4.11,1.63c-7.77,2.99-22.23,8.56-25.11,16.59
									c-0.94,2.61-0.59,5.3,1.05,8.22c4.97,8.8,19.97,7.83,28.93,7.25l1.87-0.12c9.44-0.56,18.96-2.3,28.17-3.98
									c4.35-0.79,8.7-1.59,13.07-2.27c7.65-1.19,17.16-2.68,26.17-1.38l0,0c6.71,0.97,12.22,3.32,16.84,7.18
									c3.4,2.84,5.38,6.46,5.59,10.2c0.2,3.61-1.21,7.09-4.07,10.08c-7.85,8.19-20.12,8.07-29.96,7.99l-2.53-0.02
									c-2.38,0-4.77-0.06-7.17-0.12C429.02,687.94,426.51,687.89,424,687.89z"/>
							</g>
							<g>
								
									<rect x="535.12" y="606.54" transform="matrix(0.9995 -0.0304 0.0304 0.9995 -18.5034 16.6067)" width="3.52" height="20.53"/>
							</g>
							<g>
								<rect x="538.4" y="671.17" transform="matrix(0.999 -0.0448 0.0448 0.999 -29.8418 24.8799)" width="3.51" height="14.1"/>
							</g>
						</g>
					</g>
				</g>
				<g>
					<g>
						<path d="M807.28,1077c-68.55,30.39-136.85,62.04-200.13,102.52c-54.63,34.95-116.51,81.04-140.06,143.78
							c-21.4,57.01-16.87,120.95-8.29,180.12c8.44,58.16,21.79,116.46,42.19,171.86c22.66-8.37,74.65-34.76,78.18-37.59
							c-12.58-36.72-25.59-78.86-32.51-116.93c-9.01-49.6-18.32-108.39-4.11-157.78c15.19-52.83,73.98-89.66,117.92-117.28
							c55.33-34.79,114.35-62.29,173.99-88.73C883.69,1135.15,857.1,1054.92,807.28,1077z"/>
					</g>
					<g>
						<g>
							<path style="fill:#FF6DCE;" d="M518.26,1635.77c0,0,8.41-60.06-9.81-84.31c-10.78-14.34-34.85-5.81-35.04,11.94l-0.6,55.72
								c7.8,5.08,17.94,10.61,31.02,14.01C508.98,1634.45,513.82,1635.28,518.26,1635.77z"/>
							<path d="M519.76,1637.7l-1.69-0.19c-4.94-0.54-9.88-1.45-14.68-2.7c-10.95-2.84-20.97-7.36-31.54-14.23l-0.81-0.52
								l0.61-56.68c0.09-9.03,6.02-16.79,15.1-19.77c8.78-2.88,17.85-0.21,23.11,6.79c18.45,24.55,10.49,83.13,10.15,85.61
								L519.76,1637.7z M474.58,1618.16c6.47,4.15,16.37,9.8,29.69,13.25c4.09,1.06,8.27,1.87,12.47,2.4
								c1.17-9.91,6.2-60.17-9.69-81.31c-5.28-7.01-13.38-7.47-19.21-5.56c-7.62,2.5-12.6,8.96-12.68,16.47L474.58,1618.16z"/>
						</g>
						<g>
							<path style="fill:#712CE5;" d="M568.25,1751.24c-5.84,3.93-12.61,6.85-18.62,9.05c-26.64,9.75-258.33,25.34-269.66,7.64
								c-29.47-46.02,87.53-76.37,99.18-79.96c0,0,62.58-19.28,94.18-70.85c0,0,43.18,39.14,100.02,0.13
								c2.27-1.57,18.86,77.41,8.5,116.89C579.96,1741.35,574.68,1746.91,568.25,1751.24z"/>
							<path d="M347.7,1777.76c-33.82,0-64.79-1.97-69.22-8.88c-5.29-8.26-6.41-16.6-3.32-24.81
								c7.81-20.74,41.56-39.87,100.31-56.86c1.39-0.4,2.45-0.71,3.15-0.92c0.63-0.19,62.26-19.6,93.2-70.09l1.11-1.81l1.57,1.42
								c0.1,0.09,10.8,9.63,28.13,14.34c23.19,6.31,46.64,1.48,69.71-14.36l1.01-0.69l1.17,0.72c3.93,2.75,19.21,79.91,9.01,118.76
								c-1.79,6.81-6.6,12.9-14.32,18.1c-5,3.37-11.21,6.39-19,9.25c-13.25,4.85-76.54,11.23-141.09,14.22
								C391.47,1776.98,369.02,1777.76,347.7,1777.76z M379.65,1689.59l0.02,0.06c-0.7,0.21-1.79,0.53-3.2,0.94
								c-71.8,20.75-92.92,41.21-98,54.72c-2.71,7.21-1.74,14.3,2.99,21.67c3.32,5.19,38.72,9.78,127.53,5.66
								c63.17-2.93,127.3-9.34,140.05-14.01c7.52-2.75,13.49-5.65,18.25-8.86l0,0c6.98-4.71,11.31-10.11,12.88-16.08
								c9.12-34.74-3.39-103.07-7.32-113.97c-50.47,33.56-90.65,6.53-99.06,0.02C443.34,1667.69,385.62,1687.76,379.65,1689.59z"/>
						</g>
						<g>
							<path style="fill:#FF6DCE;" d="M551.24,1685.15c-0.76-24.62,11.2-43.08,24.74-60.59c5.36,21.49,14.44,84.08,3.18,114.26
								C578.43,1738.25,552.27,1718.71,551.24,1685.15z"/>
							<path d="M579.97,1741.69l-1.89-1.48c-2.86-2.2-27.59-22.11-28.6-55l0,0c-0.8-25.96,12.54-45.47,25.11-61.72l2.22-2.87
								l0.88,3.52c4.94,19.78,14.85,83.85,3.12,115.31L579.97,1741.69z M575.12,1628.58c-11.91,15.72-22.84,33.19-22.12,56.52l0,0
								c0.84,27.43,19.06,45.39,25.33,50.77C587.9,1706.21,580.03,1650.71,575.12,1628.58z"/>
						</g>
						<g>
							<path style="fill:#FF6DCE;" d="M484.31,1676.37c-12.53,9.6-26.84,16.25-41.22,21.63c-18.93,7.09-39.05,11.9-58.83,14.83
								c-19.61,2.9-39.94,3.66-59.47-0.33c-1.65-0.34-3.28-0.75-4.92-1.15c14.78-7.69,34.05-15.58,59.28-23.38
								c0,0,62.58-19.28,94.18-70.85c0,0,16.36,14.8,42.18,17.11C509.15,1651.58,498.22,1665.72,484.31,1676.37z"/>
							<path d="M353.55,1717.02c-10.34,0-19.98-0.93-29.1-2.79c-1.37-0.28-2.73-0.61-4.09-0.95l-5.45-1.33l4.16-2.16
								c15.96-8.31,36-16.21,59.57-23.5c0.62-0.19,62.32-19.7,93.2-70.09l1.1-1.8l1.57,1.42c0.16,0.14,16.28,14.44,41.16,16.66
								l2.28,0.2l-0.79,2.15c-6.29,17.15-16.98,31.58-31.78,42.92l0,0c-10.94,8.38-24.18,15.34-41.67,21.88
								c-18.04,6.76-37.95,11.78-59.19,14.92C373.52,1716.2,363.23,1717.02,353.55,1717.02z M324.96,1710.74
								c0.06,0.01,0.12,0.02,0.19,0.04c17.25,3.52,36.51,3.62,58.86,0.31c20.99-3.11,40.67-8.06,58.47-14.74
								c17.16-6.42,30.11-13.22,40.77-21.38l1.07,1.4l-1.07-1.4c13.65-10.46,23.67-23.64,29.81-39.23
								c-20.54-2.45-34.69-12.34-39.3-15.98c-31.92,50.26-93.47,69.69-94.09,69.89C358.36,1696.24,339.99,1703.33,324.96,1710.74z"
								/>
						</g>
						<g>
							<path d="M542.14,1763.28c-0.13,0.86-0.26,1.73-0.45,2.58c-2.19,9.84-8.04,16.91-13.05,15.77c-4.19-0.95-6.49-7.33-5.81-15.1
								L542.14,1763.28z"/>
							<path d="M529.7,1783.51c-0.5,0-0.98-0.05-1.46-0.16c-5.07-1.15-7.96-7.97-7.17-16.96l0.12-1.35l23.05-3.89l-0.36,2.4
								l-1.74-0.26l1.74,0.27c-0.14,0.9-0.27,1.81-0.48,2.7c-1.59,7.17-5.15,13.26-9.28,15.87
								C532.66,1783.04,531.16,1783.51,529.7,1783.51z M524.49,1768.04c-0.25,6.22,1.61,11.22,4.53,11.88
								c0.99,0.22,2.06-0.04,3.22-0.77c3.32-2.1,6.35-7.47,7.73-13.67c0-0.02,0.01-0.04,0.01-0.06L524.49,1768.04z"/>
						</g>
						<g>
							<path d="M550.78,1762.23c0.61,7.45,3.73,13.04,7.9,13.4c5.14,0.45,9.84-7.34,10.57-17.37c0.15-2.07,0.11-4.03-0.12-5.93
								C569.13,1752.33,563.84,1756.58,550.78,1762.23z"/>
							<path d="M559.1,1777.41c-0.19,0-0.38-0.01-0.57-0.02c-5.06-0.44-8.79-6.33-9.5-15l-0.1-1.26l1.16-0.5
								c12.62-5.46,17.9-9.62,17.95-9.65l2.47-1.97l0.37,3.13c0.24,2.03,0.28,4.07,0.12,6.26c-0.53,7.33-3.15,13.83-6.83,16.97
								C562.59,1776.7,560.85,1777.41,559.1,1777.41z M552.66,1763.32c0.75,5.94,3.26,10.3,6.18,10.55
								c0.98,0.09,2.03-0.31,3.05-1.19c2.95-2.51,5.15-8.22,5.61-14.55c0.07-0.89,0.09-1.74,0.08-2.59
								C564.91,1757.26,560.11,1760.04,552.66,1763.32z"/>
						</g>
						<g>
							<path d="M381.11,1777.62c0.06,0.87,0.12,1.74,0.12,2.68c0.01,10.04-4.18,18.13-9.34,18.02c-5.1-0.1-9.29-8.35-9.3-18.39
								c0-0.47,0-0.94,0.06-1.34L381.11,1777.62z"/>
							<path d="M371.98,1800.08c-0.04,0-0.08,0-0.13,0c-6.17-0.12-11.01-8.97-11.02-20.14c0-0.57,0.01-1.13,0.08-1.61l0.22-1.41
								l21.6-1.15l0.12,1.73c0.07,0.91,0.13,1.82,0.13,2.8c0,7.31-2.14,13.96-5.61,17.36
								C375.76,1799.25,373.9,1800.08,371.98,1800.08z M364.35,1780.27c0.09,9.54,4.03,16.23,7.57,16.3c1.15,0.06,2.02-0.46,3-1.41
								c2.77-2.72,4.56-8.55,4.55-14.85c0-0.28-0.01-0.56-0.02-0.83L364.35,1780.27z"/>
						</g>
						<g>
							<path d="M349.17,1778.91c0.06,0.4,0.06,0.87,0.06,1.27c0.03,10.04-4.14,18.13-9.3,18.05c-5.16-0.09-9.31-8.33-9.34-18.37
								c0-0.2,0-0.4,0-0.6L349.17,1778.91z"/>
							<path d="M340.02,1799.99c-0.04,0-0.08,0-0.12,0c-6.17-0.11-11.03-8.94-11.06-20.12v-2.33l21.83-0.4l0.23,1.52
								c0.07,0.49,0.08,1.05,0.08,1.54c0.02,7.31-2.12,13.97-5.57,17.37C343.8,1799.15,341.94,1799.99,340.02,1799.99z
								 M332.37,1780.98c0.32,9.11,4.15,15.43,7.59,15.49c0.92,0.06,2.01-0.45,2.99-1.42c2.69-2.65,4.44-8.24,4.52-14.35
								L332.37,1780.98z"/>
						</g>
						<g>
							<path d="M316.63,1777.87c1.17,9.97-2.05,18.44-7.19,18.9s-10.21-7.29-11.38-17.26c-0.15-1.33-0.25-2.66-0.22-3.94
								L316.63,1777.87z"/>
							<path d="M309.01,1798.54c-5.93,0-11.45-8.09-12.71-18.83c-0.19-1.59-0.26-2.96-0.23-4.19l0.05-1.93l22.09,2.71l0.16,1.37
								c0.85,7.26-0.51,14.1-3.56,17.85c-1.46,1.79-3.27,2.83-5.22,3C309.4,1798.53,309.21,1798.54,309.01,1798.54z M299.63,1777.55
								c0.04,0.54,0.09,1.12,0.16,1.74c1.14,9.66,5.97,16.02,9.49,15.71c1.01-0.09,1.95-0.67,2.81-1.72
								c2.26-2.77,3.36-8.11,2.93-13.86L299.63,1777.55z"/>
						</g>
						<g>
							
								<rect x="451.01" y="1650.45" transform="matrix(0.5785 -0.8157 0.8157 0.5785 -1179.5636 1077.4822)" width="3.52" height="59.24"/>
						</g>
						<g>
							
								<rect x="416.43" y="1670.15" transform="matrix(0.598 -0.8015 0.8015 0.598 -1193.3063 1018.0104)" width="3.52" height="56.89"/>
						</g>
						<g>
							
								<rect x="382.14" y="1683.05" transform="matrix(0.6333 -0.7739 0.7739 0.6333 -1183.7742 924.7053)" width="3.51" height="56.93"/>
						</g>
					</g>
				</g>
			</g>
			<g>
				<g>
					<path style="fill:#FFBC00;" d="M1563.86,970.84c-9.07,11.62-17.2,21.65-19.95,24.9c-4.51,5.26-9.03,10.52-13.7,15.68
						c-203.43,227.58-637.94,468.83-902.85,194.72c-109.44-113.24-126.8-276.91-10.24-391.58
						c110.6-108.64,275.19-145.79,409.24-216.71c140.45-74.08,216.05-218.77,350.84-295.68
						c188.84-107.16,359.38,114.38,350.22,290.65c-7.89,108.15-47.53,207.21-109.29,303.95c-7.02,10.75-14.27,21.31-21.69,31.84
						C1590.26,937.16,1576.18,955.42,1563.86,970.84L1563.86,970.84z"/>
					<path d="M918.32,1330.06c-115.24,0-213.51-41.25-292.23-122.71c-54.8-56.7-86.89-126.44-90.37-196.39
						c-3.68-74.11,24.04-142.46,80.16-197.67c74.24-72.93,173.63-114.12,269.74-153.95c47.01-19.48,95.62-39.63,139.91-63.06
						c140.47-74.25,214.11-217.06,350.79-295.66c165.92-96.54,327.63,70.12,350.81,239.35c10.63,129.29-35.78,241.19-107.5,357.68
						c-6.41,9.82-13.31,19.95-21.76,31.96c-6.22,8.62-20.24,26.8-32.63,42.31c-9.26,11.85-17.27,21.73-19.99,24.95l-0.27,0.32
						c-4.36,5.08-8.87,10.33-13.48,15.41c-73.02,81.69-168.55,157.89-268.96,214.53c-115.69,65.27-231.44,100.83-334.73,102.84
						C924.64,1330.03,921.47,1330.06,918.32,1330.06z M1477.43,275.69c-197.97,17.76-281.62,242.11-450.27,323.71
						c-44.42,23.51-93.11,43.68-140.19,63.2c-95.8,39.71-194.87,80.76-268.62,153.21c-55.39,54.49-82.75,121.91-79.11,194.98
						c3.43,69.1,35.18,138.04,89.38,194.12c80.17,82.95,180.79,123.82,299.13,121.54c161.33-3.14,409.77-102.13,601.14-316.21
						c4.58-5.05,9.07-10.28,13.42-15.35l0.26-0.31c2.63-3.1,10.78-13.15,19.9-24.84l0.01-0.01c12.36-15.47,26.34-33.6,32.52-42.16
						c8.41-11.95,15.29-22.05,21.64-31.78c71.31-115.82,117.46-226.88,107.01-355.34C1702.82,408.27,1608.5,279.15,1477.43,275.69z"
						/>
				</g>
				<g>
					<g>
						<path style="fill:#FFD96E;" d="M1553.7,365.06c-50.49-40.43-131.47-24.85-182.09,13.97c-24.96,18.51-43.59,44.69-64.27,67.62
							c-14.79,16.41-37.11-3.56-22.3-19.98c63.24-90.5,193.35-161.35,291.78-86.99C1591.95,351.63,1568.8,376.98,1553.7,365.06z"/>
					</g>
					<g>
						<path style="fill:#FFD96E;" d="M1250.35,489.89c-14.35-12.86,8.73-38.27,23.1-25.39
							C1287.8,477.36,1264.72,502.77,1250.35,489.89z"/>
					</g>
				</g>
				<g>
					<path style="fill:#FF4568;" d="M1563.86,970.84c-9.07,11.62-17.2,21.65-19.95,24.9c-4.52,5.26-9.03,10.52-13.7,15.68
						c-4.49,5.01-9.06,10.01-13.8,14.99c-208.59,222.9-629.99,447.82-889.05,179.73c-109.44-113.24-126.8-276.91-10.24-391.58
						c94.02-92.36,227.14-133.05,347.32-186.87c21.14-9.38,41.91-19.23,61.92-29.84c3.35-1.74,6.62-3.57,9.79-5.33l-38.14,215.33
						L1563.86,970.84z"/>
					<path d="M918.35,1330.05c-115.27,0-213.57-41.26-292.26-122.7c-54.8-56.7-86.89-126.44-90.37-196.39
						c-3.68-74.11,24.04-142.46,80.16-197.67c74.13-72.82,173.4-114.01,269.41-153.83c25.92-10.75,52.71-21.87,78.43-33.38
						c23.28-10.33,43.5-20.07,61.81-29.79c2.85-1.48,5.62-3.02,8.33-4.52l4.66-2.58l-38.51,217.4l566.84,163.28l-1.6,2.05
						c-9.26,11.85-17.27,21.73-20,24.96c-4.58,5.33-9.12,10.62-13.75,15.72c-4.99,5.57-9.51,10.49-13.82,15.02
						c-74.59,79.71-169.82,153.12-268.16,206.71c-113.4,61.8-226.57,94.9-327.28,95.71
						C920.95,1330.04,919.64,1330.05,918.35,1330.05z M1033.77,595.83c-2.17,1.2-4.37,2.4-6.61,3.57
						c-18.38,9.75-38.66,19.53-62.01,29.89c-25.75,11.53-52.57,22.66-78.51,33.42c-95.69,39.7-194.65,80.75-268.29,153.09
						c-55.39,54.49-82.75,121.91-79.11,194.99c3.43,69.1,35.18,138.04,89.38,194.12c78.87,81.62,177.66,122.54,293.59,121.61
						c216.42-1.74,453.73-152.58,592.91-301.32c4.3-4.51,8.8-9.4,13.77-14.96c4.6-5.08,9.13-10.34,13.5-15.43
						c2.64-3.12,10.02-12.21,18.48-23.01L996,809.1l0.28-1.56L1033.77,595.83z"/>
				</g>
				<g>
					<path style="fill:#FFFFFF;" d="M1563.86,970.84c-9.07,11.62-17.2,21.65-19.95,24.9c-4.52,5.26-9.03,10.52-13.7,15.68
						c-4.49,5.01-9.06,10.01-13.8,14.99L921.74,853.11l42.7-225.43c21.14-9.38,41.91-19.23,61.92-29.84
						c3.35-1.74,6.62-3.57,9.79-5.33l-38.14,215.33L1563.86,970.84z"/>
					<path d="M1516.94,1028.39l-1.03-0.3L919.71,854.36l0.3-1.57l42.87-226.34l0.84-0.37c23.28-10.33,43.49-20.07,61.81-29.79
						c2.85-1.48,5.62-3.02,8.33-4.52l4.66-2.58l-38.51,217.4l566.84,163.28l-1.6,2.05c-9.26,11.85-17.27,21.73-20,24.96
						c-4.58,5.33-9.12,10.62-13.75,15.72c-4.99,5.57-9.51,10.49-13.82,15.02L1516.94,1028.39z M923.76,851.87l592.11,172.54
						c4.06-4.29,8.33-8.93,13.02-14.17c4.6-5.08,9.13-10.34,13.5-15.43c2.64-3.12,10.02-12.21,18.48-23.01L996,809.09l0.28-1.56
						l37.5-211.7c-2.16,1.2-4.37,2.4-6.61,3.57c-18.15,9.63-38.18,19.29-61.17,29.52L923.76,851.87z"/>
				</g>
				<g>
					<polygon style="fill:#FFFFFF;" points="1230.5,1110.46 1156.58,1129.49 1103.14,1074.99 1123.61,1001.46 1197.53,982.43 
						1250.97,1036.93 					"/>
					<path d="M1156.04,1131.45l-54.86-55.95l21.02-75.49l75.89-19.54l54.86,55.95l-21.02,75.49L1156.04,1131.45z M1105.1,1074.49
						l52.02,53.05l71.95-18.53l19.93-71.57l-52.02-53.05l-71.95,18.53L1105.1,1074.49z"/>
				</g>
			</g>
			<g>
				<g>
					<path d="M894.48,1087.69c-29.42-138.07-79.75-260.42-156.61-379.16C661.99,591.32,570.12,500.31,458.3,417.73
						c-46.28-34.18-98.61,38.06-52.42,72.17c101.51,74.96,184.3,156.55,254.4,262.04c72.3,108.79,119.13,223.44,146.27,350.81
						C818.46,1158.68,906.49,1144.05,894.48,1087.69z"/>
				</g>
				<g>
					<g>
						<path style="fill:#FF6DCE;" d="M417.08,417.04c0,0,45.32,45.27,77.36,45.31c18.95,0.02,27.06-25.71,12.2-37.15l-46.62-35.92
							c-9.24,3.36-20.36,8.39-31.53,17.27C424.1,410.04,420.32,413.6,417.08,417.04z"/>
						<path d="M494.47,464.1c-0.01,0-0.02,0-0.03,0c-32.39-0.04-76.73-43.95-78.6-45.82l-1.21-1.21l1.17-1.24
							c3.59-3.81,7.49-7.4,11.59-10.67c9.35-7.43,19.53-13,32.02-17.54l0.91-0.33l47.39,36.51c7.52,5.79,10.29,15.68,7.05,25.19
							C511.63,458.17,503.67,464.1,494.47,464.1z M419.56,416.99c7.44,7.13,46.83,43.56,74.89,43.59c0.01,0,0.01,0,0.02,0
							c9.31,0,14.87-6.57,16.97-12.73c2.75-8.06,0.45-16.41-5.86-21.27l-45.85-35.32c-7.62,2.82-18.71,7.58-30.13,16.66
							C426.07,410.72,422.7,413.76,419.56,416.99z"/>
					</g>
					<g>
						<path style="fill:#712CE5;" d="M287.91,385.82c0.39-7.42,2.23-14.99,4.2-21.46c8.7-28.67,142.81-234.03,164.94-232.34
							c57.55,4.39,8.8,122.38,4.42,134.49c0,0-23.51,65.04-0.09,124.48c0,0-60.46,11.55-63.67,84.29
							c-0.12,2.92-77.29-33.29-104.01-67.12C288.81,401.98,287.48,393.99,287.91,385.82z"/>
						<path d="M397.72,477.13c-7.52,0-79.69-35.32-105.42-67.89c-4.59-5.82-6.66-13.73-6.15-23.52l0,0
							c0.33-6.35,1.73-13.51,4.27-21.88c4.33-14.25,39.17-71.69,77.66-128.04c27.25-39.88,74.9-106.69,89.09-105.55
							c10.3,0.78,18.02,5.13,22.96,12.92c12.52,19.73,7.2,60.33-15.8,120.67c-0.54,1.43-0.96,2.53-1.22,3.25
							c-0.95,2.64-22.94,65.3-0.11,123.24l0.78,1.97l-2.08,0.4c-2.41,0.46-59.14,12.2-62.25,82.64l-0.06,1.22l-1.29,0.52
							C398.01,477.12,397.88,477.13,397.72,477.13z M289.66,385.91c-0.47,8.91,1.35,16.02,5.4,21.15
							c23.75,30.07,89.56,62.92,100.97,66.33c3.72-64.16,52.37-80.78,62.98-83.64c-22.11-58.62-0.16-121.18,0.8-123.84
							c0.27-0.74,0.69-1.86,1.24-3.32c28.13-73.79,24.29-104.64,16.12-117.53c-4.38-6.9-11-10.59-20.26-11.3
							c-8.7-0.57-42.3,40.19-85.91,104.02c-37.68,55.15-73.04,113.35-77.2,127.08C291.33,372.96,289.98,379.85,289.66,385.91
							L289.66,385.91z"/>
					</g>
					<g>
						<path style="fill:#FF6DCE;" d="M354.47,413.47c21.25,15.01,29.23,36.83,35.39,59.38c-21.54-9.13-80.11-41.26-98.41-69.94
							C292.4,402.66,325.5,393.01,354.47,413.47z"/>
						<path d="M392.51,475.88l-3.34-1.41c-19.82-8.4-80.14-40.75-99.21-70.61l-1.29-2.02l2.31-0.63c3.66-1.02,36.12-9.23,64.5,10.82
							c22.38,15.8,30.35,39.44,36.07,60.35L392.51,475.88z M294.3,404.02c18.94,27.06,71.16,55.87,92.87,65.73
							c-5.7-20.13-13.49-40.55-33.71-54.84l0,0C329.59,398.05,302.68,402.15,294.3,404.02z"/>
					</g>
					<g>
						<path style="fill:#FF6DCE;" d="M404.41,362.59c-0.13-16.67,3.35-32.97,7.95-48.52c6.05-20.47,14.78-40.5,24.88-59.05
							c10.01-18.39,22.3-36.02,38.07-49.96c1.33-1.18,2.72-2.29,4.1-3.42c-2.9,17.35-8.5,38.63-17.95,64.86
							c0,0-23.51,65.04-0.09,124.48c0,0-22.88,4.4-41.24,24.7C409.54,399.3,404.56,381.1,404.41,362.59z"/>
						<path d="M419.89,418.56l-1.24-1.92c-10.46-16.19-15.84-34.37-16-54.04c-0.12-14.55,2.43-30.13,8.02-49.03
							c5.76-19.5,14.18-39.48,25.02-59.4c11.62-21.34,24.2-37.84,38.45-50.44c1.1-0.97,2.23-1.9,3.36-2.82l4.41-3.61l-0.77,4.62
							c-3.14,18.74-9.2,40.67-18.03,65.17c-0.23,0.65-23.01,65.13-0.11,123.24l0.78,1.97l-2.08,0.4
							c-0.22,0.05-22.55,4.56-40.27,24.16L419.89,418.56z M476.84,206.06c-0.12,0.11-0.24,0.21-0.36,0.32
							c-13.94,12.33-26.27,28.51-37.69,49.49c-10.73,19.69-19.05,39.45-24.74,58.71c-5.48,18.56-7.99,33.82-7.87,48.01l0,0
							c0.14,18.21,4.93,35.1,14.23,50.24c15.22-15.92,32.71-21.55,38.61-23.08c-22.17-58.87,0.57-123.18,0.81-123.83
							C467.83,243.63,473.55,223.53,476.84,206.06z"/>
					</g>
					<g>
						<path d="M294.35,356.14c-0.65-0.66-1.29-1.32-1.89-2.02c-6.9-8.1-9.16-17.53-5.01-21.04c3.46-2.93,10.3-0.82,16.43,4.69
							L294.35,356.14z"/>
						<path d="M294.8,359.1l-1.7-1.73c-0.68-0.69-1.35-1.38-1.98-2.11c-5.03-5.9-7.89-12.73-7.47-17.85c0.2-2.4,1.11-4.37,2.66-5.67
							c4.16-3.51,11.68-1.61,18.74,4.73l1.01,0.91L294.8,359.1z M291.44,333.52c-1.16,0-2.14,0.29-2.86,0.9
							c-0.83,0.7-1.31,1.8-1.43,3.27c-0.34,4.16,2.26,10.16,6.64,15.28c0.05,0.05,0.09,0.11,0.13,0.16l7.74-14.93
							C298.03,335.21,294.23,333.52,291.44,333.52z"/>
					</g>
					<g>
						<path d="M289.74,364.1c-6.67-4.22-13.37-5.14-16.33-1.85c-3.64,4.05-0.06,12.97,7.93,19.95c1.65,1.44,3.33,2.65,5.07,3.67
							C286.42,385.87,286.2,378.7,289.74,364.1z"/>
						<path d="M288.26,388.97l-2.72-1.59c-1.86-1.08-3.6-2.34-5.34-3.87c-5.83-5.09-9.64-11.41-9.94-16.49
							c-0.14-2.39,0.5-4.46,1.86-5.97c3.5-3.89,10.96-3.27,18.57,1.54l1.07,0.67l-0.3,1.23c-3.42,14.13-3.28,21.24-3.27,21.31
							L288.26,388.97z M278.64,362.03c-1.7,0-3.07,0.45-3.92,1.4c-0.73,0.81-1.05,1.95-0.96,3.4c0.25,4.11,3.68,9.62,8.75,14.05
							c0.76,0.66,1.51,1.27,2.27,1.82c0.24-3.32,0.95-9.2,2.95-17.76C284.42,363.03,281.17,362.03,278.64,362.03z"/>
					</g>
					<g>
						<path d="M384.6,211.18c-0.77-0.5-1.55-1.01-2.34-1.6c-8.47-6.38-12.64-15.05-9.27-19.33c3.32-4.24,12.94-2.53,21.42,3.85
							c0.39,0.3,0.79,0.59,1.09,0.9L384.6,211.18z"/>
						<path d="M385.09,213.6l-1.45-0.94c-0.81-0.52-1.62-1.05-2.44-1.67c-6.15-4.63-10.39-10.65-11.05-15.7
							c-0.32-2.4,0.19-4.51,1.45-6.12c3.99-5.09,14.47-3.54,23.86,3.53c0.49,0.37,0.94,0.72,1.29,1.08l1,1.02L385.09,213.6z
							 M378.93,189.69c-2.1,0-3.72,0.57-4.56,1.65c-0.67,0.86-0.92,2.04-0.73,3.5c0.53,4.09,4.33,9.33,9.68,13.35
							c0.27,0.2,0.53,0.39,0.79,0.58l9.03-13.41C387.9,191.47,382.65,189.69,378.93,189.69z"/>
					</g>
					<g>
						<path d="M403.8,183.41c-0.38-0.2-0.77-0.5-1.11-0.76c-8.49-6.36-12.67-15.02-9.31-19.31c3.35-4.3,12.94-2.56,21.43,3.8
							c0.17,0.13,0.34,0.25,0.51,0.38L403.8,183.41z"/>
						<path d="M404.32,185.69l-1.35-0.72c-0.44-0.24-0.91-0.58-1.31-0.88c-6.19-4.63-10.43-10.64-11.11-15.69
							c-0.32-2.39,0.18-4.51,1.43-6.12c3.99-5.1,14.47-3.57,23.87,3.47l1.39,1.04l-0.5,1.78L404.32,185.69z M399.35,162.77
							c-2.12,0-3.74,0.57-4.59,1.66c-0.67,0.86-0.92,2.04-0.72,3.5c0.53,4,4.19,9.09,9.35,13.06l9.48-13.07
							C407.87,164.39,402.91,162.77,399.35,162.77z"/>
					</g>
					<g>
						<path d="M425.36,156.63c-9.15-5.35-14.26-13.45-11.37-18.08c2.89-4.63,12.64-3.98,21.8,1.36c1.22,0.71,2.41,1.48,3.47,2.32
							L425.36,156.63z"/>
						<path d="M425.67,158.84l-1.19-0.7c-6.64-3.88-11.53-9.36-12.75-14.28c-0.58-2.34-0.31-4.5,0.78-6.24
							c3.41-5.48,14.04-5.14,24.17,0.78c1.44,0.84,2.65,1.65,3.67,2.46l1.52,1.2L425.67,158.84z M421.42,137.24
							c-2.89,0-5.04,0.8-5.94,2.24c-0.58,0.93-0.69,2.12-0.34,3.54c0.92,3.71,4.76,8.08,9.94,11.38l11.51-11.92
							c-0.51-0.34-1.07-0.68-1.68-1.04C429.93,138.52,425.08,137.24,421.42,137.24z"/>
					</g>
					<g>
						
							<rect x="390.07" y="331.84" transform="matrix(0.9531 -0.3027 0.3027 0.9531 -81.2127 143.192)" width="62.57" height="3.52"/>
					</g>
					<g>
						
							<rect x="397.65" y="290.91" transform="matrix(0.9597 -0.2811 0.2811 0.9597 -65.0229 132.0237)" width="60.09" height="3.52"/>
					</g>
					<g>
						
							<rect x="408.5" y="253.76" transform="matrix(0.9717 -0.2363 0.2363 0.9717 -47.9585 110.8669)" width="60.13" height="3.52"/>
					</g>
				</g>
			</g>
			<g>
				<g>
					<g>
						<g>
							<path style="fill:#FFFFFF;" d="M1472.41,585.97c125.45-126.27,253.18-7.3,127.53,124.88
								C1470.53,839.13,1348.86,713.98,1472.41,585.97z"/>
							<path d="M1489.44,766.29c-96.22-4.9-84.56-115.68-18.29-181.55l0,0c71.38-78.15,199.35-75.33,179.65,38.91
								C1637.3,692.86,1561.77,765.82,1489.44,766.29z M1582.92,534.03c-34.55,0-75.94,19.15-109.25,53.17l0,0
								c-126.78,138.48,6.88,243.1,125.02,122.41C1655.11,660.77,1680.63,536.36,1582.92,534.03z"/>
						</g>
						<g>
							<path d="M1432.77,737.18c25.05-10.46,77.27-40.04,106.5-65.54l-14.64-35.27l42.13,6.63c24.85-29.74,46.09-74.6,56.06-99.9
								C1538.35,484.9,1372.77,653.99,1432.77,737.18z"/>
							<path d="M1432.12,739.35c-63.03-85.65,106.01-258.14,192.86-196.95c-11.67,29.79-33.32,73.74-57.51,102.48l-40.01-6.29
								l13.92,33.54C1510.58,699.15,1458.12,728.61,1432.12,739.35z M1582.93,534.03c-82.53-6.96-197.82,131.72-149.5,200.96
								c24.7-10.57,74.4-38.6,103.72-63.85l-15.35-37l44.24,6.96c22.57-27.33,43.33-69.05,54.6-97.3
								C1609.87,537.19,1596.96,534.03,1582.93,534.03z"/>
						</g>
					</g>
					<g>
						<g>
							<path style="fill:#FFFFFF;" d="M1229.37,347.58c125.45-126.27,253.18-7.3,127.53,124.88
								C1227.49,600.74,1105.83,475.59,1229.37,347.58z"/>
							<path d="M1246.41,527.9c-96.21-4.91-84.56-115.67-18.29-181.55l0,0c71.38-78.15,199.35-75.33,179.65,38.91
								C1394.26,454.48,1318.73,527.43,1246.41,527.9z M1229.37,347.58l1.26,1.23c-126.78,138.48,6.88,243.1,125.02,122.41
								c118.28-120.75,10.82-252.15-125.02-122.41L1229.37,347.58z"/>
						</g>
						<g>
							<path d="M1189.73,498.79c25.05-10.46,79.44-41.62,108.67-67.12l-14.01-31.34l38.17,9.39
								c24.85-29.74,47.25-79.72,57.21-105.02C1295.32,246.51,1129.74,415.6,1189.73,498.79z"/>
							<path d="M1189.09,500.96c-63.04-85.65,106.01-258.14,192.86-196.95c-5.2,13.12-29.17,72.56-58.73,107.68l-35.74-8.79
								l13.07,29.24C1270.35,458.62,1215.33,490.11,1189.09,500.96z M1339.89,295.64c-82.53-6.96-197.82,131.72-149.49,200.96
								c24.97-10.71,77.07-40.65,105.87-65.4l-14.94-33.43l40.59,9.99c27.08-32.88,50.09-88.27,55.69-102.34
								C1366.84,298.8,1353.92,295.64,1339.89,295.64z"/>
						</g>
					</g>
					<g>
						<g>
							<path style="fill:#FFFFFF;" d="M1347.79,467.23c125.45-126.27,253.18-7.3,127.53,124.88
								C1345.91,720.39,1224.24,595.23,1347.79,467.23z"/>
							<path d="M1364.87,647.45c-96.07-4.55-84.73-115.63-18.34-181.44l0,0c52.8-52.27,121.34-72.5,162.14-35.52
								C1578.26,497.4,1455.58,654.79,1364.87,647.45z M1458.3,415.29c-34.55,0-75.94,19.15-109.25,53.17l0,0
								c-121.55,125.74-3.28,249.31,125.02,122.42C1540.73,523.89,1548.45,419.07,1458.3,415.29z"/>
						</g>
						<g>
							<path d="M1308.15,618.44c25.05-10.46,80.24-40.27,109.48-65.76l-17.42-33.66l42.88,8.38
								c24.85-29.74,45.14-77.75,55.11-103.05C1413.73,366.16,1248.15,535.25,1308.15,618.44z"/>
							<path d="M1307.5,620.61c-63.03-85.65,106-258.13,192.86-196.95c-18.51,47.2-37.55,83.18-56.59,105.67l-40.33-7.89
								l16.39,31.65C1390.44,578.93,1335.62,608.95,1307.5,620.61z M1458.31,415.28c-82.53-6.95-197.82,131.72-149.5,200.96
								c26.7-11.37,78.55-39.93,106.62-64l-18.46-35.66l45.43,8.88c17.7-21.48,35.74-55.25,53.63-100.41
								C1485.25,418.45,1472.34,415.28,1458.31,415.28z"/>
						</g>
					</g>
				</g>
				<g>
					<g>
						<g>
							<path d="M1107.81,600.69c8.84,90.43,79.85,161.87,161.6,196.38c93.01,41.09,193.73-16.15,81.31-99.29
								c-53.78-41.7-95.19-95.34-142-144.14C1155.82,484.92,1100.36,524.5,1107.81,600.69z"/>
							<path d="M1336.27,812.59c-110.89-5.23-219.66-103.01-230.21-211.73v0c-7.94-71.06,45.52-120.54,100.79-51.75
								c46.8,48.42,90.73,105.26,144.56,146.97l0.01,0C1421.59,745.09,1420.09,809.1,1336.27,812.59z M1153.25,518.98
								c-38.77,0.3-47.19,57.2-43.7,81.53l0,0c8.09,87.62,78.22,160.42,160.48,194.91c64.18,34.06,203.03,1.2,79.98-95.96
								l-0.28-0.04c-41.59-32.73-77.63-73.53-112.98-112.94C1209.87,561.31,1191.46,524.18,1153.25,518.98z"/>
						</g>
						<g>
							<g>
								<path style="fill:#FFFFFF;" d="M1296.02,677.57c-26.51,27.88-52.18,7.82-29.84-20.24c-32.76,22.08-46.46-3.56-19.2-30.26
									c-30.74,27.17-56.88,9.68-26.97-23.7c-58.5,36.64-41.36-23.85-3.47-41.54c40.01,49.07,98.33,107.22,147.84,147.46
									c-17.03,32.66-82.6,48.73-42.79-6.19C1299.11,727.37,1260.77,710.4,1296.02,677.57L1296.02,677.57z"/>
								<path d="M1321.09,741.54c-18.23,0.21-15.56-18.01-7.61-30.02c-18.59,12.08-43.61,0.92-29.24-22.74
									c-19.53,11.17-37.66-1.07-23.4-26.37c-23.92,14.39-41.07-3.86-22.91-26.83c-25.28,17.4-43.93-0.56-25.42-25.42
									c-10.71,5.68-29.04,12.72-32.45-2.83c-3.2-19,23.68-40.53,36.91-47.75c44.93,54.4,95.19,104.45,149.76,149.35
									C1359.92,719.98,1339.54,741.26,1321.09,741.54z M1322.93,704.27c-38.32,53.16,24.69,33.05,39.12,5.37
									c-53.05-43.9-101.98-92.64-145.9-145.53c-35.4,17.39-51.27,72.48,2.77,37.91l2.39,2.57c-27.37,30.26-6.31,47.63,24.57,21.14
									l2.39,2.56c-32.19,35.79-4.97,45.84,24.19,23.16c-26.15,28.98-8.35,54.46,22.44,24.78l2.31,2.64
									c-31.89,27.81-0.28,47.19,23.08,23.08L1322.93,704.27C1322.93,704.27,1322.93,704.27,1322.93,704.27z"/>
							</g>
							<g>
								<path style="fill:#FF4568;" d="M1123.66,661.67c27.43,59.72,83.41,110.07,145.75,135.4c4.88-27.86,7.39-88.59-69.82-69.75
									C1199.59,727.31,1228.21,642.11,1123.66,661.67z"/>
								<path d="M1270.77,799.46c-63.86-24.38-124.73-81.02-149.61-139.12c61.68-14.98,95.24,16.47,80.97,64.57
									C1262.29,708.3,1281.53,754.91,1270.77,799.46z M1126.18,662.99c24.6,54.12,81.93,107.46,141.85,131.65
									c9.72-46.72-14.24-82.8-71.12-64.87C1212.3,689.68,1191.6,648.32,1126.18,662.99z"/>
							</g>
						</g>
					</g>
				</g>
			</g>
		</g>
		<g>
			<g>
				<path style="fill:#FFFFFF;" d="M447.19,254.71c-4.76,24.03-4.81,47.95-0.6,70.7c9.89,55.03,43.98,103.39,92.88,131.2
					c17.27,9.91,36.41,17.14,56.99,21.22s41.03,4.71,60.78,2.14c61.53-7.7,115.91-45.45,144.54-100.75
					c8.15-15.53,14.21-32.59,17.8-50.66c5.66-28.55,4.64-56.85-2.12-83.31c-12.41-49.42-44.53-92.32-89.16-118.02
					c-17.51-10.18-36.98-17.62-58-21.79c-21.02-4.17-41.85-4.72-61.92-1.99c-55.5,7.33-105.02,39.03-134.99,86.02
					C460.98,208.84,451.93,230.82,447.19,254.71z"/>
				<path d="M633.51,483.25c-12.43,0-24.93-1.23-37.39-3.71c-20.49-4.06-39.84-11.27-57.53-21.41
					c-49.51-28.16-83.68-76.42-93.73-132.42c-4.34-23.43-4.13-47.44,0.61-71.35l0,0c4.68-23.61,13.58-45.76,26.45-65.85
					c30.45-47.75,80.11-79.4,136.23-86.81c20.62-2.8,41.64-2.13,62.5,2.01c20.86,4.14,40.56,11.54,58.53,21.99
					c44.62,25.7,77.43,69.11,89.99,119.11c7.02,27.52,7.74,55.81,2.13,84.08c-3.58,18.03-9.62,35.23-17.97,51.14
					c-28.92,55.85-83.45,93.86-145.87,101.68C649.53,482.74,641.54,483.25,633.51,483.25z M633.25,103.52
					c-8.25,0-16.47,0.56-24.63,1.66c-55.1,7.28-103.84,38.34-133.74,85.22c-12.64,19.72-21.37,41.47-25.97,64.65l0,0
					c-4.65,23.47-4.86,47.04-0.6,70.04c9.87,54.97,43.41,102.35,92.02,129.99c17.36,9.96,36.35,17.03,56.47,21.02
					c20.11,3.99,40.37,4.7,60.2,2.12c61.28-7.67,114.82-44.99,143.21-99.81c8.2-15.62,14.13-32.5,17.64-50.2
					c5.5-27.75,4.8-55.52-2.1-82.54c-12.33-49.08-44.53-91.7-88.33-116.93c-17.65-10.26-36.98-17.53-57.47-21.59
					C657.75,104.74,645.47,103.52,633.25,103.52z"/>
			</g>
			<g>
				<g>
					<polygon points="580.4,351.51 658.77,367.47 711.77,307.57 686.41,231.72 608.04,215.77 555.03,275.66 					"/>
					<path d="M659.41,369.39l-80.36-16.36l-26.01-77.78l54.35-61.41l80.37,16.36l26.01,77.78L659.41,369.39z M581.74,349.99
						l76.38,15.55l51.66-58.37l-24.73-73.93l-76.38-15.55l-51.66,58.37L581.74,349.99z"/>
				</g>
				<g>
					<path d="M447.19,254.71c-4.76,24.03-4.81,47.95-0.6,70.7l6.17,1.22l53.03-59.93l-25.36-75.85l-7.03-1.39
						C460.98,208.84,451.93,230.82,447.19,254.71z"/>
					<path d="M453.41,328.55l-8.33-1.65l-0.21-1.17c-4.34-23.44-4.14-47.45,0.6-71.36l0,0c4.68-23.61,13.58-45.76,26.45-65.85
						l0.64-1.01l9.2,1.82l0.33,0.97l25.68,76.81L453.41,328.55z M448.11,323.91l4.01,0.79l51.69-58.42l-24.72-73.92l-4.85-0.96
						c-12.29,19.45-20.81,40.85-25.32,63.63l0,0C444.34,278.12,444.07,301.28,448.11,323.91z"/>
				</g>
				<g>
					<path d="M608.38,103.44l13.29,39.76l78.38,15.99l28.26-31.97c-17.51-10.18-36.98-17.62-58-21.79
						C649.29,101.27,628.45,100.71,608.38,103.44z"/>
					<path d="M700.7,161.11l-80.37-16.4l-14.28-42.73l2.11-0.29c20.61-2.81,41.64-2.12,62.5,2.01
						c20.86,4.14,40.56,11.54,58.53,21.99l1.85,1.08L700.7,161.11z M623.02,141.68l76.39,15.58l26.15-29.59
						c-17.14-9.7-35.83-16.59-55.59-20.52c-19.75-3.91-39.67-4.67-59.24-2.25L623.02,141.68z"/>
				</g>
				<g>
					<path d="M539.47,456.61c17.27,9.91,36.41,17.14,56.99,21.22s41.03,4.71,60.78,2.14l-12.58-37.68l-78.38-15.99L539.47,456.61z"
						/>
					<path d="M633.51,483.25c-12.43,0-24.93-1.23-37.39-3.71c-20.49-4.06-39.84-11.27-57.53-21.41l-1.87-1.07l28.91-32.69
						l80.37,16.4l13.57,40.67l-2.12,0.27C649.53,482.74,641.54,483.25,633.51,483.25z M542.23,456.14
						c16.84,9.4,35.19,16.11,54.58,19.95c19.4,3.85,38.93,4.65,58.08,2.38l-11.58-34.68l-76.39-15.58L542.23,456.14z"/>
				</g>
				<g>
					<path d="M767.68,301.56l25.36,75.85l8.74,1.81c8.15-15.53,14.21-32.59,17.8-50.66c5.66-28.55,4.64-56.85-2.12-83.31
						L767.68,301.56z"/>
					<path d="M802.72,381.2l-11.02-2.28l-26.01-77.77l52.65-59.57l0.82,3.22c7.02,27.52,7.74,55.81,2.13,84.09
						c-3.58,18.03-9.62,35.23-17.97,51.14L802.72,381.2z M794.39,375.89l6.44,1.33c7.88-15.28,13.6-31.76,17.02-49.01
						c5.28-26.64,4.84-53.3-1.3-79.29l-46.89,53.05L794.39,375.89z"/>
				</g>
			</g>
		</g>
	</g>
	<g>
		<g>
			<g>
				
					<rect x="1234.1" y="99.84" transform="matrix(0.9208 -0.3901 0.3901 0.9208 35.6975 498.8989)" style="fill:#00BEFB;" width="24.03" height="123.45"/>
			</g>
		</g>
		<g>
			<g>
				
					<rect x="1006.96" y="292.09" transform="matrix(0.4765 -0.8792 0.8792 0.4765 226.6985 1078.5115)" style="fill:#00BEFB;" width="24.02" height="113.62"/>
			</g>
		</g>
		<g>
			<g>
				
					<rect x="1105.91" y="170.29" transform="matrix(0.7968 -0.6042 0.6042 0.7968 84.2057 723.5311)" style="fill:#00BEFB;" width="24.03" height="132.54"/>
			</g>
		</g>
	</g>
</g>
</svg>
