<?xml version="1.0" encoding="iso-8859-1"?>
<!-- Generator: Adobe Illustrator 30.0.0, SVG Export Plug-In . SVG Version: 9.03 Build 0)  -->
<svg version="1.1" id="Capa_1" xmlns="http://www.w3.org/2000/svg" xmlns:xlink="http://www.w3.org/1999/xlink" x="0px" y="0px"
	 viewBox="0 0 2000 2000" style="enable-background:new 0 0 2000 2000;" xml:space="preserve">
<g>
	<g>
		<g id="XMLID_28_">
			<rect x="101.32" y="1495.47" style="fill:#00C793;" width="1798.68" height="403.81"/>
		</g>
		<g style="opacity:0.27;">
			<g style="opacity:0.27;">
				<rect x="101.32" y="1495.47" style="fill:#FFFFFF;" width="196.05" height="403.81"/>
			</g>
			<g style="opacity:0.27;">
				<rect x="807.84" y="1495.47" style="fill:#FFFFFF;" width="209.14" height="403.81"/>
			</g>
			<g style="opacity:0.27;">
				<rect x="1153.73" y="1495.47" style="fill:#FFFFFF;" width="206.52" height="403.81"/>
			</g>
			<g style="opacity:0.27;">
				<rect x="1497.01" y="1495.47" style="fill:#FFFFFF;" width="169.83" height="403.81"/>
			</g>
			<g style="opacity:0.27;">
				<rect x="1803.6" y="1495.47" style="fill:#FFFFFF;" width="96.4" height="403.81"/>
			</g>
			<g style="opacity:0.27;">
				<rect x="465.43" y="1495.47" style="fill:#FFFFFF;" width="205.66" height="403.81"/>
			</g>
		</g>
		<g>
			<g>
				<rect x="101.32" y="1536.29" style="fill:#FFFFFF;" width="1798.68" height="17.58"/>
			</g>
		</g>
	</g>
	<g>
		<g>
			<ellipse style="fill:#FFBC00;" cx="384.73" cy="387" rx="184.24" ry="184.24"/>
			<path d="M384.63,573c-17.65,0-35.58-2.53-53.32-7.85c-47.59-14.27-86.77-46.22-110.33-89.96
				c-23.56-43.74-28.68-94.04-14.41-141.63c14.27-47.59,46.22-86.77,89.96-110.33c43.74-23.56,94.04-28.69,141.63-14.41
				c98.24,29.45,154.2,133.34,124.74,231.58C538.75,520.89,464.65,573,384.63,573z M384.48,204.42c-29.81,0-59.32,7.38-86.3,21.91
				c-42.91,23.12-74.26,61.56-88.25,108.25c-14,46.69-8.98,96.03,14.13,138.95c23.11,42.91,61.56,74.26,108.25,88.26
				c17.41,5.22,35.01,7.7,52.32,7.7c78.51,0.01,151.21-51.11,174.88-130.09c28.9-96.38-26-198.3-122.38-227.2
				C419.79,207,402.09,204.42,384.48,204.42z"/>
		</g>
		<g>
			<g>
				<path d="M459.65,194.51c-2.23,0-4.42-0.31-6.54-0.95c-10.57-3.16-18.09-13.88-21.17-30.18c-3-15.89-1.46-35.31,4.35-54.69
					l3.37,1.01c-5.65,18.85-7.17,37.68-4.26,53.03c2.83,14.94,9.47,24.69,18.72,27.47c9.24,2.76,20.17-1.72,30.75-12.64
					c10.87-11.21,19.96-27.78,25.62-46.62l3.37,1.01c-5.81,19.38-15.21,36.45-26.46,48.06
					C478.17,189.53,468.54,194.51,459.65,194.51z"/>
			</g>
			<g>
				<path d="M351.08,670.7l-3.37-1.01c5.65-18.85,7.17-37.68,4.26-53.03c-2.83-14.94-9.47-24.69-18.72-27.47
					c-9.25-2.77-20.17,1.72-30.75,12.64c-10.87,11.21-19.96,27.78-25.62,46.62l-3.37-1.01c5.81-19.38,15.21-36.45,26.46-48.06
					c11.54-11.91,23.72-16.73,34.28-13.55c10.57,3.16,18.09,13.88,21.17,30.18C358.43,631.9,356.89,651.32,351.08,670.7z"/>
			</g>
			<g>
				<path d="M143.76,346.48c-11.59,0-24.42-1.86-37.49-5.78l1.01-3.37c38.53,11.55,74.64,5.06,80.49-14.46
					c5.85-19.52-20.73-44.81-59.26-56.36l1.01-3.37c40.39,12.11,68.03,39.36,61.62,60.74C186.81,338.35,167.99,346.48,143.76,346.48
					z"/>
			</g>
			<g>
				<path d="M643.78,501.86c-19.38-5.81-36.45-15.21-48.07-26.46c-11.91-11.54-16.73-23.72-13.56-34.28
					c3.17-10.57,13.89-18.09,30.18-21.17c15.89-3,35.31-1.46,54.69,4.35l-1.01,3.37c-18.85-5.65-37.68-7.16-53.03-4.26
					c-14.94,2.83-24.69,9.48-27.47,18.72c-2.77,9.25,1.71,20.17,12.64,30.75c11.22,10.87,27.78,19.96,46.63,25.62L643.78,501.86z"/>
			</g>
			<g>
				<path d="M285.19,204.98c-19.25,0-44.21-20.08-60.76-50.81l3.1-1.67c19.08,35.42,49.2,56.37,67.14,46.7
					c17.94-9.67,17.03-46.34-2.05-81.76l3.1-1.67c20,37.12,20.27,75.94,0.62,86.52C292.95,204.11,289.19,204.98,285.19,204.98z"/>
			</g>
			<g>
				<path d="M490.29,650.22c-20-37.12-20.27-75.94-0.62-86.52c9.72-5.22,22.61-2.97,36.31,6.38c13.36,9.11,26,23.94,35.6,41.75
					l-3.1,1.67c-9.33-17.33-21.58-31.71-34.48-40.51c-12.56-8.56-24.16-10.76-32.66-6.19c-17.94,9.67-17.03,46.34,2.05,81.76
					L490.29,650.22z"/>
			</g>
			<g>
				<path d="M155.13,551.58l-1.67-3.1c35.41-19.08,56.36-49.2,46.69-67.14c-4.58-8.5-15.45-13.09-30.67-12.81
					c-15.62,0.25-33.76,5.52-51.08,14.86l-1.67-3.1c17.81-9.6,36.53-15.02,52.7-15.28c16.59-0.31,28.6,4.94,33.83,14.66
					C213.84,499.32,192.25,531.58,155.13,551.58z"/>
			</g>
			<g>
				<path d="M595.41,300.65c-15.41,0-27.54-4.85-32.78-14.56c-5.23-9.71-2.97-22.61,6.38-36.31c9.11-13.36,23.94-26,41.75-35.6
					l1.67,3.1c-17.33,9.33-31.72,21.58-40.51,34.48c-8.56,12.56-10.76,24.16-6.18,32.66c9.66,17.94,46.34,17.03,81.76-2.05l1.67,3.1
					C630.39,295.58,611.18,300.65,595.41,300.65z"/>
			</g>
			<g>
				<path d="M370.66,180.91c-10.24,0-20.4-7.01-28.84-19.98c-8.82-13.56-14.77-32.11-16.76-52.25l3.5-0.34
					c1.94,19.58,7.69,37.58,16.21,50.67c8.29,12.75,18.17,19.25,27.75,18.29c9.61-0.95,18-9.25,23.64-23.37
					c5.79-14.51,7.91-33.28,5.97-52.86l3.5-0.34c1.99,20.13-0.21,39.49-6.21,54.51c-6.15,15.4-15.58,24.48-26.56,25.57
					C372.13,180.88,371.4,180.91,370.66,180.91z"/>
			</g>
			<g>
				<path d="M379.23,668.88c-1.99-20.13,0.21-39.49,6.21-54.51c6.15-15.4,15.58-24.49,26.56-25.57c11-1.09,22.01,5.98,31.05,19.88
					c8.82,13.56,14.77,32.11,16.76,52.25l-3.5,0.34c-1.94-19.58-7.69-37.58-16.21-50.67c-8.29-12.75-18.17-19.25-27.75-18.29
					c-9.61,0.95-18,9.25-23.64,23.37c-5.79,14.51-7.91,33.28-5.97,52.86L379.23,668.88z"/>
			</g>
			<g>
				<path d="M107.96,448.7l-0.35-3.5c40.03-3.95,70.97-23.68,68.96-43.96c-0.95-9.61-9.25-18-23.37-23.63
					c-14.5-5.79-33.28-7.91-52.86-5.98l-0.35-3.5c20.13-1.98,39.49,0.22,54.51,6.21c15.4,6.15,24.49,15.58,25.57,26.56
					C182.28,423.11,149.92,444.56,107.96,448.7z"/>
			</g>
			<g>
				<path d="M652.32,394.22c-35.65,0-64.07-13.78-66.02-33.47c-2.2-22.21,30.16-43.66,72.12-47.81l0.35,3.5
					c-40.03,3.95-70.97,23.68-68.96,43.96c2.01,20.28,36.2,33.57,76.24,29.61l0.35,3.5C661.61,393.99,656.91,394.22,652.32,394.22z"
					/>
			</g>
			<g>
				<path d="M214.57,251.94c-4.26,0-8.89-0.58-13.83-1.76c-15.73-3.74-32.84-13.07-48.17-26.28l2.3-2.67
					c14.9,12.85,31.48,21.91,46.68,25.52c14.8,3.52,26.41,1.42,32.71-5.89c13.31-15.44-0.65-49.37-31.13-75.63l2.3-2.67
					c31.94,27.53,46.06,63.68,31.49,80.59C231.93,248.96,224.22,251.94,214.57,251.94z"/>
			</g>
			<g>
				<path d="M578.11,592.24c-15.32-13.21-27.08-28.75-33.1-43.76c-6.17-15.4-5.6-28.48,1.6-36.83
					c14.57-16.91,52.42-8.27,84.36,19.26l-2.3,2.67c-30.47-26.26-66.09-35.07-79.39-19.63c-6.3,7.32-6.66,19.11-1,33.23
					c5.81,14.5,17.22,29.56,32.13,42.4L578.11,592.24z"/>
			</g>
			<g>
				<path d="M229.83,619.86l-2.67-2.29c26.26-30.47,35.07-66.09,19.63-79.39c-7.31-6.31-19.11-6.66-33.23-1
					c-14.5,5.81-29.56,17.22-42.4,32.12l-2.67-2.29c13.21-15.33,28.75-27.08,43.76-33.1c15.39-6.16,28.47-5.6,36.83,1.6
					C265.99,550.08,257.35,587.92,229.83,619.86z"/>
			</g>
			<g>
				<path d="M532.91,232.14c-6.9,0-12.79-1.96-17.31-5.85c-8.36-7.21-10.85-20.06-7.02-36.19c3.74-15.73,13.07-32.84,26.28-48.17
					l2.67,2.29c-12.85,14.91-21.91,31.49-25.52,46.68c-3.51,14.79-1.42,26.41,5.89,32.71c7.31,6.3,19.12,6.66,33.22,1
					c14.5-5.81,29.56-17.22,42.4-32.12l2.67,2.29c-13.21,15.33-28.75,27.08-43.76,33.1C545.35,230.73,538.77,232.14,532.91,232.14z"
					/>
			</g>
		</g>
	</g>
	<g>
		<g>
			<g>
				<g>
					<g>
						<path d="M1089.95,1190.21c-39,189.42-61.9,382.08-49.88,576.51c2.77,44.76,65.07,45.1,62.28,0
							c-11.66-188.49,9.84-374.22,47.65-557.88C1159.04,1164.94,1099.01,1146.21,1089.95,1190.21z"/>
					</g>
					<g>
						<g>
							<path style="fill:#FFFFFF;" d="M1050.3,1757.76c0,0,10.6-52.88-4.32-75.36c-8.82-13.29-30.64-6.98-31.73,8.78l-3.43,49.43
								c6.66,4.91,15.38,10.36,26.81,14.05C1042.13,1756.11,1046.39,1757.1,1050.3,1757.76z"/>
							<path d="M1051.69,1759.78l-1.68-0.29c-4.37-0.74-8.72-1.81-12.93-3.16c-9.59-3.1-18.27-7.65-27.31-14.31l-0.78-0.57l3.5-50.4
								c0.56-8.1,6.28-14.75,14.58-16.94c8.03-2.1,16.02,0.76,20.38,7.32c15.14,22.82,5.02,74.49,4.58,76.68L1051.69,1759.78z
								 M1012.64,1739.76c5.52,4.01,13.97,9.49,25.52,13.22c3.5,1.13,7.1,2.05,10.73,2.73c1.62-9.16,8.5-52.95-4.37-72.34
								c-4.26-6.42-11.34-7.23-16.54-5.86c-6.81,1.8-11.51,7.21-11.97,13.78L1012.64,1739.76z"/>
						</g>
						<g>
							<path style="fill:#FF4568;" d="M1088.66,1862.87c-5.39,3.19-11.55,5.43-17.01,7.07c-24.16,7.27-230.66,9.03-239.79-7.27
								c-23.76-42.39,81.69-63.24,92.22-65.82c0,0,56.56-13.86,87.31-57.99c0,0,36.29,37,88.79,5.33
								c2.1-1.28,12.71,69.71,1.45,104.22C1099.58,1854.7,1094.59,1859.37,1088.66,1862.87z"/>
							<path d="M960.62,1877.06c-60.86,0-124.62-3.42-130.29-13.53c-4.3-7.66-4.86-15.19-1.66-22.37
								c8.04-18.07,39.05-33.33,92.17-45.36c1.24-0.28,2.2-0.5,2.82-0.65c0.56-0.14,56.25-14.19,86.28-57.29l1.21-1.73l1.49,1.51
								c0.09,0.09,9.06,9.08,24.17,14.16c20.19,6.77,41.21,3.72,62.46-9.1l1.04-0.63l1.11,0.78c4.23,3.34,12.45,73.71,1.88,106.12
								c-1.96,6-6.58,11.19-13.74,15.43v0c-4.63,2.74-10.32,5.11-17.4,7.23C1062.36,1874.57,1012.55,1877.06,960.62,1877.06z
								 M924.5,1798.53l0.01,0.04c-0.63,0.16-1.61,0.38-2.88,0.66c-64.74,14.66-84.53,31.67-89.73,43.36
								c-2.76,6.2-2.26,12.49,1.52,19.22c2.65,4.73,33.77,10.6,112.75,11.57c56.21,0.69,113.46-1.66,125-5.13
								c6.8-2.04,12.23-4.3,16.61-6.9v0c6.4-3.8,10.5-8.34,12.19-13.5c10.06-30.85,2.34-90.82-0.51-101.2
								c-46.2,26.8-80.29,1.32-87.78-5.17C981.5,1783.28,929.63,1797.32,924.5,1798.53z"/>
						</g>
						<g>
							<path style="fill:#FFFFFF;" d="M1077.01,1803.32c0.61-21.9,12.19-37.66,25.12-52.5c3.64,19.36,8.43,75.4-3.13,101.61
								C1098.38,1851.88,1076.17,1833.16,1077.01,1803.32z"/>
							<path d="M1099.64,1855.33l-1.8-1.58c-2.43-2.11-23.41-21.14-22.59-50.48l0,0c0.65-23.16,13.53-39.81,25.56-53.61l2.39-2.73
								l0.67,3.56c3.36,17.83,8.83,75.29-3.25,102.65L1099.64,1855.33z M1078.77,1803.36c-0.67,24,14.11,40.72,19.57,46.04
								c9.07-23.96,6.45-71.41,2.7-94.63C1089.76,1768.01,1079.34,1782.84,1078.77,1803.36L1078.77,1803.36z"/>
						</g>
						<g>
							<path style="fill:#FFFFFF;" d="M1018.05,1792.04c-11.63,7.87-24.67,13.03-37.72,17.06c-17.17,5.31-35.28,8.53-53,10.1
								c-17.56,1.56-35.65,1.16-52.78-3.39c-1.45-0.38-2.88-0.84-4.31-1.28c13.52-6.06,31.04-12.06,53.84-17.67
								c0,0,56.56-13.85,87.31-57.99c0,0,13.75,13.99,36.55,17.39C1041.39,1771.31,1030.95,1783.3,1018.05,1792.04z"/>
							<path d="M909.49,1821.78c-12.95,0-24.63-1.42-35.38-4.28c-1.15-0.31-2.29-0.65-3.43-1.01l-5.43-1.65l4.29-1.92
								c14.62-6.55,32.83-12.53,54.14-17.77c0.56-0.14,56.29-14.23,86.28-57.29l1.21-1.73l1.49,1.51
								c0.13,0.13,13.66,13.61,35.56,16.89l2.27,0.34l-0.91,2.1c-6.49,14.93-16.76,27.22-30.52,36.54
								c-10.16,6.88-22.3,12.37-38.19,17.28c-16.37,5.06-34.32,8.48-53.36,10.17C921.22,1821.5,915.23,1821.78,909.49,1821.78z
								 M875.4,1814.2c15.01,3.94,31.96,4.99,51.78,3.23c18.79-1.67,36.5-5.04,52.63-10.02c15.55-4.8,27.38-10.15,37.25-16.83l0,0
								c12.56-8.5,22.08-19.58,28.33-32.97c-17.77-3.25-29.68-12.51-33.74-16.09c-31.02,42.88-86.59,56.91-87.15,57.04
								C905.51,1803.23,889.02,1808.49,875.4,1814.2z"/>
						</g>
						<g>
							<path d="M1064.86,1872.2c-0.16,0.76-0.32,1.52-0.53,2.27c-2.46,8.62-8.02,14.59-12.41,13.32c-3.67-1.06-5.38-6.84-4.37-13.7
								L1064.86,1872.2z"/>
							<path d="M1053.12,1889.72c-0.58,0-1.15-0.08-1.7-0.24c-4.55-1.32-6.8-7.6-5.63-15.65l0.2-1.35l21.08-2.3l-0.5,2.38
								c-0.17,0.8-0.34,1.6-0.57,2.39c-1.81,6.34-5.32,11.6-9.16,13.73C1055.6,1889.37,1054.34,1889.72,1053.12,1889.72z
								 M1049.12,1875.69c-0.5,5.34,0.83,9.71,3.28,10.41c0.8,0.24,1.72,0.07,2.75-0.5c2.97-1.64,5.86-6.09,7.41-11.38
								L1049.12,1875.69z"/>
						</g>
						<g>
							<path d="M1072.58,1871.72c0.15,6.65,2.64,11.77,6.32,12.31c4.54,0.66,9.12-6.01,10.29-14.87c0.24-1.83,0.31-3.57,0.21-5.27
								C1089.39,1863.89,1084.47,1867.38,1072.58,1871.72z"/>
							<path d="M1079.53,1885.83c-0.3,0-0.59-0.02-0.88-0.06c-4.57-0.67-7.64-6.17-7.82-14.01l-0.03-1.26l1.19-0.43
								c11.46-4.18,16.35-7.58,16.4-7.61l2.58-1.82l0.19,3.15c0.11,1.83,0.04,3.67-0.22,5.61c-0.87,6.53-3.56,12.22-7.03,14.84
								C1082.5,1885.29,1081.01,1885.83,1079.53,1885.83z M1074.4,1872.92c0.37,5.15,2.29,9,4.75,9.36
								c0.85,0.14,1.71-0.17,2.62-0.86c2.71-2.04,4.93-6.95,5.66-12.5c0.09-0.65,0.15-1.29,0.19-1.92
								C1085.13,1868.39,1080.84,1870.51,1074.4,1872.92z"/>
						</g>
						<g>
							<path d="M921.15,1876.54c0.01,0.78,0.02,1.56-0.03,2.39c-0.52,8.92-4.66,15.88-9.23,15.52c-4.52-0.35-7.81-7.9-7.29-16.81
								c0.02-0.42,0.05-0.83,0.12-1.19L921.15,1876.54z"/>
							<path d="M912.23,1896.21c-0.16,0-0.32-0.01-0.47-0.02c-5.58-0.44-9.5-8.63-8.91-18.66c0.03-0.51,0.07-1.01,0.15-1.44
								l0.29-1.4l19.6,0.11l0.02,1.73c0.01,0.82,0.02,1.63-0.04,2.51c-0.38,6.54-2.66,12.4-5.95,15.26
								C915.47,1895.55,913.86,1896.21,912.23,1896.21z M906.33,1878.21c-0.36,8.26,2.68,14.24,5.7,14.47
								c0.84,0.05,1.71-0.28,2.58-1.05c2.56-2.23,4.43-7.26,4.75-12.81c0.01-0.18,0.02-0.36,0.02-0.53L906.33,1878.21z"/>
						</g>
						<g>
							<path d="M892.73,1876.02c0.04,0.36,0.01,0.78-0.01,1.13c-0.5,8.92-4.62,15.88-9.19,15.53c-4.57-0.35-7.83-7.88-7.33-16.79
								c0.01-0.18,0.02-0.36,0.03-0.53L892.73,1876.02z"/>
							<path d="M883.85,1894.46c-0.15,0-0.31-0.01-0.46-0.02c-5.58-0.43-9.52-8.62-8.95-18.65l0.13-2.27l19.77,0.8l0.14,1.54
								c0.04,0.44,0.02,0.95-0.01,1.39c-0.37,6.54-2.63,12.39-5.91,15.27C887.11,1893.8,885.49,1894.46,883.85,1894.46z
								 M877.91,1877.19c-0.14,7.9,2.81,13.52,5.75,13.75c0.84,0.08,1.71-0.29,2.58-1.06c2.46-2.15,4.26-6.88,4.68-12.17
								L877.91,1877.19z"/>
						</g>
						<g>
							<path d="M863.89,1873.4c0.52,8.91-2.78,16.27-7.37,16.4c-4.59,0.13-8.69-7.01-9.21-15.92c-0.07-1.19-0.08-2.38,0.01-3.51
								L863.89,1873.4z"/>
							<path d="M856.4,1891.56c-5.52,0-10.26-7.67-10.84-17.58c-0.08-1.43-0.08-2.66,0.01-3.76l0.16-1.93l19.83,3.62l0.08,1.38
								c0.38,6.54-1.2,12.6-4.14,15.81c-1.42,1.55-3.13,2.41-4.93,2.46C856.52,1891.56,856.46,1891.56,856.4,1891.56z
								 M849.02,1872.47c0.01,0.41,0.02,0.84,0.05,1.31c0.5,8.52,4.26,14.22,7.4,14.26c0.84-0.02,1.66-0.47,2.44-1.32
								c2.09-2.28,3.33-6.84,3.27-11.85L849.02,1872.47z"/>
						</g>
						<g>
							
								<rect x="988.1" y="1767.29" transform="matrix(0.6253 -0.7804 0.7804 0.6253 -1028.8253 1444.5657)" width="3.52" height="52.68"/>
						</g>
						<g>
							
								<rect x="956.42" y="1782.96" transform="matrix(0.6439 -0.7651 0.7651 0.6439 -1042.3037 1377.0154)" width="3.52" height="50.59"/>
						</g>
						<g>
							
								<rect x="925.39" y="1792.75" transform="matrix(0.6776 -0.7355 0.7355 0.6776 -1038.1693 1268.0912)" width="3.52" height="50.62"/>
						</g>
					</g>
				</g>
				<g>
					<g>
						<path d="M831.81,1497.89c2.11,28.74,209.09,3.69,240.94,1.41c38.03-2.74,76.03-3.87,114.06-3.98c4.68-0.04,9.29-0.04,13.93,0
							c3.98,0,7.95,0,11.93,0.04c0.28,1.97,0.56,3.98,0.84,5.95c2.43,16.61,4.79,33.21,7.07,49.85c0.35,2.32,0.67,4.61,0.99,6.93
							c-6.76,0.07-13.48,0.14-20.23,0.25h-0.67c-22.06,0.39-44.08,1.02-66.11,1.9c-57.38,2.22-114.73,5.84-172.61,9.5
							c-54.89,3.45-207.4,19.42-193.44-76.28c10.45-71.42,91.3-122.23,155.16-156.6c9.75-5.24,19.07-10.1,27.72-14.6
							c90.24-46.9,191.47-83.38,291.39-102.73c0.91-0.18,1.79-0.32,2.67-0.42l-16.11,66.64c-61.18,13.62-122.05,34.9-180.03,59.57
							c-13.02,5.52-25.9,11.22-38.59,17.03c-35.74,16.4-71.53,34.65-103.58,57.49C888.8,1432.87,829.84,1470.62,831.81,1497.89z"/>
					</g>
					<g>
						<g>
							<path style="fill:#FFFFFF;" d="M1203.52,1541.26c0,0-51.35,0.61-70.99,20.86c-11.61,11.97-3.17,33.05,11.89,30.75l47.27-7.23
								c3.91-7.93,8.1-18.08,10.31-30.65C1202.87,1550.04,1203.33,1545.44,1203.52,1541.26z"/>
							<path d="M1142.21,1594.8c-6.03,0-11.45-3.44-14.51-9.37c-3.49-6.78-3.75-16.99,3.57-24.53c19.92-20.54,70.1-21.37,72.23-21.4
								l1.86-0.02l-0.08,1.86c-0.21,4.64-0.73,9.33-1.54,13.95c-2.43,13.8-7.14,24.37-10.47,31.12l-0.4,0.82l-48.18,7.37
								C1143.85,1594.74,1143.02,1594.8,1142.21,1594.8z M1201.66,1543.08c-9.36,0.36-51.05,2.94-67.87,20.27
								c-6.09,6.28-5.88,14.8-2.96,20.46c2.8,5.43,7.77,8.17,13.32,7.32l46.36-7.09c3.2-6.58,7.5-16.54,9.76-29.36
								C1200.94,1550.84,1201.41,1546.95,1201.66,1543.08z"/>
						</g>
						<g>
							<path style="fill:#FF4568;" d="M1298.91,1478.89c3.63,4.85,6.44,10.71,8.61,15.96c9.61,23.28,34.48,235.41,20.05,248.36
								c-37.54,33.69-69.16-70.29-72.78-80.56c0,0-19.49-55.19-64.81-77.21c0,0,31.01-45.41-4.92-92.53
								c-1.45-1.88,64.69-28.26,98.68-24.2C1289.93,1469.44,1294.91,1473.55,1298.91,1478.89z"/>
							<path d="M1312.38,1751.66c-1.74,0-3.49-0.23-5.25-0.7c-17.97-4.75-35.83-33.34-53.07-84.96c-0.41-1.22-0.72-2.16-0.94-2.77
								c-0.19-0.55-19.8-54.77-63.92-76.22l-1.83-0.89l1.15-1.68c0.3-0.45,29.85-44.95-4.87-90.48l-0.7-0.93l0.58-1.19
								c2.27-4,67.36-28.85,100.41-24.9c5.99,0.71,11.5,4.37,16.37,10.88l0,0c3.12,4.17,6.01,9.52,8.83,16.34
								c4.78,11.59,13.38,69.25,19.16,128.55c4.09,41.96,9.59,113.57,0.43,121.79C1323.45,1749.27,1317.96,1751.66,1312.38,1751.66z
								 M1192.48,1584.72c44.21,22.64,63.77,76.79,63.96,77.34c0.22,0.62,0.54,1.58,0.95,2.83c20.98,62.81,39.11,79.62,50.63,82.68
								c6.26,1.65,12.27-0.2,18.36-5.66c5.59-5.02,4.97-51.66-1.58-118.83c-5.66-58.01-14.32-116.42-18.91-127.55
								c-2.71-6.54-5.45-11.64-8.4-15.58c-4.28-5.71-8.98-8.9-13.97-9.5c-29.89-3.58-87.21,17.59-96.1,22.69
								C1218.38,1535.12,1197.6,1575.98,1192.48,1584.72z M1186.44,1491.82c0,0,0,0.01,0.01,0.01
								C1186.45,1491.83,1186.45,1491.83,1186.44,1491.82z"/>
						</g>
						<g>
							<path style="fill:#FFFFFF;" d="M1243.73,1503.86c-20.84,4.14-37.09-4.34-52.62-14.42c17.95-7.97,70.56-25.11,96.72-18.91
								C1287.38,1471.29,1272.13,1498.22,1243.73,1503.86z"/>
							<path d="M1233.12,1506.68c-17.02,0-30.96-7.97-42.97-15.76l-2.72-1.77l2.97-1.32c16.56-7.34,70.49-25.48,97.84-19.01
								l2.32,0.55l-1.21,2.05c-1.72,2.96-17.35,28.61-45.27,34.16l0,0C1240.29,1506.34,1236.64,1506.68,1233.12,1506.68z
								 M1194.85,1489.75c13.8,8.73,29.03,16.27,48.53,12.39l0,0c23.02-4.58,37.27-23.71,41.62-30.38
								C1261.18,1467.69,1216.27,1480.86,1194.85,1489.75z"/>
						</g>
						<g>
							<path style="fill:#FFFFFF;" d="M1239.65,1566.99c8.77,10.25,15.13,22.55,20.41,35.1c6.96,16.52,12.05,34.45,15.53,52.34
								c3.45,17.73,5.11,36.43,2.71,55.05c-0.2,1.58-0.48,3.15-0.73,4.71c-7.26-12.59-14.92-29.32-22.8-51.56
								c0,0-19.49-55.19-64.81-77.21c0,0,11.72-17.2,12.39-41.4C1217.38,1547.48,1229.92,1555.62,1239.65,1566.99z"/>
							<path d="M1278.53,1719.37l-2.47-4.28c-7.85-13.62-15.57-31.07-22.94-51.85c-0.19-0.55-19.8-54.77-63.92-76.22l-1.83-0.89
								l1.14-1.68c0.11-0.17,11.44-17.1,12.08-40.46l0.06-2.15l2.1,0.48c14.95,3.44,27.82,11.36,38.23,23.54l0,0
								c7.68,8.97,14.25,20.27,20.7,35.57c6.64,15.74,11.9,33.47,15.64,52.69c4,20.58,4.9,38.78,2.73,55.62
								c-0.17,1.28-0.37,2.56-0.58,3.84L1278.53,1719.37z M1192.5,1584.73c44.2,22.64,63.75,76.79,63.95,77.33
								c6.51,18.37,13.29,34.09,20.18,46.81c2.05-16.35,1.15-34.05-2.75-54.1c-3.69-18.98-8.88-36.47-15.43-51.99
								c-6.3-14.95-12.69-25.95-20.13-34.64l0,0c-9.44-11.03-20.96-18.38-34.29-21.89
								C1202.98,1565.52,1195.36,1579.94,1192.5,1584.73z"/>
						</g>
						<g>
							<path d="M1310.43,1501.36c0.74,0,1.48,0,2.21,0.06c8.45,0.65,14.74,5.07,14.03,9.87c-0.59,4.01-5.89,7.02-12.5,7.48
								L1310.43,1501.36z"/>
							<path d="M1312.77,1520.63l-4.52-21.03h2.18c0.79,0,1.57,0,2.35,0.06c6.05,0.47,11.24,2.73,13.91,6.07
								c1.43,1.8,2.03,3.81,1.73,5.81c-0.71,4.83-6.39,8.44-14.12,8.99L1312.77,1520.63z M1312.61,1503.18l2.94,13.68
								c5.05-0.71,8.97-3.09,9.38-5.83c0.15-1.03-0.19-2.07-1.01-3.1C1321.91,1505.4,1317.58,1503.58,1312.61,1503.18z"/>
						</g>
						<g>
							<path d="M1309.1,1493.51c6.28-1.61,10.87-5.27,10.96-9.18c0.12-4.81-6.72-8.08-15.26-7.35c-1.76,0.15-3.42,0.46-5.02,0.94
								C1299.79,1477.92,1303.66,1482.22,1309.1,1493.51z"/>
							<path d="M1308.15,1495.58l-0.63-1.29c-5.24-10.86-9-15.15-9.04-15.19l-1.84-2.07l2.66-0.79c1.74-0.51,3.5-0.84,5.37-1
								c6.19-0.52,11.71,0.88,14.77,3.76c1.62,1.53,2.45,3.39,2.4,5.38c-0.11,4.63-5.05,8.99-12.28,10.84L1308.15,1495.58z
								 M1302.84,1479.01c1.58,2.22,4.11,6.19,7.2,12.41c4.8-1.55,8.21-4.43,8.27-7.13c0.03-0.98-0.41-1.9-1.29-2.73
								c-2.27-2.14-7-3.25-12.06-2.82C1304.24,1478.8,1303.53,1478.89,1302.84,1479.01z"/>
						</g>
						<g>
							<path d="M1330.69,1648.31c0.74-0.18,1.47-0.36,2.27-0.49c8.51-1.41,15.58,1.33,15.75,6.12c0.17,4.73-6.61,9.76-15.12,11.17
								c-0.4,0.07-0.8,0.13-1.14,0.13L1330.69,1648.31z"/>
							<path d="M1332.45,1667h-1.59l-2.08-20.03l1.49-0.36c0.78-0.19,1.56-0.37,2.4-0.51c6.19-1.03,11.82-0.05,15.07,2.61
								c1.71,1.39,2.65,3.18,2.72,5.17c0.21,5.7-7.08,11.4-16.59,12.97C1333.37,1666.93,1332.87,1667,1332.45,1667z M1332.6,1649.68
								l1.41,13.57c7.81-1.5,13.06-6,12.94-9.24c-0.04-0.96-0.51-1.83-1.43-2.58c-2.41-1.97-7.24-2.71-12.27-1.87
								C1333.02,1649.59,1332.81,1649.63,1332.6,1649.68z"/>
						</g>
						<g>
							<path d="M1333.39,1677.67c0.34-0.11,0.74-0.18,1.08-0.24c8.51-1.43,15.58,1.29,15.77,6.08c0.18,4.79-6.59,9.77-15.11,11.2
								c-0.17,0.03-0.34,0.06-0.51,0.08L1333.39,1677.67z"/>
							<path d="M1333.07,1696.83l-0.2-1.91l-1.33-18.49l1.29-0.43c0.43-0.14,0.93-0.23,1.36-0.31c6.17-1.03,11.8-0.07,15.07,2.58
								c1.71,1.39,2.66,3.18,2.74,5.17c0.22,5.7-7.07,11.41-16.58,13L1333.07,1696.83z M1335.26,1679.09l0.98,13.62
								c7.43-1.65,12.36-5.98,12.24-9.13c-0.04-0.96-0.52-1.83-1.44-2.57C1344.71,1679.11,1340.12,1678.37,1335.26,1679.09z"/>
						</g>
						<g>
							<path d="M1334.14,1707.92c8.39-2.48,15.74-0.68,16.39,4.01c0.64,4.69-5.67,10.46-14.06,12.94c-1.12,0.33-2.24,0.61-3.33,0.75
								L1334.14,1707.92z"/>
							<path d="M1331.25,1727.65l1.2-21.07l1.19-0.35c6.16-1.82,11.94-1.55,15.46,0.72c1.81,1.16,2.9,2.8,3.16,4.74
								c0.76,5.57-5.96,12.1-15.3,14.87c-1.36,0.4-2.53,0.66-3.59,0.81L1331.25,1727.65z M1335.83,1709.28l-0.81,14.17
								c0.3-0.08,0.62-0.17,0.95-0.26c8.11-2.4,13.26-7.73,12.81-11.02c-0.12-0.9-0.66-1.66-1.59-2.26
								C1344.81,1708.36,1340.44,1708.15,1335.83,1709.28z"/>
						</g>
						<g>
							
								<rect x="1216.29" y="1594.04" transform="matrix(0.4744 -0.8803 0.8803 0.4744 -750.7484 1934.1879)" width="56.19" height="3.52"/>
						</g>
						<g>
							
								<rect x="1234.78" y="1623.29" transform="matrix(0.4919 -0.8706 0.8706 0.4919 -773.7667 1924.1736)" width="53.92" height="3.52"/>
						</g>
						<g>
							<polygon points="1261.86,1678.8 1258.87,1676.94 1287.22,1631.15 1290.21,1633.01 							"/>
						</g>
					</g>
				</g>
			</g>
			<g>
				<g>
					<g>
						<polygon style="fill:#FF6DCE;" points="1393.54,608.37 1261.04,1154.8 1212.23,1356.28 747.39,1324.98 723.48,1086.6 
							671.09,563.29 						"/>
						<path d="M1213.59,1358.13l-467.81-31.49l-24.05-239.86l-52.6-525.37l2.07,0.13l724.54,45.21L1213.59,1358.13z M748.99,1323.33
							l461.88,31.09l48.46-200.04l132.01-544.39l-718.29-44.81l52.19,521.25L748.99,1323.33z"/>
					</g>
					<g>
						<g>
							<g>
								<path style="fill:#00BEFB;" d="M1393.58,608.16c14.78-187.76-134.81-345.09-334.82-358.56
									c-197.5-13.3-369.88,124.32-388.62,308.54c-0.13,0.5-0.21,1-0.26,1.5c0,0,76.58,44.01,359.61,65.52
									c247.58,18.82,364.09-16.76,364.09-16.76C1393.59,608.31,1393.57,608.24,1393.58,608.16z"/>
								<path d="M1166.78,632.36c-40.31,0-86.08-1.54-137.42-5.45c-280.19-21.3-359.59-65.3-360.36-65.75l-0.97-0.56l0.09-1.11
									c0.05-0.61,0.15-1.2,0.31-1.79c9.07-89.41,54.51-170.93,127.89-229.29c73.45-58.42,166.72-87.04,262.56-80.58
									c103.13,6.95,194.96,51.33,258.57,124.96c56.97,65.96,84.64,149.57,77.89,235.43l-0.11,1.5l-1.13,0.35
									C1393.17,610.36,1318.91,632.35,1166.78,632.36z M671.81,558.66c10.18,5.17,95.88,44.83,357.82,64.73
									c193.73,14.73,320.84-4.05,362.28-16.34c6.4-84.6-20.96-166.95-77.12-231.96c-62.99-72.92-153.96-116.87-256.14-123.75
									c-95-6.42-187.37,21.95-260.13,79.82c-72.63,57.76-117.6,138.43-126.62,227.15C671.86,558.44,671.83,558.56,671.81,558.66z
									 M1393.51,608.15l0,0.01l0.07,0L1393.51,608.15z"/>
							</g>
							<g>
								<path d="M1199.22,330.94c-9.73,0-21.99-2.42-33.27-6.23c-18.92-6.38-34.15-16.14-37.9-24.3c-1.1-2.4-1.25-4.65-0.44-6.66
									c4.13-10.18,29.32-7.95,50.92-0.67c18.92,6.37,34.15,16.14,37.9,24.3c1.1,2.41,1.25,4.65,0.44,6.66h0
									C1214.9,328.91,1208.12,330.94,1199.22,330.94z M1145.51,290.42c-8.07,0-13.45,1.71-14.64,4.65
									c-0.44,1.08-0.31,2.38,0.37,3.87c3.31,7.22,18.05,16.44,35.82,22.43c24.4,8.22,44.11,7.3,46.54,1.35
									c0.43-1.08,0.31-2.38-0.38-3.87c-3.31-7.22-18.05-16.45-35.82-22.44C1165.02,292.24,1153.83,290.42,1145.51,290.42z"/>
							</g>
						</g>
						<g>
							<g>
								<g>
									<g>
										<path style="fill:#FFFFFF;" d="M717.53,489.17c36.06-94.02,125.15-169.56,236.45-197.29
											c38.42-9.57,78.53-13.66,118.31-16.87c15.27-1.23,17.51,19.11,2.27,20.34c-41.65,3.36-83.78,7.49-123.59,18.73
											c-32.79,9.25-63.54,22.85-91.36,40.26c-57.03,35.69-98.51,86.31-120.55,143.76C734.3,510.5,712.81,501.49,717.53,489.17
											L717.53,489.17z"/>
									</g>
								</g>
								<g>
									<g>
										<path style="fill:#FFFFFF;" d="M1330.6,453.69c19.8,34.63,25.47,72.91,22.71,110.9c-0.4,5.5-7.95,9.09-13.79,8.17
											c-6.93-1.1-10.07-6.38-9.67-11.9c2.51-34.45-3.69-68.98-21.58-100.26c-2.84-4.97,1.43-11.33,7.02-13.05
											C1321.84,445.51,1327.75,448.71,1330.6,453.69L1330.6,453.69z"/>
									</g>
								</g>
							</g>
						</g>
					</g>
					<g>
						<g>
							<g>
								<g>
									<path style="fill:#FFFFFF;" d="M1144.76,313.41l117.68-202.38c4.78-8.22,17.08-9.89,24.52-3.33l124.06,109.42l-25.57,20.19
										l-102.11-88.22l-102.04,177.82c-5.42-1.13-11.72-2.79-18.53-5.28C1155.67,319.02,1149.66,316.11,1144.76,313.41z"/>
									<path d="M1182.2,328.88l-1.25-0.26c-6.39-1.33-12.71-3.13-18.78-5.35c-6.31-2.31-12.46-5.11-18.26-8.33l-1.57-0.87
										l0.9-1.55l117.68-202.39c2.46-4.24,6.86-7.15,12.06-7.99c5.57-0.9,11.08,0.65,15.15,4.23l125.64,110.81l-28.36,22.4
										l-101.59-87.78L1182.2,328.88z M1147.19,312.72c5.18,2.77,10.62,5.2,16.19,7.24c5.51,2.02,11.24,3.68,17.04,4.95
										l102.46-178.56l102.63,88.66l22.77-17.99L1285.8,109.01c-3.23-2.85-7.82-4.13-12.26-3.4c-4.16,0.67-7.65,2.97-9.58,6.28
										L1147.19,312.72z"/>
								</g>
							</g>
						</g>
						<g>
							<g>
								<g>
									<path style="fill:#FF4568;" d="M1157.71,291.14l30.04-51.67c8.41,10.52,16.91,20.97,25.88,31.1l-27.64,48.17
										C1176.6,309.51,1167.18,300.3,1157.71,291.14z"/>
									<path d="M1186.38,321.59l-1.63-1.6c-9.38-9.23-18.8-18.43-28.28-27.59l-0.99-0.96l32.03-55.08l1.6,2
										c8.02,10.03,16.71,20.73,25.82,31.04l0.84,0.95L1186.38,321.59z M1159.92,290.83c8.6,8.32,17.16,16.67,25.68,25.05
										l25.88-45.1c-8.26-9.38-16.14-19.05-23.49-28.22L1159.92,290.83z"/>
								</g>
								<g>
									<path style="fill:#FF4568;" d="M1379.77,232.38l-33.38-28.83c3.71-11.55,7.17-23.19,9.56-35.01l32.44,28.61
										C1386.31,209.02,1383.2,220.73,1379.77,232.38z"/>
									<path d="M1380.69,235.5l-36.33-31.38l0.36-1.11c3.29-10.24,6.99-22.39,9.51-34.82l0.61-2.98l35.47,31.28l-0.17,0.97
										c-1.82,10.31-4.49,21.23-8.68,35.42L1380.69,235.5z M1348.42,202.98l30.42,26.28c3.58-12.36,5.97-22.2,7.65-31.45
										l-29.44-25.96C1354.63,182.96,1351.38,193.7,1348.42,202.98z"/>
								</g>
								<g>
									<path style="fill:#FF4568;" d="M1262.44,111.02c4.78-8.22,17.08-9.89,24.52-3.33l32.8,28.93
										c-1.51,13.03-3.46,25.73-6.25,38.52l-30.16-26.06l-3.96,6.91c-7.53-11.31-15.57-22.35-23.71-33.33L1262.44,111.02z"/>
									<path d="M1314.6,178.41l-30.78-26.6l-4.32,7.52l-1.57-2.36c-7.87-11.81-16.38-23.44-23.66-33.26l-0.69-0.93l7.35-12.64
										c2.46-4.24,6.86-7.15,12.06-7.99c5.57-0.9,11.08,0.65,15.15,4.23l33.49,29.53l-0.1,0.91c-1.65,14.23-3.71,26.89-6.29,38.69
										L1314.6,178.41z M1282.89,146.36l29.52,25.51c2.22-10.61,4.03-21.95,5.5-34.53l-32.11-28.32
										c-3.23-2.85-7.82-4.13-12.26-3.4c-4.16,0.67-7.65,2.97-9.58,6.28l-6.19,10.64c6.66,8.99,14.29,19.43,21.49,30.12
										L1282.89,146.36z"/>
								</g>
								<g>
									<path style="fill:#FF4568;" d="M1258.1,193.09l-24.85,43.31c-8.42-10.09-16.54-20.39-24.74-30.65
										c-0.22-0.28-0.46-0.52-0.69-0.78l27.36-47.06C1243.35,169.36,1251.16,180.99,1258.1,193.09z"/>
									<path d="M1233.51,239.47l-1.62-1.94c-6.69-8.01-13.29-16.29-19.67-24.3l-5.09-6.38c-0.12-0.15-0.25-0.28-0.37-0.42
										l-1.1-1.24l29.37-50.51l1.58,2.22c9.57,13.4,16.89,24.63,23.02,35.32l0.5,0.88L1233.51,239.47z M1209.97,204.77l5.01,6.27
										c5.86,7.34,11.9,14.92,18.01,22.29l23.09-40.24c-5.63-9.73-12.27-19.95-20.75-31.93L1209.97,204.77z"/>
								</g>
							</g>
						</g>
					</g>
				</g>
				<g>
					<g>
						<polygon style="fill:#712CE5;" points="1264.78,1137.05 1256.99,1169.59 1212.23,1356.28 747.39,1324.98 727.22,1124.13 
							723.48,1086.6 997.28,1164.61 						"/>
						<path d="M1213.59,1358.13l-467.81-31.49l-24.31-242.44l2.49,0.71l273.47,77.91l269.63-27.78L1213.59,1358.13z M748.99,1323.33
							l461.88,31.09l51.62-215.37l-265.36,27.34l-0.33-0.09l-271.31-77.29L748.99,1323.33z"/>
					</g>
					<g>
						<polygon style="fill:#FFBC00;" points="1264.78,1137.05 1256.99,1169.59 994.95,1194.43 727.5,1121.63 723.48,1086.6 
							997.28,1164.61 						"/>
						<path d="M994.8,1196.21l-0.31-0.08l-268.6-73.11l-4.45-38.82l276,78.63l269.63-27.78l-8.66,36.18l-1.25,0.12L994.8,1196.21z
							 M729.11,1120.24l265.99,72.4l260.47-24.68l6.92-28.9l-265.36,27.34l-0.33-0.09l-271.27-77.28L729.11,1120.24z"/>
					</g>
					<g>
						<circle style="fill:#FFBC00;" cx="833.25" cy="1232.19" r="36.02"/>
						<path d="M833.25,1269.97c-20.83,0-37.78-16.95-37.78-37.78c0-20.83,16.95-37.78,37.78-37.78s37.78,16.95,37.78,37.78
							C871.02,1253.03,854.08,1269.97,833.25,1269.97z M833.25,1197.94c-18.89,0-34.26,15.37-34.26,34.26
							c0,18.89,15.37,34.26,34.26,34.26c18.89,0,34.26-15.37,34.26-34.26C867.5,1213.31,852.14,1197.94,833.25,1197.94z"/>
					</g>
				</g>
			</g>
			<g>
				<g>
					<g>
						<path d="M1553.76,1136.66c-39.94-55.97-83.22-105.49-133.75-152.2c-31.3-28.96-64.61-52.16-99.96-73.1l15.18-62.59
							c109.69,65.4,196.42,150.25,272.16,256.2C1630.83,1137.67,1576.88,1168.97,1553.76,1136.66z"/>
					</g>
					<g>
						<g>
							<g>
								<path style="fill:#FFFFFF;" d="M1555.38,1140.54c0,0-29.69-6.26-17.88-23.07c9-12.8,35.51-33.26,47.63-42.28
									c5.59-4.16,13.13-5.19,19.32-1.98c4,2.08,9.48,11.97,10.01,18.59c12.61,2.87,32.83,3.64,52.66,22.08
									c14.84,13.79,27.25,31.76,33.86,50.97c3.4,9.88,4.95,20.15,1.82,30.29c-1.74,5.64-4.72,11.24-9.32,15.06
									c-2.29,1.9-4.96,3.29-7.88,3.92c-0.85,0.18-6.85,1.26-6.85,1.26s-7.65,30.27-35.64,16.7c0,0-15.54,46.33-50.1-8.1
									c-2.09-3.3-17.36,5.22-32.8-0.99c-2.29-0.92-18.14-7.55-24.86-23.05C1527.37,1181.48,1535,1156.69,1555.38,1140.54z"/>
								<path d="M1623.74,1252.21c-9.87,0-20.7-9.17-32.21-27.3c-0.56-0.21-3.51,0.32-5.89,0.75c-6.45,1.16-16.19,2.93-26.08-1.04
									c-3.12-1.25-19.02-8.3-25.82-23.99c-8.2-18.93-0.84-42.87,17.89-59.25c-5.29-1.59-15.15-5.43-17.92-12.46
									c-1.53-3.88-0.74-8.07,2.35-12.46c8.88-12.65,33.9-32.17,48.02-42.68c6.31-4.69,14.63-5.53,21.18-2.13
									c4.37,2.27,9.7,11.66,10.8,18.69c1.72,0.36,3.56,0.7,5.52,1.06c12.58,2.29,29.79,5.43,46.74,21.19
									c15.68,14.58,27.87,32.94,34.32,51.69c4.09,11.88,4.69,22.15,1.83,31.39c-1.46,4.72-4.36,11.31-9.87,15.89
									c-2.6,2.17-5.5,3.61-8.63,4.29c-0.63,0.13-4.06,0.76-5.83,1.08c-1.1,3.47-5.13,14.05-14.64,18.48
									c-6.18,2.87-13.37,2.57-21.41-0.93c-1.91,4.61-7.8,16.35-18.44,17.64C1625.02,1252.18,1624.38,1252.21,1623.74,1252.21z
									 M1590.83,1221.42c1.69,0,2.91,0.41,3.67,1.6c11.3,17.79,21.91,26.66,30.71,25.58c10.79-1.3,16.19-16.93,16.24-17.09
									l0.64-1.89l1.8,0.87c7.73,3.74,14.49,4.32,20.11,1.71c9.7-4.5,13.03-17.14,13.06-17.27l0.28-1.1l1.11-0.2
									c0,0,5.95-1.07,6.79-1.25c2.56-0.55,4.95-1.75,7.11-3.55c4.85-4.04,7.45-9.96,8.76-14.23c2.63-8.5,2.04-18.05-1.8-29.2
									c-6.27-18.22-18.13-36.07-33.39-50.26c-16.2-15.06-32.83-18.09-44.97-20.3c-2.48-0.45-4.78-0.87-6.88-1.35l-1.26-0.29
									l-0.1-1.29c-0.51-6.27-5.76-15.44-9.07-17.17c-5.37-2.78-12.22-2.07-17.46,1.83c-11.23,8.36-38.32,29.18-47.24,41.88
									c-2.4,3.41-3.03,6.4-1.95,9.14c2.55,6.48,14.4,10.28,18.75,11.2l3.66,0.77l-2.93,2.33c-19.12,15.15-27.32,39.25-19.5,57.31
									c6.25,14.42,21,20.96,23.9,22.12c8.95,3.59,18.09,1.94,24.14,0.85C1587.34,1221.77,1589.28,1221.42,1590.83,1221.42z"/>
							</g>
							<g>
								<line style="fill:none;" x1="1642.97" y1="1231.4" x2="1631.52" y2="1209.38"/>
								
									<rect x="1635.41" y="1208.01" transform="matrix(0.8872 -0.4613 0.4613 0.8872 -378.3837 892.8741)" width="3.51" height="24.81"/>
							</g>
							<g>
								<line style="fill:none;" x1="1678.76" y1="1215.37" x2="1665.01" y2="1193.5"/>
								<polygon points="1677.27,1216.31 1663.53,1194.44 1666.5,1192.57 1680.25,1214.43 								"/>
							</g>
							<g>
								<line style="fill:none;" x1="1593.02" y1="1223.96" x2="1574.92" y2="1193.05"/>
								
									<rect x="1582.28" y="1190.53" transform="matrix(0.8631 -0.5051 0.5051 0.8631 -393.4636 965.5431)" width="3.52" height="35.82"/>
							</g>
							<g>
								<line style="fill:none;" x1="1555.38" y1="1140.54" x2="1574.61" y2="1124.26"/>
								
									<rect x="1552.32" y="1130.61" transform="matrix(0.7632 -0.6461 0.6461 0.7632 -361.131 1279.2482)" width="25.2" height="3.52"/>
							</g>
							<g>
								<line style="fill:none;" x1="1600.67" y1="1103.95" x2="1614.46" y2="1091.79"/>
								
									<rect x="1598.4" y="1096.15" transform="matrix(0.7497 -0.6618 0.6618 0.7497 -324.1894 1338.7087)" width="18.39" height="3.52"/>
							</g>
						</g>
					</g>
				</g>
				<g>
					<g>
						<path d="M771.13,1176.99c-13.08-3.11-26.32-6-39.47-9.03c-58.62-13-117.4-26-172.05-51.61
							c-46.24-21.72-115.61-61.19-94.35-123.16c17.67-51.38,71.93-78.39,119.58-95.13c38.85-13.62,77.69-21.41,117.16-26.16
							l6.15,61.35c-24.68,2.88-49.2,7.24-73.72,14.4c-34.02,9.89-83.77,21.95-103.54,54.65c-21.95,36.51,79.72,69.6,105.18,77.62
							c29.19,9.19,59.09,16.27,89.06,22.97c20.94,4.67,41.81,9.11,62.59,14.01C826.79,1126.07,810.13,1186.17,771.13,1176.99z"/>
					</g>
					<g>
						<g>
							<g>
								<path style="fill:#FFFFFF;" d="M783.53,1110.43c0,0-20.19-22.65-28.9-4.05c-6.64,14.17-11.21,47.35-13.02,62.35
									c-0.83,6.92,2.02,13.98,7.89,17.75c3.79,2.44,15.1,2.28,21.1-0.55c8.76,9.52,19.47,26.68,45.33,34.72
									c19.35,6.02,41.1,7.86,61.06,4.05c10.26-1.96,19.95-5.72,27.19-13.48c4.03-4.31,7.4-9.68,8.43-15.57
									c0.51-2.93,0.39-5.94-0.52-8.78c-0.26-0.83-2.31-6.57-2.31-6.57s22.46-21.68-3.22-39.22c0,0,32.48-36.51-31.93-39.45
									c-3.9-0.18-4.1-17.65-17.16-27.97c-1.94-1.53-15.57-11.99-32.36-10.11C805.14,1065.78,787.42,1084.72,783.53,1110.43z"/>
								<path d="M855.31,1228.44c-13.23,0-26.88-2.06-39.9-6.11c-22.1-6.88-33.38-20.26-41.62-30.03c-1.28-1.52-2.49-2.96-3.66-4.27
									c-6.65,2.55-17.45,2.59-21.59-0.08c-6.21-4-9.62-11.63-8.68-19.43c2.1-17.47,6.6-48.87,13.17-62.88
									c2.27-4.86,5.52-7.62,9.64-8.23c7.51-1.1,15.71,5.56,19.72,9.36c4.91-24.4,22.02-42.68,42.53-44.97
									c16.98-1.87,31.01,8.4,33.64,10.47c8.37,6.61,11.68,15.94,13.87,22.12c0.81,2.28,1.82,5.12,2.46,5.52
									c22.67,1,36.31,6.41,40.37,16.04c4.17,9.88-3.1,20.82-6.14,24.77c7.03,5.23,10.88,11.32,11.45,18.12
									c0.88,10.45-6.29,19.21-8.75,21.89c0.61,1.7,1.77,4.99,1.96,5.6c0.97,3.04,1.16,6.27,0.58,9.62
									c-1.24,7.07-5.51,12.86-8.88,16.46c-6.6,7.07-15.81,11.65-28.14,14.01C870.25,1227.77,862.85,1228.44,855.31,1228.44z
									 M771.02,1183.79l0.87,0.95c1.46,1.58,2.97,3.37,4.59,5.3c7.96,9.44,18.86,22.37,39.97,28.94c19.9,6.2,41.28,7.61,60.21,4
									c11.58-2.21,20.16-6.45,26.23-12.95c3.04-3.27,6.9-8.46,7.99-14.68c0.49-2.78,0.33-5.45-0.46-7.94
									c-0.26-0.82-2.29-6.51-2.29-6.51l-0.38-1.07l0.81-0.79c0.09-0.09,9.41-9.25,8.49-19.91c-0.53-6.17-4.39-11.76-11.48-16.6
									l-1.65-1.13l1.32-1.5c0.11-0.12,11-12.57,6.77-22.59c-3.44-8.15-16.4-12.97-37.47-13.93c-2.7-0.12-3.79-3.18-5.43-7.81
									c-2.06-5.79-5.17-14.55-12.74-20.53c-2.45-1.94-15.46-11.52-31.07-9.74c-19.55,2.19-36.39,21.28-40.03,45.4l-0.56,3.7
									l-2.49-2.79c-0.11-0.12-10.73-11.9-19.04-10.71c-2.92,0.43-5.19,2.47-6.96,6.23c-6.59,14.08-11.19,47.92-12.86,61.81
									c-0.78,6.48,2.01,12.78,7.09,16.06c3.14,2.02,13.7,2.02,19.4-0.66L771.02,1183.79z"/>
							</g>
							<g>
								<line style="fill:none;" x1="905.91" y1="1141.28" x2="881.12" y2="1142.28"/>
								
									<rect x="881.18" y="1140.03" transform="matrix(0.9992 -0.0411 0.0411 0.9992 -46.1707 37.6893)" width="24.81" height="3.52"/>
							</g>
							<g>
								<line style="fill:none;" x1="909.79" y1="1180.3" x2="883.99" y2="1179.24"/>
								
									<rect x="895.19" y="1166.85" transform="matrix(0.041 -0.9992 0.9992 0.041 -318.5891 2027.5953)" width="3.52" height="25.83"/>
							</g>
							<g>
								<line style="fill:none;" x1="874.63" y1="1101.62" x2="838.82" y2="1101.29"/>
								
									<rect x="855.01" y="1083.51" transform="matrix(9.299598e-03 -1 1 9.299598e-03 -252.5795 1947.9099)" width="3.52" height="35.82"/>
							</g>
							<g>
								<line style="fill:none;" x1="783.53" y1="1110.43" x2="778.97" y2="1135.21"/>
								
									<rect x="768.68" y="1121.05" transform="matrix(0.1816 -0.9834 0.9834 0.1816 -464.7396 1687.2061)" width="25.2" height="3.52"/>
							</g>
							<g>
								<line style="fill:none;" x1="774.29" y1="1167.91" x2="770.6" y2="1185.93"/>
								
									<rect x="763.28" y="1175.13" transform="matrix(0.2011 -0.9796 0.9796 0.2011 -535.712 1696.912)" width="18.39" height="3.52"/>
							</g>
						</g>
					</g>
				</g>
			</g>
			<g>
				<g>
					<g id="XMLID_27_">
						<path style="fill:#FFFFFF;" d="M1142.11,857.72c0,0-5.15,237.6-89.66,229.9c-96.19-8.76-52.71-242.87-52.71-242.87
							c11.77,7.5,36.58,21.09,71.03,23.91C1103.63,871.35,1129.27,862.93,1142.11,857.72z"/>
						<path d="M1056.41,1089.56c-1.36,0-2.73-0.06-4.11-0.19c-15.75-1.43-28.83-8.88-38.87-22.14
							c-18.98-25.05-27.33-70.2-24.83-134.19c1.85-47.48,9.33-88.2,9.41-88.61l0.47-2.56l2.2,1.4c14.7,9.37,38.83,21.07,70.23,23.64
							c23.89,1.95,48.28-1.79,70.54-10.82l2.48-1.01l-0.06,2.67c-0.01,0.43-1.02,43.44-8.47,91.65
							c-10.04,64.98-26.39,107.98-48.58,127.81C1077.65,1085.42,1067.43,1089.56,1056.41,1089.56z M1001.02,847.63
							c-3.55,20.86-25.87,163.24,15.21,217.48c9.42,12.43,21.66,19.42,36.38,20.76c11.61,1.08,22.32-2.74,31.87-11.27
							c48.01-42.89,55.02-192.41,55.79-214.26c-22.09,8.52-46.1,12.02-69.65,10.07C1040.05,867.91,1016.22,856.94,1001.02,847.63z"
							/>
					</g>
					<g>
						<polygon points="1080.12,1081.5 1078.35,1081.44 1076.62,1081.12 1095.47,868.34 1098.97,868.65 						"/>
					</g>
					<g>
						
							<rect x="928.47" y="969.55" transform="matrix(0.0801 -0.9968 0.9968 0.0801 -15.3295 1926.0032)" width="214.7" height="3.52"/>
					</g>
					<g>
						
							<rect x="1057.61" y="902.37" transform="matrix(0.091 -0.9959 0.9959 0.091 -4.836 1938.3827)" width="3.52" height="138.94"/>
					</g>
				</g>
				<g>
					<g>
						<g>
							<path style="fill:#FFFFFF;" d="M1029.82,670.49c1.37-18.87,0.99-37.23-0.91-54.75c-1.18-10.86-2.89-21.37-5.18-31.42
								c-8.18-36.29-23.25-66.56-42.86-86.05c-13.21-13.05-28.39-21.27-45.02-23.12c-59.05-6.59-112.82,70.12-120,171.37
								c-7.19,101.25,34.88,188.69,93.97,195.29c4.24,0.46,8.47,0.5,12.61,0.17c11.28-1,22.21-4.95,32.55-11.41
								c7.35-4.62,14.38-10.52,20.99-17.53c0.1-0.04,0.16-0.12,0.21-0.21C1004.72,782.34,1025.53,730.73,1029.82,670.49z"/>
							<path d="M916.98,843.96c-2.47,0-4.92-0.13-7.35-0.39c-59.92-6.69-102.78-95.13-95.54-197.16
								c4.63-65.28,29.49-124.13,64.87-153.6c17.85-14.87,37.59-21.59,57.08-19.4c16.57,1.85,32.07,9.79,46.06,23.62
								c19.73,19.59,35.13,50.46,43.34,86.91c2.25,9.88,4.01,20.52,5.22,31.62c1.95,18,2.26,36.53,0.91,55.07
								c-4.19,58.88-23.91,111.16-54.11,143.42l-0.35,0.35c-6.72,7.11-13.85,13.06-21.2,17.67c-10.78,6.75-22,10.68-33.33,11.67
								C920.72,843.88,918.84,843.96,916.98,843.96z M928.85,476.53c-16.29,0-32.63,6.48-47.64,18.99
								c-34.67,28.87-59.04,86.78-63.61,151.14c-7.11,100.17,34.35,186.93,92.41,193.41c4.04,0.44,8.17,0.49,12.27,0.16
								c10.76-0.95,21.45-4.7,31.75-11.15c7.15-4.49,14.09-10.29,20.64-17.24l0.38-0.35c29.21-31.52,48.94-84.13,53-141.12v0
								c1.33-18.33,1.02-36.64-0.9-54.43c-1.2-10.97-2.93-21.47-5.15-31.22c-8.08-35.81-23.13-66.06-42.39-85.19
								c-13.41-13.25-28.2-20.86-43.97-22.62C933.39,476.65,931.12,476.53,928.85,476.53z"/>
						</g>
						<g>
							<path d="M1029.82,670.49c1.37-18.87,0.99-37.23-0.91-54.75c-1.18-10.86-2.89-21.37-5.18-31.42
								c-52.49-8.34-104.76,18.29-133.57,65.37l57.06,55.75l-73.1-19.69c-0.4,1.48-0.9,2.96-1.25,4.44
								c-15.7,58.68,4.76,118.1,47.04,151.28c12.65-1.13,24.91-5.58,36.51-12.79c6.77-4.26,13.31-9.52,19.55-15.65
								c0.1-0.04,0.16-0.12,0.21-0.21C1004.72,782.34,1025.53,730.73,1029.82,670.49z"/>
							<path d="M919.36,843.29l-0.55-0.43c-44.49-34.92-63.2-95.02-47.66-153.12c0.21-0.88,0.48-1.79,0.75-2.71
								c0.17-0.58,0.35-1.16,0.5-1.74l0.46-1.69l68.29,18.39l-53.24-52.02l0.73-1.2c29.7-48.55,82.84-74.52,135.34-66.19l1.18,0.19
								l0.26,1.16c2.25,9.88,4.01,20.52,5.22,31.62c1.95,18,2.26,36.53,0.91,55.06l0,0c-4.19,58.88-23.91,111.16-54.11,143.42
								l-0.37,0.36c-6.37,6.23-13.01,11.54-19.75,15.78c-12.12,7.54-24.67,11.93-37.29,13.05L919.36,843.29z M875.32,687.9
								c-0.01,0.05-0.03,0.09-0.04,0.14c-0.26,0.85-0.51,1.7-0.71,2.56c-15.13,56.55,2.88,114.95,45.86,149.06
								c11.83-1.17,23.62-5.36,35.04-12.47c6.56-4.12,13.04-9.31,19.25-15.41l0.33-0.3c29.21-31.52,48.94-84.13,53-141.12v0
								c1.33-18.33,1.02-36.64-0.9-54.43c-1.15-10.53-2.79-20.64-4.89-30.06c-50.29-7.49-101.01,17.34-129.88,63.54l60.87,59.47
								L875.32,687.9z"/>
						</g>
					</g>
					<g>
						<g>
							<g>
								<path style="fill:#FFFFFF;" d="M1341.83,700.76c1.63-18.84,1.5-37.19-0.15-54.72c-1.03-10.87-2.6-21.39-4.75-31.46
									c-7.68-36.36-22.34-66.8-41.69-86.5c-13.03-13.2-28.12-21.6-44.72-23.64c-58.99-7.3-113.85,68.7-122.45,169.78
									c-8.59,101.08,32.29,188.97,91.33,196.28c4.24,0.51,8.46,0.61,12.61,0.32c11.3-0.86,22.29-4.68,32.73-11.01
									c7.42-4.52,14.54-10.33,21.24-17.26c0.1-0.04,0.16-0.12,0.22-0.2C1315.17,812.21,1336.71,760.9,1341.83,700.76z"/>
								<path d="M1227.37,872.73c-2.75,0-5.49-0.17-8.19-0.49c-59.87-7.41-101.53-96.31-92.87-198.17
									c5.54-65.14,31.21-123.63,66.99-152.66c18.07-14.67,37.95-21.14,57.42-18.73c16.55,2.04,31.95,10.17,45.76,24.15
									c19.48,19.82,34.45,50.85,42.17,87.37c2.11,9.89,3.73,20.54,4.79,31.66c1.7,18.01,1.75,36.52,0.15,55.04
									c-5.01,58.79-25.47,110.79-56.13,142.65l-0.37,0.36c-6.81,7.02-14.02,12.86-21.44,17.39c-10.89,6.61-22.16,10.4-33.51,11.27
									C1230.55,872.67,1228.96,872.73,1227.37,872.73z M1242.74,505.71c-16.07,0-32.26,6.29-47.23,18.43
									c-35.07,28.44-60.24,86-65.71,150.22c-8.5,100,31.78,187.2,89.79,194.38c4.04,0.49,8.17,0.59,12.28,0.31
									c10.78-0.82,21.53-4.44,31.93-10.76c7.22-4.39,14.24-10.11,20.89-16.98l0.4-0.36c29.65-31.14,50.12-83.46,54.97-140.36v0
									c1.58-18.3,1.53-36.61-0.15-54.4c-1.04-10.98-2.64-21.5-4.73-31.26c-7.58-35.88-22.22-66.29-41.23-85.63
									c-13.24-13.41-27.93-21.19-43.69-23.13C1247.78,505.87,1245.26,505.71,1242.74,505.71z"/>
							</g>
							<g>
								<path d="M1341.83,700.76c1.63-18.84,1.5-37.19-0.15-54.72c-1.03-10.87-2.6-21.39-4.75-31.46
									c-52.41-8.97-105.08,17.01-134.55,63.7l56.32,56.4l-72.88-20.56c-0.42,1.48-0.94,2.94-1.32,4.43
									c-16.52,58.45,3.13,118.06,44.97,151.73c12.67-0.97,25.01-5.27,36.71-12.34c6.84-4.18,13.45-9.35,19.78-15.4
									c0.1-0.04,0.16-0.12,0.22-0.2C1315.17,812.21,1336.71,760.9,1341.83,700.76z"/>
								<path d="M1228.92,872.08l-0.54-0.44c-44.04-35.44-61.92-95.72-45.56-153.58c0.22-0.88,0.51-1.81,0.8-2.74
									c0.18-0.56,0.36-1.12,0.51-1.69l0.48-1.68l68.08,19.21l-52.56-52.63l0.75-1.19c30.39-48.15,83.92-73.46,136.33-64.5
									l1.18,0.2l0.25,1.16c2.11,9.89,3.73,20.54,4.79,31.66c1.7,18,1.75,36.52,0.15,55.03c-5.01,58.79-25.47,110.79-56.13,142.65
									l-0.39,0.37c-6.44,6.14-13.16,11.36-19.96,15.51c-12.24,7.39-24.85,11.62-37.49,12.59L1228.92,872.08z M1187,716.28
									c-0.01,0.04-0.02,0.07-0.03,0.1c-0.27,0.86-0.54,1.72-0.76,2.59c-15.92,56.32,1.28,114.89,43.82,149.5
									c11.86-1.03,23.71-5.07,35.24-12.03c6.63-4.05,13.18-9.15,19.48-15.16l0.36-0.31c29.65-31.14,50.12-83.46,54.97-140.36v0
									c1.58-18.3,1.53-36.61-0.15-54.4c-1-10.55-2.51-20.66-4.48-30.09c-50.22-8.09-101.32,16.1-130.83,61.92l60.08,60.17
									L1187,716.28z"/>
							</g>
						</g>
					</g>
				</g>
				<g>
					
						<ellipse transform="matrix(0.8238 -0.5669 0.5669 0.8238 -265.1593 755.8995)" style="fill:#FF4568;" cx="1083.35" cy="804.48" rx="33.91" ry="33.91"/>
					<path d="M1083.33,840.18c-19.67,0-35.66-16-35.66-35.66c0-19.67,16-35.66,35.66-35.66c19.67,0,35.66,16,35.66,35.66
						C1119,824.18,1103,840.18,1083.33,840.18z M1083.33,772.37c-17.72,0-32.14,14.42-32.14,32.15c0,17.72,14.42,32.14,32.14,32.14
						c17.73,0,32.15-14.42,32.15-32.14C1115.48,786.79,1101.06,772.37,1083.33,772.37z"/>
				</g>
			</g>
		</g>
		<g>
			<g>
				<path style="fill:#FFFFFF;" d="M1141.62,1298.84c-1.61,19.78,0.57,39.04,6.07,56.96c13.06,43.38,44.98,79.15,86.93,97
					c14.82,6.38,30.9,10.42,47.84,11.79c16.95,1.38,33.47-0.01,49.12-3.91c48.82-11.9,89.09-47.33,107.01-94.49
					c5.12-13.25,8.42-27.55,9.63-42.43c1.91-23.5-1.54-46.19-9.43-66.87c-14.57-38.63-44.4-70.18-82.71-86.73
					c-15.04-6.57-31.4-10.76-48.7-12.16c-17.3-1.41-34.13,0.08-50.03,4.14c-43.99,11.05-80.92,41.16-100.68,81.75
					C1148.47,1260.64,1143.22,1279.17,1141.62,1298.84z"/>
				<path d="M1295.16,1466.87c-4.26,0-8.55-0.17-12.84-0.52c-16.91-1.38-33.19-5.39-48.4-11.93c-42.56-18.11-74.6-53.88-87.92-98.11
					c-5.68-18.5-7.74-37.89-6.14-57.61c1.58-19.49,6.7-38.18,15.22-55.58c20.13-41.35,57.25-71.49,101.83-82.69
					c16.36-4.17,33.38-5.59,50.6-4.18c17.21,1.39,33.78,5.53,49.27,12.3c38.38,16.58,68.88,48.56,83.65,87.72
					c8.22,21.54,11.43,44.29,9.53,67.63c-1.21,14.87-4.48,29.31-9.74,42.92c-18.14,47.74-58.6,83.47-108.23,95.57
					C1320.02,1465.37,1307.67,1466.87,1295.16,1466.87z M1294.68,1159.24c-12.54,0-24.9,1.54-36.9,4.6
					c-43.58,10.94-79.86,40.4-99.54,80.82c-8.32,17.01-13.32,35.28-14.87,54.32l0,0c-1.57,19.28,0.45,38.23,6,56.31
					c13.02,43.24,44.34,78.19,85.94,95.9c14.86,6.39,30.77,10.32,47.3,11.66c16.52,1.34,32.86,0.04,48.55-3.87
					c48.51-11.83,88.06-46.75,105.79-93.41c5.14-13.3,8.34-27.42,9.52-41.94c1.85-22.81-1.28-45.04-9.31-66.1
					c-14.44-38.29-44.24-69.54-81.76-85.75c-15.14-6.61-31.34-10.66-48.15-12.03C1303.03,1159.41,1298.84,1159.24,1294.68,1159.24z"
					/>
			</g>
			<g>
				<g>
					<polygon points="1257.81,1364.41 1322.38,1369.99 1359.49,1316.87 1332.04,1258.16 1267.48,1252.58 1230.36,1305.71 					"/>
					<path d="M1323.24,1371.83l-66.59-5.76l-28.31-60.54l38.28-54.79l66.59,5.76l28.31,60.55L1323.24,1371.83z M1258.98,1362.74
						l62.54,5.4l35.95-51.46l-26.59-56.86l-62.54-5.4l-35.95,51.46L1258.98,1362.74z"/>
				</g>
				<g>
					<path d="M1141.62,1298.84c-1.61,19.78,0.57,39.04,6.07,56.96l5.08,0.41l37.13-53.15l-27.45-58.7l-5.79-0.47
						C1148.47,1260.64,1143.22,1279.17,1141.62,1298.84z"/>
					<path d="M1153.63,1358.05l-7.27-0.59l-0.35-1.14c-5.68-18.5-7.74-37.89-6.14-57.62c1.58-19.49,6.7-38.18,15.22-55.58l0.53-1.08
						l8,0.65l28.31,60.55L1153.63,1358.05z M1149.02,1354.14l2.88,0.23l35.97-51.49l-26.59-56.86l-3.57-0.29
						c-8.01,16.7-12.84,34.6-14.35,53.24l0,0C1141.84,1317.85,1143.74,1336.41,1149.02,1354.14z"/>
				</g>
				<g>
					<path d="M1257.35,1162.13l14.38,30.77l64.58,5.61l19.78-28.35c-15.04-6.57-31.4-10.76-48.7-12.16
						C1290.07,1156.59,1273.25,1158.08,1257.35,1162.13z"/>
					<path d="M1337.16,1200.35l-66.6-5.78l-15.71-33.62l2.06-0.52c16.37-4.18,33.4-5.59,50.61-4.18
						c17.21,1.39,33.78,5.53,49.27,12.3l1.97,0.86L1337.16,1200.35z M1272.89,1191.24l62.55,5.43l17.96-25.74
						c-14.56-6.11-30.08-9.87-46.17-11.18c-16.11-1.31-32.04-0.1-47.39,3.58L1272.89,1191.24z"/>
				</g>
				<g>
					<path d="M1234.61,1452.8c14.82,6.38,30.9,10.42,47.84,11.79c16.95,1.38,33.47-0.01,49.12-3.91l-13.62-29.17l-64.57-5.6
						L1234.61,1452.8z"/>
					<path d="M1295.15,1466.87c-4.26,0-8.55-0.17-12.84-0.52c-16.91-1.38-33.19-5.39-48.4-11.93l-1.98-0.85l20.59-29.49l66.6,5.78
						l14.95,32.02l-2.07,0.52C1320.02,1465.37,1307.67,1466.87,1295.15,1466.87z M1237.3,1452.03c14.28,5.9,29.51,9.54,45.3,10.82
						c15.8,1.28,31.42,0.15,46.47-3.37l-12.28-26.29l-62.55-5.43L1237.3,1452.03z"/>
				</g>
				<g>
					<path d="M1403.94,1306.84l27.44,58.7l7.2,0.64c5.12-13.25,8.42-27.55,9.63-42.43c1.91-23.5-1.54-46.19-9.43-66.87
						L1403.94,1306.84z"/>
					<path d="M1439.75,1368.06l-9.53-0.85l-28.3-60.54l37.33-53.51l1.19,3.1c8.23,21.55,11.43,44.3,9.54,67.63
						c-1.21,14.87-4.48,29.31-9.74,42.92L1439.75,1368.06z M1432.55,1363.88l4.87,0.44c4.86-12.93,7.9-26.62,9.05-40.7
						c1.76-21.68-0.98-42.84-8.16-62.95l-32.34,46.36L1432.55,1363.88z"/>
				</g>
			</g>
		</g>
	</g>
</g>
</svg>
