<?xml version="1.0" encoding="iso-8859-1"?>
<!-- Generator: Adobe Illustrator 30.0.0, SVG Export Plug-In . SVG Version: 9.03 Build 0)  -->
<svg version="1.1" id="Capa_1" xmlns="http://www.w3.org/2000/svg" xmlns:xlink="http://www.w3.org/1999/xlink" x="0px" y="0px"
	 viewBox="0 0 2000 2000" style="enable-background:new 0 0 2000 2000;" xml:space="preserve">
<g>
	<g>
		<g id="XMLID_3_">
			<rect x="100" y="1493.95" style="fill:#00C793;" width="1798.58" height="403.79"/>
		</g>
		<g style="opacity:0.27;">
			<g style="opacity:0.27;">
				<rect x="100" y="1493.95" style="fill:#FFFFFF;" width="196.05" height="403.79"/>
			</g>
			<g style="opacity:0.27;">
				<rect x="806.48" y="1493.95" style="fill:#FFFFFF;" width="209.13" height="403.79"/>
			</g>
			<g style="opacity:0.27;">
				<rect x="1152.35" y="1493.95" style="fill:#FFFFFF;" width="206.51" height="403.79"/>
			</g>
			<g style="opacity:0.27;">
				<rect x="1495.61" y="1493.95" style="fill:#FFFFFF;" width="169.82" height="403.79"/>
			</g>
			<g style="opacity:0.27;">
				<rect x="1802.18" y="1493.95" style="fill:#FFFFFF;" width="96.4" height="403.79"/>
			</g>
			<g style="opacity:0.27;">
				<rect x="464.09" y="1493.95" style="fill:#FFFFFF;" width="205.64" height="403.79"/>
			</g>
		</g>
		<g>
			<g>
				<rect x="100" y="1534.76" style="fill:#FFFFFF;" width="1798.58" height="17.58"/>
			</g>
			<g>
				<rect x="952.26" y="1534.77" style="fill:#FFFFFF;" width="17.93" height="362.49"/>
			</g>
		</g>
	</g>
	<g>
		<g>
			<path d="M1636.95,1729.75c11.39,3.81,24.29,4.02,35.21-1.36c12-5.91,18.94-18.21,21.17-31.03c1.4-8.05,1.14-15.87-0.73-23.25
				c17.01-3.41,32.16-15.15,38.91-31.29c7.59-18.15,2-36.75-16.29-45.17c-2.63-1.21-5.42-2.12-8.26-2.88
				c1.88-4.03,3.26-8.26,3.92-12.47c2.58-16.52-6.02-32.57-19.92-41.5c-13.68-8.79-30.45-6.46-44.02,1.24
				c-16.16,9.17-29.09,24.98-35.11,42.51c-1.88,5.47,6.79,7.81,8.65,2.37c7.27-21.17,31.62-47.74,56.51-42.34
				c12.35,2.68,23.35,14.6,25.19,27.1c1.09,7.34-0.84,14.89-4.47,21.43c-11.78-1.05-23.91,1.71-33.1,9.2
				c-1.14,0.93-1.63,3.01-1.15,4.37c4.2,11.64,15.21,14.27,25.56,8.35c5.18-2.96,9.66-7.3,13.26-12.32
				c13.85,2.75,25.65,11.85,23.63,27.03c-2.29,17.15-16.35,30.9-32.74,35.14c-1.2,0.31-2.42,0.49-3.64,0.69
				c-2.25-4.92-5.27-9.59-9.23-13.89c-5.36-5.82-12.85-10.43-21.04-9.22c-6.63,0.98-15.74,6.21-14.38,14.1
				c1.19,6.89,9.18,10.83,14.92,13.32c7.48,3.25,15.34,5.45,23.56,5.32c0.07,0,0.14-0.02,0.21-0.02c2.41,8.03,2.32,16.38-0.13,25.17
				c-5.58,19.93-24.53,26.97-43.31,21.02c-23.94-7.57-39.17-30.92-36.63-55.76c0.59-5.74-8.39-5.68-8.97,0.02
				C1591.64,1694.2,1609.93,1720.72,1636.95,1729.75z M1673.6,1606.87c4.92-3.06,11.17-4.72,17.68-5
				C1686.87,1606.37,1678.05,1612.61,1673.6,1606.87z M1671.55,1664.63c-5.37-1.54-12.48-3.7-16.46-7.86
				c-1.5-1.57-1.98-1.74-0.09-3.04c2.56-1.78,5.44-2.9,8.58-2.41c6.62,1.03,11.77,7.63,15.08,12.92c0.37,0.58,0.65,1.18,0.99,1.77
				C1676.92,1665.78,1674.21,1665.39,1671.55,1664.63z"/>
		</g>
		<g>
			<path d="M1587.67,1643.19h-0.01l-157.86,0.28c-2.67,0.01-4.83,2.17-4.82,4.84c0.01,2.66,2.17,4.82,4.83,4.82h0.01l157.86-0.28
				c2.67-0.01,4.83-2.17,4.82-4.84C1592.5,1645.34,1590.33,1643.19,1587.67,1643.19z"/>
		</g>
		<g>
			<path d="M1584.99,1600.68h-0.01l-98.88,0.18c-2.67,0.01-4.83,2.17-4.82,4.84c0.01,2.66,2.17,4.82,4.83,4.82h0.01l98.88-0.18
				c2.67-0.01,4.83-2.17,4.82-4.84C1589.81,1602.84,1587.65,1600.68,1584.99,1600.68z"/>
		</g>
	</g>
	<g>
		<g>
			<g>
				<g>
					<g>
						<g>
							<path d="M542.37,1033.72c24.24,15.98,47.55,33.3,71.72,49.38c23.09,15.36,47.78,32.86,74.3,41.59
								c23.29,7.67,51.32,6.87,72.24-7.07c17.87-11.9,30.14-31.36,42.7-48.31c10.26-13.86,28.07-20.44,43.88-10.93
								c13.71,8.24,21.27,29.93,10.93,43.88c-18.03,24.34-35.32,49.21-60.23,67.06c-29.6,21.21-68.74,27.35-104.21,22.04
								c-35.05-5.25-65.87-24.01-95.48-42.46c-30.39-18.94-58.91-40.67-88.8-60.38C475.18,1065.96,507.88,1010.98,542.37,1033.72z"
								/>
						</g>
						<g>
							<g>
								<path style="fill:#FFFFFF;" d="M507.44,935.04c-0.28-0.01-1.82-7.62-6.75-14.14c-7.41-9.81-22.28-20.11-33.85-24.61
									c-10.11-3.93-21.45-4.02-30.79,2.35c-10.32,7.04-11.5,20.99-5.46,31.33c-1.11-0.58-2.77-1.33-4.88-1.9
									c-1.35-0.37-2.32-0.5-2.59-0.53c-3.77-0.38-7.62-0.24-11.32,0.59c-8.64,1.93-15.57,8.19-19.08,16.23
									c-4,9.16-2.62,18.78-0.94,28.31c-0.27,0.04-3.19,0.31-3.45,0.36c-18.2,2.9-28.2,20.35-24.67,38.43
									c8.44,43.21,61.49,52.85,61.49,52.85c11.58,63.82,64.76,40.56,64.76,40.56c15.71,35.66,50.93,20.01,90.44-34.56
									c39.52-54.57-17.87-56.01-17.87-56.01C598.14,938.3,523.57,935.7,507.44,935.04z"/>
								<path d="M513.99,1125.75c-0.9,0-1.79-0.05-2.66-0.14c-9.46-1.01-16.97-7.23-22.33-18.51c-5.52,2.05-24.04,7.69-40.55-1.11
									c-12.63-6.73-20.97-20.25-24.81-40.22c-8.04-1.8-53.85-13.78-61.71-53.99c-1.94-9.91,0.02-19.98,5.38-27.64
									c4.85-6.94,12.21-11.5,20.73-12.86c0.13-0.02,0.88-0.1,1.67-0.18c-1.65-9.75-2.48-18.63,1.38-27.45
									c3.85-8.81,11.44-15.26,20.31-17.23c3.74-0.84,7.75-1.05,11.88-0.63c0.12,0.01,1.21,0.13,2.87,0.58
									c0.29,0.08,0.57,0.16,0.85,0.25c-4.31-11.05-1.22-23.12,8.04-29.43c9.12-6.22,20.63-7.12,32.42-2.53
									c12.58,4.89,27.47,15.72,34.62,25.19c3.93,5.21,5.78,11.01,6.57,13.48c0,0,0,0.01,0,0.01c12.4,0.52,46.28,2.42,59.7,24.52
									c8.16,13.44,7.07,31.88-3.23,54.84c6.41,0.62,22.7,3.38,28.67,15.46c5.18,10.47,1.13,24.99-12.04,43.17
									C556.24,1106.58,532.31,1125.75,513.99,1125.75z M490.81,1102.54l0.71,1.6c4.85,11.02,11.64,17.06,20.18,17.97
									c17.38,1.82,41.21-16.93,67.22-52.86c12.34-17.03,16.29-30.33,11.74-39.54c-6.4-12.96-28.01-13.68-28.22-13.69l-2.69-0.07
									l1.14-2.43c10.75-22.91,12.26-41.03,4.48-53.85c-12.78-21.04-46.61-22.42-57.72-22.87l-0.29-0.01
									c-1.28-0.06-1.6-1.04-2.03-2.4c-0.73-2.31-2.46-7.71-6.03-12.44c-6.81-9.01-21.04-19.34-33.09-24.03
									c-10.67-4.15-21.03-3.39-29.16,2.16c-10.16,6.93-10.13,20.1-4.93,28.98l3.09,5.28l-5.42-2.83c-1.4-0.73-2.93-1.33-4.52-1.76
									c-1.2-0.33-2.07-0.45-2.31-0.48c-3.77-0.38-7.38-0.2-10.77,0.56c-7.77,1.73-14.45,7.42-17.85,15.21
									c-3.71,8.48-2.56,17.38-0.82,27.3l0.32,1.78l-1.79,0.26c-0.14,0.02-0.91,0.1-1.71,0.18c-0.76,0.07-1.55,0.15-1.73,0.18
									c-7.66,1.22-14.03,5.16-18.39,11.4c-4.81,6.88-6.56,15.98-4.81,24.96c8.12,41.55,59.56,51.36,60.08,51.45l1.2,0.22l0.22,1.2
									c3.53,19.48,11.34,32.57,23.2,38.9c17.76,9.48,38.92,0.46,39.13,0.37L490.81,1102.54z M507.45,934.85l-0.01,0.19l0.04-0.2
									L507.45,934.85z"/>
							</g>
							<g>
								<g>
									<g>
										<path style="fill:#FFFFFF;" d="M388.88,1027.85c0,0,68.19,29.23,72.38-3.96c4.26-33.67-69.49-51.24-69.49-51.24
											L388.88,1027.85z"/>
										<path d="M437.74,1041.5c-21.18,0-48.1-11.41-49.56-12.03l1.39-3.23c0.45,0.19,44.8,19.01,62.82,8.68
											c4.13-2.37,6.46-6.04,7.12-11.25c4.02-31.73-67.43-49.13-68.16-49.3l0.82-3.42c3.07,0.73,75.23,18.32,70.83,53.17
											c-0.8,6.28-3.78,10.94-8.87,13.86C449.7,1040.51,443.97,1041.5,437.74,1041.5z"/>
									</g>
									<g>
										<path style="fill:#FFFFFF;" d="M407.53,977.43c51.06,17.53,54.59,46.08,54.59,46.08c75.35-36.49-33-94.42-33-94.42
											c36.04,19.26,50.76,40.06,50.76,40.06c63.53-32.05,1.7-74.14-26.7-75.27L407.53,977.43z"/>
										<path d="M460.69,1026.16l-0.32-2.42c-0.04-0.27-4.18-27.74-53.41-44.64l1.14-3.33c43.58,14.96,53.23,37.77,55.25,45.16
											c15.48-7.94,23.44-17.39,23.65-28.13c0.6-29.99-57.72-61.63-58.7-62.16c0,0-0.01,0-0.01,0l0,0l1.66-3.1c0,0,0.01,0,0.01,0
											c31.45,16.8,46.69,34.57,50.44,39.37c19.01-9.91,27.62-21.72,24.92-34.19c-4.23-19.49-34.61-36.39-52.19-37.08l0.14-3.51
											c18.58,0.74,50.79,18.18,55.49,39.85c2.15,9.92-0.78,24.47-26.57,37.97c5.18,7.33,8.5,15.11,8.35,22.93
											c-0.25,12.62-9.55,23.46-27.64,32.22L460.69,1026.16z"/>
									</g>
								</g>
								<g>
									<path style="fill:#FFFFFF;" d="M566.49,1014.75c6.87-19,6.6-35.51,5.27-43.45c-3.39-20.24-21.9-29.16-47.5-33.7
										c-33.48-5.93-49.58-4.69-66.18-1.47c-11.84,2.3-21.49,12.07-22.11,24.11c-1.77,34.71,70.43,39.78,70.43,39.78
										s-45.54,43.81,16.55,63.88L566.49,1014.75z"/>
									<path d="M522.4,1065.58c-19.28-6.23-30.45-15.45-33.2-27.37c-3.57-15.46,8.06-30.71,13.43-36.76
										c-15.02-1.57-70.04-9.51-68.42-41.3c0.63-12.4,10.52-23.23,23.53-25.75c17.71-3.43,34.32-4.3,66.82,1.47
										c19.04,3.37,44.83,10.68,48.93,35.14c1.63,9.77,1.09,26.54-5.35,44.34l-3.3-1.2c6.21-17.16,6.75-33.24,5.19-42.57
										c-2.88-17.17-17.09-27.12-46.07-32.25c-31.97-5.66-48.24-4.82-65.55-1.47c-11.43,2.22-20.14,11.67-20.68,22.48
										c-1.66,32.61,68.09,37.89,68.8,37.94l3.94,0.28l-2.85,2.74c-0.19,0.18-19.04,18.61-14.99,36.14
										c2.46,10.64,12.84,18.98,30.86,24.81L522.4,1065.58z"/>
								</g>
							</g>
							<g>
								<g>
									<path d="M490.79,1106.58l-1.15-3.32c9.61-3.32,20.13-11.26,31.27-23.62l2.61,2.36
										C511.98,1094.8,500.96,1103.07,490.79,1106.58z"/>
								</g>
								<g>
									<path d="M544.03,1063l-2.43-2.55c14.38-13.7,20.25-36.05,23.06-46.8l3.42,0.83C565.17,1025.6,559.14,1048.61,544.03,1063z"
										/>
								</g>
							</g>
						</g>
					</g>
				</g>
				<g>
					<g>
						<path d="M1429.91,966.17c24.02-2.45,48.02-5.38,72.21-4.57c26.27,0.88,52.56,4.2,78.63,7.43
							c45.97,5.71,98.85,12.82,137.59,40.01c34.65,24.32,55.14,65.03,69.7,103.63c16.95,44.9,25.77,92.55,34.09,139.66
							c3.01,17.01-13.1,33.21-29.19,34.54c-18.54,1.54-31.53-12.12-34.54-29.19c-7.06-39.98-14.8-79.87-28.61-118.16
							c-10.41-28.85-24.59-63.98-51.85-81.08c-14.76-9.26-33.24-12.87-49.98-16.64c-21.44-4.82-43.17-8.03-64.98-10.64
							c-21.23-2.53-42.83-5.89-64.23-6.03c-21.24-0.13-42.4,2.62-63.49,4.76C1394.25,1034.08,1389,970.34,1429.91,966.17z"/>
					</g>
					<g>
						<g>
							<g>
								<path style="fill:#FFFFFF;" d="M1744.28,1235.25c0,0-30.13-25.93-5.97-37.77c18.41-9.02,61.76-15.78,81.37-18.49
									c9.05-1.25,18.35,2.33,23.43,9.92c3.28,4.91,3.33,19.72-0.24,27.66c12.67,11.26,35.4,24.89,46.53,58.58
									c8.33,25.2,11.24,53.66,6.71,79.89c-2.33,13.49-7.03,26.26-17.03,35.93c-5.56,5.37-12.51,9.92-20.2,11.41
									c-3.83,0.74-7.77,0.65-11.51-0.47c-1.09-0.33-8.66-2.87-8.66-2.87s-27.89,29.92-51.46-3.32c0,0-47.07,43.38-52.41-40.92
									c-0.32-5.1-23.22-4.96-37.04-21.84c-2.05-2.5-16.07-20.12-13.99-42.15C1686.28,1264.57,1710.69,1240.93,1744.28,1235.25z"/>
								<path d="M1812.71,1413.15c-0.6,0-1.21-0.02-1.81-0.06c-8.9-0.59-16.94-5.58-23.94-14.81c-4.62,3.78-19.04,14.17-32.19,8.89
									c-12.51-5.02-19.79-22.6-21.67-52.27c-0.3-0.89-4.52-2.31-7.6-3.34c-8.08-2.71-20.29-6.81-29.04-17.49
									c-2.77-3.38-16.46-21.35-14.38-43.43c2.54-26.95,26.38-49.78,58.48-56.47c-4.82-4.78-14.55-15.79-13.26-25.87
									c0.67-5.22,4.12-9.39,10.26-12.4c18.83-9.23,63.54-16.12,81.9-18.65c10.02-1.38,19.87,2.81,25.14,10.68
									c3.56,5.33,3.68,19.55,0.4,28.14c1.83,1.58,3.84,3.22,5.98,4.96c12.94,10.52,30.66,24.93,40.12,53.57
									c8.77,26.54,11.18,55.22,6.78,80.74c-2.78,16.11-8.53,28.18-17.54,36.89c-4.6,4.44-11.99,10.11-21.09,11.87
									c-4.28,0.83-8.44,0.65-12.35-0.52c-0.84-0.25-5.55-1.83-7.68-2.54C1836.24,1403.91,1825.72,1413.15,1812.71,1413.15z
									 M1787.53,1393.06l1.16,1.63c6.61,9.33,14.17,14.34,22.44,14.89c14.36,0.97,26.18-11.63,26.29-11.75l0.77-0.83l1.08,0.36
									c0,0,7.53,2.53,8.61,2.85c3.37,1.01,6.95,1.15,10.67,0.43c8.25-1.6,15.05-6.84,19.31-10.95
									c8.47-8.18,13.87-19.62,16.52-34.96c4.31-24.97,1.95-53.04-6.64-79.04c-9.14-27.66-26.4-41.69-39-51.94
									c-2.56-2.08-4.93-4.01-7.03-5.88l-0.96-0.86l0.53-1.18c3.44-7.65,3.17-21.78,0.38-25.96c-4.52-6.76-13.03-10.34-21.73-9.16
									c-18.18,2.51-62.46,9.32-80.83,18.33c-5.01,2.45-7.8,5.71-8.31,9.68c-1.43,11.17,14.49,25.04,14.65,25.18l2.83,2.44
									l-3.69,0.63c-31.75,5.37-56.57,28.07-59,53.98c-1.95,20.72,10.99,37.69,13.6,40.88c8.11,9.9,19.74,13.8,27.44,16.38
									c5.9,1.98,9.79,3.28,9.99,6.45c1.79,28.19,8.33,44.76,19.46,49.23c13.54,5.44,29.84-9.34,30-9.49L1787.53,1393.06z"/>
							</g>
							<g>
								<line style="fill:none;" x1="1787.5" y1="1394.84" x2="1788.25" y2="1362.34"/>
								
									<rect x="1771.61" y="1376.88" transform="matrix(0.0234 -0.9997 0.9997 0.0234 367.757 3133.7476)" width="32.5" height="3.52"/>
							</g>
							<g>
								<line style="fill:none;" x1="1838.71" y1="1399.03" x2="1836.73" y2="1365.25"/>
								
									<rect x="1835.93" y="1365.32" transform="matrix(0.9983 -0.0585 0.0585 0.9983 -77.713 109.8704)" width="3.52" height="33.84"/>
							</g>
							<g>
								<line style="fill:none;" x1="1734.84" y1="1354.79" x2="1733.58" y2="1307.87"/>
								
									<rect x="1732.36" y="1307.86" transform="matrix(0.9996 -0.0269 0.0269 0.9996 -35.1863 47.1314)" width="3.52" height="46.93"/>
							</g>
							<g>
								<line style="fill:none;" x1="1744.28" y1="1235.25" x2="1776.63" y2="1228.69"/>
								
									<rect x="1743.99" y="1230.22" transform="matrix(0.98 -0.1991 0.1991 0.98 -210.0379 375.1713)" width="33.01" height="3.52"/>
							</g>
							<g>
								<line style="fill:none;" x1="1819.36" y1="1221.81" x2="1842.87" y2="1216.56"/>
								
									<rect x="1819.06" y="1217.52" transform="matrix(0.9758 -0.2187 0.2187 0.9758 -222.3271 429.9744)" width="24.09" height="3.52"/>
							</g>
						</g>
					</g>
				</g>
			</g>
			<g>
				<g>
					<g>
						<path d="M911,1115.99l66.83,62.9c-37.63,46.04-96.54,164.43-91.85,218.44c7.51,86.47,93.67,95.43,156.32,97.2
							c54.09,1.53,109.31,2.91,163.33-4.29c0.65,6.6,1.28,13.19,1.95,19.79c2.14,20.85,4.4,41.68,6.75,62.51
							c-70.61,9.92-143.4,8.29-213.55,2.62c-78.42-6.34-153.68-40.42-181.76-127.41C793.03,1367.2,864.76,1182.22,911,1115.99z"/>
						<path d="M1104.28,1581.46c-31.87,0-66.12-1.52-103.64-4.55c-120.31-9.72-166.08-75.31-183.29-128.63
							c-15.67-48.56,5.12-128.8,18.9-172.31c19.42-61.3,48.88-126,73.32-160.99l1.16-1.67l69.51,65.42l-1.04,1.27
							c-39.38,48.19-96.02,164.65-91.46,217.18c7,80.59,82.09,93.55,154.62,95.59c50.7,1.43,108.14,3.04,163.05-4.28l1.81-0.24
							l0.63,6.47c0.49,5.04,0.98,10.08,1.5,15.11c1.99,19.45,4.2,39.89,6.75,62.49l0.19,1.7l-1.69,0.24
							C1180.41,1579.07,1144.22,1581.46,1104.28,1581.46z M911.29,1118.67c-46.44,67.88-115.74,250.65-90.6,328.53
							c16.88,52.29,61.85,116.64,180.23,126.2c83.49,6.75,150.74,6,211.47-2.38c-2.47-21.94-4.61-41.85-6.56-60.82
							c-0.52-5.04-1.01-10.09-1.5-15.14l-0.28-2.85c-54.64,7.09-111.55,5.49-161.8,4.07c-74.07-2.09-150.78-15.46-158.02-98.8
							c-4.6-52.85,51.52-169.06,91.21-218.43L911.29,1118.67z"/>
					</g>
					<g>
						<g>
							<path style="fill:#712CE5;" d="M1199.77,1537.94c0,0-52.88-1.73-71.85,17.3c-11.22,11.25-1.18,32.38,14.2,30.8l48.26-4.97
								c3.53-7.63,7.2-17.42,8.69-29.69C1199.66,1546.54,1199.84,1542.04,1199.77,1537.94z"/>
							<path d="M1140.54,1587.88c-7.06,0-13.6-4.37-17-11.51c-3.77-7.89-2.53-16.67,3.14-22.36c19.28-19.35,70.96-17.9,73.15-17.82
								l1.67,0.05l0.03,1.67c0.07,4.57-0.16,9.17-0.71,13.68c-1.25,10.29-4.06,19.89-8.84,30.22l-0.42,0.91l-49.26,5.08
								C1141.72,1587.85,1141.13,1587.88,1140.54,1587.88z M1196.62,1539.66c-11.49,0-51.83,1.15-67.45,16.82
								c-4.61,4.63-5.57,11.83-2.46,18.37c3.04,6.37,8.97,10.07,15.23,9.43l47.26-4.87c2.87-6.31,6.62-15.85,8.12-28.26
								c0.46-3.79,0.69-7.64,0.7-11.49C1197.62,1539.67,1197.15,1539.66,1196.62,1539.66z"/>
						</g>
						<g>
							<path style="fill:#00BEFB;" d="M1294.13,1480.89c4.05,4.94,7.32,10.83,9.89,16.1c11.38,23.34,50.44,233.21,36.39,245.3
								c-36.55,31.45-75.72-72.31-80.11-82.58c0,0-23.58-55.19-71.68-78.92c0,0,29.09-43.28-10.93-91.28
								c-1.61-1.92,64.88-24.87,100.17-19.33C1284.28,1471.18,1289.68,1475.46,1294.13,1480.89z"/>
							<path d="M1326.01,1749.96c-1.71,0-3.44-0.21-5.19-0.63c-19.03-4.59-39.56-33.57-61.01-86.14c-0.5-1.23-0.89-2.17-1.15-2.78
								c-0.23-0.55-23.83-54.84-70.84-78.04l-1.8-0.89l1.11-1.67c1.15-1.73,27.85-42.79-10.82-89.17l-0.78-0.93l0.6-1.23
								c2.16-3.83,67.92-25.37,101.97-20.03c6.15,0.97,11.99,4.78,17.37,11.34c3.47,4.24,6.78,9.62,10.11,16.44
								c10.03,20.57,52.09,233.51,35.95,247.4C1336.65,1747.84,1331.44,1749.96,1326.01,1749.96z M1261.9,1659.02
								c0.26,0.62,0.66,1.58,1.17,2.84c26.15,64.1,46.29,81.09,58.57,84.05c6.23,1.5,12-0.12,17.61-4.95
								c4.09-3.52,4.12-36.22-9.24-116.81c-9.51-57.34-22.13-115.22-27.57-126.39c-3.21-6.58-6.37-11.73-9.67-15.75l0,0
								c-4.81-5.87-9.93-9.27-15.19-10.09c-31.49-4.94-88.1,13.25-97.41,17.86c20.01,24.78,21.8,48.2,19.72,63.61
								c-1.81,13.38-6.65,22.97-8.79,26.69c44.89,23.11,68.08,72.76,70.7,78.99L1261.9,1659.02z M1179.02,1488.38
								c0,0,0.01,0.01,0.01,0.01C1179.03,1488.38,1179.03,1488.38,1179.02,1488.38z"/>
						</g>
						<g>
							<path style="fill:#712CE5;" d="M1238.85,1502.96c-21.21,3.13-38.5-5.95-55.14-16.58c18-7.02,71.14-21.5,98.48-14.22
								C1281.78,1472.89,1267.76,1498.69,1238.85,1502.96z"/>
							<path d="M1230.49,1505.33c-18.62,0-34.28-8.88-47.73-17.47l-2.92-1.86l3.22-1.26c16.59-6.47,71.02-21.88,99.58-14.28
								l2.2,0.59l-1.13,1.98c-1.59,2.84-16.15,27.46-44.61,31.66l0,0C1236.16,1505.13,1233.29,1505.33,1230.49,1505.33z
								 M1187.64,1486.79c14.82,9.24,31.02,17.38,50.95,14.43l0,0c23.36-3.45,36.8-21.55,40.85-27.9
								C1254.74,1468.14,1209.32,1478.99,1187.64,1486.79z"/>
						</g>
						<g>
							<path style="fill:#712CE5;" d="M1238.64,1564.9c9.69,10.48,17.02,22.88,23.26,35.47c8.22,16.57,14.6,34.45,19.32,52.21
								c4.68,17.61,7.57,36.08,6.28,54.3c-0.11,1.54-0.29,3.07-0.45,4.61c-8.28-12.72-17.23-29.53-26.77-51.77
								c0,0-23.58-55.19-71.68-78.92c0,0,10.99-16.39,10.14-40.18C1214.45,1544.69,1227.89,1553.26,1238.64,1564.9z"/>
							<path d="M1288.28,1716.58l-2.7-4.14c-8.96-13.77-18.02-31.28-26.91-52.04c-0.23-0.55-23.9-54.88-70.84-78.04l-1.8-0.89
								l1.11-1.67c0.11-0.16,10.67-16.25,9.85-39.14l-0.08-2.36l2.28,0.59c15.57,4.05,29.27,12.39,40.74,24.8l0,0
								c8.46,9.16,15.94,20.56,23.55,35.88c7.84,15.8,14.38,33.47,19.45,52.54c5.43,20.45,7.51,38.4,6.34,54.87
								c-0.09,1.3-0.23,2.6-0.38,3.9L1288.28,1716.58z M1191.1,1580.07c46.98,24.2,70.57,78.39,70.81,78.94
								c7.91,18.46,15.93,34.3,23.89,47.19c1.06-15.93-0.99-33.33-6.27-53.18c-5-18.84-11.47-36.29-19.2-51.88
								c-7.45-15.02-14.75-26.15-22.98-35.06l0,0c-10.45-11.3-22.81-19.08-36.79-23.16
								C1200.64,1561.68,1193.77,1575.43,1191.1,1580.07z"/>
						</g>
						<g>
							<path d="M1307.43,1503.52c0.76,0.04,1.53,0.07,2.29,0.15c8.75,1.02,15.52,5.66,15.09,10.35c-0.36,3.91-5.62,6.65-12.41,6.8
								L1307.43,1503.52z"/>
							<path d="M1311.07,1522.61l-6.01-20.96l2.44,0.11l-0.08,1.76l0.14-1.75c0.79,0.04,1.57,0.07,2.35,0.16
								c9.85,1.15,17.15,6.54,16.63,12.25c-0.45,4.84-6.12,8.21-14.13,8.4L1311.07,1522.61z M1309.81,1505.46l3.88,13.54
								c5.19-0.41,9.12-2.52,9.36-5.13C1323.34,1510.7,1317.98,1506.5,1309.81,1505.46z"/>
						</g>
						<g>
							<path d="M1305.57,1495.74c6.38-1.3,10.86-4.7,10.72-8.54c-0.18-4.73-7.44-8.25-16.19-7.92c-1.81,0.07-3.49,0.3-5.12,0.69
								C1294.98,1479.97,1299.24,1484.38,1305.57,1495.74z"/>
							<path d="M1304.66,1497.72l-0.63-1.12c-6.11-10.96-10.28-15.36-10.32-15.41l-2.11-2.2l2.96-0.72
								c1.75-0.43,3.54-0.67,5.46-0.74c9.94-0.37,17.79,3.85,18.01,9.61c0.18,4.67-4.69,8.82-12.12,10.33L1304.66,1497.72z
								 M1298.27,1481.17c1.78,2.29,4.63,6.32,8.18,12.56c4.84-1.27,8.17-3.88,8.07-6.46c-0.12-3.2-6.03-6.53-14.37-6.23
								C1299.52,1481.06,1298.89,1481.11,1298.27,1481.17z"/>
						</g>
						<g>
							<path d="M1337.61,1649.04c0.75-0.14,1.49-0.28,2.3-0.38c8.68-1,16.14,2.02,16.62,6.73c0.48,4.66-6.19,9.3-14.88,10.3
								c-0.4,0.05-0.81,0.09-1.16,0.08L1337.61,1649.04z"/>
							<path d="M1340.63,1667.54c-0.07,0-0.15,0-0.21,0l-1.41-0.07l-3.42-19.83l1.69-0.32c0.79-0.15,1.58-0.3,2.43-0.4
								c6.23-0.72,12.22,0.53,15.62,3.27c1.74,1.4,2.76,3.14,2.95,5.03c0.59,5.73-6.63,11.1-16.43,12.23
								C1341.42,1667.5,1341,1667.54,1340.63,1667.54z M1339.64,1650.47l2.32,13.42c7.99-1.07,13.15-5.19,12.83-8.31
								c-0.1-0.95-0.66-1.84-1.66-2.65c-2.66-2.13-7.78-3.11-13.01-2.51C1339.95,1650.43,1339.8,1650.45,1339.64,1650.47z"/>
						</g>
						<g>
							<path d="M1342.26,1678.06c0.34-0.09,0.75-0.14,1.09-0.18c8.68-1.02,16.14,1.98,16.63,6.7c0.49,4.71-6.18,9.32-14.86,10.34
								c-0.17,0.02-0.35,0.04-0.52,0.06L1342.26,1678.06z"/>
							<path d="M1343.1,1696.92l-2.8-20.13l1.47-0.42c0.42-0.12,0.91-0.19,1.34-0.24c6.28-0.74,12.25,0.51,15.66,3.23
								c1.74,1.4,2.77,3.14,2.96,5.03c0.6,5.73-6.61,11.12-16.4,12.27L1343.1,1696.92z M1344.24,1679.55l1.87,13.45
								c7.59-1.22,12.45-5.2,12.13-8.24c-0.1-0.95-0.66-1.85-1.67-2.65C1354.03,1680.07,1349.25,1679.08,1344.24,1679.55z"/>
						</g>
						<g>
							<path d="M1344.94,1707.86c8.49-2.06,16.18,0.04,17.14,4.69c0.96,4.65-5.18,10.04-13.67,12.1c-1.13,0.27-2.27,0.5-3.39,0.59
								L1344.94,1707.86z"/>
							<path d="M1343.28,1727.15l-0.1-20.68l1.35-0.33c6.11-1.48,12.16-0.96,15.82,1.36c1.87,1.19,3.07,2.81,3.46,4.68
								c1.16,5.63-5.41,11.84-14.98,14.16c-1.37,0.33-2.56,0.54-3.65,0.63L1343.28,1727.15z M1346.71,1709.27l0.07,13.93
								c0.39-0.08,0.79-0.17,1.22-0.27c8.11-1.97,13.02-6.87,12.37-10.03c-0.19-0.94-0.83-1.75-1.9-2.43
								C1355.88,1708.83,1351.37,1708.39,1346.71,1709.27z"/>
						</g>
						<g>
							
								<rect x="1218.59" y="1591.52" transform="matrix(0.4557 -0.8901 0.8901 0.4557 -740.4364 1975.642)" width="53.34" height="3.52"/>
						</g>
						<g>
							
								<rect x="1239.56" y="1621.28" transform="matrix(0.4766 -0.8791 0.8791 0.4766 -764.6751 1961.6884)" width="51.16" height="3.52"/>
						</g>
						<g>
							
								<rect x="1254.6" y="1651.2" transform="matrix(0.5153 -0.857 0.857 0.5153 -796.119 1898.2628)" width="51.07" height="3.52"/>
						</g>
					</g>
				</g>
				<g>
					<g>
						<path d="M1021.47,1723.05c-16.58-7.68-33.19-15.31-49.83-22.86c-7.17-3.25-14.37-6.45-21.55-9.68
							c0.18-0.74,0.37-1.47,0.64-2.23c55.29-153.11,171.22-363.77,266.98-488.22l83.17,14.14
							c-113.56,129.88-216.87,335.67-277.45,503.44C1023.18,1718.35,1022.47,1720.29,1021.47,1723.05z"/>
						<path d="M1022.47,1725.45l-1.74-0.81c-16.58-7.68-33.18-15.31-49.82-22.86c-4.43-2.01-8.87-4-13.31-5.99l-9.57-4.3l0.35-1.42
							c0.2-0.79,0.4-1.59,0.69-2.4c54.84-151.87,169.73-361.96,267.24-488.7l0.65-0.84l87.3,14.84l-2.07,2.36
							c-119.99,137.23-221.83,349.75-277.11,502.88L1022.47,1725.45z M952.17,1689.51l6.87,3.08c4.45,1.99,8.89,3.98,13.32,5.99
							c16.06,7.28,32.09,14.66,48.11,22.06l1.31-3.62c55.08-152.54,156.3-363.97,275.72-501.63l-79.04-13.44
							c-97.19,126.58-211.47,335.67-266.08,486.91C952.31,1689.09,952.24,1689.3,952.17,1689.51z"/>
					</g>
					<g>
						<g>
							<path style="fill:#712CE5;" d="M984.21,1668.33c0,0,27.21-45.38,19.79-71.2c-4.39-15.27-27.73-16.77-33.81-2.56l-19.1,44.6
								c4.95,6.79,11.73,14.76,21.73,22.02C976.75,1664.05,980.6,1666.4,984.21,1668.33z"/>
							<path d="M984.86,1670.67l-1.48-0.79c-4.02-2.14-7.92-4.59-11.61-7.26c-8.38-6.09-15.41-13.21-22.11-22.41l-0.59-0.81
								l19.5-45.52c3.06-7.13,10.65-11.36,19.1-10.85c8.73,0.55,15.8,5.89,18.02,13.61c7.54,26.26-18.84,70.71-19.97,72.59
								L984.86,1670.67z M953.1,1638.94c4.12,5.57,10.64,13.49,20.75,20.83c3.1,2.25,6.36,4.33,9.71,6.19
								c4.49-7.92,25.15-46.1,18.76-68.35c-1.8-6.28-7.64-10.62-14.86-11.07c-7.06-0.42-13.19,2.98-15.65,8.73L953.1,1638.94z"/>
						</g>
						<g>
							<path style="fill:#00BEFB;" d="M988.22,1778.52c-6.28,1.14-13.02,1.14-18.87,0.82c-25.93-1.4-228.33-69.25-232.07-87.41
								c-9.72-47.23,99.99-31.04,111.11-29.89c0,0,59.7,6.21,103.81-24.3c0,0,23.69,46.45,85.09,34.8
								c2.46-0.48-9.79,68.79-31.78,96.95C1001.49,1774.63,995.13,1777.27,988.22,1778.52z"/>
							<path d="M975.7,1781.28c-2.04,0-4.19-0.06-6.44-0.18c-22.85-1.23-229.4-67.94-233.69-88.81c-1.72-8.33-0.01-15.36,5.08-20.88
								c13.27-14.41,48.56-18.26,104.94-11.45c1.31,0.16,2.32,0.28,2.98,0.35c0.59,0.07,59.58,5.78,102.63-23.99l1.65-1.14
								l0.92,1.79c0.95,1.85,23.88,45.13,83.19,33.88l1.19-0.22l0.79,1.12c2.3,3.75-10.82,71.68-32.05,98.86
								c-3.83,4.9-10,8.16-18.35,9.67l0,0C984.75,1780.94,980.51,1781.28,975.7,1781.28z M798.24,1660.23
								c-34.05,0-48.78,6.79-55.01,13.56c-4.34,4.71-5.72,10.54-4.23,17.8c1.09,5.28,29.65,21.2,106.59,48.69
								c54.73,19.56,111.45,36.65,123.86,37.32c7.3,0.4,13.35,0.13,18.47-0.79l0,0c7.47-1.35,12.92-4.17,16.2-8.37
								c19.61-25.1,31.23-83.44,31.72-93.81c-31.37,5.44-52.72-4.37-65.18-13.67c-10.81-8.08-16.84-16.97-19.06-20.66
								c-43.98,29.3-102.81,23.58-103.4,23.52c-0.67-0.07-1.7-0.2-3.04-0.36C826.44,1661.18,810.98,1660.23,798.24,1660.23z
								 M1037.62,1674.28c-0.01,0-0.01,0-0.02,0C1037.6,1674.28,1037.61,1674.28,1037.62,1674.28z"/>
						</g>
						<g>
							<path style="fill:#712CE5;" d="M995.8,1719.48c7.57-20.06,23.91-30.76,41.28-40.14c-2.61,19.14-15.78,72.62-35.43,92.99
								C1001.21,1771.61,985.48,1746.82,995.8,1719.48z"/>
							<path d="M1001.34,1775.18l-1.18-1.94c-1.71-2.76-16.18-27.42-6-54.38l0,0c8.02-21.24,25.93-32.33,42.09-41.06l3.04-1.65
								l-0.47,3.43c-2.4,17.65-15.37,72.7-35.91,93.97L1001.34,1775.18z M997.44,1720.1c-8.35,22.11,0.95,42.64,4.53,49.26
								c16.54-19.09,29.12-64.04,32.84-86.78C1019.54,1691.04,1004.55,1701.26,997.44,1720.1L997.44,1720.1z"/>
						</g>
						<g>
							<path style="fill:#712CE5;" d="M941.77,1689.2c-13.87,3.37-28.27,3.75-42.3,3.09c-18.48-0.86-37.2-3.98-55.02-8.48
								c-17.66-4.47-35.22-10.92-50.51-20.89c-1.29-0.84-2.55-1.74-3.81-2.63c15.15-1.06,34.18-0.72,58.26,1.77
								c0,0,59.7,6.21,103.81-24.3c0,0,8.99,17.57,30.19,28.39C971.18,1677.88,957.16,1685.46,941.77,1689.2z"/>
							<path d="M910.19,1694.32c-3.45,0-7.05-0.09-10.81-0.27c-17.61-0.82-36.24-3.7-55.37-8.54c-20.51-5.19-37.2-12.1-51.04-21.13
								c-1.06-0.69-2.09-1.42-3.13-2.15l-4.78-3.36l4.93-0.34c16.38-1.14,36.09-0.54,58.56,1.77c0.6,0.07,59.58,5.78,102.63-23.99
								l1.65-1.14l0.92,1.78c0.08,0.17,9.02,17.22,29.42,27.63l2.1,1.07l-1.63,1.71c-11.1,11.64-25.06,19.57-41.47,23.55l0,0
								C932.74,1693.21,922.39,1694.32,910.19,1694.32z M795.35,1661.74c13.42,8.67,29.62,15.33,49.52,20.37
								c18.9,4.78,37.3,7.62,54.67,8.43c16.74,0.78,30.03-0.18,41.81-3.05l0,0c14.95-3.64,27.77-10.66,38.13-20.9
								c-16.43-9.04-25.12-21.72-27.87-26.32c-43.98,29.3-102.81,23.58-103.4,23.52C828.21,1661.74,810.45,1661.05,795.35,1661.74z"
								/>
						</g>
						<g>
							<path d="M961.98,1779.14c-0.4,0.65-0.8,1.3-1.25,1.92c-5.15,7.15-12.49,10.81-16.37,8.16c-3.25-2.21-3.08-8.14,0.09-14.15
								L961.98,1779.14z"/>
							<path d="M947.35,1791.83c-1.48,0-2.84-0.37-3.99-1.16c-4.02-2.74-4.2-9.34-0.47-16.43l0.63-1.2l21.24,4.94l-1.28,2.08
								l-1.5-0.92l1.42,1.04c-0.4,0.65-0.8,1.29-1.24,1.91C957.77,1788.19,951.97,1791.83,947.35,1791.83z M945.41,1777.1
								c-2.16,4.74-2.23,9.19-0.06,10.67c2.63,1.8,8.89-0.85,13.77-7.49L945.41,1777.1z"/>
						</g>
						<g>
							<path d="M969.68,1781.3c-1.97,6.2-1.17,11.78,2.25,13.51c4.22,2.14,10.83-2.49,14.79-10.3c0.82-1.61,1.44-3.2,1.88-4.81
								C988.61,1779.71,982.68,1781.29,969.68,1781.3z"/>
							<path d="M974.16,1797.08c-1.07,0-2.08-0.22-3.02-0.7c-4.16-2.11-5.42-8.39-3.13-15.61l0.39-1.23h1.29
								c12.54-0.01,18.42-1.52,18.48-1.53l2.95-0.77l-0.81,2.94c-0.48,1.74-1.14,3.42-2.01,5.14
								C984.63,1792.52,978.93,1797.08,974.16,1797.08z M971.01,1783.05c-1.24,4.85-0.58,9.03,1.72,10.2
								c2.85,1.45,8.66-2.11,12.43-9.53c0.29-0.58,0.56-1.15,0.79-1.71C983.09,1782.45,978.18,1782.99,971.01,1783.05z"/>
						</g>
						<g>
							<path d="M820.13,1734.81c-0.24,0.72-0.48,1.44-0.79,2.2c-3.35,8.08-9.61,13.13-13.96,11.26c-4.31-1.85-5.12-9.94-1.78-18.01
								c0.15-0.38,0.31-0.75,0.5-1.05L820.13,1734.81z"/>
							<path d="M807.31,1750.41c-0.92,0-1.81-0.18-2.63-0.53c-5.29-2.27-6.48-11.19-2.71-20.3c0.19-0.46,0.39-0.93,0.63-1.3
								l0.74-1.21l19,6.66l-0.54,1.64l-1.67-0.56l1.63,0.68c-0.24,0.72-0.48,1.44-0.79,2.19c-2.4,5.8-6.41,10.42-10.45,12.06
								C809.43,1750.19,808.35,1750.41,807.31,1750.41z M805.04,1731.39c-2.96,7.5-1.86,14.02,1.03,15.26
								c0.88,0.38,1.93,0.33,3.13-0.16c3.15-1.28,6.5-5.27,8.52-10.15c0.06-0.15,0.12-0.3,0.18-0.44L805.04,1731.39z"/>
						</g>
						<g>
							<path d="M792.51,1724.77c-0.08,0.34-0.24,0.72-0.37,1.05c-3.33,8.08-9.58,13.15-13.94,11.29c-4.36-1.86-5.14-9.93-1.81-18.01
								c0.07-0.16,0.13-0.32,0.2-0.49L792.51,1724.77z"/>
							<path d="M780.13,1739.24c-0.92,0-1.8-0.18-2.62-0.52c-5.3-2.26-6.51-11.18-2.75-20.3l0.65-1.59l1.81,0.14l17.35,6.72
								l-0.36,1.49c-0.1,0.43-0.29,0.9-0.46,1.31c-2.39,5.8-6.38,10.43-10.41,12.08C782.25,1739.02,781.17,1739.24,780.13,1739.24z
								 M777.58,1720.87c-2.63,7.22-1.5,13.41,1.31,14.61c0.89,0.38,1.94,0.32,3.13-0.17c3.01-1.23,6.19-4.94,8.23-9.54
								L777.58,1720.87z"/>
						</g>
						<g>
							<path d="M765.16,1712.64c-2.33,8.42-7.9,14.12-12.43,12.7c-4.53-1.42-6.26-9.41-3.93-17.83c0.31-1.12,0.68-2.23,1.13-3.25
								L765.16,1712.64z"/>
							<path d="M754.16,1727.32c-0.66,0-1.32-0.1-1.95-0.3c-5.48-1.72-7.72-10.49-5.09-19.97c0.37-1.35,0.77-2.49,1.21-3.49
								l0.78-1.75l18.12,9.96l-0.37,1.34c-1.67,6.05-5.07,11.1-8.87,13.16C756.71,1726.96,755.42,1727.32,754.16,1727.32z
								 M750.86,1706.78c-0.12,0.38-0.24,0.77-0.36,1.2c-2.23,8.04-0.33,14.72,2.76,15.68c0.91,0.29,1.94,0.13,3.04-0.48
								c2.69-1.46,5.26-5.19,6.76-9.69L750.86,1706.78z"/>
						</g>
						<g>
							
								<rect x="911.82" y="1654.55" transform="matrix(0.8308 -0.5565 0.5565 0.8308 -781.0914 792.8329)" width="3.51" height="53.34"/>
						</g>
						<g>
							
								<rect x="876.25" y="1658.51" transform="matrix(0.8438 -0.5366 0.5366 0.8438 -766.5892 734.1652)" width="3.52" height="51.17"/>
						</g>
						<g>
							
								<rect x="842.76" y="1657.17" transform="matrix(0.8669 -0.4985 0.4985 0.8669 -726.4106 644.97)" width="3.52" height="51.07"/>
						</g>
					</g>
				</g>
			</g>
			<g>
				<g>
					<g>
						<path style="fill:#FF9DDE;" d="M751.22,1068.93c80.49,146.03,215.93,241.46,368.7,240.29
							c194.27-1.47,358.05-158.66,415.65-375.82c14.81-55.73,22.61-115.42,22.14-177.44c-0.63-82.5-15.82-160.66-42.55-230.67
							c-32.44-85.11-84.12-163.92-154.3-222.54c-71.27-59.55-157.15-94.02-249.36-93.33c-58.22,0.46-113.71,14.88-164.44,40.73
							c-39.01,19.93-74.7,46.28-105.88,77.05c-0.03,0.01-0.03,0.01-0.03,0.01c-2.5,2.42-4.94,4.96-7.41,7.41
							c-45.26,46.63-81,102.08-106.93,161.58c-34.54,79.12-53.81,169.99-53.1,266.51C674.61,876.3,703.09,981.67,751.22,1068.93z"/>
						<path d="M1117.19,1310.99c-146.94,0.01-284.15-89.99-367.5-241.21l0,0c-49.98-90.6-76.85-196.78-77.71-307.06
							c-0.69-93.44,17.72-185.85,53.24-267.23c44.72-102.82,120.05-195.28,220.83-246.79c52.65-26.83,108.23-40.59,165.46-41.04
							c89.57-0.73,176.3,31.75,250.49,93.75c31.3,25.92,58.8,56.57,83.01,89.21c29.47,41.37,53.81,86.43,71.79,134.01
							c27.71,72.58,42.06,150.4,42.68,231.33c0.46,60.91-7.01,120.76-22.2,177.9c-59.45,224.13-227.16,375.69-417.33,377.13
							C1119.02,1310.99,1118.1,1310.99,1117.19,1310.99z M834.71,336.16c-44.84,46.24-80.55,101.65-106.28,160.74
							c-35.33,80.93-53.63,172.84-52.95,265.79c0.85,109.7,27.57,215.3,77.27,305.39v0c82.72,150.08,218.8,239.39,364.43,239.4
							c0.91,0,1.81,0,2.72-0.01c188.57-1.43,354.93-151.93,413.96-374.52c15.11-56.84,22.54-116.38,22.08-176.97
							c-0.62-80.51-14.89-157.91-42.43-230.06c-32.3-84.77-83.89-163.46-153.76-221.8c-73.56-61.47-159.35-93.54-248.23-92.94
							c-56.68,0.45-111.74,14.08-163.66,40.54c-41.98,21.55-80.29,50.31-112.89,84.37L834.71,336.16z"/>
					</g>
					<g>
						<g>
							<path d="M947.07,250.17c-94.34,48.1-172.05,135.6-220.24,246.03c-0.91-37.65,2.1-79.75,9.46-123.56
								c25.04-147.95,90.75-260.3,146.85-250.82C917.53,127.65,940.35,177.92,947.07,250.17z"/>
							<path d="M725.25,504.18l-0.19-7.94c-0.93-38.59,2.35-81.43,9.49-123.89c25.17-148.72,92.04-261.87,148.88-252.26
								c33.92,5.76,58.36,54.32,65.39,129.92l0.11,1.19C853.08,299.4,772.79,391.06,725.25,504.18z M876.38,123.01
								c-53.55,0-114.49,108.82-138.36,249.92c-6.61,39.35-9.9,79.02-9.57,115.28c48.6-107.43,125.31-192.09,216.76-239.07
								c-7.01-73.23-30.29-120.15-62.36-125.59C880.7,123.19,878.55,123.01,876.38,123.01z"/>
						</g>
						<g>
							<path d="M1553.05,389.72c-8.58,50.49-21.8,96.8-37.89,135.57c-34.41-90.38-88.01-167.26-154.27-222.53
								c29.99-121.1,86.71-206.53,135.85-198.2C1552.83,114.05,1578.07,241.7,1553.05,389.72z"/>
							<path d="M1515.09,530.05c-34.02-91.33-88.27-170.38-156.17-226.64l0.26-1.07c30.7-123.95,88.66-207.85,137.84-199.51
								c27.91,4.72,49.22,37.39,60.01,92.02c10.68,54.07,9.88,123.37-2.26,195.16l0,0c-8.35,49.15-21.49,96.16-38,135.96
								L1515.09,530.05z M1362.86,302.13c65.47,54.87,118.08,130.3,152.35,218.41c15.63-38.67,28.09-83.88,36.11-131.11
								c12.07-71.38,12.87-140.24,2.27-193.89c-10.49-53.09-30.78-84.77-57.15-89.23C1449.18,98.31,1393.16,180.6,1362.86,302.13z"
								/>
						</g>
					</g>
				</g>
				<g>
					<g>
						<path style="fill:#FFBC00;" d="M751.22,1068.93c6.82,12.35,14.03,24.36,21.6,35.95c81.94,125.55,207.26,205.39,347.1,204.34
							c180.93-1.37,335.44-137.84,402.32-332.03c4.93-14.3,9.39-28.89,13.33-43.79l-424.25,119.33l-79.36,91.44l-97.8-54.41
							L751.22,1068.93z"/>
						<path d="M1117.18,1310.99c-134.75,0.01-260.65-74.64-345.83-205.14c-7.52-11.51-14.81-23.65-21.67-36.07l-1.65-2.98
							l186.99,21.43l96.55,53.71l78.77-90.76l0.51-0.14l427.21-120.16l-0.79,2.97c-3.85,14.57-8.35,29.34-13.37,43.91
							c-69.25,201.09-227.82,331.89-403.97,333.22C1119.02,1310.99,1118.09,1310.99,1117.18,1310.99z M754.42,1071.06
							c6.33,11.3,13.01,22.34,19.88,32.86c84.5,129.49,209.35,203.55,342.88,203.55c0.91,0,1.82,0,2.72-0.01
							c174.63-1.32,331.91-131.19,400.67-330.85c4.65-13.5,8.85-27.17,12.5-40.69l-420.77,118.35l-79.95,92.12l-98.74-54.93
							L754.42,1071.06z"/>
					</g>
					<g>
						<path d="M751.22,1068.93c6.82,12.35,14.03,24.36,21.6,35.95l154.09,13.73l108.09,72.58l91.55-106.87l395.68-107.13
							c4.93-14.3,9.39-28.89,13.33-43.79l-424.25,119.33l-79.36,91.44l-97.8-54.41L751.22,1068.93z"/>
						<path d="M1035.34,1193.52l-109.01-73.2l-154.5-13.76l-0.47-0.71c-7.52-11.51-14.81-23.65-21.67-36.07l-1.65-2.98l186.99,21.43
							l96.55,53.71l78.77-90.76l0.51-0.14l427.21-120.16l-0.79,2.97c-3.85,14.57-8.35,29.34-13.37,43.91l-0.3,0.88l-0.9,0.24
							l-395.16,106.99L1035.34,1193.52z M773.84,1103.21l153.69,13.69l0.37,0.25l106.79,71.71l90.89-106.09l0.52-0.14l394.78-106.89
							c4.53-13.21,8.62-26.59,12.2-39.81l-420.77,118.35l-79.95,92.12l-98.74-54.93l-179.19-20.41
							C760.61,1082.11,767.13,1092.9,773.84,1103.21z"/>
					</g>
					<g>
						<ellipse style="fill:#00C793;" cx="1263.95" cy="1147.41" rx="51.71" ry="51.71"/>
						<path d="M1263.96,1200.98c-29.48,0-53.46-23.98-53.46-53.47c0-29.48,23.98-53.46,53.46-53.46c29.48,0,53.47,23.98,53.47,53.46
							C1317.42,1177,1293.44,1200.98,1263.96,1200.98z M1263.96,1097.57c-27.54,0-49.95,22.41-49.95,49.95s22.41,49.95,49.95,49.95
							s49.95-22.41,49.95-49.95S1291.5,1097.57,1263.96,1097.57z"/>
					</g>
				</g>
			</g>
			<g>
				<g>
					<g>
						<g>
							<g>
								<path style="fill:#FFFFFF;" d="M909.77,587.08c-1.28-76.49-27.12-142.68-63.44-173.91c-14.18-12.16-29.89-18.97-46.46-19.05
									c-58.91-0.27-105.22,85.68-103.43,191.96c1.79,106.28,50.99,192.68,109.89,192.96c15.68,0.07,30.44-5.94,43.6-16.76
									C886.43,732.25,911.07,665.17,909.77,587.08z"/>
								<path d="M806.62,780.79c-0.1,0-0.2,0-0.3,0c-59.77-0.28-109.84-87.61-111.64-194.69c-1.18-70.42,19.02-135.35,52.72-169.47
									c15.78-15.97,33.85-24.33,52.48-24.28c16.59,0.08,32.61,6.63,47.59,19.48c37.67,32.39,62.81,101.17,64.05,175.21l0,0
									c1.27,76-22.47,145.32-60.48,176.59C837.21,775.02,822.26,780.79,806.62,780.79z M799.6,395.88
									c-17.49,0-34.67,8.03-49.69,23.24c-33.06,33.46-52.87,97.43-51.71,166.93c1.76,105.18,50.28,190.96,108.14,191.23
									c0.09,0,0.19,0,0.28,0c14.81,0,29-5.5,42.19-16.36c37.22-30.61,60.45-98.84,59.2-173.81l0,0
									c-1.23-73.09-25.89-140.84-62.82-172.6c-14.33-12.29-29.59-18.55-45.32-18.63C799.78,395.88,799.68,395.88,799.6,395.88z"/>
							</g>
							<g>
								<path style="fill:#00BEFB;" d="M849.92,762.27C794.23,756,749,679.97,747.44,587.39c-0.05-3.04-0.05-6.06-0.01-9.06
									l89.19-4.25L751.7,533.7c12.22-67.83,49.34-117.43,94.63-120.53c36.32,31.23,62.15,97.42,63.44,173.91
									C911.07,665.17,886.43,732.25,849.92,762.27z"/>
								<path d="M850.47,764.1l-0.74-0.08c-56.78-6.4-102.49-83.97-104.04-176.61c-0.05-3.06-0.05-6.09-0.01-9.11l0.02-1.65
									l83.84-3.99l-79.81-37.95l0.24-1.32c12.58-69.88,51.26-118.89,96.24-121.97l0.72-0.05l0.54,0.47
									c37.66,32.39,62.8,101.16,64.05,175.21c1.27,76-22.47,145.32-60.48,176.59L850.47,764.1z M749.17,580
									c-0.02,2.44-0.01,4.89,0.03,7.35c1.52,90.5,45.46,166.29,100.18,173.08c36.88-30.84,59.87-98.75,58.63-173.33
									c-1.22-72.72-25.64-140.17-62.28-172.13c-42.76,3.42-79.59,50.54-92.06,117.71l90.04,42.81L749.17,580z"/>
							</g>
						</g>
						<g>
							<g>
								
									<rect x="690.82" y="431.95" transform="matrix(0.1522 -0.9884 0.9884 0.1522 135.7354 1071.7579)" width="3.52" height="49.61"/>
							</g>
							<g>
								<line style="fill:none;" x1="683.75" y1="416.62" x2="725.62" y2="439.45"/>
								
									<rect x="702.91" y="404.2" transform="matrix(0.4788 -0.8779 0.8779 0.4788 -8.5202 841.7311)" width="3.52" height="47.68"/>
							</g>
						</g>
					</g>
					<g>
						<g>
							<g>
								<path style="fill:#FFFFFF;" d="M1262.94,582.34c0.79-76.68-23.18-144.24-58.54-177.32c-13.81-12.88-29.29-20.49-45.8-21.38
									c-58.73-3.19-107.23,80.61-108.33,187.15c-1.1,106.54,45.62,195.51,104.35,198.7c15.63,0.85,30.51-4.44,43.92-14.64
									C1235.75,726.6,1262.14,660.63,1262.94,582.34z"/>
								<path d="M1157.92,771.34c-1.13,0-2.26-0.03-3.4-0.09c-59.56-3.23-107.11-93.17-106.01-200.48
									c0.73-70.73,22.69-134.84,57.33-167.3c16.13-15.13,34.37-22.6,52.85-21.59c16.53,0.89,32.32,8.25,46.91,21.85
									c36.67,34.29,59.87,104.41,59.1,178.63c-0.79,76.19-26.34,144.45-65.1,173.9C1186.43,766.28,1172.42,771.34,1157.92,771.34z
									 M1155.42,385.31c-16.42,0-32.67,7.12-47.18,20.73c-33.95,31.83-55.49,94.97-56.21,164.77
									c-1.09,105.45,44.97,193.8,102.68,196.93c14.82,0.78,29.24-4,42.76-14.28c37.93-28.81,62.94-95.99,63.71-171.14l1.76,0.02
									l-1.76-0.02c0.76-73.28-22.01-142.37-57.99-176.02c-13.97-13.03-29.01-20.06-44.7-20.91
									C1157.47,385.34,1156.45,385.31,1155.42,385.31z"/>
							</g>
							<g>
								<path style="fill:#00BEFB;" d="M1198.54,754.86c-55.36-9.04-98.4-87.42-97.44-180.24c0.03-3.05,0.12-6.07,0.24-9.07
									l89.04,0.16l-83.59-44.64c14.02-67.34,52.38-115.18,97.61-116.05c35.37,33.08,59.33,100.65,58.54,177.32
									C1262.14,660.63,1235.75,726.6,1198.54,754.86z"/>
								<path d="M1199,756.72l-0.75-0.12c-56.43-9.21-99.88-89.15-98.92-181.99c0.03-3.07,0.11-6.11,0.24-9.13l0.07-1.69l83.68,0.15
									L1104.8,522l0.27-1.29c14.44-69.38,54.35-116.58,99.3-117.45l0.71-0.01l0.52,0.49c36.67,34.29,59.86,104.41,59.1,178.62
									c-0.79,76.19-26.34,144.45-65.1,173.9L1199,756.72z M1103.02,567.31c-0.09,2.43-0.15,4.87-0.17,7.33
									c-0.94,90.74,40.83,168.84,95.23,178.36c37.59-29.07,62.34-95.93,63.11-170.68c0.75-72.93-21.78-141.7-57.47-175.53
									c-42.71,1.31-80.7,46.67-94.94,113.34l88.64,47.34L1103.02,567.31z"/>
							</g>
						</g>
						<g>
							<g>
								
									<rect x="1243.63" y="452.9" transform="matrix(0.9745 -0.2246 0.2246 0.9745 -69.7257 296.3375)" width="48.24" height="3.52"/>
							</g>
							<g>
								
									<rect x="1227.74" y="425.03" transform="matrix(0.8226 -0.5686 0.5686 0.8226 -20.887 786.6172)" width="45.04" height="3.52"/>
							</g>
						</g>
					</g>
				</g>
				<g>
					<path style="fill:#FF4568;" d="M1019.43,716.66c1.11,21.52-22.01,40.21-51.63,41.73c-29.62,1.52-54.53-14.69-55.64-36.22
						c-1.11-21.52,22.01-40.21,51.63-41.73C993.41,678.92,1018.32,695.14,1019.43,716.66z"/>
					<path d="M963.97,760.24c-28.8,0-52.47-16.49-53.57-37.98c-1.15-22.46,22.76-42.01,53.3-43.58
						c30.48-1.57,56.33,15.42,57.49,37.88l0,0c1.15,22.46-22.76,42.01-53.3,43.58C966.57,760.21,965.27,760.24,963.97,760.24z
						 M967.63,682.1c-1.24,0-2.49,0.03-3.75,0.1c-28.61,1.47-51.03,19.37-49.97,39.88c1.06,20.52,25.15,36.02,53.8,34.55
						c28.61-1.47,51.03-19.36,49.97-39.88l0,0C1016.66,697.13,994.56,682.1,967.63,682.1z"/>
				</g>
				<g>
					<g id="XMLID_6_">
						<path style="fill:#FFFFFF;" d="M893.95,779.76c0,0-17.25,266.35,78.06,265.93c108.48-0.49,82.5-266.65,82.5-266.65
							c-13.9,7.25-42.98,20.06-81.8,19.87C935.69,798.74,907.82,786.84,893.95,779.76z"/>
						<path d="M971.79,1047.44c-14.05,0-26.52-5.67-37.07-16.87c-22.87-24.29-36.98-73.94-41.92-147.58
							c-3.67-54.65-0.63-102.86-0.6-103.34l0.17-2.67l2.38,1.22c24.06,12.28,51.02,18.83,77.97,18.96c0.26,0,0.53,0,0.8,0
							c35.07,0,62.93-10.68,80.18-19.68l2.31-1.21l0.25,2.59c0.05,0.46,4.47,46.74,1.95,100.03c-3.4,71.79-17.1,121.45-40.72,147.61
							c-12.47,13.81-27.77,20.86-45.47,20.94C971.94,1047.44,971.86,1047.44,971.79,1047.44z M895.56,782.53
							c-0.57,10.81-2.41,53.13,0.75,100.27c4.82,71.75,18.99,122.02,40.97,145.37c9.85,10.46,21.46,15.76,34.51,15.76
							c0.07,0,0.14,0,0.22,0c16.66-0.08,31.09-6.73,42.88-19.78c51.52-57.05,39.98-219.83,38.1-242.36
							c-17.87,8.98-45.67,19.12-80.28,18.88C946.1,800.55,919.49,794.28,895.56,782.53z"/>
					</g>
					<g>
						<polygon points="941.88,1036.43 941.38,796.18 944.9,796.17 945.38,1036.16 						"/>
					</g>
					<g>
						
							<rect x="881.39" y="915.35" transform="matrix(5.799903e-03 -1 1 5.799903e-03 79.0531 1913.7268)" width="241.14" height="3.52"/>
					</g>
					<g>
						
							<rect x="897.56" y="913.73" transform="matrix(1 -3.899970e-03 3.899970e-03 1 -3.563 3.8117)" width="156.04" height="3.52"/>
					</g>
				</g>
				<g>
					<g>
						<path d="M1022.77,446.59c4.52,7.05,43.44-7.96,121.1-38.27c78.41-30.61,117.59-46.07,116.13-54.38
							c-2.33-13.23-72.86-21.91-135.68,2.63C1061.49,381.11,1015.52,435.3,1022.77,446.59z"/>
						<path d="M1027.8,449.98c-3.39,0-5.47-0.82-6.51-2.44l0,0c-1.31-2.05-1.37-4.98-0.16-8.71c6.65-20.48,49.9-63.35,102.55-83.91
							c52.65-20.56,113.5-18.36,132.27-7.81c3.42,1.92,5.36,4.11,5.78,6.52c1.66,9.42-28.83,21.83-117.22,56.32
							C1074.69,437.21,1041.13,449.98,1027.8,449.98z M1024.25,445.64c3.84,5.97,52.14-12.87,118.98-38.96
							c67.5-26.35,116.28-45.38,115.04-52.44c-0.23-1.28-1.66-2.72-4.04-4.06c-15.56-8.74-73.65-13.7-129.27,8.02
							c-55.61,21.72-94.97,64.74-100.48,81.72C1023.63,442.52,1023.55,444.55,1024.25,445.64L1024.25,445.64z"/>
					</g>
					<g>
						<path d="M723.38,367.62c-1.85,8.13,31.6,22.34,98.57,50.44c67.63,28.37,101.54,42.41,106.07,35.35
							c7.22-11.26-29.99-63.44-84.18-86.16C789.64,344.53,726.34,354.59,723.38,367.62z"/>
						<path d="M923.06,456.92c-12.24,0-41.57-11.98-101.79-37.24c-75.66-31.74-101.71-43.18-99.61-52.45
							c0.62-2.75,3.12-5.26,7.42-7.47c18.61-9.58,70.43-13,115.43,5.87c45,18.86,78.89,58.21,85.11,78.19
							c1.43,4.62,1.39,8.17-0.13,10.54C928.41,456.06,926.35,456.92,923.06,456.92z M774.09,355.45c-19,0-34.85,3.03-43.4,7.43
							c-3.24,1.67-5.22,3.49-5.6,5.13l0,0c-1.55,6.86,40.01,24.29,97.54,48.43c58.1,24.38,100.09,42,103.91,36.02
							c0.91-1.42,0.81-4.11-0.27-7.6c-6.02-19.34-39.08-57.54-83.11-75.99C820.03,359.17,795.12,355.45,774.09,355.45z"/>
					</g>
				</g>
			</g>
		</g>
		<g>
			<g>
				<g>
					<path style="fill:#FFFFFF;" d="M102.76,1603.83c-1.71,21.03,0.61,41.5,6.45,60.56c13.88,46.12,47.83,84.14,92.41,103.13
						c15.75,6.78,32.84,11.07,50.86,12.54c18.02,1.46,35.58-0.01,52.22-4.16c51.9-12.66,94.71-50.31,113.76-100.46
						c5.44-14.09,8.95-29.29,10.24-45.11c2.03-24.99-1.63-49.11-10.02-71.09c-15.49-41.07-47.21-74.62-87.93-92.21
						c-15.99-6.99-33.39-11.43-51.78-12.93c-18.39-1.49-36.28,0.08-53.19,4.4c-46.77,11.75-86.03,43.75-107.04,86.91
						C110.04,1563.22,104.46,1582.92,102.76,1603.83z"/>
					<path d="M266,1782.36c-4.54,0-9.09-0.19-13.66-0.56c-17.96-1.46-35.26-5.72-51.42-12.67c-45.21-19.25-79.26-57.24-93.4-104.23
						c-6.03-19.65-8.23-40.25-6.53-61.21l0,0c1.68-20.69,7.12-40.56,16.17-59.05c21.39-43.93,60.83-75.95,108.19-87.85
						c17.38-4.44,35.48-5.93,53.76-4.45c18.29,1.49,35.9,5.89,52.34,13.07c40.78,17.61,73.17,51.58,88.87,93.2
						c8.73,22.89,12.14,47.06,10.13,71.85c-1.28,15.79-4.76,31.13-10.35,45.6c-19.27,50.72-62.26,88.68-114.99,101.54
						C292.41,1780.77,279.29,1782.36,266,1782.36z M104.51,1603.97c-1.67,20.52,0.49,40.67,6.38,59.9
						c13.85,46,47.17,83.18,91.43,102.02c15.81,6.8,32.74,10.98,50.31,12.4c17.59,1.43,34.95,0.05,51.65-4.11
						c51.62-12.59,93.69-49.74,112.54-99.38c5.47-14.16,8.87-29.17,10.13-44.63c1.97-24.26-1.36-47.92-9.91-70.32
						c-15.37-40.73-47.07-73.98-86.99-91.22c-16.1-7.04-33.33-11.34-51.22-12.79c-17.89-1.46-35.6,0.01-52.61,4.35
						c-46.36,11.64-84.96,42.98-105.9,85.98C111.48,1564.28,106.16,1583.72,104.51,1603.97L104.51,1603.97z"/>
				</g>
				<g>
					<g>
						<polygon points="226.29,1673.54 294.93,1679.48 334.39,1623 305.2,1560.59 236.56,1554.65 197.11,1611.14 						"/>
						<path d="M295.79,1681.31l-70.66-6.11l-30.04-64.25l40.62-58.14l70.66,6.11l30.04,64.25L295.79,1681.31z M227.46,1671.88
							l66.62,5.76l38.29-54.82l-28.33-60.57l-66.62-5.76l-38.29,54.82L227.46,1671.88z"/>
					</g>
					<g>
						<path d="M102.76,1603.83c-1.71,21.03,0.61,41.5,6.45,60.56l5.4,0.44l39.48-56.51l-29.18-62.41l-6.15-0.5
							C110.04,1563.22,104.46,1582.92,102.76,1603.83z"/>
						<path d="M115.47,1666.66l-7.59-0.62l-0.35-1.14c-6.03-19.66-8.23-40.25-6.53-61.22l0,0c1.68-20.69,7.12-40.56,16.17-59.05
							l0.53-1.08l8.36,0.68l30.04,64.25L115.47,1666.66z M110.55,1662.74l3.2,0.26l38.32-54.85l-28.32-60.56l-3.93-0.32
							c-8.54,17.79-13.69,36.86-15.3,56.71l0,0C102.88,1624.09,104.91,1643.85,110.55,1662.74z"/>
					</g>
					<g>
						<path d="M225.79,1458.5l15.29,32.71l68.65,5.96l21.03-30.14c-15.99-6.99-33.39-11.43-51.78-12.93
							C260.59,1452.6,242.7,1454.18,225.79,1458.5z"/>
						<path d="M310.6,1499.01l-70.68-6.14l-16.62-35.56l2.06-0.52c17.39-4.44,35.49-5.93,53.76-4.45
							c18.29,1.49,35.9,5.89,52.34,13.07l1.97,0.86L310.6,1499.01z M242.25,1489.55l66.62,5.78l19.21-27.54
							c-15.52-6.53-32.07-10.55-49.24-11.94c-17.17-1.4-34.17-0.11-50.55,3.84L242.25,1489.55z"/>
					</g>
					<g>
						<path d="M201.62,1767.52c15.75,6.78,32.84,11.07,50.86,12.54c18.02,1.46,35.58-0.01,52.22-4.16l-14.48-31.01l-68.65-5.96
							L201.62,1767.52z"/>
						<path d="M266,1782.36c-4.54,0-9.09-0.19-13.66-0.56c-17.96-1.46-35.26-5.72-51.42-12.67l-1.98-0.85l21.77-31.19l70.67,6.14
							l15.81,33.86l-2.07,0.52C292.41,1780.77,279.29,1782.36,266,1782.36z M204.31,1766.74c15.23,6.3,31.48,10.19,48.32,11.56
							c16.85,1.37,33.52,0.15,49.58-3.61l-13.14-28.14l-66.63-5.78L204.31,1766.74z"/>
					</g>
					<g>
						<path d="M381.64,1612.34l29.18,62.41l7.65,0.69c5.44-14.09,8.95-29.29,10.24-45.11c2.03-24.99-1.63-49.11-10.02-71.09
							L381.64,1612.34z"/>
						<path d="M419.64,1677.3l-9.98-0.89l-30.04-64.24l39.54-56.66l1.18,3.1c8.74,22.9,12.15,47.07,10.13,71.86
							c-1.28,15.79-4.76,31.13-10.35,45.6L419.64,1677.3z M411.99,1673.09l5.32,0.47c5.19-13.79,8.43-28.38,9.65-43.38
							c1.88-23.13-1.07-45.72-8.75-67.18l-34.55,49.52L411.99,1673.09z"/>
					</g>
				</g>
			</g>
			<g>
				<g>
					<rect x="432.05" y="1710.97" width="191.69" height="3.52"/>
				</g>
				<g>
					<rect x="487.5" y="1745.82" width="191.7" height="3.52"/>
				</g>
			</g>
		</g>
	</g>
</g>
</svg>
