<?xml version="1.0" encoding="iso-8859-1"?>
<!-- Generator: Adobe Illustrator 30.0.0, SVG Export Plug-In . SVG Version: 9.03 Build 0)  -->
<svg version="1.1" id="Capa_1" xmlns="http://www.w3.org/2000/svg" xmlns:xlink="http://www.w3.org/1999/xlink" x="0px" y="0px"
	 viewBox="0 0 2000 2000" style="enable-background:new 0 0 2000 2000;" xml:space="preserve">
<g>
	<g>
		<g id="XMLID_26_">
			<rect x="100.02" y="1465.85" style="fill:#00C793;" width="1799.95" height="434.1"/>
		</g>
		<g style="opacity:0.27;">
			<g style="opacity:0.27;">
				<rect x="100.02" y="1465.85" style="fill:#FFFFFF;" width="196.19" height="434.1"/>
			</g>
			<g style="opacity:0.27;">
				<rect x="807.04" y="1465.85" style="fill:#FFFFFF;" width="209.29" height="434.1"/>
			</g>
			<g style="opacity:0.27;">
				<rect x="1153.18" y="1465.85" style="fill:#FFFFFF;" width="206.67" height="434.1"/>
			</g>
			<g style="opacity:0.27;">
				<rect x="1496.7" y="1465.85" style="fill:#FFFFFF;" width="169.95" height="434.1"/>
			</g>
			<g style="opacity:0.27;">
				<rect x="1803.5" y="1465.85" style="fill:#FFFFFF;" width="96.47" height="434.1"/>
			</g>
			<g style="opacity:0.27;">
				<rect x="464.39" y="1465.85" style="fill:#FFFFFF;" width="205.8" height="434.1"/>
			</g>
		</g>
		<g>
			<g>
				<rect x="100.02" y="1509.74" style="fill:#FFFFFF;" width="1799.95" height="18.9"/>
			</g>
			<g>
				<polygon style="fill:#FFFFFF;" points="1899.77,1738.62 1483.28,1524.93 1499.56,1508.96 1899.77,1713.94 				"/>
			</g>
		</g>
	</g>
	<g>
		<g>
			<g>
				<path style="fill:#FF4568;" d="M1789.72,613.59c-67.22,4.14-149.23,14.73-240.27,38.94c-104.51,27.8-190.44,65.44-255.9,99.83
					c4.44,105.06,8.87,210.11,13.31,315.17c0,0,313.15-164.89,494.53-101.54L1789.72,613.59z"/>
				<path d="M1305.22,1070.38l-0.12-2.77l-13.35-316.29l0.98-0.52c81.36-42.75,167.58-76.39,256.26-99.98
					c78.51-20.88,159.46-34,240.62-39l1.8-0.11l0.06,1.81l11.74,354.97l-2.42-0.85c-178.59-62.37-490,99.79-493.13,101.43
					L1305.22,1070.38z M1295.35,753.4l13.15,311.31c29.72-15.16,319.19-158.94,491.05-101.2l-11.51-348.05
					c-80.32,5.07-160.43,18.11-238.13,38.77C1461.82,677.65,1376.19,711.01,1295.35,753.4z"/>
			</g>
			<g>
				<path style="fill:#FFBC00;" d="M1787.93,617.84c-38.54,34.73-73.34,73.56-104.35,115.13c-31.27,41.9-58.87,86.47-83.47,132.58
					c-18.96,35.53-36.15,71.98-51.91,109.03c86.45-22.67,180.42-34,253.18-8.58l-11.57-349.8
					C1789.18,616.75,1788.55,617.28,1787.93,617.84z"/>
				<path d="M1545.18,977.19l1.4-3.29c16.36-38.47,33.84-75.21,51.97-109.18c25.8-48.35,53.93-93.03,83.62-132.8
					c31.96-42.82,67.14-81.64,104.58-115.37h0h0l0,0l4.69-4.16l0.13,3.76l11.66,352.37l-2.42-0.85
					c-62.38-21.79-147.22-18.89-252.15,8.62L1545.18,977.19z M1788.17,619.99c-36.92,33.39-71.63,71.75-103.19,114.02
					c-29.58,39.63-57.61,84.16-83.33,132.36c-17.56,32.91-34.52,68.42-50.44,105.6c102.68-26.51,186.19-29.35,248.32-8.47
					L1788.17,619.99z"/>
			</g>
			<g>
				<path d="M1868.64,1594.32l-70.28-1019.08c-1.8-26.08-42.25-23.24-40.46,2.79l70.09,1016.29H1868.64z"/>
			</g>
		</g>
	</g>
	<g>
		<g>
			<g>
				<path style="fill:#FFFFFF;" d="M544.84,1744.44c-1.49,18.3,0.53,36.11,5.61,52.69c12.08,40.13,41.61,73.21,80.4,89.72
					c13.71,5.9,28.58,9.63,44.25,10.91c15.68,1.27,30.95-0.01,45.43-3.62c45.15-11.01,82.4-43.78,98.98-87.4
					c4.74-12.26,7.79-25.48,8.91-39.25c1.76-21.74-1.42-42.73-8.72-61.85c-13.48-35.74-41.07-64.92-76.5-80.22
					c-13.91-6.08-29.05-9.95-45.05-11.25c-16-1.3-31.57,0.07-46.28,3.83c-40.69,10.22-74.84,38.07-93.13,75.62
					C551.18,1709.11,546.32,1726.25,544.84,1744.44z"/>
				<path d="M686.87,1900c-3.95,0-7.92-0.16-11.9-0.49c-15.65-1.27-30.72-4.99-44.8-11.04c-39.4-16.77-69.07-49.88-81.39-90.83
					c-5.25-17.13-7.17-35.08-5.68-53.34v0c1.47-18.04,6.21-35.35,14.09-51.46c18.64-38.28,53-66.19,94.28-76.55
					c15.15-3.86,30.91-5.18,46.85-3.87c15.94,1.29,31.28,5.12,45.61,11.39c35.54,15.35,63.77,44.95,77.45,81.21
					c7.61,19.94,10.58,41.01,8.82,62.61c-1.11,13.76-4.15,27.13-9.01,39.73c-16.79,44.2-54.25,77.28-100.2,88.48
					C709.88,1898.61,698.46,1900,686.87,1900z M546.6,1744.58c-1.45,17.82,0.42,35.32,5.54,52.04
					c12.03,39.96,40.97,72.26,79.41,88.62c13.74,5.91,28.44,9.53,43.7,10.77c15.28,1.24,30.37,0.04,44.87-3.58
					c44.83-10.93,81.38-43.2,97.76-86.32c4.75-12.3,7.71-25.34,8.8-38.76c1.71-21.08-1.18-41.63-8.61-61.08
					c-13.35-35.38-40.89-64.26-75.56-79.24c-13.98-6.11-28.95-9.85-44.49-11.11c-15.54-1.26-30.92,0.01-45.7,3.78
					c-40.27,10.11-73.8,37.33-91.98,74.69C552.65,1710.09,548.03,1726.99,546.6,1744.58L546.6,1744.58z"/>
			</g>
			<g>
				<g>
					<polygon points="652.32,1805.09 712.04,1810.26 746.37,1761.11 720.98,1706.81 661.26,1701.66 626.93,1750.79 					"/>
					<path d="M712.9,1812.09l-61.74-5.34l-26.25-56.14l35.49-50.81l61.74,5.34l26.25,56.14L712.9,1812.09z M653.48,1803.43
						l57.7,4.99l33.17-47.48l-24.53-52.46l-57.7-4.99l-33.17,47.48L653.48,1803.43z"/>
				</g>
				<g>
					<path d="M544.84,1744.44c-1.49,18.3,0.53,36.11,5.61,52.69l4.7,0.38l34.35-49.17l-25.39-54.3l-5.35-0.44
						C551.18,1709.11,546.32,1726.25,544.84,1744.44z"/>
					<path d="M556.02,1799.34l-6.89-0.56l-0.35-1.14c-5.26-17.14-7.17-35.09-5.69-53.35v0c1.47-18.04,6.21-35.35,14.09-51.46
						l0.53-1.08l7.56,0.62l26.25,56.14L556.02,1799.34z M551.79,1795.48l2.5,0.2l33.19-47.51l-24.52-52.45l-3.14-0.25
						c-7.38,15.4-11.82,31.92-13.22,49.12C545.18,1761.99,546.93,1779.11,551.79,1795.48z"/>
				</g>
				<g>
					<path d="M651.89,1618l13.3,28.46l59.73,5.18l18.3-26.22c-13.91-6.08-29.05-9.95-45.05-11.25
						C682.16,1612.87,666.6,1614.24,651.89,1618z"/>
					<path d="M725.78,1653.48l-61.75-5.36l-14.63-31.31l2.06-0.52c15.15-3.87,30.93-5.18,46.85-3.87
						c15.94,1.29,31.28,5.12,45.61,11.39l1.97,0.86L725.78,1653.48z M666.36,1644.79l57.7,5.01l16.48-23.62
						c-13.4-5.61-27.69-9.06-42.51-10.26c-14.82-1.2-29.5-0.1-43.64,3.27L666.36,1644.79z"/>
				</g>
				<g>
					<path d="M630.86,1886.85c13.71,5.9,28.58,9.63,44.25,10.91c15.68,1.27,30.95-0.01,45.43-3.62l-12.6-26.97l-59.73-5.19
						L630.86,1886.85z"/>
					<path d="M686.87,1900c-3.95,0-7.92-0.16-11.9-0.49c-15.65-1.27-30.72-4.99-44.8-11.04l-1.98-0.85l19.18-27.47l61.75,5.36
						l13.93,29.83l-2.07,0.51C709.88,1898.61,698.45,1900,686.87,1900z M633.55,1886.08c13.16,5.41,27.18,8.75,41.71,9.93
						c14.55,1.18,28.93,0.14,42.79-3.07l-11.26-24.11l-57.71-5.01L633.55,1886.08z"/>
				</g>
				<g>
					<path d="M787.48,1751.84l25.39,54.3l6.66,0.59c4.74-12.26,7.79-25.48,8.91-39.25c1.76-21.74-1.42-42.73-8.72-61.85
						L787.48,1751.84z"/>
					<path d="M820.69,1808.6l-8.99-0.8l-26.24-56.13l34.71-49.76l1.18,3.1c7.62,19.95,10.58,41.02,8.83,62.62
						c-1.11,13.76-4.15,27.13-9.01,39.73L820.69,1808.6z M814.03,1804.48l4.32,0.39c4.47-11.93,7.27-24.54,8.33-37.51
						c1.62-19.95-0.89-39.42-7.45-57.94l-29.72,42.61L814.03,1804.48z"/>
				</g>
			</g>
		</g>
		<g>
			<g>
				<g>
					<g>
						<path d="M948.57,1188.09c-17.58-39.8-75.5-4.41-58.05,35.1c58.08,131.5,79.62,273.93,78.23,417.07
							c-0.43,43.67,67.39,42.65,67.82-1.01C1038.08,1483.32,1011.67,1330.96,948.57,1188.09z"/>
					</g>
					<g>
						<g>
							<path style="fill:#00BEFB;" d="M1036.07,1654.34c0,0,8.57-66.64-17-88.24c-15.12-12.78-49.95-6.93-50.84,29.99l0.49,57.57
								c9.89,4,34.84-1.72,50.39-0.06C1025.24,1654.24,1030.91,1654.43,1036.07,1654.34z"/>
							<path d="M979.56,1656.86c-4.61,0-8.59-0.4-11.5-1.58l-1.09-0.44l-0.5-58.74c0.54-22.67,12.99-31.6,20.36-34.92
								c11.19-5.04,24.92-3.57,33.38,3.57c26,21.97,17.96,87.05,17.61,89.81l-0.2,1.51l-1.52,0.03c-5.7,0.1-11.49-0.15-17.17-0.76
								c-6.66-0.71-15.19-0.02-23.44,0.64C989.85,1656.42,984.37,1656.86,979.56,1656.86z M970.46,1652.4
								c5.47,1.61,15.26,0.83,24.74,0.07c8.42-0.67,17.13-1.37,24.09-0.63c5.03,0.53,10.04,0.77,15.2,0.76
								c1.05-9.97,5.89-66.2-16.56-85.16c-7.46-6.3-19.66-7.55-29.67-3.05c-6.61,2.97-17.78,11.05-18.28,31.74L970.46,1652.4z"/>
						</g>
						<g>
							<path style="fill:#FF6DCE;" d="M1066.33,1720.95l-127.67,3.31c-11.8,0.31-20.95-10.22-18.94-21.85
								c3.19-18.39,10.84-44.24,29.26-62.17c11.92-11.6,28.32-19.9,50.88-20.78c23.77-0.89,41.08,6.92,53.61,18.42
								c18.7,17.07,27.03,42.53,30.72,60.66C1086.52,1709.95,1077.98,1720.65,1066.33,1720.95z"/>
							<path d="M938.17,1726.02c-5.97,0-11.6-2.56-15.51-7.09c-4.02-4.64-5.71-10.77-4.66-16.82c3.25-18.74,11.04-44.91,29.76-63.14
								c13.68-13.31,31.19-20.47,52.04-21.27c21.88-0.8,40.33,5.53,54.87,18.88c19,17.34,27.48,43.07,31.25,61.6
								c1.21,5.94-0.26,12.06-4.03,16.8c-3.78,4.75-9.43,7.56-15.51,7.72l-127.67,3.3C938.53,1726.02,938.35,1726.02,938.17,1726.02
								z M1003.5,1621.15c-1.18,0-2.37,0.02-3.57,0.07c-19.96,0.77-36.69,7.59-49.73,20.28c-18.04,17.57-25.6,42.99-28.75,61.21
								c-0.86,5.01,0.54,10.08,3.86,13.93c3.34,3.86,8.23,5.96,13.3,5.87l127.67-3.3c5.04-0.13,9.72-2.46,12.85-6.39
								c3.12-3.92,4.34-8.99,3.34-13.92c-3.66-18.02-11.87-43-30.17-59.71C1039.26,1627.21,1022.86,1621.15,1003.5,1621.15z"/>
						</g>
						<g>
							<path style="fill:#00BEFB;" d="M1053.48,1637.88c-6.59,18.1-27.21,31.44-51.93,31.8c-24.31,0.36-45.19-11.96-52.57-29.45
								c11.92-11.6,28.32-19.9,50.88-20.78C1023.64,1618.57,1040.95,1626.38,1053.48,1637.88z"/>
							<path d="M1000.52,1671.45c-24.13,0-45.4-12.18-53.15-30.53l-0.47-1.1l0.86-0.84c13.68-13.31,31.19-20.47,52.04-21.27
								c21.88-0.8,40.33,5.53,54.87,18.88l0.86,0.79l-0.4,1.1c-7.04,19.34-28.56,32.59-53.55,32.96
								C1001.23,1671.45,1000.87,1671.45,1000.52,1671.45z M951.09,1640.66c7.58,16.44,27.18,27.28,49.42,27.28
								c0.34,0,0.67,0,1.02-0.01c23.06-0.34,42.93-12.17,49.88-29.55c-13.69-12.15-30.93-17.9-51.48-17.16
								C980.43,1621.97,964,1628.51,951.09,1640.66z"/>
						</g>
						<g>
							<g>
								<path d="M965.62,1723.67c-0.23,0.84-0.46,1.68-0.75,2.5c-3.33,9.43-10.04,15.43-14.98,13.37
									c-4.12-1.72-5.73-8.53-4.16-16.17L965.62,1723.67z"/>
								<path d="M951.94,1741.7c-0.95,0-1.86-0.18-2.72-0.54c-4.92-2.05-7.01-9.34-5.21-18.14l0.29-1.43l23.61,0.36l-0.59,2.19
									c-0.24,0.89-0.49,1.77-0.79,2.62c-2.39,6.76-6.61,12.18-11.01,14.14C954.31,1741.43,953.1,1741.7,951.94,1741.7z
									 M947.2,1725.14c-0.93,6.18,0.44,11.54,3.37,12.77c1.03,0.42,2.21,0.34,3.53-0.24c3.49-1.55,7.08-6.3,9.12-12.09
									c0.02-0.07,0.05-0.13,0.07-0.2L947.2,1725.14z"/>
							</g>
							<g>
								<path d="M1042.9,1723.67c0.26,0.83,0.51,1.67,0.82,2.48c3.6,9.33,10.49,15.13,15.37,12.92c4.07-1.85,5.47-8.69,3.68-16.29
									L1042.9,1723.67z"/>
								<path d="M1056.88,1741.29c-1.09,0-2.23-0.23-3.38-0.7c-4.46-1.83-8.84-7.11-11.42-13.8c-0.31-0.81-0.57-1.64-0.82-2.47
									l-0.67-2.17l2.23-0.22l21.33-0.96l0.33,1.42c2.06,8.74,0.18,16.09-4.67,18.29
									C1058.9,1741.08,1057.91,1741.29,1056.88,1741.29z M1045.29,1725.32c0.02,0.07,0.05,0.13,0.07,0.2
									c2.21,5.73,5.93,10.36,9.47,11.81c1.33,0.54,2.53,0.59,3.53,0.13c2.9-1.32,4.11-6.71,3-12.86L1045.29,1725.32z"/>
							</g>
						</g>
					</g>
				</g>
				<g>
					<g>
						<path d="M686.11,1353.82c-22.91,20.49-141.98,143.54-157.82,86.54c-8.15-29.32,11.83-77.38,22.42-104.08
							c14.2-35.81,35.01-67.26,56.34-99.18c23.17-34.68-33.32-66.21-56.31-31.8c-36.42,54.52-67.07,109.75-80.74,174.57
							c-8.25,39.14-15.27,93.48,15.48,125.6c74.05,77.36,197.44-62.25,247.02-106.62C763.57,1371.06,717,1326.18,686.11,1353.82z"/>
					</g>
					<g>
						<g>
							<path style="fill:#00BEFB;" d="M690.15,1410.19c0,0-39.03,20.45-46.9,43.4c-4.65,13.57,9.24,26.23,19.94,18.63l33.58-23.87
								c0.19-7.52-0.19-16.83-2.94-27.2C692.76,1417.08,691.48,1413.42,690.15,1410.19z"/>
							<path d="M656.26,1476.26c-2.97,0-5.96-1-8.63-3c-5.14-3.84-9-11.59-6.04-20.24c8-23.35,46.12-43.54,47.74-44.39l1.71-0.89
								l0.73,1.78c1.48,3.6,2.75,7.37,3.76,11.19c3.02,11.43,3.16,21.27,3,27.69l-0.02,0.88l-34.29,24.37
								C661.77,1475.39,659.02,1476.26,656.26,1476.26z M689.25,1412.68c-7.55,4.24-37.71,22.15-44.33,41.48
								c-2.39,6.98,0.69,13.21,4.81,16.29c3.96,2.95,8.6,3.07,12.45,0.34l32.86-23.35c0.12-6.21-0.13-15.34-2.9-25.82
								C691.34,1418.58,690.37,1415.58,689.25,1412.68z"/>
						</g>
						<g>
							<path style="fill:#FF6DCE;" d="M741.04,1325.9c4.49,2.25,8.71,5.59,12.22,8.72c15.57,13.87,109.46,164.63,103.01,180.05
								c-16.8,40.09-77.68-26.25-84.08-32.61c0,0-34.39-34.15-76.8-33.18c0,0,7.68-46.41-36.43-68.07
								C657.86,1381.84,712.09,1312.05,741.04,1325.9z"/>
							<path d="M838.88,1529.22c-15.47,0-37.72-14.83-66.23-44.18c-0.75-0.77-1.33-1.37-1.71-1.74
								c-0.34-0.34-34.09-33.73-75.51-32.67l-2.12,0.05l0.34-2.09c0.3-1.84,6.91-45.39-35.47-66.2l-1.04-0.51
								c-0.68-4.28,56.49-72.14,84.68-57.54v0c3.9,1.96,8.02,4.9,12.6,8.98c13.73,12.23,110.88,164.32,103.46,182.04
								c-3.22,7.7-8.25,12.24-14.95,13.51C841.64,1529.09,840.29,1529.22,838.88,1529.22z M773.86,1481.25
								c0.35,0.36,0.79,0.81,1.31,1.34c37.64,38.75,57.28,44.64,67.1,42.81c5.54-1.05,9.58-4.78,12.36-11.42
								c1.88-4.48-8.29-30.49-43.14-89.02c-24.79-41.65-52-82.42-59.42-89.03c-4.34-3.87-8.22-6.64-11.83-8.46
								c-28.45-11.12-71.49,45.96-78.97,52.53c37.83,19.61,36.91,57.81,36.08,67.09c41.2,0.1,74.56,32.24,75.98,33.63
								L773.86,1481.25z M659.72,1379.21c0.01,0,0.01,0.01,0.02,0.01C659.74,1379.22,659.73,1379.21,659.72,1379.21z"/>
						</g>
						<g>
							<path style="fill:#00BEFB;" d="M707.68,1366.25c-14.46,11.24-29.88,11.15-45.31,9.57c10.91-13.01,45.07-46.45,67.25-51.94
								C729.55,1324.63,727.4,1350.93,707.68,1366.25z"/>
							<path d="M675.1,1378.35c-5.58,0.01-10.86-0.56-16.2-1.11c12.06-14.36,46.47-49.89,72.73-55.66c-0.9,6.03-2,28.86-22.86,46.07
								l0,0C697.76,1376.18,686.11,1378.35,675.1,1378.35z M665.93,1374.39c13.41,1.16,27.41,0.79,40.68-9.53l0,0
								c15.54-12.07,19.84-31.39,20.94-38.55C708.1,1332.75,679.2,1359.4,665.93,1374.39z"/>
						</g>
						<g>
							<path style="fill:#00BEFB;" d="M726.85,1415.59c10.32,4.34,19.52,11.17,28,18.61c11.15,9.78,21.38,21.37,30.35,33.55
								c8.9,12.07,16.77,25.57,21.51,40.58c0.4,1.27,0.75,2.56,1.11,3.85c-10-6.7-21.76-16.37-35.63-30.12
								c0,0-34.38-34.15-76.8-33.18c0,0,2.89-17.57-5.15-36.13C702.94,1409.5,715.4,1410.77,726.85,1415.59z"/>
							<path d="M810.8,1516.29l-3.96-2.65c-10.84-7.27-22.92-17.47-35.89-30.33c-0.34-0.33-33.43-32.7-73.8-32.7
								c-0.57,0-1.15,0.01-1.72,0.02l-2.11,0.05l0.34-2.09c0.03-0.17,2.7-17.31-5.03-35.15l-0.82-1.89l2-0.51
								c12.71-3.23,25.4-2.25,37.73,2.94c9.07,3.81,18.12,9.82,28.48,18.91c10.65,9.35,20.95,20.73,30.61,33.82
								c10.35,14.03,17.47,27.48,21.77,41.1c0.33,1.03,0.62,2.08,0.91,3.14L810.8,1516.29z M697.38,1447.09
								c41.75,0.12,75.7,33.37,76.05,33.72c11.21,11.11,21.71,20.2,31.3,27.08c-4.22-12.92-11.07-25.72-20.94-39.1
								c-9.5-12.9-19.63-24.09-30.1-33.27c-10.06-8.83-18.8-14.64-27.52-18.31l0,0c-10.96-4.61-22.23-5.69-33.52-3.24
								C698.43,1428.55,697.87,1442.05,697.38,1447.09z"/>
						</g>
						<g>
							<path d="M757.78,1338.41c13.28-7.5,23.2,3.41,9,11.71L757.78,1338.41z"/>
							<path d="M766.34,1352.43l-11.25-14.63l1.89-0.96l0.79,1.56l-0.75-1.59C772.69,1327.83,784.28,1343.07,766.34,1352.43z
								 M760.51,1339.07l6.68,8.69C777.27,1340.8,769.52,1334.81,760.51,1339.07z"/>
						</g>
						<g>
							<path d="M754,1332.99c14.13-12.38-2.13-18.98-12.62-8.17C741.37,1324.82,745.85,1326.57,754,1332.99z"/>
							<path d="M754.05,1335.27c-9.14-7.23-12.4-8.49-15.91-9.84C749.68,1310.75,773.19,1318.78,754.05,1335.27z M744.59,1324.45
								c2.01,1.1,5.15,3.04,9.3,6.23C763.71,1320.96,752.29,1318.01,744.59,1324.45z"/>
						</g>
						<g>
							<path d="M825.14,1441.67c0.5-0.42,1-0.84,1.56-1.25c6.01-4.38,12.38-5.06,14.2-1.5c1.8,3.51-1.61,9.95-7.62,14.33
								c-0.28,0.2-0.56,0.41-0.82,0.54L825.14,1441.67z"/>
							<path d="M831.81,1456.1l-8.94-14.81l1.14-0.97c0.53-0.45,1.07-0.9,1.66-1.34c4.49-3.27,9.26-4.73,12.8-3.89
								c1.83,0.44,3.22,1.47,4,3c2.23,4.34-1.35,11.61-8.14,16.56c-0.39,0.28-0.74,0.52-1.05,0.69L831.81,1456.1z M827.43,1442.06
								l5.56,9.2c5.06-4.01,7.51-9.27,6.35-11.55c-0.31-0.6-0.86-0.99-1.68-1.19c-2.45-0.58-6.35,0.71-9.91,3.31
								C827.64,1441.91,827.54,1441.99,827.43,1442.06z"/>
						</g>
						<g>
							<path d="M837.58,1462.82c0.22-0.22,0.5-0.42,0.74-0.6c6-4.39,12.37-5.08,14.2-1.54c1.83,3.55-1.59,9.96-7.59,14.35
								c-0.12,0.09-0.24,0.18-0.36,0.26L837.58,1462.82z"/>
							<path d="M843.99,1477.87l-8.6-15.35l0.94-0.94c0.26-0.26,0.58-0.5,0.87-0.72c4.57-3.34,9.37-4.79,12.87-3.98
								c1.83,0.43,3.22,1.47,4.01,2.99c2.27,4.41-1.22,11.53-8.11,16.58L843.99,1477.87z M839.85,1463.29l5.25,9.38
								c4.85-4.03,6.99-8.97,5.85-11.17c-0.31-0.6-0.86-0.99-1.69-1.18C846.94,1459.77,843.28,1460.91,839.85,1463.29z"/>
						</g>
						<g>
							<path d="M848.83,1485.41c5.54-5.14,11.79-6.64,13.94-3.34c2.15,3.3-0.64,10.12-6.18,15.26c-0.74,0.69-1.5,1.33-2.28,1.87
								L848.83,1485.41z"/>
							<path d="M853.49,1501.9l-6.74-16.96l0.88-0.82c4.19-3.89,8.81-5.98,12.43-5.51c1.82,0.22,3.27,1.09,4.18,2.49
								c2.67,4.09-0.11,11.62-6.46,17.51c-0.8,0.75-1.63,1.45-2.48,2.03L853.49,1501.9z M850.92,1485.91l4.15,10.43
								c0.11-0.1,0.22-0.2,0.33-0.3c5.28-4.9,7.36-10.79,5.91-13.02c-0.34-0.52-0.89-0.82-1.67-0.92
								C857.37,1481.85,854.02,1483.29,850.92,1485.91z"/>
						</g>
						<g>
							
								<rect x="716.71" y="1433.66" transform="matrix(0.0606 -0.9982 0.9982 0.0606 -737.0107 2087.7183)" width="47.88" height="3.52"/>
						</g>
						<g>
							
								<rect x="741.25" y="1449.09" transform="matrix(0.082 -0.9966 0.9966 0.082 -744.3834 2093.5398)" width="45.98" height="3.51"/>
						</g>
						<g>
							
								<rect x="761.63" y="1466.81" transform="matrix(0.1192 -0.9929 0.9929 0.1192 -766.9903 2072.5515)" width="45.99" height="3.51"/>
						</g>
					</g>
				</g>
			</g>
			<g>
				<g>
					<path style="fill:#712CE5;" d="M1028.7,1083.26c4.42,101.66-89.83,179.79-182.12,203.62c-54.61,15.1-114.65,16.65-169.88,3.91
						c-113.9-20.6-226.09-134.84-175.49-254.21C582.96,825.82,1009.1,838.6,1028.7,1083.26z"/>
					<path d="M753.61,1301.13c-33.07-0.07-64.47-4.3-95.98-13.45c-142.07-35.56-230.68-193.34-120.46-310.95
						c125.43-148.09,475.6-115.45,493.29,106.47l0,0c5.58,100.34-90.9,182.3-183.41,205.38
						C817.8,1296.77,784.53,1301.19,753.61,1301.13z M502.66,1037.58c-51.33,121.25,67.64,236.35,183.86,253.54
						c43.2,8.65,90.52,8.6,134.04,0.05c100.55-16.89,211.59-98.88,206.37-207.85l0,0C1004.92,839.75,585.8,827.49,502.66,1037.58z"
						/>
				</g>
				<g>
					<g>
						<path style="fill:#FFBC00;" d="M1028.7,1083.26c4.41,101.67-89.83,179.79-182.12,203.62c-54.61,15.1-114.65,16.65-169.88,3.91
							c-113.9-20.59-226.09-134.84-175.49-254.21c7.85-19.55,19.18-37.89,33.05-53.79l226.64,140.75l225.67-144.61
							C1011.35,1008.22,1027.46,1044.42,1028.7,1083.26z"/>
						<path d="M753.61,1301.13c-33.07-0.07-64.47-4.3-95.98-13.45c-139.53-34.87-229.65-189.41-123.68-307.16
							c0.83,0.52,225.92,140.3,226.95,140.94l226.04-144.85c25.37,29.42,42.4,67.26,43.52,106.58l0,0
							c5.59,100.29-90.83,182.28-183.41,205.38C817.8,1296.77,784.53,1301.19,753.61,1301.13z M502.66,1037.58
							c-51.31,121.24,67.56,236.31,183.86,253.54c43.2,8.65,90.52,8.6,134.04,0.05c100.59-16.89,211.61-98.95,206.37-207.85l0,0
							c-1.07-37.43-16.93-73.76-40.73-102.07l-225.29,144.36L534.6,985.07C520.95,1001.06,510.51,1018.29,502.66,1037.58z"/>
					</g>
					<g>
						<path d="M999.82,996.39c-0.04-0.1-238.78,138.07-238.82,138.05l-241.24-132.65c5.49-8.53,11.98-16.28,18.71-23.88
							l221.71,125.82l221.41-130.54C988.15,980.54,994.36,988.19,999.82,996.39z"/>
						<path d="M761.01,1136.46l-243.76-134.04c5.7-9.12,13.35-18.43,20.86-26.74l222.04,126.01l221.77-130.74
							c7.79,8.59,14.65,17.13,21.08,27.06C999.75,995.66,763.75,1136.3,761.01,1136.46z M522.27,1001.17l238.71,131.26
							l236.31-136.65c-5.1-7.45-10.29-13.76-16.04-20.35l-221.06,130.32c-0.4-0.22-220.76-125.28-221.36-125.62
							C533.05,986.74,526.86,994.17,522.27,1001.17z"/>
					</g>
					<g>
						<polygon style="fill:#FF4568;" points="945.05,1118.06 914.28,1119.21 900.06,1151.11 916.61,1181.87 947.39,1180.73 
							961.61,1148.82 						"/>
						<path d="M915.58,1183.67l-17.48-32.48l15.02-33.69l32.96-1.22l17.48,32.48l-15.02,33.69L915.58,1183.67z M902.01,1151.04
							l15.63,29.03l28.58-1.07l13.43-30.12l-15.63-29.03l-28.58,1.07L902.01,1151.04z"/>
					</g>
				</g>
			</g>
			<g>
				<g>
					<path style="fill:#712CE5;" d="M1271.63,130.56c-96.51-44.73-213.67-0.33-261.69,99.17c-9.63,19.95-15.69,40.61-18.54,61.24
						c-84.53-49.82-186.62-72.8-292.55-58.53c-62.85,8.46-120.93,29.22-172.08,59.38c0.04-72.59-39.62-140.9-108.24-172.71
						c-96.51-44.73-213.67-0.33-261.69,99.17s-8.71,216.44,87.81,261.17c32.12,14.89,66.51,19.85,99.9,16.25
						c-30.98,70.21-29.41,148.41-32.74,230.1C301.75,972.79,467.12,1096.95,811,1082.05c376.83-16.32,423.77-236.83,391.54-476.17
						c-4.04-30.03-11.13-58.95-21-86.43c-1.31-3.75-2.72-7.47-4.16-11.18c74.26-0.18,146.8-43.47,182.05-116.54
						C1407.46,292.23,1368.15,175.3,1271.63,130.56z"/>
					<path d="M757.4,1085.01c-168.12,0.01-290.43-37.11-364.09-110.57c-59.55-59.39-87.56-143.06-83.26-248.68
						c0.43-10.38,0.77-20.7,1.11-30.96c2.33-70.01,4.53-136.19,30.58-197.02c-33.74,3.12-67.5-2.64-97.83-16.7
						c-45.86-21.26-80.6-59.45-97.8-107.54c-18.16-50.75-14.91-106.15,9.15-155.99c48.35-100.21,166.79-145.07,264.01-100.01
						c66.54,30.84,108.18,96.27,109.24,171.25c52.3-30.38,109.51-49.91,170.11-58.07c100.94-13.61,204.32,6.8,291.42,57.44
						c3.09-20.48,9.25-40.37,18.32-59.17c48.35-100.21,166.79-145.07,264.01-100c45.86,21.26,80.6,59.45,97.8,107.54
						c18.16,50.75,14.9,106.14-9.15,155.99c-33.98,70.43-104.86,116.33-181.08,117.51c1.12,2.95,2.22,5.9,3.26,8.87
						c9.97,27.78,17.07,56.97,21.08,86.77c21.83,162.09,1.46,274.06-64.09,352.39c-65.16,77.86-172.81,119-329.11,125.77
						C792.71,1084.61,774.8,1085.01,757.4,1085.01z M347.38,493.65l-1.23,2.78c-26.91,60.97-29.13,127.76-31.49,198.47
						c-0.34,10.27-0.69,20.6-1.11,30.99c-4.26,104.6,23.41,187.38,82.23,246.05c72.97,72.78,194.47,109.54,361.56,109.55
						c17.37,0,35.21-0.4,53.57-1.2c155.26-6.73,262.08-47.45,326.57-124.51c64.87-77.52,84.99-188.63,63.31-349.67
						c-3.98-29.55-11.02-58.51-20.91-86.07c-1.31-3.75-2.71-7.45-4.14-11.15l-0.92-2.39l2.56-0.01
						c75.85-0.18,146.69-45.53,180.47-115.54c23.64-48.99,26.84-103.42,9-153.28c-16.88-47.19-50.96-84.67-95.96-105.53
						c-95.49-44.27-211.84-0.15-259.37,98.34c-9.29,19.26-15.48,39.68-18.38,60.72l-0.36,2.61l-2.27-1.34
						c-86.88-51.2-190.37-71.9-291.43-58.31c-61.14,8.23-118.81,28.13-171.42,59.16l-2.65,1.56v-3.08
						c0.04-74.88-41.04-140.44-107.22-171.11c-95.49-44.27-211.84-0.15-259.37,98.34c-23.64,49-26.84,103.43-9,153.28
						c16.88,47.19,50.97,84.67,95.97,105.53c30.65,14.21,64.87,19.77,98.97,16.1L347.38,493.65z"/>
				</g>
				<g>
					<g>
						<path style="fill:#FFFFFF;" d="M455.09,288.37c9.11,67.69-38.37,129.95-106.06,139.07c-67.69,9.11-129.95-38.37-139.06-106.06
							c-9.12-67.69,38.37-129.95,106.06-139.07C383.72,173.19,445.98,220.67,455.09,288.37z"/>
					</g>
					<g>
						<path style="fill:#FFFFFF;" d="M1313.68,296.19c9.11,67.69-38.37,129.95-106.06,139.07
							c-67.69,9.11-129.95-38.37-139.07-106.06s38.37-129.95,106.06-139.07C1242.3,181.02,1304.57,228.5,1313.68,296.19z"/>
					</g>
				</g>
				<g>
					<path style="fill:#FFFFFF;" d="M1128.44,690.39c64.13,281.22-174.13,330.01-371.89,330.88
						c-217.4,0.96-396.79-101.6-372.18-284.49c82.55-613.44,366.78-210.56,366.78-210.57c9.29-24.16,58.62-135.45,149.81-146.33
						C993.62,368.83,1086.1,504.72,1128.44,690.39z"/>
				</g>
			</g>
			<g>
				<g>
					<g>
						<g>
							<path style="fill:#FFBC00;" d="M694,779.93c-3.18-1.01-6.43-1.9-9.81-2.72c-25.51-6.6-56.28-9.01-88.99-5.97
								c-5.59,0.46-11.11,1.1-16.42,1.99c-22.6,3.26-43.48,8.87-61.5,16.3c-3.89,1.55-7.7,3.23-11.32,4.96
								c-9.76-26.52-16.02-57.27-17.78-90.14c-0.66-12.7-0.57-25.1,0.19-37.14c1.95-32.18,8.59-61.56,18.74-86.08
								c17.44-41.88,45.21-69.27,77.74-70.87c41.56-1.99,79.57,38.26,100.28,98.77c0.14,0.06,0.14,0.12,0.14,0.25
								c8.53,25.23,14.21,54,15.75,84.69C702.61,724.73,700.02,753.99,694,779.93z"/>
							<path d="M504.97,796.92l-0.66-1.81c-9.97-27.09-16.15-58.43-17.89-90.65c-0.65-12.53-0.59-25.09,0.19-37.35
								c1.91-31.47,8.43-61.43,18.87-86.64c18.39-44.15,47.29-70.38,79.28-71.96c41.01-1.93,79.96,36.05,101.79,99.24l0.34,0.15
								l0.09,0.96c8.99,26.63,14.3,55.23,15.79,85.01c1.56,29.94-0.88,59.83-7.06,86.45l-0.43,1.85l-1.82-0.58
								c-3.01-0.95-6.18-1.83-9.7-2.69c-26.32-6.81-56.88-8.86-88.42-5.93c-5.86,0.48-11.33,1.14-16.29,1.97
								c-22.33,3.23-42.88,8.67-61.12,16.19c-3.87,1.55-7.65,3.21-11.23,4.93L504.97,796.92z M587.79,511.95
								c-0.95,0-1.9,0.02-2.86,0.06c-30.58,1.51-58.36,26.95-76.2,69.8c-10.29,24.85-16.73,54.42-18.61,85.51
								c-0.77,12.12-0.83,24.55-0.19,36.94c1.68,31.16,7.56,61.48,17.02,87.82c3.13-1.46,6.37-2.86,9.68-4.18
								c18.49-7.63,39.33-13.15,61.9-16.41c5.01-0.84,10.59-1.52,16.52-2c31.92-2.97,62.89-0.88,89.58,6.02
								c2.88,0.7,5.54,1.42,8.09,2.18c5.79-25.84,8.05-54.71,6.55-83.63c-1.47-29.34-6.68-57.5-15.49-83.72l-0.06-0.03l-0.24-0.71
								C662.73,549.02,626.26,511.95,587.79,511.95z"/>
						</g>
						<g>
							<g>
								<path d="M506.46,582.8c-30.89-12.3-30.64-49.42-30.63-49.79l3.52,0.06c-0.01,0.35-0.19,35.07,28.42,46.47L506.46,582.8z"/>
							</g>
							<g>
								<path d="M494.4,616.82c-36.3-2.25-46.04-41.78-46.13-42.18l3.42-0.81c0.09,0.37,9.26,37.4,42.93,39.48L494.4,616.82z"/>
							</g>
							<g>
								<path d="M488.21,668.94c-36.24-2.96-46.92-37.33-47.02-37.68l3.37-1.01c0.1,0.32,10.14,32.42,43.94,35.19L488.21,668.94z"/>
							</g>
						</g>
						<g>
							<path d="M684.18,777.21c-25.51-6.6-56.28-9.01-88.99-5.97c-5.59,0.46-11.11,1.1-16.42,1.99c-22.6,3.26-43.48,8.87-61.5,16.3
								c-3.82-12.22-6.37-25.33-7.45-39.08c-5.27-69.21,29.78-127.92,78.26-131.2c48.48-3.21,92.08,50.22,97.35,119.43
								C686.44,752.01,685.96,764.97,684.18,777.21z"/>
							<path d="M516.17,791.89l-0.57-1.83c-3.92-12.55-6.46-25.83-7.52-39.47c-3.15-41.29,8.1-81.1,30.08-106.49
								c13.98-16.15,31.21-25.35,49.81-26.6c49.44-3.23,93.89,51.04,99.23,121.05c0.99,13.18,0.57,26.27-1.26,38.91l-0.28,1.94
								l-1.9-0.49c-26.3-6.8-56.87-8.85-88.39-5.92c-5.86,0.48-11.33,1.14-16.29,1.97c-22.33,3.23-42.88,8.67-61.12,16.19
								L516.17,791.89z M592.22,620.87c-1.34,0-2.68,0.05-4.02,0.13c-17.65,1.19-34.04,9.97-47.39,25.4
								c-21.38,24.7-32.31,63.54-29.23,103.92c1,12.71,3.28,25.1,6.81,36.86c18.06-7.25,38.28-12.53,60.13-15.69
								c5.01-0.84,10.59-1.52,16.52-2c31.15-2.9,61.42-0.98,87.67,5.53c1.56-11.79,1.89-23.96,0.96-36.2
								C678.64,672.65,638.06,620.87,592.22,620.87z"/>
						</g>
						<g>
							<path style="fill:#FFFFFF;" d="M635.35,702.58c-32.36,5.99-36.06,10.66-40.38,50.89c-4.9-40.15-8.67-44.76-41.11-50.2
								c32.36-5.99,36.06-10.66,40.38-50.89C599.14,692.53,602.91,697.14,635.35,702.58z"/>
						</g>
					</g>
					<g>
						<g>
							<path style="fill:#FFBC00;" d="M1039.2,692.26c0.53,33.11-3.66,63.16-11.66,91.08c-37.44-14.84-82.33-19.94-124.47-16.29
								c-20.47,1.8-39.42,5.63-55.85,11.17c-2.82,0.98-5.57,1.95-8.24,2.99c-7.72-25.49-12.4-54.52-12.79-85.36
								c-1.68-104.4,44.7-189.89,103.53-190.89c32.62-0.61,62.18,25,82.33,65.57c0,0,0,0.06,0.07,0.06
								c12.64,26.49,21,55.18,24.44,84.56C1038.18,667.34,1039,679.9,1039.2,692.26z"/>
							<path d="M1028.69,785.68c-38.46-15.49-82.81-20.47-125.42-16.88c-20.29,1.79-38.94,5.51-55.48,11.09
								c-2.78,0.96-5.51,1.93-8.17,2.96l-1.77,0.68l-0.55-1.82c-8.04-26.54-12.49-56.22-12.87-85.84
								c-1.69-105.22,45.52-191.65,105.26-192.67c0.39-0.01,0.77-0.01,1.16-0.01c31.39,0,61.3,23.84,82.32,65.65h0.04
								C1045.15,634.56,1048.77,716.6,1028.69,785.68z M1016.57,777.52c3.48,1.08,6.75,2.29,9.81,3.47
								c11.19-39.1,13.87-84.17,8.37-126.14l0.05-0.09c-3.5-28.5-11.68-56.88-23.76-82.41h-0.66l-0.05-1.37
								c-20.66-41.41-50.08-64.9-80.56-64.26c-57.81,0.98-103.48,85.81-101.81,189.1c0.36,28.63,4.57,57.31,12.18,83.07
								c2.13-0.8,4.31-1.56,6.53-2.33c16.81-5.67,35.74-9.45,56.27-11.26C940.96,762,981.76,765.84,1016.57,777.52z"/>
						</g>
						<g>
							<g>
								<path d="M1012.89,572.17l-1.51-3.17c27.79-13.25,25.27-47.88,25.24-48.23l3.5-0.29
									C1040.15,520.85,1042.89,557.87,1012.89,572.17z"/>
							</g>
							<g>
								<path d="M1027.19,605.34l-0.45-3.49c33.46-4.3,40.13-41.84,40.19-42.22l3.47,0.58
									C1070.34,560.62,1063.27,600.71,1027.19,605.34z"/>
							</g>
							<g>
								<path d="M1036.87,656.93l-0.51-3.47c33.54-4.98,41.41-37.67,41.48-38l3.43,0.78
									C1081.19,616.59,1072.84,651.6,1036.87,656.93z"/>
							</g>
						</g>
						<g>
							<path d="M1020.73,746.3c-0.57,11.41-2.23,22.46-4.84,32.85c-33.37-11.37-75.45-15.46-112.81-12.09
								c-20.47,1.8-39.42,5.63-55.85,11.17c-2.21-12.43-3.08-25.69-2.33-39.34c3.62-69.34,45.89-123.86,94.45-121.78
								C987.9,619.12,1024.35,677.03,1020.73,746.3z"/>
							<path d="M1017.02,781.86c-34.33-13.2-75.74-15.96-113.75-13.07c-20.29,1.79-38.94,5.51-55.48,11.09l-1.94,0.65l-0.36-2.01
								c-2.3-12.92-3.09-26.3-2.36-39.75c3.67-70.18,46.99-125.47,96.28-123.44c59.75,5.41,85.73,71.49,83.06,131.05v0
								C1021.88,758.62,1020.03,770.43,1017.02,781.86z M1008.43,774.95c2.14,0.57,4.19,1.25,6.21,1.89
								c15.04-61.87-6.99-151.53-75.37-157.99c-47.65-2.06-89.05,51.84-92.62,120.11c-0.67,12.49-0.01,24.91,1.97,36.94
								c16.31-5.31,34.56-8.88,54.3-10.61C937.75,762.15,976.41,765.5,1008.43,774.95z"/>
						</g>
						<g>
							<path style="fill:#FFFFFF;" d="M974.63,705.9c-32.36,5.99-36.06,10.66-40.38,50.89c-4.9-40.16-8.67-44.76-41.11-50.2
								c32.36-5.99,36.06-10.66,40.38-50.89C938.42,695.85,942.19,700.46,974.63,705.9z"/>
						</g>
					</g>
				</g>
				<g>
					<g>
						<path d="M809.86,797.42c-0.08,14.91-19.53,26.91-43.45,26.78c-23.92-0.12-43.25-12.31-43.17-27.23
							c0.08-14.91,19.53-26.91,43.45-26.78C790.61,770.31,809.94,782.5,809.86,797.42z"/>
						<path d="M766.78,825.96c-0.13,0-0.25,0-0.38,0c-11.89-0.06-23.08-3.02-31.51-8.34c-8.69-5.48-13.45-12.81-13.41-20.66
							c0.04-7.84,4.88-15.13,13.62-20.52c8.39-5.18,19.47-8.01,31.22-8.01c0.13,0,0.25,0,0.38,0c11.89,0.06,23.08,3.02,31.51,8.34
							c8.69,5.48,13.45,12.81,13.41,20.66c-0.04,7.84-4.88,15.13-13.62,20.52C789.61,823.12,778.53,825.96,766.78,825.96z
							 M766.32,771.95c-11.11,0-21.53,2.65-29.37,7.49c-7.67,4.73-11.91,10.96-11.94,17.54c-0.04,6.59,4.15,12.86,11.76,17.66
							c7.88,4.97,18.41,7.74,29.66,7.79c11.21,0.21,21.8-2.6,29.73-7.49c7.67-4.73,11.91-10.96,11.95-17.54
							c0.04-6.58-4.15-12.86-11.77-17.66c-7.88-4.97-18.41-7.74-29.66-7.79C766.56,771.95,766.44,771.95,766.32,771.95z"/>
					</g>
					<g>
						<path d="M728.34,765.43c10.76-9.21,25.34-13.95,39.76-13.89c7.22,0.06,14.46,1.25,21.2,3.72c3.36,1.25,6.64,2.71,9.76,4.41
							c3.04,1.87,6.04,3.77,8.65,6.16l-0.18,0.3c-11.83-7.19-25.63-11.11-39.45-11.08c-13.82-0.15-27.65,3.64-39.56,10.68
							L728.34,765.43z"/>
					</g>
				</g>
				<g>
					<g>
						<path d="M861.9,913.41c-3.89,48.46-60.54,20.4-89.86,19.65c-22.61-1.19-42.61,14.27-65.21,11.34
							c-47.22-7.15-25.94-60.26,0.11-78.7c0.07,0,0.15-0.1,0.22-0.2c25.42-22.57,59.52-28.7,90.61-20.15
							c11.12,3.03,23.25,8.38,33.98,15.97C848.5,873.1,861.71,890.45,861.9,913.41z"/>
						<path d="M711.69,946.57c-49.37-4.25-41.9-53.98-5.4-82.63c24.7-21.75,59.04-29.34,91.96-20.28
							c12.16,3.32,24.42,9.08,34.53,16.23c24.16,10.54,52.5,76.67,5.15,82.85c-22.59,3.12-43.8-6.73-65.98-7.93
							C752.02,933.72,732.11,946.89,711.69,946.57z M707.79,867.3c-30.93,26.08-42.62,66.52-0.71,75.36
							c21.96,2.8,43.54-12.85,65.04-11.35c22.02,1.08,43.09,10.96,65.29,7.96c43.63-6.13,14.9-67.15-6.67-76.5
							c-9.78-6.92-21.65-12.5-33.43-15.71c-31.83-8.76-65.03-1.42-88.85,19.65l-0.42,0.56L707.79,867.3z"/>
					</g>
					<g>
						<path style="fill:#FF4568;" d="M838.13,935.28c0.03,1.94-0.09,3.88-0.44,5.72c-22.22,3.08-43.69-6.82-65.64-7.94
							c-22.61-1.19-42.61,14.27-65.21,11.34C695.58,874.34,835.92,868.18,838.13,935.28z"/>
						<path d="M711.69,946.57c-1.8,0.02-4.23-0.27-6.33-0.62c-16.19-73.85,142.67-82.81,133.82-3.4
							c-22.98,3.69-44.66-6.52-67.23-7.74C752.01,933.72,732.11,946.89,711.69,946.57z M708.33,942.83
							c15.68,1.47,30.05-5.78,44.95-9.36c28.68-7.94,54.4,9.17,82.87,5.97c0.17-1.28,0.24-2.67,0.21-4.13l0,0
							C832.3,868.4,698.22,879.33,708.33,942.83z"/>
					</g>
				</g>
			</g>
			<g>
				<g>
					<g>
						<path d="M498.13,1044.93c-5.99,17.22-8.95,35.5-8.79,53.8c-5.57,2.45-11.13,5.01-16.59,7.68
							c-29.21,14.34-57.86,29.85-86.07,46c-55.04,31.32-101.76,70.7-147.03,114.59c-9.03,8.75-25.69,4.58-32.61-4.47
							c-8.24-10.87-4.56-23.86,4.47-32.61c24.01-23.31,47.7-46.51,74.56-66.63c24.94-18.8,51.09-35.89,78.24-51.38
							c29.82-16.93,59.96-33.44,90.67-48.55C469.1,1056.46,483.45,1050.43,498.13,1044.93z"/>
					</g>
					<g>
						<g>
							<path style="fill:#FFFFFF;" d="M171.58,1234.42c0,0-56.65,6.41-57.99,21.73c-1.34,15.32,44.62,5.39,44.62,5.39
								L171.58,1234.42z"/>
							<path d="M131.3,1266.49c-7,0-13.5-0.97-16.89-3.96c-1.91-1.68-2.8-3.94-2.57-6.53c1.42-16.28,53.6-22.65,59.55-23.32
								l3.2-0.36l-15.17,30.76l-0.83,0.18C156.34,1263.74,143.11,1266.49,131.3,1266.49z M168.57,1236.56
								c-21.4,2.77-52.38,10.13-53.23,19.75c-0.13,1.5,0.31,2.64,1.39,3.59c6.38,5.64,30.47,2.13,40.27,0.1L168.57,1236.56z"/>
						</g>
						<g>
							<path style="fill:#FFFFFF;" d="M160.48,1248.38c0,0-58.86,13.14-58.54,29.4c0.32,16.26,47.54,0.63,47.54,0.63L160.48,1248.38
								z"/>
							<path d="M115.16,1286.94c-4.74,0-8.89-0.72-11.58-2.62c-2.17-1.53-3.34-3.78-3.4-6.5c-0.34-17.2,53.75-29.77,59.91-31.15
								l3.14-0.7l-12.4,33.85l-0.81,0.27C147.32,1280.98,128.8,1286.94,115.16,1286.94z M157.71,1250.83
								c-17.67,4.27-54.24,15.49-54.01,26.91c0.03,1.62,0.64,2.8,1.91,3.7c7.41,5.24,32.44-1.2,42.51-4.44L157.71,1250.83z"/>
						</g>
						<g>
							<path style="fill:#FFFFFF;" d="M189.57,1267.25c4.52-1.67,9.23-2.5,14.01-1.78c5.95,0.89,8.86,5.12,6.62,10.82
								c-3.3,8.4-13.35,12.89-20.86,16.75c-9.27,4.77-19.37,8.85-26.89,16.32c-4.93,4.9-6.95,12.72,0.78,16.21
								c5.59,2.53,12.28,1.43,18.15,0.66c37.2-4.89,84.31-27.64,82.1-67.27c-0.1-1.77,1.34-3.28,1.84-4.99
								c8.15,2.23,23.8-5.03,18.33-16.74c-6.94-14.87-13.92-27.53-23.77-41.17c-4.36-6.04-8.15-13.21-17.38-10.06
								c-8.96,3.06-8.2,11.54-5.78,18.44c-19.58,9.3-43.26,9.81-61.45,22.21c-17.64,12.03-32.98,33.17-47.37,48.91
								c-5.03,5.5-24.65,22.61-12.43,29.65c7.69,4.43,20.24-3.6,26.64-7.32c10.11-5.88,19.23-13.24,28.81-19.92
								C176.49,1274.11,182.82,1269.75,189.57,1267.25z"/>
							<path d="M171.61,1328.92c-3.11,0-6.21-0.43-9.11-1.73c-4.28-1.94-5.64-4.91-6.03-7.07c-0.69-3.81,1.12-8.4,4.74-12
								c6.29-6.26,14.28-10.19,22.01-13.99c1.79-0.88,3.57-1.75,5.32-2.65l1.9-0.97c6.83-3.47,15.34-7.78,18.14-14.87
								c0.84-2.13,0.84-4.02,0.01-5.47c-0.89-1.54-2.75-2.59-5.25-2.97c-4.11-0.62-8.4-0.06-13.15,1.69l0,0
								c-6.7,2.48-13.1,6.94-18.24,10.53c-3.01,2.1-5.97,4.26-8.94,6.43c-6.39,4.67-12.99,9.49-20,13.57l-1.33,0.78
								c-7.11,4.19-19.01,11.18-27.08,6.55c-2.78-1.6-4.38-3.79-4.75-6.52c-1.05-7.73,8.55-17.48,14.3-23.31
								c0.98-0.99,1.82-1.85,2.45-2.53c3.81-4.17,7.63-8.65,11.67-13.39c11.24-13.19,22.87-26.82,36.01-35.79
								c10.71-7.3,23.33-10.59,35.54-13.78c8.33-2.17,16.93-4.42,24.74-7.92c-1.62-5.32-1.6-9.72,0.05-13.12
								c1.37-2.82,3.84-4.86,7.32-6.05c9.56-3.25,14.11,3.22,18.12,8.93l1.25,1.77c9.08,12.58,16.24,24.98,23.94,41.46
								c2.16,4.62,1.6,9.23-1.56,12.99c-3.86,4.58-11.43,7.33-17.29,6.5c-0.12,0.24-0.24,0.48-0.36,0.7
								c-0.44,0.84-0.82,1.57-0.79,2.18c2.36,42.33-48.71,64.52-83.63,69.11l-1.01,0.13
								C177.73,1328.5,174.67,1328.92,171.61,1328.92z M200.05,1263.45c1.28,0,2.55,0.09,3.8,0.28c3.58,0.53,6.34,2.2,7.77,4.68
								c1.39,2.4,1.46,5.35,0.21,8.52c-3.28,8.33-12.45,12.98-19.81,16.72l-1.88,0.96c-1.77,0.91-3.57,1.8-5.37,2.68
								c-7.47,3.68-15.2,7.48-21.08,13.33c-2.76,2.75-4.23,6.23-3.76,8.88c0.35,1.93,1.7,3.44,4.02,4.48
								c4.81,2.18,10.85,1.37,16.18,0.66l1.01-0.14c33.61-4.41,82.8-25.48,80.58-65.42c-0.08-1.58,0.59-2.87,1.19-4.01
								c0.27-0.52,0.56-1.03,0.72-1.58l0.49-1.65l1.66,0.45c4.22,1.15,11.49-0.65,15.21-5.06c2.3-2.72,2.66-5.83,1.07-9.23
								c-7.6-16.28-14.66-28.5-23.6-40.89l-1.28-1.81c-4.36-6.23-7.38-9.93-14.11-7.62c-2.6,0.89-4.33,2.28-5.29,4.26
								c-1.36,2.8-1.15,6.93,0.6,11.94l0.52,1.49l-1.42,0.68c-8.47,4.02-17.77,6.44-26.77,8.79c-11.92,3.11-24.24,6.33-34.44,13.28
								c-12.76,8.7-24.22,22.15-35.31,35.16c-4.06,4.76-7.9,9.27-11.75,13.48c-0.64,0.71-1.52,1.6-2.54,2.63
								c-4.94,5.01-14.14,14.34-13.32,20.37c0.22,1.61,1.21,2.9,3.02,3.94c6.3,3.63,17.52-2.98,23.54-6.53l1.34-0.79
								c6.85-3.98,13.37-8.75,19.69-13.37c2.99-2.18,5.97-4.36,9-6.48c5.31-3.7,11.91-8.31,19.03-10.95h0
								C192.86,1264.16,196.52,1263.45,200.05,1263.45z"/>
						</g>
						<g>
							
								<rect x="238.64" y="1203.44" transform="matrix(0.8804 -0.4742 0.4742 0.8804 -545.4028 258.7885)" width="3.52" height="14.65"/>
						</g>
						<g>
							
								<rect x="260.46" y="1243.81" transform="matrix(0.8721 -0.4893 0.4893 0.8721 -577.5312 288.0165)" width="3.52" height="10.06"/>
						</g>
					</g>
				</g>
				<g>
					<g>
						<path d="M1259.16,1186.68c-19.78,32.52-56.25,58.81-87.19,79.97c-34.57,23.57-70.79,44.8-105.8,67.63
							c-10.89,7.06-24.78,7.48-33.78-3.38c-7.46-9.26-7.4-26.72,3.49-33.78c39.71-25.81,81.28-49.16,119.45-77.21
							c16.95-12.43,33.99-26.05,48.86-40.82c10.19-10.28,24.93-26.45,19.42-41.99c-5.85-16.62-26.32-23.64-41.6-28.81
							c-19.93-6.71-40.17-12.34-61.12-15.37c-30.46-4.4-61.29-5.13-92.11-5.1c-0.05-16.36-2.76-32.56-7.71-47.74
							c35.89,0.01,72,0.22,107.53,5.63c36.94,5.59,79.12,15.75,110.26,37.27C1274.48,1107.46,1280.94,1150.79,1259.16,1186.68z"/>
					</g>
					<g>
						<g>
							<g>
								<path style="fill:#FFFFFF;" d="M1063.64,1263.02c0,0,11.43-25.91,24.5-11.89c9.96,10.67,23.55,38.82,29.45,51.61
									c2.72,5.91,2.21,12.99-1.91,18.02c-2.67,3.26-12.75,6.36-18.89,5.57c-5.05,10.97-9.63,29.28-30.28,43.84
									c-15.45,10.9-34.23,18.77-53.05,21.12c-9.67,1.21-19.35,0.65-28.01-4.16c-4.81-2.68-9.35-6.47-11.96-11.4
									c-1.3-2.45-2.05-5.16-2.06-7.94c0-0.81,0.16-6.49,0.16-6.49s-26.16-12.81-8.4-35.75c0,0-39.31-23.09,17.03-44.19
									c3.41-1.28-1.43-16.85,7.21-29.76c1.28-1.92,10.38-15.11,25.83-18.27C1031.64,1229.57,1052.81,1241.31,1063.64,1263.02z"/>
								<path d="M1005.29,1393.58c-7.95,0-14.77-1.63-20.69-4.92c-4.04-2.25-9.51-6.17-12.66-12.12c-1.49-2.81-2.25-5.76-2.26-8.75
									c0-0.59,0.08-3.76,0.13-5.47c-3.03-1.72-11.83-7.44-14.05-16.96c-1.44-6.21,0.21-12.71,4.92-19.37
									c-3.92-2.71-13.38-10.33-12.52-20.27c0.85-9.77,11.43-18.52,31.46-26.02c0.24-0.44,0.32-3.2,0.38-5.41
									c0.18-6.12,0.44-15.38,5.98-23.68c1.75-2.61,11.25-15.81,26.94-19.01c18.84-3.84,39.28,7.42,50.69,27.6
									c2.52-4.58,7.89-12.67,14.81-13.84c3.84-0.67,7.58,0.88,11.02,4.57c9.87,10.58,22.89,37.17,29.76,52.08
									c3.09,6.7,2.25,14.5-2.14,19.87c-2.92,3.57-12.55,6.67-19.16,6.31c-0.65,1.48-1.3,3.07-1.99,4.76
									c-4.51,11.05-10.7,26.19-28.37,38.66c-16.33,11.52-35.46,19.13-53.85,21.43C1010.75,1393.4,1007.96,1393.58,1005.29,1393.58
									z M1020.13,1234.39c-13.52-1.66-30.46,15.04-31.23,18.17c-4.99,7.45-5.23,16.1-5.39,21.82c-0.13,4.63-0.22,7.69-2.66,8.61
									c-18.37,6.88-28.47,14.84-29.18,23.02c-0.88,10.03,12.3,17.92,12.43,18.01l1.72,1.01l-1.22,1.58
									c-4.89,6.31-6.71,12.35-5.41,17.96c2.25,9.69,13.08,15.09,13.18,15.14l1.02,0.5l-0.03,1.13c0,0-0.17,5.63-0.16,6.43
									c0.01,2.42,0.64,4.82,1.86,7.13c2.74,5.18,7.63,8.67,11.26,10.69c7.23,4.02,16.03,5.32,26.94,3.96
									c17.82-2.23,36.38-9.62,52.25-20.81c16.84-11.88,22.79-26.47,27.14-37.12c0.89-2.18,1.72-4.2,2.56-6.03l0.54-1.17l1.28,0.17
									c5.79,0.74,15.11-2.26,17.31-4.94c3.55-4.33,4.2-10.68,1.67-16.17c-5.47-11.85-19.25-40.55-29.14-51.16
									c-2.62-2.81-5.2-3.94-7.86-3.51c-6.34,1.07-12.07,11.12-13.75,14.91l-1.51,3.42l-1.67-3.34
									C1053.14,1245.91,1036.28,1234.39,1020.13,1234.39z"/>
							</g>
							<g>
								<line style="fill:none;" x1="963.85" y1="1325.52" x2="986.15" y2="1319.31"/>
								
									<rect x="963.43" y="1320.71" transform="matrix(0.963 -0.2696 0.2696 0.963 -320.4287 311.8194)" width="23.15" height="3.52"/>
							</g>
							<g>
								<line style="fill:none;" x1="971.6" y1="1361.29" x2="994.2" y2="1352.94"/>
								
									<rect x="970.88" y="1355.31" transform="matrix(0.9382 -0.3461 0.3461 0.9382 -408.9317 424.0627)" width="24.1" height="3.51"/>
							</g>
							<g>
								<line style="fill:none;" x1="980.23" y1="1281.35" x2="1011.94" y2="1270.77"/>
								
									<rect x="979.35" y="1274.35" transform="matrix(0.9487 -0.3162 0.3162 0.9487 -352.3963 380.4257)" width="33.42" height="3.52"/>
							</g>
							<g>
								<line style="fill:none;" x1="1063.64" y1="1263.02" x2="1074.81" y2="1283.71"/>
								<rect x="1067.46" y="1261.67" transform="matrix(0.88 -0.475 0.475 0.88 -476.554 660.6967)" width="3.52" height="23.51"/>
							</g>
							<g>
								<line style="fill:none;" x1="1088.34" y1="1311.4" x2="1096.79" y2="1326.33"/>
								
									<rect x="1090.81" y="1310.25" transform="matrix(0.8703 -0.4925 0.4925 0.8703 -507.8337 709.1339)" width="3.52" height="17.16"/>
							</g>
						</g>
					</g>
				</g>
			</g>
		</g>
	</g>
</g>
</svg>
