<?xml version="1.0" encoding="iso-8859-1"?>
<!-- Generator: Adobe Illustrator 30.0.0, SVG Export Plug-In . SVG Version: 9.03 Build 0)  -->
<svg version="1.1" id="Capa_1" xmlns="http://www.w3.org/2000/svg" xmlns:xlink="http://www.w3.org/1999/xlink" x="0px" y="0px"
	 viewBox="0 0 2000 2000" style="enable-background:new 0 0 2000 2000;" xml:space="preserve">
<g>
	<g>
		<g id="XMLID_1_">
			<rect x="101.05" y="1496.23" style="fill:#00C793;" width="1798.48" height="403.77"/>
		</g>
		<g style="opacity:0.27;">
			<g style="opacity:0.27;">
				<rect x="101.05" y="1496.23" style="fill:#FFFFFF;" width="196.03" height="403.77"/>
			</g>
			<g style="opacity:0.27;">
				<rect x="807.49" y="1496.23" style="fill:#FFFFFF;" width="209.12" height="403.77"/>
			</g>
			<g style="opacity:0.27;">
				<rect x="1153.34" y="1496.23" style="fill:#FFFFFF;" width="206.5" height="403.77"/>
			</g>
			<g style="opacity:0.27;">
				<rect x="1496.58" y="1496.23" style="fill:#FFFFFF;" width="169.82" height="403.77"/>
			</g>
			<g style="opacity:0.27;">
				<rect x="1803.13" y="1496.23" style="fill:#FFFFFF;" width="96.39" height="403.77"/>
			</g>
			<g style="opacity:0.27;">
				<rect x="465.11" y="1496.23" style="fill:#FFFFFF;" width="205.63" height="403.77"/>
			</g>
		</g>
		<g>
			<g>
				<rect x="101.05" y="1537.05" style="fill:#FFFFFF;" width="1798.48" height="17.58"/>
			</g>
		</g>
	</g>
	<g>
		<g>
			<path style="fill:#FFFFFF;" d="M1792.72,375.7l-550.84,1.29c0,0-33.45-222.22,139.07-164.2c0,0,15.89-96.45,109.15-109.66
				c41.36-5.86,83.31,6.78,113.34,40.59c16.93,19.05,30.91,45,32.29,79.22C1635.74,222.94,1799.9,141.65,1792.72,375.7z"/>
			<path d="M1240.36,378.75l-0.22-1.5c-0.05-0.28-4.24-28.72-1.93-62.17c2.14-31.04,10.48-72.88,38.03-96
				c24.15-20.25,58.91-23.14,103.37-8.59c3-14.03,24.31-96.93,110.24-109.1c44.23-6.25,86.1,8.74,114.91,41.16
				c19.91,22.41,30.87,48.54,32.61,77.72c11.89-5.19,65.31-25.93,106.44,0.49c36.07,23.16,53.11,75.31,50.67,155l-0.05,1.7l-1.7,0
				L1240.36,378.75z M1329.1,204.91c-20.27,0-37.19,5.63-50.6,16.87c-47.84,40.12-36.82,139.99-35.09,153.45l547.6-1.28
				c2.12-77.4-14.4-127.94-49.09-150.22c-44.63-28.68-104.8,0.5-105.4,0.79l-2.43,1.2l-0.11-2.7
				c-1.19-29.39-11.91-55.68-31.86-78.13c-28.01-31.52-68.73-46.11-111.78-40.01c-90.87,12.86-107.51,107.25-107.67,108.2
				l-0.34,2.04l-1.96-0.66C1361.45,208.09,1344.33,204.91,1329.1,204.91z"/>
		</g>
		<g>
			<path style="fill:#FFFFFF;" d="M583.19,817.83l-478.7,1.12c0,0-29.07-193.12,120.86-142.7c0,0,13.81-83.82,94.86-95.29
				c35.94-5.09,72.4,5.9,98.5,35.27c14.71,16.56,26.86,39.1,28.07,68.85C446.77,685.07,589.44,614.42,583.19,817.83z"/>
			<path d="M102.98,820.71l-0.22-1.5c-0.04-0.25-3.68-24.98-1.68-54.07c1.86-27.02,9.12-63.45,33.13-83.58
				c21.01-17.62,51.22-20.17,89.81-7.59c2.81-12.94,21.62-84.22,95.94-94.74c38.52-5.46,74.98,7.61,100.06,35.85
				c17.26,19.42,26.8,42.07,28.37,67.35c10.93-4.73,56.92-22.22,92.42,0.57c31.42,20.17,46.27,65.56,44.14,134.9l-0.05,1.7
				L102.98,820.71z M180.29,669.63c-17.56,0-32.22,4.88-43.83,14.61c-41.26,34.6-32.02,120.51-30.43,132.94l475.46-1.11
				c1.8-67.04-12.52-110.82-42.56-130.12c-38.67-24.85-90.85,0.44-91.37,0.7l-2.43,1.2l-0.11-2.7
				c-1.03-25.49-10.33-48.28-27.62-67.75c-24.29-27.33-59.62-39.98-96.94-34.7c-78.86,11.17-93.23,93.02-93.37,93.84l-0.33,2.04
				l-1.96-0.66C208.36,672.39,193.51,669.63,180.29,669.63z"/>
		</g>
		<g>
			<path style="fill:#FFFFFF;" d="M1897.6,731.01l-349.75,0.82c0,0-21.24-141.1,88.3-104.26c0,0,10.09-61.24,69.31-69.63
				c26.26-3.72,52.9,4.31,71.97,25.77c10.75,12.1,19.62,28.57,20.51,50.3C1797.92,634.01,1902.16,582.4,1897.6,731.01z"/>
			<path d="M1546.33,733.59l-0.22-1.5c-0.45-2.96-10.52-72.78,23.14-101.01c15.39-12.91,37.44-14.86,65.57-5.79
				c2.43-10.76,16.7-61.48,70.38-69.08c28.3-4.01,55.09,5.59,73.53,26.34c12.52,14.1,19.52,30.51,20.81,48.8
				c9.05-3.91,41.49-15.87,67.35,0.74c23.1,14.84,34.02,48.13,32.46,98.98l-0.05,1.7L1546.33,733.59z M1603.23,623.2
				c-12.72,0-23.33,3.53-31.72,10.56c-29.54,24.77-23.41,85.93-22.12,96.3l346.5-0.81c1.23-48.56-9.16-80.25-30.9-94.21
				c-28.04-18.01-65.9,0.36-66.28,0.54l-2.43,1.2l-0.11-2.71c-0.75-18.51-7.5-35.06-20.06-49.2c-17.64-19.85-43.32-29.03-70.4-25.2
				c-57.28,8.11-67.72,67.57-67.82,68.17l-0.34,2.04l-1.96-0.66C1623.63,625.21,1612.83,623.2,1603.23,623.2z"/>
		</g>
		<g>
			<path style="fill:#FFFFFF;" d="M481.4,285.71l-349.75,0.82c0,0-21.24-141.1,88.3-104.26c0,0,10.09-61.24,69.31-69.63
				c26.26-3.72,52.9,4.31,71.97,25.77c10.75,12.1,19.62,28.57,20.51,50.3C381.73,188.71,485.96,137.1,481.4,285.71z"/>
			<path d="M130.14,288.29l-0.22-1.5c-0.45-2.96-10.52-72.78,23.15-101.01c15.39-12.91,37.45-14.85,65.57-5.79
				c2.43-10.76,16.71-61.48,70.38-69.08c28.31-4.01,55.09,5.6,73.53,26.34c12.53,14.1,19.52,30.51,20.81,48.8
				c9.05-3.91,41.49-15.87,67.35,0.74c23.1,14.84,34.02,48.14,32.46,98.98l-0.05,1.7L130.14,288.29z M187.03,177.91
				c-12.71,0-23.32,3.52-31.71,10.56c-29.53,24.76-23.41,85.93-22.13,96.3l346.5-0.81c1.23-48.56-9.16-80.25-30.9-94.21
				c-28.06-18.02-65.9,0.36-66.29,0.54l-2.43,1.2l-0.11-2.71c-0.75-18.51-7.5-35.07-20.06-49.2c-17.64-19.85-43.3-29.04-70.41-25.2
				c-57.27,8.11-67.72,67.57-67.82,68.17l-0.33,2.04l-1.96-0.66C207.44,179.91,196.64,177.91,187.03,177.91z"/>
		</g>
	</g>
	<g>
		<g>
			<g>
				<g>
					<path d="M1201.2,1195.62c87.16,41.06,173.41,84.09,257.63,130.89c82.77,45.99,161.34,98.45,243.41,145.24
						c44.54,25.39,11.83,98.86-33.22,73.18c-82.1-46.81-160.63-99.24-243.41-145.24c-84.22-46.8-170.47-89.83-257.63-130.89
						C1121.25,1246.79,1154.25,1173.51,1201.2,1195.62z"/>
				</g>
				<g>
					<g>
						<path style="fill:#FFFFFF;" d="M1622.28,1456.24c0,0-50.57-25.53-59.48-52.43c-5.27-15.91,14.1-29.84,27.83-20.53l43.08,29.21
							c-0.26,8.69-1.41,19.42-5.77,31.26C1626.22,1448.42,1624.28,1452.58,1622.28,1456.24z"/>
						<path d="M1623.01,1458.58l-1.52-0.77c-2.09-1.05-51.32-26.17-60.35-53.45c-2.58-7.82,0.21-16.25,7.13-21.48
							c7.16-5.41,16.33-5.82,23.35-1.07l43.88,29.76l-0.03,0.96c-0.36,11.78-2.22,21.89-5.88,31.82c-1.62,4.39-3.56,8.67-5.76,12.72
							L1623.01,1458.58z M1580.88,1382.05c-3.61,0-7.28,1.22-10.49,3.65c-4.54,3.43-8.47,9.84-5.92,17.57
							c7.72,23.32,48.62,46.11,57.08,50.61c1.79-3.44,3.38-7.05,4.74-10.73c4.42-12.02,5.37-22.58,5.63-29.75l-42.28-28.67
							C1586.99,1382.93,1583.96,1382.05,1580.88,1382.05z"/>
					</g>
					<g>
						<path style="fill:#FF4568;" d="M1684.28,1556.1c6.13-2.38,11.97-6.03,16.86-9.47c21.67-15.25,157.03-184.76,149.48-202.88
							c-19.62-47.12-105.23,26.5-114.19,33.53c0,0-48.12,37.76-104.53,34.55c0,0,7.04,53.98-53.17,76.83
							c-2.42,0.9,49.37,55.7,85.18,68.78C1670.45,1559.82,1677.54,1558.72,1684.28,1556.1z"/>
						<path d="M1671.62,1560.5c-2.94,0-5.71-0.47-8.3-1.41c-33.62-12.27-86.4-64.63-86.42-70.28l0-1.22l1.23-0.57
							c58.14-22.06,52.32-72.81,52.04-74.95l-0.27-2.1l2.11,0.12c54.72,3.16,101.39-32.65,103.35-34.18l0.01-0.01
							c0.53-0.41,1.33-1.07,2.38-1.92c44.37-36.08,77.08-51.79,97.16-46.73c7.98,2.01,13.82,7.33,17.35,15.82
							c4.82,11.59-38.03,70.29-64.01,104.26c-36.68,47.96-75.29,93.14-86.08,100.73c-6.34,4.46-11.98,7.63-17.24,9.67l0,0
							C1680.18,1559.59,1675.74,1560.5,1671.62,1560.5z M1581.11,1489.62c6.49,8.89,51.07,54.36,83.42,66.16
							c5.38,1.96,11.82,1.52,19.12-1.32l0,0c4.99-1.94,10.39-4.97,16.49-9.27c10.36-7.29,49.43-53.08,85.31-99.99
							c50.43-65.93,65.76-95.49,63.56-100.77c-3.13-7.52-8.02-12.02-14.96-13.77c-13.06-3.3-39.97,2.04-94.09,46.05
							c-1.07,0.87-1.88,1.54-2.43,1.96c-1.99,1.55-48.66,37.29-103.71,35.02C1634.32,1423.88,1633.45,1468.8,1581.11,1489.62z"/>
					</g>
					<g>
						<path style="fill:#FFFFFF;" d="M1642.62,1507.85c-18.49-13.69-39.03-14.35-59.68-13.28c13.64,15.56,56.84,55.86,86,63.3
							C1668.89,1556.99,1667.82,1526.51,1642.62,1507.85z"/>
						<path d="M1670.81,1560.09l-2.3-0.52c-30.41-7.75-74.33-49.51-86.89-63.84l-2.39-2.72l3.62-0.19
							c19.18-0.99,41.29-0.83,60.81,13.63c24.75,18.33,26.87,47.96,27.02,51.28L1670.81,1560.09z M1586.73,1496.15
							c16.74,18.17,54.49,51.35,80.25,59.33c-0.85-7.95-5.04-31.13-25.41-46.22l0,0C1624.16,1496.37,1605.08,1495.4,1586.73,1496.15
							z"/>
					</g>
					<g>
						<path style="fill:#FFFFFF;" d="M1671.52,1451.81c14.04-4.5,26.76-11.95,38.55-20.11c15.52-10.75,29.93-23.63,42.71-37.25
							c12.67-13.5,24.08-28.71,31.42-45.82c0.62-1.45,1.17-2.92,1.74-4.39c-13.77,7.25-30.09,17.83-49.51,33.04
							c0,0-48.12,37.76-104.53,34.55c0,0,2.64,20.44-9.33,41.48C1639.27,1457.67,1655.94,1456.81,1671.52,1451.81z"/>
						<path d="M1644.42,1457.91c-7.45,0-14.9-0.96-22.29-2.89l-2.22-0.58l1.13-1.99c11.55-20.3,9.14-40.19,9.12-40.38l-0.27-2.1
							l2.12,0.12c55.02,3.12,102.87-33.81,103.35-34.18c18.13-14.2,34.88-25.37,49.78-33.21l4.14-2.18l-1.98,5.14
							c-0.47,1.24-0.95,2.47-1.47,3.68c-6.65,15.49-17.04,30.65-31.76,46.33c-13.73,14.64-28.2,27.25-42.99,37.49
							c-14.36,9.94-26.75,16.4-39.02,20.34l0,0C1662.88,1456.43,1653.64,1457.91,1644.42,1457.91z M1625.22,1452.16
							c15.17,3.54,30.55,2.87,45.77-2.02l0,0c11.92-3.83,24.03-10.15,38.09-19.88c14.59-10.1,28.86-22.56,42.43-37.01
							c14.39-15.33,24.54-30.1,31.03-45.16c-13.63,7.57-28.75,17.84-45.01,30.58c-0.48,0.38-48.15,37.12-103.69,35.02
							C1634.17,1419.28,1634.15,1435.24,1625.22,1452.16z"/>
					</g>
					<g>
						<path d="M1707.42,1542.48c0.73,0.36,1.47,0.72,2.23,1.03c8.72,3.56,17.26,2.84,19.06-1.62c1.5-3.72-2.17-8.88-8.49-12.5
							L1707.42,1542.48z"/>
						<path d="M1720.23,1547.52c-3.44,0-7.38-0.81-11.24-2.39c-0.77-0.32-1.52-0.68-2.27-1.05l-2.18-1.07l1.64-1.76l13.74-14.06
							l1.18,0.67c7.38,4.22,11.09,10.12,9.25,14.68c-0.69,1.71-2.12,3.07-4.13,3.92
							C1724.52,1547.17,1722.48,1547.52,1720.23,1547.52z M1710.42,1541.92c5.44,2.19,11.08,2.71,14.41,1.3
							c1.15-0.49,1.91-1.16,2.24-1.99c1.02-2.53-1.76-6.53-6.58-9.62L1710.42,1541.92z"/>
					</g>
					<g>
						<path d="M1702.02,1548.55c5.39,4.44,8.02,9.81,6.07,13.2c-2.39,4.18-10.88,3.64-18.96-1.14c-1.67-0.99-3.15-2.06-4.49-3.24
							C1684.65,1557.36,1690.73,1555.56,1702.02,1548.55z"/>
						<path d="M1701.71,1566.32c-4.01,0-8.88-1.49-13.47-4.19c-1.78-1.05-3.33-2.18-4.76-3.45l-2.36-2.09l3.02-0.91
							c0.06-0.02,6.05-1.86,16.94-8.62l1.07-0.66l0.97,0.8c6.32,5.2,8.87,11.26,6.49,15.43c-0.92,1.61-2.52,2.75-4.62,3.31
							C1704,1566.2,1702.89,1566.32,1701.71,1566.32z M1688.18,1557.91c0.59,0.41,1.21,0.81,1.85,1.19c5.08,3,10.61,4.33,14.07,3.43
							c1.19-0.32,2.02-0.87,2.47-1.66c1.32-2.31-0.65-6.47-4.73-10.16C1695.54,1554.57,1690.93,1556.75,1688.18,1557.91z"/>
					</g>
					<g>
						<path d="M1804.19,1426.53c0.64,0.51,1.27,1.02,1.99,1.52c7.7,5.35,16.14,6.45,18.81,2.44c2.64-3.97-1.46-11.58-9.16-16.93
							c-0.36-0.25-0.72-0.5-1.06-0.67L1804.19,1426.53z"/>
						<path d="M1819.33,1434.65c-4.2,0-9.4-1.87-14.15-5.16c-0.76-0.53-1.42-1.07-2.09-1.6l-1.35-1.09l12.52-16.14l1.29,0.64
							c0.4,0.2,0.84,0.49,1.26,0.79c8.64,6,12.87,14.5,9.64,19.36c-1.03,1.55-2.72,2.59-4.87,3
							C1820.87,1434.59,1820.12,1434.65,1819.33,1434.65z M1806.65,1426.22c0.17,0.13,0.35,0.25,0.53,0.38
							c4.81,3.34,10.2,5.07,13.74,4.39c1.22-0.23,2.1-0.73,2.6-1.49c1.79-2.7-1.21-9.17-8.36-14.27L1806.65,1426.22z"/>
					</g>
					<g>
						<path d="M1822.2,1402.7c0.28,0.26,0.64,0.51,0.94,0.73c7.69,5.37,16.12,6.48,18.8,2.48c2.68-4.01-1.43-11.58-9.13-16.95
							c-0.15-0.11-0.31-0.21-0.46-0.32L1822.2,1402.7z"/>
						<path d="M1836.3,1410.07c-4.2,0-9.42-1.88-14.16-5.2c-0.38-0.26-0.81-0.57-1.14-0.89l-1.13-1.06l12.07-16.72l1.89,1.3
							c8.61,6.01,12.82,14.52,9.58,19.37c-1.04,1.55-2.72,2.58-4.88,2.99C1837.82,1410.01,1837.08,1410.07,1836.3,1410.07z
							 M1824.64,1402.33c4.68,3.14,9.83,4.75,13.24,4.09c1.22-0.23,2.1-0.73,2.6-1.49c1.75-2.62-1.02-8.8-7.72-13.85
							L1824.64,1402.33z"/>
					</g>
					<g>
						<path d="M1838.72,1377.17c7.02,6.21,15.25,8.25,18.33,4.55c3.09-3.71-0.16-11.72-7.18-17.93c-0.94-0.83-1.91-1.61-2.91-2.27
							L1838.72,1377.17z"/>
						<path d="M1852.42,1385.33c-4.42,0-10.03-2.56-14.86-6.83l-1.03-0.92l9.78-18.58l1.62,1.06c0.97,0.64,1.99,1.43,3.11,2.42
							c7.86,6.95,11.1,15.9,7.37,20.38c-1.2,1.43-2.98,2.28-5.17,2.45C1852.97,1385.32,1852.7,1385.33,1852.42,1385.33z
							 M1840.94,1376.75c4.14,3.34,8.78,5.3,12.04,5.04c1.23-0.09,2.15-0.5,2.73-1.2c2.11-2.53-0.24-9.52-7-15.49
							c-0.39-0.35-0.78-0.67-1.14-0.96L1840.94,1376.75z"/>
					</g>
					<g>
						
							<rect x="1689.31" y="1401.89" transform="matrix(0.9999 -0.0102 0.0102 0.9999 -14.4942 17.3241)" width="3.52" height="55.33"/>
					</g>
					<g>
						
							<rect x="1722.03" y="1386.32" transform="matrix(0.9994 -0.0343 0.0343 0.9994 -47.4485 59.958)" width="3.52" height="53.14"/>
					</g>
					<g>
						
							<rect x="1750.32" y="1366.92" transform="matrix(0.9969 -0.0791 0.0791 0.9969 -104.7334 142.9507)" width="3.51" height="53.18"/>
					</g>
				</g>
			</g>
			<g>
				<g>
					<path d="M671.72,1542.14c55.25,11.22,110.04,24.69,165.29,35.85c24.1,4.87,142.87,32.39,152.12,4.64
						c4.56-13.68-17.06-49.03-23.93-60.46c-13.04-21.71-30.86-40.27-49.16-57.61c-41.56-39.37-90.66-69.79-137.2-102.78
						c-42.16-29.89,2.12-96.95,44.41-66.96c63.21,44.81,130.43,86.63,181.48,145.98c37.04,43.07,81.79,118.8,58.83,177.58
						c-26.33,67.41-113.37,56.78-170.76,49.3c-83.36-10.87-164.76-32.76-247.07-49.48C595.24,1607.94,621.59,1531.96,671.72,1542.14
						z"/>
				</g>
				<g>
					<g>
						<path style="fill:#FFFFFF;" d="M722.38,1605.43c0,0,56.59-2.65,77.58,16.39c12.41,11.26,2.4,32.92-14.13,31.57l-51.88-4.24
							c-4.05-7.7-8.33-17.61-10.35-30.06C722.81,1614.18,722.45,1609.61,722.38,1605.43z"/>
						<path d="M787.28,1655.21c-0.53,0-1.06-0.02-1.59-0.06l-52.84-4.32l-0.45-0.85c-3.45-6.56-8.3-16.88-10.54-30.6
							c-0.75-4.58-1.16-9.26-1.24-13.9l-0.03-1.7l1.71-0.08c2.35-0.11,57.56-2.46,78.84,16.84c6.1,5.53,7.81,14.25,4.36,22.21
							C802.15,1650.44,795.12,1655.21,787.28,1655.21z M735.07,1647.48l50.91,4.17c6.95,0.56,13.33-3.48,16.29-10.31
							c2.26-5.21,2.53-12.74-3.49-18.21c-18.2-16.51-65.01-16.21-74.59-15.99c0.14,3.9,0.53,7.82,1.15,11.67
							C727.4,1631.43,731.77,1641.1,735.07,1647.48z"/>
					</g>
					<g>
						<path style="fill:#FF4568;" d="M619.29,1548.99c-4.16,5.09-7.46,11.14-10.03,16.54c-11.37,23.94-45.82,238.1-30.34,250.16
							c40.27,31.37,78.58-74.84,82.92-85.36c0,0,23.32-56.55,74.01-81.5c0,0-32.69-43.53,8.5-93.04c1.66-1.98-70.38-24.21-108-17.98
							C629.5,1538.95,623.87,1543.39,619.29,1548.99z"/>
						<path d="M594.21,1823.23c-5.64,0-11.12-2.06-16.37-6.15c-9.9-7.72-1.47-79.91,4.44-122.26
							c8.35-59.79,19.74-118.14,25.39-130.05c3.33-7.01,6.68-12.53,10.25-16.9l0,0c5.52-6.75,11.63-10.72,18.14-11.79
							c35.31-5.85,107.01,13.76,109.81,18.67l0.6,1.07l-0.79,1.1c-16.73,20.11-23.22,41.53-19.3,63.65
							c2.92,16.47,10.79,27.1,10.87,27.21l1.27,1.69l-1.91,0.94c-49.39,24.32-72.22,78.31-73.17,80.6
							c-0.26,0.62-0.63,1.58-1.13,2.84c-20.88,53.23-41.61,83-61.61,88.48C598.54,1822.93,596.36,1823.23,594.21,1823.23z
							 M620.65,1550.1c-3.39,4.14-6.6,9.44-9.8,16.18c-5.44,11.45-16.92,70.53-25.09,129.02c-11.47,82.21-10.27,115.48-5.76,119
							c6.42,5,12.9,6.51,19.8,4.63c12.98-3.56,33.79-21.43,59.26-86.38c0.5-1.28,0.89-2.26,1.15-2.89
							c0.96-2.31,23.74-56.19,73.05-81.5c-2.43-3.76-7.94-13.43-10.34-26.98c-2.77-15.65-1.68-39.52,18.89-65.07
							c-10.03-4.56-71.2-22.2-105.17-16.57C630.99,1540.49,625.61,1544.04,620.65,1550.1L620.65,1550.1z"/>
					</g>
					<g>
						<path style="fill:#FFFFFF;" d="M679.29,1570.51c22.84,2.83,41.04-6.71,58.49-17.8c-19.53-6.84-76.96-20.67-106.01-12.8
							C632.24,1540.64,648.17,1566.66,679.29,1570.51z"/>
						<path d="M687.25,1572.76c-2.66,0-5.39-0.16-8.17-0.51c-30.54-3.78-46.98-28.53-48.75-31.34l-1.27-2.01l2.26-0.68
							c30.28-8.22,89.06,6.53,107.05,12.84l3.42,1.2l-3.06,1.94C724.38,1563.3,707.61,1572.76,687.25,1572.76z M634.65,1541.02
							c4.66,6.5,19.73,24.63,44.86,27.74l0,0c21.51,2.64,38.62-5.9,54.2-15.56C710.2,1545.61,661.02,1535.29,634.65,1541.02z"/>
					</g>
					<g>
						<path style="fill:#FFFFFF;" d="M681.69,1633.51c-10.01,10.83-17.42,23.57-23.67,36.47c-8.22,16.99-14.43,35.29-18.86,53.44
							c-4.39,17.99-6.84,36.84-4.82,55.35c0.17,1.56,0.42,3.12,0.65,4.68c8.43-13.08,17.42-30.33,26.85-53.12
							c0,0,23.32-56.55,74.01-81.5c0,0-12.35-16.49-12.28-40.7C706.9,1612.55,692.8,1621.5,681.69,1633.51z"/>
						<path d="M633.93,1788.34l-0.81-5.53c-0.19-1.28-0.38-2.56-0.52-3.85c-1.83-16.75-0.24-35.05,4.86-55.95
							c4.76-19.49,11.14-37.59,18.98-53.79c7.61-15.72,15.22-27.44,23.97-36.9l0,0c11.84-12.8,26.21-21.52,42.72-25.89l2.21-0.59
							l-0.01,2.29c-0.07,23.29,11.81,39.49,11.93,39.65l1.27,1.69l-1.9,0.94c-49.52,24.38-72.94,80.04-73.17,80.6
							c-8.81,21.29-17.89,39.26-27,53.4L633.93,1788.34z M682.99,1634.71c-8.5,9.19-15.93,20.65-23.38,36.05
							c-7.73,15.98-14.04,33.84-18.73,53.09c-4.99,20.43-6.56,38.28-4.8,54.57c8.14-13.29,16.25-29.67,24.15-48.76
							c0.23-0.56,23.59-56.09,73.05-81.5c-3.04-4.71-10.88-18.61-11.43-37.73C706.9,1614.81,693.84,1622.97,682.99,1634.71
							L682.99,1634.71z"/>
					</g>
					<g>
						<path d="M605.84,1572.24c-0.82,0.05-1.63,0.09-2.44,0.2c-9.34,1.19-16.42,6.02-15.8,10.78c0.52,3.98,6.26,6.67,13.54,6.7
							L605.84,1572.24z"/>
						<path d="M602.49,1591.69l-1.36-0.01c-8.5-0.05-14.63-3.36-15.27-8.23c-0.24-1.83,0.34-3.71,1.67-5.45
							c2.81-3.64,8.8-6.44,15.64-7.31c0.85-0.11,1.7-0.16,2.56-0.21l2.43-0.14L602.49,1591.69z M603.5,1574.2
							c-5.81,0.76-10.98,3.09-13.19,5.95c-0.76,0.99-1.09,1.95-0.97,2.84c0.36,2.71,4.75,4.82,10.46,5.14L603.5,1574.2z"/>
					</g>
					<g>
						<path d="M607.56,1564.29c-6.88-1.21-11.8-4.59-11.78-8.5c0.02-4.82,7.68-8.52,17.06-8.34c1.94,0.04,3.75,0.24,5.5,0.62
							C618.34,1548.07,613.94,1552.63,607.56,1564.29z"/>
						<path d="M608.5,1566.24l-1.24-0.22c-8.06-1.42-13.26-5.44-13.24-10.24c0.01-1.85,0.84-3.63,2.4-5.15
							c3.26-3.18,9.58-5.03,16.46-4.93c2.05,0.04,3.96,0.25,5.84,0.66l3.08,0.66l-2.18,2.28c-0.04,0.05-4.36,4.59-10.51,15.84
							L608.5,1566.24z M612.19,1549.21c-5.66,0-10.84,1.52-13.31,3.94c-0.88,0.86-1.33,1.75-1.34,2.65
							c-0.01,2.66,3.75,5.31,9.11,6.52c3.6-6.45,6.53-10.61,8.36-12.98c-0.71-0.07-1.44-0.11-2.19-0.12
							C612.6,1549.21,612.39,1549.21,612.19,1549.21z"/>
					</g>
					<g>
						<path d="M578.63,1720.79c-0.81-0.13-1.61-0.26-2.48-0.34c-9.34-0.87-17.22,2.32-17.57,7.13c-0.35,4.75,6.96,9.36,16.3,10.23
							c0.44,0.04,0.87,0.08,1.25,0.06L578.63,1720.79z"/>
						<path d="M575.91,1739.63c-0.38,0-0.79-0.04-1.2-0.07c-10.46-0.98-18.32-6.3-17.89-12.11c0.14-1.86,1.09-3.59,2.77-5.01
							c3.48-2.95,9.89-4.38,16.72-3.74c0.87,0.08,1.68,0.21,2.49,0.34l1.71,0.28l-0.14,1.73l-2.71,18.49l-1.42,0.09
							C576.14,1739.63,576.02,1739.63,575.91,1739.63z M573.13,1722.06c-4.74,0-8.98,1.12-11.27,3.06c-0.95,0.8-1.47,1.67-1.53,2.58
							c-0.24,3.23,5.56,7.39,14.29,8.31l2.01-13.75c-0.21-0.02-0.43-0.05-0.65-0.07C575.03,1722.11,574.07,1722.06,573.13,1722.06z"
							/>
					</g>
					<g>
						<path d="M574.67,1750.39c-0.37-0.09-0.81-0.13-1.18-0.17c-9.34-0.89-17.22,2.29-17.59,7.09c-0.36,4.81,6.95,9.38,16.28,10.27
							c0.19,0.02,0.37,0.04,0.56,0.05L574.67,1750.39z"/>
						<path d="M574.31,1769.54l-2.28-0.21c-10.46-0.99-18.31-6.34-17.87-12.15c0.14-1.86,1.1-3.59,2.78-5.01
							c3.49-2.94,9.91-4.35,16.73-3.71c0.45,0.04,0.99,0.1,1.44,0.21l1.49,0.37L574.31,1769.54z M570.41,1751.83
							c-4.71,0-8.92,1.11-11.21,3.03c-0.95,0.81-1.47,1.67-1.54,2.58c-0.24,3.14,5.22,7.16,13.54,8.25l1.54-13.78
							C571.95,1751.86,571.17,1751.83,570.41,1751.83z"/>
					</g>
					<g>
						<path d="M572.84,1780.74c-9.17-1.95-17.33,0.32-18.2,5.06c-0.86,4.75,5.9,10.12,15.07,12.08c1.22,0.26,2.46,0.46,3.65,0.54
							L572.84,1780.74z"/>
						<path d="M575.18,1800.31l-1.93-0.13c-1.15-0.07-2.39-0.26-3.89-0.58c-10.27-2.18-17.49-8.38-16.44-14.12
							c0.33-1.84,1.47-3.45,3.29-4.68c3.78-2.53,10.29-3.21,17-1.79l1.35,0.29L575.18,1800.31z M566.4,1781.8
							c-3.38,0-6.35,0.66-8.23,1.93c-1.03,0.69-1.63,1.49-1.79,2.39c-0.59,3.24,4.89,8.17,13.71,10.04c0.52,0.11,1.01,0.2,1.47,0.28
							l-0.42-14.23C569.51,1781.94,567.91,1781.8,566.4,1781.8z"/>
					</g>
					<g>
						
							<rect x="673.78" y="1634.95" transform="matrix(0.8656 -0.5008 0.5008 0.8656 -741.805 561.802)" width="3.51" height="55.34"/>
					</g>
					<g>
						
							<rect x="653.59" y="1666.61" transform="matrix(0.8533 -0.5215 0.5215 0.8533 -786.798 590.2008)" width="3.52" height="53.15"/>
					</g>
					<g>
						
							<rect x="638.64" y="1697.29" transform="matrix(0.829 -0.5593 0.5593 0.829 -854.613 652.9857)" width="3.52" height="53.18"/>
					</g>
				</g>
			</g>
		</g>
		<g>
			<g>
				<g>
					<path style="fill:#A57AEF;" d="M473.87,481.14c42.18,203.38,84.28,406.75,126.46,610.13c19.86,95.93,39.8,191.87,59.66,287.88
						c59.83,16.72,194.82,45.84,357.32,3.45c149.03-38.88,247.15-118.37,292.5-160.37l-60.08-267.95l-133.35-595.33
						c8.56,44.95-42.83,95.67-127.46,135.3c-38.24,17.79-83.01,33.28-132.19,44.98c-12.19,2.9-24.72,5.64-37.43,8.03
						C641.89,580.96,487.22,551.33,473.87,481.14z"/>
					<path d="M845.83,1406.35c-74.46,0-138.4-12.11-186.32-25.51l-1.03-0.29l-0.22-1.05c-10.85-52.44-21.72-104.85-32.59-157.25
						c-9.03-43.55-18.06-87.09-27.08-130.62c-21-101.27-41.98-202.54-62.97-303.81c-21.04-101.55-42.08-203.1-63.14-304.64
						c-0.13-0.57-0.25-1.14-0.36-1.71l3.45-0.69c0.12,0.56,0.23,1.12,0.35,1.69c15.29,67.96,168.27,96.26,343.03,63.06
						c11.79-2.23,24.36-4.92,37.35-8.02c48.11-11.44,92.47-26.54,131.86-44.86c87.31-40.89,134.59-90.75,126.47-133.38l3.44-0.71
						l133.35,595.33l60.29,268.94l-0.74,0.69c-57.79,53.53-155.58,124.86-293.25,160.78
						C956.49,1400.28,898.52,1406.35,845.83,1406.35z M661.49,1377.74c81.45,22.62,208.91,41.36,355.37,3.15
						c136.38-35.58,233.42-106.1,291.01-159.28l-59.85-266.97l-129.49-578.1c-5.42,39.79-51.77,83.18-128.86,119.28
						c-39.6,18.43-84.19,33.6-132.53,45.09c-13.05,3.11-25.67,5.82-37.51,8.05c-161.27,30.64-304.33,8.69-339.95-48.5
						c19.81,95.54,39.61,191.08,59.4,286.62c20.98,101.27,41.96,202.54,62.97,303.81c9.01,43.54,18.04,87.08,27.07,130.62
						C639.92,1273.59,650.72,1325.65,661.49,1377.74z"/>
				</g>
			</g>
			<g>
				<g>
					<g>
						<path style="fill:#FFFFFF;" d="M473.91,481.1c13.18,69.36,163.92,99.08,338.31,67.39c2.39-0.37,4.7-0.81,7.09-1.25
							c12.71-2.42,25.2-5.11,37.41-8.02c37.82-9.01,73.03-20.24,104.64-33.06c9.53-3.87,18.71-7.88,27.54-11.95
							c84.62-39.59,136.05-90.31,127.49-135.31c-13.32-70.2-168-99.82-345.4-66.07C593.52,326.52,460.51,410.83,473.91,481.1z"/>
						<path d="M676.64,563.11c-112.52,0-194.65-30.05-204.46-81.67l0,0c-6.62-34.75,20.99-73.69,77.75-109.67
							c56.3-35.68,134.69-64.33,220.72-80.65c86-16.36,169.41-18.47,234.88-5.94c66,12.63,105.98,38.7,112.57,73.41
							c8.44,44.35-39.58,95.65-128.47,137.23c-9.25,4.27-18.54,8.3-27.62,11.98c-32.35,13.12-67.64,24.28-104.9,33.15
							c-12.56,2.99-25.17,5.69-37.49,8.03l-1.35,0.25c-1.94,0.36-3.84,0.71-5.8,1.01C764.44,558.96,718.44,563.11,676.64,563.11z
							 M912.27,280.61c-44.25,0-92.17,4.68-140.96,13.96c-85.61,16.25-163.56,44.72-219.49,80.17
							c-55.46,35.15-82.52,72.81-76.18,106.04l0,0c12.87,67.74,163.72,97.34,336.27,65.99c1.97-0.3,3.84-0.65,5.74-1l1.35-0.25
							c12.25-2.33,24.81-5.02,37.31-7.99c37.08-8.83,72.2-19.92,104.39-32.98c9.03-3.67,18.27-7.68,27.46-11.92
							c87.33-40.85,134.62-90.71,126.5-133.38c-6.3-33.2-45.29-58.28-109.78-70.62C976.92,283.27,945.64,280.61,912.27,280.61z"/>
					</g>
					<g>
						<path style="fill:#FFFFFF;" d="M545.33,468.33c11.91,50.28,133.48,67.89,271.46,39.32c9.89-2.04,19.6-4.29,29.08-6.67
							c38.21-9.6,72.91-21.86,102.39-35.59c65.32-30.54,104.45-68.31,96.8-100.5c-11.91-50.23-133.47-67.83-271.46-39.27
							C635.56,354.14,533.36,418.05,545.33,468.33z"/>
						<path d="M691.52,522.98c-80.52,0-139.68-19.55-147.9-54.25c-2.68-11.25,0-23.31,7.98-35.84
							c27.69-43.52,116.76-87.32,221.65-109c138.7-28.73,261.4-10.52,273.52,40.58c7.61,32-28.93,70.32-97.76,102.5
							c-30.6,14.26-65.15,26.27-102.7,35.7c-9.84,2.48-19.65,4.73-29.15,6.69C772.57,518.6,729.65,522.98,691.52,522.98z
							 M900.14,313.63c-38.15,0-81.31,4.41-126.19,13.7c-104.01,21.49-192.18,64.68-219.39,107.45
							c-7.44,11.69-9.97,22.84-7.52,33.14v0c11.68,49.3,132.53,66.34,269.39,38c9.45-1.95,19.21-4.19,29.01-6.66
							c37.34-9.38,71.68-21.32,102.07-35.48c67.2-31.42,103.03-68.24,95.83-98.5C1035.49,332.18,978.33,313.63,900.14,313.63z"/>
					</g>
				</g>
				<g>
					<g>
						<path d="M723.25,448.02c1.06,0.88,2.04,1.77,3.19,2.65c2.76-0.43,5.43-0.93,8.18-1.44c14.66-2.79,29.08-5.9,43.17-9.25
							c43.65-10.39,84.28-23.35,120.75-38.15c-1.84-7.85-6.61-15.44-14.2-22.29c-28.59-25.82-87.94-31.46-132.33-12.55
							C707.53,385.99,694.66,422.27,723.25,448.02z"/>
						<path d="M725.96,452.52l-0.6-0.46c-0.78-0.6-1.48-1.2-2.19-1.8l-1.1-0.94c-12.13-10.92-17.55-24.43-15.29-38.06
							c3.06-18.38,19.29-35.1,44.53-45.88c44.94-19.15,105.15-13.38,134.2,12.86c7.82,7.04,12.78,14.84,14.74,23.19l0.34,1.47
							l-1.39,0.56c-37.32,15.14-78.03,28.01-121.01,38.23c-14.56,3.46-29.11,6.58-43.25,9.27l-1.27,0.23
							c-2.33,0.43-4.62,0.85-6.97,1.22L725.96,452.52z M724.41,446.7l1.05,0.89c0.48,0.41,0.96,0.82,1.46,1.23
							c2.05-0.33,4.07-0.7,6.11-1.08l1.27-0.23c14.07-2.68,28.57-5.78,43.08-9.23c42.26-10.06,82.31-22.67,119.07-37.49
							c-2.01-7.1-6.48-13.8-13.29-19.93c-28.13-25.41-86.66-30.9-130.46-12.24c-24.12,10.3-39.59,26.06-42.44,43.22
							C708.17,424.41,713.06,436.47,724.41,446.7z"/>
					</g>
					<g>
						<path style="fill:#FFFFFF;" d="M739.23,270c7.64,1.67,15.28,4.73,22.49,9.26c28.32,17.83,39.17,51.54,24.22,75.27
							c-14.94,23.74-50.02,28.52-78.35,10.69c-6.52-4.11-12.07-9.08-16.63-14.55c-18.66,2.77-39.61-1.39-58.31-13.17
							c-36.84-23.2-50.94-67.02-31.5-97.89c19.44-30.87,65.05-37.09,101.89-13.9C720.84,236.91,733.26,252.94,739.23,270z
							 M752.05,301.35c-13.23-8.33-30.23-5.1-37.98,7.2c-7.75,12.31-3.31,29.04,9.92,37.36c13.23,8.32,30.23,5.1,37.98-7.2
							C769.72,326.41,765.28,309.68,752.05,301.35z M679.08,247.86c-17.05-10.74-38.96-6.58-48.95,9.28
							c-9.98,15.86-4.26,37.42,12.79,48.16c17.05,10.73,38.96,6.58,48.95-9.28C701.86,280.15,696.13,258.59,679.08,247.86z"/>
						<path d="M743.74,377.72c-12.29,0-25.27-3.59-37.09-11.02c-6.16-3.87-11.68-8.63-16.41-14.16
							c-19.64,2.65-40.39-2.14-58.53-13.56c-18.17-11.44-31.51-28.14-37.59-47.01c-6.11-18.99-4.14-37.92,5.54-53.3
							s25.9-25.33,45.67-28.03c19.66-2.68,40.48,2.14,58.64,13.58c17.15,10.8,30.11,26.5,36.58,44.28
							c7.76,1.81,15.19,4.93,22.1,9.28c29.1,18.32,40.21,53.18,24.77,77.7C778.26,370.04,761.74,377.72,743.74,377.72z
							 M691.68,348.78l0.63,0.76c4.64,5.56,10.1,10.33,16.22,14.19c27.46,17.29,61.52,12.74,75.92-10.14
							c14.41-22.88,3.79-55.56-23.67-72.85c-6.84-4.31-14.22-7.35-21.93-9.03l-0.96-0.21l-0.32-0.93
							c-6.09-17.41-18.69-32.81-35.47-43.38c-17.47-10.99-37.46-15.64-56.3-13.07c-18.72,2.56-34.05,11.94-43.17,26.42
							c-9.12,14.48-10.95,32.36-5.17,50.35c5.82,18.09,18.65,34.12,36.12,45.12c17.73,11.17,38.02,15.75,57.12,12.92L691.68,348.78z
							 M739.78,352.29c-5.66,0-11.48-1.58-16.72-4.88c-6.77-4.26-11.6-10.74-13.59-18.22c-2-7.54-0.89-15.19,3.12-21.56
							c8.25-13.1,26.38-16.58,40.4-7.75h0c14.02,8.83,18.72,26.68,10.47,39.78C758.29,347.86,749.25,352.29,739.78,352.29z
							 M736.25,298.5c-8.3,0-16.19,3.85-20.69,10.99c-3.48,5.53-4.44,12.21-2.7,18.79c1.76,6.63,6.04,12.36,12.07,16.15
							c12.39,7.79,28.34,4.81,35.56-6.66c7.22-11.46,3.01-27.14-9.38-34.94C746.45,299.91,741.27,298.5,736.25,298.5z M663.27,313
							c-7.2,0-14.61-2.01-21.28-6.22c-17.84-11.23-23.82-33.93-13.33-50.58c5.09-8.09,13.26-13.56,22.99-15.41
							c9.69-1.84,19.76,0.14,28.39,5.58l0,0c8.62,5.43,14.76,13.67,17.29,23.19c2.54,9.57,1.14,19.3-3.96,27.39
							C686.8,307.37,675.32,312.99,663.27,313z M658.75,243.65c-2.16,0-4.32,0.2-6.46,0.6c-8.76,1.66-16.1,6.57-20.66,13.83
							c-9.45,15.02-3.97,35.53,12.23,45.73c16.2,10.2,37.07,6.28,46.52-8.73c4.57-7.25,5.82-15.99,3.53-24.61
							c-2.3-8.67-7.9-16.16-15.77-21.12l0,0C672.19,245.59,665.48,243.65,658.75,243.65z"/>
					</g>
				</g>
			</g>
			<g>
				<path style="fill:#00BEFB;" d="M600.33,1091.27c0.27,1.36,0.55,2.64,0.82,4.01c2.11,10.32,4.3,20.64,6.41,30.96
					c17.48,84.25,34.95,168.58,52.43,252.92c59.83,16.72,194.82,45.84,357.32,3.45c149.03-38.88,247.15-118.37,292.5-160.37
					l-56.61-252.09l-8.65-38.45l-155.81,56.59l-59.73,122.67l-119.21-75.77l-309.4,56.11L600.33,1091.27z"/>
				<path d="M845.83,1406.35c-74.46,0-138.4-12.11-186.32-25.51l-1.03-0.29l-0.22-1.05c-17.48-84.33-34.95-168.67-52.43-252.92
					c-1.05-5.14-2.12-10.28-3.19-15.41c-1.08-5.18-2.16-10.36-3.22-15.55l-1.24-6.03l2.15-0.08l309.83-56.2l0.58,0.37l117.55,74.71
					l59.18-121.53l158.35-57.51l9.08,40.4l56.83,253.08l-0.74,0.69c-57.79,53.53-155.58,124.86-293.25,160.78
					C956.49,1400.28,898.52,1406.35,845.83,1406.35z M661.49,1377.74c81.45,22.62,208.91,41.36,355.37,3.15
					c136.38-35.58,233.42-106.1,291.01-159.28l-64.6-287.61l-153.26,55.66l-60.29,123.8l-120.29-76.46l-307.03,55.67l0.46,2.23
					c1.05,5.18,2.13,10.35,3.21,15.54c1.07,5.14,2.14,10.28,3.19,15.42C626.68,1209.77,644.09,1293.76,661.49,1377.74z"/>
			</g>
			<g>
				<polygon points="600.41,1091.27 601.15,1095.27 607.21,1126.32 607.56,1126.23 902.55,1067.67 1044.39,1159.89 1109.36,1019.88 
					1253.2,970.13 1244.55,931.68 1088.75,988.27 1029.01,1110.93 909.81,1035.16 				"/>
				<path d="M1045.13,1162.47l-142.93-92.94l-296.02,58.76l-0.68-1.64l-7.13-36.81l1.73-0.32l310.07-56.23l0.58,0.37l117.55,74.71
					l59.18-121.53l158.35-57.51l9.43,41.93l-144.62,50.03L1045.13,1162.47z M902.91,1065.8l0.6,0.39l140.13,91.12l64.43-138.85
					l143.06-49.48l-7.86-34.97l-153.26,55.66l-60.29,123.8l-120.29-76.46l-306.98,55.66l0.42,2.27l5.72,29.27L902.91,1065.8z"/>
			</g>
			<g>
				
					<ellipse transform="matrix(0.7071 -0.7071 0.7071 0.7071 -610.9511 934.2812)" style="fill:#FFBC00;" cx="822.3" cy="1204.62" rx="63.53" ry="63.53"/>
				<path d="M822.3,1269.92c-35.6,0-64.79-28.71-65.27-64.41l0,0c-0.24-17.44,6.33-33.92,18.5-46.42
					c12.16-12.5,28.47-19.51,45.9-19.75c17.41-0.11,33.92,6.33,46.42,18.5c12.5,12.16,19.51,28.47,19.75,45.9
					c0.49,36-28.4,65.68-64.4,66.17C822.9,1269.92,822.6,1269.92,822.3,1269.92z M760.54,1205.46
					c0.46,33.77,28.08,60.94,61.76,60.94c0.28,0,0.56,0,0.85-0.01c34.06-0.46,61.39-28.55,60.93-62.61
					c-0.22-16.5-6.86-31.92-18.68-43.43c-11.83-11.51-27.43-17.67-43.92-17.5c-16.5,0.22-31.93,6.86-43.43,18.69
					C766.54,1173.37,760.32,1188.97,760.54,1205.46L760.54,1205.46z"/>
			</g>
		</g>
		<g>
			<g>
				<g>
					<path d="M293.41,1104.16c11.76-4.65,23.52-9.3,35.36-13.85c9.84-3.8,19.69-7.53,29.62-11.2
						c45.47-16.77,91.62-31.64,139.21-41.21c24.61-4.95,65.38-12.75,90.08-14.07l-13.45-60.47c-28.21,1.25-56.45,4.26-84.92,9.53
						c-53.25,9.89-104.65,26.38-155.3,45.12c-9.94,3.67-19.82,7.42-29.67,11.26c-10.38,3.98-20.71,8.04-31.01,12.11
						C234.08,1056.94,253.89,1119.81,293.41,1104.16z"/>
				</g>
				<g>
					<g>
						<path style="fill:#FFFFFF;" d="M195.25,1053.08c0,0-66.07-5.75-71.21,13.73c-5.14,19.48,49.57,18.02,49.57,18.02
							L195.25,1053.08z"/>
						<path d="M170.84,1086.62c-9.31,0-38.57-0.83-46.67-11.07c-2.12-2.68-2.74-5.77-1.83-9.19c5.37-20.32,66.15-15.63,73.06-15.03
							l2.99,0.26l-23.84,34.97l-0.9,0.02C173.42,1086.6,172.41,1086.62,170.84,1086.62z M174.87,1054.03
							c-20.75,0-46.31,2.55-49.13,13.24c-0.62,2.32-0.22,4.32,1.19,6.11c6.77,8.56,34.46,9.9,45.74,9.72l19.42-28.49
							C187.38,1054.27,181.36,1054.03,174.87,1054.03z"/>
					</g>
					<g>
						<path style="fill:#FFFFFF;" d="M179.3,1068.38c0,0-70.17,2.4-73.65,23.52c-3.47,21.11,54.02,12.6,54.02,12.6L179.3,1068.38z"
							/>
						<path d="M136.05,1107.94c-11.46,0-23.85-1.44-29.3-6.98c-2.49-2.53-3.44-5.68-2.84-9.36c3.67-22.28,72.4-24.89,75.32-24.99
							l3.07-0.1l-21.52,39.58l-0.87,0.13C159.06,1106.35,148.07,1107.94,136.05,1107.94z M176.28,1070.27
							c-20.93,1.07-66.36,6.56-68.89,21.91c-0.42,2.55,0.19,4.61,1.87,6.32c8.02,8.15,37.48,6.02,49.29,4.37L176.28,1070.27z"/>
					</g>
					<g>
						<path style="fill:#FFFFFF;" d="M207.99,1100c5.54-1.04,11.11-0.95,16.39,1.17c6.57,2.63,8.89,8.81,4.99,15.63
							c-5.75,10.04-18.25,13.36-27.72,16.5c-11.69,3.87-24.17,6.65-34.49,14.45c-6.77,5.12-10.92,14.73-2.94,21.16
							c5.78,4.66,13.65,4.9,20.52,5.35c43.54,2.9,102.59-14.85,109.42-66.64c0.31-2.32,2.3-3.92,3.27-5.99
							c8.76,4.9,28.3-0.61,24.83-17.1c-4.41-20.95-9.37-39.05-17.37-59.13c-3.55-8.89-6.17-19.11-17.43-17.32
							c-10.93,1.74-12.06,12.9-10.94,22.42c-24.5,7.17-51.61,1.96-75.26,13.5c-22.94,11.19-45.4,34.72-65.51,51.51
							c-7.03,5.87-33.43,23.13-21.15,35.27c7.72,7.63,23.92,0.37,32.09-2.86c12.91-5.1,25.04-12.36,37.53-18.63
							C191.47,1105.63,199.71,1101.55,207.99,1100z"/>
						<path d="M193.5,1176.3c-3.05,0-6.02-0.1-8.88-0.29l-1.19-0.08c-6.77-0.43-14.44-0.92-20.32-5.66
							c-3.35-2.7-5.08-6.17-5.02-10.04c0.08-4.9,3.14-10.22,8-13.89c8.61-6.5,18.62-9.6,28.3-12.6c2.25-0.69,4.48-1.39,6.69-2.12
							l2.4-0.78c9.1-2.95,19.42-6.29,24.35-14.92c1.65-2.89,2.09-5.67,1.27-8.04c-0.78-2.23-2.64-3.99-5.38-5.09
							c-4.54-1.81-9.58-2.16-15.41-1.07l0,0c-8.23,1.54-16.59,5.74-23.31,9.11c-3.92,1.97-7.8,4.03-11.69,6.1
							c-8.38,4.45-17.04,9.06-25.98,12.59l-1.69,0.67c-9.07,3.65-24.24,9.75-32.28,1.8c-2.67-2.64-3.92-5.7-3.71-9.09
							c0.61-9.92,13.73-20.05,21.57-26.1c1.36-1.05,2.53-1.95,3.4-2.68c5.33-4.45,10.74-9.3,16.48-14.44
							c15.9-14.25,32.34-28.98,49.39-37.3c13.9-6.78,29.05-7.91,43.7-9c10.13-0.76,20.59-1.53,30.43-4.21
							c-1.55-16.95,5.91-21.81,12.57-22.87c11.55-1.83,15.16,7.54,18.32,15.81c0.33,0.87,0.67,1.74,1.01,2.59
							c7.36,18.47,12.59,36.24,17.46,59.42c1.46,6.92-0.7,12.9-6.06,16.84c-5.59,4.11-13.91,5.25-19.79,2.9
							c-0.22,0.34-0.46,0.66-0.69,0.98c-0.76,1.06-1.41,1.97-1.54,2.96C289.17,1158.95,233.99,1176.3,193.5,1176.3z M214.62,1097.59
							c3.73,0,7.17,0.65,10.42,1.95c3.66,1.46,6.29,4.02,7.39,7.2c1.17,3.36,0.64,7.14-1.53,10.94
							c-5.61,9.81-17.09,13.53-26.32,16.52l-2.38,0.78c-2.23,0.74-4.49,1.44-6.76,2.14c-9.39,2.9-19.11,5.91-27.22,12.04
							c-4.01,3.03-6.55,7.3-6.61,11.14c-0.04,2.79,1.21,5.22,3.71,7.25c5.01,4.04,11.79,4.47,18.34,4.89l1.2,0.08
							c39.42,2.6,100.63-12.55,107.56-65.12c0.25-1.87,1.27-3.3,2.18-4.56c0.49-0.67,0.95-1.31,1.24-1.96l0.8-1.7l1.65,0.92
							c4.68,2.62,12.56,1.76,17.56-1.92c2.96-2.18,6.18-6.25,4.7-13.29c-4.83-22.97-10.01-40.57-17.29-58.84
							c-0.35-0.87-0.69-1.76-1.03-2.64c-3.57-9.32-6.34-14.91-14.49-13.59c-7.74,1.23-10.93,8.12-9.47,20.47l0.17,1.48l-1.42,0.41
							c-10.6,3.1-21.77,3.93-32.57,4.74c-14.32,1.07-29.13,2.17-42.42,8.65c-16.61,8.11-32.86,22.67-48.59,36.76
							c-5.76,5.16-11.19,10.03-16.57,14.52c-0.9,0.75-2.1,1.68-3.51,2.76c-6.88,5.31-19.7,15.19-20.21,23.53
							c-0.15,2.37,0.73,4.45,2.67,6.38c6.39,6.31,20.22,0.76,28.49-2.56l1.71-0.68c8.75-3.46,17.32-8.02,25.62-12.42
							c3.91-2.08,7.82-4.16,11.77-6.14c6.92-3.47,15.52-7.78,24.24-9.42l0,0C210.1,1097.82,212.41,1097.59,214.62,1097.59z"/>
					</g>
					<g>
						
							<rect x="277.42" y="1030.02" transform="matrix(0.9666 -0.2561 0.2561 0.9666 -256.9273 106.1737)" width="3.52" height="19.03"/>
					</g>
					<g>
						
							<rect x="293.39" y="1087.72" transform="matrix(0.9626 -0.2711 0.2711 0.9626 -285.5853 120.9863)" width="3.52" height="13.06"/>
					</g>
				</g>
			</g>
			<g>
				<g>
					<path d="M1253.54,1021.29c63.86-16.54,127.13-34.77,188.03-60.3c47.3-19.86,142.69-64.22,98.64-129.98
						c-16.2-24.16-42.65-34.51-69.19-43.38c-31.52-10.5-65.02-13.28-98.01-15.19c-53.8-3.16-108.46-0.2-162.44,4.25l14.32,64.98
						c37.17-2.61,74.47-4.22,111.71-4.31c20.21-0.08,40.66,1.67,60.78,3.47c19.01,1.66,104.66,1.28,71.9,37.15
						c-18.22,19.94-56.58,24.66-80.69,33.73c-49.53,18.57-100.59,32.61-151.77,45.85
						C1195.75,968.16,1212.43,1031.93,1253.54,1021.29z"/>
				</g>
				<g>
					<g>
						<path style="fill:#FFFFFF;" d="M1353.65,993.76c2.34,7.88,3.19,16.08,0.12,23.97c-3.61,9.05-13.38,13.7-22.99,12.83
							c-4.06-0.35-8.05-1.79-11.6-3.72c-0.26-0.15-4.32-2.94-4.39-2.92c-2.63,2.01-4.89,8.6-6.77,11.49
							c-2.32,3.43-4.74,6.75-7.34,9.91c-9.31,11.16-20.83,19.75-33.95,25.38c-5.94,2.54-12.12,4.49-18.61,5.81
							c-25.22,5.08-54.76,4.32-79.63-1.29c-9.75-2.2-30.13-7.51-32.46-19.35c-0.49-2.89,1.08-5.62,2.4-8.21
							c0.2-0.34,0.34-0.6,0.47-0.92c-32.71-9.84-15.31-32.7-15.31-32.7c-0.17-0.1-0.27-0.21-0.38-0.33
							c-4.61-4.52-10.35-10.83-8.55-17.8c2.59-10.43,16.59-14.92,25.71-17.96c13.51-4.44,27.58-7.3,41.12-11.6
							c5.84-1.86,11.56-3.91,17.17-6.08c3.2-1.22,6.38-2.51,9.5-3.79c1.61-0.72,3.15-1.43,9.43-4.06
							c-14.15-4.62-59.79-17.81-44.17-39.76c7.3-10.33,30.51-11.4,37.35-11.95c3.03-0.24,6.41-0.29,10.12-0.14
							c16.98,0.68,39.39,6.02,53.03,20.79c2.62,2.75,8.3,9.65,11.75,8.29c1.81-0.78,0.16-0.47,3.36-8.91
							c2.19-5.78,25.31-36.3,41.71,10.08c1.73,4.8,3.32,9.63,4.98,14.44c3.67,10.68,7.28,21.39,11.61,31.82
							C1349.58,982.4,1352.03,988.01,1353.65,993.76z"/>
						<path d="M1212.07,1081.64c-14.92,0-30.08-1.58-43.96-4.71c-20.93-4.72-31.99-11.5-33.8-20.72c-0.53-3.15,0.81-5.95,2.08-8.43
							c-10.03-3.39-16.2-8.45-18.35-15.07c-2.55-7.86,1.39-15.44,3.26-18.41c-3.76-3.72-10.4-10.79-8.34-18.82
							c2.78-11.18,17-15.91,26.41-19.04l0.45-0.15c7.11-2.33,14.45-4.25,21.55-6.11c6.47-1.69,13.16-3.45,19.59-5.49
							c5.47-1.74,11.05-3.72,17.07-6.04c3.19-1.22,6.37-2.5,9.46-3.77c1.22-0.55,2.42-1.09,5.05-2.21
							c-13.84-4.47-38.85-13.11-43.38-26.72c-1.55-4.67-0.6-9.47,2.82-14.28c7.33-10.36,28.26-11.91,37.2-12.57l1.44-0.11
							c3.11-0.25,6.59-0.3,10.34-0.14c8.41,0.34,37.18,2.87,54.25,21.36l1.08,1.16c1.69,1.84,6.84,7.45,8.73,6.68
							c0.01,0,0.02-0.01,0.02-0.01c0.02-0.09,0.04-0.21,0.07-0.34c0.23-1.14,0.65-3.27,2.27-7.54c1.27-3.34,10.17-16.33,21.4-16.33
							c0.06,0,0.11,0,0.17,0c9.39,0.11,17.28,9,23.45,26.44c1.13,3.15,2.21,6.32,3.29,9.5l2.58,7.54
							c3.3,9.63,6.73,19.59,10.68,29.14l0.67,1.6c2.07,4.91,4.2,9.98,5.69,15.26c2.86,9.64,2.89,17.84,0.07,25.09
							c-3.73,9.35-13.68,14.98-24.78,13.95c-3.98-0.34-8.11-1.66-12.28-3.92c-0.14-0.08-0.86-0.56-1.7-1.13
							c-0.53-0.36-1.12-0.76-1.61-1.09c-1.13,1.42-2.3,3.87-3.29,5.91c-0.79,1.63-1.53,3.17-2.26,4.29
							c-2.59,3.84-5.03,7.12-7.46,10.07c-9.51,11.39-21.15,20.1-34.61,25.87c-6.12,2.62-12.5,4.61-18.95,5.92
							C1237.15,1080.51,1224.69,1081.64,1212.07,1081.64z M1216.81,902.24c-2.09,0-4.06,0.07-5.89,0.22l-1.46,0.11
							c-7.72,0.57-28.22,2.09-34.59,11.1c-2.78,3.9-3.55,7.54-2.35,11.13c4.2,12.65,31.55,21.42,43.23,25.16l6.89,2.24l-4.36,1.83
							c-5.89,2.47-7.59,3.23-9.11,3.92l-0.33,0.15c-3.13,1.28-6.33,2.57-9.54,3.8c-6.08,2.34-11.73,4.34-17.27,6.11
							c-6.52,2.07-13.26,3.84-19.77,5.54c-7.05,1.85-14.34,3.75-21.34,6.05l-0.44,0.15c-8.68,2.89-21.79,7.25-24.11,16.57
							c-1.48,5.75,3.01,11.15,8.08,16.12l1.73,0.99l-1.19,1.66c-0.06,0.08-6.25,8.41-3.6,16.54c1.92,5.89,7.98,10.4,18.01,13.42
							l1.84,0.55l-0.71,1.78c-0.16,0.41-0.34,0.73-0.59,1.16l-0.26,0.52c-1.17,2.27-2.27,4.42-1.92,6.51
							c1.49,7.56,11.96,13.61,31.12,17.93c25.17,5.68,54.65,6.16,78.89,1.28c6.22-1.26,12.36-3.18,18.26-5.71
							c12.94-5.55,24.15-13.93,33.29-24.88c2.36-2.85,4.73-6.05,7.24-9.76c0.59-0.91,1.28-2.34,2.01-3.87
							c1.53-3.18,3.11-6.48,5.15-8.03l0.56-0.28c0.84-0.27,0.85-0.25,4.33,2.11c0.71,0.48,1.32,0.9,1.47,0.99
							c3.62,1.97,7.4,3.18,10.85,3.47c9.41,0.86,18.11-3.98,21.2-11.74c2.52-6.48,2.46-13.95-0.18-22.81l-0.01-0.02
							c-1.43-5.07-3.53-10.05-5.55-14.86l-0.67-1.61c-4-9.65-7.44-19.67-10.76-29.35l-2.58-7.55c-1.08-3.16-2.14-6.31-3.28-9.45
							c-5.55-15.69-12.52-24.03-20.18-24.11c-0.04,0-0.08,0-0.12,0c-8.8,0-16.86,10.77-18.11,14.06c-1.52,4-1.91,5.94-2.11,6.98
							c-0.3,1.5-0.59,2.23-2.2,2.92c-4.22,1.65-9.09-3.67-12.66-7.56l-1.05-1.14c-16.18-17.51-43.76-19.92-51.83-20.25
							C1219.45,902.27,1218.11,902.24,1216.81,902.24z"/>
					</g>
					<g>
						<path d="M1132.81,1016.19c-3.21,0-6.36-0.13-9.41-0.4l0.32-3.5c37.64,3.44,91.35-17.15,91.89-17.36l1.27,3.28
							C1214.82,998.99,1169.92,1016.19,1132.81,1016.19z"/>
					</g>
					<g>
						<path d="M1140.9,1049.45c-1.72,0-2.7-0.02-2.77-0.02l0.06-3.52c0.52,0,52.48,0.81,84.42-10.06l1.13,3.33
							C1195.52,1048.79,1152.21,1049.45,1140.9,1049.45z"/>
					</g>
					<g>
						
							<rect x="1285.47" y="929.43" transform="matrix(0.9457 -0.325 0.325 0.9457 -235.2403 469.3186)" width="3.51" height="18.77"/>
					</g>
					<g>
						<rect x="1310.1" y="1007.46" transform="matrix(0.92 -0.392 0.392 0.92 -293.2427 595.5353)" width="3.52" height="16.93"/>
					</g>
				</g>
			</g>
		</g>
		<g>
			<g>
				<g>
					<path d="M1062.41,894.08c-22.44,4.79-45.38,1.92-67.93,5.26c-7.13,1.04-13.78,3.17-20.24,5.74
						c-15.04,5.93-29.02,14.26-45.27,17.24c-13.11,2.39-29.7,0.6-37.91-8.7c-1.84-2.06-3.26-4.51-4.14-7.34
						c-5.58-18.18,10.67-38.66,23.77-51.96c0.06-0.07,0.16-0.15,0.23-0.23c24.92-25.18,62.28-37.85,98.53-37
						c12.94,0.32,27.41,2.38,40.7,6.73c20.68,6.75,38.33,19.1,42.17,39.13C1095.8,881.5,1080.89,890.08,1062.41,894.08z"/>
					<path d="M918.19,925.03c-10.44,0-21.71-2.64-28.44-10.26c-2.05-2.3-3.56-4.99-4.5-7.98c-4.53-14.75,3.61-32.82,24.2-53.72
						c24.37-24.63,61.63-38.66,100.05-37.75c10.06,0.25,25.38,1.63,41.2,6.82c17.33,5.66,38.91,17.27,43.35,40.47
						c3.15,16.85-7.37,28.01-31.27,33.18l0,0c-12.56,2.68-25.41,3-37.84,3.3c-9.94,0.24-20.22,0.5-30.21,1.98
						c-6.14,0.9-12.45,2.69-19.84,5.64c-4.65,1.83-9.28,3.93-13.76,5.97c-10.04,4.56-20.44,9.27-31.84,11.37
						C925.89,924.66,922.1,925.03,918.19,925.03z M1006,818.8c-36.2,0-71.07,13.52-93.83,36.52
						c-19.83,20.13-27.69,37.03-23.57,50.44c0.78,2.51,2.05,4.76,3.77,6.69c7.76,8.78,23.81,10.42,36.28,8.14
						c10.98-2.01,21.16-6.64,31.02-11.11c4.52-2.05,9.2-4.18,13.92-6.04c7.65-3.05,14.21-4.9,20.63-5.85
						c10.2-1.5,20.59-1.76,30.63-2.01c12.26-0.3,24.95-0.61,37.19-3.23c21.99-4.75,31.32-14.27,28.55-29.08
						c-4.12-21.51-24.56-32.42-40.99-37.78c-12.03-3.94-26.31-6.3-40.2-6.65C1008.27,818.82,1007.14,818.8,1006,818.8z"/>
				</g>
				<g>
					<path style="fill:#FFFFFF;" d="M910.7,854.32c0.07-0.09,0.15-0.15,0.22-0.24c24.9-25.16,62.27-37.86,98.54-36.99
						c12.92,0.31,27.41,2.37,40.67,6.73c-10.15,20.22-33.51,37.49-63.2,43.98C957.13,874.38,928.56,868.51,910.7,854.32z"/>
					<path d="M962.89,872.21c-20.55,0-39.75-5.76-53.28-16.51l-1.35-1.07l1.29-1.66c24.27-24.54,61.66-38.51,99.94-37.63
						c14.19,0.34,28.82,2.76,41.18,6.82l1.94,0.64l-0.91,1.82c-10.72,21.35-35.4,38.56-64.39,44.91
						C979.14,871.33,970.91,872.21,962.89,872.21z M913.35,854.14c18.07,13.38,45.88,17.97,73.21,11.95
						c27.15-5.94,50.32-21.64,61.05-41.23c-11.61-3.58-25.08-5.71-38.18-6.02C972.6,817.97,936.87,831.13,913.35,854.14z"/>
				</g>
				<g>
					<path style="fill:#FF4568;" d="M974.24,905.07c-15.04,5.93-29.02,14.26-45.27,17.24c-13.11,2.39-29.7,0.6-37.91-8.7
						c5.49-17.05,20.9-29.97,39.93-31.45C949.22,880.74,965.81,890.23,974.24,905.07z"/>
					<path d="M918.19,925.03c-10.44,0-21.71-2.64-28.44-10.26l-0.66-0.75l0.31-0.95c5.91-18.34,22.19-31.17,41.46-32.67
						c18.29-1.44,35.89,7.92,44.92,23.8l1,1.76l-1.88,0.74c-4.64,1.83-9.28,3.93-13.76,5.97c-10.04,4.56-20.44,9.27-31.84,11.37
						C925.89,924.66,922.1,925.03,918.19,925.03z M893.06,913.18c7.98,8.13,23.47,9.61,35.6,7.4c10.98-2.01,21.16-6.64,31.02-11.11
						c3.91-1.78,7.93-3.6,12-5.26c-8.62-13.64-24.3-21.54-40.55-20.3C913.62,885.28,898.79,896.72,893.06,913.18z"/>
				</g>
			</g>
			<g>
				<g>
					<g>
						<path style="fill:#FFFFFF;" d="M893.43,715.61c-4.78-17.49-10.98-33.97-18.28-49.2c-4.54-9.44-9.43-18.39-14.71-26.76
							c-18.96-30.2-42.24-52.76-66.19-64.12c-16.1-7.59-32.45-10.17-48.07-6.55c-55.48,12.87-79.63,99.36-53.84,193.19
							s91.69,159.46,147.22,146.58c3.98-0.94,7.81-2.25,11.45-3.87c9.88-4.5,18.5-11.55,25.78-20.7
							c5.17-6.52,9.65-14.09,13.38-22.54c0.08-0.06,0.11-0.16,0.13-0.26C906.41,824.72,908.76,771.43,893.43,715.61z"/>
						<path d="M825.48,912.1c-52.89,0-111.02-62.89-134.82-149.47c-16.63-60.51-12.92-121.66,9.68-159.6
							c11.41-19.15,27.13-31.52,45.46-35.77c15.58-3.62,32.14-1.38,49.21,6.67c24.1,11.43,47.87,34.44,66.92,64.78
							c5.19,8.23,10.17,17.29,14.8,26.93c7.5,15.66,13.69,32.31,18.39,49.5c14.99,54.58,13.83,108.15-3.19,146.95l-0.33,0.71
							c-3.78,8.46-8.3,16.02-13.42,22.47c-7.61,9.55-16.5,16.68-26.43,21.2c-3.8,1.7-7.76,3.04-11.78,3.98
							C835.21,911.56,830.36,912.1,825.48,912.1z M760.51,569.11c-4.73,0-9.37,0.53-13.92,1.59c-17.38,4.03-32.33,15.84-43.24,34.14
							c-22.13,37.14-25.69,97.24-9.31,156.86c25.5,92.79,90.62,158.01,145.13,145.34c3.8-0.89,7.54-2.16,11.13-3.76
							c9.41-4.29,17.87-11.08,25.13-20.19c5.02-6.33,9.45-13.78,13.15-22.15l0.24-0.45c16.34-37.8,17.4-91.62,2.9-144.41v0
							c-4.64-16.98-10.76-33.44-18.17-48.91c-4.57-9.52-9.49-18.46-14.61-26.58c-18.7-29.78-41.95-52.32-65.45-63.47
							C782.19,571.78,771.15,569.11,760.51,569.11z"/>
					</g>
					<g>
						<path d="M893.43,715.61c-4.78-17.49-10.98-33.97-18.28-49.2c-4.54-9.44-9.43-18.39-14.71-26.76
							c-50.12,9.2-88.88,49.94-99.9,101.68l69.36,32.21l-72.37,5.51c0.11,1.47,0.13,2.96,0.28,4.42
							c4.52,58.05,41.96,105.24,90.76,121.76c11.07-5.05,20.74-12.99,28.93-23.2c4.76-6.01,9-12.85,12.69-20.38
							c0.08-0.06,0.11-0.16,0.13-0.26C906.41,824.72,908.76,771.43,893.43,715.61z"/>
						<path d="M848.68,907.11l-0.66-0.22c-51.38-17.39-87.48-65.79-91.95-123.29c-0.09-0.86-0.14-1.78-0.18-2.7
							c-0.03-0.57-0.06-1.15-0.1-1.72l-0.13-1.75l67.4-5.14l-64.53-29.96l0.29-1.37c11.37-53.38,51.14-93.83,101.31-103.05
							l1.17-0.21l0.64,1.01c5.2,8.23,10.18,17.29,14.8,26.93c7.5,15.66,13.69,32.31,18.39,49.5
							c14.99,54.58,13.83,108.15-3.19,146.95l-0.36,0.73c-3.74,7.56-8.01,14.39-12.69,20.3c-8.57,10.69-18.52,18.67-29.58,23.71
							L848.68,907.11z M759.39,780.67c0,0.02,0,0.04,0,0.06c0.04,0.85,0.08,1.71,0.17,2.55c4.35,55.9,39.22,102.93,88.92,120.06
							c10.3-4.83,19.61-12.36,27.65-22.41c4.61-5.81,8.81-12.56,12.48-20.05l0.21-0.39c16.34-37.8,17.4-91.62,2.9-144.41v0
							c-4.64-16.98-10.76-33.44-18.17-48.91c-4.38-9.13-9.08-17.72-13.97-25.57c-47.78,9.28-85.67,47.84-97.03,98.73l74.19,34.45
							L759.39,780.67z"/>
					</g>
				</g>
				<g>
					<g>
						<g>
							<path style="fill:#FFFFFF;" d="M1185.15,643.48c-4.54-17.55-10.5-34.11-17.58-49.42c-4.4-9.5-9.17-18.51-14.33-26.93
								c-18.54-30.42-41.49-53.26-65.27-64.9c-15.99-7.78-32.31-10.56-47.97-7.12c-55.66,12.21-81.02,98.41-56.56,192.53
								c24.46,94.12,89.44,160.53,145.15,148.32c3.99-0.89,7.84-2.15,11.51-3.73c9.94-4.38,18.66-11.33,26.07-20.39
								c5.26-6.45,9.85-13.97,13.7-22.37c0.08-0.06,0.11-0.16,0.13-0.26C1196.58,752.74,1199.69,699.48,1185.15,643.48z"/>
							<path d="M1115.23,839.15c-53.1,0-110.82-63.78-133.5-151.07c-15.77-60.67-11.21-121.76,11.9-159.42
								c11.68-19.04,27.58-31.24,45.99-35.27c15.64-3.43,32.16-0.99,49.12,7.25c23.94,11.72,47.38,35.01,66,65.57
								c5.08,8.29,9.94,17.41,14.43,27.1c7.27,15.73,13.23,32.46,17.69,49.72c14.22,54.76,12.3,108.3-5.26,146.9l-0.21,0.44
								c-3.93,8.53-8.59,16.12-13.85,22.57c-7.74,9.46-16.73,16.48-26.73,20.89c-3.83,1.66-7.81,2.95-11.83,3.84
								C1124.44,838.68,1119.85,839.15,1115.23,839.15z M1053.55,495.41c-4.47,0-8.86,0.47-13.18,1.42
								c-17.45,3.83-32.58,15.47-43.74,33.68C974,567.38,969.6,627.42,985.13,687.2c24.19,93.07,88.35,159.05,143.07,147.04
								c3.8-0.85,7.57-2.07,11.19-3.63c9.47-4.18,18.02-10.87,25.41-19.89c5.11-6.26,9.64-13.67,13.46-22l0.26-0.46
								c16.87-37.62,18.68-91.41,4.93-144.36v0c-4.41-17.06-10.29-33.58-17.48-49.12c-4.43-9.57-9.22-18.56-14.23-26.75
								c-18.28-30-41.2-52.82-64.54-64.24C1075.69,498.22,1064.42,495.41,1053.55,495.41z"/>
						</g>
						<g>
							<path d="M1185.15,643.48c-4.54-17.55-10.5-34.11-17.58-49.42c-4.4-9.5-9.17-18.51-14.33-26.93
								c-50.24,8.61-89.57,48.88-101.33,100.49l68.9,33.03l-72.44,4.65c0.09,1.47,0.08,2.96,0.22,4.42
								c3.7,58.1,40.47,105.73,89.04,122.83c11.14-4.92,20.93-12.74,29.25-22.86c4.85-5.96,9.18-12.74,12.98-20.23
								c0.08-0.06,0.11-0.16,0.13-0.26C1196.58,752.74,1199.69,699.48,1185.15,643.48z"/>
							<path d="M1137.7,834.44l-0.65-0.23c-51.13-18-86.54-66.82-90.2-124.38c-0.08-0.86-0.12-1.79-0.15-2.71
								c-0.02-0.57-0.04-1.14-0.08-1.71l-0.11-1.75l67.47-4.33l-64.1-30.73l0.31-1.37c12.12-53.25,52.45-93.22,102.74-101.83
								l1.17-0.2l0.63,1.01c5.08,8.3,9.94,17.42,14.43,27.11c7.27,15.73,13.23,32.46,17.69,49.72c14.22,54.76,12.3,108.3-5.26,146.9
								l-0.23,0.46c-3.87,7.61-8.28,14.47-13.11,20.4c-8.71,10.59-18.77,18.44-29.91,23.35L1137.7,834.44z M1050.2,706.95
								c0,0.02,0,0.04,0,0.05c0.03,0.85,0.06,1.71,0.14,2.56c3.51,55.09,38.51,103.64,87.21,121.1
								c10.38-4.71,19.79-12.14,27.97-22.08c4.69-5.77,8.99-12.47,12.76-19.91l0.23-0.39c16.87-37.62,18.68-91.41,4.93-144.36v0
								c-4.41-17.06-10.29-33.58-17.48-49.12c-4.24-9.17-8.82-17.82-13.61-25.72c-47.91,8.71-86.34,46.81-98.42,97.57l73.69,35.32
								L1050.2,706.95z"/>
						</g>
					</g>
					<g>
						<g>
							<path d="M1158.13,593.31l-0.31-3.5c14.42-1.26,28.36-5.6,40.32-12.54c23.77-13.8,33.96-34.05,37.93-44.89l3.3,1.21
								c-4.12,11.29-14.73,32.36-39.47,46.72C1187.51,587.5,1173.06,591.99,1158.13,593.31z"/>
						</g>
						<g>
							<path d="M1204.17,623.61c-13.26,0-26.65-2.65-38.96-7.73l1.34-3.25c13.18,5.44,27.62,8.02,41.75,7.38
								c28.17-1.21,48.11-14.22,57.49-21.87l2.23,2.72c-9.72,7.92-30.38,21.4-59.56,22.66
								C1207.03,623.58,1205.6,623.61,1204.17,623.61z"/>
						</g>
					</g>
				</g>
				<g>
					<g>
						<path d="M680.49,695.07c-13.39,0-26.64-2.55-38.59-7.46c-26.62-10.94-40.28-30.4-46.05-41.03l3.09-1.68
							c5.55,10.21,18.68,28.92,44.3,39.45c12.88,5.29,27.33,7.72,41.81,7.1l0.16,3.51C683.64,695.03,682.06,695.07,680.49,695.07z"
							/>
					</g>
					<g>
						<path d="M630.92,731.92c-24.69,0-43.68-9.1-53.35-14.97l1.82-3.01c10.44,6.34,32.14,16.6,60.21,14.07
							c14.1-1.27,28.01-5.7,40.22-12.82l1.77,3.03c-12.66,7.38-27.07,11.97-41.68,13.29C636.84,731.8,633.83,731.92,630.92,731.92z"
							/>
					</g>
				</g>
			</g>
			<g>
				<path style="fill:#FF6DCE;" d="M925.25,752.74c-0.39,17.63,13.58,32.23,31.22,32.62c17.63,0.39,32.23-13.58,32.62-31.22
					c0.39-17.63-13.58-32.23-31.22-32.62C940.25,721.13,925.64,735.11,925.25,752.74z"/>
				<path d="M957.19,787.12c-0.26,0-0.51,0-0.77-0.01c-9-0.2-17.37-3.89-23.59-10.39c-6.22-6.5-9.54-15.04-9.34-24.03
					c0.2-9,3.89-17.37,10.39-23.59c6.5-6.23,15.02-9.62,24.03-9.34c9,0.2,17.37,3.88,23.59,10.39c6.22,6.5,9.54,15.03,9.34,24.03
					c-0.2,9-3.89,17.37-10.39,23.6C974.14,783.82,965.91,787.12,957.19,787.12z M925.25,752.73l1.76,0.04
					c-0.18,8.06,2.79,15.7,8.36,21.53c5.57,5.82,13.08,9.13,21.13,9.3c8.03,0.25,15.7-2.79,21.52-8.36
					c5.82-5.57,9.13-13.07,9.31-21.13c0.18-8.06-2.79-15.7-8.36-21.52c-5.57-5.82-13.07-9.13-21.13-9.3
					c-8.04-0.24-15.7,2.79-21.52,8.36c-5.82,5.57-9.13,13.08-9.31,21.13L925.25,752.73z"/>
			</g>
		</g>
	</g>
	<g>
		<g>
			<g>
				<path style="fill:#FFFFFF;" d="M1508.17,1164.26c7.65,17.56,19.57,32.05,34.82,43.12c36.61,26.97,92.09,34.47,150.88,20.11
					c20.8-5.02,41.98-12.85,62.91-23.51c20.93-10.65,40.01-23.31,56.84-37.45c52.61-43.88,83.62-101.36,82.22-153.03
					c-0.29-14.58-3.26-28.76-9.02-41.97c-9.09-20.87-24.19-37.32-43.63-49.01c-36.12-21.96-87.06-27.42-140.86-14.51
					c-21.16,5.01-42.75,12.92-64.12,23.8c-21.37,10.88-40.77,23.82-57.82,38.27c-47.26,39.81-76.83,90.54-80.82,138.04
					C1497.88,1127.74,1500.57,1146.81,1508.17,1164.26z"/>
				<path d="M1636.27,1236.47c-36.69,0-69.51-9.41-94.31-27.68c-15.81-11.48-27.72-26.23-35.39-43.83v0
					c-7.57-17.37-10.51-36.55-8.74-57c4.05-48.3,33.74-99.05,81.44-139.24c17.44-14.78,37.01-27.73,58.15-38.49
					c21.13-10.76,42.84-18.82,64.52-23.94c53.76-12.9,105.58-7.54,142.18,14.72c20.34,12.23,35.25,28.99,44.32,49.81
					c5.78,13.27,8.86,27.62,9.17,42.64c1.41,52.24-29.56,109.97-82.85,154.42c-17.17,14.42-36.4,27.09-57.17,37.66
					c-20.75,10.57-42.04,18.52-63.3,23.65C1674.32,1234.07,1654.8,1236.47,1636.27,1236.47z M1758.33,902.92
					c-17.87,0-36.6,2.25-55.6,6.81c-21.41,5.07-42.85,13.03-63.73,23.66c-20.9,10.64-40.24,23.44-57.48,38.04
					c-47,39.59-76.23,89.46-80.21,136.85c-1.72,19.87,1.13,38.47,8.46,55.29v0c7.41,17.02,18.94,31.28,34.25,42.4
					c36.49,26.88,90.94,34.09,149.43,19.82c20.99-5.07,42.02-12.93,62.53-23.37c20.53-10.45,39.54-22.97,56.51-37.23
					c52.47-43.77,82.98-100.45,81.59-151.64c-0.29-14.58-3.28-28.48-8.87-41.32c-8.78-20.14-23.22-36.36-42.93-48.21
					C1819.34,910.07,1790.21,902.92,1758.33,902.92z"/>
			</g>
			<g>
				<g>
					<polygon points="1678.84,1137.87 1758.74,1097.56 1777.41,1027.57 1716.18,997.89 1636.28,1038.2 1617.6,1108.19 					"/>
					<path d="M1678.85,1139.83l-63.32-30.7l19.25-72.15l81.38-41.06l63.32,30.69l-19.25,72.15L1678.85,1139.83z M1619.68,1107.24
						l59.14,28.67l78.42-39.57l18.09-67.83l-59.14-28.67l-78.42,39.57L1619.68,1107.24z"/>
				</g>
				<g>
					<path d="M1508.17,1164.26c7.65,17.56,19.57,32.05,34.82,43.12l6.27-3.19l18.68-70.03l-61.22-29.68l-7.15,3.64
						C1497.88,1127.74,1500.57,1146.81,1508.17,1164.26z"/>
					<path d="M1542.83,1209.43l-0.87-0.63c-15.82-11.49-27.73-26.24-35.4-43.84v0c-7.57-17.37-10.51-36.55-8.74-57l0.08-0.97
						l8.8-4.48l63.32,30.69l-19.25,72.19L1542.83,1209.43z M1501.24,1109.24c-1.54,19.5,1.33,37.77,8.54,54.32v0
						c7.27,16.7,18.5,30.74,33.38,41.76l4.61-2.35l18.1-67.87l-59.13-28.66L1501.24,1109.24z"/>
				</g>
				<g>
					<path d="M1580.39,970.08l32.09,15.56l79.92-40.3l9.93-37.33c-21.16,5.01-42.75,12.92-64.12,23.8
						C1616.84,942.69,1597.45,955.63,1580.39,970.08z"/>
					<path d="M1612.49,987.6l-35.29-17.12l2.06-1.75c17.45-14.78,37.01-27.73,58.16-38.49c21.13-10.76,42.84-18.82,64.52-23.94
						l2.86-0.67l-10.89,40.94L1612.49,987.6z M1583.6,969.68l28.86,14l78.44-39.55l8.97-33.71c-20.45,5.08-40.91,12.8-60.87,22.96
						C1618.94,943.59,1600.31,955.79,1583.6,969.68z"/>
				</g>
				<g>
					<path d="M1693.87,1227.49c20.8-5.02,41.98-12.85,62.91-23.51c20.93-10.65,40.01-23.31,56.84-37.45l-30.4-14.76l-79.92,40.3
						L1693.87,1227.49z"/>
					<path d="M1691.41,1229.89l10.39-39.03l0.71-0.36l80.7-40.68l33.62,16.32l-2.08,1.74c-17.17,14.42-36.4,27.1-57.17,37.67
						c-20.75,10.57-42.04,18.52-63.3,23.65L1691.41,1229.89z M1704.8,1193.29l-8.46,31.78c20.03-5.07,40.08-12.69,59.65-22.65
						c19.69-10.02,37.99-21.96,54.42-35.49l-27.17-13.19L1704.8,1193.29z"/>
				</g>
				<g>
					<path d="M1825.7,988.3l61.22,29.68l8.92-4.48c-0.29-14.58-3.26-28.76-9.02-41.97c-9.09-20.87-24.19-37.32-43.63-49.01
						L1825.7,988.3z"/>
					<path d="M1886.94,1019.94l-63.31-30.69l18.47-69.44l2,1.21c20.34,12.24,35.26,29,44.33,49.82c5.78,13.27,8.86,27.62,9.17,42.64
						l0.02,1.11L1886.94,1019.94z M1827.77,987.35l59.14,28.67l7.15-3.59c-0.41-14.16-3.39-27.68-8.84-40.2
						c-8.48-19.45-22.24-35.24-40.93-46.98L1827.77,987.35z"/>
				</g>
			</g>
		</g>
		<g>
			<g>
				
					<rect x="1341.11" y="1241.14" transform="matrix(0.8004 -0.5994 0.5994 0.8004 -458.9848 1107.188)" width="184.36" height="3.52"/>
			</g>
			<g>
				
					<rect x="1408.29" y="1260.73" transform="matrix(0.7853 -0.6192 0.6192 0.7853 -466.1974 1180.7794)" width="121.79" height="3.52"/>
			</g>
		</g>
	</g>
</g>
</svg>
