<?xml version="1.0" encoding="iso-8859-1"?>
<!-- Generator: Adobe Illustrator 30.0.0, SVG Export Plug-In . SVG Version: 9.03 Build 0)  -->
<svg version="1.1" id="Capa_1" xmlns="http://www.w3.org/2000/svg" xmlns:xlink="http://www.w3.org/1999/xlink" x="0px" y="0px"
	 viewBox="0 0 2000 2000" style="enable-background:new 0 0 2000 2000;" xml:space="preserve">
<g>
	<g>
		<g id="XMLID_2_">
			<rect x="100.69" y="1090.08" style="fill:#00C793;" width="1793.98" height="807.33"/>
		</g>
		<g style="opacity:0.27;">
			<g style="opacity:0.27;">
				<rect x="100.69" y="1090.08" style="fill:#FFFFFF;" width="195.54" height="807.33"/>
			</g>
			<g style="opacity:0.27;">
				<rect x="805.36" y="1090.08" style="fill:#FFFFFF;" width="208.59" height="807.33"/>
			</g>
			<g style="opacity:0.27;">
				<rect x="1150.35" y="1090.08" style="fill:#FFFFFF;" width="205.98" height="807.33"/>
			</g>
			<g style="opacity:0.27;">
				<rect x="1492.73" y="1090.08" style="fill:#FFFFFF;" width="169.39" height="807.33"/>
			</g>
			<g style="opacity:0.27;">
				<rect x="1798.51" y="1090.08" style="fill:#FFFFFF;" width="96.15" height="807.33"/>
			</g>
			<g style="opacity:0.27;">
				<rect x="463.84" y="1090.08" style="fill:#FFFFFF;" width="205.12" height="807.33"/>
			</g>
		</g>
		<g>
			<g>
				<rect x="100.69" y="1463.45" style="fill:#FFFFFF;" width="1793.98" height="35.15"/>
			</g>
		</g>
	</g>
	<g>
		<g>
			<g>
				<g>
					<g>
						<path d="M153.94,1326.85l-2.81-2.1c21.17-28.23,49-50.49,75.9-72.01c13.39-10.71,27.23-21.78,40.05-33.44
							c3.41-3.41,7.08-6.87,10.82-10.39c11.37-10.72,23.13-21.79,30.94-34.8l3.01,1.8c-8.06,13.43-19.99,24.67-31.54,35.55
							c-3.71,3.49-7.36,6.94-10.8,10.38c-12.96,11.78-26.84,22.89-40.28,33.64C202.49,1276.86,174.85,1298.97,153.94,1326.85z"/>
					</g>
				</g>
				<g>
					<g>
						<path d="M153.68,1186.86l-2.28-2.67c20.62-17.67,42.77-33.71,64.2-49.23c29.54-21.4,60.1-43.51,86.49-69.91l2.48,2.48
							c-26.59,26.59-57.26,48.8-86.91,70.27C196.28,1153.27,174.18,1169.28,153.68,1186.86z"/>
					</g>
				</g>
				<g>
					<g>
						<path d="M153.77,1071.04l-2.48-2.48l10.83-10.77c9.1-5.69,17.84-10.64,26.29-15.43c17.57-9.97,34.16-19.38,50.65-33.51
							l0.36-0.23c3.62-1.81,6.35-2.72,8.99-3.6c2.64-0.88,5.14-1.71,8.54-3.41l41.82-31.4l2.1,2.81l-42.08,31.56
							c-3.89,1.97-6.62,2.88-9.26,3.77c-2.6,0.86-5.05,1.68-8.35,3.31c-16.69,14.27-33.37,23.73-51.04,33.75
							c-8.37,4.75-17.02,9.65-25.99,15.25L153.77,1071.04z"/>
					</g>
				</g>
				<g>
					<g>
						<path d="M153.68,962.42l-2.28-2.67c16.5-14.14,36.38-25.28,55.61-36.04c9.56-5.35,19.45-10.89,28.76-16.71
							c5.4-3.6,10.6-6.99,15.64-10.27c14.69-9.57,27.37-17.84,40.3-28.18l2.19,2.74c-13.07,10.46-25.82,18.77-40.58,28.38
							c-5.03,3.28-10.22,6.66-15.65,10.28c-9.43,5.89-19.35,11.45-28.95,16.83C189.64,937.45,169.91,948.5,153.68,962.42z"/>
					</g>
				</g>
				<g>
					<g>
						<path d="M153.09,843.52l-1.11-3.33c7.12-2.37,12.58-6.41,18.9-11.09c2.74-2.02,5.57-4.12,8.74-6.24
							c10.31-5.17,20.55-9.99,30.45-14.66c25.14-11.85,48.89-23.03,71.25-37.94l1.95,2.92c-22.58,15.05-46.44,26.29-71.7,38.2
							c-9.88,4.65-20.1,9.47-30.19,14.51c-2.91,1.96-5.71,4.03-8.41,6.03C166.68,836.57,160.73,840.97,153.09,843.52z"/>
					</g>
				</g>
				<g>
					<g>
						<path d="M153.32,727.7l-1.57-3.14c17.59-8.8,37.24-16.83,56.23-24.6c18.94-7.75,38.52-15.76,55.99-24.49l1.57,3.14
							c-17.59,8.8-37.24,16.83-56.23,24.6C190.37,710.95,170.8,718.96,153.32,727.7z"/>
					</g>
				</g>
				<g>
					<g>
						<path d="M153.58,611.81l-2.1-2.81c8.5-6.37,18-7.78,28.07-9.27c7.01-1.04,14.26-2.11,21.42-4.98l32.21-10.65
							c2.77,0,9.35-3.06,12.79-6.5l2.48,2.48c-3.77,3.77-10.92,7.35-14.96,7.52l-31.31,10.44c-7.45,2.98-14.91,4.09-22.12,5.16
							C170.45,604.62,161.37,605.97,153.58,611.81z"/>
					</g>
				</g>
				<g>
					<g>
						<path d="M152.78,489.4l-0.49-3.47c24.08-3.44,48.98-7,73.41-13.97l0.96,3.37C202,482.37,176.97,485.95,152.78,489.4z"/>
					</g>
				</g>
				<g>
					<g>
						<path d="M208.64,377.2c-7.03,0-14.73-1.12-22.17-2.21c-11.44-1.68-23.27-3.41-33.6-1.33l-0.68-3.44
							c10.92-2.18,23.05-0.41,34.79,1.3c7.66,1.12,14.89,2.17,21.67,2.17L208.64,377.2L208.64,377.2z"/>
					</g>
				</g>
				<g>
					<g>
						<path d="M203.43,1347.23c-16.87-73.12-15.74-149.87-14.63-224.1c0.28-18.63,0.56-37.89,0.56-56.84
							c-3.77-94.31,4.98-184.21,14.04-259.71c12.57-141.41,9.13-296.15-10.52-473.02l3.49-0.39
							c19.68,177.1,23.12,332.07,10.52,473.77c-9.05,75.42-17.79,165.15-14.02,259.28c0,19.05-0.28,38.32-0.56,56.96
							c-1.1,74.02-2.24,150.55,14.55,223.26L203.43,1347.23z"/>
					</g>
				</g>
				<g>
					<g>
						<path d="M245.48,1287.43c-12.75-106.2-17.07-187.4-14.04-263.29c0.96-15.43,1.96-30.83,2.95-46.22
							c9.67-150.14,21.1-306.82,2-456.39l3.48-0.45c19.14,149.92,7.7,306.76-1.98,457.07c-0.99,15.39-1.98,30.78-2.95,46.17
							c-3.03,75.65,1.3,156.68,14.02,262.69L245.48,1287.43z"/>
					</g>
				</g>
				<g>
					<g>
						<path d="M291.14,1238.68c-0.73-2.18-1.46-4.21-2.15-6.16c-2.66-7.42-4.95-13.82-4.95-22.45c-2.33-27.87-1.58-53.79-0.79-81.24
							c0.39-13.46,0.79-27.37,0.79-41.5c-2.11-39.97-0.39-80.66,1.26-120.01c1.1-26.19,2.24-53.27,2.24-79.88
							c0-7.73,0.14-15.45,0.28-23.18c0.55-30.22,1.12-61.47-7.23-92.09l3.38-0.93c8.48,31.1,7.91,62.61,7.36,93.07
							c-0.14,7.7-0.28,15.41-0.28,23.11c0,26.69-1.14,53.81-2.25,80.03c-1.66,39.27-3.36,79.87-1.26,119.76
							c0,14.28-0.4,28.22-0.79,41.7c-0.79,27.34-1.54,53.16,0.79,80.99c0.01,8.17,2.1,14.01,4.76,21.42
							c0.7,1.97,1.44,4.02,2.18,6.23L291.14,1238.68z"/>
					</g>
				</g>
			</g>
			<g>
				<g>
					<g>
						<path d="M1834.84,1330.76c-30.1-20.07-51.73-45.27-74.63-71.96c-16.82-19.59-34.2-39.85-55.29-57.93
							c-2.64-1.74-5.19-3.37-7.57-4.87c-6.6-4.18-11.81-7.49-17.08-12.76l2.48-2.48c5,5,10.06,8.21,16.48,12.27
							c2.39,1.52,4.97,3.15,7.8,5.04c21.46,18.38,38.94,38.74,55.84,58.43c22.74,26.5,44.21,51.52,73.91,71.32L1834.84,1330.76z"/>
					</g>
				</g>
				<g>
					<g>
						<path d="M1834.97,1194.08c-33.26-18.14-58.47-43.76-85.16-70.88c-4.44-4.51-8.9-9.04-13.43-13.58
							c-3.11-2.47-6.24-5.07-9.31-7.63c-13.25-11.01-25.76-21.4-42.6-27.01l1.11-3.33c17.46,5.82,30.22,16.42,43.73,27.65
							c3.06,2.54,6.18,5.13,9.41,7.72c4.69,4.67,9.16,9.22,13.6,13.73c26.5,26.94,51.54,52.38,84.34,70.27L1834.97,1194.08z"/>
					</g>
				</g>
				<g>
					<g>
						<path d="M1834.98,1078.36c-26.43-14.1-49.66-31.97-72.13-49.25c-22.36-17.2-45.47-34.98-71.65-48.94l1.65-3.1
							c26.43,14.1,49.66,31.97,72.13,49.25c22.36,17.2,45.47,34.98,71.65,48.94L1834.98,1078.36z"/>
					</g>
				</g>
				<g>
					<g>
						<path d="M1835.03,966.16c-19.49-9.75-35.39-22.42-52.23-35.84c-13.24-10.56-26.94-21.47-42.58-30.86
							c-4.93-2.46-9.85-5.79-15.06-9.31c-9.32-6.3-18.96-12.82-29.97-15.02l0.68-3.44c11.7,2.34,21.64,9.06,31.25,15.56
							c5.11,3.46,9.95,6.72,14.78,9.14c15.96,9.57,29.75,20.56,43.08,31.19c16.69,13.3,32.45,25.86,51.61,35.44L1835.03,966.16z"/>
					</g>
				</g>
				<g>
					<g>
						<path d="M1835.18,850.51c-26.42-10.16-50.67-26.28-74.11-41.87c-16.98-11.29-34.53-22.96-52.29-31.84l1.57-3.14
							c17.95,8.98,35.59,20.71,52.66,32.06c23.29,15.49,47.37,31.49,73.43,41.52L1835.18,850.51z"/>
					</g>
				</g>
				<g>
					<g>
						<path d="M1835.47,734.86c-20.66-4.13-38.44-15.16-57.27-26.83c-13.01-8.07-26.47-16.41-40.94-22.24
							c-1.99-0.09-4.53-0.94-7.21-1.83c-2.45-0.82-4.99-1.67-6.46-1.67v-3.51c2.04,0,4.72,0.89,7.57,1.84
							c2.45,0.82,4.99,1.67,6.46,1.67l0.65,0.13c14.87,5.94,28.55,14.43,41.77,22.63c18.55,11.5,36.08,22.37,56.11,26.37
							L1835.47,734.86z"/>
					</g>
				</g>
				<g>
					<g>
						<path d="M1835.43,619.13c-14.36-3.19-28.1-9.3-41.4-15.2c-15.97-7.09-32.49-14.43-49.6-16.33l0.39-3.49
							c17.64,1.96,34.41,9.41,50.63,16.61c13.14,5.84,26.72,11.87,40.74,14.98L1835.43,619.13z"/>
					</g>
				</g>
				<g>
					<g>
						<path d="M1835.56,496.42c-10.17-1.46-19.81-4.11-29.13-6.69c-13.64-3.76-26.52-7.32-40.76-7.32v-3.51
							c14.72,0,28.43,3.79,41.7,7.45c9.21,2.55,18.73,5.18,28.69,6.6L1835.56,496.42z"/>
					</g>
				</g>
				<g>
					<g>
						<rect x="1783.21" y="377.2" width="56.11" height="3.51"/>
					</g>
				</g>
				<g>
					<g>
						<path d="M1784.97,1354.09c-13.22-99.21-17.82-202.54-14.04-315.9c4.69-65.57,12.61-132.15,20.27-196.53
							c3.83-32.18,7.79-65.45,11.3-98.17c10.75-139.8,2.98-276.29-7.02-402.96l3.49-0.27c10.02,126.81,17.79,263.47,7.02,403.55
							c-3.51,32.8-7.48,66.08-11.31,98.27c-7.66,64.34-15.58,130.88-20.25,196.3c-3.77,113.11,0.81,216.25,14.02,315.26
							L1784.97,1354.09z"/>
					</g>
				</g>
				<g>
					<g>
						<path d="M1739.38,1294.38c-1.76-21.08-2.65-41.59-3.51-61.44c-0.86-19.81-1.75-40.29-3.5-61.3
							c-4.54-88.46,4.2-176.52,12.66-261.68c4.62-46.52,9.4-94.63,11.88-141.85c7.86-90.36,5.57-169.37-6.99-241.58l3.45-0.6
							c12.61,72.52,14.91,151.81,7.03,242.42c-2.49,47.24-7.27,95.39-11.89,141.95c-8.44,85.03-17.17,172.96-12.65,261.09
							c1.75,21.02,2.65,41.54,3.51,61.38c0.86,19.81,1.75,40.29,3.5,61.3L1739.38,1294.38z"/>
					</g>
				</g>
				<g>
					<g>
						<path d="M1697.31,1245.41c-13.73-87.89-4.09-171.66,6.11-260.35c2.75-23.93,5.6-48.68,7.9-73.23
							c2.62-34.01-0.72-68.7-3.95-102.24c-1.08-11.21-2.19-22.81-3.07-34.23l3.49-0.27c0.88,11.38,1.99,22.96,3.07,34.16
							c3.24,33.69,6.59,68.53,3.95,102.88c-2.3,24.61-5.16,49.38-7.91,73.33c-10.18,88.45-19.79,172-6.13,259.41L1697.31,1245.41z"
							/>
					</g>
				</g>
			</g>
			<g>
				<g>
					<g>
						<path d="M1431.82,394.2c-139.1,0-278.02-4.06-414.37-8.05c-66.32-1.94-134.91-3.95-202.16-5.44
							c-216.27-7.87-405.48-5.58-578.46,7.01l-0.25-3.5c173.11-12.59,362.45-14.88,578.82-7.02c67.23,1.5,135.82,3.5,202.16,5.44
							c245.68,7.19,499.73,14.62,748.01-1.93l0.23,3.5C1655.19,391.58,1543.44,394.2,1431.82,394.2z"/>
					</g>
				</g>
				<g>
					<g>
						<path d="M1369.46,488.88c-132.98,0-265.75-4.06-396.11-8.06c-63.37-1.94-128.9-3.95-193.14-5.44
							c-196.6-7.87-368.61-5.57-525.84,7.01l-0.28-3.49c157.39-12.59,329.51-14.89,526.23-7.02c64.23,1.49,129.76,3.5,193.13,5.44
							c234.85,7.19,477.7,18.12,714.94,1.57h0.25C1582.96,486.27,1476.14,488.88,1369.46,488.88z"/>
					</g>
				</g>
				<g>
					<g>
						<path d="M1224.91,575.13c-25.29,0-50.84-0.39-76.52-1.55c-200.4-10.37-407.62-21.1-613.58-17.53
							c-31.27,1.16-62.64,1.95-92.97,2.71c-61.03,1.54-124.13,3.12-187.48,7.81l-0.26-3.5c63.43-4.7,126.58-6.28,187.65-7.82
							c30.32-0.76,61.68-1.55,92.96-2.71c206.11-3.54,413.4,7.17,613.85,17.54c51.24,2.33,102.06,1.54,151.2,0.78
							c24.97-0.38,50.79-0.79,76.65-0.79c120.66,0,245.43,0,368.12-7.01l0.2,3.5c-122.79,7.02-247.61,7.02-368.32,7.02
							c-25.83,0-51.64,0.4-76.6,0.79C1275.22,574.75,1250.2,575.13,1224.91,575.13z"/>
					</g>
				</g>
				<g>
					<g>
						<path d="M1364.06,668.6c-74.79,0-144.47-1.29-212.14-3.84l-3.91-0.14c-296.18-10.71-575.93-20.81-865.61-3.37l-0.21-3.5
							c289.85-17.46,582.72-6.87,865.95,3.36l3.91,0.14c160.63,6.07,332.56,4.98,557.46-3.51l0.13,3.51
							C1579.38,666.17,1466.88,668.6,1364.06,668.6z"/>
					</g>
				</g>
				<g>
					<g>
						<path d="M1364.06,763.28c-74.79,0-144.47-1.29-212.14-3.84l-3.91-0.14c-296.18-10.71-575.93-20.81-865.61-3.37l-0.21-3.5
							c289.85-17.46,582.72-6.87,865.95,3.36l3.91,0.14c160.63,6.07,332.56,4.98,557.46-3.51l0.13,3.51
							C1579.38,760.85,1466.88,763.28,1364.06,763.28z"/>
					</g>
				</g>
				<g>
					<g>
						<path d="M1319.88,860.56c-51.01,0-102.18-0.86-153.94-2.93c-260.51-12.86-562.93-25.08-855.49-7.02l-0.22-3.5
							c292.76-18.07,595.28-5.85,855.86,7.01c173.54,6.93,340.47,0.26,517.21-6.81l5.16-0.21l0.14,3.51l-5.16,0.21
							C1559.33,855.79,1440.03,860.56,1319.88,860.56z"/>
					</g>
				</g>
				<g>
					<g>
						<path d="M1353.48,945.6c-72.77,0-140.49-1.27-205.08-3.8c-55.76-1.16-112.94-3.13-168.24-5.03
							c-111.92-3.85-227.65-7.83-340.14-5.49c-20.97,0-42.7-0.39-63.71-0.77c-42.76-0.77-86.96-1.56-129.11,0.77
							c-22.79,1.75-45.98,2.65-68.41,3.51c-22.4,0.86-45.56,1.75-68.32,3.5l-0.27-3.5c22.83-1.75,46.02-2.65,68.45-3.51
							c22.4-0.86,45.56-1.75,68.32-3.5c42.31-2.34,86.58-1.55,129.4-0.77c21,0.38,42.71,0.77,63.61,0.77
							c112.54-2.35,228.33,1.64,340.3,5.49c55.29,1.9,112.45,3.87,168.23,5.03c153.7,6.03,325.26,4.91,539.94-3.51l0.14,3.51
							C1564.03,943.18,1453.95,945.6,1353.48,945.6z"/>
					</g>
				</g>
				<g>
					<g>
						<path d="M1346.46,1040.29c-72.77,0-140.49-1.27-205.08-3.8c-56.41-1.18-113.33-3.17-168.38-5.1
							c-108.73-3.81-221.15-7.76-332.99-5.42c-20.97,0-42.7-0.39-63.71-0.78c-42.76-0.77-86.96-1.56-129.11,0.77
							c-22.79,1.75-45.98,2.65-68.41,3.51c-22.4,0.86-45.56,1.75-68.32,3.5l-0.27-3.5c22.83-1.75,46.02-2.65,68.45-3.51
							c22.4-0.86,45.56-1.75,68.32-3.5c42.31-2.35,86.58-1.55,129.4-0.78c21,0.38,42.71,0.77,63.61,0.77
							c111.91-2.34,224.39,1.61,333.15,5.42c55.03,1.93,111.94,3.92,168.36,5.1c153.7,6.03,325.26,4.91,539.94-3.51l0.14,3.51
							C1557.02,1037.86,1446.94,1040.28,1346.46,1040.29z"/>
					</g>
				</g>
				<g>
					<g>
						<path d="M1351.3,1133.48c-175.4,0-350.5-6.48-522.02-12.83c-194.22-7.93-363.92-5.63-518.8,7.01l-0.29-3.49
							c155.03-12.65,324.87-14.95,519.23-7.02c279.24,10.35,568.01,21.04,851.98,3.51l0.22,3.5
							C1571.95,1130.92,1461.56,1133.48,1351.3,1133.48z"/>
					</g>
				</g>
				<g>
					<g>
						<path d="M1431.82,394.2c-139.1,0-278.02-4.06-414.37-8.05c-66.32-1.94-134.91-3.95-202.16-5.44
							c-216.27-7.87-405.48-5.58-578.46,7.01l-0.25-3.5c173.11-12.59,362.45-14.88,578.82-7.02c67.23,1.5,135.82,3.5,202.16,5.44
							c245.68,7.19,499.73,14.62,748.01-1.93l0.23,3.5C1655.19,391.58,1543.44,394.2,1431.82,394.2z"/>
					</g>
				</g>
				<g>
					<g>
						<path d="M1418.18,488.88c-136.03,0-271.89-4.06-405.24-8.06c-64.85-1.94-131.9-3.95-197.65-5.44
							c-209.97-7.93-393.45-5.64-560.92,7.01l-0.27-3.5c167.61-12.65,351.2-14.95,561.29-7.02c65.73,1.49,132.79,3.5,197.65,5.44
							c240.27,7.19,488.72,14.62,731.47-1.93l0.24,3.5C1636.6,486.27,1527.33,488.88,1418.18,488.88z"/>
					</g>
				</g>
				<g>
					<g>
						<path d="M1224.91,575.13c-25.29,0-50.84-0.39-76.52-1.55c-200.4-10.37-407.62-21.1-613.58-17.53
							c-31.27,1.16-62.64,1.95-92.97,2.71c-61.03,1.54-124.13,3.12-187.48,7.81l-0.26-3.5c63.43-4.7,126.58-6.28,187.65-7.82
							c30.32-0.76,61.68-1.55,92.96-2.71c206.11-3.54,413.4,7.17,613.85,17.54c51.24,2.33,102.06,1.54,151.2,0.78
							c24.97-0.38,50.79-0.79,76.65-0.79c120.66,0,245.43,0,368.12-7.01l0.2,3.5c-122.79,7.02-247.61,7.02-368.32,7.02
							c-25.83,0-51.64,0.4-76.6,0.79C1275.22,574.75,1250.2,575.13,1224.91,575.13z"/>
					</g>
				</g>
				<g>
					<g>
						<path d="M1364.06,668.6c-74.79,0-144.47-1.29-212.14-3.84l-3.91-0.14c-296.18-10.71-575.93-20.81-865.61-3.37l-0.21-3.5
							c289.85-17.46,582.72-6.87,865.95,3.36l3.91,0.14c160.63,6.07,332.56,4.98,557.46-3.51l0.13,3.51
							C1579.38,666.17,1466.88,668.6,1364.06,668.6z"/>
					</g>
				</g>
				<g>
					<g>
						<path d="M1364.06,763.28c-74.79,0-144.47-1.29-212.14-3.84l-3.91-0.14c-296.18-10.71-575.93-20.81-865.61-3.37l-0.21-3.5
							c289.85-17.46,582.72-6.87,865.95,3.36l3.91,0.14c160.63,6.07,332.56,4.98,557.46-3.51l0.13,3.51
							C1579.38,760.85,1466.88,763.28,1364.06,763.28z"/>
					</g>
				</g>
				<g>
					<g>
						<path d="M1319.88,860.56c-51.01,0-102.18-0.86-153.94-2.93c-260.51-12.86-562.93-25.08-855.49-7.02l-0.22-3.5
							c292.76-18.07,595.28-5.85,855.86,7.01c173.54,6.93,340.47,0.26,517.21-6.81l5.16-0.21l0.14,3.51l-5.16,0.21
							C1559.33,855.79,1440.03,860.56,1319.88,860.56z"/>
					</g>
				</g>
				<g>
					<g>
						<path d="M1353.48,945.6c-72.77,0-140.49-1.27-205.08-3.8c-55.76-1.16-112.94-3.13-168.24-5.03
							c-111.92-3.85-227.65-7.83-340.14-5.49c-20.97,0-42.7-0.39-63.71-0.77c-42.76-0.77-86.96-1.56-129.11,0.77
							c-22.79,1.75-45.98,2.65-68.41,3.51c-22.4,0.86-45.56,1.75-68.32,3.5l-0.27-3.5c22.83-1.75,46.02-2.65,68.45-3.51
							c22.4-0.86,45.56-1.75,68.32-3.5c42.31-2.34,86.58-1.55,129.4-0.77c21,0.38,42.71,0.77,63.61,0.77
							c112.54-2.35,228.33,1.64,340.3,5.49c55.29,1.9,112.45,3.87,168.23,5.03c153.7,6.03,325.26,4.91,539.94-3.51l0.14,3.51
							C1564.03,943.18,1453.95,945.6,1353.48,945.6z"/>
					</g>
				</g>
				<g>
					<g>
						<path d="M1346.46,1040.29c-72.77,0-140.49-1.27-205.08-3.8c-56.41-1.18-113.33-3.17-168.38-5.1
							c-108.73-3.81-221.15-7.76-332.99-5.42c-20.97,0-42.7-0.39-63.71-0.78c-42.76-0.77-86.96-1.56-129.11,0.77
							c-22.79,1.75-45.98,2.65-68.41,3.51c-22.4,0.86-45.56,1.75-68.32,3.5l-0.27-3.5c22.83-1.75,46.02-2.65,68.45-3.51
							c22.4-0.86,45.56-1.75,68.32-3.5c42.31-2.35,86.58-1.55,129.4-0.78c21,0.38,42.71,0.77,63.61,0.77
							c111.91-2.34,224.39,1.61,333.15,5.42c55.03,1.93,111.94,3.92,168.36,5.1c153.7,6.03,325.26,4.91,539.94-3.51l0.14,3.51
							C1557.02,1037.86,1446.94,1040.28,1346.46,1040.29z"/>
					</g>
				</g>
				<g>
					<g>
						<path d="M1351.3,1133.48c-175.4,0-350.5-6.48-522.02-12.83c-194.22-7.93-363.92-5.63-518.8,7.01l-0.29-3.49
							c155.03-12.65,324.87-14.95,519.23-7.02c279.24,10.35,568.01,21.04,851.98,3.51l0.22,3.5
							C1571.95,1130.92,1461.56,1133.48,1351.3,1133.48z"/>
					</g>
				</g>
				<g>
					<g>
						<path d="M399.8,1217.44c-14.31-69.18-21.98-136.89-30.09-208.56c-3.7-32.67-7.52-66.46-12.01-100.16l-0.02-35.3
							c-3.51-17.36-3.51-35.28-3.51-52.6c-15.72-200.41-34.07-375.88-56.09-536.3l3.47-0.48c22.03,160.5,40.39,336.04,56.12,536.65
							c0.01,17.29,0.01,35.03,3.48,52.4l0.04,35.41c4.48,33.51,8.31,67.31,12.01,100c8.11,71.6,15.76,139.22,30.04,208.25
							L399.8,1217.44z"/>
					</g>
				</g>
				<g>
					<g>
						<path d="M487.46,1217.4c-33.25-182.86-47.89-366.46-59.64-585.86c-6.86-75.48-16.92-151.01-26.64-224.06
							c-5.19-39-10.56-79.33-15.43-119.49l3.48-0.42c4.87,40.14,10.23,80.46,15.42,119.45c9.73,73.09,19.79,148.66,26.67,224.27
							c11.75,219.34,26.38,402.81,59.59,585.48L487.46,1217.4z"/>
					</g>
				</g>
				<g>
					<g>
						<path d="M575.14,1217.38c-31.58-182.44-45.84-371.45-59.64-554.24c-7.01-126.21-24.83-254.53-42.07-378.63l3.47-0.48
							c17.25,124.17,35.08,252.56,42.1,378.88c13.79,182.67,28.05,371.6,59.59,553.88L575.14,1217.38z"/>
					</g>
				</g>
				<g>
					<g>
						<path d="M662.83,1217.48c-14.05-59.72-21.19-123.95-28.09-186.07C623.69,932,615.8,832.39,608.17,736.05
							c-11.65-147.1-23.69-299.21-47.07-448.01l3.46-0.54c23.4,148.92,35.45,301.1,47.1,448.27c7.63,96.31,15.51,195.9,26.55,295.25
							c6.89,62.02,14.01,126.14,28.02,185.65L662.83,1217.48z"/>
					</g>
				</g>
				<g>
					<g>
						<path d="M743.46,1217.36c-23.51-147.46-28.89-300.09-34.09-447.69c-3.34-94.85-6.8-192.92-15.02-288.86
							c-3.5-31.52-7.01-63.96-10.52-96.4c-3.51-32.43-7.01-64.87-10.52-96.43l3.49-0.39c3.51,31.56,7.01,64,10.52,96.44
							c3.51,32.43,7.01,64.87,10.52,96.43c8.24,96.08,11.69,194.2,15.04,289.09c5.2,147.5,10.57,300.02,34.05,447.26L743.46,1217.36
							z"/>
					</g>
				</g>
				<g>
					<g>
						<path d="M831.15,1220.97c-9.38-42.2-12.55-85.06-15.62-126.49c-1.53-20.68-3.11-42.05-5.45-63.06
							c-8.42-84.21-9.28-168.22-10.11-249.47c-0.55-53.94-1.12-109.71-3.92-164.44c-7.09-109.97-17.75-223.11-28.05-329.56
							l3.49-0.34c10.31,106.48,20.96,219.65,28.06,329.7c2.81,54.82,3.38,110.63,3.93,164.61c0.83,81.17,1.69,165.11,10.09,249.13
							c2.34,21.05,3.93,42.46,5.46,63.17c3.06,41.31,6.22,84.04,15.55,126L831.15,1220.97z"/>
					</g>
				</g>
				<g>
					<g>
						<path d="M918.79,1220.81c-19.1-155.55-23.42-313.66-27.59-466.57c-1.19-43.67-2.42-88.83-3.98-133.25
							c0-108.89-9.77-212.97-20.1-323.15l-0.93-9.9l3.49-0.33l0.93,9.9c10.35,110.26,20.12,214.42,20.12,323.41
							c1.56,44.36,2.79,89.53,3.98,133.21c4.17,152.83,8.48,310.85,27.56,466.24L918.79,1220.81z"/>
					</g>
				</g>
				<g>
					<g>
						<path d="M988.92,1217.24c-7.02-77.23-7.02-150.51-7.02-228.1c-1.35-90.42-0.08-181.79,1.14-270.14
							c1.96-140.93,3.98-286.65-4.65-431.11l3.5-0.21c8.63,144.6,6.61,290.39,4.65,431.38c-1.23,88.33-2.49,179.67-1.14,270.07
							c0,77.53,0,150.74,7.01,227.81L988.92,1217.24z"/>
					</g>
				</g>
				<g>
					<g>
						<path d="M1602.6,1217.23l-3.49-0.29c1.14-13.72,1.92-27.24,2.68-40.31c1.61-27.84,3.12-54.14,7.86-82.56l-0.02-34.78
							c11.04-97.21,25.14-192.14,38.78-283.94c8.14-54.74,16.55-111.36,24.36-168.67c-0.02-8.62,0.88-17.58,1.75-26.24
							c0.86-8.58,1.74-17.45,1.74-26.13c0-5.51,1.82-11.87,3.58-18.02c1.69-5.92,3.44-12.04,3.44-17.05l1.63-17.95
							c6.52-71.44,12.67-138.91,15.91-210.07l3.5,0.16c-3.24,71.24-9.4,138.75-15.92,210.23l-1.62,17.79
							c0.01,5.35-1.81,11.71-3.57,17.86c-1.69,5.92-3.44,12.04-3.44,17.05c0,8.85-0.9,17.81-1.76,26.48
							c-0.86,8.58-1.74,17.45-1.74,26.13c-7.83,57.57-16.25,114.2-24.38,168.96c-13.63,91.78-27.73,186.68-38.75,283.62l0.01,34.87
							c-4.73,28.53-6.24,54.73-7.84,82.48C1604.53,1189.92,1603.75,1203.46,1602.6,1217.23z"/>
					</g>
				</g>
				<g>
					<g>
						<path d="M1514.91,1217.37l-3.46-0.58c4.19-25.15,4.6-48.54,5.03-73.3c0.28-15.95,0.56-32.43,1.97-49.3
							c3.51-29.84,6.18-59.25,8.77-87.68c2.59-28.46,5.26-57.89,8.77-87.72c6.35-48.42,13.14-96.9,19.71-143.78
							c23.13-165.11,44.99-321.07,50.41-483.79l3.51,0.12c-5.43,162.91-27.3,318.95-50.45,484.16
							c-6.57,46.88-13.36,95.35-19.7,143.73c-3.5,29.76-6.18,59.16-8.76,87.6c-2.59,28.46-5.26,57.89-8.77,87.72
							c-1.39,16.69-1.67,33.11-1.95,49C1519.57,1167.35,1519.15,1191.96,1514.91,1217.37z"/>
					</g>
				</g>
				<g>
					<g>
						<path d="M1427.26,1217.15l-3.51-0.13c6.68-176.99,28.97-348.66,52.58-530.42l3.55-27.33c3.45-17.27,7-35.02,7-52.38
							c0-5.51,1.82-11.87,3.58-18.02c1.69-5.92,3.44-12.04,3.44-17.05c7.09-63.96,11.08-127.49,14.94-188.91
							c1.88-29.93,3.82-60.88,6.11-91.76l3.5,0.26c-2.29,30.86-4.23,61.8-6.11,91.72c-3.86,61.47-7.84,125.03-14.94,188.89
							c0.01,5.31-1.81,11.67-3.57,17.82c-1.69,5.92-3.44,12.04-3.44,17.05c0,17.71-3.58,35.62-7.05,52.95l-3.53,27.21
							C1456.22,868.73,1433.94,1040.33,1427.26,1217.15z"/>
					</g>
				</g>
				<g>
					<g>
						<path d="M1322.06,1220.66l-3.51-0.14c3.4-85,10.29-169.93,21.05-259.64c3.51-26.33,7.02-51.75,10.52-77.18
							c3.51-25.42,7.01-50.84,10.52-77.14c26.2-163.76,52.38-338.41,59.6-515.34l3.51,0.14c-7.23,177.13-33.43,351.89-59.64,515.71
							c-3.5,26.26-7.01,51.68-10.52,77.11c-3.51,25.42-7.01,50.84-10.52,77.14C1332.33,1050.92,1325.45,1135.76,1322.06,1220.66z"/>
					</g>
				</g>
				<g>
					<g>
						<path d="M1258.94,1217.08h-3.51c0-21.08,0.89-41.6,1.75-61.45c0.86-19.81,1.75-40.29,1.75-61.3
							c3.45-62.18,7.02-126.39,14.04-193.06l2.7-22.77c23.92-201.35,46.51-391.55,49.89-590.77l3.51,0.06
							c-3.38,199.4-25.98,389.67-49.91,591.12l-2.7,22.75c-7.01,66.56-10.57,130.72-14.02,192.77c0,20.98-0.89,41.5-1.75,61.35
							C1259.83,1175.6,1258.94,1196.08,1258.94,1217.08z"/>
					</g>
				</g>
				<g>
					<g>
						<path d="M1171.27,1220.59h-3.51c0-70.18,3.57-141.51,7.02-210.5c4.68-79.53,11.81-160.36,18.71-238.53
							c13.79-156.27,28.05-317.85,23.37-476.72l3.51-0.1c4.68,159.08-9.59,320.77-23.39,477.13
							c-6.89,78.14-14.02,158.95-18.7,238.41C1174.83,1079.21,1171.27,1150.5,1171.27,1220.59z"/>
					</g>
				</g>
				<g>
					<g>
						<path d="M1080.09,1220.63c-3.5-146.95-0.06-290.39,10.52-438.52c1.77-8.9,2.65-17.77,3.51-26.35
							c0.86-8.66,1.76-17.62,3.53-26.47c11.66-122.49,11.16-244.58,10.68-362.64c-0.1-23.97-0.2-47.92-0.2-71.87h3.51
							c0,23.94,0.09,47.89,0.2,71.85c0.48,118.15,0.97,240.32-10.72,363.17c-1.76,8.86-2.65,17.73-3.51,26.31
							c-0.86,8.66-1.76,17.62-3.53,26.47c-10.54,147.8-13.98,291.13-10.49,437.97L1080.09,1220.63z"/>
					</g>
				</g>
			</g>
		</g>
		<g>
			<g>
				<g>
					<path style="fill:#EBE1FB;" d="M312.42,1213.17l-20.24-398.79c-0.2-3.8-0.65-7.63-1.36-11.38l-83.75-440.62
						c-3.41-17.96-14.2-33.88-29.58-43.69l-21.26-13.56c0.65-2.44,2.2-6.93,6.01-11.25c4.63-5.25,10.01-7.32,12.46-8.09
						c5.66,3.52,11.31,7.05,16.97,10.57c21.51,13.72,36.58,35.97,41.35,61.07l83.75,440.62c0.94,4.93,1.54,9.97,1.79,14.98
						l20.24,398.79L312.42,1213.17z"/>
					<path d="M310.75,1215l-20.33-400.54c-0.19-3.75-0.65-7.5-1.34-11.14l-83.75-440.61c-3.32-17.48-13.82-32.99-28.8-42.54
						l-22.35-14.25l0.33-1.24c1.18-4.43,3.39-8.56,6.39-11.96c4.46-5.05,9.67-7.47,13.25-8.6l0.77-0.24l17.65,11
						c21.93,13.99,37.28,36.67,42.14,62.23l83.75,440.62c0.95,4.99,1.56,10.11,1.82,15.22l20.33,400.55L310.75,1215z M158.27,304.36
						l20.15,12.85c15.79,10.08,26.86,26.42,30.36,44.85l83.75,440.62c0.72,3.79,1.19,7.7,1.39,11.61l20.15,397.04l22.87-1.16
						L316.8,813.12c-0.25-4.96-0.85-9.91-1.76-14.74l-83.75-440.62c-4.68-24.62-19.47-46.46-40.56-59.92l-16.25-10.13
						c-3.11,1.09-7.3,3.22-10.92,7.33C161.18,297.72,159.37,300.92,158.27,304.36z"/>
				</g>
			</g>
			<g>
				<g>
					<path style="fill:#EBE1FB;" d="M1680,1219.77l20.24-398.79c0.2-3.8,0.65-7.63,1.36-11.38l83.75-440.62
						c3.41-17.96,14.2-33.88,29.58-43.69l21.26-13.56c-0.65-2.44-2.19-6.93-6.01-11.25c-4.63-5.25-10.01-7.32-12.46-8.09
						c-5.66,3.52-11.31,7.05-16.97,10.57c-21.51,13.72-36.58,35.97-41.35,61.07l-83.75,440.62c-0.94,4.93-1.54,9.97-1.79,14.98
						l-20.24,398.79L1680,1219.77z"/>
					<path d="M1681.66,1221.61l-29.87-1.53l20.33-400.54c0.26-5.12,0.87-10.24,1.82-15.22l83.75-440.62
						c4.86-25.56,20.22-48.24,42.13-62.22l17.66-11.01l0.77,0.24c3.58,1.13,8.78,3.53,13.25,8.6c3,3.41,5.21,7.54,6.39,11.96
						l0.33,1.24l-22.34,14.25c-14.98,9.56-25.48,25.06-28.8,42.54l-83.75,440.62c-0.69,3.64-1.14,7.39-1.34,11.13L1681.66,1221.61z
						 M1655.47,1216.76l22.87,1.17l20.15-397.05c0.2-3.91,0.67-7.82,1.39-11.61l83.75-440.62c3.5-18.42,14.57-34.77,30.36-44.85
						l20.15-12.85c-1.1-3.44-2.9-6.64-5.27-9.32c-3.63-4.12-7.82-6.24-10.92-7.33l-16.27,10.14
						c-21.09,13.45-35.87,35.29-40.55,59.91l-83.75,440.62c-0.92,4.83-1.51,9.78-1.76,14.74L1655.47,1216.76z"/>
				</g>
			</g>
		</g>
		<g>
			<path style="fill:#EBE1FB;" d="M1890.55,1464.93V264.77c0-17.49-14.23-31.69-31.85-31.76l-1724.52-7.56
				c-17.88-0.08-32.43,14.3-32.43,32.06v1206.95c0,0,52.01-0.25,52.01,0.93V315.71c0-16.92,13.68-30.61,30.52-30.54l1622.88,7.2
				c16.57,0.07,29.97,13.6,29.97,30.26v1142.31L1890.55,1464.93L1890.55,1464.93z"/>
			<path d="M153.07,1466.94c-2.56-0.7-32.84-0.82-51.3-0.74l-1.76,0.01V257.51c0-9.02,3.53-17.5,9.94-23.88
				c6.47-6.45,14.94-10.03,24.25-9.93l1724.52,7.56c18.52,0.08,33.59,15.12,33.59,33.52v1201.92h-56.93V322.62
				c0-15.65-12.66-28.43-28.22-28.5l-1622.88-7.2c-0.05,0-0.09,0-0.13,0c-7.6,0-14.74,2.96-20.14,8.33
				c-5.47,5.45-8.49,12.71-8.49,20.46v1149.68h-3.51h1.75L153.07,1466.94z M116.36,1462.66c22.6,0,31.79,0.33,35.65,0.71V315.71
				c0-8.68,3.38-16.83,9.52-22.94c6.06-6.04,14.09-9.35,22.61-9.35c0.05,0,0.1,0,0.15,0l1622.88,7.2
				c17.49,0.07,31.72,14.43,31.72,32.01v1140.55h49.91V264.77c0-16.47-13.5-29.93-30.1-30.01L134.17,227.2c-0.05,0-0.09,0-0.14,0
				c-8.17,0-15.84,3.16-21.62,8.91c-5.74,5.72-8.91,13.32-8.91,21.4v1205.19C108.21,1462.67,112.49,1462.66,116.36,1462.66z"/>
		</g>
	</g>
	<g>
		<g>
			<g>
				<g>
					<g>
						<g>
							<path d="M685.29,1129.78c-14.45,17.08-38.13,30.55-54.84,45.59c-20.96,18.86-41.28,38.39-61.13,58.4
								c-36.99,37.28-72.77,75.87-106.8,115.87c-67.79,79.67-123.74,165.42-168.09,260.18c-22.44,47.95,54.9,75.83,77.15,28.28
								c43.39-92.71,100.96-175.17,167.8-252.46c33.16-38.35,68.2-75.22,104.57-110.55c34.56-33.57,77.73-61.6,108.63-98.14
								C786.78,1136.5,719.18,1089.71,685.29,1129.78z"/>
						</g>
						<g>
							<g>
								<path style="fill:#FF6DCE;" d="M351.78,1565.08c0,0,31.46-44.68,26.83-71.62c-2.74-15.93-25.54-19-33-4.85l-23.41,44.41
									c4.17,7.28,10.02,15.89,19.1,23.99C344.88,1560.21,348.42,1562.86,351.78,1565.08z"/>
								<path d="M352.24,1567.48l-1.42-0.94c-3.73-2.46-7.33-5.23-10.68-8.22c-7.62-6.8-13.81-14.56-19.46-24.43l-0.48-0.83
									l23.86-45.27c3.83-7.26,11.85-11.08,20.41-9.72c8.29,1.32,14.52,7.24,15.87,15.09c4.7,27.34-25.82,71.08-27.13,72.93
									L352.24,1567.48z M324.2,1532.99c3.48,5.98,9.07,14.52,18.27,22.72c2.79,2.49,5.76,4.82,8.85,6.94
									c5.21-7.77,29.57-45.62,25.57-68.9c-1.32-7.7-7.56-11.37-12.96-12.22c-7.08-1.13-13.65,1.97-16.76,7.89L324.2,1532.99z"/>
							</g>
							<g>
								<path style="fill:#A57AEF;" d="M344.33,1678.21c-6.3,0.75-12.93,0.3-18.65-0.41c-25.37-3.15-217.5-86.01-219.3-104.85
									c-4.68-49.02,101.6-25.19,112.41-23.27c0,0,58.09,10.3,104.65-18.03c0,0,18.5,49.14,80.12,41.27
									c2.47-0.33-16.75,69.81-41.3,97.2C357.79,1675.1,351.26,1677.38,344.33,1678.21z"/>
								<path d="M337.38,1680.35c-3.61,0-7.56-0.27-11.92-0.81c-22.36-2.77-218.76-84.77-220.82-106.43
									c-0.85-8.85,1.71-16.05,7.61-21.4c14.83-13.46,49.81-14.91,103.96-4.33c1.27,0.25,2.25,0.44,2.89,0.55
									c2.36,0.41,58.15,9.76,103.44-17.8l1.81-1.1l0.75,1.98c0.05,0.12,4.69,12.13,16.61,23.02
									c15.95,14.56,36.7,20.31,61.64,17.13l1.21-0.15l0.7,1.16c2.55,4.83-18.63,73.39-41.68,99.1
									c-4.26,4.75-10.66,7.67-19.03,8.67C342.3,1680.22,339.93,1680.35,337.38,1680.35z M156.16,1543.97
									c-23.74,0-35.64,4.98-41.56,10.35c-5.1,4.62-7.22,10.66-6.47,18.46c0.52,5.48,26.97,23.66,99.79,56.89
									c51.82,23.64,105.85,44.89,117.97,46.4c7.15,0.88,13.11,1.01,18.23,0.41l0,0c7.5-0.9,13.16-3.43,16.84-7.53
									c22.03-24.57,39.39-83.37,40.95-94.06c-53.91,5.98-75.02-31.69-79.27-40.71c-46.08,26.98-101.77,17.65-104.15,17.23
									c-0.66-0.12-1.66-0.31-2.96-0.56C190.23,1545.89,170.91,1543.97,156.16,1543.97z"/>
							</g>
							<g>
								<path style="fill:#FF6DCE;" d="M357.89,1618.24c9.53-20.05,26.71-29.92,44.77-38.39c-4.54,19.43-23.03,73.34-44.48,92.9
									C357.83,1671.99,344.91,1645.56,357.89,1618.24z"/>
								<path d="M357.6,1675.65l-1.01-2.16c-1.39-2.94-13.07-29.12-0.29-56.01l0,0c10.07-21.19,28.82-31.35,45.61-39.22l3.28-1.54
									l-0.82,3.52c-4.19,17.9-22.63,73.38-45,93.79L357.6,1675.65z M359.47,1618.99c-10.47,22.05-3.56,43.62-0.68,50.75
									c18.24-18.49,35.26-63.65,41.28-86.72C384.18,1590.68,368.42,1600.17,359.47,1618.99L359.47,1618.99z"/>
							</g>
							<g>
								<path style="fill:#FF6DCE;" d="M307.86,1583.65c-14,2.54-28.2,1.98-41.94,0.38c-18.09-2.11-36.19-6.53-53.26-12.32
									c-16.91-5.74-33.52-13.51-47.53-24.74c-1.19-0.95-2.33-1.96-3.47-2.95c15.01-0.08,33.7,1.53,57.14,5.66
									c0,0,58.09,10.3,104.65-18.03c0,0,7.02,18.59,26.76,31.07C337.97,1574,323.39,1580.84,307.86,1583.65z"/>
								<path d="M287.33,1587.14c-6.63,0-13.77-0.46-21.62-1.37c-17.26-2.01-35.29-6.19-53.62-12.41
									c-19.66-6.67-35.38-14.86-48.06-25.03c-0.99-0.79-1.95-1.62-2.91-2.45l-4.15-3.59l4.66-0.02
									c16.24-0.11,35.56,1.82,57.45,5.68c0.57,0.1,58.01,9.84,103.44-17.8l1.8-1.09l0.75,1.97c0.07,0.18,7.09,18.21,26.06,30.21
									l1.93,1.22l-1.68,1.55c-12.11,11.18-26.66,18.37-43.22,21.37l0,0C301.68,1586.56,294.83,1587.14,287.33,1587.14z
									 M166.48,1545.8c12.32,9.82,27.62,17.75,46.75,24.24c18.09,6.14,35.89,10.26,52.89,12.24c16.38,1.91,29.54,1.8,41.43-0.36
									c15.14-2.75,28.51-9.14,39.79-18.99c-15.18-10.31-22.44-23.8-24.72-28.76c-46.29,27.07-103.56,17.32-104.13,17.22
									C198.93,1547.95,181.47,1546.08,166.48,1545.8z"/>
							</g>
							<g>
								<path d="M318.44,1677.11c-0.46,0.64-0.92,1.28-1.43,1.89c-5.8,6.98-13.4,10.25-16.96,7.27c-2.97-2.49-2.18-8.54,1.55-14.49
									L318.44,1677.11z"/>
								<path d="M303.42,1689.12c-1.76,0-3.3-0.52-4.48-1.51c-3.66-3.07-3.18-9.81,1.2-16.77l0.72-1.15l20.43,6.48l-1.42,1.97
									l-1.42-1.03l1.36,1.12c-0.46,0.65-0.93,1.28-1.43,1.89c-4.27,5.13-9.66,8.57-14.09,8.97
									C303.98,1689.11,303.7,1689.12,303.42,1689.12z M302.42,1673.87c-2.67,4.77-3.22,9.39-1.23,11.06
									c0.66,0.55,1.59,0.77,2.77,0.66c3.44-0.31,7.96-3.28,11.58-7.56L302.42,1673.87z"/>
							</g>
							<g>
								<path d="M325.8,1679.83c-2.57,6.22-2.37,11.98,0.82,13.99c3.93,2.47,10.91-1.84,15.62-9.57c0.97-1.6,1.75-3.18,2.35-4.8
									C344.59,1679.45,338.59,1680.68,325.8,1679.83z"/>
								<path d="M329.18,1696.27c-1.29,0-2.47-0.32-3.49-0.96c-3.95-2.48-4.53-8.82-1.5-16.15l0.48-1.16l1.26,0.08
									c12.32,0.81,18.26-0.33,18.32-0.35l3.09-0.62l-1.09,2.95c-0.65,1.75-1.47,3.42-2.5,5.1c-3.46,5.69-8.28,9.86-12.57,10.87
									C330.48,1696.19,329.82,1696.27,329.18,1696.27z M326.98,1681.66c-1.77,4.94-1.56,9.33,0.58,10.68
									c0.72,0.45,1.67,0.54,2.81,0.28c3.35-0.79,7.43-4.43,10.38-9.28c0.36-0.59,0.68-1.17,0.99-1.75
									C338.85,1681.84,333.99,1682.06,326.98,1681.66z"/>
							</g>
							<g>
								<path d="M183.47,1622.33c-0.31,0.72-0.62,1.45-1,2.2c-4.13,8.05-10.81,12.81-14.9,10.61c-4.05-2.18-4.01-10.51,0.12-18.57
									c0.19-0.38,0.39-0.75,0.6-1.05L183.47,1622.33z"/>
								<path d="M169.78,1637.43c-1.09,0-2.13-0.25-3.05-0.75c-4.98-2.69-5.25-11.87-0.61-20.91c0.25-0.48,0.49-0.93,0.75-1.28
									l0.84-1.14l18.06,8.09l-0.68,1.59l-1.61-0.69l1.59,0.75c-0.32,0.74-0.64,1.48-1.03,2.25c-3.02,5.9-7.53,10.38-11.74,11.7
									C171.42,1637.3,170.58,1637.43,169.78,1637.43z M169.03,1617.78c-3.73,7.55-3.36,14.35-0.64,15.81
									c0.76,0.41,1.71,0.44,2.85,0.08c3.3-1.03,7.09-4.93,9.66-9.95c0.09-0.17,0.18-0.35,0.26-0.51L169.03,1617.78z"/>
							</g>
							<g>
								<path d="M157.33,1610.22c-0.12,0.35-0.31,0.73-0.47,1.05c-4.11,8.06-10.78,12.83-14.88,10.64
									c-4.1-2.2-4.03-10.51,0.08-18.57c0.08-0.16,0.16-0.32,0.25-0.48L157.33,1610.22z"/>
								<path d="M144.19,1624.19c-1.09,0-2.12-0.25-3.04-0.74c-4.99-2.67-5.27-11.86-0.65-20.91l1.03-2.02l17.95,8.8l-0.48,1.46
									c-0.14,0.43-0.37,0.89-0.58,1.29c-3.01,5.91-7.5,10.4-11.71,11.72C145.84,1624.06,145,1624.19,144.19,1624.19z
									 M143.1,1605.2c-3.38,7.28-2.94,13.74-0.29,15.16c0.76,0.4,1.72,0.43,2.85,0.08c3.17-0.99,6.8-4.66,9.35-9.41L143.1,1605.2z
									"/>
							</g>
							<g>
								<path d="M131.68,1595.99c-3.16,8.47-9.23,13.94-13.54,12.19c-4.31-1.75-5.18-10.05-2.02-18.52
									c0.42-1.13,0.89-2.24,1.45-3.25L131.68,1595.99z"/>
								<path d="M119.83,1610.26c-0.82,0-1.62-0.15-2.36-0.46c-5.23-2.13-6.55-11.25-3.01-20.76c0.51-1.36,1.01-2.49,1.55-3.48
									l0.93-1.69l16.85,11.44l-0.48,1.29c-2.32,6.21-6.26,11.17-10.29,12.94C121.95,1610.02,120.87,1610.26,119.83,1610.26z
									 M118.26,1589.01c-0.17,0.39-0.34,0.82-0.5,1.27c-3.03,8.11-1.88,15.1,1.04,16.28c0.8,0.32,1.75,0.25,2.83-0.22
									c2.89-1.27,5.91-5,7.9-9.69L118.26,1589.01z"/>
							</g>
							<g>
								
									<rect x="279.31" y="1546.93" transform="matrix(0.8872 -0.4614 0.4614 0.8872 -694.3589 307.193)" width="3.5" height="53.38"/>
							</g>
							<g>
								
									<rect x="244.01" y="1548.66" transform="matrix(0.8981 -0.4399 0.4399 0.8981 -667.4443 268.5961)" width="3.51" height="51.27"/>
							</g>
							<g>
								
									<rect x="211.16" y="1544.91" transform="matrix(0.9169 -0.3992 0.3992 0.9169 -609.2477 215.5533)" width="3.5" height="51.3"/>
							</g>
						</g>
					</g>
					<g>
						<g>
							<path d="M1130.45,1232.75c-25.47-46.34-94.53-1.8-69.12,44.43c35.93,65.38,108.44,172.45,56.67,248.62
								c-21.4,31.49-68.2,39.78-102.87,47.12c-56.57,11.98-114.59,14.33-172.24,14.36c-52.91,0.03-49.33,82.11,3.48,82.08
								c71.64-0.04,143.12-5.19,212.85-22.52c51.23-12.74,103.65-34.9,131.41-82.61
								C1255.04,1453.53,1183.88,1329.96,1130.45,1232.75z"/>
						</g>
						<g>
							<g>
								<path style="fill:#FF6DCE;" d="M887.79,1635.17c0,0,54.61,1.98,73.26,21.97c11.03,11.82-0.33,31.84-16.11,29.22l-49.53-8.23
									c-3.28-7.72-6.6-17.59-7.55-29.72C887.5,1643.62,887.53,1639.19,887.79,1635.17z"/>
								<path d="M947.73,1688.33c-1.01,0-2.04-0.08-3.07-0.25l-50.48-8.39l-0.38-0.89c-4.44-10.47-6.88-20.09-7.68-30.27
									c-0.35-4.48-0.38-9.01-0.08-13.48l0.11-1.7l1.7,0.06c2.25,0.08,55.55,2.24,74.47,22.52c5.44,5.82,6.39,14.37,2.42,21.76
									C961.17,1684.39,954.7,1688.33,947.73,1688.33z M896.66,1676.55l48.58,8.08c6.6,1.09,13.04-2.27,16.43-8.57
									c2.58-4.81,3.44-12-1.89-17.72c-16.12-17.27-60.98-20.77-70.33-21.32c-0.18,3.73-0.12,7.51,0.18,11.25
									C890.58,1660.54,894,1670.17,896.66,1676.55z"/>
							</g>
							<g>
								<path style="fill:#A57AEF;" d="M793.21,1572.66c-4.41,4.56-8.06,10.11-10.96,15.1c-12.84,22.1-63.11,225.21-49.2,238.04
									c36.19,33.38,81.53-65.65,86.54-75.42c0,0,26.95-52.49,77.67-72.42c0,0-27.94-44.47,15.62-88.76
									c1.76-1.77-65.72-28.91-102.37-25.93C803.83,1563.83,798.06,1567.65,793.21,1572.66z"/>
								<path d="M749.02,1834.4c-6.13,0-11.89-2.45-17.16-7.31c-15.99-14.75,37.55-220.73,48.87-240.21
									c3.76-6.47,7.43-11.51,11.22-15.44l0,0c5.86-6.06,12.05-9.39,18.42-9.9c34.42-2.84,101.81,21.83,104.12,26.77l0.51,1.1
									l-0.87,1.03c-17.68,17.98-25.63,38.03-23.64,59.59c1.48,16.05,8.2,26.89,8.26,27l1.12,1.79l-1.97,0.78
									c-49.65,19.51-76.48,71.06-76.75,71.58c-0.3,0.59-0.74,1.48-1.32,2.65c-24.34,49.51-46.66,76.48-66.35,80.15
									C751.98,1834.26,750.49,1834.4,749.02,1834.4z M794.47,1573.88c-3.59,3.72-7.09,8.55-10.71,14.76
									c-6.14,10.57-21.91,66.43-34.44,122c-17.6,78.08-19.13,110.14-15.09,113.87c5.76,5.31,11.84,7.29,18.61,6.02
									c12.74-2.38,34.17-17.88,63.84-78.25c0.59-1.19,1.04-2.11,1.34-2.7l0.14,0.07c3.22-6.39,29.33-53.08,76.59-72.58
									c-4.6-8.84-21.79-48.47,15.55-87.75c-9.46-5.22-66.77-26.98-99.67-24.31C805.16,1565.48,799.72,1568.46,794.47,1573.88
									L794.47,1573.88z"/>
							</g>
							<g>
								<path style="fill:#FF6DCE;" d="M849.17,1598.15c21.72,4.54,39.98-3.16,57.65-12.42c-18.22-8.14-72.33-26.03-100.88-20.79
									C806.33,1565.68,819.55,1591.96,849.17,1598.15z"/>
								<path d="M861.93,1601.23c-4.24,0-8.61-0.42-13.12-1.36l0,0c-29.1-6.08-42.91-31.22-44.39-34.07l-1.09-2.11l2.3-0.49
									c29.82-5.46,85.13,13.42,101.91,20.92l3.3,1.47l-3.2,1.68C894.43,1594.2,879.29,1601.23,861.93,1601.23z M849.52,1596.43
									c20.39,4.27,37.49-2.55,53.19-10.56c-22-9.16-68.24-22.93-94.01-19.6C812.71,1572.96,825.71,1591.45,849.52,1596.43
									L849.52,1596.43z"/>
							</g>
							<g>
								<path style="fill:#FF6DCE;" d="M846.43,1658.91c-10.49,9.61-18.64,21.26-25.68,33.17c-9.27,15.68-16.7,32.77-22.41,49.86
									c-5.66,16.94-9.53,34.86-9.07,52.82c0.04,1.52,0.15,3.03,0.25,4.55c9.15-11.9,19.18-27.76,30.07-48.91
									c0,0,26.95-52.49,77.67-72.42c0,0-10.55-16.84-8.55-40.11C872.33,1640.77,858.07,1648.24,846.43,1658.91z"/>
								<path d="M788.07,1804.07l-0.34-5.42c-0.09-1.28-0.17-2.57-0.2-3.85c-0.42-16.26,2.57-33.73,9.15-53.42
									c6.14-18.36,13.73-35.25,22.57-50.2c8.57-14.5,16.83-25.17,26-33.57c12.4-11.36,26.93-18.59,43.17-21.48l2.25-0.4l-0.2,2.28
									c-1.93,22.36,8.18,38.87,8.29,39.03l1.12,1.79l-1.96,0.78c-49.53,19.46-76.49,71.07-76.75,71.58
									c-10.17,19.76-20.35,36.31-30.24,49.18L788.07,1804.07z M886.81,1640.01c-14.68,3.02-27.85,9.8-39.2,20.19l0,0
									c-8.91,8.16-16.96,18.57-25.35,32.76c-8.71,14.74-16.2,31.4-22.26,49.52c-6.4,19.16-9.35,36.14-8.98,51.89
									c8.85-12.1,17.92-27.14,27.01-44.79c0.27-0.52,27.16-52.01,76.72-72.49C892.18,1672.27,885.83,1658.34,886.81,1640.01z"/>
							</g>
							<g>
								<path d="M778.42,1593.94c-0.79-0.02-1.58-0.04-2.36-0.01c-9.07,0.4-16.27,4.47-16.05,9.1c0.19,3.86,5.48,6.91,12.48,7.53
									L778.42,1593.94z"/>
								<path d="M773.68,1612.43l-1.35-0.12c-8.19-0.73-13.85-4.43-14.08-9.19c-0.08-1.79,0.63-3.57,2.06-5.14
									c2.99-3.28,9-5.5,15.66-5.79c0.83-0.04,1.66-0.02,2.49,0l2.42,0.07L773.68,1612.43z M775.94,1595.69
									c-5.6,0.28-10.7,2.1-13.03,4.64c-0.8,0.88-1.19,1.76-1.15,2.61c0.13,2.59,4.14,4.94,9.55,5.71L775.94,1595.69z"/>
							</g>
							<g>
								<path d="M780.71,1586.43c-6.51-1.71-10.98-5.36-10.65-9.12c0.41-4.63,8.06-7.57,17.07-6.65c1.86,0.19,3.59,0.53,5.24,1.03
									C792.38,1571.7,787.78,1575.74,780.71,1586.43z"/>
								<path d="M781.48,1588.45l-1.22-0.32c-7.67-2.02-12.36-6.32-11.95-10.97c0.16-1.8,1.1-3.45,2.74-4.8
									c3.39-2.81,9.64-4.13,16.26-3.43c1.98,0.2,3.8,0.56,5.57,1.1l3.01,0.91l-2.36,2.08c-0.05,0.04-4.55,4.07-11.36,14.38
									L781.48,1588.45z M783.88,1572.26c-4.46,0-8.42,1.02-10.59,2.81c-0.9,0.75-1.4,1.55-1.48,2.4
									c-0.22,2.53,3.15,5.34,8.15,6.92c3.91-5.82,7.03-9.56,8.98-11.7c-0.65-0.11-1.31-0.21-1.99-0.28
									C785.92,1572.31,784.89,1572.26,783.88,1572.26z"/>
							</g>
							<g>
								<path d="M740.37,1734.55c-0.76-0.19-1.53-0.38-2.36-0.53c-8.91-1.59-16.74,0.86-17.46,5.45
									c-0.72,4.54,5.94,9.56,14.85,11.14c0.42,0.07,0.83,0.15,1.2,0.16L740.37,1734.55z"/>
								<path d="M737.98,1752.56l-1.43-0.04c-0.42-0.01-0.91-0.09-1.39-0.18c-10.07-1.79-17.22-7.56-16.35-13.15
									c0.28-1.8,1.35-3.4,3.09-4.63c3.59-2.56,9.89-3.44,16.42-2.27c0.87,0.15,1.67,0.36,2.48,0.55l1.67,0.42L737.98,1752.56z
									 M732.68,1735.29c-3.61,0-6.8,0.74-8.74,2.12c-0.96,0.69-1.52,1.47-1.66,2.32c-0.48,3.05,4.72,7.46,12.97,9.05l3.01-12.94
									c-0.19-0.04-0.37-0.07-0.56-0.11C735.99,1735.44,734.29,1735.29,732.68,1735.29z"/>
							</g>
							<g>
								<path d="M734.2,1762.69c-0.35-0.12-0.76-0.19-1.12-0.26c-8.9-1.6-16.74,0.82-17.47,5.41c-0.73,4.59,5.93,9.57,14.83,11.17
									c0.18,0.03,0.36,0.06,0.53,0.09L734.2,1762.69z"/>
								<path d="M732.36,1781.12l-2.26-0.39c-9.98-1.8-17.12-7.59-16.23-13.17c0.29-1.79,1.36-3.39,3.1-4.62
									c3.59-2.55,9.89-3.42,16.42-2.24c0.49,0.09,0.97,0.19,1.38,0.33l1.45,0.5L732.36,1781.12z M727.68,1763.7
									c-3.6,0-6.75,0.73-8.68,2.1c-0.96,0.68-1.53,1.47-1.66,2.32c-0.47,2.96,4.4,7.22,12.25,8.94l2.56-13.01
									C730.62,1763.81,729.11,1763.7,727.68,1763.7z"/>
							</g>
							<g>
								<path d="M730.01,1791.72c-8.66-2.61-16.69-1.08-17.9,3.41c-1.21,4.49,4.86,10.21,13.52,12.82c1.15,0.35,2.32,0.64,3.46,0.81
									L730.01,1791.72z"/>
								<path d="M730.74,1810.77l-1.91-0.29c-1.11-0.16-2.33-0.45-3.71-0.87c-9.72-2.92-16.18-9.49-14.71-14.95
									c0.47-1.76,1.71-3.23,3.57-4.27c3.85-2.13,10.18-2.27,16.53-0.36l1.32,0.4L730.74,1810.77z M721.81,1792.2
									c-2.45,0-4.6,0.42-6.12,1.27c-1.03,0.57-1.67,1.28-1.89,2.11c-0.82,3.05,4.04,8.19,12.34,10.68
									c0.46,0.14,0.9,0.26,1.31,0.36l0.73-13.6C725.97,1792.48,723.79,1792.2,721.81,1792.2z"/>
							</g>
							<g>
								
									<rect x="836.42" y="1659.62" transform="matrix(0.9041 -0.4273 0.4273 0.9041 -640.1914 519.8579)" width="3.51" height="53.38"/>
							</g>
							<g>
								
									<rect x="814.56" y="1688.49" transform="matrix(0.8936 -0.4489 0.4489 0.8936 -682.5867 548.8449)" width="3.51" height="51.26"/>
							</g>
							<g>
								
									<rect x="797.67" y="1716.92" transform="matrix(0.8726 -0.4885 0.4885 0.8726 -749.3502 612.5549)" width="3.51" height="51.3"/>
							</g>
						</g>
					</g>
				</g>
				<g>
					<g>
						<g>
							<path d="M1701.61,889.86c-31.39,77.96-66.74,156.63-141.38,201.99c-75.55,45.91-163.37,64.51-251.27,58.91
								c-43.12-2.75-41.95,64.38,0.95,67.11c103.44,6.6,212.7-18.77,298.92-77.44c82.23-55.96,121.79-144.33,157.75-233.63
								C1782.69,866.77,1717.53,850.32,1701.61,889.86z"/>
						</g>
						<g>
							<g>
								<path style="fill:#00BEFB;" d="M1662.8,902.44c0,0-86.61,23.94,15.73,75.62c75.48,38.12,120.93,36.83,91.88-19.1
									c0,0,71.62,25.74,125.65-166.87c2.79-9.93,4.07-22.58-3.56-29.53c-10.68-9.73-38.45,5.71-80.13,72.48
									c0,0,70.02-122.6,33.07-135.1c-7.02-2.38-14.73,1.07-20.24,6.02c-11.33,10.17-44.2,62.71-62.21,103.34
									c0,0,31.16-78.37,31.28-107.76c0.12-29.38-20.52-45.41-47.12,1.66c-6.87,12.15-12.71,24.87-17.78,37.87l-23.96,61.4
									c0,0-5.46-76.14-39.2-71.85C1645.02,733.32,1607.77,850.68,1662.8,902.44z"/>
								<path d="M1757.59,1005.87c-18,0-45.59-8.95-79.85-26.24c-35.23-17.79-52.34-34.52-50.82-49.73
									c1.64-16.47,24.38-25.52,32.56-28.26c-32.23-32.74-32.4-91.38-17.97-135.78c5.55-17.07,14.89-35.75,24.49-36.97
									c6.23-0.81,11.99,0.93,17.1,5.1c15.77,12.92,21.51,46.23,23.33,61.09l21.32-54.64c5.47-14.02,11.32-26.48,17.89-38.1
									c17.02-30.11,29.93-31.84,36.11-30.2c8.75,2.32,14.36,13.87,14.29,29.42c-0.07,17.36-10.58,50.93-19.43,76.16
									c17.44-32.66,38.54-65.08,47.43-73.06c7-6.28,15.21-8.67,21.98-6.38c4.8,1.63,8.21,5,10.12,10.04
									c7.93,20.87-11.7,67.47-26.81,98.24c21.34-29.49,39.94-46.36,53.56-48.24c4.3-0.59,8.03,0.42,10.8,2.94
									c8.46,7.7,6.88,21.27,4.07,31.3c-31.01,110.55-68.03,149.48-93.61,162.68c-14.05,7.24-25.01,7.06-30.5,6.24
									c8.88,18.3,9.77,31.23,2.62,38.46C1772.34,1003.91,1766.01,1005.87,1757.59,1005.87z M1668.96,732.2
									c-0.83,0-1.67,0.06-2.53,0.16c-5.2,0.66-14.18,11.76-21.59,34.57c-10.74,33.06-18.79,98.53,19.16,134.22l2.27,2.13
									l-3.01,0.83c-0.31,0.09-31.15,8.83-32.86,26.12c-1.33,13.42,15.58,29.41,48.92,46.24c48.11,24.29,83.42,32.13,94.45,20.97
									c6.29-6.36,4.59-19.4-4.91-37.71l-2.04-3.93l4.19,1.47c0.12,0.04,13.08,4.41,31.74-5.29c24.92-12.95,61.04-51.3,91.64-160.4
									c2.55-9.08,4.09-21.27-3.05-27.76c-2-1.83-4.68-2.52-7.96-2.07c-7.63,1.06-29.68,10.39-69.5,74.18l-3.01-1.8
									c0.54-0.94,53.51-94.28,42-124.61c-1.54-4.06-4.15-6.67-7.97-7.96c-5.55-1.88-12.47,0.24-18.51,5.66
									c-11.52,10.34-44.18,63.04-61.78,102.75l-3.23-1.36c0.31-0.78,31.04-78.4,31.16-107.12c0.06-13.9-4.53-24.11-11.69-26.01
									c-8.85-2.37-20.57,8.06-32.15,28.54c-6.49,11.47-12.27,23.79-17.67,37.65l-26.79,68.64l-0.56-7.75
									c-0.04-0.5-3.83-50.36-22.8-65.9C1677.18,733.68,1673.27,732.2,1668.96,732.2z"/>
							</g>
							<g>
								
									<rect x="1789.34" y="784.75" transform="matrix(0.4474 -0.8943 0.8943 0.4474 251.8727 2057.7288)" width="3.51" height="80.59"/>
							</g>
							<g>
								<path d="M1741.73,896.18l-3.21-1.42c23.66-53.25-34.17-86.94-34.76-87.28l1.73-3.05
									C1706.11,804.77,1766.66,840.06,1741.73,896.18z"/>
							</g>
							<g>
								<path d="M1703.74,926.85c-8.23-1.64-16.11-4.52-23.42-8.57c-6.25-3.46-12.03-7.75-17.18-12.75l2.44-2.51
									c4.92,4.78,10.45,8.89,16.43,12.2c7,3.88,14.54,6.63,22.41,8.2L1703.74,926.85z"/>
							</g>
							<g>
								
									<rect x="1755.36" y="938.22" transform="matrix(0.414 -0.9103 0.9103 0.414 162.2955 2157.8633)" width="3.51" height="29.33"/>
							</g>
						</g>
					</g>
					<g>
						<g>
							<path d="M695.83,421.95c-53.43,62.62-105.69,129.01-111.2,214.39c-5.58,86.42,18.12,171.1,62.87,244.87
								c21.95,36.18-36.86,65.63-58.69,29.63c-52.66-86.81-80.21-193.17-68.39-294.64c11.27-96.78,70.04-171.22,131.25-242.96
								C679.08,341.08,722.93,390.19,695.83,421.95z"/>
						</g>
						<g>
							<g>
								<path style="fill:#00BEFB;" d="M687.82,473.04c0,0,18.9,87.85-74.3,21.08c-68.74-49.24-88.65-90.11-25.63-90.28
									c0,0-55.98-51.56,89.69-188.66c7.51-7.07,18.13-14.07,27.82-10.52c13.57,4.96,12.75,36.72-27.12,104.59
									c0,0,76.22-118.84,104.42-91.89c5.36,5.12,5.87,13.55,4.04,20.73c-3.77,14.75-35.1,68.22-62.77,103
									c0,0,55.03-63.92,81.01-77.63c25.99-13.72,49.75-2.85,20.35,42.53c-7.59,11.72-16.16,22.78-25.33,33.3l-43.32,49.67
									c0,0,70-30.43,81.84,1.46C845.94,410.47,759.17,497.84,687.82,473.04z"/>
								<path d="M667.81,520.9c-13.23,0-31.76-8.48-55.32-25.35c-45.79-32.8-68.98-61.2-63.64-77.91
									c3.1-9.68,14.97-14.88,35.3-15.49c-3.27-4.47-8.51-14.11-8.6-29.92c-0.15-28.79,17.21-79.64,100.81-158.32
									c7.59-7.14,18.89-14.82,29.63-10.89c3.51,1.28,6.15,4.12,7.61,8.21c4.64,12.94-1.69,37.24-17.94,69.81
									c20.27-27.64,52.48-66.61,74.65-69.25c5.35-0.66,9.92,0.81,13.59,4.32c5.16,4.93,6.85,13.32,4.53,22.43
									c-2.96,11.58-21.92,45.29-42.78,75.88c18.26-19.53,43.14-44.39,58.5-52.5c13.74-7.26,26.58-7.64,32.69-0.95
									c4.32,4.72,8.75,16.97-10.04,45.99c-7.26,11.2-15.59,22.16-25.48,33.5l-38.55,44.2c14.01-5.27,46.18-15.6,64.94-7.62
									c6.07,2.58,10.25,6.89,12.44,12.79c3.36,9.07-8.85,26-21.42,38.82c-32.67,33.35-84.72,60.36-128.67,46.97
									c1.36,8.52,3.88,32.86-9.97,41.94C676.71,519.78,672.61,520.9,667.81,520.9z M699.9,205.46c-7.65,0-15.48,5.68-21.13,11
									c-82.69,77.82-99.86,127.65-99.71,155.74c0.11,20.99,9.91,30.25,10.01,30.34l3.29,3.03l-4.47,0.01
									c-20.62,0.05-32.96,4.58-35.69,13.1c-4.78,14.95,18.52,42.6,62.34,73.99c30.36,21.75,52.37,29.32,63.65,21.93
									c14.55-9.55,7.99-40.9,7.92-41.22l-0.66-3.05l2.95,1.02c49.24,17.11,103.52-20.36,127.84-45.19
									c16.78-17.14,22.46-30.23,20.63-35.15c-1.87-5.03-5.31-8.56-10.53-10.78c-22.56-9.63-68.51,10.11-68.97,10.32l-7.13,3.1
									l48.43-55.53c9.78-11.21,18.01-22.04,25.18-33.1c12.8-19.75,16.59-34.96,10.4-41.72c-5-5.47-16.17-4.8-28.46,1.69
									c-25.39,13.41-79.95,76.59-80.5,77.23l-2.7-2.24c27.04-33.99,58.62-87.33,62.45-102.34c2.01-7.87,0.68-14.98-3.56-19.03
									c-2.91-2.79-6.43-3.89-10.75-3.37c-32.21,3.84-90.4,94.03-90.98,94.93l-2.99-1.83c38.09-64.84,36.15-88.7,33.54-95.95
									c-1.12-3.12-2.98-5.17-5.52-6.1C703.19,205.72,701.55,205.46,699.9,205.46z"/>
							</g>
							<g>
								
									<rect x="695.3" y="283.14" transform="matrix(0.5854 -0.8108 0.8108 0.5854 26.7839 699.2539)" width="3.51" height="80.6"/>
							</g>
							<g>
								<path d="M659.55,402.36l-2.75-2.18c38.19-48.09,97.5-10.77,98.1-10.39l-1.9,2.95c-0.14-0.09-14.55-9.24-33.24-12.54
									C694.95,375.83,674.71,383.29,659.55,402.36z"/>
							</g>
							<g>
								<path d="M684.91,474.16c-6.81-2.24-13.29-5.38-19.26-9.32c-6.98-4.61-13.19-10.26-18.44-16.79l2.73-2.2
									c5.03,6.24,10.96,11.65,17.64,16.06c5.71,3.77,11.91,6.77,18.42,8.91L684.91,474.16z"/>
							</g>
							<g>
								
									<rect x="597.68" y="398.21" transform="matrix(0.615 -0.7885 0.7885 0.615 -94.7847 631.618)" width="3.51" height="29.33"/>
							</g>
						</g>
					</g>
				</g>
			</g>
			<g>
				<g>
					<g>
						<path style="fill:#FFBC00;stroke:#000000;stroke-width:0.9975;stroke-miterlimit:9.9749;" d="M1215.04,562.73
							c-3.56-1.76-7.14-3.44-10.75-5.04c-3.58-1.68-7.19-3.28-10.83-4.81c-221.9-93.91-480.91,1.7-587.34,220.96
							c-11.48,23.61-20.71,47.78-27.77,72.24c-1.03,3.48-1.97,6.98-2.92,10.48c-4.07,15.23-7.21,30.53-9.68,45.92
							c-0.82,5.04-1.48,10.14-2.07,15.27c-1.81,14.31-2.83,28.65-3.24,42.96c-4.44,173.25,90.68,341.48,256.8,422.06
							c191.44,92.86,415.89,39.63,547.06-115.95c3.68-4.24,7.23-8.62,10.66-13.13c0.46-0.53,0.81-1.01,1.27-1.54
							c5.22-6.74,10.26-13.72,15.18-20.83c5.52-8.03,10.87-16.3,15.89-24.86c6.69-11.19,13.01-22.78,18.77-34.75
							C1535.91,945.3,1441.51,672.63,1215.04,562.73z M1078.11,820.72c80.64,39.13,114.22,136.15,75.12,216.71
							c-3.44,7.14-7.33,13.84-11.62,20.22c-6.75,9.93-14.38,18.93-22.84,26.84c-9.61,9.14-20.3,16.92-31.64,23.4
							c-4.21,2.38-8.52,4.55-12.96,6.58c-28.93,13.01-61.54,17.56-93.62,12.14l-0.08-0.03c-14.94-2.48-29.71-7.08-43.95-14.03
							c-9.44-4.56-18.3-9.95-26.47-16.04c-6.04-4.52-11.74-9.44-17.05-14.74c-5.31-5.3-10.24-10.9-14.72-16.77
							c-35.87-47.14-44.5-112.2-16.88-169.16c24.13-49.67,70.33-81.6,121.09-89.48c2.04-0.29,4.15-0.56,6.19-0.86
							C1018.36,802.05,1049.31,806.7,1078.11,820.72z"/>
					</g>
					<g>
						<path style="fill:#FFBC00;" d="M859.2,896.11c-39.11,80.61-5.48,177.63,75.12,216.74c15.28,7.41,31.14,12.21,47.09,14.55
							c-57.46-46.34-77.54-127.66-43.94-196.9c31.69-65.33,101.41-99.83,169.65-89.67c-9.41-7.68-19.82-14.32-31.18-19.83
							C995.33,781.87,898.31,815.5,859.2,896.11z"/>
						<path d="M987.52,1130.06l-6.35-0.93c-16.46-2.42-32.47-7.36-47.6-14.7c-81.33-39.47-115.4-137.74-75.94-219.08
							c19.12-39.4,52.44-69,93.81-83.35c41.37-14.34,85.86-11.71,125.27,7.41c11.37,5.52,21.97,12.26,31.52,20.05l4.94,4.03
							l-6.31-0.94c-69.61-10.35-137.05,25.29-167.82,88.71c-32.8,67.59-14.92,147.68,43.47,194.77L987.52,1130.06z M1005.25,806.38
							c-17.7,0-35.45,2.97-52.67,8.93c-40.49,14.03-73.09,43-91.8,81.57c-38.62,79.59-5.28,175.77,74.31,214.39
							c12.86,6.24,26.38,10.72,40.27,13.33c-55.7-48.58-72.03-127.76-39.47-194.88c30.5-62.86,96.24-99.03,165.1-91.47
							c-7.99-5.98-16.65-11.24-25.82-15.69C1053,811.8,1029.18,806.38,1005.25,806.38z"/>
					</g>
				</g>
				<g>
					<g>
						<path style="fill:#712CE5;" d="M1374.94,1253.68c-3.43,4.51-6.98,8.89-10.66,13.13c-6.41,7.61-13.01,14.98-19.89,21.97
							c-133.06,138.49-345.08,182.32-527.16,93.98c-149.93-72.72-242.02-216.78-255.22-371.52c-1.49-16.77-1.99-33.6-1.58-50.53
							l42.71,37.93l13.86,12.24l16.45,14.69l31.4,27.78l88.04,78.24l40.99,36.42l21.81,19.4l32.36,28.75l55.71,49.41l54.58-1.39
							l29.89-0.74l17.77-0.42l28.75-0.72l105.55-2.72l61.11-1.51l36.97-0.92l43.6-1.08l66.7-1.71L1374.94,1253.68z"/>
						<path d="M1016.58,1430.51c-67.7,0-136.08-15.09-200.12-46.16c-72.64-35.24-134.74-89.05-179.57-155.6
							c-43.51-64.59-70.01-139.75-76.63-217.35c-1.47-16.52-2-33.59-1.58-50.73l0.09-3.77l345.63,306.9l474.15-11.95l-2.21,2.91
							c-3.44,4.52-7.05,8.97-10.73,13.22c-6.99,8.29-13.53,15.51-19.97,22.05C1257.3,1381.97,1138.01,1430.51,1016.58,1430.51z
							 M562.1,964.54c-0.25,15.72,0.3,31.36,1.65,46.55c6.57,77.01,32.87,151.6,76.05,215.69
							c44.49,66.05,106.11,119.45,178.2,154.41c177.55,86.14,388.58,48.51,525.14-93.61c6.39-6.49,12.87-13.65,19.82-21.89
							c2.85-3.29,5.65-6.69,8.36-10.16l-468.21,11.8L562.1,964.54z"/>
					</g>
					<g>
						<path style="fill:#FFFFFF;" d="M1374.94,1253.68c-3.43,4.51-6.98,8.89-10.66,13.13c-6.41,7.61-13.01,14.98-19.89,21.97
							l-449.45,11.36L562,1011.24c-1.49-16.77-1.99-33.6-1.58-50.53l42.71,37.93l13.86,12.24l16.45,14.69l31.4,27.78l88.04,78.24
							l40.99,36.42l21.81,19.4l32.36,28.75l55.71,49.41l54.58-1.39l29.89-0.74l17.77-0.42l28.75-0.72l105.55-2.72l61.11-1.51
							l36.97-0.92l43.6-1.08l66.7-1.71L1374.94,1253.68z"/>
						<path d="M894.3,1301.92l-0.51-0.45L560.32,1012.1l-0.06-0.7c-1.47-16.53-2-33.6-1.58-50.73l0.09-3.77l345.63,306.9
							l474.15-11.95l-2.21,2.91c-3.44,4.52-7.05,8.97-10.73,13.22c-6.99,8.29-13.53,15.51-19.97,22.05l-0.5,0.51l-0.71,0.02
							L894.3,1301.92z M563.69,1010.39l331.89,287.99l448.06-11.32c6.22-6.34,12.54-13.34,19.31-21.37
							c2.85-3.29,5.65-6.69,8.36-10.16l-468.21,11.8l-341-302.79C561.85,980.03,562.38,995.43,563.69,1010.39z"/>
					</g>
				</g>
				<g>
					<g>
						<g>
							<path style="fill:#FFAFE4;stroke:#000000;stroke-width:0.9975;stroke-miterlimit:9.9749;" d="M1426.04,1171.7
								c109.87-226.4,15.47-499.08-211.01-608.97c-3.56-1.76-7.14-3.44-10.75-5.04c-3.58-1.68-7.19-3.28-10.83-4.81
								c-221.56-94.58-475.47-9.43-581.93,209.92c-20.19,41.66-146.38,134.95-66.45,157.34c4.35,0.56,11.07-0.8,18.59-2.39
								c15.24-3.28,33.62-7.94,41.65-1.02c14.75,12.92,4.92,48.62-2.18,81.91c-8.9,42.17-13.31,80.5,42.74,63.09
								c5.44-1.66,11.83-4.72,18.97-8.38c33.23-17.29,80.47-47.78,101.94-7.65c11.88,22.29-0.07,54.04-13.91,85.88
								c-12.02,27.43-25.4,54.98-26.07,76.38c-1.27,44.04,30.93,72.73,72.09,53.21c18.7-8.83,33.5-27.7,49.13-45.03
								c17.85-19.75,36.72-37.55,63.79-36.35c40.07,1.81,33.43,53.24,46.5,84.38c5.49,13.08,14.4,22.61,31.87,23.22
								c12.36,0.47,27.82-10.97,44.54-25.09c33.29-28.31,71.49-67.5,99.95-44.31c11.36,9.3,10.65,24.19,5.59,41.59
								c-11.31,39.44-44.85,91.58-9.64,118.31c52.88,40.04,114.44-53.13,151.32-121.82c13.18-24.64,23.23-46.06,28.56-57.14
								c12.99,18.84,24.78,40.91,38.14,55.43c4.94,5.34,10.07,9.7,15.62,12.46c8.54,4.39,17.98,4.92,28.84-0.51
								c1.93-0.95,3.87-2.16,5.97-3.57C1437.4,1229.89,1415.87,1192.73,1426.04,1171.7z M1153.23,1037.43
								c-3.44,7.14-7.33,13.84-11.62,20.22c-6.75,9.93-14.38,18.93-22.84,26.84c-9.61,9.14-20.3,16.92-31.64,23.4
								c-4.21,2.38-8.52,4.55-12.96,6.58c-28.93,13.01-61.54,17.56-93.62,12.14l-0.03,0.08c-14.94-2.48-29.76-7.19-44.03-14.06
								c-9.44-4.56-18.27-10.02-26.44-16.12c-6.04-4.52-11.74-9.44-17.05-14.74c-5.33-5.22-10.24-10.9-14.72-16.77
								c-35.87-47.14-44.5-112.2-16.88-169.16c24.13-49.67,70.33-81.6,121.09-89.48c2.04-0.29,4.15-0.56,6.19-0.86
								c29.67-3.45,60.63,1.21,89.43,15.22C1158.75,859.84,1192.33,956.86,1153.23,1037.43z"/>
						</g>
						<g>
							<g>
								<path style="fill:#FFFFFF;" d="M554.37,888.51c0.01-0.25,0.01-0.42,0.01-0.56c0.04-0.4,0.07-0.81,0.12-1.21
									c0.13-1.09,0.31-2.18,0.53-3.26c0.22-1.07,0.51-2.13,0.8-3.18c0.04-0.14,0.05-0.21,0.07-0.3c0.05-0.11,0.11-0.22,0.19-0.42
									c0.89-2.01,1.72-4.01,2.81-5.93c0.14-0.24,1.08-1.75,1.2-1.98c0.51-0.73,1.02-1.46,1.57-2.16c1.21-1.56,2.5-3.06,3.85-4.49
									c0.78-0.83,1.59-1.63,2.41-2.42c0.41-0.4,0.83-0.79,1.26-1.17c-0.75,0.64-0.71,0.6,0.12-0.11c1.78-1.48,3.6-2.89,5.48-4.23
									c3.98-2.83,5.6-8.81,2.56-12.95c-2.92-3.98-8.7-5.58-12.95-2.56c-17.73,12.62-31.79,32.56-28.05,55.31
									c0.79,4.8,4.73,9.23,10.03,8.58c4.67-0.57,9.43-4.87,8.58-10.03C554.58,893.12,554.45,890.84,554.37,888.51z"/>
							</g>
							<g>
								<g>
									<path style="fill:#FFFFFF;" d="M1040.92,1233.57c0.46-2.2-0.07-5.02-1.38-6.91c-2.69-3.63-9-5.97-12.99-2.54
										c-3.37,2.95-6.65,6.12-9.93,9.28c-1.5,1.46-3.01,2.91-4.49,4.3c0,0-0.03,0.08-0.11,0.05c-0.03,0.08-0.03,0.08-0.13,0.13
										c-0.11,0.05-0.24,0.17-0.3,0.33c-0.08-0.03-0.11,0.05-0.21,0.1l-0.03,0.08c-0.03,0.08-0.16,0.2-0.24,0.18
										c-0.11,0.05-0.16,0.2-0.27,0.25c-0.64,0.55-1.39,1.15-2.11,1.67c-1.57,1.17-3.15,2.34-4.81,3.3
										c-0.21,0.1-0.42,0.19-0.56,0.32c-0.11,0.05-0.21,0.1-0.42,0.19l-0.11,0.05c-0.95,0.43-1.87,0.8-2.76,1.08
										c-0.39,0.12-0.68,0.19-1,0.33c-0.88,0.02-1.75,0.23-2.63,0.25c-0.11,0.05-0.36,0.04-0.62,0.03
										c-0.23-0.08-0.41-0.07-0.49-0.09c-1.09-0.14-2.22-0.39-3.25-0.68c-4.66-1.38-10.23,2.77-10.83,7.46
										c-0.72,5.25,2.18,9.22,6.97,10.73l0.46,0.17c5.79,1.62,11.73,1.2,17.31-0.59c4.36-1.36,8.41-3.54,12.04-6.22
										c4.05-2.88,7.77-6.32,11.32-9.73c1.53-1.54,3.04-2.99,4.54-4.45c0.7-0.7,1.4-1.41,2.17-2.09c0.3-0.33,1.32-1.18,1.74-1.63
										c0,0,0,0,0.03-0.08c0.21-0.1,0.24-0.17,0.24-0.17C1039.47,1237.24,1040.56,1235.72,1040.92,1233.57z"/>
								</g>
								<g>
									<path style="fill:#FFFFFF;" d="M1002.95,1244.29c-0.05,0.02-0.08,0.04-0.13,0.06c0.01,0,0.02-0.01,0.02-0.01
										C1002.88,1244.33,1002.91,1244.31,1002.95,1244.29z"/>
								</g>
								<g>
									<path style="fill:#FFFFFF;" d="M1011.33,1238.41C1011.8,1238,1012.82,1237.04,1011.33,1238.41L1011.33,1238.41z"/>
								</g>
							</g>
							<g>
								<g>
									<path style="fill:#FFFFFF;" d="M1151.57,1340.86c0.02,0.03,0.02,0.04,0.04,0.07c0.01-0.18-0.04-0.34-0.14-0.48
										C1151.54,1340.65,1151.55,1340.75,1151.57,1340.86z"/>
								</g>
								<g>
									<path style="fill:#FFFFFF;" d="M1152.65,1342.42c-0.35-0.48-0.69-0.96-0.96-1.41c-0.03,0.08-0.03,0.08-0.03,0.08
										s-0.05-0.11-0.1-0.21c-0.49-0.8-0.34-0.74-0.12-0.39c-0.28-0.89-0.96-2.37-1.03-2.66c-0.1-0.21-0.12-0.39-0.21-0.61
										c-0.04-0.36-0.09-0.47-0.09-0.47c-0.02-0.18-0.04-0.36-0.01-0.44c-0.17-1.2-0.29-2.3-0.3-3.44c0-0.7-0.04-1.33-0.04-2.03
										c0,0,0,0,0.03-0.08c0,0,0,0,0.03-0.08c0.07-1.37,0.22-2.72,0.45-4.04c0.2-1.24,0.5-2.53,0.78-3.74
										c0.15-0.65,0.41-1.34,0.56-1.98c0.06-0.15,0.09-0.49,0.21-0.8c0,0,0.29-1.03,0.38-1.26c0.23-0.62,0.49-1.31,0.82-1.97
										c0.49-1.31,1.05-2.59,1.61-3.87c1.15-2.38,2.54-4.49,3.84-6.81c0.35-0.48,0.74-1.04,1.09-1.52
										c0.74-1.04,1.52-1.98,2.38-2.88c0.68-0.89,1.48-1.64,2.32-2.47c0.45-0.27,0.85-0.65,1.3-0.92
										c3.97-2.91,5.55-8.81,2.54-12.99c-2.91-3.97-8.7-5.6-12.99-2.54c-10.69,7.78-17.39,20.19-21.29,32.58
										c-3.76,12.01-4.46,26.65,3.29,37.41c2.86,3.86,8.81,5.55,12.91,2.51C1154,1352.47,1155.63,1346.68,1152.65,1342.42z"/>
								</g>
							</g>
							<g>
								<path style="fill:#FFFFFF;" d="M1413.12,1216.88c1.17-4.75-2.69-10.21-7.48-10.87c-5.25-0.73-9.62,2.4-10.87,7.48
									c-0.2,0.8-0.42,1.59-0.64,2.38c-0.06,0.16-0.11,0.33-0.17,0.49c-0.55,1.47-1.18,2.92-1.89,4.32
									c-0.53,1.03-1.43,2.17-1.87,3.26c-0.12,0.17-0.25,0.34-0.37,0.51c-0.45,0.61-0.92,1.21-1.41,1.79
									c-0.97,1.16-2.01,2.28-3.11,3.32c-0.05,0.05-0.09,0.09-0.14,0.13c-0.53,0.34-1.06,0.9-1.52,1.25
									c-1.23,0.94-2.51,1.82-3.84,2.63c-0.67,0.41-1.35,0.81-2.04,1.19c-0.35,0.19-0.7,0.38-1.05,0.56
									c0.15-0.07,0.14-0.07,0.26-0.13c-2.19,1.07-3.96,2.29-5.07,4.6c-1,2.06-1.28,4.96-0.42,7.13c1.69,4.27,7.17,8.01,11.87,5.76
									c7.26-3.47,13.89-7.91,19.1-14.14C1407.71,1232.25,1411.15,1224.85,1413.12,1216.88z"/>
							</g>
							<g>
								<g>
									<path style="fill:#FFFFFF;" d="M787.37,1234.64c-0.62-4.7-4.93-9.37-10.06-8.55c-1.13,0.2-2.3,0.29-3.44,0.3
										c0,0-0.11,0.05-0.18,0.02c-0.34-0.04-0.86-0.06-1.09-0.14c-0.34-0.04-0.67-0.07-1.06-0.22c-0.23-0.09-0.54-0.2-0.82-0.39
										c0.05,0.11,0.05,0.11,0.05,0.11c-0.08-0.03-0.23-0.09-0.28-0.19c-0.13-0.13-0.36-0.22-0.66-0.33l-0.08-0.03
										c-0.28-0.19-0.38-0.4-0.66-0.59c-0.05-0.11-0.17-0.24-0.33-0.3c-0.13-0.13-0.22-0.34-0.35-0.48
										c-0.52-0.72-1.01-1.52-1.43-2.28l-0.43-0.95c-0.8-1.87-1.15-3.76-1.76-5.65c-0.09-0.47-0.18-0.94-0.27-1.41
										c-0.12-1.09-0.32-2.22-0.33-3.36c-0.24-2.19-0.29-4.4-0.27-6.59c-0.06-0.55-0.04-1.07,0.05-1.56
										c-0.03,0.08-0.05-0.11-0.05-0.81c0.03-0.08,0.08-0.23,0.04-0.34c0.03-0.08-0.02-0.18,0.01-0.26
										c0.05-0.6,0.06-1.12,0.19-1.68c0.4-4.15,1.11-8.18,2.38-12.08c0.59-2.06-0.34-5.21-1.46-6.94
										c-1.32-1.89-3.72-3.66-6.08-3.92c-2.33-0.34-4.89-0.06-6.83,1.41c-2.16,1.56-3.24,3.53-4,6.05
										c-2.89,8.74-3.46,18.78-2.65,27.93c0.93,10.25,4.16,22.31,13.05,28.59c5.89,4.2,12.91,5.84,20.17,4.68
										C783.58,1243.93,787.95,1239.94,787.37,1234.64z"/>
								</g>
								<g>
									<path style="fill:#FFFFFF;" d="M763.94,1202.04c0,0.1,0.01-0.07,0.02-0.79c0,0.08-0.01,0.16-0.01,0.25
										C763.95,1201.67,763.95,1201.85,763.94,1202.04z"/>
								</g>
								<g>
									<path style="fill:#FFFFFF;" d="M770.72,1225.67c-0.14-0.09-0.46-0.25-0.87-0.43c0.01,0.01,0.01,0.01,0.02,0.02
										C770.16,1225.38,770.43,1225.53,770.72,1225.67z"/>
								</g>
							</g>
							<g>
								<path style="fill:#FFFFFF;" d="M636.84,1034.57c-0.52-0.76-0.95-1.58-1.41-2.38c-0.74-1.64-1.34-3.34-1.77-5.09
									c-0.21-1.42-0.32-2.84-0.32-4.28c0.17-1.71,0.48-3.4,0.93-5.06c0.9-2.4,2.02-4.7,3.44-6.85c-0.33,0.5-0.67,1-1,1.51
									c1.4-2.09,2.38-4.06,2.17-6.69c-0.18-2.24-1.36-4.87-3.15-6.29c-1.91-1.53-4.38-2.6-6.88-2.29
									c-2.24,0.27-4.96,1.19-6.29,3.15c-2.28,3.35-4.29,6.67-5.58,10.52c-1.47,4.39-2.22,8.46-2.31,13.11
									c-0.14,7.41,2.49,14.96,6.64,21.04c2.76,4.03,8.86,5.56,12.95,2.56C638.33,1044.55,639.79,1038.87,636.84,1034.57z"/>
							</g>
						</g>
					</g>
					<g>
						<g>
							<path style="fill:#FF4568;" d="M825.02,617.8c-1.52-3.84-4.11-7.06-7.91-8.9l-17.14-8.32c-3.59-1.74-8.11-2.01-11.88-0.7
								c-1.98,0.61-3.67,1.64-5.08,3.1c-1.69,1.24-2.96,2.84-3.82,4.81c-1.59,3.7-2.23,8.03-0.7,11.88c1.52,3.84,4.11,7.06,7.91,8.9
								l17.14,8.31c3.59,1.74,8.11,2.01,11.88,0.7c1.98-0.61,3.67-1.64,5.08-3.1c1.69-1.24,2.96-2.84,3.82-4.81
								C825.92,625.99,826.55,621.66,825.02,617.8z"/>
						</g>
						<g>
							<path style="fill:#FF4568;" d="M1420.82,942.83c-1.25-3.6-4.34-7.36-7.91-8.9c-3.7-1.59-8.03-2.23-11.88-0.7
								c-3.84,1.52-7.06,4.11-8.9,7.91l-11.44,23.57c-1.74,3.59-2.01,8.11-0.7,11.88c1.25,3.61,4.35,7.36,7.91,8.9
								c3.7,1.6,8.03,2.23,11.88,0.7c3.84-1.52,7.06-4.11,8.9-7.91l11.44-23.57C1421.86,951.12,1422.13,946.6,1420.82,942.83z"/>
						</g>
						<g>
							<path style="fill:#FF4568;" d="M1302.77,664.02c-1.25-3.6-4.34-7.36-7.91-8.9c-3.7-1.6-8.03-2.23-11.88-0.7
								c-3.84,1.52-7.06,4.11-8.9,7.91l-11.44,23.57c-1.74,3.59-2.01,8.11-0.7,11.88c1.25,3.61,4.34,7.36,7.91,8.9
								c3.7,1.6,8.03,2.23,11.88,0.7c3.84-1.52,7.06-4.11,8.9-7.91l11.44-23.57C1303.81,672.31,1304.08,667.79,1302.77,664.02z"/>
						</g>
						<g>
							<path style="fill:#FF4568;" d="M1075.79,523.64c-3.36-1.81-8.18-2.48-11.85-1.19c-3.8,1.33-7.41,3.8-9.22,7.53
								c-1.8,3.72-2.41,7.81-1.19,11.85l7.55,25.08c1.15,3.82,4.02,7.33,7.53,9.22c3.36,1.81,8.19,2.48,11.85,1.19
								c3.8-1.33,7.41-3.8,9.22-7.53c1.8-3.72,2.41-7.81,1.19-11.85l-7.55-25.08C1082.18,529.04,1079.31,525.53,1075.79,523.64z"/>
						</g>
						<g>
							<path style="fill:#FF4568;" d="M1154.55,1118.65c-3.49-1.53-8.36-1.81-11.9-0.24c-3.68,1.63-7.09,4.38-8.59,8.24
								c-1.49,3.85-1.77,7.98-0.24,11.9l9.53,24.4c1.45,3.71,4.59,6.99,8.24,8.59c3.49,1.53,8.36,1.81,11.9,0.24
								c3.68-1.63,7.09-4.38,8.59-8.24c1.49-3.85,1.77-7.98,0.24-11.9l-9.53-24.4C1161.34,1123.53,1158.2,1120.25,1154.55,1118.65z"
								/>
						</g>
						<g>
							<path style="fill:#FF4568;" d="M671.42,826.35c-1.52-3.84-4.11-7.06-7.91-8.9l-17.14-8.31c-3.59-1.74-8.11-2.01-11.88-0.7
								c-1.98,0.61-3.67,1.64-5.08,3.1c-1.69,1.24-2.96,2.84-3.82,4.81c-1.59,3.7-2.23,8.03-0.7,11.88c1.52,3.84,4.11,7.06,7.91,8.9
								l17.14,8.31c3.59,1.74,8.11,2.01,11.88,0.7c1.98-0.61,3.67-1.64,5.08-3.1c1.69-1.24,2.96-2.84,3.82-4.81
								C672.31,834.53,672.94,830.2,671.42,826.35z"/>
						</g>
						<g>
							<path style="fill:#FF4568;" d="M799.51,821.87c-3.77-0.6-8.54,0.35-11.58,2.76c-3.15,2.51-5.75,6.02-6.24,10.14
								c-0.48,4.1,0.29,8.17,2.76,11.58l16.77,23.14c2.34,3.23,6.2,5.6,10.14,6.23c3.77,0.6,8.54-0.35,11.58-2.76
								c3.15-2.51,5.75-6.02,6.24-10.14c0.48-4.1-0.29-8.17-2.76-11.58l-16.77-23.14C807.31,824.87,803.45,822.5,799.51,821.87z"/>
						</g>
						<g>
							<path style="fill:#FF4568;" d="M1282.14,1010.18c-1.52-3.84-4.11-7.06-7.91-8.9l-17.14-8.31c-3.59-1.74-8.11-2.01-11.88-0.7
								c-1.98,0.61-3.67,1.64-5.08,3.1c-1.69,1.24-2.96,2.84-3.82,4.81c-1.59,3.7-2.23,8.03-0.7,11.88c1.52,3.84,4.11,7.06,7.91,8.9
								l17.14,8.31c3.59,1.74,8.11,2.01,11.88,0.7c1.98-0.61,3.67-1.64,5.08-3.1c1.69-1.24,2.96-2.84,3.82-4.81
								C1283.03,1018.37,1283.66,1014.04,1282.14,1010.18z"/>
						</g>
						<g>
							<path style="fill:#FF4568;" d="M952.49,651.64c-1.52-3.84-4.11-7.06-7.91-8.9l-17.14-8.31c-3.59-1.74-8.11-2.01-11.88-0.7
								c-1.98,0.61-3.67,1.64-5.08,3.1c-1.69,1.24-2.96,2.84-3.82,4.81c-1.59,3.7-2.23,8.03-0.7,11.88c1.52,3.84,4.11,7.06,7.91,8.9
								l17.14,8.32c3.59,1.74,8.11,2.01,11.88,0.7c1.98-0.61,3.67-1.64,5.08-3.1c1.69-1.24,2.96-2.84,3.82-4.81
								C953.38,659.83,954.01,655.5,952.49,651.64z"/>
						</g>
						<g>
							<path style="fill:#FF4568;" d="M1407.73,809.28c-1.52-3.84-4.11-7.06-7.91-8.9l-17.14-8.31c-3.59-1.74-8.11-2.01-11.88-0.7
								c-1.98,0.61-3.67,1.64-5.08,3.1c-1.69,1.24-2.96,2.84-3.82,4.81c-1.59,3.7-2.23,8.03-0.7,11.88c1.52,3.84,4.11,7.06,7.91,8.9
								l17.14,8.32c3.59,1.74,8.11,2.01,11.88,0.7c1.98-0.61,3.67-1.64,5.08-3.1c1.69-1.24,2.96-2.84,3.82-4.81
								C1408.63,817.47,1409.26,813.14,1407.73,809.28z"/>
						</g>
						<g>
							<path style="fill:#FF4568;" d="M1296.58,876.38c1.98-0.45,3.74-1.36,5.28-2.74c2.98-2.7,5.35-6.39,5.55-10.53
								c0.2-4.12-0.83-8.13-3.52-11.37l-15.07-18.13c-1.26-1.64-2.83-2.86-4.69-3.66c-1.76-1.14-3.7-1.77-5.85-1.89
								c-2.13-0.28-4.16-0.02-6.09,0.78c-1.98,0.45-3.74,1.36-5.28,2.74c-2.98,2.7-5.35,6.39-5.55,10.53
								c-0.2,4.12,0.83,8.13,3.52,11.37l15.07,18.13c1.26,1.64,2.83,2.86,4.69,3.66c1.76,1.14,3.7,1.77,5.85,1.89
								C1292.61,877.44,1294.64,877.18,1296.58,876.38z"/>
						</g>
						<g>
							<path style="fill:#FF4568;" d="M950.43,555.4c0.28-2.01,0.04-3.98-0.71-5.91c-1.48-3.74-4.1-7.26-7.91-8.9
								c-3.79-1.63-7.91-2.08-11.88-0.7l-22.28,7.72c-1.98,0.61-3.67,1.64-5.08,3.1c-1.68,1.24-2.96,2.84-3.82,4.81
								c-1.01,1.89-1.48,3.88-1.41,5.98c-0.28,2.01-0.04,3.98,0.71,5.91c1.48,3.74,4.1,7.26,7.91,8.9c3.79,1.63,7.91,2.08,11.88,0.7
								l22.28-7.72c1.98-0.61,3.67-1.64,5.08-3.1c1.68-1.24,2.96-2.84,3.82-4.81C950.02,559.48,950.49,557.49,950.43,555.4z"/>
						</g>
						<g>
							<path style="fill:#FF4568;" d="M722.94,728.02l15.01-18.18c1.37-1.55,2.29-3.31,2.72-5.29c0.79-1.94,1.05-3.97,0.76-6.09
								c-0.12-2.14-0.76-4.09-1.9-5.84c-0.81-1.86-2.03-3.42-3.68-4.68c-3.21-2.43-7.28-4.07-11.38-3.49
								c-4.09,0.58-7.83,2.33-10.52,5.58c-5,6.06-10,12.12-15.01,18.18c-1.37,1.55-2.29,3.31-2.72,5.29
								c-0.79,1.94-1.05,3.97-0.76,6.09c0.12,2.14,0.76,4.09,1.9,5.84c0.81,1.86,2.03,3.42,3.68,4.68
								c3.21,2.43,7.28,4.07,11.38,3.49C716.52,733.02,720.26,731.27,722.94,728.02z"/>
						</g>
						<g>
							<path style="fill:#FF4568;" d="M1385.42,1083.57c-3.01-2.35-7.65-3.82-11.48-3.16c-3.97,0.67-7.95,2.5-10.35,5.88
								c-2.4,3.36-3.69,7.29-3.16,11.48l3.52,28.36c0.49,3.96,2.73,7.9,5.88,10.35c3.01,2.34,7.65,3.82,11.48,3.16
								c3.97-0.67,7.95-2.5,10.35-5.88c2.4-3.36,3.69-7.29,3.16-11.48l-3.52-28.36C1390.81,1089.97,1388.57,1086.02,1385.42,1083.57
								z"/>
						</g>
						<g>
							<path style="fill:#FF4568;" d="M820.54,1028.38c-1.79-1.04-3.7-1.58-5.73-1.62c-2.06-0.39-4.1-0.23-6.12,0.47
								c-3.79,1.35-7.4,3.83-9.19,7.56c-1.78,3.72-2.38,7.82-1.15,11.85l6.25,20.5c1.16,3.82,4.05,7.32,7.56,9.19
								c1.79,1.04,3.7,1.58,5.73,1.62c2.06,0.39,4.1,0.23,6.12-0.47c3.79-1.35,7.4-3.83,9.19-7.56c1.78-3.72,2.38-7.82,1.15-11.85
								l-6.25-20.5C826.94,1033.76,824.06,1030.26,820.54,1028.38z"/>
						</g>
						<g>
							<path style="fill:#FF4568;" d="M974.38,1195.02c0.39,2.03,1.24,3.83,2.54,5.38c1.06,1.81,2.51,3.24,4.38,4.31
								c3.51,1.98,7.75,3.06,11.74,1.96c3.98-1.1,7.46-3.34,9.69-6.92l11.35-18.18c2.11-3.38,2.86-7.86,1.96-11.74
								c-0.39-2.03-1.24-3.83-2.54-5.38c-1.06-1.81-2.51-3.24-4.37-4.31c-3.51-1.98-7.75-3.06-11.74-1.96
								c-3.98,1.1-7.46,3.34-9.69,6.92l-11.35,18.18C974.23,1186.66,973.48,1191.14,974.38,1195.02z"/>
						</g>
						<g>
							<path style="fill:#FF4568;" d="M799.27,1159.2c-1.64,1.26-2.86,2.82-3.67,4.69c-1.14,1.76-1.77,3.7-1.89,5.84
								c-0.19,4.02,0.74,8.3,3.52,11.37c2.77,3.06,6.33,5.17,10.53,5.55l21.34,1.99c3.97,0.37,8.3-0.97,11.37-3.52
								c1.64-1.26,2.86-2.82,3.67-4.69c1.14-1.76,1.77-3.7,1.89-5.84c0.19-4.02-0.74-8.3-3.52-11.37
								c-2.77-3.06-6.33-5.17-10.53-5.55l-21.34-1.99C806.67,1155.32,802.34,1156.65,799.27,1159.2z"/>
						</g>
						<g>
							<path style="fill:#FF4568;" d="M716.14,934.59c-0.61-1.98-1.64-3.67-3.1-5.08c-1.24-1.69-2.84-2.96-4.81-3.82
								c-3.7-1.6-8.03-2.23-11.88-0.7c-3.84,1.52-7.06,4.11-8.9,7.91l-9.36,19.28c-1.74,3.59-2.01,8.11-0.7,11.88
								c0.61,1.98,1.64,3.67,3.1,5.08c1.24,1.68,2.84,2.96,4.81,3.82c3.7,1.6,8.03,2.23,11.88,0.7c3.84-1.52,7.06-4.11,8.9-7.91
								l9.36-19.28C717.18,942.88,717.45,938.36,716.14,934.59z"/>
						</g>
						<g>
							<path style="fill:#FF4568;" d="M1250.94,1242.35c0.6-3.77-0.35-8.54-2.76-11.58c-2.51-3.15-6.02-5.75-10.14-6.24
								c-4.1-0.48-8.17,0.29-11.58,2.76l-19.29,13.97c-3.23,2.34-5.6,6.2-6.24,10.14c-0.6,3.77,0.35,8.54,2.76,11.58
								c2.51,3.15,6.02,5.75,10.14,6.24c4.1,0.48,8.17-0.29,11.58-2.76l19.29-13.97
								C1247.94,1250.15,1250.31,1246.29,1250.94,1242.35z"/>
						</g>
						<g>
							<path style="fill:#FF4568;" d="M882.98,722.64c-7.83-0.67-15.66-1.33-23.49-2c-2.05-0.25-4.02,0-5.9,0.77
								c-2.04,0.45-3.86,1.4-5.44,2.84c-1.69,1.32-2.93,2.95-3.72,4.89c-1.07,1.72-1.66,3.62-1.75,5.68
								c-0.17,4.02,0.8,8.3,3.61,11.34c2.8,3.03,6.38,5.11,10.57,5.47l23.49,2c2.05,0.25,4.02,0,5.9-0.77
								c2.04-0.45,3.86-1.4,5.45-2.84c1.69-1.32,2.93-2.95,3.72-4.89c1.07-1.72,1.66-3.62,1.75-5.68c0.17-4.02-0.8-8.3-3.61-11.34
								C890.76,725.07,887.18,722.99,882.98,722.64z"/>
						</g>
					</g>
				</g>
			</g>
			<g>
				<g>
					<path style="fill:#FF4568;" d="M1229.84,642.38c-2.14,19.99-20.08,34.46-40.07,32.32s-34.46-20.08-32.32-40.07
						c2.14-19.99,20.08-34.46,40.07-32.32C1217.51,604.45,1231.98,622.39,1229.84,642.38z"/>
					<path d="M1193.67,676.66c-1.35,0-2.71-0.07-4.09-0.22c-10.13-1.08-19.23-6.05-25.63-13.99c-6.4-7.93-9.32-17.88-8.24-28.02
						c1.09-10.13,6.05-19.24,13.99-25.64c7.93-6.4,17.86-9.32,28.02-8.24c20.92,2.24,36.12,21.09,33.88,42v0
						C1229.49,662.12,1212.9,676.66,1193.67,676.66z M1193.57,603.85c-7.88,0-15.47,2.67-21.69,7.68
						c-7.2,5.81-11.71,14.08-12.7,23.29c-0.99,9.2,1.67,18.24,7.48,25.44c5.81,7.2,14.08,11.71,23.28,12.7
						c18.98,2.04,36.11-11.77,38.14-30.77l0,0c2.03-18.99-11.77-36.11-30.77-38.14C1196.07,603.92,1194.82,603.85,1193.57,603.85z"
						/>
				</g>
				<g>
					<g>
						<path d="M1020.09,692.94c-18.83,32.38,11.89,85.33,68.62,118.32c13.68,7.95,27.53,13.95,41.08,18.12
							c42.72,13.21,81.47,7.64,95.78-16.97c1.25-2.15,2.28-4.33,3.03-6.68c11.61-32.56-18.75-80.88-71.74-111.69
							C1100.13,661.06,1038.92,660.56,1020.09,692.94z"/>
						<path d="M1172.46,838.14c-13.16,0-27.78-2.32-43.19-7.08c-14.11-4.35-28.06-10.5-41.45-18.28
							c-27.7-16.11-50.17-37.42-63.28-60.02c-13.29-22.91-15.41-44.47-5.98-60.69c19.28-33.15,81.71-32.95,139.17,0.46
							c53.4,31.05,84.57,79.97,72.51,113.8c-0.73,2.28-1.77,4.58-3.16,6.97C1217.63,829.56,1197.77,838.14,1172.46,838.14z
							 M1073.31,670.71c-23.67,0-42.73,7.68-51.7,23.11l0,0c-8.78,15.09-6.66,35.4,5.98,57.18c12.8,22.08,34.83,42.94,62,58.75
							c13.16,7.65,26.86,13.69,40.72,17.97c43.44,13.42,80.23,7.07,93.74-16.18c1.27-2.17,2.21-4.25,2.88-6.34
							c11.52-32.32-18.99-79.43-70.95-109.64C1127.53,679.02,1097.92,670.71,1073.31,670.71z"/>
					</g>
					<g>
						<path style="fill:#FF4568;" d="M1135.34,798.85c-5.5,9.46-7.18,20.12-5.55,30.53c42.72,13.21,81.47,7.64,95.78-16.97
							c1.25-2.15,2.28-4.33,3.03-6.68c-4.71-8.91-12.12-16.72-21.7-22.29C1181.09,768.44,1149.02,775.32,1135.34,798.85z"/>
						<path d="M1172.46,838.14c-13.16,0-27.78-2.32-43.19-7.08l-1.05-0.32l-0.17-1.08c-1.76-11.22,0.23-22.18,5.77-31.68l0,0
							c6.87-11.81,18.37-19.97,32.38-22.99c13.94-3.01,28.71-0.53,41.58,6.94c9.66,5.62,17.39,13.56,22.37,22.99l0.34,0.66
							l-0.22,0.7c-0.75,2.33-1.79,4.63-3.18,7.02C1217.63,829.56,1197.77,838.14,1172.46,838.14z M1131.36,828.03
							c42.97,13.01,79.28,6.56,92.69-16.5c1.12-1.93,1.99-3.78,2.64-5.64c-4.68-8.55-11.81-15.78-20.68-20.94
							c-12.11-7.04-25.99-9.37-39.08-6.55c-13.03,2.8-23.72,10.38-30.08,21.32l0,0C1131.91,808.23,1130.02,817.99,1131.36,828.03z"
							/>
					</g>
				</g>
				<g>
					<path style="fill:#FFAFE4;" d="M1280.31,728.21c-46.43-4.37-90.28,27.22-103.05,69.76c-9.77,32.52-0.32,67.88,23.71,90.9
						L1280.31,728.21z"/>
					<path d="M1199.76,890.14c-24.54-23.51-34.03-59.89-24.18-92.67c13.47-44.84,58.58-75.36,104.89-71.01l-0.33,3.49
						c-44.71-4.2-88.21,25.25-101.21,68.52c-9.47,31.54-0.35,66.53,23.25,89.13L1199.76,890.14z"/>
				</g>
				<g>
					<path style="fill:#FFAFE4;" d="M1052.82,607.2c29.94,35.76,28.8,89.79,1.02,124.44c-21.23,26.49-55.72,38.77-88.31,32.05
						L1052.82,607.2z"/>
					<path d="M983.16,767.24c-6,0-12.02-0.6-17.98-1.83l0.7-3.43c32.02,6.6,65.99-5.74,86.58-31.43c28.26-35.26,27.83-87.8-1-122.22
						l2.69-2.25c29.88,35.68,30.33,90.13,1.05,126.66C1037.64,754.67,1010.67,767.24,983.16,767.24z"/>
				</g>
				<g>
					<g>
						<g>
							<path style="fill:#FFFFFF;" d="M1074.46,668.87c-20.96-23.12-51.66-45.43-88.61-62.55c-5.57-2.62-11.11-5.01-16.66-7.12
								c-28.31-11.43-56.22-18.05-80.99-19.95c5.81-30.36,17.22-62.79,34.23-94.79c6.61-12.34,13.69-23.93,21.27-34.86
								c19.98-29.19,42.97-53.36,66.52-70.8c40.23-29.94,82.05-40.48,113.82-24.09c0.88,0.45,1.65,0.92,2.48,1.44
								c38.48,22.06,50.81,79.87,36.46,146.79c0.01,0.11,0.03,0.22-0.02,0.29c-5.9,27-16.09,55.72-30.84,83.97
								c-0.72,1.47-1.49,3.01-2.33,4.49C1113.99,621.57,1094.85,647.68,1074.46,668.87z"/>
							<path d="M1074.43,671.43l-1.26-1.39c-21.52-23.74-52.8-45.81-88.05-62.14c-5.89-2.77-11.3-5.08-16.55-7.07
								c-27.36-11.04-55.18-17.9-80.5-19.83l-1.96-0.15l0.37-1.93c5.99-31.27,17.89-64.22,34.41-95.28
								c6.61-12.34,13.81-24.13,21.37-35.04c19.67-28.73,42.81-53.36,66.91-71.21c42.32-31.5,84.49-40.32,115.67-24.24
								c0.92,0.47,1.73,0.96,2.6,1.51c37.9,21.72,52.2,78.55,37.32,148.33l0.06,0.43l-0.19,0.34
								c-6.15,28.11-16.86,57.23-30.96,84.25c-0.71,1.46-1.5,3.02-2.35,4.54c-15.15,28.66-34.38,55.49-55.59,77.53L1074.43,671.43z
								 M890.29,577.66c25.14,2.16,52.6,9.03,79.55,19.91c5.3,2.01,10.79,4.36,16.75,7.16c34.98,16.2,66.12,38.02,87.89,61.57
								c20.48-21.56,39.04-47.6,53.75-75.43c0.84-1.5,1.6-3.01,2.3-4.44c13.99-26.79,24.58-55.62,30.67-83.44l-0.01-0.07l0.06-0.35
								c14.67-68.38,1.01-123.9-35.62-144.9c-0.85-0.52-1.57-0.97-2.41-1.4c-29.96-15.45-70.77-6.73-111.97,23.94
								c-23.8,17.62-46.66,41.96-66.12,70.38c-7.5,10.81-14.62,22.48-21.17,34.7C907.96,515.41,896.33,547.31,890.29,577.66z"/>
						</g>
						<g>
							<g>
								<path d="M1008.81,379.89c-22.22-28.5-1-63.25-0.78-63.6l2.98,1.86c-0.21,0.33-20.13,33.04,0.57,59.58L1008.81,379.89z"/>
							</g>
							<g>
								<path d="M978.08,405.29c-33.01-22.01-19.86-64.53-19.72-64.95l3.34,1.07c-0.13,0.4-12.47,40.43,18.32,60.97L978.08,405.29z"
									/>
							</g>
							<g>
								<path d="M942.67,451.01c-32.56-22.66-23.2-60.83-23.11-61.21l3.4,0.87c-0.09,0.36-8.82,36.22,21.71,57.47L942.67,451.01z"/>
							</g>
						</g>
						<g>
							<path d="M1162.96,503.23c0.05-0.06,0.03-0.18,0.02-0.29c14.35-66.92,2.02-124.73-36.46-146.79
								c-32.25,7.7-63.47,30.58-83.61,64.77c-9.93,16.89-15.95,34.7-18.52,52.19l57.69,11.07l-57.97,24.33
								c4.13,29.53,19.31,55.17,44.49,69.47c19.26,10.94,41.51,13.58,63.52,9.22C1146.87,558.94,1157.06,530.22,1162.96,503.23z"/>
							<path d="M1112.08,590.97c-15.9,0-30.96-3.86-44.34-11.47c-24.84-14.1-40.95-39.23-45.36-70.75l-0.19-1.34l53.86-22.6
								l-53.64-10.29l0.24-1.66c2.71-18.52,9.02-36.29,18.74-52.82c19.76-33.55,50.64-57.46,84.71-65.59l0.68-0.16l0.6,0.35
								c37.94,21.75,52.25,78.58,37.37,148.36l0.06,0.43l-0.19,0.34c-6.15,28.11-16.86,57.23-30.96,84.25l-0.39,0.75l-0.82,0.16
								C1125.56,590.28,1118.74,590.97,1112.08,590.97z M1026.04,509.6c4.52,29.79,19.9,53.5,43.43,66.85
								c18.02,10.24,39.26,13.42,61.48,9.18c13.77-26.53,24.23-55.09,30.26-82.65l-0.01-0.07l0.06-0.35
								c14.58-68,1.16-123.29-35.02-144.55c-32.89,8.07-62.68,31.28-81.83,63.79c-9.2,15.64-15.26,32.42-18.04,49.89l61.73,11.84
								L1026.04,509.6z"/>
						</g>
					</g>
					<g>
						<g>
							<path style="fill:#FFFFFF;" d="M1390.7,869.27c-0.29,0.23-0.52,0.51-0.83,0.61c-0.17,0.21-0.41,0.37-0.65,0.53
								c-0.76,0.66-1.59,1.27-2.41,1.88c-2.47-4.02-5.12-7.96-8.05-11.99c-1.51-2.17-3.1-4.39-4.82-6.6l-0.07-0.06
								c-14.79-19.37-34.04-38.64-56.88-56.13c-9.02-6.98-18.21-13.29-27.45-18.96c-1.34-0.79-2.54-1.6-3.81-2.33
								c-23.01-13.79-46.02-23.63-67.31-29.23c10.3-27.9,25.7-57,46.12-84.87c69.09-94.68,168.64-140.93,222.33-103.36
								c29.77,20.84,39.12,63.13,29.83,112.67c0,0-0.06,0.07,0.02,0.13c-1.42,7.49-3.39,15.23-5.75,23.02
								c-0.28,0.8-0.44,1.58-0.73,2.38c-0.31,1.12-0.62,2.24-0.92,3.36c-0.4,1.39-0.86,2.84-1.32,4.3
								c-0.67,2.31-1.42,4.56-2.29,6.83c-1.03,3.05-2.13,6.05-3.36,9.06c-1.21,3.14-2.49,6.22-3.85,9.24
								c-3.47,8.18-7.51,16.5-12.06,24.88c-1.46,2.72-2.98,5.52-4.57,8.25c-0.04,0.2-0.15,0.34-0.26,0.48
								c-2.17,3.76-4.39,7.6-6.81,11.39c-1.61,2.61-3.34,5.24-5.07,7.87c-1.3,1.94-2.61,3.88-3.91,5.82
								c-0.32,0.55-0.65,0.97-0.97,1.52c-1.84,2.77-3.87,5.62-5.91,8.35C1438.24,826.64,1414.78,850.62,1390.7,869.27z"/>
							<path d="M1386.39,874.78l-1.08-1.57c-2.39-3.89-5-7.77-7.97-11.88c-1.48-2.12-3.01-4.26-4.66-6.39l-0.21-0.23
								c-15.03-19.68-34.58-38.98-56.55-55.8c-8.74-6.76-17.93-13.1-27.3-18.87c-0.62-0.36-1.24-0.75-1.85-1.13
								c-0.65-0.4-1.28-0.8-1.93-1.18c-22.29-13.36-45.41-23.4-66.87-29.05l-1.87-0.49l0.67-1.81
								c10.73-29.06,26.75-58.56,46.35-85.3c69.54-95.28,170.35-141.84,224.75-103.76c29.03,20.33,40.21,61.65,30.72,113.46
								l0.04,0.03l-0.2,1.06c-1.37,7.23-3.32,15.04-5.79,23.2c-0.15,0.44-0.25,0.79-0.35,1.14c-0.12,0.44-0.25,0.88-0.41,1.32
								l-0.88,3.22c-0.39,1.33-0.81,2.69-1.24,4.06c-0.81,2.76-1.57,5.04-2.42,7.23c-1.07,3.17-2.18,6.17-3.37,9.1
								c-1.21,3.12-2.51,6.26-3.88,9.3c-3.44,8.12-7.52,16.53-12.12,25c-1.43,2.68-2.92,5.42-4.49,8.12
								c-0.14,0.4-0.36,0.68-0.49,0.84c-2.11,3.7-4.32,7.51-6.73,11.26c-1.59,2.6-3.34,5.25-5.08,7.89l-3.92,5.84
								c-0.12,0.21-0.31,0.49-0.49,0.77c-0.14,0.21-0.28,0.41-0.41,0.65c-1.86,2.79-3.92,5.71-6.02,8.53
								c-20,27.41-43.71,52.08-68.57,71.31l0,0l-1.07-1.39l0.91,1.53c-0.17,0.15-0.39,0.36-0.69,0.53
								c-0.24,0.22-0.49,0.38-0.68,0.51c-0.62,0.56-1.46,1.18-2.3,1.81L1386.39,874.78z M1375.14,852.43l0.18,0.2
								c1.74,2.23,3.34,4.47,4.87,6.67c2.6,3.58,4.93,7.02,7.09,10.44c0.27-0.21,0.53-0.43,0.78-0.65l0.8-0.75l0.48-0.12
								c0.04-0.12,0.16-0.23,0.29-0.33c24.6-19.04,48.07-43.46,67.89-70.62c2.08-2.78,4.11-5.64,5.87-8.29
								c0.12-0.21,0.3-0.48,0.48-0.75c0.14-0.21,0.29-0.42,0.42-0.66l3.98-5.92c1.71-2.6,3.43-5.21,5.03-7.81
								c2.38-3.72,4.57-7.49,6.79-11.34l0.27-0.48c1.57-2.72,3.08-5.49,4.53-8.2c4.54-8.37,8.58-16.69,11.99-24.73
								c1.35-3.02,2.63-6.1,3.83-9.19c1.18-2.89,2.27-5.82,3.33-8.99c0.83-2.17,1.56-4.36,2.27-6.76c0.52-1.67,0.94-3.01,1.32-4.29
								l0.91-3.32c0.17-0.49,0.27-0.86,0.38-1.22c0.12-0.43,0.24-0.86,0.4-1.29c2.37-7.83,4.26-15.4,5.61-22.41l-0.07-0.65l0.2-0.26
								c9.4-50.65-1.23-90.9-29.19-110.48c-52.83-36.97-151.48,9.21-219.9,102.96c-19,25.93-34.61,54.46-45.22,82.64
								c21.25,5.81,43.99,15.79,65.9,28.92c0.66,0.38,1.33,0.8,2,1.22c0.59,0.36,1.18,0.74,1.8,1.1
								c9.5,5.84,18.79,12.26,27.62,19.09C1340.2,813.09,1359.94,832.55,1375.14,852.43z"/>
						</g>
						<g>
							<g>
								<path d="M1525.78,674.12c-3.02,0-6.14-0.27-9.38-0.88l0.64-3.44c34.16,6.34,55.39-26.49,55.6-26.82l2.97,1.87
									C1575.41,645.17,1556.73,674.12,1525.78,674.12z"/>
							</g>
							<g>
								<path d="M1531.38,718.69c-7.75,0-16.03-1.75-24.43-6.34l1.68-3.08c33.2,18.12,64.72-11.28,65.03-11.58l2.42,2.54
									C1575.82,700.47,1556.35,718.69,1531.38,718.69z"/>
							</g>
							<g>
								<path d="M1507.84,771.71c-8.36,0-17.53-1.82-27.05-6.78l1.62-3.11c33.74,17.57,63.04-6.69,63.33-6.95l2.27,2.68
									C1547.78,757.74,1530.97,771.71,1507.84,771.71z"/>
							</g>
						</g>
						<g>
							<path d="M1503.63,712.04c0.06-0.06,0.06-0.18,0.05-0.29c23.02-65.89,17.89-125.83-18.23-152.82
								c-33.6,3.84-68.1,23.16-92.81,55.26c-12.2,15.86-20.55,33.13-25.36,50.49l54.06,19.14l-58.84,16.6
								c0.43,30.36,12.52,58.13,36.18,75.65c18.09,13.41,40.27,18.8,63.08,17.07C1480.28,766.39,1494.24,738.6,1503.63,712.04z"/>
							<path d="M1453.5,795.22c-20.94,0-40.11-6.06-55.86-17.74c-23.33-17.28-36.44-44.64-36.89-77.03l-0.02-1.35l54.82-15.47
								l-50.4-17.85l0.44-1.57c5.1-18.38,13.73-35.57,25.66-51.09c24.24-31.49,58.5-51.88,94-55.94l0.69-0.08l0.55,0.42
								c35.62,26.62,42.87,85.81,18.94,154.52v0.43l-0.21,0.29c-9.79,27.65-24.33,55.79-42.03,81.38l-0.48,0.69l-0.83,0.07
								C1459.07,795.11,1456.27,795.22,1453.5,795.22z M1364.29,701.75c0.78,30.68,13.33,56.54,35.44,72.92
								c16.93,12.56,38.06,18.33,61.07,16.79c17.32-25.16,31.54-52.77,41.14-79.89l0.09-0.4c23.4-66.98,16.85-124.51-17.07-150.42
								c-34.31,4.14-67.42,23.98-90.92,54.51c-11.31,14.71-19.59,30.96-24.62,48.32l57.71,20.44L1364.29,701.75z"/>
						</g>
					</g>
				</g>
			</g>
		</g>
		<g>
			<g>
				<path style="fill:#FFFFFF;" d="M1896.75,262.03c-0.02,20.32-3.87,39.79-10.99,57.62c-16.98,43.17-52.57,76.98-96.88,91.66
					c-15.66,5.26-32.41,8.03-49.82,8.01c-17.41-0.02-34.15-2.83-49.8-8.13c-48.81-16.26-86.92-55.8-101.24-105.44
					c-4.11-13.96-6.27-28.82-6.25-44.11c0.03-24.14,5.46-47.01,15.25-67.44c18.13-38.2,51.23-67.88,91.71-81.54
					c15.9-5.44,32.95-8.33,50.73-8.31c17.78,0.02,34.82,2.96,50.7,8.44c43.96,14.98,79.11,48.81,95.86,91.91
					C1892.98,222.48,1896.78,241.83,1896.75,262.03z"/>
				<path d="M1739.26,421.08c-0.07,0-0.13,0-0.2,0c-17.36-0.02-34.3-2.79-50.35-8.23c-49.61-16.52-87.87-56.38-102.36-106.61
					c-4.22-14.31-6.34-29.32-6.32-44.6c0.03-23.96,5.22-46.9,15.42-68.19c18.37-38.7,52.17-68.75,92.73-82.45
					c16.29-5.57,33.48-8.4,51.07-8.4c0.07,0,0.15,0,0.22,0c17.67,0.02,34.92,2.89,51.27,8.53c44.53,15.17,79.86,49.05,96.92,92.93
					c7.22,18.46,10.87,37.96,10.85,57.98l0,0c-0.03,20.26-3.77,39.87-11.12,58.27c-17.3,44-53.01,77.78-97.95,92.68
					C1773.44,418.35,1756.56,421.08,1739.26,421.08z M1739.24,106.1c-17.21,0-34.01,2.76-49.94,8.21
					c-39.68,13.39-72.72,42.78-90.69,80.64c-9.98,20.82-15.05,43.26-15.08,66.69c-0.02,14.94,2.06,29.61,6.18,43.61
					c14.17,49.14,51.6,88.12,100.11,104.27c15.69,5.32,32.26,8.02,49.24,8.04c0.06,0,0.13,0,0.19,0c16.92,0,33.43-2.67,49.07-7.91
					c43.96-14.57,78.88-47.61,95.8-90.64c7.19-18,10.84-37.17,10.87-56.98c0.02-19.57-3.55-38.65-10.6-56.7
					c-16.68-42.92-51.23-76.05-94.79-90.88c-15.99-5.52-32.86-8.32-50.14-8.34C1739.39,106.1,1739.32,106.1,1739.24,106.1z"/>
			</g>
			<g>
				<g>
					<polygon points="1772.65,319.16 1706.29,319.42 1672.9,262.08 1705.86,204.48 1772.21,204.23 1805.61,261.57 					"/>
					<path d="M1705.29,321.18l-34.42-59.09l33.96-59.35l68.38-0.26l34.42,59.09l-33.96,59.35L1705.29,321.18z M1674.92,262.07
						l32.38,55.59l64.33-0.25l31.95-55.84l-32.38-55.59l-64.33,0.25L1674.92,262.07z"/>
				</g>
				<g>
					<path d="M1896.75,262.03c-0.02,20.32-3.87,39.79-10.99,57.62l-5.22-0.01l-33.42-57.37l32.95-57.59l5.94,0.01
						C1892.98,222.48,1896.78,241.83,1896.75,262.03z"/>
					<path d="M1886.95,321.4l-7.41-0.01l-0.51-0.87l-33.93-58.24l33.96-59.35l8.16,0.01l0.43,1.12
						c7.22,18.46,10.87,37.97,10.85,57.98l0,0c-0.03,20.26-3.77,39.87-11.12,58.27L1886.95,321.4z M1881.56,317.89l3.01,0.01
						c6.9-17.67,10.4-36.46,10.43-55.87c0.02-19.17-3.4-37.86-10.17-55.59l-3.72-0.01l-31.95,55.83L1881.56,317.89z"/>
				</g>
				<g>
					<path d="M1790.17,112.78l-17.27,30.19l-66.37,0.28l-17.8-30.6c15.9-5.44,32.95-8.33,50.73-8.31
						C1757.24,104.37,1774.28,107.3,1790.17,112.78z"/>
					<path d="M1705.53,145.01l-19.38-33.32l2.02-0.69c16.3-5.58,33.48-8.4,51.08-8.4c0.07,0,0.15,0,0.22,0
						c17.67,0.02,34.92,2.89,51.27,8.53l2,0.69l-18.82,32.9L1705.53,145.01z M1691.33,113.63l16.2,27.86l64.34-0.27l15.71-27.46
						c-15.39-5.06-31.56-7.64-48.13-7.66c-0.07,0-0.14,0-0.21,0C1722.77,106.1,1706.66,108.64,1691.33,113.63z"/>
				</g>
				<g>
					<path d="M1788.88,411.32c-15.66,5.26-32.41,8.03-49.82,8.01c-17.41-0.02-34.15-2.83-49.8-8.13l16.36-28.61l66.37-0.28
						L1788.88,411.32z"/>
					<path d="M1739.26,421.08c-0.07,0-0.13,0-0.2,0c-17.36-0.02-34.3-2.79-50.35-8.23l-2.02-0.68l17.91-31.34l68.4-0.29l18.48,31.75
						l-2.04,0.68C1773.44,418.35,1756.56,421.08,1739.26,421.08z M1691.86,410.2c15.09,4.87,30.95,7.35,47.21,7.37
						c0.06,0,0.13,0,0.19,0c16.18,0,31.99-2.43,47.02-7.24l-15.29-26.28l-64.34,0.27L1691.86,410.2z"/>
				</g>
				<g>
					<path d="M1628.38,248.1l-32.95,57.59l-7.4,0.05c-4.11-13.96-6.27-28.82-6.25-44.11c0.03-24.14,5.46-47.01,15.25-67.44
						L1628.38,248.1z"/>
					<path d="M1586.72,307.51l-0.37-1.27c-4.22-14.33-6.35-29.33-6.33-44.61c0.03-23.96,5.22-46.9,15.42-68.19l1.43-2.99
						l33.53,57.65l-33.96,59.35L1586.72,307.51z M1597.2,197.97c-9.04,19.96-13.64,41.36-13.67,63.66
						c-0.02,14.49,1.94,28.73,5.81,42.34l5.06-0.04l31.95-55.84L1597.2,197.97z"/>
				</g>
			</g>
		</g>
	</g>
</g>
</svg>
