<?xml version="1.0" encoding="iso-8859-1"?>
<!-- Generator: Adobe Illustrator 30.0.0, SVG Export Plug-In . SVG Version: 9.03 Build 0)  -->
<svg version="1.1" id="Capa_1" xmlns="http://www.w3.org/2000/svg" xmlns:xlink="http://www.w3.org/1999/xlink" x="0px" y="0px"
	 viewBox="0 0 2000 2000" style="enable-background:new 0 0 2000 2000;" xml:space="preserve">
<g>
	<g>
		<g id="XMLID_00000099648408762264123920000007028492881606436772_">
			<rect x="100.32" y="1496.25" style="fill:#00C793;" width="1798.42" height="403.75"/>
		</g>
		<g style="opacity:0.27;">
			<g style="opacity:0.27;">
				<rect x="100.32" y="1496.25" style="fill:#FFFFFF;" width="196.02" height="403.75"/>
			</g>
			<g style="opacity:0.27;">
				<rect x="806.74" y="1496.25" style="fill:#FFFFFF;" width="209.11" height="403.75"/>
			</g>
			<g style="opacity:0.27;">
				<rect x="1152.58" y="1496.25" style="fill:#FFFFFF;" width="206.49" height="403.75"/>
			</g>
			<g style="opacity:0.27;">
				<rect x="1495.8" y="1496.25" style="fill:#FFFFFF;" width="169.81" height="403.75"/>
			</g>
			<g style="opacity:0.27;">
				<rect x="1802.35" y="1496.25" style="fill:#FFFFFF;" width="96.39" height="403.75"/>
			</g>
			<g style="opacity:0.27;">
				<rect x="464.38" y="1496.25" style="fill:#FFFFFF;" width="205.62" height="403.75"/>
			</g>
		</g>
		<g>
			<g>
				<rect x="100.32" y="1537.06" style="fill:#FFFFFF;" width="1798.42" height="17.58"/>
			</g>
		</g>
	</g>
	<g>
		<g>
			
				<ellipse transform="matrix(0.7071 -0.7071 0.7071 0.7071 219.3012 1264.3687)" style="fill:#FFBC00;" cx="1635.88" cy="367.46" rx="172.12" ry="172.12"/>
			<path d="M1636.12,541.42c-16.78,0-33.65-2.45-50.17-7.41c-91.84-27.54-144.15-124.66-116.61-216.5
				c13.34-44.49,43.2-81.12,84.09-103.15c40.89-22.03,87.91-26.81,132.4-13.47c44.49,13.34,81.12,43.2,103.15,84.1
				c22.03,40.89,26.81,87.91,13.47,132.4c-13.34,44.49-43.2,81.12-84.09,103.15C1692.65,534.39,1664.52,541.42,1636.12,541.42z
				 M1635.67,197.01c-27.83,0-55.38,6.89-80.57,20.46c-40.06,21.58-69.32,57.47-82.4,101.06
				c-26.98,89.98,24.28,185.14,114.26,212.12c43.59,13.07,89.66,8.38,129.73-13.2c40.06-21.58,69.32-57.47,82.4-101.06l0,0
				c13.07-43.59,8.38-89.66-13.2-129.72s-57.47-69.32-101.06-82.4C1668.63,199.41,1652.1,197.01,1635.67,197.01z"/>
		</g>
		<g>
			<g>
				<path d="M1705.73,187.73c-2.03,0-4.03-0.28-5.98-0.87c-9.92-2.97-16.97-13.02-19.86-28.29c-2.81-14.86-1.36-33.03,4.07-51.15
					l3.37,1.01c-5.27,17.59-6.69,35.17-3.98,49.49c2.63,13.91,8.81,22.99,17.41,25.57c18.15,5.45,41.74-19.35,52.51-55.29l3.37,1.01
					C1746.41,163.33,1724.61,187.73,1705.73,187.73z"/>
			</g>
			<g>
				<path d="M1604.57,632.55l-3.37-1.01c5.27-17.59,6.69-35.17,3.98-49.49c-2.63-13.91-8.81-22.99-17.41-25.57
					c-18.16-5.45-41.74,19.35-52.52,55.29l-3.37-1.01c11.33-37.79,36.86-63.64,56.89-57.65c9.92,2.97,16.97,13.02,19.86,28.29
					C1611.45,596.26,1610,614.43,1604.57,632.55z"/>
			</g>
			<g>
				<path d="M1411.01,329.79c-11.12,0-23.22-1.85-35.29-5.47l1.01-3.37c17.59,5.27,35.17,6.68,49.49,3.98
					c13.91-2.63,22.99-8.82,25.57-17.41s-1.6-18.76-11.78-28.61c-10.47-10.14-25.92-18.63-43.51-23.91l1.01-3.37
					c18.12,5.43,34.09,14.22,44.95,24.75c11.16,10.81,15.67,22.22,12.69,32.14c-2.97,9.92-13.01,16.97-28.28,19.86
					C1421.91,329.33,1416.58,329.79,1411.01,329.79z"/>
			</g>
			<g>
				<path d="M1877.88,474.89c-18.12-5.43-34.09-14.22-44.95-24.75c-11.16-10.81-15.67-22.23-12.69-32.14
					c2.97-9.92,13.01-16.97,28.29-19.85c14.85-2.81,33.03-1.36,51.15,4.07l-1.01,3.37c-17.59-5.27-35.16-6.68-49.49-3.98
					c-13.91,2.63-22.99,8.81-25.57,17.41c-2.58,8.6,1.6,18.76,11.78,28.61c10.47,10.14,25.92,18.63,43.51,23.91L1877.88,474.89z"/>
			</g>
			<g>
				<path d="M1542.92,197.53c-18.03,0-41.39-18.79-56.88-47.53l3.1-1.67c17.79,33.03,45.87,52.59,62.57,43.58
					c16.71-9,15.83-43.2-1.96-76.23l3.1-1.67c18.71,34.74,18.95,71.07,0.53,80.99C1550.2,196.71,1546.67,197.53,1542.92,197.53z"/>
			</g>
			<g>
				<path d="M1734.42,613.44c-8.97-16.66-14.04-34.16-14.28-49.28c-0.25-15.54,4.63-26.8,13.75-31.7
					c9.13-4.92,21.21-2.79,34.04,5.96c12.5,8.52,24.32,22.39,33.29,39.05l-3.1,1.67c-8.71-16.17-20.14-29.6-32.18-37.81
					c-11.7-7.98-22.49-10.03-30.39-5.77c-7.9,4.26-12.13,14.4-11.9,28.55c0.23,14.57,5.16,31.5,13.87,47.67L1734.42,613.44z"/>
			</g>
			<g>
				<path d="M1421.45,521.33l-1.67-3.1c16.17-8.71,29.6-20.14,37.81-32.18c7.98-11.7,10.03-22.49,5.77-30.39
					c-9-16.71-43.2-15.83-76.22,1.96l-1.67-3.1c34.73-18.71,71.07-18.95,80.99-0.53c4.91,9.11,2.79,21.2-5.96,34.04
					C1451.97,500.53,1438.1,512.35,1421.45,521.33z"/>
			</g>
			<g>
				<path d="M1832.73,286.9c-14.45,0-25.82-4.54-30.73-13.65c-4.91-9.11-2.79-21.2,5.96-34.04c8.52-12.5,22.39-24.32,39.04-33.29
					l1.67,3.1c-16.17,8.71-29.6,20.14-37.81,32.18c-7.98,11.7-10.03,22.49-5.77,30.39c9,16.72,43.2,15.83,76.22-1.96l1.67,3.1
					C1865.45,282.16,1847.49,286.9,1832.73,286.9z"/>
			</g>
			<g>
				<path d="M1622.75,175.05c-9.61,0-19.14-6.57-27.04-18.72c-8.25-12.68-13.82-30.03-15.68-48.86l3.5-0.35
					c1.81,18.28,7.17,35.07,15.12,47.29c7.72,11.87,16.87,17.91,25.83,17.04c8.93-0.88,16.74-8.61,21.99-21.76
					c5.4-13.54,7.38-31.05,5.57-49.33l3.5-0.35c1.86,18.83-0.2,36.93-5.81,50.98c-5.76,14.43-14.61,22.94-24.91,23.96
					C1624.14,175.01,1623.45,175.05,1622.75,175.05z"/>
			</g>
			<g>
				<path d="M1630.65,630.83c-3.88-39.27,9.9-72.88,30.72-74.94c10.24-1.02,20.64,5.59,29.11,18.62
					c8.25,12.68,13.82,30.03,15.68,48.86l-3.5,0.35c-1.8-18.28-7.17-35.07-15.12-47.29c-7.72-11.87-16.88-17.94-25.83-17.04
					c-18.89,1.87-31.25,33.76-27.56,71.1L1630.65,630.83z"/>
			</g>
			<g>
				<path d="M1377.34,425.23l-0.34-3.5c37.33-3.69,66.19-22.06,64.32-40.95c-0.88-8.93-8.61-16.74-21.76-21.99
					c-13.54-5.4-31.05-7.38-49.33-5.57l-0.34-3.5c18.82-1.86,36.93,0.2,50.98,5.81c14.43,5.76,22.94,14.6,23.96,24.91
					C1446.87,401.26,1416.6,421.35,1377.34,425.23z"/>
			</g>
			<g>
				<path d="M1885.67,374.34c-13.9,0-26.93-2.21-37.6-6.47c-14.43-5.76-22.94-14.6-23.96-24.91c-2.05-20.82,28.22-40.91,67.48-44.79
					l0.34,3.5c-37.33,3.69-66.19,22.06-64.32,40.95c0.88,8.93,8.61,16.74,21.76,21.99c13.54,5.4,31.05,7.38,49.33,5.58l0.34,3.5
					C1894.54,374.12,1890.06,374.34,1885.67,374.34z"/>
			</g>
			<g>
				<path d="M1476.93,241.4c-3.98,0-8.33-0.55-12.95-1.64c-14.71-3.5-30.71-12.22-45.04-24.57l2.29-2.67
					c13.91,11.99,29.38,20.45,43.56,23.82c13.78,3.26,24.59,1.33,30.45-5.47c5.86-6.8,6.19-17.78,0.92-30.92
					c-5.42-13.53-16.07-27.58-29.98-39.57l2.29-2.67c14.33,12.35,25.33,26.89,30.95,40.93c5.78,14.42,5.24,26.68-1.52,34.53
					C1493.21,238.61,1485.97,241.4,1476.93,241.4z"/>
			</g>
			<g>
				<path d="M1816.5,559.3c-14.33-12.35-25.32-26.89-30.95-40.93c-5.78-14.42-5.24-26.68,1.52-34.53
					c13.66-15.84,49.09-7.77,78.97,17.98l-2.29,2.67c-28.42-24.49-61.62-32.73-74.01-18.35c-5.86,6.8-6.19,17.78-0.92,30.92
					c5.42,13.53,16.07,27.58,29.98,39.57L1816.5,559.3z"/>
			</g>
			<g>
				<path d="M1491.27,585.09l-2.67-2.3c24.5-28.42,32.73-61.62,18.35-74.01c-14.38-12.39-46,0.64-70.5,29.07l-2.67-2.3
					c25.76-29.88,59.6-43.09,75.45-29.43C1525.09,519.77,1517.03,555.2,1491.27,585.09z"/>
			</g>
			<g>
				<path d="M1774.33,222.91c-6.47,0-12.01-1.84-16.25-5.49c-7.85-6.76-10.19-18.81-6.59-33.93c3.5-14.72,12.22-30.71,24.57-45.05
					l2.67,2.3c-11.99,13.91-20.45,29.38-23.82,43.56c-3.27,13.78-1.33,24.59,5.47,30.45c6.8,5.86,17.79,6.19,30.92,0.92
					c13.53-5.42,27.58-16.07,39.57-29.99l2.67,2.3c-12.35,14.33-26.89,25.32-40.93,30.95
					C1785.99,221.59,1779.82,222.91,1774.33,222.91z"/>
			</g>
		</g>
	</g>
	<g>
		<g>
			<g>
				<rect x="1000.68" y="1791.93" width="273.65" height="3.52"/>
			</g>
			<g>
				<rect x="889.1" y="1842.41" width="324.13" height="3.52"/>
			</g>
		</g>
		<g>
			<g>
				<rect x="142.52" y="1645.8" width="178.01" height="3.52"/>
			</g>
			<g>
				<rect x="193" y="1693.62" width="387.9" height="3.52"/>
			</g>
		</g>
	</g>
	<g>
		<g>
			<g>
				<g>
					<g>
						<path d="M1446.93,1795.57c-30.63-87.37-64.91-174.27-100.91-259.57c-38.28-90.71-86.87-169.64-145.57-248.47
							c-33.39-44.84-109.69-1.08-75.87,44.35c55.17,74.1,102.98,148.32,139.26,233.52c35.4,83.13,68.47,168.26,98.36,253.52
							C1380.79,1871.94,1465.71,1849.13,1446.93,1795.57z"/>
					</g>
					<g>
						<g>
							<path style="fill:#712CE5;" d="M1393,1735.94c0,0-36.81-56.38-31.67-89.03c3.05-19.31,29.45-21.77,38.21-4.05l27.48,55.6
								c-4.77,8.66-11.48,18.85-21.94,28.23C1400.96,1730.37,1396.88,1733.42,1393,1735.94z"/>
							<path d="M1392.49,1738.37l-0.96-1.47c-1.52-2.32-37.13-57.33-31.93-90.27c1.46-9.22,8.11-15.83,17.38-17.24
								c8.27-1.25,18.95,2.17,24.14,12.68l27.89,56.42l-0.45,0.81c-4.06,7.37-10.8,18.37-22.31,28.69
								c-3.85,3.45-7.99,6.63-12.3,9.42L1392.49,1738.37z M1380.32,1632.66c-0.96,0-1.91,0.07-2.82,0.21
								c-6.03,0.92-12.99,5.16-14.43,14.31c-4.53,28.7,24.75,77.19,30.45,86.3c3.62-2.45,7.11-5.18,10.38-8.11
								c10.71-9.59,17.15-19.84,21.13-26.96l-27.08-54.77C1394.13,1635.87,1386.78,1632.66,1380.32,1632.66z"/>
						</g>
						<g>
							<path style="fill:#FFFFFF;" d="M1402.54,1874.58c7.3,1.28,14.98,1.1,21.61,0.56c29.37-2.41,251.36-92.74,253.29-115.66
								c5.03-59.62-117.93-36.55-130.45-34.82c0,0-67.24,9.29-121.42-27.97c0,0-21.05,58.99-92.52,45.87
								c-2.87-0.54,19.96,86.25,48.63,121.1C1386.92,1870.01,1394.5,1873.18,1402.54,1874.58z"/>
							<path d="M1414.8,1877.31c-4.6,0-8.76-0.33-12.56-1l0,0c-9.62-1.68-16.99-5.56-21.9-11.53
								c-27.4-33.3-51.67-118.4-48.93-123.03l0.63-1.06l1.36,0.15c69.15,12.7,90.33-44.16,90.53-44.74l0.77-2.15l1.88,1.29
								c53.13,36.53,119.52,27.77,120.18,27.67c0.75-0.1,1.88-0.28,3.36-0.51c61.53-9.67,101.7-6.22,119.41,10.26
								c7.35,6.85,10.61,15.92,9.68,26.96c-1.23,14.54-74.09,48.21-117.41,66.99c-61.2,26.53-122.88,49.08-137.49,50.28
								C1420.93,1877.17,1417.77,1877.31,1414.8,1877.31z M1402.84,1872.85c5.96,1.04,12.88,1.22,21.17,0.54
								c14.05-1.15,76.51-24.05,136.38-50c69.3-30.03,114.56-55.18,115.31-64.06c0.84-9.91-2.05-18.02-8.57-24.1
								c-11.6-10.8-41.23-21.19-116.47-9.36c-1.51,0.24-2.66,0.42-3.42,0.52l-0.01-0.08c-6.7,0.99-68.88,7.64-120.86-26.97
								c-4.63,10.39-28.77,55.84-91.72,45.28c1.49,12.54,22.71,86.69,48.4,117.92C1387.41,1867.85,1394.07,1871.32,1402.84,1872.85
								L1402.84,1872.85z"/>
						</g>
						<g>
							<path style="fill:#712CE5;" d="M1386.34,1800.54c-11.2-25.03-31.19-38.08-52.19-49.44c5.42,24,27.27,90.91,52.28,116.03
								C1386.84,1866.21,1401.61,1834.66,1386.34,1800.54z"/>
							<path d="M1387.03,1870.1l-1.83-1.73c-26.01-26.12-47.77-94.82-52.75-116.88l-0.85-3.78l3.4,1.84
								c19.45,10.53,41.19,23.97,52.95,50.27c14.9,33.29,1.68,64.5,0.13,67.96L1387.03,1870.1z M1336.79,1754.54
								c6.12,24.38,25.74,83.98,49.06,109.42c3.25-8.42,11.38-34.79-1.11-62.71C1374.08,1777.43,1355.47,1764.87,1336.79,1754.54z"
								/>
						</g>
						<g>
							<path style="fill:#712CE5;" d="M1444.05,1761.12c16.24,3.9,32.7,4.02,48.61,2.84c20.94-1.55,41.89-5.93,61.62-12.04
								c19.56-6.06,38.74-14.6,54.89-27.53c1.37-1.09,2.68-2.26,4-3.4c-17.4-0.95-39.04-0.05-66.17,3.66
								c0,0-67.24,9.29-121.42-27.97c0,0-7.99,22.32-30.77,36.45C1409.07,1747.62,1426.03,1756.8,1444.05,1761.12z"/>
							<path d="M1476.2,1766.37c-12.08,0-22.67-1.16-32.56-3.53l0,0c-19.15-4.59-36-14.17-50.08-28.46l-1.54-1.57l1.87-1.16
								c22-13.65,29.96-35.33,30.04-35.54l0.77-2.15l1.88,1.29c52.97,36.42,119.52,27.77,120.18,27.67
								c25.34-3.47,47.72-4.71,66.5-3.68l4.33,0.24l-3.95,3.43c-1.11,0.97-2.23,1.94-3.38,2.86c-14.61,11.69-32.75,20.8-55.47,27.83
								c-21.18,6.56-42.04,10.63-62.01,12.11C1486.93,1766.15,1481.42,1766.37,1476.2,1766.37z M1397.6,1733.44
								c13.29,12.97,29.05,21.7,46.85,25.97l0,0c13.81,3.31,29.07,4.2,48.07,2.8c19.71-1.46,40.31-5.48,61.23-11.96
								c22.28-6.9,40.05-15.81,54.31-27.22c0.2-0.16,0.39-0.32,0.59-0.47c-17.65-0.62-38.26,0.68-61.42,3.85
								c-0.66,0.09-67.03,8.76-120.84-27.03C1423.88,1705.14,1415.53,1721.58,1397.6,1733.44z"/>
						</g>
						<g>
							<path d="M1432.53,1874.71c0.54,0.81,1.08,1.62,1.67,2.38c6.78,8.86,15.61,13.28,19.71,9.85c3.42-2.87,2.46-10.31-1.92-17.79
								L1432.53,1874.71z"/>
							<path d="M1450.39,1889.86c-0.35,0-0.71-0.02-1.08-0.06c-5.13-0.57-11.46-5.03-16.52-11.64c-0.58-0.76-1.12-1.56-1.66-2.37
								l-1.34-2.01l2.25-0.77l20.77-5.94l0.69,1.18c5,8.55,5.62,16.59,1.53,20.03C1453.79,1889.32,1452.2,1889.86,1450.39,1889.86z
								 M1435.37,1875.72c0.07,0.1,0.15,0.2,0.22,0.3c4.43,5.79,9.97,9.83,14.11,10.28c1.29,0.14,2.33-0.09,3.07-0.71
								c2.45-2.05,1.71-8.1-1.65-14.38L1435.37,1875.72z"/>
						</g>
						<g>
							<path d="M1424.02,1877.61c3.03,7.75,2.84,14.78-0.84,17.05c-4.54,2.8-12.66-2.87-18.18-12.58c-1.14-2.01-2.05-3.98-2.76-6
								C1402.25,1876.08,1409.2,1877.92,1424.02,1877.61z"/>
							<path d="M1420.53,1897.13c-0.72,0-1.47-0.1-2.24-0.3c-4.99-1.28-10.67-6.6-14.81-13.89c-1.19-2.09-2.13-4.14-2.89-6.28
								l-1.1-3.12l3.21,0.83c0.07,0.02,6.98,1.78,21.29,1.47l1.23-0.02l0.45,1.14c3.49,8.92,2.88,16.45-1.55,19.19
								C1423.06,1896.8,1421.84,1897.13,1420.53,1897.13z M1405.09,1878.41c0.43,0.94,0.91,1.86,1.45,2.8
								c3.63,6.39,8.59,11.19,12.63,12.22c1.24,0.32,2.29,0.23,3.1-0.27c2.63-1.62,2.82-7.31,0.55-13.77
								C1414.22,1879.5,1408.39,1878.9,1405.09,1878.41z"/>
						</g>
						<g>
							<path d="M1588.51,1815.44c0.37,0.9,0.73,1.8,1.18,2.74c4.85,10.07,12.63,16.26,17.35,13.81c4.67-2.43,4.56-12.62-0.28-22.69
								c-0.22-0.47-0.45-0.94-0.7-1.32L1588.51,1815.44z"/>
							<path d="M1604.76,1834.28c-0.9,0-1.83-0.16-2.8-0.48c-4.93-1.64-10.24-7.33-13.86-14.86c-0.47-0.96-0.84-1.9-1.22-2.82
								l-0.64-1.6l1.58-0.7l18.88-8.02l0.81,1.2c0.3,0.44,0.57,0.99,0.83,1.54c5.34,11.09,5.13,22.08-0.5,25
								C1606.91,1834.04,1605.87,1834.28,1604.76,1834.28z M1590.8,1816.38c0.15,0.34,0.31,0.69,0.47,1.04
								c3.18,6.6,7.81,11.72,11.8,13.05c1.24,0.41,2.31,0.4,3.16-0.04c3.29-1.71,3.68-10.41-0.97-20.19L1590.8,1816.38z"/>
						</g>
						<g>
							<path d="M1618.7,1802.13c0.14,0.43,0.36,0.9,0.56,1.3c4.83,10.08,12.6,16.29,17.33,13.84c4.73-2.45,4.59-12.61-0.24-22.69
								c-0.09-0.2-0.19-0.4-0.29-0.6L1618.7,1802.13z"/>
							<path d="M1634.31,1819.57c-0.9,0-1.84-0.16-2.81-0.49c-4.92-1.65-10.22-7.35-13.83-14.89c-0.23-0.47-0.48-1.03-0.64-1.53
								l-0.47-1.47l20.33-9.54l1.05,2.18c5.41,11.29,5.17,22.04-0.55,25C1636.45,1819.32,1635.42,1819.57,1634.31,1819.57z
								 M1620.99,1803c3.16,6.45,7.7,11.44,11.63,12.75c1.24,0.42,2.3,0.41,3.16-0.03c3.2-1.66,3.68-9.93-0.56-19.4L1620.99,1803z"
								/>
						</g>
						<g>
							<path d="M1648.31,1786.2c3.73,10.53,10.81,17.56,15.79,15.66c4.98-1.9,5.93-11.98,2.19-22.51c-0.5-1.4-1.05-2.79-1.7-4.05
								L1648.31,1786.2z"/>
							<path d="M1662.4,1803.93c-1.15,0-2.35-0.28-3.56-0.84c-4.73-2.19-9.4-8.43-12.18-16.3l-0.45-1.29l19.06-12.77l0.9,1.76
								c0.62,1.21,1.21,2.6,1.8,4.27c4.18,11.81,2.8,22.45-3.23,24.74C1663.99,1803.78,1663.21,1803.93,1662.4,1803.93z
								 M1650.45,1786.89c2.48,6.31,6.27,11.34,9.87,13.01c1.21,0.56,2.27,0.66,3.16,0.32c3.48-1.33,4.81-9.98,1.16-20.28
								c-0.26-0.74-0.52-1.41-0.78-2.04L1650.45,1786.89z"/>
						</g>
						<g>
							
								<rect x="1443.44" y="1748.58" transform="matrix(0.4464 -0.8948 0.8948 0.4464 -749.7216 2288.8198)" width="63.09" height="3.51"/>
						</g>
						<g>
							
								<rect x="1485.7" y="1751.35" transform="matrix(0.4244 -0.9055 0.9055 0.4244 -714.7504 2381.8604)" width="60.71" height="3.52"/>
						</g>
						<g>
							
								<rect x="1523.5" y="1748.81" transform="matrix(0.3828 -0.9238 0.9238 0.3828 -658.126 2516.0396)" width="60.95" height="3.52"/>
						</g>
					</g>
				</g>
				<g>
					<g>
						<path d="M778.09,1310.99c3.5,56.58,5.05,113.17,6.15,169.84c0.52,26.77,1.94,55.89-5.13,81.97
							c-8.2,30.24-24.15,34.99-53.33,29.28c-53.3-10.43-101.98-53.7-140.36-89.65c-42.81-40.1-80.61-84.59-116.72-130.71
							c-34.68-44.28-107.12,5.53-72.12,50.23c49.63,63.38,102.93,126.1,165.76,176.89c54.78,44.29,124.53,90.3,198.45,82.33
							c72.58-7.83,103.52-69.92,109.29-136.33c6.86-79.04,0.57-161-4.32-240.03C862.27,1248.28,774.6,1254.56,778.09,1310.99z"/>
					</g>
					<g>
						<g>
							<path style="fill:#712CE5;" d="M463.81,1454.76c0,0,44.53,50.5,44.13,83.55c-0.24,19.54-26.02,25.78-37.23,9.51l-35.19-51.07
								c3.48-9.25,8.65-20.3,17.66-31.09C456.73,1461.42,460.34,1457.82,463.81,1454.76z"/>
							<path d="M488.34,1558.86c-6.75,0-14.13-2.87-19.07-10.05l-35.71-51.83l0.32-0.86c2.96-7.88,8.05-19.73,17.96-31.6
								c3.31-3.97,6.95-7.7,10.81-11.09l1.32-1.16l1.16,1.32c1.84,2.08,44.98,51.39,44.57,84.74c-0.11,9.33-5.75,16.83-14.71,19.56
								C492.93,1558.52,490.67,1558.86,488.34,1558.86z M437.5,1496.51l34.66,50.31c5.64,8.19,15.02,9.78,21.8,7.71
								c5.84-1.78,12.11-6.97,12.22-16.24c0.36-29.05-35.58-72.83-42.54-81.03c-3.24,2.95-6.3,6.15-9.11,9.52
								C445.32,1477.82,440.41,1488.88,437.5,1496.51z"/>
						</g>
						<g>
							<path style="fill:#FFFFFF;" d="M434.44,1318.93c-7.41-0.21-14.98,1.06-21.47,2.55c-28.72,6.6-235.42,127.9-234.04,150.86
								c3.59,59.73,121.96,19.22,134.1,15.71c0,0,65.21-18.85,124.18,10.23c0,0,12.35-61.41,84.96-58.69
								c2.91,0.12-32.15-82.48-65.53-112.85C450.56,1321.2,442.6,1319.17,434.44,1318.93z"/>
							<path d="M227.18,1506.56c-15.85,0-28.06-2.94-36.55-8.82c-8.26-5.72-12.79-14.23-13.45-25.29
								c-0.88-14.57,66.39-58.36,106.56-83.17c56.75-35.05,114.55-66.23,128.84-69.51c8.39-1.93,15.57-2.78,21.91-2.6
								c9.77,0.28,17.61,3.06,23.33,8.26c31.9,29.02,68.15,109.75,66.1,114.72l-0.47,1.14l-1.36,0.05
								c-70.34-2.63-83.04,56.68-83.17,57.28l-0.45,2.24l-2.05-1.01c-57.51-28.35-120.27-10.87-122.91-10.11
								c-0.72,0.21-1.81,0.55-3.24,0.99C276.2,1501.28,248.43,1506.56,227.18,1506.56z M432.78,1320.67
								c-5.65,0-12.02,0.83-19.41,2.53c-13.74,3.16-72.25,34.79-127.78,69.07c-64.26,39.68-105.44,71.07-104.9,79.97
								c0.6,9.93,4.62,17.54,11.95,22.61c13.03,9.02,43.84,15.04,116.6-7.48c1.45-0.45,2.57-0.79,3.31-1.01
								c2.67-0.77,65.32-18.22,123.5,9.4c3.09-10.94,20.5-59.39,84.26-57.99c-3.28-12.2-34.94-82.53-64.84-109.74
								c-5.08-4.62-12.17-7.09-21.07-7.35l0,0C433.86,1320.67,433.32,1320.67,432.78,1320.67z"/>
						</g>
						<g>
							<path style="fill:#712CE5;" d="M461.11,1389.88c14.68,23.17,36.34,33.2,58.75,41.43c-8.82-22.98-40.06-86.05-68.41-107.31
								C451.18,1324.96,441.1,1358.31,461.11,1389.88z"/>
							<path d="M522.89,1434.29l-3.63-1.33c-20.76-7.62-44.21-17.8-59.63-42.13l0,0c-19.55-30.85-10.93-63.61-9.89-67.24l0.71-2.45
								l2.06,1.46c29.49,22.11,60.9,86.96,69,108.09L522.89,1434.29z M462.59,1388.94c13.97,22.05,34.19,31.79,54.16,39.34
								c-9.56-23.25-37.55-79.41-64.27-101.24C450.47,1335.82,446.2,1363.07,462.59,1388.94L462.59,1388.94z"/>
						</g>
						<g>
							<path style="fill:#712CE5;" d="M409.67,1437.18c-16.63-1.52-32.93,0.72-48.51,4.17c-20.5,4.54-40.61,11.89-59.25,20.77
								c-18.48,8.81-36.24,20.02-50.36,35.13c-1.2,1.28-2.32,2.62-3.47,3.95c17.35-1.56,38.65-5.56,64.95-13.14
								c0,0,65.21-18.86,124.18,10.23c0,0,4.7-23.24,25.21-40.49C446.22,1445.52,428.13,1438.87,409.67,1437.18z"/>
							<path d="M243.9,1503.33l3.51-4.06c0.94-1.09,1.87-2.17,2.85-3.22c12.78-13.67,29.43-25.29,50.89-35.52
								c20.02-9.54,40.08-16.57,59.63-20.9c18.95-4.2,34.54-5.53,49.05-4.21c19.61,1.79,37.66,8.85,53.65,20.97l1.75,1.33
								l-1.68,1.42c-19.81,16.66-24.57,39.27-24.62,39.49l-0.45,2.24l-2.05-1.01c-57.69-28.45-122.26-10.3-122.91-10.11
								c-24.57,7.08-46.54,11.52-65.28,13.2L243.9,1503.33z M398.86,1438.45c-11.18,0-23.3,1.51-37.32,4.62
								c-19.28,4.27-39.09,11.21-58.87,20.63c-21.06,10.03-37.36,21.4-49.84,34.74c-0.17,0.18-0.34,0.37-0.51,0.56
								c17.54-1.93,37.77-6.17,60.22-12.63c0.65-0.19,65.08-18.3,123.48,9.39c1.66-6.08,7.56-23.55,23.59-37.86
								c-15.02-10.93-31.86-17.3-50.1-18.97C406.04,1438.61,402.5,1438.45,398.86,1438.45z"/>
						</g>
						<g>
							<path d="M404.75,1323.11c-0.65-0.72-1.3-1.45-1.99-2.12c-7.98-7.8-17.36-10.9-20.92-6.91c-2.97,3.33-0.95,10.56,4.46,17.33
								L404.75,1323.11z"/>
							<path d="M385.77,1333.57l-0.85-1.07c-6.18-7.74-7.95-15.62-4.39-19.6c1.28-1.44,3.16-2.24,5.43-2.32
								c5.18-0.13,12.07,3.33,18.03,9.15c0.72,0.7,1.4,1.45,2.07,2.2l1.61,1.79L385.77,1333.57z M386.35,1314.1
								c-0.09,0-0.18,0-0.27,0c-1.3,0.05-2.29,0.43-2.93,1.15c-2.12,2.38-0.53,8.26,3.69,13.99l14.95-6.72
								c-0.09-0.09-0.18-0.18-0.27-0.27C396.43,1317.27,390.51,1314.1,386.35,1314.1z"/>
						</g>
						<g>
							<path d="M412.75,1319.02c-4.12-7.23-4.94-14.21-1.62-16.99c4.09-3.42,12.94,1.02,19.79,9.84c1.42,1.82,2.6,3.65,3.59,5.54
								C434.51,1317.4,427.37,1316.59,412.75,1319.02z"/>
							<path d="M411.82,1320.95l-0.6-1.07c-4.74-8.32-5.21-15.86-1.22-19.21c1.47-1.22,3.44-1.74,5.66-1.51
								c5.13,0.55,11.51,5,16.65,11.62c1.48,1.9,2.71,3.8,3.76,5.8l1.54,2.93l-3.29-0.36c-0.07-0.01-7.15-0.75-21.28,1.6
								L411.82,1320.95z M414.61,1302.63c-0.97,0-1.76,0.25-2.35,0.75c-2.37,1.98-1.74,7.64,1.44,13.71
								c8.48-1.35,14.34-1.6,17.67-1.58c-0.56-0.86-1.17-1.71-1.83-2.57c-4.51-5.8-10.1-9.84-14.25-10.28
								C415.05,1302.64,414.82,1302.63,414.61,1302.63z"/>
						</g>
						<g>
							<path d="M258.9,1404.18c-0.49-0.84-0.98-1.68-1.56-2.55c-6.25-9.27-14.83-14.28-19.16-11.17c-4.27,3.08-2.7,13.14,3.54,22.41
								c0.29,0.43,0.58,0.87,0.88,1.2L258.9,1404.18z"/>
							<path d="M242.27,1416.34l-0.97-1.09c-0.35-0.39-0.69-0.89-1.03-1.39c-6.88-10.22-8.25-21.12-3.11-24.82
								c1.55-1.12,3.56-1.5,5.79-1.1c5.11,0.91,11.19,5.79,15.85,12.71c0.6,0.9,1.11,1.77,1.62,2.64l0.87,1.49L242.27,1416.34z
								 M241.25,1391.3c-0.81,0-1.5,0.2-2.05,0.59c-3.01,2.17-2.15,10.83,3.86,19.84l13.43-8.16c-0.2-0.32-0.4-0.64-0.62-0.96
								c-4.09-6.07-9.41-10.48-13.55-11.21C241.95,1391.34,241.59,1391.3,241.25,1391.3z"/>
						</g>
						<g>
							<path d="M230.94,1421.69c-0.2-0.41-0.49-0.84-0.74-1.21c-6.22-9.28-14.8-14.31-19.14-11.21c-4.33,3.1-2.73,13.14,3.5,22.42
								c0.12,0.19,0.25,0.37,0.37,0.56L230.94,1421.69z"/>
							<path d="M214.45,1434.67l-1.35-2.01c-6.97-10.4-8.29-21.07-3.06-24.82c1.56-1.11,3.56-1.49,5.8-1.09
								c5.11,0.92,11.18,5.81,15.83,12.74c0.29,0.43,0.63,0.95,0.86,1.42l0.67,1.39L214.45,1434.67z M214.12,1410.11
								c-0.81,0-1.49,0.2-2.04,0.59c-2.93,2.1-2.22,10.36,3.34,19.11l13.11-8.65c-4.05-5.93-9.26-10.21-13.33-10.95
								C214.82,1410.15,214.46,1410.11,214.12,1410.11z"/>
						</g>
						<g>
							<path d="M203.92,1441.71c-5.21-9.89-13.22-15.82-17.87-13.23c-4.66,2.6-4.14,12.71,1.06,22.6c0.69,1.32,1.44,2.61,2.27,3.77
								L203.92,1441.71z"/>
							<path d="M189.08,1457.48l-1.14-1.61c-0.78-1.1-1.56-2.4-2.39-3.96c-5.84-11.09-6-21.81-0.36-24.95
								c1.67-0.93,3.7-1.09,5.89-0.43c4.99,1.48,10.51,6.99,14.4,14.38l0.64,1.21L189.08,1457.48z M188.49,1429.63
								c-0.6,0-1.13,0.13-1.6,0.39c-3.25,1.81-3.33,10.57,1.76,20.24c0.37,0.69,0.72,1.32,1.07,1.9l11.98-10.82
								c-3.35-5.89-7.83-10.32-11.64-11.45C189.5,1429.72,188.98,1429.63,188.49,1429.63z"/>
						</g>
						<g>
							
								<rect x="348.9" y="1450.48" transform="matrix(0.3133 -0.9496 0.9496 0.3133 -1117.8694 1358.5176)" width="63.09" height="3.52"/>
						</g>
						<g>
							
								<rect x="309.24" y="1453.63" transform="matrix(0.2901 -0.957 0.957 0.2901 -1151.7251 1358.1755)" width="60.71" height="3.52"/>
						</g>
						<g>
							
								<rect x="271.88" y="1461.73" transform="matrix(0.2462 -0.9692 0.9692 0.2462 -1190.5256 1396.2178)" width="60.95" height="3.51"/>
						</g>
					</g>
				</g>
			</g>
			<g>
				<g>
					<g>
						<polygon style="fill:#00BEFB;" points="1409.07,1389.09 747.09,1448.57 579.68,1346.93 578.99,1346.49 466.4,393.41 
							1064.88,339.64 1291.59,414.42 1386,1197.67 						"/>
						<path d="M746.67,1450.37l-0.49-0.3l-168.83-102.54l-0.1-0.83L464.44,391.82l600.65-53.96l0.34,0.12l227.77,75.12
							l117.82,977.58l-1.8,0.16L746.67,1450.37z M580.64,1345.46l166.87,101.31l659.6-59.27l-117.12-971.76l-225.3-74.31L468.36,395
							L580.64,1345.46z"/>
					</g>
					<g>
						<g>
							<polygon points="555.11,1140.3 714.97,1216.36 1062.21,1273.81 1381.72,1160.86 1409.07,1389.08 747.09,1448.57 
								579.01,1346.49 							"/>
							<path d="M746.67,1450.37l-169.31-102.82L553,1137.35l162.51,77.31l346.55,57.34l321.15-113.54l27.83,232.19l-1.8,0.16
								L746.67,1450.37z M580.66,1345.44l166.85,101.33l659.61-59.28l-26.88-224.24l-317.87,112.37l-348.15-57.68l-156.99-74.69
								L580.66,1345.44z"/>
						</g>
						<g>
							<polygon style="fill:#FF6DCE;" points="1409.07,1389.09 747.09,1448.57 579.68,1346.93 559.98,1176.91 719.86,1252.95 
								1067.09,1310.41 1386,1197.67 							"/>
							<path d="M746.67,1450.37l-0.49-0.3l-168.15-102.08l-0.1-0.85l-20.07-173.17l162.53,77.3l346.53,57.34l320.55-113.32
								l23.54,195.39l-1.8,0.16L746.67,1450.37z M581.33,1345.87l166.18,100.89l659.6-59.27l-22.59-187.44l-317.27,112.16
								l-348.13-57.67l-157.02-74.68L581.33,1345.87z"/>
						</g>
						<g>
							<path style="fill:#FFFFFF;" d="M1344.33,1263.6c-10.11-2.26-25.62-4.47-44.37-2.14c-18.19,2.26-32.5,7.92-41.79,12.46
								c1.11,19.41,2.21,38.83,3.32,58.24l45.23,32.51l41.15-38.93L1344.33,1263.6z"/>
							<path d="M1306.87,1366.95l-47.09-33.85l-3.44-60.24l1.05-0.51c13.41-6.55,27.66-10.8,42.34-12.63
								c15.08-1.87,30.2-1.14,44.97,2.17l1.29,0.29l3.66,64.29L1306.87,1366.95z M1263.2,1331.23l43.36,31.17l39.5-37.37l-3.41-60
								c-13.96-2.97-28.24-3.59-42.48-1.83c-13.91,1.73-27.43,5.69-40.18,11.79L1263.2,1331.23z"/>
						</g>
					</g>
				</g>
				<g>
					<g>
						<g>
							<path style="fill:#FFFFFF;" d="M831.16,413.82c0.83,9.18,20.49,14.91,43.92,12.8c23.43-2.11,41.76-11.25,40.94-20.43
								c-0.83-9.18-20.49-14.91-43.92-12.8C848.66,395.5,830.33,404.64,831.16,413.82z"/>
							<path d="M865.49,428.82c-20.11,0-35.28-5.93-36.08-14.84l0,0c-0.92-10.3,17.76-20.11,42.53-22.34
								c24.78-2.21,44.91,4.1,45.83,14.4c0.92,10.3-17.76,20.11-42.53,22.34C871.89,428.67,868.63,428.82,865.49,428.82z
								 M832.91,413.66c0.65,7.18,17.67,13.4,42.02,11.21c24.33-2.19,39.99-11.34,39.35-18.52c-0.65-7.18-17.67-13.4-42.02-11.21
								C847.92,397.33,832.26,406.48,832.91,413.66L832.91,413.66z"/>
						</g>
						<g>
							<path d="M846,410.91c0.41,4.52,13.1,7.08,28.36,5.71c15.25-1.37,27.3-6.15,26.89-10.67c-0.4-4.52-13.1-7.08-28.36-5.7
								C857.63,401.61,845.6,406.38,846,410.91z"/>
							<path d="M866.35,418.73c-11.58,0-21.62-2.37-22.1-7.67l0,0c-0.19-2.15,1.16-5.32,8.67-8.31c5.23-2.07,12.27-3.59,19.81-4.27
								c14.59-1.3,29.68,0.77,30.27,7.3c0.19,2.15-1.16,5.32-8.67,8.31c-5.23,2.08-12.27,3.59-19.81,4.27
								C871.78,418.61,869.02,418.73,866.35,418.73z M880.98,401.62c-2.43,0-5.07,0.11-7.93,0.37c-7.22,0.65-13.9,2.08-18.82,4.04
								c-5.26,2.09-6.53,4-6.47,4.72l0,0c0.2,2.18,9.71,5.62,26.45,4.11c7.22-0.65,13.9-2.08,18.82-4.04
								c5.26-2.09,6.53-4.01,6.47-4.73C899.34,404.29,892.76,401.62,880.98,401.62z"/>
						</g>
					</g>
					<g>
						<g>
							<polygon style="fill:#FFFFFF;" points="897.91,409.39 797.79,106.9 656.3,218.41 681.3,245.63 778.78,177.67 855.12,413.23 
															"/>
							<path d="M853.88,415.11l-76.04-234.64l-96.8,67.48l-27.32-29.74l144.95-114.23l101.61,306.97L853.88,415.11z M779.72,174.87
								l76.64,236.48l39.18-3.52l-98.64-298L658.87,218.62l22.67,24.69L779.72,174.87z"/>
						</g>
						<g>
							<path style="fill:#FF4568;" d="M884.94,370.18l12.98,39.2l-42.79,3.85l-6.32-19.5C861.08,386.28,872.79,377.89,884.94,370.18
								z"/>
							<path d="M853.88,415.11l-7.18-22.16l1.19-0.72c7.02-4.26,13.97-8.91,20.71-13.41c5.1-3.41,10.21-6.83,15.4-10.12l1.9-1.21
								l14.38,43.45L853.88,415.11z M850.9,394.51l5.46,16.85l39.18-3.52l-11.57-34.95c-4.51,2.9-8.97,5.88-13.43,8.86
								C864.17,386.01,857.58,390.41,850.9,394.51z"/>
						</g>
						<g>
							<path style="fill:#FF4568;" d="M847.99,258.56l15.34,46.35c-11.06,9.6-22.6,18.59-34.57,26.99l-15.09-46.54
								C825.22,276.56,836.24,267.07,847.99,258.56z"/>
							<path d="M827.82,334.7l-16.2-50l0.99-0.76c4.8-3.66,9.51-7.44,14.22-11.21c6.51-5.22,13.23-10.61,20.12-15.6l1.94-1.41
								l16.46,49.74l-0.88,0.77c-10.9,9.47-22.58,18.59-34.71,27.1L827.82,334.7z M815.73,285.99l13.96,43.09
								c11.01-7.82,21.62-16.13,31.6-24.74l-14.21-42.94c-6.15,4.54-12.18,9.38-18.04,14.08
								C824.62,279.02,820.21,282.55,815.73,285.99z"/>
						</g>
						<g>
							<polygon style="fill:#FF4568;" points="702.39,182.09 748.21,145.98 733.01,209.58 688.78,240.41 688.78,240.41 							"/>
							<path d="M686.03,244.47l14.79-63.39l50.27-39.62l-16.53,69.18L686.03,244.47z M703.97,183.08l-12.43,53.26l39.92-27.83
								l13.87-58.03L703.97,183.08z"/>
						</g>
						<g>
							<path style="fill:#FF4568;" d="M801.09,116.88l24.61,74.35c-10.94,9.7-22.09,19.17-33.25,28.62l-13.67-42.17L801.09,116.88z"
								/>
							<path d="M791.58,222.88l-14.66-45.24l24.26-66.09l26.56,80.23l-0.87,0.77c-10.86,9.62-21.94,19.04-33.28,28.65L791.58,222.88
								z M780.64,177.71l12.67,39.1c10.34-8.75,20.44-17.36,30.36-26.13L801,122.21L780.64,177.71z"/>
						</g>
					</g>
				</g>
				<g>
					<g>
						<g>
							<polygon style="fill:#FFFFFF;" points="580.24,997.43 650.69,1021.36 598.69,608.58 526.98,582.37 							"/>
							<path d="M652.79,1023.93l-74.15-25.19l-0.14-1.09l-53.64-417.93l75.44,27.57L652.79,1023.93z M581.84,996.13l66.75,22.67
								l-51.52-408.94l-68-24.85L581.84,996.13z"/>
						</g>
						<g>
							
								<rect x="625.75" y="1030.75" transform="matrix(0.3147 -0.9492 0.9492 0.3147 -582.2482 1326.4813)" width="3.52" height="71.43"/>
						</g>
						<g>
							
								<rect x="629.68" y="1083.55" transform="matrix(0.3203 -0.9473 0.9473 0.3203 -631.1035 1358.9266)" width="3.52" height="71.42"/>
						</g>
					</g>
				</g>
				<g>
					<g>
						<polygon points="745.34,1448.78 627.6,471.25 465.63,395.01 467.13,391.84 630.85,468.9 630.97,469.87 748.84,1448.36 						
							"/>
					</g>
					<g>
						
							<rect x="628.13" y="441.25" transform="matrix(0.9967 -0.0811 0.0811 0.9967 -32.7643 79.3498)" width="664.58" height="3.52"/>
					</g>
				</g>
			</g>
			<g>
				<g>
					<g>
						<g>
							<path style="fill:#FFFFFF;" d="M917.95,706.82c9.67,87.24-5.3,165.17-35.13,204.34c-11.65,15.25-25.51,24.57-41.12,26.3
								c-55.54,6.15-111.46-87.14-124.89-208.36c-13.43-121.22,20.71-224.49,76.25-230.64c14.78-1.64,29.57,3.74,43.52,14.77
								C875.28,543.81,908.07,617.76,917.95,706.82z"/>
							<path d="M836.56,939.51c-54.63,0.01-108.41-92.04-121.5-210.21c-6.52-58.87-2.14-115.42,12.34-159.21
								c14.63-44.26,37.88-70.31,65.46-73.37c14.93-1.65,30,3.44,44.8,15.14c40.24,31.78,72.44,108.24,82.03,194.77
								c9.49,85.62-4.11,164.4-35.48,205.6c-12.35,16.17-26.59,25.25-42.33,26.99C840.11,939.41,838.33,939.51,836.56,939.51z
								 M798.35,499.93c-1.7,0-3.4,0.09-5.1,0.28c-26.14,2.89-48.34,28.1-62.51,70.97c-14.32,43.33-18.65,99.34-12.18,157.72
								C731.45,845.27,783.65,935.99,836.45,936c1.69,0,3.37-0.09,5.05-0.28c14.75-1.63,28.18-10.25,39.92-25.62
								c30.38-39.88,44.03-119.6,34.78-203.07c-9.49-85.65-41.17-161.17-80.71-192.4C823.14,504.86,810.67,499.93,798.35,499.93z"/>
						</g>
						<g>
							<path d="M836.57,513.24c-51.66,12.66-83.52,103.73-71.82,209.33c0.38,3.47,0.82,6.9,1.28,10.32l84.76-4.01l-74.39,54.4
								c21.17,76.04,63.26,128.84,106.42,127.88c29.83-39.17,44.79-117.1,35.13-204.34C908.07,617.76,875.28,543.81,836.57,513.24z"
								/>
							<path d="M881.7,912.93c-42.54,0-85.41-51.67-106.99-129.18l-0.33-1.17l70.65-51.67l-80.52,3.8l-0.22-1.59
								c-0.47-3.43-0.9-6.88-1.29-10.36c-11.69-105.52,20.45-198.31,73.15-211.23l0.83-0.2l0.68,0.53
								c40.24,31.79,72.44,108.24,82.03,194.77c9.49,85.62-4.11,164.4-35.48,205.6l-0.51,0.68l-0.85,0.02
								C882.47,912.93,882.08,912.93,881.7,912.93z M778.42,783.98c21.25,75.31,62.55,125.44,103.27,125.44c0.08,0,0.17,0,0.25,0
								c30.02-40.11,43.46-119.4,34.26-202.4c-9.43-85.16-40.81-160.31-80.04-191.86c-50.54,13.29-81.1,103.98-69.67,207.21
								c0.32,2.91,0.68,5.8,1.06,8.68l88.99-4.21L778.42,783.98z"/>
						</g>
					</g>
					<g>
						<g>
							<path style="fill:#FFFFFF;" d="M1283.83,666.28c9.66,87.24-5.3,165.17-35.13,204.34c-11.65,15.25-25.51,24.58-41.12,26.3
								c-55.54,6.15-111.46-87.14-124.89-208.36c-13.43-121.22,20.71-224.49,76.25-230.64c14.78-1.64,29.57,3.74,43.52,14.77
								C1241.16,503.27,1273.96,577.22,1283.83,666.28z"/>
							<path d="M1202.33,898.98c-25.85,0-52.1-20.2-74.49-57.56c-23.72-39.57-40.37-93.78-46.89-152.65
								c-13.51-121.99,21.39-226.33,77.81-232.58c14.93-1.65,30.01,3.44,44.8,15.14c40.25,31.78,72.44,108.23,82.03,194.77
								c9.49,85.62-4.11,164.4-35.47,205.6c-12.35,16.17-26.6,25.25-42.33,26.99C1205.96,898.87,1204.14,898.98,1202.33,898.98z
								 M1164.22,459.39c-1.7,0-3.4,0.09-5.09,0.28c-54.49,6.04-87.99,108.63-74.69,228.7c6.47,58.38,22.95,112.09,46.41,151.23
								c23.22,38.73,50.41,58.5,76.54,55.57c14.74-1.63,28.17-10.25,39.92-25.62c30.37-39.89,44.02-119.6,34.77-203.07
								c-9.49-85.65-41.17-161.17-80.71-192.4C1189.02,464.32,1176.55,459.39,1164.22,459.39z"/>
						</g>
						<g>
							<path d="M1202.45,472.7c-51.66,12.66-83.52,103.73-71.82,209.33c0.38,3.47,0.82,6.9,1.28,10.32l84.76-4.01l-74.39,54.4
								c21.17,76.04,63.26,128.84,106.42,127.88c29.83-39.17,44.79-117.1,35.13-204.34C1273.96,577.22,1241.16,503.27,1202.45,472.7
								z"/>
							<path d="M1247.58,872.39c-42.54,0-85.42-51.68-107-129.18l-0.33-1.17l70.65-51.67l-80.52,3.8l-0.22-1.59
								c-0.47-3.43-0.9-6.88-1.29-10.36c-11.69-105.52,20.44-198.31,73.16-211.23l0.83-0.2l0.67,0.53
								c40.25,31.78,72.44,108.24,82.03,194.77c9.49,85.62-4.11,164.4-35.47,205.6l-0.51,0.68l-0.85,0.02
								C1248.36,872.39,1247.97,872.39,1247.58,872.39z M1144.3,743.44c21.25,75.31,62.55,125.44,103.27,125.44
								c0.08,0,0.17,0,0.25,0c30.01-40.11,43.46-119.4,34.26-202.4c-9.43-85.16-40.81-160.31-80.04-191.86
								c-50.54,13.29-81.1,103.97-69.67,207.21c0.32,2.91,0.68,5.81,1.07,8.68l88.99-4.21L1144.3,743.44z"/>
						</g>
					</g>
				</g>
				<g>
					<path style="fill:#00BEFB;" d="M998.62,741.58l5.93,40.66c0,0,65.24-13.27,70.48,20.87c5.24,34.13-71.8,29.94-71.8,29.94
						L998.62,741.58z"/>
					<path d="M1011.36,834.98c-4.65,0-7.73-0.15-8.23-0.18l0.19-3.51c0.5,0.02,50.79,2.55,66-14.22c3.5-3.85,4.79-8.33,3.97-13.69
						c-0.92-6.02-3.97-10.87-9.04-14.41c-18.72-13.06-58.95-5.08-59.35-5l-1.82,0.37l-6.2-42.49l3.48-0.51l5.66,38.85
						c8.34-1.47,42.43-6.52,60.23,5.9c5.9,4.11,9.43,9.75,10.51,16.77c0.98,6.38-0.65,11.96-4.84,16.59
						C1059.38,833.26,1026.77,834.98,1011.36,834.98z"/>
				</g>
				<g>
					<g id="XMLID_00000069392396293021617730000016890164085081982607_">
						<path style="fill:#FFFFFF;" d="M1114.41,858.91c0,0,52.9,272.1-45.34,284.23c-111.81,13.81-120.16-263.8-120.16-263.8
							c15.27,5.64,46.91,14.99,86.88,9.69C1073.91,883.96,1101.06,868.03,1114.41,858.91z"/>
						<path d="M1061.16,1145.39c-15.08,0-28.98-5.38-41.43-16.06c-27.77-23.82-48.43-73.16-61.39-146.65
							c-9.63-54.56-11.17-102.81-11.19-103.29l-0.08-2.61l2.44,0.9c19.11,7.05,49.53,14.44,86.04,9.59
							c27.76-3.69,54.68-14,77.85-29.83l2.21-1.51l0.51,2.62c1.56,8.03,37.67,197.42-10.69,264.04
							c-9.42,12.98-21.59,20.48-36.15,22.27C1066.54,1145.22,1063.83,1145.39,1061.16,1145.39z M950.78,881.88
							c1.02,23.08,10.55,192.72,71.25,244.78c13.87,11.9,29.64,16.87,46.83,14.73c13.56-1.67,24.91-8.69,33.74-20.85
							c44.45-61.23,14.83-235.22,10.57-258.69c-23.11,15.29-49.72,25.27-77.14,28.91C1000.36,895.51,970.36,888.78,950.78,881.88z"
							/>
					</g>
					<g>
						<polygon points="1095.3,1129.74 1064.16,882.52 1067.64,882.08 1098.8,1129.36 1097.06,1129.69 						"/>
					</g>
					<g>
						
							<rect x="1019.57" y="889.44" transform="matrix(0.9912 -0.1326 0.1326 0.9912 -125.5208 144.3835)" width="3.51" height="250.43"/>
					</g>
					<g>
						
							<rect x="967.22" y="1007.65" transform="matrix(0.9926 -0.1212 0.1212 0.9926 -114.6154 134.4916)" width="162.04" height="3.51"/>
					</g>
				</g>
			</g>
			<g>
				<g>
					<g>
						<path d="M1601.49,654.09c-14.71,23.81-28.84,47.98-42.59,72.52c-28.49,50.87-55.79,112.85-110.14,141.34
							c-43.1,22.64-78.53,1.34-108.58-36.23l12.15,94.55c24.44,13.78,52.65,19.02,86.09,11.14
							c60.49-14.28,106.3-64.36,137.29-115.52c27.67-45.71,52.82-92.4,80.25-137.92C1637.93,673.78,1619.74,663.87,1601.49,654.09z"
							/>
					</g>
					<g>
						<g>
							<path style="fill:#FFFFFF;" d="M1617.03,604.88c0.31-0.03,1.47-8.39,6.39-15.8c7.39-11.14,22.85-23.31,35.12-28.96
								c10.72-4.94,23.01-5.79,33.58,0.5c11.67,6.95,13.88,22.03,8.01,33.64c1.17-0.71,2.92-1.62,5.17-2.38
								c1.44-0.49,2.49-0.7,2.77-0.75c4.07-0.67,8.26-0.76,12.33-0.11c9.51,1.52,17.45,7.86,21.79,16.34
								c4.95,9.67,4.09,20.22,2.89,30.67c0.29,0.02,3.48,0.13,3.77,0.15c19.95,1.94,31.96,20.21,29.33,40.08
								c-6.29,47.47-63.24,61.45-63.24,61.45c-8.33,70.05-67.6,48.33-67.6,48.33c-14.68,39.76-53.96,25.1-100.47-31.52
								c-46.52-56.61,15.68-61.99,15.68-61.99C1518.79,614.44,1599.57,606.67,1617.03,604.88z"/>
							<path d="M1620.78,812.24c-19.67,0-46.14-19.13-75.27-54.58c-15.46-18.81-20.81-34.26-15.91-45.9
								c5.71-13.58,23.45-17.58,30.19-18.62c-12.77-24.28-15.21-44.24-7.25-59.37c13.1-24.88,49.86-29.14,63.17-30.52
								c0.01-0.04,0.02-0.08,0.03-0.12c0.69-2.73,2.31-9.13,6.22-15.02c7.12-10.73,22.53-23.45,35.85-29.59
								c12.44-5.74,24.94-5.52,35.21,0.59c10.5,6.25,14.59,19.23,10.51,31.54c0.4-0.15,0.8-0.3,1.21-0.44
								c1.75-0.59,2.92-0.79,3.05-0.81c4.45-0.73,8.79-0.77,12.9-0.11c9.71,1.55,18.33,8.01,23.08,17.28
								c4.78,9.34,4.44,19.06,3.28,29.79c0.91,0.04,1.83,0.07,1.98,0.08c9.3,0.9,17.57,5.35,23.26,12.53
								c6.29,7.93,9.08,18.69,7.64,29.54c-5.87,44.25-55.09,60.22-63.39,62.6c-2.83,21.94-10.97,37.17-24.2,45.3
								c-17.44,10.7-38.03,5.65-43.96,3.84c-5.05,12.63-12.76,19.9-22.95,21.62C1623.93,812.11,1622.37,812.24,1620.78,812.24z
								 M1675.61,557.89c-5.28,0-10.81,1.27-16.34,3.82c-12.8,5.9-27.58,18.08-34.38,28.34c-3.58,5.39-5.1,11.38-5.75,13.94
								c-0.38,1.51-0.63,2.5-1.92,2.63l-0.31,0.03c-12.06,1.23-48.75,4.98-61.26,28.74c-7.62,14.48-4.78,34.1,8.44,58.3l1.29,2.36
								l-2.68,0.24c-0.24,0.02-23.74,2.24-29.86,16.82c-4.35,10.35,0.83,24.58,15.39,42.3c30.67,37.32,57.87,56.14,76.63,52.97
								c9.27-1.56,16.29-8.61,20.84-20.95l0.6-1.64l1.65,0.6c0.24,0.08,23.87,8.5,42.58-3c12.49-7.68,20.12-22.45,22.67-43.88
								l0.14-1.21l1.19-0.29c0.56-0.14,55.86-14.27,61.92-59.97c1.32-9.9-1.21-19.7-6.91-26.89c-5.17-6.52-12.38-10.39-20.85-11.22
								c-0.18-0.01-1.08-0.05-1.93-0.08c-0.85-0.03-1.67-0.06-1.81-0.07l-1.81-0.15l0.21-1.8c1.24-10.9,1.9-20.66-2.71-29.67
								c-4.24-8.27-11.9-14.03-20.5-15.41c-3.73-0.6-7.7-0.56-11.77,0.11c-0.26,0.04-1.2,0.24-2.5,0.68
								c-1.71,0.58-3.33,1.32-4.82,2.22l-5.24,3.16l2.76-5.46c5.08-10.05,4.23-24.45-7.34-31.34
								C1686.48,559.31,1681.18,557.89,1675.61,557.89z M1616.85,603.14l0.19,1.75L1616.85,603.14z"/>
						</g>
						<g>
							<g>
								<g>
									<path style="fill:#FFFFFF;" d="M1751.89,697.76c0,0-72.08,36.26-78.84,0.51c-6.86-36.27,72.04-60.23,72.04-60.23
										L1751.89,697.76z"/>
									<path d="M1696.21,715.78c-5.38,0-10.35-0.83-14.42-2.84c-5.67-2.8-9.19-7.63-10.46-14.34
										c-7.08-37.39,69.97-61.24,73.25-62.24l1.02,3.37c-0.78,0.24-77.31,23.91-70.82,58.22c1.07,5.65,3.87,9.53,8.56,11.84
										c20.33,10.03,67.29-13.36,67.76-13.6l1.58,3.14C1751.06,700.14,1719.65,715.78,1696.21,715.78z"/>
								</g>
								<g>
									<path style="fill:#FFFFFF;" d="M1728.31,644.27c-54.26,22.42-56.2,53.65-56.2,53.65
										c-84.22-34.61,29.55-104.69,29.55-104.69c-37.85,23.3-52.45,46.86-52.45,46.86c-71.09-30.58-6.77-80.37,23.98-83.48
										L1728.31,644.27z"/>
									<path d="M1673.69,700.47l-2.25-0.92c-20.16-8.28-30.94-19.39-32.05-33.01c-0.69-8.48,2.44-17.18,7.6-25.49
										c-28.95-12.91-33.1-28.49-31.43-39.36c3.66-23.76,37.38-44.79,57.45-46.82l0.36,3.5c-19.09,1.93-51.02,22.34-54.34,43.85
										c-2.12,13.82,8.07,26.14,29.52,35.68c3.62-5.28,18.95-25.7,52.18-46.15l1.84,2.99c0,0,0,0,0,0l0,0c0,0-0.01,0-0.01,0.01
										c-1.15,0.71-62.32,38.95-59.67,71.52c0.95,11.74,10.31,21.54,27.81,29.17c1.6-7.92,10.3-33.51,56.93-52.77l1.35,3.25
										c-52.43,21.66-55.1,51.84-55.12,52.14L1673.69,700.47z"/>
								</g>
							</g>
							<g>
								<path style="fill:#FFFFFF;" d="M1558.22,695.33c-8.72-20.17-9.52-38.11-8.6-46.82c2.33-22.19,21.83-33.11,49.32-39.73
									c35.96-8.66,53.51-8.38,71.75-5.99c13.01,1.71,24.13,11.67,25.6,24.71c4.22,37.56-73.82,47.86-73.82,47.86
									s52.34,44.53-13.72,70.45L1558.22,695.33z"/>
								<path d="M1609.39,747.45l-1.28-3.27c19.23-7.54,29.98-17.34,31.94-29.11c3.25-19.41-18.5-38.18-18.73-38.37l-3.01-2.56
									l3.92-0.52c0.76-0.1,76.28-10.5,72.3-45.93c-1.32-11.76-11.45-21.5-24.08-23.16c-19.02-2.49-36.76-2.32-71.11,5.96
									c-31.2,7.51-45.99,19.3-47.99,38.2c-1.08,10.25,0.58,27.7,8.47,45.94l-3.23,1.39c-8.16-18.86-9.86-37.01-8.73-47.7
									c2.81-26.72,30.26-36.34,50.66-41.26c34.87-8.4,52.95-8.57,72.39-6.02c14.21,1.86,25.62,12.91,27.12,26.26
									c3.88,34.48-55.98,46.66-71.71,49.25c6.12,6.03,20.06,21.94,17.19,39.09C1641.34,728.72,1629.86,739.42,1609.39,747.45z"/>
							</g>
						</g>
						<g>
							<g>
								<path d="M1646.54,789.85c-11.26-3.14-23.74-11.37-37.1-24.47l2.47-2.51c12.93,12.68,24.89,20.62,35.57,23.6L1646.54,789.85z
									"/>
							</g>
							<g>
								<path d="M1585.9,746.1c-17.32-14.59-25.39-39.13-29.26-50.93l3.32-1.16c3.8,11.55,11.66,35.45,28.21,49.4L1585.9,746.1z"/>
							</g>
						</g>
					</g>
				</g>
				<g>
					<g>
						<path d="M711.1,1179.45c-50.98,3.92-101.43,7-152.57,4.74c-36.8-1.63-137.99-4.08-162.32-39.44
							c-24.9-36.18,45.52-91.2,68.83-110.33c34.23-28.09,72.34-52.1,110.56-75.01c-3.23-22.31-5.76-44.71-7.38-67.19
							c-58.81,34.89-119.05,71.37-169.04,118.26c-37.16,34.85-85.84,90.79-66.56,146.4c20.91,60.33,98.16,71.87,151.95,80.66
							c75.7,12.37,150.37,9.27,226.53,3.42C750.31,1237.94,750.64,1176.41,711.1,1179.45z"/>
					</g>
					<g>
						<g>
							<g>
								<path style="fill:#FFFFFF;" d="M666.95,1147.16c0,0-37.9-28.69-45.66,2.55c-5.91,23.79-2.88,76.17-1.1,99.78
									c0.82,10.89,7.35,20.87,17.5,24.89c6.57,2.6,23.9-1.08,32.27-7.25c16.36,11.97,38.02,35.1,80.21,39.63
									c31.56,3.38,65.56-0.39,95.09-12.3c15.18-6.12,28.93-14.84,37.7-28.97c4.88-7.85,8.44-17.13,8.25-26.49
									c-0.1-4.66-1.2-9.24-3.46-13.34c-0.66-1.19-5.54-9.4-5.54-9.4s27.95-40.14-16.85-59.32c0,0,38.85-65.96-61.05-50.95
									c-6.05,0.91-11.66-25.89-34.86-37.79c-3.44-1.77-27.57-13.71-52.8-5.73C686.62,1071.97,665.13,1106.46,666.95,1147.16z"/>
								<path d="M772.54,1309.7c-7.52,0-15.06-0.4-22.56-1.2c-35.76-3.83-57.03-20.88-72.56-33.33c-2.63-2.11-5.13-4.11-7.5-5.89
									c-8.98,5.92-25.93,9.47-32.88,6.72c-10.41-4.12-17.71-14.48-18.61-26.39c-1.66-22.08-4.88-76.06,1.15-100.33
									c1.94-7.81,5.87-12.81,11.69-14.87c11.63-4.11,27.37,5.01,33.82,9.3c-0.51-39.34,20.13-73.14,51.02-82.91
									c25.17-7.96,49.52,3.47,54.14,5.84c14.61,7.49,22.44,20.68,27.63,29.41c2.1,3.54,4.94,8.44,6.17,8.21
									c35.02-5.26,57.3-1.22,66.23,12.01c9.56,14.15,0.63,33.91-2.47,39.85c12.66,5.82,20.55,13.95,23.49,24.18
									c4.6,16.05-4.47,31.97-7.03,36.01c1.31,2.2,4.49,7.56,5.01,8.51c2.33,4.23,3.57,9,3.68,14.15c0.23,11-4.5,21-8.51,27.45
									c-7.88,12.68-20.49,22.39-38.54,29.67C823.72,1305.03,798.29,1309.7,772.54,1309.7z M669.96,1264.94l1.04,0.76
									c2.72,1.99,5.59,4.29,8.63,6.73c15.19,12.17,35.99,28.85,70.73,32.57c32.63,3.51,66.1-0.83,94.24-12.18
									c17.34-6.99,29.4-16.24,36.87-28.26c3.76-6.05,8.19-15.39,7.98-25.52c-0.09-4.58-1.19-8.8-3.24-12.53
									c-0.65-1.19-5.51-9.35-5.51-9.35l-0.58-0.97l0.65-0.93c0.12-0.17,11.92-17.45,7.16-34.02
									c-2.77-9.63-10.59-17.26-23.25-22.68l-1.84-0.78l1.01-1.72c0.14-0.23,13.41-23.19,3.52-37.83
									c-8.11-12.01-29.24-15.53-62.79-10.49c-3.52,0.51-5.99-3.62-9.72-9.89c-4.98-8.38-12.5-21.05-26.21-28.08
									c-4.41-2.26-27.61-13.15-51.47-5.62c-29.81,9.43-50.2,44.3-48.47,82.93l0.17,3.74l-2.98-2.25
									c-0.2-0.15-20.58-15.38-33.45-10.83c-4.63,1.64-7.81,5.81-9.44,12.4c-5.9,23.78-2.7,77.31-1.05,99.22
									c0.79,10.58,7.23,19.76,16.4,23.39c5.66,2.24,22.42-1.02,30.58-7.03L669.96,1264.94z"/>
							</g>
							<g>
								<line style="fill:none;" x1="864.4" y1="1157.45" x2="826.61" y2="1166.52"/>
								
									<rect x="826.05" y="1160.25" transform="matrix(0.9724 -0.2333 0.2333 0.9724 -247.7673 229.3175)" width="38.87" height="3.52"/>
							</g>
							<g>
								<line style="fill:none;" x1="882.21" y1="1216.26" x2="842.22" y2="1222.46"/>
								
									<rect x="842" y="1217.62" transform="matrix(0.9882 -0.1533 0.1533 0.9882 -176.7354 146.591)" width="40.47" height="3.52"/>
							</g>
							<g>
								<line style="fill:none;" x1="804.31" y1="1105.99" x2="749.15" y2="1116.35"/>
								
									<rect x="748.71" y="1109.38" transform="matrix(0.9828 -0.1847 0.1847 0.9828 -191.8615 162.5864)" width="56.12" height="3.51"/>
							</g>
							<g>
								<line style="fill:none;" x1="666.95" y1="1147.16" x2="667.45" y2="1186.63"/>
								
									<rect x="665.41" y="1147.14" transform="matrix(0.9999 -0.0125 0.0125 0.9999 -14.5342 8.4309)" width="3.52" height="39.48"/>
							</g>
							<g>
								<line style="fill:none;" x1="670.18" y1="1238.31" x2="669.96" y2="1267.12"/>
								
									<rect x="655.7" y="1250.94" transform="matrix(7.799762e-03 -1 1 7.799762e-03 -587.7811 1913.0175)" width="28.81" height="3.52"/>
							</g>
						</g>
					</g>
				</g>
			</g>
		</g>
		<g>
			<g>
				<path style="fill:#FFFFFF;" d="M1820.14,1727.01c0,22.04-4.15,43.17-11.84,62.51c-18.36,46.85-56.91,83.57-104.95,99.56
					c-16.97,5.72-35.14,8.75-54.02,8.75c-18.88,0-37.05-3.03-54.02-8.75c-52.97-17.57-94.35-60.4-109.95-114.23
					c-4.47-15.14-6.84-31.25-6.84-47.84c0-26.19,5.86-50.99,16.45-73.17c19.61-41.45,55.47-73.7,99.36-88.57
					c17.24-5.92,35.73-9.08,55.01-9.08c19.28,0,37.77,3.16,55.01,9.08c47.71,16.19,85.87,52.84,104.1,99.56
					C1815.99,1684.11,1820.14,1705.1,1820.14,1727.01z"/>
				<path d="M1649.32,1899.58c-18.81,0-37.17-2.97-54.58-8.84c-53.78-17.84-95.31-60.98-111.08-115.4
					c-4.58-15.51-6.91-31.78-6.91-48.33c0-25.97,5.59-50.84,16.62-73.92c19.85-41.97,56.44-74.59,100.38-89.47
					c17.72-6.08,36.41-9.17,55.57-9.17c19.16,0,37.86,3.09,55.58,9.18c48.29,16.38,86.62,53.04,105.16,100.58
					c7.85,20.01,11.83,41.14,11.83,62.82c0,21.95-4.03,43.2-11.97,63.16c-18.7,47.7-57.34,84.36-106.03,100.57
					C1686.5,1896.61,1668.14,1899.58,1649.32,1899.58z M1649.32,1557.95c-18.76,0-37.08,3.02-54.44,8.98
					c-43.05,14.59-78.89,46.54-98.34,87.66c-10.81,22.61-16.28,46.98-16.28,72.42c0,16.21,2.28,32.14,6.77,47.34
					c15.45,53.32,56.13,95.58,108.82,113.06c17.05,5.75,35.04,8.66,53.47,8.66c18.43,0,36.42-2.91,53.46-8.66
					c47.7-15.88,85.56-51.79,103.87-98.53c7.78-19.55,11.72-40.37,11.72-61.87c0-21.23-3.9-41.94-11.59-61.54
					c-18.17-46.57-55.72-82.48-103.02-98.53C1686.41,1560.97,1668.09,1557.95,1649.32,1557.95z"/>
			</g>
			<g>
				<g>
					<polygon points="1685.62,1789.14 1613.65,1789.51 1577.34,1727.36 1613.01,1664.85 1684.98,1664.48 1721.29,1726.63 					"/>
					<path d="M1612.64,1791.27l-37.33-63.9l36.67-64.27l74.01-0.38l37.32,63.9l-36.67,64.27L1612.64,1791.27z M1579.37,1727.35
						l35.28,60.39l69.94-0.36l34.66-60.75l-35.28-60.4l-69.95,0.36L1579.37,1727.35z"/>
				</g>
				<g>
					<path d="M1820.14,1727.01c0,22.04-4.15,43.17-11.84,62.51h-5.66l-36.32-62.18l35.66-62.51h6.45
						C1815.99,1684.11,1820.14,1705.1,1820.14,1727.01z"/>
					<path d="M1809.49,1791.28h-7.86l-37.34-63.93l36.67-64.28h8.66l0.44,1.11c7.85,20.01,11.83,41.15,11.83,62.82
						c0,21.95-4.03,43.2-11.97,63.16L1809.49,1791.28z M1803.64,1787.76h3.45c7.49-19.22,11.28-39.66,11.28-60.75
						c0-20.83-3.76-41.15-11.16-60.42H1803l-34.66,60.74L1803.64,1787.76z"/>
				</g>
				<g>
					<path d="M1704.33,1565.27l-18.69,32.77l-71.98,0.39l-19.34-33.16c17.24-5.92,35.73-9.08,55.01-9.08
						C1668.6,1556.19,1687.09,1559.35,1704.33,1565.27z"/>
					<path d="M1612.65,1600.2l-20.93-35.89l2.03-0.7c17.72-6.09,36.42-9.18,55.57-9.18c19.16,0,37.86,3.09,55.58,9.18l2.01,0.69
						l-20.24,35.49L1612.65,1600.2z M1596.92,1566.25l17.74,30.42l69.96-0.38l17.13-30.03c-16.76-5.51-34.38-8.31-52.42-8.31
						C1631.29,1557.95,1613.67,1560.74,1596.92,1566.25z"/>
				</g>
				<g>
					<path d="M1703.34,1889.07c-16.97,5.72-35.14,8.75-54.02,8.75c-18.88,0-37.05-3.03-54.02-8.75l17.7-31.06l71.98-0.39
						L1703.34,1889.07z"/>
					<path d="M1649.32,1899.58c-18.81,0-37.17-2.97-54.58-8.84l-2.02-0.68l19.26-33.79l74.01-0.4l19.96,34.19l-2.04,0.69
						C1686.5,1896.61,1668.14,1899.58,1649.32,1899.58z M1597.89,1888.08c16.44,5.3,33.73,7.99,51.43,7.99
						c17.7,0,34.98-2.68,51.41-7.98l-16.75-28.7l-69.95,0.38L1597.89,1888.08z"/>
				</g>
				<g>
					<path d="M1529.04,1712.27l-35.66,62.51l-8.03,0.07c-4.47-15.14-6.84-31.25-6.84-47.84c0-26.19,5.86-50.99,16.45-73.17
						L1529.04,1712.27z"/>
					<path d="M1484.04,1776.61l-0.37-1.27c-4.59-15.52-6.91-31.79-6.91-48.33c0-25.97,5.59-50.84,16.62-73.92l1.43-3l36.27,62.18
						l-36.67,64.27L1484.04,1776.61z M1495.14,1657.63c-9.87,21.75-14.87,45.07-14.87,69.38c0,15.76,2.15,31.25,6.4,46.07l5.69-0.05
						l34.66-60.75L1495.14,1657.63z"/>
				</g>
			</g>
		</g>
	</g>
</g>
</svg>
