<?xml version="1.0" encoding="iso-8859-1"?>
<!-- Generator: Adobe Illustrator 30.0.0, SVG Export Plug-In . SVG Version: 9.03 Build 0)  -->
<svg version="1.1" id="Capa_1" xmlns="http://www.w3.org/2000/svg" xmlns:xlink="http://www.w3.org/1999/xlink" x="0px" y="0px"
	 viewBox="0 0 2000 2000" style="enable-background:new 0 0 2000 2000;" xml:space="preserve">
<g>
	<g>
		<g id="XMLID_4_">
			<rect x="100" y="1493.58" style="fill:#00C793;" width="1800" height="404.11"/>
		</g>
		<g style="opacity:0.27;">
			<g style="opacity:0.27;">
				<rect x="100" y="1493.58" style="fill:#FFFFFF;" width="196.2" height="404.11"/>
			</g>
			<g style="opacity:0.27;">
				<rect x="807.04" y="1493.58" style="fill:#FFFFFF;" width="209.29" height="404.11"/>
			</g>
			<g style="opacity:0.27;">
				<rect x="1153.18" y="1493.58" style="fill:#FFFFFF;" width="206.67" height="404.11"/>
			</g>
			<g style="opacity:0.27;">
				<rect x="1496.71" y="1493.58" style="fill:#FFFFFF;" width="169.96" height="404.11"/>
			</g>
			<g style="opacity:0.27;">
				<rect x="1803.52" y="1493.58" style="fill:#FFFFFF;" width="96.48" height="404.11"/>
			</g>
			<g style="opacity:0.27;">
				<rect x="464.37" y="1493.58" style="fill:#FFFFFF;" width="205.81" height="404.11"/>
			</g>
		</g>
		<g>
			<g>
				<rect x="100" y="1534.43" style="fill:#FFFFFF;" width="1800" height="17.59"/>
			</g>
			<g>
				<rect x="1650.82" y="1534.43" style="fill:#FFFFFF;" width="17.95" height="362.78"/>
			</g>
		</g>
	</g>
	<g>
		<g>
			<g>
				<g>
					<path d="M838.06,1192.2c-64.58,51.44-149.5,118.66-177.08,200.67c-13.26,39.43-8.33,81.44-2.07,121.76
						c8.75,56.39,19.79,112.34,26.7,169c5.27,43.13,72.57,42.77,67.25-0.85c-4.61-37.79-10.58-74.97-17.05-112.47
						c-6.98-40.51-19.88-87.06-16.08-128.21c7.11-77.05,97.2-146.95,153-191.38C906.32,1223.96,872.13,1165.06,838.06,1192.2z"/>
				</g>
				<g>
					<g>
						<path style="fill:#00BEFB;" d="M684.24,1639.66c0,0,5.66-66.59-16.42-92.32c-13.05-15.21-39.64-4.53-38.72,15.03l2.87,61.39
							c9.12,5.17,20.89,10.72,35.84,13.75C673.7,1638.71,679.21,1639.36,684.24,1639.66z"/>
						<path d="M685.85,1641.52l-1.71-0.1c-5.58-0.33-11.19-1.06-16.68-2.18c-12.49-2.53-24.05-6.97-36.36-13.95l-0.84-0.48
							l-2.91-62.36c-0.45-9.68,5.5-18.41,15.17-22.25c9.75-3.87,20.2-1.52,26.65,5.99c22.3,25.99,17.07,90.87,16.84,93.62
							L685.85,1641.52z M633.68,1622.71c7.57,4.24,19.14,9.97,34.48,13.09c4.76,0.96,9.61,1.64,14.45,2
							c0.68-10.57,3.27-66.71-16.13-89.3c-5.44-6.35-14.35-8.31-22.68-5.01c-8.25,3.27-13.33,10.66-12.96,18.82L633.68,1622.71z"/>
					</g>
					<g>
						<path style="fill:#712CE5;" d="M747.91,1764.13c-6.32,4.65-13.77,8.22-20.4,10.97c-29.4,12.17-289.43,41.79-303.33,22.91
							c-36.13-49.1,93.76-88.81,106.65-93.39c0,0,69.28-24.59,101.6-83.08c0,0,51.14,40.78,112.69-5.23
							c2.46-1.86,26.17,84.24,17.01,128.27C760.47,1752.61,754.87,1759.02,747.91,1764.13z"/>
						<path d="M467.95,1805.92c-23.43,0-41.45-1.78-45.19-6.86c-6.42-8.72-8.21-17.76-5.34-26.87
							c7.35-23.25,44.14-46.15,109.33-68.03c1.54-0.52,2.72-0.92,3.49-1.19c2.81-1,69.11-25.22,100.65-82.28l1.01-1.82l1.63,1.3
							c0.5,0.4,50.85,39.36,110.54-5.27l0.97-0.73l1.23,0.66c4.56,2.89,26.53,87.12,17.59,130.11c-1.57,7.56-6.59,14.49-14.91,20.61
							l0,0c-5.4,3.97-12.2,7.63-20.78,11.18c-14.6,6.04-85.47,16.46-157.99,23.23C540.76,1802.7,499.47,1805.92,467.95,1805.92z
							 M632.99,1624.14c-32.55,56.96-98.74,81.13-101.57,82.14c-0.78,0.28-1.99,0.68-3.55,1.21
							c-79.8,26.8-102.29,50.55-107.09,65.76c-2.56,8.09-0.98,15.85,4.81,23.72c5.41,7.35,62.04,7.15,144.27-0.52
							c71-6.62,142.88-17.14,156.97-22.97c8.31-3.45,14.87-6.97,20.04-10.76l0,0c7.6-5.59,12.16-11.8,13.55-18.49
							c8.23-39.57-10.61-114.55-15.63-125.48c-31.79,23.15-60.68,23.23-79.47,19.16C648.67,1634.29,637.12,1627.03,632.99,1624.14z
							 M746.19,1617.71c0,0-0.01,0.01-0.01,0.01C746.18,1617.72,746.19,1617.72,746.19,1617.71z"/>
					</g>
					<g>
						<path style="fill:#00BEFB;" d="M724.54,1692.27c-2.42-27.07,9.88-48.05,24.02-68.06c7.41,23.38,21.62,91.82,10.85,125.66
							C758.54,1749.28,727.83,1729.17,724.54,1692.27z"/>
						<path d="M760.37,1752.66l-1.95-1.34c-3.36-2.26-32.4-22.81-35.63-58.9l0,0c-2.54-28.5,11.22-50.68,24.34-69.23l2.04-2.89
							l1.07,3.38c6.82,21.51,22.06,91.5,10.85,126.73L760.37,1752.66z M726.29,1692.11c2.74,30.63,24.99,49.56,32.13,54.9
							c9.12-33.36-3.57-94.96-10.5-118.83C735.37,1646.26,723.98,1666.22,726.29,1692.11L726.29,1692.11z"/>
					</g>
					<g>
						<path style="fill:#00BEFB;" d="M648.58,1686.19c-13.51,11.25-29.21,19.34-45.06,26.04c-20.87,8.82-43.23,15.2-65.33,19.49
							c-21.91,4.25-44.77,6.17-67.02,2.84c-1.88-0.28-3.75-0.65-5.62-1c16.16-9.26,37.37-18.99,65.3-28.93
							c0,0,69.28-24.59,101.6-83.08c0,0,19.38,15.42,48.61,16.58C674.98,1657.55,663.57,1673.71,648.58,1686.19z"/>
						<path d="M494.81,1738.03c-8.31,0-16.26-0.57-23.92-1.72c-1.56-0.24-3.1-0.53-4.65-0.82l-5.73-1.07l4.14-2.38
							c17.46-10,39.52-19.78,65.58-29.06c0.69-0.24,69.03-25.07,100.65-82.28l1-1.82l1.63,1.29c0.19,0.15,19.32,15.07,47.59,16.2
							l2.29,0.09l-0.68,2.19c-5.99,19.2-17.09,35.65-33.02,48.9l0,0c-11.78,9.8-26.24,18.16-45.51,26.31
							c-19.88,8.4-41.98,15-65.69,19.6C522.79,1736.51,508.32,1738.03,494.81,1738.03z M470.66,1732.71
							c0.25,0.04,0.5,0.08,0.76,0.12c19.69,2.95,41.42,2.03,66.42-2.82c23.47-4.56,45.33-11.08,64.99-19.39
							c18.94-8.01,33.12-16.2,44.62-25.77c14.79-12.32,25.28-27.47,31.21-45.09c-23.72-1.55-40.49-11.99-45.67-15.62
							c-32.68,57.16-100.88,81.9-101.58,82.15C507.63,1714.76,487.22,1723.64,470.66,1732.71z"/>
					</g>
					<g>
						<path d="M719.25,1778.79c-0.09,0.96-0.18,1.92-0.34,2.87c-1.84,10.95-7.98,19.06-13.7,18.07c-4.78-0.82-7.77-7.72-7.51-16.31
							L719.25,1778.79z"/>
						<path d="M706.15,1801.58c-0.42,0-0.83-0.04-1.24-0.11c-5.67-0.97-9.27-8.25-8.97-18.1l0.05-1.38l25.25-5.43l-0.23,2.39
							l-1.75-0.17l1.75,0.18c-0.1,1-0.19,2-0.36,2.98c-1.32,7.87-4.87,14.69-9.26,17.8C709.69,1800.95,707.9,1801.58,706.15,1801.58
							z M699.45,1784.85c0.09,7.01,2.6,12.56,6.06,13.15c1.19,0.2,2.51-0.17,3.84-1.12c3.6-2.55,6.67-8.64,7.82-15.51
							c0.02-0.12,0.04-0.23,0.06-0.34L699.45,1784.85z"/>
					</g>
					<g>
						<path d="M728.93,1777.18c1.16,8.17,5.03,14.16,9.75,14.33c5.81,0.22,10.62-8.62,10.8-19.69c0.04-2.29-0.13-4.44-0.51-6.52
							C748.97,1765.29,743.28,1770.25,728.93,1777.18z"/>
						<path d="M738.89,1793.27c-0.09,0-0.18,0-0.27,0c-5.52-0.21-10.11-6.57-11.43-15.84l-0.18-1.27l1.16-0.56
							c13.9-6.71,19.6-11.58,19.66-11.63l2.33-2.02l0.55,3.03c0.4,2.21,0.58,4.46,0.53,6.87c-0.13,7.98-2.61,15.2-6.47,18.86
							C742.99,1792.38,740.97,1793.27,738.89,1793.27z M730.87,1778.18c1.23,6.65,4.44,11.44,7.87,11.57
							c1.19,0.06,2.43-0.49,3.61-1.6c3.15-2.98,5.25-9.4,5.37-16.36c0.02-1.12-0.01-2.2-0.1-3.26
							C744.8,1770.53,739.45,1773.97,730.87,1778.18z"/>
					</g>
					<g>
						<path d="M538.74,1803.24c0.12,0.96,0.25,1.91,0.31,2.95c0.64,11.06-3.55,20.18-9.37,20.35c-5.75,0.17-11-8.69-11.64-19.75
							c-0.03-0.52-0.06-1.03-0.02-1.47L538.74,1803.24z"/>
						<path d="M529.52,1828.3c-6.74,0-12.54-9.33-13.24-21.41c-0.04-0.61-0.06-1.22-0.01-1.74l0.13-1.45l23.86-2.39l0.23,1.69
							c0.13,1,0.26,2,0.32,3.08c0.46,7.93-1.48,15.3-5.08,19.22c-1.74,1.9-3.82,2.93-6,3C529.66,1828.3,529.59,1828.3,529.52,1828.3
							z M519.8,1806.9c0.68,10.61,5.63,17.88,9.73,17.88c0.03,0,0.07,0,0.1,0c1.24-0.04,2.41-0.66,3.51-1.85
							c2.93-3.2,4.56-9.72,4.16-16.64c-0.02-0.38-0.06-0.76-0.09-1.13L519.8,1806.9z"/>
					</g>
					<g>
						<path d="M502.84,1806.38c0.1,0.44,0.13,0.96,0.15,1.4c0.67,11.06-3.51,20.19-9.33,20.37c-5.82,0.18-11.02-8.67-11.69-19.73
							c-0.01-0.22-0.03-0.44-0.04-0.66L502.84,1806.38z"/>
						<path d="M493.49,1829.92c-6.74,0-12.54-9.32-13.27-21.38l-0.15-2.41l24.17-1.59l0.32,1.49c0.11,0.52,0.16,1.14,0.19,1.67
							c0.48,7.92-1.45,15.29-5.03,19.22c-1.74,1.9-3.81,2.94-5.99,3.01C493.64,1829.92,493.57,1829.92,493.49,1829.92z
							 M483.81,1809.4c0.9,10.26,5.62,17,9.69,17c0.04,0,0.07,0,0.11,0c1.23-0.04,2.41-0.66,3.51-1.86
							c2.87-3.14,4.48-9.51,4.14-16.28L483.81,1809.4z"/>
					</g>
					<g>
						<path d="M466.11,1806.98c1.96,10.91-1.13,20.42-6.9,21.2c-5.77,0.77-11.97-7.48-13.92-18.4c-0.26-1.45-0.45-2.92-0.5-4.33
							L466.11,1806.98z"/>
						<path d="M458.47,1829.99c-6.44,0-12.86-8.44-14.92-19.9c-0.31-1.73-0.48-3.23-0.52-4.59l-0.06-1.95l24.63,1.77l0.24,1.34
							c1.4,7.84,0.34,15.37-2.78,19.65c-1.51,2.07-3.45,3.32-5.62,3.61C459.12,1829.97,458.8,1829.99,458.47,1829.99z
							 M446.7,1807.35c0.08,0.66,0.18,1.36,0.32,2.12c1.94,10.85,7.81,17.53,11.96,16.96c1.21-0.16,2.3-0.9,3.25-2.19
							c2.37-3.25,3.26-9.27,2.37-15.61L446.7,1807.35z"/>
					</g>
					<g>
						
							<rect x="611.44" y="1658.72" transform="matrix(0.5274 -0.8496 0.8496 0.5274 -1147.7811 1320.625)" width="3.52" height="66.64"/>
					</g>
					<g>
						
							<rect x="573.73" y="1682.32" transform="matrix(0.5474 -0.8369 0.8369 0.5474 -1174.1901 1257.5364)" width="3.52" height="63.97"/>
					</g>
					<g>
						
							<rect x="535.89" y="1698.42" transform="matrix(0.5838 -0.8119 0.8119 0.5838 -1181.1401 1156.7072)" width="3.52" height="63.95"/>
					</g>
				</g>
			</g>
			<g>
				<g>
					<path d="M1301.14,1243.55c-67.23,47.82-155.61,110.28-187.51,190.65c-15.34,38.65-12.65,80.86-8.56,121.47
						c5.73,56.79,13.78,113.26,17.66,170.22c2.96,43.35,70.18,46.69,67.19,2.85c-2.59-37.98-6.57-75.45-11.03-113.24
						c-4.81-40.84-15.22-88.03-9.24-128.9c11.21-76.55,104.89-141.39,162.97-182.7C1367.61,1279.02,1336.61,1218.33,1301.14,1243.55
						z"/>
				</g>
				<g>
					<g>
						<path style="fill:#00BEFB;" d="M1125.85,1693.02c0,0,10.01-61.53-10.31-86.27c-12.02-14.63-39.23-5.78-39.6,12.4l-1.17,57.05
							c8.75,5.16,20.13,10.78,34.84,14.18C1115.4,1691.72,1120.85,1692.55,1125.85,1693.02z"/>
						<path d="M1127.32,1694.93l-1.64-0.15c-5.54-0.53-11.08-1.43-16.47-2.68c-12.28-2.85-23.51-7.42-35.33-14.38l-0.89-0.52
							l1.19-58.07c0.18-8.93,6.3-16.56,15.97-19.91c10.15-3.53,20.65-1,26.75,6.43c20.59,25.06,11.1,85.12,10.68,87.67
							L1127.32,1694.93z M1076.55,1675.2c7.27,4.23,18.41,9.98,33.46,13.47c4.7,1.09,9.52,1.91,14.35,2.44
							c1.38-9.87,7.6-61.61-10.18-83.23c-5.16-6.28-14.15-8.38-22.88-5.34c-6.45,2.24-13.42,7.79-13.6,16.66L1076.55,1675.2z"/>
					</g>
					<g>
						<path style="fill:#712CE5;" d="M1181.16,1810.99c-6.61,4.06-14.27,7.08-21.07,9.36c-30.11,10.12-291.37,27.22-303.98,9.16
							c-32.8-46.97,99.33-78.62,112.49-82.35c0,0,70.7-20.05,106.78-73c0,0,48.32,39.86,112.72-0.36
							c2.58-1.63,20.56,79.16,8.54,119.63C1194.45,1800.8,1188.44,1806.53,1181.16,1810.99z"/>
						<path d="M927.71,1839.21c-36.17,0-68.34-1.97-73.04-8.69c-5.6-8.03-6.96-16.17-4.02-24.2c7.94-21.72,46.27-41.86,113.92-59.89
							c1.57-0.42,2.77-0.74,3.55-0.96c0.7-0.2,70.43-20.39,105.81-72.3l1.08-1.59l1.49,1.22c0.48,0.39,48.16,38.55,110.67-0.5
							l1.03-0.64l1.2,0.77c4.29,3.26,20.74,81.77,8.94,121.5c-2.07,6.97-7.54,13.22-16.25,18.56l0,0
							c-5.64,3.46-12.65,6.58-21.43,9.53c-14.95,5.02-86.29,11.86-159.03,15.24C980.42,1838.24,953.08,1839.21,927.71,1839.21z
							 M969.07,1748.8l0.01,0.05c-0.8,0.23-2.02,0.55-3.61,0.97c-82.81,22.06-106.36,43.55-111.52,57.69
							c-2.56,6.99-1.37,13.85,3.6,20.98c4.9,7.01,61.39,9.07,143.9,5.24c71.25-3.31,143.64-10.21,158.08-15.06
							c8.52-2.86,15.29-5.87,20.71-9.19l0,0c7.95-4.87,12.9-10.45,14.71-16.56c10.65-35.84-3.08-106.36-7.32-116.78
							c-33.21,20.21-62.04,19.14-80.47,14.62c-16.44-4.03-27.51-11.27-31.39-14.09C1040.85,1726.41,975.24,1747.08,969.07,1748.8z
							 M1189.04,1675.28c0,0-0.01,0-0.01,0.01C1189.03,1675.29,1189.04,1675.29,1189.04,1675.28z"/>
					</g>
					<g>
						<path style="fill:#00BEFB;" d="M1162.58,1743.42c-0.63-25.2,13.01-44.16,28.42-62.16c5.86,21.98,15.53,86.01,2.57,116.97
							C1192.75,1797.64,1163.44,1777.77,1162.58,1743.42z"/>
						<path d="M1194.35,1800.93l-1.8-1.27c-3.21-2.23-30.89-22.49-31.74-56.2c-0.67-26.6,14.54-46.65,28.85-63.35l2.18-2.54
							l0.86,3.23c5.39,20.24,16,85.83,2.49,118.1L1194.35,1800.93z M1190.13,1685c-13.71,16.26-26.4,34.3-25.8,58.37
							c0.72,28.51,21.75,46.93,28.43,52.08C1204.05,1764.97,1195.47,1707.44,1190.13,1685z"/>
					</g>
					<g>
						<path style="fill:#00BEFB;" d="M1087.23,1734.76c-14.21,9.89-30.39,16.77-46.65,22.35c-21.4,7.35-44.11,12.37-66.43,15.47
							c-22.13,3.07-45.05,3.94-67.02-0.04c-1.86-0.34-3.7-0.75-5.54-1.15c16.73-7.94,38.51-16.12,67.01-24.23
							c0,0,70.7-20.05,106.78-73c0,0,18.31,15.07,47.38,17.31C1115.44,1709.25,1103,1723.78,1087.23,1734.76z"/>
						<path d="M938.59,1776.98c-11.27,0-21.81-0.9-31.78-2.71c-1.52-0.28-3.03-0.61-4.54-0.94l-6.1-1.32l4.66-2.22
							c18.05-8.58,40.69-16.76,67.29-24.33c0.7-0.2,70.51-20.5,105.81-72.3l1.08-1.59l1.49,1.22c0.18,0.14,18.27,14.74,46.4,16.92
							l2.41,0.19l-0.93,2.24c-7.24,17.58-19.4,32.4-36.15,44.06h0c-12.38,8.62-27.34,15.79-47.08,22.57
							c-20.36,7-42.83,12.23-66.76,15.55C961.63,1776.09,949.75,1776.98,938.59,1776.98z M907.14,1770.75
							c0.1,0.02,0.2,0.04,0.3,0.05c19.46,3.53,41.21,3.53,66.47,0.03c23.71-3.29,45.95-8.47,66.11-15.39
							c19.42-6.67,34.1-13.71,46.21-22.13c15.48-10.78,26.9-24.33,33.97-40.31c-23.56-2.42-39.57-12.8-44.42-16.33
							c-36.34,51.73-105.99,71.98-106.69,72.17C944.98,1755.71,924.18,1763.07,907.14,1770.75z"/>
					</g>
					<g>
						<path d="M1151.63,1823.44c-0.15,0.89-0.31,1.77-0.53,2.65c-2.56,10.08-9.21,17.36-14.85,16.21
							c-4.71-0.95-7.25-7.47-6.42-15.43L1151.63,1823.44z"/>
						<path d="M1137.43,1844.18c-0.51,0-1.02-0.05-1.53-0.15c-5.55-1.12-8.77-8.25-7.82-17.33l0.14-1.34l25.57-4.03l-0.43,2.43
							l-1.73-0.31l1.71,0.45c-0.16,0.88-0.32,1.76-0.54,2.63C1150.19,1836.83,1143.65,1844.18,1137.43,1844.18z M1131.47,1828.4
							c-0.36,6.46,1.71,11.49,5.12,12.18c4.16,0.82,10.27-4.96,12.8-14.92c0.01-0.03,0.01-0.06,0.02-0.08L1131.47,1828.4z"/>
					</g>
					<g>
						<path d="M1161.38,1822.32c0.62,7.62,4.09,13.33,8.79,13.68c5.79,0.43,11.15-7.57,12.07-17.83c0.19-2.12,0.16-4.12-0.08-6.07
							C1182.15,1812.11,1176.15,1816.48,1161.38,1822.32z"/>
						<path d="M1170.61,1837.78c-0.19,0-0.39-0.01-0.58-0.02c-5.52-0.41-9.7-6.56-10.41-15.29l-0.11-1.3l1.21-0.48
							c14.32-5.67,20.33-9.97,20.39-10.01l2.42-1.75l0.36,2.96c0.25,2.09,0.28,4.2,0.08,6.44
							C1183,1829.41,1177.19,1837.78,1170.61,1837.78z M1163.27,1823.47c0.8,6.16,3.6,10.53,7.03,10.79
							c4.89,0.4,9.37-7.08,10.18-16.23c0.08-0.97,0.13-1.91,0.12-2.84C1177.66,1816.92,1172.11,1819.9,1163.27,1823.47z"/>
					</g>
					<g>
						<path d="M970.01,1838.92c0.06,0.89,0.12,1.78,0.12,2.74c-0.08,10.28-4.87,18.58-10.68,18.5c-5.74-0.08-10.4-8.5-10.31-18.78
							c0-0.48,0.01-0.96,0.08-1.37L970.01,1838.92z"/>
						<path d="M959.52,1861.92c-0.04,0-0.07,0-0.1,0c-6.85-0.09-12.14-9.12-12.05-20.55c0-0.58,0.02-1.16,0.11-1.66l0.24-1.38
							l23.93-1.26l0.12,1.72c0.06,0.94,0.13,1.87,0.12,2.88c-0.06,7.27-2.31,13.78-6.02,17.42
							C963.96,1860.95,961.78,1861.92,959.52,1861.92z M950.89,1841.69c0.01,9.03,3.91,16.65,8.58,16.72
							c1.19-0.02,2.67-0.59,3.93-1.83c3.01-2.95,4.91-8.67,4.97-14.93c0-0.3,0-0.59-0.01-0.88L950.89,1841.69z"/>
					</g>
					<g>
						<path d="M934,1840.41c0.07,0.41,0.06,0.89,0.06,1.3c-0.06,10.28-4.83,18.59-10.64,18.52c-5.81-0.07-10.42-8.48-10.36-18.76
							c0-0.2,0-0.41,0-0.62L934,1840.41z"/>
						<path d="M923.49,1861.99c-0.03,0-0.06,0-0.09,0c-6.85-0.08-12.16-9.1-12.1-20.53l0-2.33l24.19-0.52l0.24,1.52
							c0.07,0.48,0.08,1.03,0.08,1.52c-0.04,7.33-2.28,13.85-5.98,17.49C927.94,1861,925.75,1861.99,923.49,1861.99z
							 M914.83,1842.57c0.25,8.66,4.07,15.85,8.61,15.89c0.02,0,0.04,0,0.05,0c1.34,0,2.64-0.62,3.88-1.84
							c2.92-2.88,4.79-8.37,4.92-14.43L914.83,1842.57z"/>
					</g>
					<g>
						<path d="M897.34,1839.49c1.23,10.2-2.47,18.89-8.27,19.38c-5.8,0.49-11.45-7.42-12.68-17.62c-0.17-1.36-0.26-2.72-0.21-4.03
							L897.34,1839.49z"/>
						<path d="M888.56,1860.66c-6.56,0-12.59-8.23-13.92-19.19c-0.2-1.64-0.27-3.05-0.22-4.31l0.07-1.88l24.42,2.61l0.17,1.39
							c0.87,7.22-0.54,13.9-3.78,17.88c-1.69,2.07-3.79,3.27-6.09,3.47C888.99,1860.65,888.77,1860.66,888.56,1860.66z
							 M877.96,1839.19c0.04,0.58,0.09,1.2,0.17,1.87c1.11,9.11,6.06,16.46,10.79,16.07c1.34-0.11,2.57-0.85,3.66-2.18
							c2.41-2.96,3.58-8.18,3.15-13.85L877.96,1839.19z"/>
					</g>
					<g>
						
							<rect x="1049.92" y="1706.44" transform="matrix(0.5411 -0.841 0.841 0.5411 -979.5113 1682.3301)" width="3.52" height="64.4"/>
					</g>
					<g>
						
							<rect x="1010.81" y="1726.95" transform="matrix(0.5608 -0.828 0.828 0.5608 -1010.6625 1610.4424)" width="3.52" height="61.71"/>
					</g>
					<g>
						
							<rect x="971.98" y="1740.55" transform="matrix(0.5968 -0.8024 0.8024 0.5968 -1028.6575 1495.5171)" width="3.52" height="61.48"/>
					</g>
				</g>
			</g>
		</g>
		<g>
			<g>
				<g>
					<path style="fill:#FFBC00;" d="M1637.11,685.12l-75.48,378.33l-51.09,255.96c-0.04,0.79-63.86,52.44-79.26,64.93
						c-0.99,0.85-2.43-0.12-2.15-1.37l73.66-347.39l77.84-366.96c83.15-41.78,136.21-152.81,94.34-242.37
						c-37.23-79.38-124.84-118.69-202.05-145.51c-102.45-35.64-497.31-102.73-588.77-110.55c-3.57-0.41-7.22-0.64-10.69-0.88
						c-0.36-0.15-0.61-0.05-0.87-0.12c-73.73-6.38-173.23-15.48-252.88,45.51c82.38-230.26,760.33-33.58,863.18-7.89
						c128.74,32.28,220.46,114.23,258.95,195.9C1785.24,494.9,1726.86,657.62,1637.11,685.12z"/>
					<path d="M1430.46,1386.41c-0.54,0-1.09-0.15-1.59-0.45c-1.16-0.7-1.75-2.06-1.45-3.39l151.68-715.16l0.76-0.38
						c78.81-39.6,136.6-147.93,93.53-240.06c-36.92-78.71-122.34-117.26-201.03-144.59C1373.02,247.84,980.11,180.14,884,171.93
						c-3.21-0.37-6.44-0.58-9.54-0.8l-1.7-0.22c-0.02,0.06-0.3,0.05-0.63-0.04l-1.31-0.08c-72.37-6.26-171.51-14.85-250.04,45.29
						l-4.73,3.63l2.01-5.61c32.92-92,162.93-127.47,386.44-105.44c178.7,17.62,368.94,67.64,450.18,89
						c11.97,3.15,21.65,5.69,28.65,7.44c139.91,35.08,226.1,124.69,260.11,196.86c22.59,47.99,18.93,120.23-9.32,184.05
						c-22.99,51.92-57.74,88.48-95.47,100.49l-126.36,633.26c-0.03,0.93-0.05,1.25-74.55,61.64l-5.32,4.31
						C1431.84,1386.17,1431.16,1386.41,1430.46,1386.41z M1430.85,1383.32C1430.85,1383.32,1430.85,1383.32,1430.85,1383.32
						L1430.85,1383.32z M1430.15,1382.98c0,0-0.01,0.01-0.01,0.01L1430.15,1382.98z M1582.18,669.8l-77.67,366.13l-73.43,346.29
						l4.41-3.58c17.28-14,69.06-55.97,73.44-60.1l126.65-634.81l1-0.31c37.15-11.38,71.51-47.42,94.29-98.87
						c27.86-62.93,31.53-134.02,9.36-181.12c-33.67-71.43-119.06-160.16-257.79-194.94c-7.01-1.75-16.7-4.3-28.69-7.45
						c-81.16-21.34-271.21-71.31-449.63-88.9c-217.02-21.4-345.02,11.4-380.61,97.49c78.78-56.97,176.12-48.54,247.59-42.37
						l1.62,0.14c0.33,0.02,0.68,0.02,1.07,0.14l0.89,0.06c3.16,0.21,6.44,0.44,9.65,0.81c96.18,8.21,489.64,76.02,589.15,110.64
						c79.38,27.57,165.59,66.53,203.07,146.42c19.89,42.54,19.8,92.45-0.25,140.53C1657.49,611.15,1623.21,648.93,1582.18,669.8z"/>
				</g>
				<g>
					<path style="fill:#FFE59C;" d="M558.39,1217.53c-7.25,94.45,746.89,159.23,857.79,166.44c7.47,0.49,14.11-4.67,15.69-12.1
						l148.83-703.27c83.08-41.75,136.16-152.79,94.22-242.37c-37.14-79.35-124.74-118.65-201.96-145.43
						c-102.5-35.65-497.37-102.78-588.72-110.61c-3.61-0.36-11.35-0.98-11.61-0.98c-73.72-6.41-154.93-11.86-221.83,24.14
						c-61.48,33.13-85.93,106.96-82.07,174.11c1.51,26.84,3.51,50.59,17,78.62c18.52,38.47,37.17,52.42,36.47,60.64
						C622.19,507.16,571.32,1049.03,558.39,1217.53z"/>
					<path d="M1417.17,1385.76c-0.37,0-0.74-0.01-1.11-0.04c-7.65-0.5-771.61-57.26-852.44-150.42c-5.1-5.88-7.45-11.9-6.99-17.9
						l1.76,0.13l-1.76-0.13c7.47-97.31,29.58-343.78,62.24-694c0.99-10.58,1.54-16.51,1.56-16.81c0.26-3.06-3.52-8.14-8.74-15.17
						c-6.9-9.28-17.33-23.31-27.57-44.58c-13.34-27.71-15.61-51.31-17.18-79.28c-2.05-35.66,3.72-70.45,16.68-100.61
						c14.42-33.56,37.35-59.54,66.32-75.15c69.93-37.64,158.29-29.96,222.81-24.35c0,0,0,0,0,0c0.32,0,8.38,0.66,11.63,0.98
						c96.23,8.25,489.68,76.11,589.13,110.7c79.39,27.54,165.59,66.46,202.98,146.35c19.91,42.54,19.84,92.46-0.2,140.54
						c-18.81,45.14-53.07,82.91-94.07,103.76l-148.65,702.45C1431.89,1380.22,1425.09,1385.76,1417.17,1385.76z M623.94,506.86
						c0,0-0.04,0.45-1.57,16.86c-32.67,350.21-54.77,596.65-62.23,693.94c-0.39,5.03,1.68,10.19,6.14,15.33
						c30.6,35.27,173.48,71.16,413.2,103.79c198.73,27.06,395.1,42.71,436.81,45.43c6.54,0.43,12.45-4.07,13.85-10.71l149-704.1
						l0.76-0.38c98.18-49.33,128.03-166.11,93.41-240.05c-36.83-78.71-122.25-117.22-200.94-144.52
						c-99.27-34.53-492.17-102.28-588.3-110.52c-3.57-0.35-11.07-0.95-11.52-0.97c-64.18-5.57-151.93-13.2-220.93,23.93
						c-42.7,23.01-86.44,80.4-81.15,172.46c1.55,27.58,3.77,50.83,16.83,77.96c10.09,20.96,20.4,34.83,27.22,44.01
						C620.63,497.53,624.32,502.49,623.94,506.86L623.94,506.86z"/>
				</g>
			</g>
			<g>
				<g>
					<path style="fill:#FFBC00;" d="M874.08,1099.29l-3.11-1.65c15.43-29.06,27.1-60.04,34.71-92.09
						c8.01-33.71,11.47-68.41,10.29-103.12l3.52-0.12c1.19,35.03-2.31,70.04-10.39,104.06
						C901.43,1038.7,889.64,1069.96,874.08,1099.29z"/>
				</g>
				<g>
					<path style="fill:#FFBC00;" d="M906.8,1091.1l-3.04-1.77c14.46-24.93,25.15-51.66,31.79-79.46
						c6.97-29.23,9.41-59.45,7.24-89.82l3.51-0.25c2.19,30.73-0.27,61.3-7.33,90.89C932.26,1038.82,921.44,1065.87,906.8,1091.1z"/>
				</g>
			</g>
			<g>
				<g>
					<path style="fill:#00BEFB;" d="M1561.63,1063.45l-51.09,255.96c-0.04,0.79-63.86,52.44-79.26,64.93
						c-0.99,0.85-2.43-0.12-2.15-1.37l73.66-347.39L1561.63,1063.45z"/>
					<path d="M1430.46,1386.41c-0.54,0-1.09-0.15-1.59-0.45c-1.16-0.7-1.75-2.06-1.45-3.39l74.12-349.55l62.09,29.42l-51.36,257.3
						c-0.03,0.93-0.05,1.25-74.55,61.64l-5.32,4.31C1431.84,1386.17,1431.16,1386.41,1430.46,1386.41z M1430.85,1383.32
						C1430.85,1383.32,1430.85,1383.32,1430.85,1383.32L1430.85,1383.32z M1430.15,1382.98c0,0-0.01,0.01-0.01,0.01L1430.15,1382.98
						z M1504.05,1038.11l-72.96,344.12l4.41-3.58c17.28-14,69.06-55.97,73.44-60.1l50.7-254.1L1504.05,1038.11z"/>
				</g>
				<g>
					<path style="fill:#00BEFB;" d="M1503.39,1033.86l-0.42,1.78l-10.33,48.91l-60.76,287.35c-1.58,7.38-8.21,12.51-15.68,12.06
						c-108.29-7.02-829.58-68.98-857.07-159.73c-0.42-1.38-0.68-2.77-0.75-4.17c-0.05-0.88-0.01-1.67,0.03-2.55
						c1.43-19.23,3.46-43.25,5.73-70.87c0.29-2.65,0.48-5.3,0.68-8.04c0.24-1.95,0.38-3.98,0.52-6.09
						c0.54-5.83,1.07-11.74,1.6-17.84c3.96-46.7,8.73-100.65,13.81-156.82c0.18-1.5,0.26-3.09,0.43-4.59
						c0.59-6.54,1.17-13.07,1.76-19.6c0.8-8.83,1.6-17.75,2.4-26.67l420.31,206.62l496.61-79.78L1503.39,1033.86z"/>
					<path d="M1417.13,1385.76c-0.34,0-0.68-0.01-1.03-0.03c-8.27-0.54-828.53-61.54-858.65-160.97c-0.46-1.51-0.74-3.05-0.82-4.58
						c-0.05-0.85-0.02-1.63,0.02-2.47c1.09-14.74,2.5-31.86,4.1-51.18l1.65-20.02c0.28-2.67,0.48-5.3,0.67-8.01
						c0.24-2.01,0.39-4,0.52-6.09c0.54-5.87,1.08-11.78,1.6-17.87c3.76-44.34,8.4-97.1,13.81-156.82c0.09-0.78,0.15-1.53,0.21-2.28
						c0.07-0.79,0.13-1.58,0.22-2.35l1.76-19.55c0.8-8.83,1.6-17.75,2.4-26.67l0.23-2.55l2.3,1.13l419.81,206.37l496.06-79.69
						l3.61,0.04l-0.92,3.9l-71.07,336.22C1431.91,1380.23,1425.07,1385.76,1417.13,1385.76z M586.86,909.71
						c-0.73,8.07-1.45,16.13-2.18,24.12l-1.76,19.6c-0.09,0.78-0.15,1.53-0.21,2.28c-0.07,0.79-0.13,1.58-0.22,2.35
						c-5.4,59.67-10.04,112.43-13.8,156.76c-0.52,6.1-1.06,12.02-1.6,17.85c-0.14,2.1-0.29,4.17-0.53,6.15
						c-0.19,2.67-0.38,5.34-0.67,8.01l-1.64,19.98c-1.59,19.31-3,36.42-4.08,50.84c-0.04,0.92-0.07,1.59-0.03,2.32
						c0.07,1.26,0.3,2.52,0.68,3.76c11.24,37.1,148.45,75.15,396.8,110.04c205.52,28.87,414.1,45.56,458.71,48.45
						c6.65,0.42,12.44-4.09,13.84-10.67l70.98-335.76l-495.77,79.67l-0.5-0.25L586.86,909.71z"/>
				</g>
				<g>
					<path d="M1561.63,1063.45l-8.36,45.37l-60.63-24.26l-1.15-0.46l-492.22,76.36l-418.53-202.6c0.18-1.5,0.26-3.09,0.43-4.59
						c0.59-6.54,1.17-13.07,1.76-19.6c0.8-8.83,1.6-17.75,2.4-26.67l420.31,206.62l497.14-78.05l0.18,0.08L1561.63,1063.45z"/>
					<path d="M999,1162.28l-0.5-0.24L578.85,958.9l0.14-1.25c0.08-0.73,0.15-1.49,0.21-2.24c0.07-0.79,0.13-1.58,0.22-2.35
						l1.76-19.55c0.8-8.83,1.6-17.75,2.4-26.67l0.23-2.55l2.3,1.13l419.82,206.38l497.1-78.04l0.47,0.2l60.12,28.48l-9,48.82
						l-63.33-25.34L999,1162.28z M582.62,956.82l416.93,201.82l492.15-76.35l60.23,24.11l7.73-41.93l-57.12-27.07l-497.17,78.05
						l-0.5-0.25L586.86,909.71c-0.72,8.07-1.45,16.13-2.18,24.12l-1.76,19.6c-0.09,0.78-0.15,1.53-0.21,2.28
						C582.68,956.08,582.65,956.45,582.62,956.82z"/>
				</g>
				<g>
					<ellipse style="fill:#FF4568;" cx="1281.37" cy="1221.52" rx="64.58" ry="65.57"/>
					<path d="M1281.3,1288.85c-16.13,0-31.52-5.88-43.72-16.77c-13.45-12-21.41-28.6-22.43-46.74
						c-2.08-37.06,25.95-68.93,62.47-71.03c17.44-1.01,34.4,4.9,47.57,16.66c13.45,12,21.41,28.6,22.42,46.74l0,0
						c2.08,37.06-25.95,68.93-62.47,71.03C1283.85,1288.82,1282.57,1288.85,1281.3,1288.85z M1281.45,1157.72
						c-1.21,0-2.42,0.04-3.63,0.11c-34.59,2-61.12,32.2-59.16,67.33c0.96,17.2,8.51,32.94,21.26,44.32
						c12.46,11.13,28.42,16.75,45.02,15.77c34.58-2,61.12-32.2,59.15-67.33l0,0c-0.96-17.2-8.51-32.94-21.25-44.31
						C1311.29,1163.28,1296.71,1157.72,1281.45,1157.72z"/>
				</g>
			</g>
		</g>
		<g>
			<g>
				<g>
					<path d="M606.85,672.58l-6.25,69.4c-36.7-19.35-78.1-24.75-120.69-3.05c-61.05,31.15-98.95,98.29-133.78,155
						c-22.07,35.99-73.26-4.73-51.28-40.5c46.31-75.48,100.22-159.86,189.12-186.56C527.28,653.87,568.8,657.72,606.85,672.58z"/>
				</g>
				<g>
					<g>
						<path style="fill:#FFFFFF;" d="M264.12,845.89c0,0-11.17-55.68,76.23-2.92c0,0,39.89,16.58,53.07,32.54
							c13.17,15.96-19.88,27.78-19.88,27.78s0.7,21.05,35.39,88.98c25.37,49.69-39.04,55.17-82.3,2.16
							c-29.01-35.55,2.17-50.83-98.81-40.14c-26.45,2.8-51.46,7.66-77.46,11.85c-10.06,1.62-22.62,1.16-31.1-5.32
							c-8.98-6.86-10.73-24.41-1.32-32.05c0,0-34.43-23.09,4.07-42.75c0,0-28.63-12.88,28.87-28.12
							C208.39,842.66,264.12,845.89,264.12,845.89z"/>
						<path d="M391.31,1033.74c-19.04,0-45.14-12.58-66.05-38.21c-7.8-9.56-11.33-17.68-14.17-24.2
							c-7.5-17.23-10.04-23.04-83.09-15.3c-19.39,2.05-38.44,5.29-56.86,8.42c-6.8,1.15-13.61,2.31-20.5,3.42
							c-6.22,1-21.82,2.46-32.45-5.66c-5-3.83-8.18-10.83-8.3-18.28c-0.09-5.97,1.82-11.31,5.29-15
							c-4.1-3.21-13.78-11.95-13.15-22.66c0.45-7.58,5.96-14.41,16.37-20.32c-2.48-1.73-5.61-4.76-5.27-8.84
							c0.62-7.59,12.82-14.43,37.29-20.91c50.82-13.47,100.83-12.55,111.65-12.16c-0.5-4.76-0.67-16.01,7.76-21.95
							c12.06-8.48,36.09-1.96,71.42,19.36c1.41,0.57,40.22,16.81,53.51,32.93c3.14,3.81,4.18,7.76,3.08,11.75
							c-2.69,9.77-17.82,16.47-22.43,18.31c0.76,5.38,5.56,29.23,35.07,87.02c8.8,17.24,7.77,31.1-2.83,38.02
							C403.32,1032.31,397.72,1033.74,391.31,1033.74z M276.1,949.16c29.18,0,32.28,7.15,38.21,20.78
							c2.75,6.32,6.17,14.19,13.67,23.38c26.35,32.29,62.13,43.41,77.76,33.22c8.91-5.82,9.5-18.02,1.62-33.47
							c-34.47-67.51-35.56-88.85-35.58-89.73l-0.04-1.28l1.21-0.43c0.19-0.07,18.9-6.87,21.52-16.43c0.78-2.86,0-5.66-2.4-8.57
							c-12.74-15.44-51.99-31.87-52.38-32.03c-42.63-25.71-60.38-24.84-67.82-19.62c-8.79,6.18-6.05,20.43-6.02,20.57l0.45,2.23
							l-2.27-0.13c-0.55-0.03-56.12-3.03-112.68,11.96c-29.54,7.83-34.41,14.51-34.69,17.79c-0.33,3.99,6.02,6.99,6.08,7.02
							l3.32,1.51l-3.25,1.66c-11.03,5.63-16.83,11.99-17.25,18.88c-0.67,11.26,13.23,20.74,13.36,20.84l1.97,1.33l-1.84,1.5
							c-3.67,2.97-5.72,7.98-5.63,13.75c0.09,6.4,2.74,12.35,6.91,15.54c9.54,7.29,23.99,5.92,29.75,4.98
							c6.88-1.11,13.69-2.27,20.48-3.42c18.47-3.14,37.58-6.38,57.08-8.45C249.03,950.27,264.59,949.16,276.1,949.16z"/>
					</g>
					<g>
						
							<rect x="285.64" y="831.1" transform="matrix(0.4227 -0.9063 0.9063 0.4227 -610.5529 755.0867)" width="3.52" height="51.35"/>
					</g>
					<g>
						
							<rect x="364.67" y="891.16" transform="matrix(0.4913 -0.871 0.871 0.4913 -596.8936 776.6467)" width="3.52" height="16.31"/>
					</g>
					<g>
						<path style="fill:#FFFFFF;" d="M117.94,928.77c0,0,35.52-35.51,114.93-28.62L117.94,928.77z"/>
						<path d="M119.18,930.02l-2.49-2.49c1.47-1.47,37-36.02,116.33-29.13l-0.3,3.51C155.16,895.17,119.53,929.66,119.18,930.02z"/>
					</g>
					<g>
						<path style="fill:#FFFFFF;" d="M120.66,886.8c0,0,27.8-17.94,99.74-19.2L120.66,886.8z"/>
						<path d="M121.61,888.28l-1.91-2.96c1.15-0.74,29.05-18.22,100.66-19.48l0.06,3.52C149.81,870.6,121.88,888.1,121.61,888.28z"
							/>
					</g>
					<g>
						
							<rect x="328.28" y="922.85" transform="matrix(0.0606 -0.9982 0.9982 0.0606 -644.2474 1227.5446)" width="3.52" height="66.39"/>
					</g>
				</g>
			</g>
			<g>
				<g>
					<path d="M1752.86,1148.25c-0.45,42.18-65.15,48.48-64.71,6.1c0.74-66.83,4.4-144.11-30.56-203.74
						c-28.21-48.1-74.33-64.72-122.96-64.17l12.81-65.76c54.23,2.12,106.03,21.41,144.95,66.99
						C1753.15,958.77,1753.85,1059.31,1752.86,1148.25z"/>
				</g>
				<g>
					<g>
						<path style="fill:#FFFFFF;" d="M1782.73,1158.69c0,0,38.94-40.81-62.69-44.14c0,0-42.41-7.84-61.97-1.59
							s2.02,34.27,2.02,34.27s-11.76,17.35-77.01,55.64c-47.73,28.01,3.64,67.84,68.21,46.81c43.29-14.1,25.13-44.02,104.55,20.18
							c20.8,16.82,39.31,34.59,58.99,52.33c7.62,6.87,18.45,13.34,29.03,12.52c11.21-0.87,21.99-14.7,18.1-26.28
							c0,0,41.26-0.63,19.24-38.24c0,0,30.96,4.8-9.42-39.48C1831.41,1186.43,1782.73,1158.69,1782.73,1158.69z"/>
						<path d="M1842.03,1336.55c-12.51,0-23.91-9.01-28.38-13.04c-5.23-4.71-10.37-9.43-15.5-14.12
							c-13.85-12.7-28.18-25.82-43.41-38.14c-57.47-46.46-62.67-42.95-78.11-32.53c-5.85,3.95-13.13,8.86-24.78,12.65
							c-41.78,13.6-78.95,2.46-87.47-16.47c-5.22-11.6,1.27-23.82,17.82-33.53c55.52-32.57,72.21-50.05,75.69-54.16
							c-2.91-4.05-12.2-18.08-9.16-27.8c1.22-3.9,4.18-6.63,8.81-8.11c19.75-6.32,61.07,1.21,62.82,1.53
							c40.87,1.32,64.57,8.97,70.19,22.72c3.92,9.59-2.19,18.97-5.13,22.69c9.26,5.55,51.94,32.13,87.66,71.29
							c17.25,18.91,23.88,31.36,20.28,38.06c-1.91,3.55-6.09,4.39-9.08,4.49c5.69,10.76,6.68,19.56,2.93,26.21
							c-5.2,9.23-17.85,11.3-23,11.76c0.98,5.07-0.29,10.67-3.61,15.7c-4.05,6.12-10.41,10.22-16.59,10.71
							C1843.34,1336.53,1842.68,1336.55,1842.03,1336.55z M1692.01,1228.4c11.09,0,27.2,9.59,64.94,40.11
							c15.32,12.39,29.69,25.55,43.58,38.28c5.12,4.69,10.26,9.4,15.48,14.1c4.37,3.94,15.76,12.99,27.72,12.07
							c5.13-0.4,10.46-3.9,13.93-9.14c3.21-4.85,4.17-10.26,2.64-14.83l-0.77-2.28l2.4-0.04c0.17,0,16.75-0.39,22.21-10.11
							c3.4-6.05,1.9-14.62-4.46-25.49l-1.86-3.18l3.65,0.55c0.07,0.01,6.94,0.94,8.79-2.53c1.55-2.9,1.05-11.19-19.78-34.02
							c-39.73-43.57-88.14-71.4-88.62-71.68l-1.95-1.11l1.55-1.63c0.1-0.11,9.93-10.63,5.84-20.61
							c-3.48-8.49-17.99-18.94-67.31-20.55c-0.68-0.11-42.46-7.72-61.37-1.67c-3.52,1.13-5.66,3.02-6.53,5.8
							c-2.97,9.49,9.28,25.56,9.41,25.72l0.77,1.01l-0.71,1.05c-0.49,0.72-12.72,18.12-77.58,56.17
							c-14.81,8.69-20.78,19.28-16.39,29.05c7.73,17.18,43.79,27.39,83.16,14.57c11.19-3.64,18.24-8.4,23.91-12.22
							C1680.89,1231.59,1685.62,1228.4,1692.01,1228.4z"/>
					</g>
					<g>
						
							<rect x="1755.66" y="1129.57" transform="matrix(0.1396 -0.9902 0.9902 0.1396 368.22 2734.1252)" width="3.52" height="51.22"/>
					</g>
					<g>
						
							<rect x="1666.51" y="1139.57" transform="matrix(0.0623 -0.9981 0.9981 0.0623 418.8733 2741.2258)" width="3.52" height="16.25"/>
					</g>
					<g>
						<path style="fill:#FFFFFF;" d="M1861.97,1308.44c0,0-11.1-49.33-81.67-86.94L1861.97,1308.44z"/>
						<path d="M1860.25,1308.82c-0.11-0.49-11.84-49.04-80.79-85.78l1.66-3.11c70.48,37.56,82.1,86.06,82.56,88.11L1860.25,1308.82z
							"/>
					</g>
					<g>
						<path style="fill:#FFFFFF;" d="M1881.93,1271.58c0,0-13.92-30.31-73.87-70.69L1881.93,1271.58z"/>
						<path d="M1880.34,1272.32c-0.14-0.3-14.54-30.42-73.25-69.98l1.96-2.92c59.67,40.2,73.9,70.17,74.48,71.42L1880.34,1272.32z"
							/>
					</g>
					<g>
						
							<rect x="1666.99" y="1182.28" transform="matrix(0.4928 -0.8701 0.8701 0.4928 -211.3707 2068.5542)" width="3.52" height="66.62"/>
					</g>
				</g>
			</g>
		</g>
		<g>
			<g>
				<g id="XMLID_92_">
					<path style="fill:#FFFFFF;" d="M1061.01,697.53c51.88,11.9,93.3-6.41,141.14,3.88c26.85,5.78,51.76,16.77,47.03,47.17
						c-8.66,55.67-57.24,85.57-112.09,99.17c-70.85,17.57-148.86,6.47-205.85-38.11c-68.94-53.92-92-118.05-75.59-148.74
						c14.54-27.18,36.98-28.61,63.72-22.4C967.02,649.56,1013.53,686.64,1061.01,697.53z"/>
					<path d="M1072.47,857.46c-52.98,0-103.45-16.04-142.32-46.44c-69.2-54.12-93.02-119.25-76.06-150.95
						c16.15-30.2,42.26-28.72,65.67-23.29c24,5.57,47.99,17.82,71.18,29.67c23.05,11.78,46.89,23.95,70.45,29.36h0
						c26.51,6.09,50.53,4.18,73.76,2.33c22.61-1.8,43.95-3.49,67.36,1.54c23.28,5.01,53.62,15.55,48.4,49.15
						c-5.35,34.39-29.37,79.77-113.41,100.61C1115.82,854.83,1093.94,857.46,1072.47,857.46z M896.57,637.16
						c-15.2,0-29.23,5.63-39.36,24.57c-16.27,30.42,7.38,93.54,75.12,146.52c53.77,42.05,130.16,56.18,204.34,37.78
						c45.35-11.25,101.38-37.33,110.78-97.73c4.71-30.32-21.93-40.07-45.67-45.17c-22.9-4.92-43.99-3.25-66.33-1.47
						c-23.5,1.86-47.79,3.79-74.82-2.41c-23.99-5.5-48.02-17.78-71.26-29.65c-23.01-11.76-46.8-23.91-70.38-29.38
						C911.44,638.46,903.87,637.16,896.57,637.16z"/>
				</g>
				<g>
					<path d="M901.19,784.25c-4.66-57.99,18.57-108.78,38.87-141.17l2.98,1.87c-20.02,31.95-42.93,82-38.35,139.02L901.19,784.25z"
						/>
				</g>
				<g>
					<path d="M994.76,841.7c-1.4-28.05,1.15-56.13,7.61-83.45c5.71-24.17,14.46-47.68,26.02-69.89l3.12,1.63
						c-11.42,21.94-20.07,45.18-25.71,69.07c-6.38,27.01-8.91,54.75-7.52,82.47L994.76,841.7z"/>
				</g>
				<g>
					<path d="M1111.6,852.07c-1.56-15.05-3.41-45.03,1.76-76.72c4.34-26.58,12.51-52.44,24.28-76.86l3.17,1.53
						c-11.63,24.12-19.69,49.66-23.98,75.9c-5.11,31.28-3.28,60.91-1.74,75.79L1111.6,852.07z"/>
				</g>
			</g>
			<g>
				<ellipse style="fill:#FF6DCE;" cx="1070.2" cy="614.3" rx="55.19" ry="56.04"/>
				<path d="M1070.17,672.1c-14.85,0-28.86-5.75-39.56-16.25c-10.94-10.73-17.1-25.13-17.36-40.56
					c-0.53-31.86,24.57-58.23,55.98-58.77c0.33-0.01,0.67-0.01,1-0.01c14.85,0,28.86,5.75,39.56,16.25
					c10.94,10.73,17.1,25.14,17.36,40.57c0.53,31.86-24.57,58.23-55.98,58.77C1070.84,672.1,1070.5,672.1,1070.17,672.1z
					 M1070.22,560.03c-0.31,0-0.62,0-0.94,0.01c-29.46,0.51-53.02,25.27-52.52,55.19c0.24,14.5,6.03,28.04,16.3,38.11
					c10.26,10.07,23.77,15.46,38.03,15.23c29.46-0.51,53.02-25.27,52.52-55.2c-0.24-14.5-6.03-28.04-16.3-38.11
					C1097.29,565.42,1084.15,560.03,1070.22,560.03z"/>
			</g>
			<g>
				<g>
					<g>
						<path style="fill:#FFFFFF;" d="M1173.44,494.6c-0.76,2.68-4.25,19.22-4.95,24.76c-10.06,77.91,31.17,152.74,99.58,185.63
							c11.6,5.65,23.94,10.03,36.91,13.02c95.48,22.01,190.45-38.66,212.13-135.6c21.76-96.91-38.08-193.37-133.55-215.38
							c-7.5-1.74-15.07-2.96-22.53-3.71c-55.24-5.42-108.38,15.97-145.05,54.99c-0.02,0.08-0.02,0.08-0.02,0.08
							c-1.17,1.22-2.37,2.51-3.54,3.73C1194.54,442.33,1180.92,466.84,1173.44,494.6z"/>
						<path d="M1344.58,724.31c-13.31,0-26.71-1.51-39.99-4.58c-12.95-2.98-25.49-7.41-37.29-13.16
							c-70.25-33.78-110.66-109.11-100.56-187.44c0.7-5.51,4.16-22.03,5-25.01c7.37-27.36,20.61-51.98,39.33-73.17l3.61-3.85
							c38.23-40.67,91.64-60.9,146.51-55.53c7.7,0.77,15.36,2.03,22.76,3.75c96.31,22.21,156.82,119.77,134.87,217.48
							c-10.69,47.77-39.15,88.31-80.16,114.13C1410,715.01,1377.57,724.31,1344.58,724.31z M1217.51,419.24l-0.3,0.37l-3.54,3.73
							c-18.32,20.72-31.3,44.87-38.53,71.71l-0.01,0.02c-0.77,2.71-4.22,19.16-4.9,24.51c-9.91,76.83,29.71,150.7,98.59,183.83
							c11.57,5.63,23.86,9.97,36.54,12.9c45.31,10.45,91.97,2.51,131.42-22.34c40.21-25.33,68.12-65.08,78.6-111.93
							c21.52-95.83-37.8-191.51-132.23-213.28c-7.26-1.68-14.76-2.92-22.31-3.68C1307.2,359.82,1254.97,379.56,1217.51,419.24z"/>
					</g>
					<g>
						<path d="M1175.43,602.38c20.14,56.11,68.3,101.09,127.15,114.58c6.12,1.4,12.31,2.47,18.54,3.19
							c16.37,1.9,33.02,1.47,49.3-1.28c9.04-20.98-17.59-32.86-13.14-53.73c3.77-17.34,17.12-28.28,10.19-45.9
							c-5.48-14.22-23.41-20.31-35.08-30.52c-22.99-20.09-5.36-31.83-1.38-60.69c2.59-18.37-4.49-27.2-19.6-38.1
							c-17.53-12.6-21.65-10.37-15.47-31.59c3.66-12.76,14.25-27.13,12.94-39.93c-1.99-18.27-19.68-31.69-42.36-30.98
							c-3.45,0.11-6.96,0.31-10.36,0.58c-48.47,27.38-80.25,75.31-88.62,128.17c0.14,1.62-0.17,3.2-0.83,5.06
							c-2.97,8.39-1.67,20.94-1.33,29.7C1166.06,568.7,1169.55,586.01,1175.43,602.38z"/>
						<path d="M1341.29,723.08c-6.8,0-13.6-0.39-20.36-1.18c-6.28-0.73-12.58-1.81-18.73-3.22c-58.4-13.39-107.6-57.72-128.42-115.7
							l0,0c-6.06-16.88-9.47-34.36-10.15-51.96c-0.05-1.39-0.13-2.88-0.21-4.43c-0.43-8.26-0.97-18.54,1.64-25.93
							c0.63-1.76,0.84-3.06,0.74-4.33l-0.02-0.21l0.03-0.21c8.72-55.05,41.34-102.22,89.5-129.43l0.73-0.22
							c3.74-0.29,7.25-0.49,10.44-0.58c0.6-0.02,1.2-0.03,1.79-0.03c22.61,0,40.3,13.49,42.38,32.58
							c0.89,8.73-3.32,17.89-7.39,26.75c-2.23,4.85-4.34,9.43-5.6,13.85c-4.8,16.51-3.67,17.26,7.2,24.47
							c2.18,1.45,4.71,3.13,7.61,5.21c15.6,11.26,23.03,20.5,20.31,39.78c-1.26,9.14-3.84,16.52-6.12,23.04
							c-5.01,14.35-8.04,23.01,6.91,36.07c3.82,3.34,8.45,6.31,12.94,9.18c9.23,5.92,18.78,12.04,22.63,22.03
							c4.78,12.16,0.49,21.25-4.05,30.88c-2.36,4.99-4.79,10.15-6.07,16.02c-1.95,9.12,2.48,16.38,7.17,24.07
							c5.41,8.87,11.01,18.04,5.86,29.99l-0.38,0.88l-0.94,0.16C1360.98,722.25,1351.14,723.08,1341.29,723.08z M1169.32,516.26
							c0.11,1.7-0.19,3.44-0.94,5.58c-2.38,6.73-1.86,16.62-1.45,24.57c0.08,1.57,0.16,3.07,0.22,4.48
							c0.66,17.24,4.01,34.36,9.94,50.9l0,0c20.41,56.87,68.65,100.34,125.89,113.47c6.03,1.38,12.21,2.45,18.35,3.16
							c15.93,1.85,32.02,1.48,47.84-1.11c3.79-9.86-0.96-17.65-5.99-25.88c-4.85-7.94-9.85-16.14-7.61-26.64
							c1.37-6.26,3.89-11.61,6.32-16.78c4.39-9.31,8.19-17.36,3.96-28.11c-3.44-8.93-12.09-14.47-21.25-20.34
							c-4.59-2.95-9.34-5.99-13.36-9.5c-16.74-14.63-12.85-25.77-7.92-39.88c2.22-6.36,4.74-13.58,5.96-22.37
							c2.48-17.6-4.11-25.77-18.88-36.43c-2.85-2.04-5.34-3.7-7.49-5.13c-11.69-7.75-13.97-10.03-8.64-28.38
							c1.34-4.66,3.6-9.58,5.79-14.34c3.88-8.43,7.89-17.15,7.09-24.92c-1.93-17.71-19.02-30.15-40.56-29.4
							c-3.02,0.09-6.35,0.27-9.89,0.54C1209.72,416.4,1177.89,462.49,1169.32,516.26z"/>
					</g>
					<g>
						<g>
							
								<rect x="1519.79" y="546.89" transform="matrix(0.9946 -0.1035 0.1035 0.9946 -48.4313 163.9741)" width="71.96" height="3.52"/>
						</g>
						<g>
							
								<rect x="1509.18" y="462.76" transform="matrix(0.9286 -0.371 0.371 0.9286 -61.8927 607.3096)" width="76.73" height="3.52"/>
						</g>
						<g>
							
								<rect x="1467.44" y="392.37" transform="matrix(0.7677 -0.6408 0.6408 0.7677 97.0161 1055.8909)" width="74.89" height="3.52"/>
						</g>
					</g>
				</g>
				<g>
					<g>
						<path style="fill:#FFFFFF;" d="M691.1,390.83c-0.76,2.68-4.25,19.22-4.95,24.76c-10.06,77.91,31.17,152.74,99.58,185.63
							c11.6,5.65,23.94,10.03,36.91,13.02c95.48,22.01,190.45-38.66,212.13-135.6c21.76-96.91-38.08-193.37-133.55-215.38
							c-7.5-1.74-15.07-2.96-22.53-3.71c-55.24-5.42-108.38,15.97-145.05,54.99c-0.02,0.08-0.02,0.08-0.02,0.08
							c-1.17,1.22-2.37,2.51-3.54,3.73C712.2,338.56,698.58,363.07,691.1,390.83z"/>
						<path d="M862.23,620.54c-13.31,0-26.71-1.51-39.99-4.58c-12.96-2.98-25.5-7.41-37.28-13.16
							C714.7,569.03,674.29,493.7,684.4,415.37c0.7-5.49,4.16-22.03,5-25.01c7.37-27.36,20.61-51.98,39.33-73.17l3.61-3.85
							c38.23-40.67,91.64-60.91,146.51-55.53c7.68,0.77,15.34,2.03,22.76,3.75c96.31,22.21,156.82,119.77,134.87,217.48
							c-10.69,47.77-39.15,88.31-80.16,114.13C927.65,611.24,895.22,620.54,862.23,620.54z M735.17,315.48l-0.3,0.37l-3.54,3.73
							c-18.32,20.72-31.3,44.87-38.53,71.71l-0.01,0.02c-0.77,2.71-4.22,19.17-4.9,24.5c-9.92,76.83,29.71,150.7,98.59,183.83
							c11.55,5.63,23.85,9.97,36.54,12.9c45.3,10.45,91.97,2.51,131.42-22.34c40.21-25.33,68.12-65.08,78.6-111.93
							c21.52-95.83-37.8-191.51-132.23-213.28c-7.28-1.69-14.78-2.92-22.31-3.68C824.86,256.06,772.62,275.79,735.17,315.48z"/>
					</g>
					<g>
						<path d="M693.08,498.61c20.14,56.11,68.3,101.09,127.15,114.58c6.12,1.4,12.31,2.47,18.54,3.19
							c16.37,1.9,33.02,1.47,49.3-1.28c9.04-20.98-17.59-32.86-13.14-53.73c3.77-17.34,17.12-28.28,10.19-45.9
							c-5.48-14.22-23.41-20.31-35.08-30.52c-22.99-20.09-5.36-31.83-1.38-60.69c2.59-18.37-4.49-27.2-19.6-38.1
							c-17.53-12.6-21.65-10.37-15.47-31.59c3.66-12.76,14.25-27.13,12.94-39.93c-1.99-18.27-19.68-31.69-42.36-30.98
							c-3.45,0.11-6.96,0.31-10.36,0.58c-48.47,27.38-80.25,75.31-88.62,128.17c0.14,1.62-0.17,3.2-0.83,5.06
							c-2.97,8.39-1.67,20.94-1.33,29.7C683.71,464.93,687.21,482.24,693.08,498.61z"/>
						<path d="M858.93,619.31c-6.79,0-13.59-0.39-20.36-1.18c-6.28-0.73-12.58-1.82-18.73-3.23
							c-58.4-13.39-107.6-57.72-128.42-115.7l0,0c-6.06-16.88-9.47-34.36-10.15-51.96c-0.05-1.39-0.13-2.88-0.21-4.43
							c-0.43-8.26-0.97-18.54,1.64-25.93c0.63-1.76,0.85-3.05,0.74-4.33l-0.02-0.21l0.03-0.21c8.72-55.05,41.34-102.22,89.5-129.43
							l0.73-0.22c3.75-0.29,7.26-0.49,10.44-0.58c23.28-0.7,42.03,12.96,44.16,32.55c0.89,8.73-3.32,17.89-7.39,26.75
							c-2.23,4.85-4.34,9.43-5.6,13.85c-4.8,16.51-3.67,17.26,7.2,24.47c2.18,1.45,4.72,3.13,7.61,5.21
							c15.6,11.26,23.03,20.51,20.31,39.78c-1.26,9.14-3.84,16.52-6.12,23.04c-5.01,14.35-8.04,23.01,6.91,36.07
							c3.82,3.34,8.45,6.31,12.94,9.18c9.23,5.92,18.78,12.04,22.63,22.03c4.78,12.15,0.49,21.25-4.05,30.88
							c-2.36,4.99-4.79,10.15-6.07,16.02c-1.95,9.12,2.48,16.38,7.18,24.06c5.41,8.87,11.01,18.04,5.86,29.99l-0.38,0.88l-0.94,0.16
							C878.64,618.49,868.79,619.31,858.93,619.31z M686.97,412.48c0.11,1.71-0.19,3.44-0.95,5.58c-2.38,6.73-1.86,16.62-1.44,24.57
							c0.08,1.57,0.16,3.07,0.21,4.48c0.66,17.24,4.01,34.36,9.94,50.9l0,0c20.41,56.87,68.65,100.34,125.89,113.47
							c6.03,1.38,12.2,2.45,18.35,3.16c15.94,1.85,32.03,1.47,47.84-1.11c3.79-9.86-0.96-17.65-5.99-25.88
							c-4.84-7.94-9.85-16.14-7.61-26.64c1.36-6.26,3.89-11.61,6.32-16.78c4.39-9.31,8.19-17.36,3.96-28.11
							c-3.44-8.93-12.09-14.47-21.25-20.34c-4.59-2.95-9.34-5.99-13.36-9.5c-16.74-14.63-12.85-25.77-7.92-39.88
							c2.22-6.36,4.74-13.58,5.96-22.37c2.48-17.6-4.11-25.77-18.88-36.43c-2.85-2.04-5.34-3.7-7.49-5.13
							c-11.69-7.75-13.98-10.03-8.64-28.38c1.34-4.66,3.6-9.58,5.79-14.34c3.88-8.43,7.89-17.15,7.09-24.92
							c-1.93-17.71-18.94-30.12-40.56-29.4c-3.01,0.09-6.34,0.27-9.89,0.54C727.37,312.64,695.54,358.72,686.97,412.48z"/>
					</g>
					<g>
						<rect x="742.86" y="223.11" transform="matrix(0.7908 -0.612 0.612 0.7908 -3.0263 509.9904)" width="3.52" height="72.63"/>
					</g>
					<g>
						<rect x="682.19" y="272" transform="matrix(0.5967 -0.8025 0.8025 0.5967 26.6861 674.0784)" width="3.52" height="76.99"/>
					</g>
					<g>
						<rect x="650.18" y="353.14" transform="matrix(0.3184 -0.948 0.948 0.3184 74.2807 884.1237)" width="3.52" height="74.54"/>
					</g>
				</g>
			</g>
		</g>
	</g>
	<g>
		<g>
			<path style="fill:#FFFFFF;" d="M910.61,958.35c-1.92,28.2-9.13,54.85-20.8,78.92c-27.89,58.32-81.1,101.91-144.8,118.15
				c-22.52,5.84-46.34,8.12-70.84,6.47s-47.79-7.11-69.32-15.92c-67.19-27.11-117.15-85.52-132.7-155.74
				c-4.49-19.75-6.16-40.58-4.72-61.79c2.28-33.5,12.03-64.71,27.7-92.15c29.04-51.31,78.36-89.41,136.59-104.59
				c22.88-6.07,47.14-8.49,72.15-6.8c25.01,1.69,48.72,7.35,70.57,16.43c60.48,24.88,106.8,75.1,126.38,136.45
				C908.97,903.11,912.52,930.32,910.61,958.35z"/>
			<path d="M689.68,1164.17c-5.19,0-10.39-0.18-15.62-0.53c-24.35-1.64-47.86-7.04-69.87-16.05
				c-68.06-27.46-118.07-86.15-133.76-156.98c-4.59-20.2-6.19-41.15-4.75-62.29c2.26-33.15,11.65-64.41,27.93-92.9
				c29.34-51.83,79.52-90.26,137.68-105.42c23.45-6.22,47.92-8.53,72.71-6.85c24.8,1.68,48.73,7.25,71.13,16.56
				c61.07,25.12,107.5,75.26,127.38,137.54c8.43,26.22,11.75,53.54,9.87,81.21c-1.9,28.02-8.96,54.79-20.97,79.57
				c-28.33,59.25-81.53,102.66-145.95,119.09C727.37,1161.81,708.67,1164.17,689.68,1164.17z M688.39,726.14
				c-19.14,0-37.98,2.43-56.21,7.26c-57.25,14.92-106.64,52.74-135.51,103.75c-16.01,28.04-25.26,58.79-27.48,91.4
				c-1.41,20.79,0.16,41.41,4.68,61.28c15.44,69.71,64.66,127.46,131.65,154.49c21.66,8.87,44.8,14.18,68.77,15.8
				c23.98,1.62,47.62-0.54,70.28-6.41c63.41-16.17,115.76-58.89,143.65-117.21c11.82-24.38,18.76-50.71,20.63-78.28l0,0
				c1.85-27.22-1.41-54.11-9.7-79.9c-19.57-61.29-65.26-110.63-125.38-135.36c-22.05-9.17-45.61-14.66-70.02-16.3
				C698.62,726.31,693.49,726.14,688.39,726.14z"/>
		</g>
		<g>
			<g>
				<polygon points="730.71,1026.05 637.31,1020.21 595.62,937.55 647.32,860.71 740.72,866.54 782.41,949.21 				"/>
				<path d="M731.6,1027.87l-95.41-5.96l-42.61-84.49l52.84-78.53l95.41,5.96l42.61,84.49L731.6,1027.87z M638.42,1018.52
					l91.38,5.71l50.57-75.15l-40.77-80.85l-91.38-5.71l-50.57,75.15L638.42,1018.52z"/>
			</g>
			<g>
				<path d="M910.61,958.35c-1.92,28.2-9.13,54.85-20.8,78.92l-7.34-0.5l-41.71-82.71l51.7-76.83l8.37,0.56
					C908.97,903.11,912.52,930.32,910.61,958.35z"/>
				<path d="M890.88,1039.1l-9.52-0.64l-42.63-84.53l52.84-78.53l10.57,0.71l0.36,1.14c8.43,26.22,11.75,53.55,9.87,81.22l0,0
					c-1.9,28.02-8.96,54.79-20.97,79.57L890.88,1039.1z M883.59,1035.08l5.15,0.35c11.51-24.07,18.27-50.04,20.11-77.2l0,0
					c1.82-26.82-1.32-53.31-9.34-78.77l-6.16-0.42l-50.56,75.14L883.59,1035.08z"/>
			</g>
			<g>
				<path d="M774.45,741.33l-27.09,40.28l-93.41-5.8l-22.21-44.11c22.88-6.07,47.14-8.49,72.15-6.8
					C728.89,726.59,752.6,732.25,774.45,741.33z"/>
				<path d="M748.25,783.43l-95.43-5.92l-23.64-46.95l2.1-0.56c23.46-6.22,47.92-8.53,72.72-6.86c24.8,1.68,48.73,7.25,71.13,16.56
					l1.98,0.82L748.25,783.43z M655.06,774.12l91.4,5.67l25.32-37.65c-21.47-8.68-44.35-13.89-68.02-15.49
					c-23.66-1.59-47.03,0.49-69.48,6.2L655.06,774.12z"/>
			</g>
			<g>
				<path d="M745.01,1155.42c-22.52,5.84-46.34,8.12-70.84,6.47s-47.79-7.11-69.32-15.92l25.66-38.18l93.41,5.8L745.01,1155.42z"/>
				<path d="M689.68,1164.17c-5.18,0-10.39-0.18-15.62-0.53c-24.35-1.64-47.86-7.04-69.87-16.05l-2-0.82l27.43-40.8l95.43,5.92
					l22.52,44.69l-2.11,0.55C727.37,1161.81,708.67,1164.17,689.68,1164.17z M607.53,1145.14c21.08,8.38,43.53,13.42,66.76,14.99
					c23.23,1.57,46.15-0.41,68.17-5.87l-19.64-38.98l-91.4-5.67L607.53,1145.14z"/>
			</g>
			<g>
				<path d="M534.27,914.01l-51.7,76.83l-10.42-0.62c-4.49-19.75-6.16-40.58-4.72-61.79c2.28-33.5,12.03-64.71,27.7-92.15
					L534.27,914.01z"/>
				<path d="M483.48,992.66l-12.74-0.76l-0.29-1.29c-4.59-20.21-6.19-41.17-4.76-62.29c2.26-33.15,11.65-64.41,27.93-92.9l1.63-2.84
					l41.07,81.57L483.48,992.66z M473.58,988.55l8.1,0.48l50.56-75.15l-37.18-73.85c-15.02,27.25-23.72,57.02-25.86,88.52
					C467.81,948.9,469.29,969.07,473.58,988.55z"/>
			</g>
		</g>
	</g>
</g>
</svg>
