<?xml version="1.0" encoding="iso-8859-1"?>
<!-- Generator: Adobe Illustrator 30.0.0, SVG Export Plug-In . SVG Version: 9.03 Build 0)  -->
<svg version="1.1" id="Capa_1" xmlns="http://www.w3.org/2000/svg" xmlns:xlink="http://www.w3.org/1999/xlink" x="0px" y="0px"
	 viewBox="0 0 2000 2000" style="enable-background:new 0 0 2000 2000;" xml:space="preserve">
<g>
	<g>
		<g id="XMLID_00000037689378380679216540000011308314232834450818_">
			<rect x="100.63" y="1496.24" style="fill:#00C793;" width="1798.46" height="403.76"/>
		</g>
		<g style="opacity:0.27;">
			<g style="opacity:0.27;">
				<rect x="100.63" y="1496.24" style="fill:#FFFFFF;" width="196.03" height="403.76"/>
			</g>
			<g style="opacity:0.27;">
				<rect x="807.05" y="1496.24" style="fill:#FFFFFF;" width="209.11" height="403.76"/>
			</g>
			<g style="opacity:0.27;">
				<rect x="1152.91" y="1496.24" style="fill:#FFFFFF;" width="206.49" height="403.76"/>
			</g>
			<g style="opacity:0.27;">
				<rect x="1496.14" y="1496.24" style="fill:#FFFFFF;" width="169.81" height="403.76"/>
			</g>
			<g style="opacity:0.27;">
				<rect x="1802.69" y="1496.24" style="fill:#FFFFFF;" width="96.39" height="403.76"/>
			</g>
			<g style="opacity:0.27;">
				<rect x="464.69" y="1496.24" style="fill:#FFFFFF;" width="205.63" height="403.76"/>
			</g>
		</g>
		<g>
			<g>
				<rect x="100.63" y="1537.06" style="fill:#FFFFFF;" width="1798.46" height="17.58"/>
			</g>
			<g>
				<rect x="952.82" y="1537.06" style="fill:#FFFFFF;" width="17.93" height="362.47"/>
			</g>
		</g>
	</g>
	<g>
		<g>
			<g>
				<g>
					<g>
						<path d="M744.48,1264.35c-36.16,151.2-74.64,305.31-60.53,461.87c1.71,18.91,14.94,35.16,35.16,35.16
							c17.7,0,36.87-16.13,35.16-35.16c-13.6-150.85,23.19-297.51,58.02-443.17C822.79,1239.06,755.01,1220.29,744.48,1264.35z"/>
					</g>
					<g>
						<g>
							<path style="fill:#FFFFFF;" d="M690.99,1677.67c0,0,12.56-62.67-5.12-89.31c-10.45-15.75-36.31-8.27-37.61,10.4l-4.07,58.59
								c7.9,5.82,18.22,12.28,31.77,16.65C681.3,1675.72,686.35,1676.89,690.99,1677.67z"/>
							<path d="M692.38,1679.69l-1.68-0.28c-5.15-0.87-10.29-2.13-15.27-3.74c-11.33-3.66-21.59-9.03-32.27-16.91l-0.78-0.57
								l4.14-59.55c0.66-9.46,7.35-17.22,17.04-19.78c9.38-2.47,18.71,0.88,23.79,8.54c17.87,26.93,5.89,88.04,5.38,90.63
								L692.38,1679.69z M646.02,1656.5c6.55,4.78,16.65,11.35,30.49,15.82c4.27,1.38,8.66,2.49,13.07,3.32
								c1.81-10.13,10.3-62.98-5.17-86.3c-5.14-7.74-13.68-8.73-19.96-7.08c-8.21,2.17-13.88,8.7-14.43,16.63L646.02,1656.5z"/>
						</g>
						<g>
							<path style="fill:#00BEFB;" d="M736.45,1802.25c-6.38,3.78-13.69,6.43-20.15,8.37c-28.63,8.62-273.36,10.7-284.19-8.61
								c-28.16-50.24,96.81-74.95,109.29-78c0,0,67.03-16.42,103.47-68.72c0,0,43.01,43.85,105.22,6.32
								c2.49-1.52,15.06,82.61,1.72,123.51C749.39,1792.56,743.48,1798.09,736.45,1802.25z"/>
							<path d="M591.8,1818.69c-8.02,0-16.14-0.05-24.29-0.15c-48.19-0.59-130.06-3.42-136.93-15.68
								c-5.04-8.99-5.7-17.81-1.96-26.22c9.48-21.31,46.14-39.33,108.98-53.57c1.49-0.34,2.63-0.6,3.38-0.78
								c0.67-0.17,66.76-16.8,102.45-68.02l1.21-1.74l1.48,1.51c0.11,0.11,10.78,10.81,28.74,16.85
								c24.04,8.09,49.04,4.44,74.32-10.81l1.04-0.63l1.14,0.79c3.96,3.13,15.23,85.19,2.12,125.41
								c-2.3,7.03-7.73,13.12-16.14,18.11c-5.47,3.24-12.19,6.03-20.54,8.54C704.28,1816.07,650.86,1818.69,591.8,1818.69z
								 M541.82,1725.68l0.01,0.04c-0.76,0.19-1.92,0.45-3.44,0.79c-76.85,17.42-100.36,37.66-106.54,51.57
								c-3.31,7.45-2.72,14.99,1.81,23.08c4.2,7.48,56.75,12.93,133.9,13.88c66.65,0.82,134.53-1.97,148.24-6.09
								c8.08-2.43,14.54-5.11,19.76-8.2l0,0c7.66-4.53,12.56-9.97,14.59-16.17c11.85-36.34,2.77-109.16-0.7-120.54
								c-32.03,18.73-58.87,15.91-75.86,10.16c-14.93-5.05-24.83-12.99-28.45-16.23C609.33,1707.77,547.45,1724.37,541.82,1725.68z"
								/>
						</g>
						<g>
							<path style="fill:#FFFFFF;" d="M722.64,1731.67c0.72-25.95,14.45-44.64,29.77-62.22c4.32,22.95,10,89.35-3.71,120.42
								C747.96,1789.21,721.65,1767.03,722.64,1731.67z"/>
							<path d="M749.35,1792.76l-1.8-1.58c-2.87-2.48-27.63-24.91-26.66-59.56c0.76-27.32,15.99-47.02,30.21-63.33l2.38-2.74
								l0.67,3.56c3.97,21.11,10.45,89.1-3.83,121.45L749.35,1792.76z M751.32,1673.4c-13.57,15.86-26.23,33.62-26.92,58.32l0,0
								c-0.81,29.13,17.46,49.21,23.65,55.15C760.06,1756.18,755.13,1696.9,751.32,1673.4z"/>
						</g>
						<g>
							<path style="fill:#FFFFFF;" d="M652.77,1718.29c-13.78,9.33-29.24,15.44-44.7,20.21c-20.35,6.29-41.82,10.11-62.81,11.97
								c-20.81,1.84-42.25,1.38-62.55-4.02c-1.72-0.46-3.41-1-5.11-1.52c16.02-7.18,36.78-14.29,63.81-20.94
								c0,0,67.03-16.42,103.47-68.72c0,0,16.3,16.58,43.32,20.61C680.43,1693.74,668.06,1707.94,652.77,1718.29z"/>
							<path d="M524.1,1753.21c-15.32,0-29.13-1.67-41.84-5.06c-1.39-0.37-2.77-0.79-4.15-1.22l-5.51-1.68l4.28-1.92
								c17.31-7.75,38.88-14.84,64.11-21.04c0.66-0.17,66.82-16.88,102.45-68.02l1.21-1.73l1.49,1.51
								c0.16,0.16,16.25,16.21,42.33,20.1l2.26,0.34l-0.91,2.1c-7.67,17.64-19.8,32.16-36.05,43.16
								c-12.02,8.14-26.38,14.64-45.17,20.44c-19.39,5.99-40.64,10.04-63.18,12.04C537.99,1752.88,530.89,1753.21,524.1,1753.21z
								 M482.7,1744.63c0.15,0.05,0.3,0.08,0.45,0.12c17.95,4.78,38.2,6.07,61.94,3.97c22.28-1.97,43.3-5.98,62.45-11.9
								c18.45-5.7,32.51-12.05,44.24-19.99l0,0c15.05-10.18,26.43-23.49,33.87-39.58c-21.63-3.84-35.97-15.26-40.51-19.31
								c-36.65,50.94-102.65,67.6-103.32,67.76C518.89,1731.35,499.03,1737.71,482.7,1744.63z"/>
						</g>
						<g>
							<path d="M708.24,1813.3c-0.19,0.9-0.38,1.81-0.63,2.69c-2.91,10.21-9.5,17.3-14.71,15.79c-4.35-1.26-6.37-8.11-5.18-16.24
								L708.24,1813.3z"/>
							<path d="M694.33,1833.74c-0.65,0-1.3-0.09-1.92-0.27c-5.22-1.51-7.8-8.82-6.43-18.18l0.2-1.35l24.29-2.66l-0.51,2.38
								l-1.72-0.37l1.71,0.44c-0.2,0.92-0.39,1.84-0.65,2.74c-2.12,7.43-6.22,13.59-10.7,16.07
								C697.16,1833.34,695.72,1833.74,694.33,1833.74z M689.29,1817.14c-0.67,6.61,1.01,12.06,4.1,12.96
								c1.04,0.31,2.22,0.09,3.51-0.62c3.64-2.02,7.18-7.49,9.02-13.96c0.02-0.07,0.04-0.13,0.06-0.2L689.29,1817.14z"/>
						</g>
						<g>
							<path d="M717.4,1812.73c0.18,7.88,3.12,13.94,7.49,14.59c5.38,0.79,10.81-7.12,12.19-17.62c0.28-2.17,0.37-4.23,0.25-6.24
								C737.32,1803.46,731.48,1807.59,717.4,1812.73z"/>
							<path d="M725.62,1829.13c-0.33,0-0.66-0.02-1-0.07c-5.17-0.76-8.78-7.3-8.98-16.28l-0.03-1.26l1.19-0.43
								c13.63-4.97,19.45-9.02,19.51-9.06l2.58-1.81l0.19,3.15c0.13,2.14,0.05,4.29-0.26,6.58c-1.01,7.66-4.16,14.32-8.2,17.38
								C729.01,1828.51,727.31,1829.13,725.62,1829.13z M719.21,1813.93c0.41,6.37,2.82,11.19,5.93,11.64
								c1.06,0.16,2.2-0.2,3.35-1.08c3.28-2.47,5.96-8.37,6.84-15.03c0.13-0.99,0.21-1.95,0.26-2.89
								C732.7,1808.2,727.42,1810.87,719.21,1813.93z"/>
						</g>
						<g>
							<path d="M537.93,1818.44c0.01,0.92,0.02,1.84-0.04,2.83c-0.62,10.56-5.51,18.81-10.94,18.39c-5.36-0.42-9.26-9.36-8.64-19.92
								c0.03-0.49,0.06-0.98,0.14-1.4L537.93,1818.44z"/>
							<path d="M527.35,1841.43c-0.18,0-0.36-0.01-0.53-0.02c-6.44-0.5-10.94-10.06-10.26-21.77c0.04-0.61,0.08-1.18,0.18-1.67
								l0.3-1.4l22.63,0.13l0.02,1.72c0.01,0.96,0.02,1.92-0.04,2.95c-0.44,7.67-3.11,14.51-6.94,17.86
								C531.05,1840.68,529.21,1841.43,527.35,1841.43z M520.05,1820.1c-0.51,10.16,3.27,17.51,7.04,17.8
								c1.09,0.07,2.2-0.36,3.31-1.33c3.1-2.7,5.36-8.76,5.74-15.42c0.02-0.33,0.03-0.65,0.04-0.97L520.05,1820.1z"/>
						</g>
						<g>
							<path d="M504.25,1817.83c0.04,0.43,0.01,0.92-0.01,1.34c-0.59,10.57-5.48,18.82-10.9,18.41c-5.42-0.41-9.28-9.34-8.69-19.9
								c0.01-0.21,0.02-0.42,0.04-0.63L504.25,1817.83z"/>
							<path d="M493.72,1839.36c-0.17,0-0.35-0.01-0.52-0.02c-6.44-0.49-10.96-10.05-10.31-21.76l0.13-2.3l1.73,0.01l21.09,0.84
								l0.15,1.53c0.05,0.51,0.02,1.1,0,1.61c-0.43,7.67-3.07,14.52-6.9,17.87C497.43,1838.6,495.58,1839.36,493.72,1839.36z
								 M486.36,1818.87c-0.25,9.72,3.44,16.68,7.11,16.96c1.08,0.09,2.19-0.36,3.3-1.33c3.02-2.65,5.23-8.5,5.68-14.98
								L486.36,1818.87z"/>
						</g>
						<g>
							<path d="M470.07,1814.72c0.62,10.56-3.3,19.28-8.73,19.44c-5.44,0.16-10.29-8.3-10.91-18.86c-0.08-1.41-0.1-2.82,0.01-4.16
								L470.07,1814.72z"/>
							<path d="M461.19,1835.92c-6.36,0-11.84-8.95-12.52-20.52c-0.1-1.68-0.09-3.12,0.01-4.41l0.16-1.93l22.9,4.18l0.08,1.38
								c0.45,7.67-1.4,14.76-4.82,18.49c-1.62,1.78-3.57,2.74-5.61,2.81C461.33,1835.92,461.26,1835.92,461.19,1835.92z
								 M452.12,1813.23c0,0.61,0.02,1.26,0.06,1.96c0.6,10.28,5.32,17.46,9.11,17.21c1.09-0.03,2.14-0.59,3.12-1.66
								c2.57-2.81,4.08-8.41,3.96-14.54L452.12,1813.23z"/>
						</g>
						<g>
							
								<rect x="617.61" y="1688.97" transform="matrix(0.6253 -0.7804 0.7804 0.6253 -1110.335 1127.9119)" width="3.52" height="62.43"/>
						</g>
						<g>
							
								<rect x="580.07" y="1707.54" transform="matrix(0.6439 -0.7651 0.7651 0.6439 -1122.1957 1063.8829)" width="3.52" height="59.96"/>
						</g>
						<g>
							
								<rect x="543.24" y="1719.16" transform="matrix(0.6776 -0.7355 0.7355 0.6776 -1110.7152 964.8174)" width="3.52" height="60"/>
						</g>
					</g>
				</g>
				<g>
					<g>
						<path d="M1086.77,1264.35c36.16,151.2,74.64,305.31,60.53,461.87c-1.71,18.91-14.94,35.16-35.16,35.16
							c-17.7,0-36.87-16.13-35.16-35.16c13.6-150.85-23.19-297.51-58.02-443.17C1008.45,1239.06,1076.23,1220.29,1086.77,1264.35z"
							/>
					</g>
					<g>
						<g>
							<path style="fill:#FFFFFF;" d="M1140.25,1677.67c0,0-12.56-62.67,5.12-89.31c10.45-15.75,36.31-8.27,37.61,10.4l4.07,58.59
								c-7.9,5.82-18.22,12.28-31.77,16.65C1149.94,1675.72,1144.89,1676.89,1140.25,1677.67z"/>
							<path d="M1138.86,1679.69l-0.34-1.67c-0.52-2.59-12.5-63.7,5.38-90.63c5.08-7.66,14.4-11.01,23.79-8.54
								c9.69,2.56,16.38,10.33,17.04,19.78l4.14,59.55l-0.78,0.57c-10.69,7.88-20.94,13.25-32.28,16.91
								c-4.98,1.61-10.12,2.87-15.27,3.74L1138.86,1679.69z M1161.53,1581.57c-5.23,0-10.89,2.04-14.7,7.76
								c-15.48,23.32-6.99,76.18-5.17,86.3c4.41-0.82,8.8-1.94,13.07-3.32c13.84-4.47,23.94-11.05,30.49-15.82l-4.01-57.62
								c-0.55-7.93-6.21-14.46-14.43-16.63C1165.15,1581.82,1163.37,1581.57,1161.53,1581.57z"/>
						</g>
						<g>
							<path style="fill:#00BEFB;" d="M1094.79,1802.25c6.38,3.78,13.69,6.43,20.15,8.37c28.63,8.62,273.36,10.7,284.19-8.61
								c28.16-50.24-96.81-74.95-109.29-78c0,0-67.03-16.42-103.47-68.72c0,0-43.01,43.85-105.22,6.32
								c-2.49-1.52-15.06,82.61-1.72,123.51C1081.86,1792.56,1087.76,1798.09,1094.79,1802.25z"/>
							<path d="M1239.44,1818.69c-59.07,0-112.48-2.62-125.01-6.39c-8.35-2.51-15.07-5.3-20.54-8.54l0,0
								c-8.42-4.98-13.84-11.07-16.14-18.11c-13.11-40.22-1.84-122.28,2.12-125.41l0.96-0.76l1.23,0.61
								c25.27,15.25,50.28,18.89,74.31,10.8c17.97-6.04,28.64-16.74,28.74-16.85l1.48-1.51l1.21,1.73
								c35.69,51.23,101.78,67.86,102.44,68.02c0.75,0.19,1.89,0.44,3.38,0.78c62.83,14.24,99.5,32.26,108.98,53.57
								c3.74,8.41,3.08,17.23-1.95,26.22c-6.87,12.26-88.74,15.09-136.93,15.68C1255.59,1818.65,1247.46,1818.69,1239.44,1818.69z
								 M1081.79,1664.02c-3.47,11.38-12.55,84.2-0.7,120.54c2.02,6.2,6.93,11.64,14.59,16.17l0,0c5.22,3.09,11.68,5.77,19.76,8.2
								c13.71,4.12,81.58,6.91,148.24,6.09c77.15-0.95,129.71-6.4,133.9-13.88c4.53-8.08,5.12-15.63,1.81-23.08
								c-6.19-13.91-29.7-34.15-106.54-51.57c-1.52-0.34-2.68-0.61-3.44-0.79l0.01-0.04c-5.64-1.31-67.52-17.9-103.33-67.73
								c-3.62,3.24-13.52,11.18-28.45,16.23C1140.66,1679.93,1113.82,1682.76,1081.79,1664.02z"/>
						</g>
						<g>
							<path style="fill:#FFFFFF;" d="M1108.61,1731.67c-0.72-25.95-14.45-44.64-29.78-62.22c-4.32,22.95-10,89.35,3.71,120.42
								C1083.28,1789.21,1109.59,1767.03,1108.61,1731.67z"/>
							<path d="M1081.95,1792.69l-1.02-2.12c-14.28-32.35-7.81-100.34-3.83-121.45l0.67-3.56l2.38,2.73
								c14.22,16.31,29.45,36,30.2,63.33l0,0c0.97,34.62-23.79,57.07-26.61,59.52L1081.95,1792.69z M1079.93,1673.4
								c-3.81,23.5-8.74,82.78,3.27,113.47c6.27-6.03,24.46-26.11,23.65-55.15l0,0C1106.16,1707.01,1093.5,1689.26,1079.93,1673.4z"
								/>
						</g>
						<g>
							<path style="fill:#FFFFFF;" d="M1178.48,1718.29c13.78,9.33,29.24,15.44,44.7,20.21c20.35,6.29,41.82,10.11,62.81,11.97
								c20.81,1.84,42.25,1.38,62.55-4.02c1.72-0.46,3.41-1,5.11-1.52c-16.02-7.18-36.78-14.29-63.81-20.94
								c0,0-67.03-16.42-103.47-68.72c0,0-16.3,16.58-43.32,20.61C1150.81,1693.74,1163.19,1707.94,1178.48,1718.29z"/>
							<path d="M1307.15,1753.21c-6.8,0-13.89-0.33-21.31-0.99c-22.53-2-43.79-6.05-63.18-12.04c-18.79-5.81-33.15-12.3-45.17-20.44
								l0,0c-16.25-11-28.38-25.52-36.05-43.16l-0.91-2.1l2.26-0.34c26.08-3.89,42.17-19.94,42.33-20.1l1.49-1.51l1.21,1.73
								c35.65,51.17,101.78,67.86,102.45,68.02c25.23,6.21,46.8,13.29,64.11,21.04l4.28,1.92l-5.51,1.68
								c-1.38,0.43-2.75,0.85-4.14,1.22C1336.28,1751.53,1322.47,1753.21,1307.15,1753.21z M1145.59,1677.26
								c7.43,16.08,18.82,29.39,33.87,39.58l0,0c11.72,7.94,25.78,14.29,44.23,19.99c19.15,5.92,40.16,9.92,62.45,11.9
								c23.73,2.1,44,0.81,61.94-3.97c0.15-0.04,0.31-0.08,0.46-0.12c-16.33-6.92-36.19-13.28-59.12-18.92
								c-0.67-0.16-66.66-16.82-103.32-67.76C1181.56,1662,1167.22,1673.41,1145.59,1677.26z"/>
						</g>
						<g>
							<path d="M1123,1813.3c0.19,0.9,0.38,1.81,0.63,2.69c2.91,10.21,9.5,17.3,14.71,15.79c4.35-1.26,6.37-8.11,5.18-16.24
								L1123,1813.3z"/>
							<path d="M1136.91,1833.74c-1.39,0-2.83-0.4-4.26-1.19c-4.48-2.48-8.58-8.64-10.7-16.07c-0.26-0.93-0.47-1.87-0.66-2.81
								l-0.5-2.37l24.28,2.66l0.2,1.35c1.37,9.36-1.21,16.67-6.44,18.18C1138.21,1833.65,1137.57,1833.74,1136.91,1833.74z
								 M1125.28,1815.31c0.02,0.07,0.04,0.13,0.06,0.2c1.84,6.46,5.38,11.94,9.02,13.96c1.28,0.72,2.46,0.92,3.51,0.62
								c3.09-0.89,4.77-6.35,4.1-12.96L1125.28,1815.31z"/>
						</g>
						<g>
							<path d="M1113.85,1812.73c-0.18,7.88-3.12,13.94-7.48,14.59c-5.38,0.79-10.81-7.12-12.19-17.62
								c-0.29-2.17-0.37-4.23-0.25-6.24C1093.93,1803.46,1099.76,1807.59,1113.85,1812.73z"/>
							<path d="M1105.63,1829.13c-1.69,0-3.4-0.62-4.99-1.83c-4.05-3.06-7.19-9.72-8.2-17.38c-0.3-2.28-0.38-4.43-0.25-6.58
								l0.19-3.14l2.58,1.81c0.06,0.04,5.88,4.09,19.5,9.06l1.19,0.43l-0.03,1.26c-0.21,8.98-3.82,15.53-8.99,16.28
								C1106.29,1829.11,1105.96,1829.13,1105.63,1829.13z M1095.66,1806.57c0.04,0.94,0.13,1.9,0.26,2.89
								c0.88,6.66,3.56,12.55,6.84,15.03c1.15,0.87,2.28,1.24,3.35,1.08c3.11-0.45,5.51-5.27,5.93-11.64
								C1103.83,1810.87,1098.55,1808.2,1095.66,1806.57z"/>
						</g>
						<g>
							<path d="M1293.32,1818.44c-0.01,0.92-0.02,1.84,0.04,2.83c0.62,10.56,5.51,18.81,10.94,18.39c5.36-0.42,9.26-9.36,8.64-19.92
								c-0.03-0.49-0.06-0.98-0.14-1.4L1293.32,1818.44z"/>
							<path d="M1303.89,1841.43c-1.85,0-3.7-0.76-5.35-2.2c-3.83-3.35-6.5-10.19-6.94-17.86c-0.06-0.98-0.05-1.91-0.04-2.82
								l0.02-1.73l1.73-0.13l20.9-0.12l0.3,1.4c0.11,0.5,0.15,1.09,0.18,1.67c0.68,11.7-3.83,21.26-10.26,21.77
								C1304.25,1841.42,1304.07,1841.43,1303.89,1841.43z M1295.07,1820.19c0,0.32,0.01,0.64,0.04,0.97
								c0.39,6.66,2.64,12.71,5.74,15.42c1.1,0.96,2.2,1.4,3.3,1.33c3.77-0.3,7.56-7.67,7.04-17.8L1295.07,1820.19z"/>
						</g>
						<g>
							<path d="M1327,1817.83c-0.04,0.43-0.01,0.92,0.01,1.34c0.59,10.57,5.48,18.82,10.9,18.41c5.42-0.41,9.28-9.34,8.69-19.9
								c-0.01-0.21-0.02-0.42-0.04-0.63L1327,1817.83z"/>
							<path d="M1337.52,1839.36c-1.86,0-3.7-0.76-5.37-2.21c-3.82-3.35-6.47-10.2-6.9-17.87c-0.03-0.51-0.06-1.1-0.01-1.61
								l0.15-1.53l22.84-0.91l0.08,1.74l-1.72,0.72l1.75-0.1c0.65,11.71-3.87,21.26-10.31,21.76
								C1337.86,1839.35,1337.69,1839.36,1337.52,1839.36z M1328.79,1819.52c0.45,6.48,2.66,12.33,5.68,14.98
								c1.1,0.96,2.26,1.42,3.3,1.33c3.67-0.28,7.37-7.24,7.11-16.96L1328.79,1819.52z"/>
						</g>
						<g>
							<path d="M1361.17,1814.72c-0.62,10.56,3.29,19.28,8.73,19.44c5.44,0.16,10.29-8.3,10.91-18.86c0.08-1.41,0.1-2.82-0.01-4.16
								L1361.17,1814.72z"/>
							<path d="M1370.06,1835.92c-0.07,0-0.14,0-0.2,0c-2.05-0.06-3.98-1.03-5.61-2.81c-3.42-3.74-5.27-10.82-4.82-18.49l0.08-1.38
								l22.9-4.18l0.16,1.93c0.11,1.28,0.11,2.72,0.01,4.41C1381.89,1826.97,1376.41,1835.92,1370.06,1835.92z M1362.87,1816.2
								c-0.12,6.13,1.39,11.73,3.96,14.54c0.98,1.08,2.04,1.64,3.12,1.66c0.03,0,0.06,0,0.09,0c3.81,0,8.42-7.01,9.02-17.21
								c0.04-0.7,0.06-1.36,0.07-1.96L1362.87,1816.2z"/>
						</g>
						<g>
							
								<rect x="1180.62" y="1718.43" transform="matrix(0.7808 -0.6247 0.6247 0.7808 -809.0684 1134.0703)" width="62.43" height="3.52"/>
						</g>
						<g>
							
								<rect x="1219.42" y="1735.85" transform="matrix(0.765 -0.644 0.644 0.765 -825.4509 1212.9407)" width="59.96" height="3.52"/>
						</g>
						<g>
							
								<rect x="1256.32" y="1747.27" transform="matrix(0.7357 -0.6773 0.6773 0.7357 -844.6547 1333.4888)" width="59.99" height="3.52"/>
						</g>
					</g>
				</g>
			</g>
			<g>
				<g>
					<g>
						<path d="M1738.6,692.5c-88.47,3.53-175.67,9.8-263.54,20.8c-86.65,10.85-172.83,25.09-258.73,40.76
							c-18.57,3.39-33.56,17.74-31.82,37.83c1.51,17.46,19.15,35.23,37.83,31.82c85.9-15.67,172.08-29.92,258.73-40.76
							c87.87-11,175.08-17.27,263.54-20.8C1789.6,760.36,1783.48,690.71,1738.6,692.5z"/>
					</g>
					<g>
						<g>
							<path style="fill:#FFFFFF;" d="M1709.49,621.65c12.88-5.63,183.96-44.62,188.06,2.74c2.81,32.43-83.96,38.05-95.77,44.96
								c1.43,0.04,3.51,0.23,5.93,0.84c1.55,0.39,2.6,0.8,2.88,0.92c3.98,1.73,7.73,4.04,10.96,6.94
								c7.54,6.77,10.93,16.89,9.93,26.87c-1.14,11.37-7.92,20.2-14.94,28.75c0.25,0.19,3,2.1,3.24,2.29
								c16.52,13.1,16.72,36.1,3.05,52.15c-32.64,38.36-90.94,18.22-90.94,18.22c-47.33,57.15-87.31,4.14-87.31,4.14
								c-35.66,26.75-62-8.6-70.81-85.16c-8.81-76.56,49.22-45.84,49.22-45.84C1630.03,583.74,1700.93,625.39,1709.49,621.65z"/>
							<path d="M1686.28,834.62c-0.33,0-0.66,0-0.99-0.01c-21.57-0.49-36.9-16.81-41.02-21.72c-11.66,8.31-22.63,10.34-32.59,6.05
								c-19.61-8.44-33.69-41.61-39.65-93.42c-2.93-25.41,1.14-42.08,12.09-49.56c12.83-8.77,30.89-2.06,37.33,0.83
								c2.36-26.92,10.24-45.39,23.43-54.93c17.47-12.64,40.14-6.99,53.68-3.6c4.27,1.07,9.1,2.27,10.24,1.78
								c9.7-4.24,140.7-35.09,179.43-12.05c6.77,4.02,10.49,9.48,11.08,16.25c2.19,25.25-43.96,34.71-74.5,40.98
								c-6.1,1.25-11.71,2.4-15.88,3.49c1.43,0.4,2.26,0.76,2.37,0.81c4.33,1.88,8.18,4.32,11.43,7.24
								c7.67,6.89,11.6,17.49,10.5,28.36c-1.1,10.98-6.97,19.38-14.13,28.23c0,0,0,0,0.01,0c0.81,0.57,1.64,1.15,1.77,1.25
								c7.69,6.09,12.44,14.71,13.38,24.28c1.04,10.57-2.63,21.65-10.07,30.39c-30.46,35.8-83.19,21.69-91.69,19.12
								C1717.78,825.8,1702.25,834.62,1686.28,834.62z M1644.93,808.03l1.06,1.4c0.16,0.21,16.27,21.16,39.41,21.67
								c0.29,0,0.58,0.01,0.88,0.01c15.15,0,30.04-8.7,44.27-25.88l0.78-0.94l1.15,0.4c0.57,0.2,57.56,19.28,89.03-17.7
								c6.83-8.02,10.2-18.14,9.25-27.77c-0.85-8.74-5.02-16.29-12.05-21.87c-0.14-0.11-0.88-0.63-1.6-1.13
								c-0.76-0.53-1.5-1.05-1.62-1.14l-1.43-1.11l1.15-1.4c7.33-8.94,13.48-17.21,14.55-27.81c0.98-9.76-2.52-19.25-9.36-25.39
								c-2.97-2.67-6.5-4.9-10.49-6.64c-0.26-0.11-1.23-0.49-2.61-0.83c-2.32-0.59-4.29-0.76-5.55-0.79l-6.13-0.18l5.29-3.1
								c3.44-2.01,11.73-3.71,23.21-6.07c27.53-5.65,73.62-15.1,71.7-37.23c-0.49-5.65-3.56-10.07-9.37-13.53
								c-37.81-22.48-166.67,8.08-176.23,12.25l0,0c-2.24,0.98-6.11,0.02-12.5-1.59c-12.95-3.23-34.62-8.64-50.77,3.04
								c-12.72,9.2-20.19,27.68-22.19,54.9l-0.2,2.68l-2.38-1.25c-0.22-0.12-22.29-11.6-36.08-2.17
								c-9.77,6.69-13.33,22.24-10.56,46.24c5.81,50.51,19.15,82.68,37.55,90.6c9.11,3.91,19.37,1.69,30.46-6.64L1644.93,808.03z"/>
						</g>
						<g>
							<g>
								<g>
									<path style="fill:#FFFFFF;" d="M1788.49,790.34c0,0-84.38-9.08-69.96-44.52c14.63-35.97,98.02-12.13,98.02-12.13
										L1788.49,790.34z"/>
									<path d="M1788.3,792.08c-2.33-0.25-57.21-6.39-70.35-28.37c-3.4-5.69-3.75-11.93-1.05-18.56
										c15.05-37,96.66-14.15,100.13-13.16l-0.97,3.38c-0.82-0.24-82.04-22.99-95.9,11.11c-2.29,5.63-2.03,10.68,0.81,15.43
										c12.24,20.48,67.16,26.62,67.71,26.68L1788.3,792.08z"/>
								</g>
								<g>
									<path style="fill:#FFFFFF;" d="M1798.16,729.61c-60.74-11.14-80.27,15.35-80.27,15.35
										c-54.68-78.63,85.83-75.65,85.83-75.65L1798.16,729.61z"/>
									<path d="M1717.84,747.96l-1.39-2c-13.07-18.79-16.26-34.72-9.48-47.35c17.35-32.36,93.57-31.15,96.79-31.05l-0.08,3.52
										c-0.75,0.02-77.29-1.27-93.62,29.2c-5.88,10.97-3.19,25.03,8,41.82c5.79-5.99,28.01-23.82,80.41-14.21l-0.63,3.46
										c-58.75-10.77-78.35,14.41-78.54,14.66L1717.84,747.96z"/>
								</g>
							</g>
							<g>
								<path style="fill:#FFFFFF;" d="M1618.73,677.71c3.8-22.81,13.33-39.11,19.11-46.28c14.72-18.28,38.31-20.6,66.38-10.77
									c36.72,12.86,51.93,26.92,66.69,39.44c10.52,8.93,14.67,24.08,8.52,36.44c-17.7,35.6-92.53,0.19-92.53,0.19
									s20.85,69.21-52.31,54.43L1618.73,677.71z"/>
								<path d="M1653.24,754.97c-5.72,0-12.06-0.7-19-2.1l0.69-3.45c21.33,4.3,36.44,1.78,44.91-7.51
									c13.97-15.32,5.45-44.39,5.37-44.68l-1.14-3.78l3.57,1.69c0.73,0.35,73.48,34.28,90.21,0.62
									c5.56-11.19,2.16-25.62-8.09-34.32l-2.47-2.1c-13.73-11.71-29.29-24.98-63.66-37.02c-28.68-10.05-50.97-6.51-64.43,10.21
									c-6.81,8.45-15.3,24.83-18.74,45.47l-3.47-0.58c3.55-21.31,12.39-38.3,19.47-47.09c14.5-18,38.13-21.91,68.33-11.33
									c34.99,12.25,50.82,25.75,64.79,37.66l2.45,2.1c11.46,9.73,15.23,25.95,8.96,38.56c-16.27,32.73-76.4,9.08-91.51,2.5
									c1.95,8.69,5.32,30.87-7.05,44.45C1675.96,751.39,1666.17,754.97,1653.24,754.97z"/>
							</g>
						</g>
						<g>
							<g>
								<path d="M1642.92,811.55c-8.15-9.18-14.47-23.56-18.8-42.75l3.43-0.78c4.2,18.6,10.25,32.47,18,41.19L1642.92,811.55z"/>
							</g>
							<g>
								<path d="M1614.31,738.33c-6.98-22.77-0.1-49.05,3.2-61.68l3.41,0.85c-3.23,12.36-9.93,37.99-3.25,59.8L1614.31,738.33z"/>
							</g>
						</g>
					</g>
				</g>
				<g>
					<g>
						<path d="M593.32,701.06c-35.41,55.6-74.69,109.32-120.2,157.08c-21.79,22.87-45.17,49.45-72.39,65.91
							c-18.11,10.95-35.45,20.62-52.74,4.36c-19.33-18.17-20.66-51.06-22.94-75.62c-3.15-33.95-4.1-68.06-4.61-102.14
							c-0.52-34.11-0.18-68.23,1.05-102.3c-23.34,0.74-46.68,1.53-70.02,2.31c-0.89,25.33-1.28,50.68-1.19,76.04
							c0.13,32.41,0.68,64.9,2.64,97.25c1.8,29.59,3,61.32,10.89,90c15.23,55.31,60.66,102.85,122.06,91.93
							c27.19-4.84,54.62-22.63,75.4-40.22c23.2-19.64,45.02-40.76,65.82-62.91c47.61-50.67,89.27-107.81,126.58-166.42
							C677.93,698.28,617.45,663.18,593.32,701.06z"/>
					</g>
					<g>
						<g>
							<path style="fill:#FFFFFF;" d="M370.84,572.66c0,0,19.63-63.67-11.92-87.85c-26.47-20.28-43.82,12.75-43.82,12.75
								c-32.86-45.55-64.69,5.36-64.69,5.36c-0.24-0.18-0.49-0.37-0.73-0.54c-16.76-12.33-41.01-8.49-52.75,8.7
								c-28.04,41.05,6.28,91.33,6.28,91.33c-42.12,59.92,18.75,84.21,18.75,84.21c-16.21,40.91,24.3,56.8,99.49,45.29
								c75.19-11.51,30.13-58.74,30.13-58.74C434.38,639.24,390.96,566.36,370.84,572.66z"/>
							<path d="M278.72,737.29c-27.8,0-47.26-5.8-56.28-17.13c-6.67-8.38-7.59-19.34-2.72-32.61c-5.77-2.67-25.27-13.02-31.34-33.42
								c-4.6-15.44-0.32-32.86,12.71-51.76c-4.69-7.47-31.78-53.98-5.62-92.28c5.88-8.61,14.89-14.33,25.38-16.12
								c10.19-1.73,20.75,0.61,29.11,6.45c3.78-5.45,17.29-22.96,34.98-23.54c10.57-0.34,20.74,5.54,30,17.52
								c2.98-4.69,10.63-14.89,21.94-17.38c7.62-1.67,15.39,0.48,23.12,6.4c28.81,22.07,16.71,74.54,13.29,87.11
								c0.04,0,0.07,0,0.11,0c8.99,0,19.97,10.82,25.34,25.7c8.9,24.67,1.82,57.8-44.2,77.63c4.48,5.33,15.97,20.93,10.99,35.54
								c-4.19,12.29-18.93,20.46-43.8,24.26C305.79,736.09,291.39,737.29,278.72,737.29z M227.48,496.93
								c-2.02,0-4.04,0.17-6.05,0.51c-9.54,1.62-17.73,6.82-23.06,14.63c-27.05,39.6,5.95,88.85,6.28,89.34l0.69,1.01l-0.7,1
								c-12.91,18.36-17.25,35.09-12.89,49.72c6.52,21.92,30.61,31.76,30.86,31.85l1.63,0.65l-0.64,1.63
								c-5.04,12.72-4.5,23.05,1.59,30.7c12.31,15.46,46.4,19.78,96,12.2c23.47-3.59,37.27-10.97,41-21.93
								c5.32-15.59-11.7-33.68-11.88-33.86l-1.78-1.86l2.38-0.98c57.59-23.61,48.62-62.71,44.5-74.13
								c-5.68-15.74-17.37-25.19-24.06-23.08l-3.19,1l0.98-3.19c0.19-0.63,18.9-62.79-11.31-85.93c-6.87-5.26-13.67-7.2-20.22-5.76
								c-12.91,2.84-20.89,17.78-20.97,17.93l-1.32,2.51l-1.66-2.3c-8.95-12.4-18.56-18.6-28.61-18.2
								c-18.64,0.61-33.03,23.24-33.17,23.47l-1.02,1.63l-2.23-1.68C242.54,499.32,235.07,496.93,227.48,496.93z"/>
						</g>
						<g>
							<path style="fill:#FFFFFF;" d="M370.84,572.66c-19.1,51.06-52.86,15.43-52.86,15.43L370.84,572.66z"/>
							<path d="M342.74,601.95c-13.88,0-25.5-12.08-26.04-12.65l2.55-2.42c0.13,0.14,13.49,13.99,27.39,11.15
								c9.21-1.87,16.8-10.62,22.56-25.99l3.29,1.23c-6.21,16.59-14.67,26.09-25.16,28.22C345.78,601.8,344.24,601.95,342.74,601.95
								z"/>
						</g>
						<g>
							<path style="fill:#FFFFFF;" d="M221.96,686.62c11.18,5.54,26.78,7.41,44.74,6.61L221.96,686.62z"/>
							<path d="M258.97,695.17c-15.74,0-28.43-2.34-37.79-6.97l1.56-3.15c10.32,5.11,25.08,7.26,43.88,6.43l0.16,3.51
								C264.1,695.11,261.5,695.17,258.97,695.17z"/>
						</g>
						<g>
							<path style="fill:#FFFFFF;" d="M300.28,688.61c23.02-0.8,35.93-7.42,51.31-15.43L300.28,688.61z"/>
							<path d="M300.33,690.36l-0.12-3.52c22.81-0.79,35.67-7.48,50.56-15.23l1.62,3.12C337.13,682.68,323.94,689.55,300.33,690.36z
								"/>
						</g>
						<g>
							<g>
								<g>
									<g>
										<path style="fill:#FF4568;" d="M165.1,665.9l133.95-29.91c1.64-3.78,3.98-5.03,3.98-5.03c-1.47-0.27-2.88-0.57-4.28-0.86
											c-16.25-3.34-32.82-8.34-47.38-16.48c-2.1-1.21-4.15-2.51-6.08-3.93c-15.91-11.44-25.27-37.37-2.54-47.34
											c15.13-6.56,33.8-6.95,49.9-5.63c18.17,1.54,35.36,3.8,52.48,7.47c4.62,0.97,9.3,2.08,13.92,3.28l-47.64-234.94
											l-207.64,42.33L165.1,665.9z"/>
										<path d="M163.75,668l-62.06-294.5l211.1-43.04l48.54,239.43l-2.73-0.71c-4.72-1.23-9.38-2.33-13.84-3.26
											c-15.83-3.39-32.43-5.75-52.26-7.44c-20.3-1.66-36.82,0.18-49.05,5.49c-7.38,3.24-11.66,8.55-12.39,15.37
											c-1.02,9.67,5.39,21.84,15.25,28.92c1.78,1.31,3.72,2.56,5.94,3.84c12.65,7.06,27.99,12.39,46.86,16.28
											c1.4,0.29,2.79,0.58,4.24,0.85l4.95,0.91l-4.44,2.37c-0.06,0.03-1.85,1.09-3.2,4.17l-0.36,0.82L163.75,668z
											 M105.86,376.24l60.59,287.56l131.37-29.33c0.49-0.97,1.01-1.78,1.52-2.44c-0.32-0.06-0.64-0.13-0.95-0.2
											c-19.22-3.96-34.88-9.41-47.87-16.67c-2.35-1.36-4.39-2.68-6.27-4.05c-10.98-7.89-17.84-21.11-16.68-32.14
											c0.6-5.68,3.6-13.45,14.47-18.22c12.96-5.62,29.56-7.5,50.75-5.76c19.98,1.7,36.73,4.08,52.7,7.5
											c3.65,0.77,7.44,1.65,11.28,2.61l-46.73-230.48L105.86,376.24z"/>
									</g>
									<g>
										<path d="M302.51,671.51c-8.61-19.67-7.51-30.56-5.07-36.22c0.59-1.35,1.26-2.43,1.91-3.27c-0.32-0.06-0.64-0.13-0.95-0.2
											c-19.22-3.96-34.88-9.41-47.87-16.67c-2.35-1.36-4.39-2.68-6.27-4.05c-10.98-7.89-17.84-21.11-16.68-32.14
											c0.6-5.68,3.6-13.45,14.47-18.22c12.97-5.62,29.57-7.5,50.75-5.77c19.96,1.69,36.7,4.08,52.7,7.5
											c4.52,0.95,9.23,2.06,14,3.31c7.06,1.81,13.5,3.67,19.68,5.71l-1.1,3.34c-6.09-2.01-12.46-3.85-19.45-5.64
											c-4.72-1.23-9.38-2.33-13.85-3.27c-15.85-3.39-32.46-5.75-52.26-7.44c-20.3-1.66-36.81,0.18-49.05,5.49
											c-7.38,3.24-11.66,8.55-12.39,15.37c-1.02,9.67,5.39,21.84,15.25,28.92c1.78,1.31,3.72,2.56,5.94,3.84
											c12.65,7.06,27.99,12.39,46.86,16.28c1.4,0.29,2.79,0.58,4.24,0.85l4.95,0.91l-4.44,2.37c-0.06,0.03-1.85,1.09-3.2,4.17
											c-2.16,5.02-3.04,14.9,5.06,33.41L302.51,671.51z"/>
									</g>
								</g>
							</g>
						</g>
						<g>
							<path style="fill:#FFFFFF;" d="M378.62,573.13c-28.63-9.26-55.92-13.84-85.97-16.38c-16.13-1.36-34.81-0.98-49.93,5.63
								c-22.69,9.92-13.37,35.85,2.54,47.33c1.97,1.42,4.01,2.73,6.13,3.91c14.57,8.12,31.08,13.1,47.35,16.51
								c1.42,0.3,2.84,0.58,4.27,0.84c0,0-13.26,6.93,1.13,39.84L378.62,573.13z"/>
							<path d="M302.53,671.52c-10.54-24.12-6.6-35.04-3.2-39.47c-0.31-0.07-0.63-0.13-0.94-0.2c-19.26-4.03-34.92-9.49-47.85-16.69
								c-2.11-1.17-4.23-2.53-6.3-4.02c-11-7.93-17.85-21.18-16.68-32.2c0.6-5.67,3.6-13.42,14.46-18.16
								c12.8-5.59,29.89-7.54,50.78-5.77c33.2,2.8,59.83,7.88,86.36,16.46l-1.08,3.34c-26.26-8.49-52.65-13.52-85.57-16.3
								c-20.32-1.71-36.82,0.13-49.07,5.49c-7.36,3.22-11.64,8.51-12.36,15.31c-1.03,9.68,5.37,21.87,15.23,28.98
								c1.97,1.41,3.97,2.69,5.96,3.8c12.61,7.03,27.94,12.37,46.86,16.32c1.4,0.3,2.81,0.58,4.22,0.83l5.05,0.91l-4.55,2.38
								c-0.09,0.05-11.49,6.9,1.92,37.58L302.53,671.52z"/>
						</g>
					</g>
				</g>
			</g>
		</g>
		<g>
			<g>
				<g>
					<path style="fill:#FFBC00;" d="M430.85,573.28c-12.33-236.63,190.09-446.86,452.11-469.56
						c262.02-22.7,484.42,150.73,496.75,387.36c8.33,159.86-81.43,307.59-221.29,393.66l-8.15,139.51
						c-50.9,20.97-143.19,49.94-249.02,52.22c-101.84,2.2-189.04-9.47-226.39-38.59c1.25-39.29,2.51-78.58,3.76-117.87
						C537.62,856.78,438.94,728.65,430.85,573.28z"/>
					<path d="M876.89,1078.5c-98.8,0-170.44-13.75-203.13-39.23l-0.7-0.55l3.75-117.58c-70.26-31.73-130.18-79.74-173.34-138.91
						c-44.73-61.32-70.45-133.55-74.38-208.87c-12.36-237.19,191.18-448.66,453.71-471.4c134.65-11.68,266.34,29.03,361.27,111.65
						c83.04,72.27,131.83,170.78,137.39,277.37c8.04,154.25-76.75,305.43-221.34,394.78l-8.17,139.7l-1.02,0.42
						c-36.17,14.9-132.91,49.83-249.65,52.36C892.98,1078.42,884.84,1078.5,876.89,1078.5z M676.63,1037.04
						c34.6,26.29,116.32,40.03,224.57,37.68c115.07-2.49,210.61-36.62,247.37-51.67l8.14-139.32l0.78-0.48
						c143.96-88.61,228.43-238.84,220.45-392.08c-5.5-105.63-53.87-203.26-136.18-274.9c-94.22-82-224.94-122.36-358.66-110.8
						c-260.66,22.58-462.76,232.4-450.5,467.71c3.89,74.64,29.38,146.21,73.71,206.98c43.02,58.98,102.85,106.78,173.01,138.26
						l1.08,0.48L676.63,1037.04z"/>
				</g>
				<g>
					
						<ellipse transform="matrix(0.3883 -0.9215 0.9215 0.3883 23.897 1193.4907)" style="fill:#FFD252;" cx="910.93" cy="578.75" rx="335.66" ry="328.16"/>
					<path style="fill:#FFD252;" d="M905.49,915.04c-86.6,0-167.86-33.7-229.05-95.06c-63.13-63.3-97.43-148.17-96.58-239
						c1.74-185.4,151.63-337.24,334.14-338.48c0.75,0,1.51-0.01,2.26-0.01c86.6,0,167.86,33.7,229.06,95.06
						c63.13,63.3,97.43,148.17,96.58,239c-1.74,185.4-151.63,337.24-334.14,338.48C907,915.04,906.24,915.04,905.49,915.04z
						 M916.25,246.01c-0.75,0-1.49,0-2.24,0.01c-180.6,1.23-328.93,151.5-330.65,335c-0.84,89.88,33.09,173.86,95.56,236.48
						c60.53,60.69,140.91,94.03,226.57,94.03c0.75,0,1.49,0,2.24-0.01c180.6-1.22,328.93-151.5,330.65-335l1.76,0.02l-1.76-0.02
						c0.84-89.88-33.09-173.86-95.55-236.48C1082.29,279.35,1001.9,246.01,916.25,246.01z"/>
				</g>
				<g>
					<g>
						<path style="fill:#FFD252;" d="M604.35,818.45c6.82-4.02-56.36-68.42-79.31-175.24c-24.48-113.95,14.44-194.25,6.35-196.75
							c-9.01-2.79-71.43,92.5-46.36,202.65C508.28,751.21,596.82,822.89,604.35,818.45z"/>
						<path style="fill:#FFD252;" d="M603.49,820.4c-1.03,0-2.28-0.33-3.83-1c-20.76-8.95-95.21-77.07-116.34-169.9
							c-22.94-100.8,26.8-187.58,42.22-201.87c2.67-2.47,4.69-3.39,6.37-2.86c3.92,1.22,2.57,7.22-1.04,23.26
							c-6.92,30.73-21.32,94.67-4.11,174.8c15.77,73.41,50.09,125.87,68.52,154.06c8.88,13.57,11.91,18.42,11.25,21.28
							c-0.18,0.77-0.63,1.39-1.29,1.78l0,0C604.75,820.26,604.17,820.4,603.49,820.4z M530.69,448.19c-0.77,0.28-3.2,1.87-7.41,7.23
							c-16.19,20.64-57.66,100.45-36.53,193.31c22.17,97.42,105.54,167.26,116.31,168.18c-0.54-2.51-5.5-10.09-10.72-18.07
							c-18.56-28.38-53.11-81.2-69.02-155.25c-17.37-80.88-2.86-145.34,4.12-176.31C529.42,458.51,531.29,450.21,530.69,448.19z"/>
					</g>
					<g>
						<path style="fill:#FFD252;" d="M628.78,857.67c7.42,2.9,16.13-0.43,19.47-7.43c3.33-7,0.02-15.02-7.4-17.92
							c-7.42-2.9-16.13,0.43-19.47,7.43C618.05,846.75,621.36,854.77,628.78,857.67z"/>
						<path style="fill:#FFD252;" d="M634.33,860.47c-2.08,0-4.18-0.37-6.2-1.16c-4.11-1.61-7.24-4.66-8.8-8.58
							c-1.51-3.8-1.34-7.97,0.45-11.73c3.72-7.8,13.45-11.53,21.7-8.31c4.11,1.61,7.24,4.66,8.8,8.59c1.51,3.8,1.34,7.96-0.45,11.73
							C647.02,856.9,640.78,860.47,634.33,860.47z M635.25,833.04c-5.12,0-10.06,2.81-12.28,7.47c-1.37,2.88-1.5,6.04-0.36,8.93
							c1.19,3.01,3.61,5.35,6.81,6.6l0,0c6.57,2.56,14.3-0.37,17.24-6.54c1.37-2.88,1.49-6.04,0.36-8.92
							c-1.19-3.01-3.61-5.36-6.8-6.6C638.6,833.34,636.91,833.04,635.25,833.04z"/>
					</g>
				</g>
				<g>
					<path style="fill:#FFFFFF;" d="M960.39,924.52c-12.29-2.91-25.3-1.55-35.91,5.18c-16.43,10.43-24.38,29.35-28.86,48.21
						c-14.44-4.58-26.85-14-34.11-30.28c-9.87-22.15-6.99-49.43,5.09-71.77c6.75,3.95,14.11,7.24,22.13,9.52
						c24.32,6.91,51.94,5.48,73.37-8.1c14.63-9.27,28.18-27.29,15.95-43.2c-14.45-18.81-49.93-19.6-71.21-13.57
						c-17.87,5.06-33.01,16.13-44.54,29.8c-16.86-16.81-24.1-41.2-12.68-66.09c19.29-42.02,78.01-46.57,120.34-44.56
						c11.92,0.57,10.59-16.77-1.23-17.33c-47.14-2.24-106,4.98-131.94,47.08c-20.7,33.59-11.66,71.62,15.02,95.69
						c-1.04,1.77-2.12,3.54-3.06,5.35c-22.14,43.12-13.57,106.21,40.06,124.61c1.1,0.38,2.24,0.44,3.35,0.77
						c-0.38,2.5-0.75,4.99-1.06,7.36c-8.71,65.81-1.69,134.58,8.85,199.9c0.63,3.88,1.28,7.75,2,11.62
						c2.04,10.89,20.61,9.86,18.54-1.15c-8.82-46.97-13.24-95.24-14.07-142.89c-0.41-23.84,0.24-48.02,4.19-71.66
						c15.11,0.92,30.33-1.7,44.74-6.88c15.79-5.68,39.61-15.75,42.73-33.51C1001.43,939.54,976.55,928.34,960.39,924.52z
						 M907.34,838.75c10-3.75,20.79-4.95,31.46-3.6c6.71,0.85,23.8,3.31,25.46,11.7c2.67,13.53-25.57,23.03-35.42,24.55
						c-19.1,2.94-37.53-1.31-52.34-10.13C884.74,851.49,894.96,843.38,907.34,838.75z M979.28,958.82
						c-7.49,15.02-56.38,23.13-65.16,22.26c-0.33-0.03,7.3-21.23,8.34-23.1c3.83-6.9,9.33-13.77,17.54-16.27
						c9.67-2.94,32.39-1.44,38.37,7.6C980.64,952.73,980.74,955.91,979.28,958.82z"/>
				</g>
			</g>
			<g>
				<g>
					<path d="M676.93,1342.42l475.36-8.69l-2.24-309.83c-132.44,61.32-306.29,69.29-475.55,14.69L676.93,1342.42z"/>
					<path d="M675.19,1344.21l-2.45-308.04l2.32,0.75c165.82,53.49,338.68,48.17,474.27-14.61l2.48-1.15l2.27,314.3l-1.74,0.03
						L675.19,1344.21z M676.29,1041l2.39,299.63l471.84-8.63l-2.2-305.37C1012.95,1088.42,841.22,1093.65,676.29,1041z"/>
				</g>
				<g>
					<g>
						<polygon style="fill:#FFFFFF;" points="674.51,1024.96 671.74,1109.61 870.77,1161.59 915.35,1074.01 						"/>
						<path d="M871.69,1163.65l-1.37-0.36l-200.38-52.33l2.88-88.14l245.14,49.93L871.69,1163.65z M673.55,1108.27l196.3,51.26
							l42.89-84.26L676.2,1027.1L673.55,1108.27z"/>
					</g>
					<g>
						<polygon style="fill:#FFFFFF;" points="1151.43,1022.09 1153.26,1108.37 954.24,1160.34 915.76,1073.78 						"/>
						<path d="M953.24,1162.42l-39.96-89.89l2.11-0.46l237.75-52.16l1.91,89.81L953.24,1162.42z M918.25,1075.04l36.99,83.23
							l196.24-51.25l-1.77-82.76L918.25,1075.04z"/>
					</g>
				</g>
			</g>
		</g>
		<g>
			<g>
				<g>
					<path d="M1142.25,582.49c-28.21-13.43-61.56-7.3-82.4,13l-95.46-2.74l-3.74,67.59l83.01,2.07c0,0,1.54,3.74,4.68,8.79
						c6.51,11.65,16.76,21.61,30.25,28.03c34.5,16.43,76.72,3.62,94.3-28.62C1190.47,638.37,1176.75,598.92,1142.25,582.49z"/>
					<path d="M1110.29,708.12c-10.95,0-22.06-2.35-32.46-7.3c-13.33-6.35-24.06-16.29-31.03-28.76c-2.19-3.53-3.62-6.44-4.3-7.92
						l-83.71-2.09l3.94-71.11l96.43,2.77c22.08-21.06,55.68-26.23,83.85-12.81c17.6,8.38,30.45,22.73,36.19,40.43
						c5.43,16.73,3.73,34.53-4.77,50.11C1161.74,694.71,1136.46,708.11,1110.29,708.12z M962.5,658.63l82.34,2.05l0.44,1.06
						c0.02,0.04,1.53,3.69,4.55,8.53c6.65,11.9,16.84,21.34,29.51,27.37c33.62,16,74.89,3.5,92.01-27.88
						c8.03-14.72,9.63-31.54,4.5-47.35c-5.43-16.76-17.64-30.37-34.35-38.33l0,0c-26.66-12.69-59.72-7.48-80.42,12.67l-0.53,0.52
						l-94.49-2.71L962.5,658.63z"/>
				</g>
				<g>
					<path style="fill:#FFFFFF;" d="M1137.79,656.52c-7.01,12.85-23.84,17.96-37.6,11.41c-13.75-6.55-19.22-22.28-12.21-35.13
						c7.01-12.85,23.84-17.96,37.6-11.41C1139.33,627.93,1144.8,643.66,1137.79,656.52z"/>
					<path d="M1112.82,672.52c-4.52,0-9.09-0.97-13.39-3.01c-7.28-3.46-12.6-9.41-14.98-16.74c-2.25-6.95-1.55-14.34,1.98-20.81
						c7.44-13.64,25.33-19.09,39.89-12.16c7.28,3.47,12.6,9.41,14.98,16.74c2.25,6.95,1.55,14.34-1.98,20.81h0
						C1134.09,666.97,1123.64,672.52,1112.82,672.52z M1112.92,620.29c-9.55,0-18.77,4.87-23.39,13.35
						c-3.06,5.61-3.67,12.02-1.72,18.04c2.07,6.4,6.74,11.61,13.14,14.66c12.91,6.14,28.74,1.36,35.3-10.67h0
						c3.06-5.61,3.67-12.02,1.72-18.04c-2.08-6.4-6.74-11.61-13.15-14.66C1121,621.16,1116.93,620.29,1112.92,620.29z"/>
				</g>
			</g>
			<g>
				<g>
					<path style="fill:#FFD252;" d="M933.05,509.21l-2.24,48.19c0,0,74.39-7.29,72.42,31.9c-1.66,32.97-55.95,31.47-55.95,31.47
						s58.93-3.75,56.97,38.5c-1.49,32.04-82.69,20.57-82.69,20.57L933.05,509.21z"/>
					<path d="M952.26,683.62c-16.07,0-29.8-1.89-30.94-2.05l0.49-3.48c0.56,0.08,56.27,7.74,74.9-7.71
						c3.69-3.06,5.58-6.72,5.79-11.2c0.44-9.59-2.39-17.46-8.43-23.4c-11.68-11.49-32.49-13.18-41.86-13.32
						c-2.93,0.12-4.77,0.07-4.97,0.07l-0.06-3.51c0.3-0.02,2.15-0.12,5.05-0.09c13.09-0.58,47.98-4.52,49.25-29.71
						c0.35-7.01-1.92-12.91-6.77-17.53c-17.63-16.81-63.26-12.58-63.72-12.52l-2.02,0.2l2.33-50.23l3.51,0.17l-2.15,46.2
						c9.34-0.68,47.68-2.37,64.47,13.65c5.62,5.36,8.26,12.17,7.86,20.25c-0.72,14.31-11.06,24.58-29.89,29.7
						c-2.07,0.56-4.13,1.03-6.14,1.43c9.48,1.77,20.1,5.4,27.58,12.75c6.78,6.67,9.97,15.43,9.47,26.07
						c-0.25,5.45-2.63,10.07-7.06,13.75C988.77,681.52,969.21,683.62,952.26,683.62z"/>
				</g>
				<g>
					<path style="fill:#FFBC00;" d="M984.8,489.39c0.3,23.65-21.49,43.06-48.67,43.37c-27.18,0.3-49.47-18.62-49.77-42.26
						s21.49-43.06,48.67-43.37C962.21,446.82,984.49,465.74,984.8,489.39z"/>
					<path d="M935.48,534.51c-27.81,0-50.57-19.62-50.89-44c-0.14-10.8,4.2-21.27,12.21-29.47c9.57-9.8,23.49-15.51,38.2-15.68
						c0.22,0,0.44,0,0.66,0c27.81,0,50.58,19.62,50.89,44l0,0c0.14,10.8-4.2,21.27-12.21,29.47c-9.57,9.8-23.49,15.51-38.2,15.67
						C935.92,534.51,935.7,534.51,935.48,534.51z M935.67,448.87c-0.21,0-0.41,0-0.62,0c-13.79,0.15-26.81,5.48-35.72,14.61
						c-7.36,7.53-11.34,17.12-11.21,26.97c0.29,22.64,21.9,40.9,47.99,40.53c13.79-0.15,26.81-5.48,35.72-14.61
						c7.36-7.54,11.34-17.12,11.21-26.97l0,0C982.75,466.95,961.55,448.87,935.67,448.87z"/>
				</g>
				<g>
					<path style="fill:#FFD252;" d="M968.27,474.96c0,5.18-4.49,9.38-10.04,9.38c-5.55,0-10.04-4.2-10.04-9.38
						c0-5.18,4.49-9.38,10.04-9.38C963.78,465.58,968.27,469.77,968.27,474.96z"/>
					<path style="fill:#FFD252;" d="M958.23,486.09c-6.5,0-11.79-4.99-11.79-11.14s5.29-11.14,11.79-11.14
						c6.51,0,11.8,4.99,11.8,11.14S964.74,486.09,958.23,486.09z M958.23,467.33c-4.56,0-8.28,3.42-8.28,7.62s3.71,7.62,8.28,7.62
						c4.57,0,8.28-3.42,8.28-7.62C966.51,470.76,962.8,467.33,958.23,467.33z"/>
				</g>
			</g>
			<g>
				<g>
					<g>
						<path style="fill:#FFFFFF;" d="M864.2,416.47c3.31,76.79-55.2,142.54-134.02,155.3c-6.93,1.18-14.11,1.86-21.3,2.13
							c-89.38,3.37-164.78-61.62-168.39-145.24c-3.61-83.51,65.95-153.96,155.33-157.33c7.19-0.27,14.4-0.13,21.42,0.52
							C796.89,278.64,860.88,339.68,864.2,416.47z"/>
						<path d="M702.27,575.78c-87.28,0-159.99-64.72-163.54-147.04c-1.68-38.94,12.38-76.64,39.59-106.14
							c29.51-32,72.31-51.32,117.43-53.03c7.56-0.28,14.84-0.11,21.65,0.52c81.38,6.94,145.26,69.83,148.56,146.29
							c3.31,76.53-54.95,144.07-135.49,157.11c-6.7,1.14-13.94,1.86-21.52,2.15C706.71,575.74,704.48,575.78,702.27,575.78z
							 M702.67,272.96c-2.23,0-4.5,0.04-6.79,0.13c-44.19,1.66-86.1,20.58-114.98,51.89c-26.57,28.81-40.3,65.61-38.66,103.61
							c3.47,80.43,74.63,143.67,160.03,143.67c2.18,0,4.35-0.04,6.54-0.12c7.43-0.28,14.52-0.98,21.08-2.11
							c78.8-12.76,135.79-78.75,132.56-153.5c-3.22-74.7-65.72-136.15-145.36-142.94C712.48,273.17,707.65,272.96,702.67,272.96z"/>
					</g>
					<g>
						<g>
							<path d="M508.69,579.2l-2.63-2.33l0.69-0.78c8.86-10.02,14.71-16.63,34.63-28.55c13.46-8.06,28.01-14.5,43.25-19.15
								l1.03,3.37c-14.97,4.56-29.25,10.89-42.47,18.8c-19.45,11.64-25.16,18.09-33.8,27.87L508.69,579.2z"/>
						</g>
						<g>
							<path d="M581.94,631.13l-3.25-1.36c5.35-12.77,12.08-25.08,20.01-36.59c8.64-12.53,18.79-24.21,30.14-34.72l2.39,2.58
								c-11.17,10.34-21.14,21.82-29.63,34.14C593.8,606.48,587.19,618.58,581.94,631.13z"/>
						</g>
						<g>
							<path d="M664.76,655.47c-0.42-12.81,0.46-25.7,2.62-38.34c2.45-14.41,6.59-28.61,12.28-42.22l3.25,1.36
								c-5.59,13.36-9.65,27.31-12.06,41.45c-2.11,12.4-2.98,25.07-2.57,37.63L664.76,655.47z"/>
						</g>
					</g>
					<g>
						<path d="M717.23,271.85c-18,28.32-30.13,66.44-33.82,109.34l110.29,37.98l-106.64,46.15c7.38,42.45,22.75,79.52,43.12,106.45
							c78.82-12.76,137.33-78.52,134.02-155.3C860.88,339.68,796.89,278.64,717.23,271.85z"/>
						<path d="M729.42,573.68l-0.64-0.84c-20.78-27.46-36.21-65.54-43.45-107.21l-0.24-1.36l103.76-44.9l-107.3-36.95l0.12-1.37
							c3.63-42.15,15.73-81.26,34.09-110.14l0.57-0.9l1.06,0.09c81.4,6.94,145.27,69.83,148.57,146.29
							c3.31,76.53-54.95,144.07-135.49,157.11L729.42,573.68z M689.03,466.38c7.17,40.17,22.02,76.82,41.92,103.48
							c78.24-13.17,134.71-78.91,131.5-153.32c-3.21-74.37-65.16-135.6-144.3-142.84c-17.54,28.01-29.18,65.65-32.86,106.29
							l113.27,39.01L689.03,466.38z"/>
					</g>
				</g>
				<g>
					<g>
						<path style="fill:#FFFFFF;" d="M1329.29,406.6c3.31,76.79-55.2,142.54-134.02,155.3c-6.93,1.18-14.11,1.86-21.31,2.13
							c-89.38,3.37-164.78-61.62-168.39-145.24c-3.6-83.51,65.95-153.96,155.33-157.33c7.19-0.27,14.4-0.13,21.42,0.52
							C1261.99,268.77,1325.98,329.81,1329.29,406.6z"/>
						<path d="M1167.36,565.91c-87.28,0-159.99-64.72-163.54-147.04c-1.68-38.94,12.38-76.64,39.59-106.14
							c29.51-32,72.31-51.32,117.43-53.03c7.54-0.28,14.83-0.11,21.64,0.52c81.39,6.94,145.26,69.83,148.57,146.29l0,0
							c3.3,76.53-54.95,144.07-135.5,157.11c-6.7,1.14-13.94,1.86-21.52,2.15C1171.8,565.87,1169.57,565.91,1167.36,565.91z
							 M1167.76,263.09c-2.24,0-4.5,0.04-6.79,0.13c-44.19,1.66-86.09,20.58-114.98,51.89c-26.57,28.81-40.3,65.61-38.66,103.61
							c3.56,82.48,78.27,146.86,166.57,143.55c7.43-0.28,14.52-0.99,21.07-2.1c78.8-12.76,135.79-78.74,132.56-153.5l0,0
							c-3.22-74.7-65.72-136.15-145.36-142.94C1177.57,263.3,1172.74,263.09,1167.76,263.09z"/>
					</g>
					<g>
						<g>
							<path d="M1383.38,538.89l-0.77-0.74c-9.45-9.08-15.7-15.08-36.08-25.21c-13.87-6.89-28.65-12.12-43.96-15.54l0.77-3.43
								c15.57,3.48,30.63,8.81,44.76,15.83c20.86,10.37,27.26,16.52,36.95,25.83l0.77,0.74L1383.38,538.89z"/>
						</g>
						<g>
							<path d="M1314.85,596.16c-6.3-12.1-13.94-23.66-22.7-34.36c-9.54-11.65-20.47-22.35-32.49-31.8l2.18-2.76
								c12.21,9.61,23.33,20.48,33.03,32.34c8.91,10.88,16.69,22.65,23.1,34.96L1314.85,596.16z"/>
						</g>
						<g>
							<path d="M1230.88,626.81c-0.67-12.55-2.63-25.11-5.81-37.32c-3.63-13.92-8.87-27.52-15.59-40.41l3.12-1.63
								c6.84,13.13,12.19,26.98,15.87,41.15c3.24,12.44,5.23,25.24,5.91,38.02L1230.88,626.81z"/>
						</g>
					</g>
					<g>
						<path d="M1182.33,261.98c-18.01,28.32-30.13,66.44-33.82,109.34l110.28,37.98l-106.65,46.14
							c7.38,42.45,22.75,79.52,43.12,106.45c78.82-12.76,137.33-78.52,134.02-155.3C1325.98,329.81,1261.99,268.77,1182.33,261.98z"
							/>
						<path d="M1194.51,563.81l-0.64-0.84c-20.78-27.46-36.21-65.54-43.45-107.21l-0.24-1.37l103.76-44.9l-107.29-36.95l0.12-1.37
							c3.62-42.14,15.73-81.26,34.09-110.14l0.57-0.9l1.06,0.09c81.4,6.94,145.27,69.83,148.58,146.29
							c3.3,76.53-54.95,144.07-135.5,157.11L1194.51,563.81z M1154.12,456.51c7.17,40.17,22.02,76.82,41.92,103.48
							c78.24-13.17,134.71-78.9,131.5-153.32c-3.21-74.37-65.16-135.6-144.3-142.84c-17.54,28.01-29.18,65.65-32.86,106.29
							l113.27,39.01L1154.12,456.51z"/>
					</g>
				</g>
			</g>
		</g>
	</g>
	<g>
		<g>
			<g>
				
					<rect x="1563.66" y="496.28" transform="matrix(0.996 -0.089 0.089 0.996 -39.0204 148.2316)" style="fill:#FF6DCE;" width="158" height="30.76"/>
			</g>
		</g>
		<g>
			<g>
				
					<rect x="1430.9" y="146.02" transform="matrix(0.723 -0.6908 0.6908 0.723 304.9695 1083.4319)" style="fill:#FF6DCE;" width="145.42" height="30.74"/>
			</g>
		</g>
		<g>
			<g>
				
					<rect x="1516.82" y="310.77" transform="matrix(0.9437 -0.3308 0.3308 0.9437 -17.7196 548.1844)" style="fill:#FF6DCE;" width="169.64" height="30.75"/>
			</g>
		</g>
	</g>
</g>
</svg>
