<?xml version="1.0" encoding="iso-8859-1"?>
<!-- Generator: Adobe Illustrator 30.0.0, SVG Export Plug-In . SVG Version: 9.03 Build 0)  -->
<svg version="1.1" id="Capa_1" xmlns="http://www.w3.org/2000/svg" xmlns:xlink="http://www.w3.org/1999/xlink" x="0px" y="0px"
	 viewBox="0 0 2000 2000" style="enable-background:new 0 0 2000 2000;" xml:space="preserve">
<g>
	<g>
		<g id="XMLID_00000065073804206535614920000008105274235785160117_">
			<rect x="101.02" y="1495.89" style="fill:#00C793;" width="1797.97" height="403.65"/>
		</g>
		<g style="opacity:0.27;">
			<g style="opacity:0.27;">
				<rect x="101.02" y="1495.89" style="fill:#FFFFFF;" width="195.98" height="403.65"/>
			</g>
			<g style="opacity:0.27;">
				<rect x="807.26" y="1495.89" style="fill:#FFFFFF;" width="209.06" height="403.65"/>
			</g>
			<g style="opacity:0.27;">
				<rect x="1153.02" y="1495.89" style="fill:#FFFFFF;" width="206.44" height="403.65"/>
			</g>
			<g style="opacity:0.27;">
				<rect x="1496.16" y="1495.89" style="fill:#FFFFFF;" width="169.77" height="403.65"/>
			</g>
			<g style="opacity:0.27;">
				<rect x="1802.63" y="1495.89" style="fill:#FFFFFF;" width="96.37" height="403.65"/>
			</g>
			<g style="opacity:0.27;">
				<rect x="464.99" y="1495.89" style="fill:#FFFFFF;" width="205.57" height="403.65"/>
			</g>
		</g>
		<g>
			<g>
				<rect x="101.02" y="1536.7" style="fill:#FFFFFF;" width="1797.97" height="17.57"/>
			</g>
		</g>
	</g>
	<g>
		<g>
			<path style="fill:#FFFFFF;" d="M102.57,503.9l596.38,1.4c0,0,36.21-240.59-150.57-177.77c0,0-17.21-104.42-118.18-118.72
				c-44.78-6.34-90.2,7.34-122.71,43.95c-18.33,20.63-33.47,48.72-34.97,85.77C272.52,338.51,94.79,250.49,102.57,503.9z"/>
			<path d="M700.46,507.05l-599.59-1.4l-0.05-1.7c-2.65-86.22,15.79-142.64,54.79-167.69c44.69-28.71,102.84-5.9,115.3-0.43
				c1.84-31.63,13.69-59.97,35.28-84.26c31.16-35.06,76.46-51.3,124.27-44.51c93.28,13.21,116.16,103.48,119.27,118.16
				c48.14-15.79,85.8-12.68,111.93,9.23c29.8,24.99,38.82,70.26,41.13,103.83c2.5,36.2-2.05,66.97-2.1,67.28L700.46,507.05z
				 M104.28,502.14l593.14,1.39c1.82-14.07,13.97-122.79-38.03-166.39c-25.47-21.36-62.63-24.03-110.45-7.96l-1.96,0.66l-0.34-2.04
				c-0.17-1.03-18.2-103.32-116.69-117.27c-46.64-6.61-90.8,9.2-121.15,43.37c-21.62,24.34-33.23,52.82-34.52,84.67l-0.11,2.7
				l-2.43-1.2c-0.65-0.32-65.87-31.95-114.26-0.85C119.86,363.41,101.96,418.22,104.28,502.14z"/>
		</g>
		<g>
			<path style="fill:#FFFFFF;" d="M127.11,1018.92l397.62,0.93c0,0,24.15-160.41-100.39-118.53c0,0-11.47-69.62-78.79-79.15
				c-29.85-4.23-60.13,4.9-81.82,29.3c-12.22,13.76-22.31,32.48-23.31,57.19C240.42,908.66,121.92,849.97,127.11,1018.92z"/>
			<path d="M526.24,1021.61l-400.84-0.94l-0.05-1.7c-1.77-57.71,10.61-95.5,36.8-112.31c29.61-19.01,66.85-4.97,76.65-0.69
				c1.4-20.88,9.33-39.6,23.61-55.67c20.9-23.52,51.29-34.42,83.38-29.87c61.32,8.68,77.29,67,79.87,78.61
				c32.01-10.36,57.09-8.2,74.57,6.46c15.85,13.29,25.4,37.37,27.63,69.63c1.67,24.19-1.37,44.78-1.4,44.98L526.24,1021.61z
				 M128.82,1017.17l394.37,0.92c1.39-11.17,8.66-81.5-25.22-109.91c-16.82-14.1-41.4-15.85-73.07-5.2l-1.96,0.66l-0.34-2.04
				c-0.11-0.68-12.08-68.47-77.31-77.7c-30.89-4.37-60.15,6.09-80.25,28.72c-14.32,16.12-22.01,34.99-22.87,56.09l-0.11,2.7
				l-2.43-1.2c-0.44-0.21-43.63-21.15-75.61-0.6C139.22,925.58,127.37,961.76,128.82,1017.17z"/>
		</g>
		<g>
			<path style="fill:#FFFFFF;" d="M1417.05,306.34l397.62,0.93c0,0,24.15-160.41-100.39-118.53c0,0-11.47-69.62-78.79-79.15
				c-29.85-4.23-60.13,4.9-81.82,29.3c-12.22,13.75-22.31,32.48-23.31,57.19C1530.36,196.07,1411.86,137.39,1417.05,306.34z"/>
			<path d="M1816.18,309.03l-400.84-0.94l-0.05-1.7c-1.77-57.71,10.61-95.5,36.8-112.31c29.61-19.01,66.85-4.97,76.65-0.69
				c1.4-20.88,9.34-39.6,23.61-55.67c20.9-23.52,51.29-34.4,83.38-29.87c61.32,8.68,77.29,67,79.87,78.61
				c32.01-10.36,57.09-8.2,74.57,6.46c15.85,13.29,25.4,37.37,27.63,69.63c1.67,24.19-1.37,44.78-1.4,44.98L1816.18,309.03z
				 M1418.75,304.58l394.37,0.92c1.39-11.17,8.66-81.5-25.22-109.91c-16.82-14.1-41.4-15.84-73.07-5.2l-1.95,0.66l-0.34-2.04
				c-0.11-0.68-12.08-68.47-77.31-77.7c-30.91-4.37-60.15,6.1-80.25,28.73c-14.32,16.12-22.01,34.99-22.87,56.09l-0.11,2.7
				l-2.43-1.2c-0.44-0.21-43.63-21.15-75.61-0.6C1429.15,212.99,1417.31,249.17,1418.75,304.58z"/>
		</g>
		<g>
			<path style="fill:#FFFFFF;" d="M1298.49,814.89l596.38,1.4c0,0,36.21-240.59-150.57-177.77c0,0-17.21-104.42-118.18-118.72
				c-44.78-6.34-90.2,7.34-122.71,43.95c-18.33,20.63-33.47,48.72-34.97,85.77C1468.44,649.5,1290.71,561.49,1298.49,814.89z"/>
			<path d="M1896.38,818.05l-599.59-1.4l-0.05-1.7c-2.65-86.22,15.79-142.64,54.79-167.69c44.69-28.71,102.84-5.9,115.3-0.43
				c1.84-31.64,13.7-59.97,35.28-84.26c31.15-35.06,76.43-51.28,124.27-44.52c93.28,13.21,116.15,103.48,119.27,118.16
				c48.15-15.79,85.8-12.68,111.93,9.23c29.8,24.99,38.81,70.26,41.13,103.83c2.5,36.2-2.05,66.97-2.1,67.28L1896.38,818.05z
				 M1300.2,813.14l593.13,1.39c1.82-14.07,13.97-122.79-38.02-166.39c-25.47-21.36-62.63-24.04-110.45-7.96l-1.95,0.66l-0.34-2.04
				c-0.17-1.03-18.2-103.32-116.69-117.27c-46.62-6.6-90.8,9.2-121.15,43.37c-21.62,24.33-33.23,52.82-34.52,84.67l-0.11,2.7
				l-2.43-1.2c-0.65-0.32-65.87-31.95-114.26-0.85C1315.78,674.4,1297.88,729.21,1300.2,813.14z"/>
		</g>
	</g>
	<g>
		<g>
			<g>
				<path style="fill:#FFFFFF;" d="M680.07,1771.67c0,16.33-3.07,31.99-8.78,46.32c-13.6,34.72-42.18,61.92-77.77,73.77
					c-12.58,4.24-26.04,6.48-40.03,6.48c-13.99,0-27.45-2.24-40.03-6.48c-39.25-13.02-69.92-44.76-81.47-84.64
					c-3.32-11.21-5.07-23.16-5.07-35.45c0-19.41,4.34-37.79,12.19-54.22c14.53-30.72,41.1-54.61,73.62-65.63
					c12.78-4.39,26.48-6.73,40.76-6.73c14.29,0,27.99,2.34,40.76,6.73c35.35,12,63.63,39.15,77.14,73.77
					C677,1739.87,680.07,1755.43,680.07,1771.67z"/>
				<path d="M553.5,1900c-13.99,0-27.65-2.21-40.59-6.58c-39.99-13.26-70.87-45.35-82.6-85.82c-3.41-11.54-5.14-23.64-5.14-35.94
					c0-19.31,4.16-37.8,12.36-54.98c14.76-31.21,41.97-55.46,74.65-66.53c26.35-9.05,56.29-9.05,82.66,0
					c35.91,12.19,64.41,39.45,78.2,74.8c5.84,14.87,8.8,30.59,8.8,46.71c0,16.32-3,32.13-8.9,46.97
					c-13.9,35.47-42.64,62.73-78.85,74.79C581.15,1897.79,567.49,1900,553.5,1900z M553.5,1646.85c-13.85,0-27.38,2.23-40.19,6.63
					c-31.78,10.77-58.25,34.36-72.6,64.72c-7.98,16.71-12.02,34.69-12.02,53.47c0,11.96,1.68,23.72,5,34.95
					c11.41,39.37,41.44,70.57,80.34,83.47c25.19,8.49,53.78,8.49,78.94,0c35.22-11.72,63.17-38.24,76.69-72.75
					c5.74-14.44,8.66-29.8,8.66-45.68c0-15.68-2.88-30.97-8.56-45.43c-13.41-34.38-41.14-60.9-76.06-72.75
					C580.88,1649.08,567.35,1646.85,553.5,1646.85z"/>
			</g>
			<g>
				<g>
					<polygon points="580.39,1817.71 527.06,1817.98 500.16,1771.93 526.59,1725.6 579.92,1725.33 606.82,1771.38 					"/>
					<path d="M526.05,1819.74l-27.92-47.8l27.43-48.09l55.36-0.28l27.92,47.81l-27.44,48.09L526.05,1819.74z M502.19,1771.92
						l25.88,44.3l51.31-0.26l25.42-44.56l-25.88-44.3l-51.31,0.26L502.19,1771.92z"/>
				</g>
				<g>
					<path d="M680.07,1771.67c0,16.33-3.07,31.99-8.78,46.32h-4.19l-26.92-46.08l26.43-46.32h4.78
						C677,1739.87,680.07,1755.43,680.07,1771.67z"/>
					<path d="M672.49,1819.74h-6.39l-27.93-47.83l27.43-48.09h7l0.44,1.11c5.84,14.87,8.8,30.6,8.8,46.72c0,16.32-3,32.13-8.9,46.97
						L672.49,1819.74z M668.11,1816.23h1.99c5.45-14.1,8.22-29.09,8.22-44.56c0-15.28-2.73-30.18-8.13-44.32h-2.55l-25.41,44.55
						L668.11,1816.23z"/>
				</g>
				<g>
					<path d="M594.26,1651.82l-13.85,24.28l-53.34,0.29l-14.33-24.57c12.78-4.39,26.48-6.73,40.76-6.73
						C567.78,1645.09,581.49,1647.43,594.26,1651.82z"/>
					<path d="M526.07,1678.16l-15.93-27.3l2.03-0.7c26.37-9.05,56.3-9.05,82.66,0l2.01,0.69l-15.41,27L526.07,1678.16z
						 M515.35,1652.8l12.73,21.83l51.31-0.28l12.28-21.54C567.25,1644.9,539.77,1644.89,515.35,1652.8z"/>
				</g>
				<g>
					<path d="M593.53,1891.76c-12.58,4.24-26.04,6.48-40.03,6.48c-13.99,0-27.45-2.24-40.03-6.48l13.12-23.01l53.34-0.29
						L593.53,1891.76z"/>
					<path d="M553.5,1900c-13.99,0-27.65-2.21-40.59-6.58l-2.02-0.68l14.68-25.75l55.37-0.31l15.21,26.04l-2.04,0.69
						C581.15,1897.79,567.49,1900,553.5,1900z M516.06,1890.75c23.95,7.6,50.91,7.6,74.85,0.01l-12-20.55l-51.31,0.28
						L516.06,1890.75z"/>
				</g>
				<g>
					<path d="M464.37,1760.74l-26.43,46.32l-5.95,0.05c-3.32-11.21-5.07-23.16-5.07-35.45c0-19.41,4.34-37.79,12.19-54.22
						L464.37,1760.74z"/>
					<path d="M430.69,1808.88l-0.37-1.27c-3.41-11.55-5.14-23.65-5.14-35.95c0-19.31,4.16-37.8,12.36-54.98l1.43-3l27.44,47.04
						l-27.43,48.08L430.69,1808.88z M439.3,1721.24c-7.05,15.83-10.62,32.78-10.62,50.42c0,11.51,1.56,22.84,4.63,33.68l3.6-0.03
						l25.42-44.56L439.3,1721.24z"/>
				</g>
			</g>
		</g>
		<g>
			<g>
				<g>
					<g>
						<g>
							<path d="M944.58,1231.19c-63.64,4.51-127.93,7.72-191.26,15.54c-48.75,6.02-102.58,15.47-137,53.86
								c-65.99,73.62-21.1,188.03,6.36,278.89c2.75-1.56,5.51-3.08,8.22-4.72c22.48-13.61,43-29.75,61.94-47.65
								c-5.31-18.4-10.76-36.77-15.95-55.22c-9.67-34.4-27.39-96.5,5.82-123.63c28.35-23.16,81.82-22.13,116.17-24.98
								c49.41-4.1,98.88-7.88,148.33-11.38C998.85,1308.24,996.61,1227.5,944.58,1231.19z"/>
						</g>
						<g>
							<g>
								<path style="fill:#FFFFFF;" d="M635.91,1538.97c0,0,12.19-60.84-4.97-86.7c-10.15-15.29-35.25-8.03-36.51,10.09l-3.95,56.87
									c7.67,5.65,17.69,11.92,30.84,16.16C626.51,1537.06,631.41,1538.2,635.91,1538.97z"/>
								<path d="M637.3,1540.98l-1.68-0.28c-5-0.84-9.99-2.07-14.83-3.63c-11.02-3.56-20.98-8.78-31.35-16.42l-0.78-0.57l4.02-57.84
									c0.64-9.2,7.15-16.76,16.58-19.25c9.11-2.42,18.2,0.85,23.15,8.31c17.36,26.17,5.73,85.5,5.22,88.02L637.3,1540.98z
									 M592.3,1518.39c6.36,4.63,16.14,11,29.57,15.34c4.13,1.33,8.37,2.41,12.64,3.21c1.78-9.95,9.97-61.11-5.02-83.7
									c-4.98-7.5-13.24-8.46-19.33-6.85c-7.95,2.1-13.43,8.42-13.96,16.1L592.3,1518.39z"/>
							</g>
							<g>
								<path style="fill:#FFBC00;" d="M680.05,1659.9c-6.19,3.67-13.29,6.24-19.56,8.13c-27.79,8.36-265.37,10.39-275.88-8.36
									c-27.34-48.77,93.98-72.76,106.09-75.72c0,0,65.07-15.94,100.45-66.72c0,0,41.76,42.57,102.15,6.13
									c2.42-1.47,14.62,80.2,1.67,119.9C692.6,1650.5,686.86,1655.86,680.05,1659.9z"/>
								<path d="M532.09,1676.01c-69.73,0-142.54-3.91-149.03-15.48c-4.9-8.74-5.54-17.32-1.9-25.5
									c9.21-20.7,44.81-38.21,105.84-52.03c1.44-0.33,2.55-0.58,3.27-0.76c0.65-0.16,64.85-16.39,99.42-66.02l1.21-1.74l1.49,1.51
									c0.1,0.11,10.46,10.49,27.89,16.35c23.31,7.83,47.57,4.31,72.1-10.49l1.04-0.63l1.14,0.78c3.84,3.04,14.81,82.74,2.07,121.8
									c-2.23,6.84-7.51,12.77-15.69,17.61c-5.31,3.14-11.83,5.86-19.95,8.3C649.67,1673.12,592.01,1676.01,532.09,1676.01z
									 M591.42,1519.87c-35.6,49.45-99.66,65.62-100.31,65.78c-0.73,0.18-1.86,0.44-3.34,0.77c-74.59,16.9-97.4,36.54-103.4,50.04
									c-3.21,7.21-2.63,14.53,1.76,22.36c4.06,7.25,55.07,12.52,129.95,13.45c64.69,0.78,130.6-1.91,143.89-5.91
									c7.84-2.36,14.12-4.96,19.17-7.96l0,0c7.43-4.39,12.18-9.66,14.14-15.67c11.44-35.08,2.7-105.7-0.66-116.92
									C638.99,1557.13,599.53,1526.97,591.42,1519.87z"/>
							</g>
							<g>
								<path style="fill:#FFFFFF;" d="M666.63,1591.38c0.7-25.19,14.02-43.33,28.91-60.41c4.19,22.28,9.71,86.74-3.6,116.9
									C691.22,1647.24,665.67,1625.72,666.63,1591.38z"/>
								<path d="M692.57,1650.78l-1.8-1.59c-2.79-2.42-26.84-24.24-25.9-57.86l0,0c0.74-26.55,15.54-45.67,29.34-61.51l2.38-2.73
									l0.67,3.56c3.86,20.5,10.14,86.52-3.72,117.94L692.57,1650.78z M668.39,1591.43c-0.79,28.15,16.84,47.63,22.89,53.46
									c11.6-29.75,6.86-87.09,3.16-109.95C681.3,1550.3,669.06,1567.5,668.39,1591.43L668.39,1591.43z"/>
							</g>
							<g>
								<path style="fill:#FFFFFF;" d="M598.8,1578.4c-13.38,9.06-28.39,14.99-43.4,19.62c-19.76,6.11-40.59,9.81-60.98,11.62
									c-20.2,1.79-41.01,1.34-60.72-3.9c-1.67-0.44-3.31-0.97-4.96-1.47c15.56-6.97,35.71-13.87,61.95-20.33
									c0,0,65.07-15.94,100.45-66.72c0,0,15.82,16.09,42.05,20C625.66,1554.56,613.65,1568.35,598.8,1578.4z"/>
								<path d="M473.89,1612.35c-14.87,0-28.29-1.63-40.64-4.91c-1.36-0.36-2.71-0.78-4.06-1.2l-5.43-1.66l4.27-1.91
									c16.8-7.53,37.74-14.4,62.24-20.43c0.65-0.16,64.85-16.39,99.42-66.02l1.21-1.73l1.49,1.51
									c0.15,0.15,15.76,15.73,41.06,19.5l2.26,0.34l-0.91,2.1c-7.45,17.14-19.23,31.24-35.02,41.92
									c-11.66,7.89-25.6,14.2-43.86,19.85c-18.83,5.82-39.46,9.75-61.34,11.69C487.38,1612.03,480.5,1612.35,473.89,1612.35z
									 M433.86,1603.96c0.1,0.03,0.2,0.06,0.3,0.08c17.42,4.63,37.09,5.89,60.12,3.85c21.63-1.92,42.02-5.8,60.61-11.55
									c17.92-5.54,31.56-11.71,42.93-19.4l0,0c14.58-9.87,25.62-22.76,32.83-38.34c-20.91-3.73-34.79-14.74-39.24-18.71
									c-35.6,49.43-99.64,65.61-100.29,65.76C468.91,1591.11,449.68,1597.26,433.86,1603.96z"/>
							</g>
							<g>
								<path d="M652.65,1670.63c-0.19,0.88-0.37,1.75-0.62,2.61c-2.83,9.91-9.23,16.79-14.28,15.33
									c-4.22-1.22-6.18-7.87-5.03-15.77L652.65,1670.63z"/>
								<path d="M639.15,1690.52c-0.64,0-1.27-0.09-1.88-0.26c-5.09-1.47-7.61-8.59-6.28-17.71l0.2-1.35l23.68-2.59l-0.5,2.38
									l-1.72-0.36l1.71,0.39c-0.19,0.9-0.38,1.81-0.64,2.7c-2.06,7.23-6.05,13.22-10.42,15.64
									C641.92,1690.13,640.51,1690.52,639.15,1690.52z M634.3,1674.4c-0.64,6.37,0.97,11.62,3.94,12.48c1,0.29,2.13,0.09,3.36-0.6
									c3.52-1.95,6.95-7.26,8.74-13.52c0.01-0.04,0.02-0.07,0.03-0.12L634.3,1674.4z"/>
							</g>
							<g>
								<path d="M661.54,1670.08c0.18,7.65,3.03,13.54,7.27,14.16c5.22,0.77,10.49-6.91,11.84-17.1c0.28-2.11,0.36-4.1,0.24-6.06
									C680.88,1661.07,675.22,1665.09,661.54,1670.08z"/>
								<path d="M669.52,1686.05c-0.32,0-0.65-0.02-0.97-0.07c-5.04-0.74-8.57-7.12-8.77-15.86l-0.03-1.26l1.18-0.43
									c13.23-4.82,18.87-8.75,18.93-8.79l2.58-1.81l0.19,3.15c0.12,2.09,0.05,4.18-0.25,6.39c-0.98,7.45-4.04,13.93-7.99,16.9
									C672.84,1685.44,671.18,1686.05,669.52,1686.05z M663.35,1671.28c0.41,6.15,2.72,10.78,5.71,11.21
									c1.02,0.15,2.1-0.2,3.22-1.04c3.17-2.39,5.77-8.11,6.62-14.55c0.12-0.93,0.21-1.82,0.25-2.71
									C676.33,1665.77,671.23,1668.34,663.35,1671.28z"/>
							</g>
							<g>
								<path d="M487.32,1675.62c0.01,0.89,0.02,1.79-0.04,2.75c-0.6,10.26-5.35,18.26-10.62,17.85c-5.2-0.41-8.99-9.08-8.39-19.34
									c0.03-0.48,0.06-0.96,0.14-1.36L487.32,1675.62z"/>
								<path d="M477.05,1697.98c-0.17,0-0.35-0.01-0.52-0.02c-6.28-0.49-10.67-9.8-10.01-21.2c0.03-0.57,0.07-1.13,0.18-1.62
									l0.3-1.4l22.06,0.12l0.02,1.73c0.01,0.94,0.02,1.86-0.04,2.86c-0.43,7.46-3.02,14.12-6.75,17.37
									C480.66,1697.25,478.87,1697.98,477.05,1697.98z M470.01,1677.28c-0.49,9.79,3.16,16.9,6.8,17.18
									c1.04,0.04,2.11-0.35,3.17-1.27c3-2.62,5.18-8.48,5.56-14.93c0.02-0.31,0.03-0.6,0.04-0.9L470.01,1677.28z"/>
							</g>
							<g>
								<path d="M454.62,1675.03c0.04,0.41,0.01,0.89-0.01,1.3c-0.57,10.26-5.32,18.27-10.58,17.87s-9.01-9.07-8.43-19.32
									c0.01-0.2,0.02-0.41,0.04-0.62L454.62,1675.03z"/>
								<path d="M444.4,1695.97c-0.17,0-0.34-0.01-0.51-0.02c-6.28-0.48-10.69-9.78-10.05-21.17l0.09-1.73l1.76-0.55l20.53,0.82
									l0.14,1.54c0.04,0.47,0.02,1.01,0,1.48c-0.42,7.54-3,14.2-6.72,17.46C448.02,1695.23,446.22,1695.97,444.4,1695.97z
									 M437.3,1676.09c-0.23,9.37,3.33,16.09,6.86,16.36c1.04,0.09,2.11-0.35,3.17-1.28c2.92-2.56,5.05-8.19,5.49-14.46
									L437.3,1676.09z"/>
							</g>
							<g>
								<path d="M421.44,1672.01c0.6,10.25-3.2,18.72-8.48,18.87s-9.99-8.06-10.59-18.31c-0.08-1.37-0.1-2.74,0.01-4.04
									L421.44,1672.01z"/>
								<path d="M412.82,1692.64c-6.21,0-11.55-8.71-12.21-19.97c-0.09-1.63-0.09-3.03,0.02-4.29l0.16-1.93l22.32,4.08l0.08,1.37
									c0.44,7.46-1.36,14.35-4.69,17.99c-1.59,1.74-3.49,2.68-5.48,2.74C412.95,1692.63,412.89,1692.64,412.82,1692.64z
									 M404.07,1670.62c0,0.57,0.02,1.19,0.06,1.84c0.58,9.88,5.03,16.66,8.7,16.66c0.03,0,0.06,0,0.08,0
									c1.04-0.03,2.05-0.57,3-1.6c2.48-2.71,3.93-8.12,3.83-14.04L404.07,1670.62z"/>
							</g>
							<g>
								
									<rect x="564.61" y="1549.94" transform="matrix(0.6253 -0.7804 0.7804 0.6253 -1020.9866 1034.1215)" width="3.52" height="60.61"/>
							</g>
							<g>
								
									<rect x="528.15" y="1568.01" transform="matrix(0.6439 -0.7651 0.7651 0.6439 -1033.2607 974.1631)" width="3.52" height="58.2"/>
							</g>
							<g>
								
									<rect x="492.29" y="1579.24" transform="matrix(0.6776 -0.7354 0.7354 0.6776 -1023.5443 881.8443)" width="3.52" height="58.24"/>
							</g>
						</g>
					</g>
					<g>
						<g>
							<path d="M1154.16,1276.71c-22.87-46.65-92.52-5.78-69.71,40.75c65.17,132.96,66.44,284.71,64.68,429.9
								c-0.63,51.97,80.1,52,80.74,0C1231.81,1586.62,1226.09,1423.46,1154.16,1276.71z"/>
						</g>
						<g>
							<g>
								<path style="fill:#FFFFFF;" d="M1206.88,1740.6c0,0-12.19-60.84,4.97-86.7c10.15-15.29,35.25-8.03,36.51,10.09l3.95,56.87
									c-7.67,5.65-17.69,11.92-30.84,16.16C1216.28,1738.7,1211.38,1739.83,1206.88,1740.6z"/>
								<path d="M1205.49,1742.62l-0.34-1.67c-0.5-2.52-12.14-61.85,5.22-88.02c4.94-7.45,14.03-10.72,23.15-8.31
									c9.43,2.49,15.94,10.05,16.58,19.26l4.01,57.83l-0.78,0.57c-10.37,7.65-20.33,12.87-31.35,16.42
									c-4.82,1.56-9.81,2.78-14.83,3.63L1205.49,1742.62z M1227.53,1647.35c-5.06,0-10.54,1.97-14.22,7.51
									c-14.99,22.6-6.8,73.74-5.02,83.7c4.28-0.8,8.52-1.88,12.64-3.21c13.42-4.33,23.2-10.71,29.56-15.34l-3.88-55.91
									c-0.53-7.68-6.02-14-13.97-16.1C1231.05,1647.6,1229.31,1647.35,1227.53,1647.35z"/>
							</g>
							<g>
								<path style="fill:#FFBC00;" d="M1162.75,1861.53c6.2,3.67,13.29,6.24,19.56,8.13c27.79,8.36,265.37,10.39,275.89-8.36
									c27.34-48.77-93.98-72.76-106.09-75.72c0,0-65.07-15.94-100.45-66.72c0,0-41.76,42.57-102.15,6.13
									c-2.42-1.47-14.62,80.2-1.67,119.9C1150.19,1852.13,1155.93,1857.5,1162.75,1861.53z"/>
								<path d="M1303.15,1877.56c-57.34,0-109.19-2.55-121.35-6.21c-8.11-2.44-14.64-5.15-19.95-8.3
									c-8.18-4.84-13.46-10.76-15.69-17.61c-12.74-39.06-1.77-118.76,2.07-121.8l0.96-0.76l1.22,0.61
									c24.53,14.8,48.78,18.31,72.1,10.49c17.43-5.86,27.78-16.24,27.89-16.35l1.48-1.51l1.21,1.73
									c34.64,49.71,98.78,65.86,99.42,66.01c0.72,0.18,1.83,0.43,3.28,0.76c61.02,13.83,96.63,31.33,105.84,52.03
									c3.64,8.18,3,16.76-1.9,25.5c-6.68,11.92-86.18,14.67-132.97,15.25C1318.84,1877.51,1310.94,1877.55,1303.15,1877.56z
									 M1150.16,1727.42c-3.36,11.23-12.1,81.84-0.66,116.92c1.96,6.01,6.72,11.28,14.14,15.67l0,0c5.06,3,11.33,5.6,19.17,7.96
									c13.3,4,79.21,6.73,143.9,5.91c90.98-1.12,126.86-7.95,129.94-13.45c4.39-7.83,4.96-15.14,1.76-22.35
									c-6-13.5-28.81-33.13-103.4-50.04c-1.47-0.33-2.6-0.59-3.34-0.77l0.01-0.04c-5.55-1.29-65.57-17.41-100.32-65.75
									C1243.26,1728.6,1203.79,1758.75,1150.16,1727.42z"/>
							</g>
							<g>
								<path style="fill:#FFFFFF;" d="M1176.16,1793.02c-0.7-25.19-14.02-43.33-28.91-60.41c-4.19,22.28-9.71,86.74,3.6,116.9
									C1151.57,1848.88,1177.11,1827.35,1176.16,1793.02z"/>
								<path d="M1150.27,1852.35l-1.02-2.12c-13.87-31.42-7.59-97.44-3.72-117.94l0.67-3.56l2.38,2.73
									c13.81,15.84,28.6,34.96,29.33,61.51l0,0c0.94,33.62-23.1,55.45-25.85,57.82L1150.27,1852.35z M1148.35,1736.57
									c-3.69,22.86-8.44,80.18,3.17,109.94c6.13-5.92,23.67-25.37,22.88-53.45l0,0
									C1173.74,1769.14,1161.49,1751.94,1148.35,1736.57z"/>
							</g>
							<g>
								<path style="fill:#FFFFFF;" d="M1243.98,1780.03c13.38,9.06,28.39,14.99,43.4,19.62c19.76,6.11,40.59,9.81,60.98,11.62
									c20.2,1.79,41.01,1.34,60.72-3.9c1.67-0.44,3.31-0.97,4.96-1.47c-15.55-6.97-35.71-13.87-61.95-20.33
									c0,0-65.07-15.94-100.45-66.72c0,0-15.82,16.09-42.05,20.01C1217.13,1756.19,1229.14,1769.98,1243.98,1780.03z"/>
								<path d="M1368.88,1813.98c-6.6,0-13.48-0.32-20.68-0.96c-21.87-1.94-42.51-5.87-61.34-11.69
									c-18.27-5.65-32.2-11.95-43.86-19.85l0,0c-15.79-10.68-27.57-24.79-35.02-41.92l-0.91-2.1l2.26-0.34
									c25.29-3.78,40.9-19.35,41.06-19.5l1.49-1.51l1.21,1.73c34.6,49.66,98.78,65.86,99.43,66.02
									c24.5,6.03,45.44,12.9,62.24,20.43l4.27,1.92l-5.44,1.66c-1.35,0.41-2.69,0.83-4.06,1.2
									C1397.19,1812.35,1383.77,1813.98,1368.88,1813.98z M1212.14,1740.24c7.21,15.58,18.25,28.47,32.83,38.34l0,0
									c11.36,7.7,25,13.86,42.93,19.4c18.59,5.74,38.99,9.63,60.61,11.55c23.04,2.04,42.7,0.78,60.12-3.85
									c0.1-0.03,0.2-0.06,0.3-0.08c-15.82-6.69-35.05-12.85-57.25-18.31c-0.65-0.16-64.7-16.33-100.3-65.76
									C1246.93,1725.49,1233.04,1736.5,1212.14,1740.24z"/>
							</g>
							<g>
								<path d="M1190.14,1872.26c0.19,0.88,0.37,1.75,0.62,2.61c2.83,9.91,9.22,16.79,14.28,15.33c4.22-1.22,6.18-7.87,5.03-15.77
									L1190.14,1872.26z"/>
								<path d="M1203.64,1892.16c-1.36,0-2.77-0.39-4.16-1.17c-4.36-2.42-8.35-8.41-10.41-15.63c-0.26-0.88-0.45-1.79-0.64-2.7
									l-0.51-2.37l2.41,0.23l21.27,2.32l0.2,1.35c1.34,9.12-1.19,16.23-6.29,17.71
									C1204.91,1892.07,1204.28,1892.16,1203.64,1892.16z M1192.41,1874.28c0.01,0.04,0.02,0.07,0.03,0.11
									c1.79,6.27,5.21,11.58,8.74,13.53c1.24,0.68,2.36,0.89,3.36,0.6c2.97-0.86,4.58-6.11,3.95-12.48L1192.41,1874.28z"/>
							</g>
							<g>
								<path d="M1181.24,1871.71c-0.18,7.65-3.03,13.54-7.27,14.16c-5.22,0.77-10.49-6.91-11.84-17.1
									c-0.28-2.11-0.36-4.1-0.24-6.06C1161.91,1862.71,1167.57,1866.72,1181.24,1871.71z"/>
								<path d="M1173.26,1887.68c-1.66,0-3.32-0.61-4.88-1.79c-3.94-2.97-7-9.45-7.99-16.9c-0.29-2.21-0.37-4.3-0.25-6.39
									l0.19-3.15l2.58,1.82c0.06,0.04,5.7,3.97,18.92,8.79l1.18,0.43l-0.03,1.26c-0.21,8.74-3.73,15.12-8.76,15.86
									C1173.92,1887.66,1173.59,1887.68,1173.26,1887.68z M1163.64,1865.82c0.04,0.89,0.12,1.79,0.25,2.71
									c0.85,6.45,3.45,12.16,6.62,14.55c1.11,0.84,2.21,1.21,3.22,1.04c2.98-0.44,5.3-5.07,5.71-11.21
									C1171.56,1869.98,1166.46,1867.41,1163.64,1865.82z"/>
							</g>
							<g>
								<path d="M1355.47,1877.25c-0.01,0.89-0.02,1.79,0.04,2.75c0.6,10.26,5.35,18.26,10.62,17.85c5.2-0.41,8.99-9.08,8.39-19.34
									c-0.03-0.48-0.06-0.96-0.14-1.36L1355.47,1877.25z"/>
								<path d="M1365.74,1899.62c-1.81,0-3.61-0.73-5.23-2.15c-3.73-3.26-6.32-9.91-6.75-17.37c-0.06-1-0.05-1.94-0.04-2.87
									l0.02-1.73l22.06-0.12l0.3,1.4c0.1,0.48,0.14,1.05,0.18,1.62c0.66,11.39-3.73,20.71-10.01,21.2
									C1366.09,1899.61,1365.91,1899.62,1365.74,1899.62z M1357.23,1879c0,0.29,0.02,0.59,0.04,0.89
									c0.37,6.45,2.55,12.31,5.55,14.93c1.07,0.93,2.15,1.31,3.17,1.28c3.63-0.29,7.28-7.4,6.79-17.18L1357.23,1879z"/>
							</g>
							<g>
								<path d="M1388.17,1876.66c-0.04,0.41-0.01,0.89,0.01,1.3c0.57,10.26,5.32,18.27,10.58,17.87c5.26-0.4,9.01-9.07,8.43-19.32
									c-0.01-0.2-0.02-0.41-0.04-0.62L1388.17,1876.66z"/>
								<path d="M1398.38,1897.61c-1.81,0-3.62-0.74-5.24-2.16c-3.72-3.26-6.3-9.92-6.71-17.38c-0.03-0.49-0.05-1.07-0.01-1.56
									l0.14-1.54l22.27-0.89l0.12,2.33c0.64,11.41-3.78,20.71-10.05,21.19C1398.72,1897.6,1398.55,1897.61,1398.38,1897.61z
									 M1389.97,1878.35c0.44,6.26,2.57,11.9,5.49,14.46c1.06,0.93,2.11,1.36,3.17,1.28c3.53-0.27,7.09-6.99,6.86-16.36
									L1389.97,1878.35z"/>
							</g>
							<g>
								<path d="M1421.35,1873.64c-0.6,10.25,3.2,18.72,8.48,18.87c5.28,0.15,9.99-8.06,10.59-18.31c0.08-1.37,0.1-2.74-0.01-4.04
									L1421.35,1873.64z"/>
								<path d="M1429.97,1894.27c-0.07,0-0.13,0-0.2,0c-2-0.06-3.9-1.01-5.48-2.74c-3.33-3.64-5.13-10.53-4.7-17.99l0.08-1.38
									l22.32-4.08l0.16,1.93c0.11,1.27,0.11,2.67,0.01,4.29C1441.51,1885.56,1436.17,1894.27,1429.97,1894.27z M1423.05,1875.12
									c-0.11,5.92,1.35,11.33,3.83,14.03c0.94,1.03,1.95,1.57,3,1.6c0.03,0,0.06,0,0.08,0c3.68,0,8.12-6.79,8.7-16.66
									c0.04-0.65,0.06-1.27,0.06-1.84L1423.05,1875.12z"/>
							</g>
							<g>
								
									<rect x="1246.21" y="1780.16" transform="matrix(0.7809 -0.6247 0.6247 0.7809 -833.4178 1187.8748)" width="60.61" height="3.52"/>
							</g>
							<g>
								
									<rect x="1283.86" y="1797.03" transform="matrix(0.765 -0.6441 0.6441 0.765 -849.9575 1268.4233)" width="58.21" height="3.52"/>
							</g>
							<g>
								
									<rect x="1319.54" y="1808.25" transform="matrix(0.7358 -0.6772 0.6772 0.7358 -869.418 1391.5203)" width="58.24" height="3.52"/>
							</g>
						</g>
					</g>
				</g>
				<g>
					<g>
						<g>
							<path d="M1500.74,1017.35c-2.53,18.39-5.41,36.66-8.43,54.63c-7.32,43.69-15.71,93.69-40.75,131.4
								c-11.7,17.62-25.16,27.05-46.47,26.99c-22.02-0.06-40.84-7.79-59.73-18.59c-40.95-23.41-74.96-59.15-106.25-93.89
								c-26.22-33.96-78.5,3.6-53.48,38.4c40.5,44.96,83.16,88.78,136.88,117.92c54.02,29.3,121.58,32.74,166.89-13.43
								c39.61-40.36,54.43-104.88,64.43-158.64c4.88-26.24,9.09-52.95,12.5-79.8C1544.49,1020.59,1522.62,1018.91,1500.74,1017.35z"
								/>
						</g>
						<g>
							<g>
								<g>
									<path style="fill:#FFFFFF;" d="M1444.84,929.7c-0.4,15.92,19.17,27.4,32.81,18.27c9.21-6.17,29.39-16.27,43.43,1.71
										c18.72,23.97-20.28,45.88-42.4,37.04c0,0-20.31-3.95-20.45-26.85c-0.04-5.18-2.24-10.12-5.83-13.85
										c-4.58-4.76-12.56-4.52-16.47,0.81c-13.27,18.07-8.33,73.36,58.24,77.54c0,0-13.54,1.02-18.07,11.89
										c-3.9,9.33,2.24,19.92,12.03,22.43l64.62,16.61c13.35,3.43,27.31-6.25,27.13-20.03c-0.06-5-2.03-9.86-7.51-13.56
										c0,0,58.63-121.92,44.98-167.74c-4.27-14.33-21-19.75-32.57-10.29c-3.3,2.7-6.79,6.56-10.24,12.06
										c0,0-0.21-31.12-22.93-26.44c-23.73,4.88-23.95,67.83-23.95,67.83c-2.35-3.78-8.76-5.7-12.66-7.42
										c-9.95-4.39-20.78-6.98-31.67-7.28c-15.89-0.43-36.21,7.35-38.37,25.47C1444.9,928.49,1444.86,929.1,1444.84,929.7z"/>
									<path d="M1558.24,1077.74c-1.98,0-3.97-0.25-5.91-0.75l-64.62-16.61c-5.49-1.41-10.09-5.13-12.61-10.21
										c-2.35-4.71-2.56-9.9-0.6-14.6c2.25-5.39,6.43-8.56,10.36-10.41c-33-4.81-46.34-22.95-51.48-33.94
										c-8.23-17.6-5.66-36.19,1.14-45.45c2.11-2.86,5.39-4.64,9.02-4.88c0.86-0.06,1.71-0.03,2.54,0.08
										c-2.02-3.44-3.09-7.33-2.99-11.32v-0.01c0.02-0.65,0.07-1.3,0.14-1.96c2.19-18.4,21.92-27.49,40.16-27.02
										c10.81,0.3,21.99,2.86,32.33,7.43c0.72,0.32,1.53,0.64,2.38,0.98c2.54,1.02,5.49,2.21,7.85,3.87
										c0.26-10.59,2.44-35.55,9.92-50.95c4.03-8.31,9.21-13.16,15.39-14.43c6.13-1.27,11.32-0.21,15.43,3.12
										c6.27,5.07,8.45,14.21,9.2,19.94c2.46-3.32,5.07-6.11,7.78-8.32c5.89-4.82,13.35-6.34,20.45-4.16
										c7.14,2.19,12.72,7.91,14.93,15.31c13.07,43.89-37.79,153.61-44.45,167.67c4.61,3.56,6.98,8.3,7.05,14.1
										c0.08,6.73-3,13.05-8.47,17.35C1568.9,1075.95,1563.59,1077.74,1558.24,1077.74z M1444.4,944.38
										c-0.21,0-0.42,0.01-0.63,0.02c-2.63,0.18-4.91,1.4-6.42,3.46c-6.03,8.22-8.36,25.69-0.79,41.89
										c9.08,19.42,29.59,31.1,57.73,32.87l0.02,3.51c-0.12,0.01-12.52,1.09-16.58,10.81c-1.56,3.74-1.39,7.89,0.5,11.68
										c2.07,4.16,5.85,7.21,10.34,8.37l64.62,16.61c6.14,1.58,12.8,0.18,17.82-3.77c4.6-3.61,7.19-8.91,7.12-14.54
										c-0.07-5.15-2.27-9.12-6.74-12.12l-1.26-0.85l0.66-1.37c0.58-1.21,58.18-121.83,44.88-166.48
										c-1.87-6.26-6.57-11.11-12.59-12.96c-5.94-1.82-12.22-0.54-17.19,3.52c-3.49,2.85-6.81,6.77-9.86,11.64l-3.2,5.09
										l-0.05-6.01c0-0.16-0.22-15.79-8.31-22.33c-3.26-2.63-7.47-3.45-12.51-2.4c-21.97,4.52-22.54,65.49-22.54,66.1l0,6.16
										l-3.26-5.23c-1.6-2.58-5.92-4.32-9.39-5.71c-0.89-0.36-1.74-0.7-2.49-1.03c-9.92-4.38-20.64-6.85-31-7.13
										c-16.29-0.39-34.65,7.79-36.58,23.92c-0.06,0.55-0.1,1.1-0.12,1.65c-0.17,6.88,3.86,13.44,10.52,17.1
										c6.55,3.6,13.86,3.47,19.56-0.34c8.72-5.84,30.62-17.33,45.8,2.09c6.81,8.73,7.1,18.15,0.8,26.53
										c-9.46,12.6-31.02,18.92-45.24,13.23c0,0,0,0,0,0c-0.14,0-21.4-4.54-21.56-28.47c-0.03-4.61-1.93-9.1-5.34-12.65
										C1449.37,945.4,1446.95,944.38,1444.4,944.38z M1458.04,951.18c1.25,2.74,1.92,5.68,1.94,8.68
										c0.14,21.22,18.85,25.1,19.03,25.13c12.98,5.16,32.98-0.7,41.44-11.98c3.72-4.95,6.6-12.83-0.77-22.26
										c-12.87-16.48-31.25-7.9-41.07-1.33C1472.58,953.48,1465.05,954.07,1458.04,951.18z"/>
								</g>
								<g>
									
										<rect x="1546.05" y="898.78" transform="matrix(0.1387 -0.9903 0.9903 0.1387 461.3081 2331.4934)" width="50" height="3.52"/>
								</g>
							</g>
							<g>
								
									<rect x="1506.02" y="1013.96" transform="matrix(0.2619 -0.9651 0.9651 0.2619 120.731 2213.9487)" width="3.51" height="28.16"/>
							</g>
							<g>
								
									<rect x="1560.36" y="1029.15" transform="matrix(0.2056 -0.9786 0.9786 0.2056 223.5378 2354.5967)" width="3.51" height="20.92"/>
							</g>
							<g>
								
									<rect x="1566.31" y="897.67" transform="matrix(0.2192 -0.9757 0.9757 0.2192 322.0924 2251.9802)" width="3.52" height="54.17"/>
							</g>
						</g>
					</g>
					<g>
						<g>
							<path d="M803.01,1110.45c-64.1-16.85-129.98-23.99-196.19-24.47c-58.14-0.42-121.88,12.76-162.62,58.1
								c-22.67,25.23-24.76,57.07-5.65,84.61c15.86,22.86,43.44,37.01,67.15,50.53c50.85,29,103.63,54.89,136.61,105.21
								c24.84,37.91,82.54-2.24,57.74-40.09c-28.67-43.75-68.4-72.87-112.82-99.29c-23.77-14.12-52.1-20.71-73.78-38.39
								c-14.71-12-17.05-15.14-3.07-26.68c11.65-9.62,28.2-16.05,42.75-19.46c24.77-5.81,51.37-4.89,76.62-4.22
								c54.25,1.46,108.31,9.52,160.77,23.31C835.58,1187.64,847.94,1119.73,803.01,1110.45z"/>
						</g>
						<g>
							<g>
								<path style="fill:#FFFFFF;" d="M567.53,1317.56c-12.62,14.96-1.17,37.13,15.64,32.93c2.34-0.59,4.56-1.6,6.57-2.87
									c1.37-0.87,2.69-1.81,3.99-2.76c81.05,151.13,115.03,103.99,115.03,103.99c32.14,0.02,32.02-18.5,32.02-18.5
									c49.59-15.2-10.64-85.48-10.64-85.48c7.36-66.26-68.48-45.08-68.84-44.99c3.9-4.48,6.03-10.23,5.99-11.56
									c-0.18-6.81-5.1-19.16-17.73-19.63C623.68,1267.74,576.28,1307.19,567.53,1317.56z"/>
								<path d="M693.01,1457.57c-0.6,0-1.22-0.02-1.85-0.06c-18.33-1.22-50.18-21.35-98.02-110.05c-0.81,0.57-1.62,1.12-2.46,1.65
									c-2.27,1.44-4.66,2.48-7.09,3.09c-7.8,1.95-15.39-1.24-19.8-8.31c-4.39-7.05-5.36-18.28,2.39-27.46l0,0
									c8.11-9.62,55.34-49.5,82.48-49.5c0.33,0,0.66,0.01,0.98,0.02c13.03,0.49,19.2,12.77,19.42,21.34
									c0.04,1.52-1.3,5.19-3.55,8.83c10.95-2.24,38.41-6.04,54.52,7.72c9.76,8.34,13.78,21.62,11.94,39.48
									c4.58,5.47,36.39,44.69,29.06,69.95c-2.39,8.23-8.64,14.08-18.6,17.41c-0.3,2.07-1.37,6.24-5.26,10.15
									c-5.68,5.71-14.96,8.66-27.58,8.78C707.9,1452.53,702.53,1457.57,693.01,1457.57z M594.33,1342.25l0.95,1.79
									c47.61,88.78,78.54,108.8,96.1,109.97c10.87,0.69,15.91-6.11,15.96-6.17l0.52-0.73h0.9c0.01,0,0.02,0,0.04,0
									c29.78,0,30.23-16.06,30.23-16.74l0.01-1.29l1.23-0.39c9.41-2.88,15.26-8.06,17.38-15.38c7.2-24.81-28.48-66.85-28.85-67.27
									l-0.5-0.58l0.08-0.76c1.89-17.01-1.69-29.52-10.66-37.17c-18.62-15.9-54.44-6.34-55.95-5.92l-5.61,1.53l3.8-4.38
									c3.72-4.28,5.53-9.53,5.56-10.39c-0.14-5.64-4.26-17.46-16.04-17.9c-24.51-0.93-71.68,37.6-80.65,48.24l0,0
									c-6.61,7.84-5.82,17.37-2.1,23.34c3.63,5.82,9.59,8.36,15.97,6.76c2.06-0.51,4.1-1.41,6.06-2.65
									c1.35-0.85,2.63-1.76,3.9-2.69L594.33,1342.25z"/>
							</g>
							<g>
								<path d="M707.19,1449.19c-4.15-12.03-9.9-23.55-17.09-34.24c-7.35-10.93-16.26-21.03-26.44-30.03l2.33-2.64
									c10.41,9.2,19.51,19.53,27.04,30.71c7.36,10.94,13.25,22.73,17.5,35.05L707.19,1449.19z"/>
							</g>
							<g>
								<path d="M738.87,1430.91c-4.01-11.67-9.51-22.87-16.33-33.3c-7.84-11.98-19.24-24.31-27.3-31.86l2.4-2.57
									c8.21,7.68,19.84,20.25,27.85,32.5c6.98,10.67,12.6,22.14,16.71,34.08L738.87,1430.91z"/>
							</g>
							<g>
								
									<rect x="719.03" y="1319.3" transform="matrix(0.6893 -0.7245 0.7245 0.6893 -745.2713 937.88)" width="3.52" height="37.03"/>
							</g>
							<g>
								
									<rect x="637.4" y="1304.59" transform="matrix(0.8628 -0.5056 0.5056 0.8628 -571.1712 508.2811)" width="26.73" height="3.52"/>
							</g>
							<g>
								
									<rect x="589.14" y="1338.39" transform="matrix(0.8296 -0.5583 0.5583 0.8296 -646.0812 563.0607)" width="20.82" height="3.52"/>
							</g>
						</g>
					</g>
				</g>
			</g>
			<g>
				<g>
					<path style="fill:#B18BF1;" d="M1250.41,1189.3c-4.11,156.38-193.2,228.98-328.75,204.61
						c-127.25-13.41-265.44-137.74-204.02-271.79C808.43,911.62,1239.77,940.64,1250.41,1189.3z"/>
					<path d="M976.8,1399.93c-140.39,7.25-321.07-111.4-265.49-266.76c78.35-207.26,457.58-204.66,532.05,2.91
						C1295.35,1290.78,1116.2,1406.87,976.8,1399.93z M719.06,1123.17c-60.51,132.05,76.54,255.85,202.88,268.99
						c134.11,24.79,323.59-48.96,326.72-202.87C1235.54,941.62,811.22,913.39,719.06,1123.17z"/>
				</g>
				<g>
					<g>
						<g>
							<polygon style="fill:#FF4568;" points="1224.42,1100.18 1320.91,1164.67 1284.32,1278.06 1203.18,1207.77 							"/>
							<path d="M1285.18,1281.13l-83.93-72.7c0.23-1.16,21.72-110,21.95-111.17l99.79,66.69L1285.18,1281.13z M1205.1,1207.11
								l78.36,67.88l35.37-109.6l-93.2-62.29L1205.1,1207.11z"/>
						</g>
						<g>
							<polygon style="fill:#FF4568;" points="773.81,1085.87 633.33,1068.74 625.47,1174.11 763.71,1175.08 							"/>
							<path d="M765.28,1176.85l-141.7-1l8.14-109.07l144.04,17.56L765.28,1176.85z M627.36,1172.36l134.78,0.95l9.72-85.9
								l-136.92-16.7L627.36,1172.36z"/>
						</g>
					</g>
					<g>
						<path style="fill:#FF4568;" d="M1250.41,1189.3c-4.11,156.39-193.2,228.98-328.75,204.61
							c-127.25-13.41-265.44-137.73-204.02-271.79c8.69-19.52,20.87-37.68,35.52-53.26l224.36,151.17l234.13-138.03
							C1235.66,1112.6,1250.63,1149.89,1250.41,1189.3z"/>
						<path d="M976.8,1399.93c-179.29,8.46-371.13-169.31-223.87-333.35c0.84,0.56,223.63,150.68,224.66,151.37l234.51-138.26
							C1338.37,1245.68,1146.93,1407.65,976.8,1399.93z M719.06,1123.17c-74.45,181.19,157.43,301.8,312.61,268.99
							c148.58-16.57,286.57-169.54,179.54-307.87L977.46,1222.1c-0.58-0.39-223.32-150.47-224.05-150.96
							C739.01,1086.79,727.67,1104.03,719.06,1123.17z"/>
					</g>
					<g>
						<path d="M1224.42,1100.18c-0.04-0.11-247.17,130.92-247.21,130.89l-239.46-143.51c5.89-8.43,12.75-16.05,19.86-23.5
							l219.92,135.85l229.29-123.93C1213.19,1083.68,1219.2,1091.66,1224.42,1100.18z"/>
						<path d="M977.15,1233.09c-0.41-0.26-241.34-144.64-241.92-144.99c6.11-9.02,14.21-18.15,22.11-26.27l220.25,136.06
							l229.65-124.13c7.58,9.01,14.15,17.85,20.32,28.17C1224.37,1099.4,979.91,1233.05,977.15,1233.09z M740.28,1087.03
							l236.98,142.03l244.65-129.58c-4.9-7.77-9.86-14.28-15.52-21.26l-228.92,123.73c-0.4-0.24-219-135.29-219.59-135.65
							C751.77,1072.79,745.22,1080.09,740.28,1087.03z"/>
					</g>
					<g>
						<polygon style="fill:#FFFFFF;" points="1164.8,1200.96 1133.57,1200.96 1117.95,1232.76 1133.57,1264.55 1164.8,1264.55 
							1180.41,1232.76 						"/>
						<path d="M1165.89,1266.31h-33.42l-16.48-33.55l16.48-33.55h33.42l16.48,33.55L1165.89,1266.31z M1134.66,1262.8h29.04
							l14.76-30.03l-14.76-30.04h-29.04l-14.76,30.04L1134.66,1262.8z"/>
					</g>
				</g>
			</g>
			<g>
				<g>
					<g>
						<g>
							<path d="M846.48,352.98c0,32.31-3.28,63.06-9.11,91.08c-21.25,4.76-41.7,10.7-61.12,17.65
								c-49.54,17.76-92.76,42.04-126.71,71.14c-25.57-43.43-41.71-107.93-41.71-179.87c0-130.77,49.92-251.22,115.83-251.22
								C789.58,101.76,846.48,222.21,846.48,352.98z"/>
							<path d="M649.09,535.55l-1.07-1.81c-26.66-45.28-41.95-111.17-41.95-180.76c0-63.92,12.16-127.84,33.35-175.37
								c22.32-50.05,52.24-77.61,84.24-77.61c66.36,0,124.57,118.22,124.57,252.98c0,31.52-3.08,62.29-9.15,91.44l-0.23,1.11
								l-1.1,0.25c-20.89,4.68-41.39,10.6-60.91,17.59c-48.95,17.55-92.57,42.03-126.16,70.82L649.09,535.55z M723.67,103.52
								c-61.84,0-114.08,114.24-114.08,249.47c0,68.06,14.71,132.47,40.41,177.17c33.68-28.47,77.08-52.68,125.65-70.09
								c19.32-6.92,39.57-12.79,60.22-17.46c5.87-28.58,8.85-58.73,8.85-89.62C844.73,222.42,787.03,103.52,723.67,103.52z"/>
						</g>
						<g>
							<path d="M1336.93,338.58c0,76.64-18.38,144.78-46.82,188.11c-29.64-24.82-66.07-46.05-107.46-62.52
								c-0.16-0.05-0.4-0.16-0.56-0.21c-22.61-9.04-46.74-16.63-72.06-22.62c-7.51-31.07-11.74-65.95-11.74-102.74
								c0-130.77,53.45-236.83,119.36-236.83C1283.48,101.76,1336.93,207.82,1336.93,338.58z"/>
							<path d="M1290.5,529.31l-1.52-1.27c-29.68-24.86-65.68-45.8-106.97-62.24l0.1-1.84l-0.55,1.67
								c-22.7-9.07-46.87-16.66-71.92-22.59l-1.05-0.25l-0.25-1.05c-7.83-32.37-11.79-67.08-11.79-103.16
								c0-131.56,54.33-238.58,121.12-238.58c66.74,0,121.04,107.03,121.04,238.58c0,74.56-17.17,143.47-47.11,189.07L1290.5,529.31
								z M1183.31,462.54c40.94,16.3,76.73,37,106.41,61.54c28.91-45.05,45.46-112.5,45.46-185.49
								c0-129.62-52.72-235.07-117.52-235.07c-64.85,0-117.6,105.45-117.6,235.07c0,35.41,3.85,69.48,11.44,101.29
								c24.85,5.93,48.82,13.48,71.26,22.45l-0.09,1.84L1183.31,462.54z"/>
						</g>
					</g>
					<g>
						<path style="fill:#B18BF1;" d="M1444.01,845.07c-1.25,8.71-3.04,17-5.15,24.45c-60,211.42-301.49,278.66-482.13,271.59
							c-155.66-6.1-320.55-58.79-419.99-196.22c-30.49-42.13-75.5-136.8-11.79-172.45c13.17-7.38,28.66-7.64,44.79-2.17
							c-0.96-12.23-1.61-24.56-1.61-37.05c0-24.47,2.01-48.42,5.86-71.76c21.03-127.99,97.29-236.19,202.29-296.84
							c57.72-33.41,124.18-52.41,194.82-52.41c77.22,0,149.47,22.65,210.72,62.13c0.16,0.09,0.4,0.26,0.56,0.35
							c98.01,63.17,168.25,169.03,186.8,292.76c3.21,21.43,4.9,43.38,4.9,65.77c0,0.95-0.08,1.91-0.08,2.95
							c12.28-2.95,24.08-2,34.6,3.21C1444.39,757.1,1449.71,805.47,1444.01,845.07z"/>
						<path d="M982.17,1143.36c-8.52,0-17.02-0.17-25.51-0.5c-107.18-4.2-304.44-35.37-421.35-196.96
							c-20.48-28.3-52.49-88.24-42.55-133.3c4.04-18.31,14.58-32.34,31.33-41.71c12.42-6.96,27.49-8.02,43.7-3.1
							c-0.95-12.69-1.41-24.03-1.41-34.58c0-24.16,1.98-48.4,5.89-72.05c20.85-126.9,94.89-235.55,203.14-298.07
							c59.51-34.44,127.18-52.65,195.7-52.65c75.13,0,148.32,21.58,211.67,62.41l-0.41,1.81l0.86-1.53
							c101.08,65.14,169.46,172.29,187.7,294.05c3.26,21.78,4.91,43.99,4.91,66.03c0,0.25,0,0.5-0.01,0.75
							c12.13-2.49,23.4-1.19,33.55,3.84c44.91,22.23,39.2,87.92,36.38,107.53l-1.74-0.25l1.74,0.25c-1.23,8.53-2.98,16.84-5.2,24.68
							c-27.13,95.59-95.17,171.26-196.77,218.84C1168.91,1123.9,1074.84,1143.36,982.17,1143.36z M548.43,768.28
							c-8.23,0-15.87,1.9-22.63,5.69c-15.84,8.86-25.8,22.12-29.61,39.4c-9.67,43.85,21.83,102.65,41.97,130.48
							c116.04,160.38,312.1,191.33,418.64,195.5c100.16,3.95,204.23-15.64,285.49-53.69c100.65-47.12,168.04-122.03,194.88-216.62
							c2.19-7.69,3.9-15.84,5.11-24.22l0,0c2.74-19.01,8.33-82.69-34.46-103.87c-10.02-4.96-21.26-5.99-33.4-3.08l-2.17,0.52v-2.23
							c0-0.56,0.02-1.09,0.04-1.61c0.02-0.45,0.04-0.9,0.04-1.34c0-21.87-1.64-43.91-4.87-65.51
							c-18.1-120.76-85.9-227.02-186.01-291.55l0.4-1.81l-0.86,1.53c-62.87-40.52-135.41-61.91-209.87-61.91
							c-67.91,0-134.97,18.04-193.94,52.17c-107.33,62-180.75,169.74-201.43,295.6c-3.87,23.47-5.84,47.51-5.84,71.48
							c0,11.18,0.52,23.25,1.6,36.91l0.21,2.66l-2.52-0.85C561.98,769.5,555.02,768.28,548.43,768.28z"/>
					</g>
				</g>
				<g>
					<g>
						<g>
							<g>
								<path d="M1222.54,806.8c34,14.03,30.08,59.63,8.41,83.09l-0.3-0.18c16.95-25.17,22.03-65.31-8.27-82.59L1222.54,806.8z"/>
							</g>
							<g>
								<path d="M1242.17,803.72c31.28,6.31,34.77,46.25,19.16,69.02l-0.33-0.13c10.64-23.71,9.12-58.33-18.94-68.55L1242.17,803.72
									z"/>
							</g>
						</g>
						<g>
							<g>
								<path d="M726.32,803.85c-33.3,15.41-34.9,54.92-26.54,86.14l-0.33,0.12c-12.98-31.08-10.02-74.48,26.77-86.6L726.32,803.85z
									"/>
							</g>
							<g>
								<path d="M706.03,796.38c-30.02,8.89-36.72,41.44-34.88,68.91l-0.34,0.06c-6.49-28.17,2.31-64.42,35.19-69.32L706.03,796.38z
									"/>
							</g>
						</g>
					</g>
					<g>
						<g>
							<path d="M907.82,785.56c-0.2,21.07,27.01,38.41,60.8,38.74s61.33-16.48,61.54-37.55c0.2-21.07-27.01-38.41-60.8-38.74
								C935.58,747.69,908.03,764.5,907.82,785.56z"/>
							<path d="M969.58,826.06c-0.32,0-0.65,0-0.97,0c-16.66-0.16-32.32-4.38-44.07-11.87c-12.01-7.65-18.57-17.83-18.46-28.64
								c0.1-10.81,6.86-20.86,19.02-28.28c11.9-7.26,27.59-11.2,44.29-11.01c34.69,0.34,62.75,18.51,62.54,40.51
								C1031.7,808.57,1003.83,826.06,969.58,826.06z M968.38,749.77c-15.65,0-30.34,3.71-41.46,10.5
								c-11.09,6.76-17.24,15.75-17.34,25.31l0,0c-0.09,9.56,5.89,18.66,16.84,25.65c11.21,7.14,26.2,11.16,42.22,11.32
								c0.32,0,0.64,0,0.95,0c32.33,0,58.62-15.94,58.81-35.81c0.19-20.06-26.3-36.64-59.06-36.96
								C969.02,749.77,968.7,749.77,968.38,749.77z"/>
						</g>
						<g>
							<path d="M1023.4,742.45c-4.51-2-8.95-3.99-13.57-5.5c-4.53-1.69-9.14-3.1-13.82-4.17c-9.31-2.24-18.8-3.67-28.33-3.51
								c-9.53-0.4-19.03,0.94-28.4,2.92c-4.7,0.98-9.33,2.31-13.9,3.92c-4.64,1.43-9.12,3.34-13.66,5.26l-0.18-0.3
								c16.86-10.07,36.49-15.49,56.17-15.31c19.67,0.21,39.19,6.04,55.86,16.4L1023.4,742.45z"/>
						</g>
					</g>
					<g>
						<g>
							<path style="fill:#FF6DCE;" d="M958.46,1027.53c241.68,15.73,329.35-251.75,198.83-212.35
								c-25.21,7.61-47.87,13.75-68.06,18.7c-75.48,18.52-154.68,17.76-229.73-2.51c-22.38-6.04-48.88-13.62-79.93-23.1
								c-114.28-34.89-51.16,226.36,190.93,219.48L958.46,1027.53z"/>
							<path d="M978.22,1029.94c-5.67,0.07-11.51-0.35-17.27-0.29c-120.41,0-194.8-65.56-224.56-128.16
								c-16.9-35.55-18.3-69.58-3.54-86.68c7.04-8.17,20.95-16.23,47.22-8.21c28.52,8.71,55.4,16.47,79.88,23.09
								c74.45,20.1,153.58,20.96,228.86,2.5c21.65-5.31,44.52-11.6,67.97-18.67c30.98-9.36,46.29-0.82,53.68,7.99
								c13.68,16.32,11.61,47.29-5.39,80.81C1172.06,967.43,1090.03,1029.94,978.22,1029.94z M970.53,1026.28
								c84.42,1.7,185.81-35.62,231.41-125.57c16.35-32.25,18.58-61.74,5.83-76.96c-9.61-11.47-26.88-13.86-49.97-6.89
								c-23.51,7.1-46.44,13.39-68.15,18.72c-75.85,18.6-155.59,17.74-230.6-2.52c-24.53-6.62-51.44-14.4-79.99-23.11
								c-19.36-5.91-34.41-3.44-43.53,7.14c-13.84,16.05-12.25,48.58,4.06,82.88c29.09,61.18,101.6,125.24,218.9,126.14l0.01-0.35
								l12.03,0.22L970.53,1026.28z"/>
						</g>
						<g>
							<g>
								<path style="fill:#FFFFFF;" d="M959.44,1004.01c219.57,12.85,296.66-209.25,180.12-165.38
									C1024.52,881.94,961.8,875,961.8,875l10.93,0.2c0,0-62.93,4.64-176.31-42.85c-114.86-48.1-45.95,176.67,173.95,171.86
									L959.44,1004.01z"/>
								<path d="M977.31,1006.29c-4.51,0.04-9.12-0.19-13.71-0.25c-112.99,0.01-191.15-61.93-216.37-120.6
									c-10.07-23.42-9.9-43.65,0.44-54.09c6.81-6.87,20.91-12.57,49.44-0.62c85.18,35.67,142.21,41.8,164.72,42.68l0.01-0.17
									l10.93,0.37c22.52-0.06,79.74-4.1,166.18-36.63c28.92-10.89,42.82-4.7,49.38,2.43c9.96,10.81,9.38,31.03-1.54,54.07
									C1160.35,949.27,1084.34,1006.29,977.31,1006.29z M970.41,1002.7c2.32,0.06,4.63,0.08,6.92,0.08
									c105.5,0,180.31-56,206.28-110.8c10.28-21.7,11.08-40.46,2.13-50.18c-8.24-8.94-24.41-9.49-45.56-1.52
									c-94.97,35.75-155.14,37.3-172.98,36.78c-17.95-0.14-77.96-3.93-171.45-43.08c-20.83-8.72-37.02-8.78-45.58-0.14
									c-9.3,9.39-9.19,28.16,0.29,50.23c24.47,56.92,99.86,116.96,209.01,118.45l0.01-0.25l10.93,0.2V1002.7z"/>
							</g>
							<g>
								
									<rect x="759.68" y="900.11" transform="matrix(0.0585 -0.9983 0.9983 0.0585 -129.2516 1666.6887)" width="118.59" height="3.51"/>
							</g>
							<g>
								
									<rect x="870.65" y="936.23" transform="matrix(0.0274 -0.9996 0.9996 0.0274 -27.7162 1847.4869)" width="129.8" height="3.52"/>
							</g>
							<g>
								
									<rect x="1045.57" y="866.94" transform="matrix(0.9983 -0.0583 0.0583 0.9983 -52.4952 62.6424)" width="3.51" height="128.1"/>
							</g>
							<g>
								
									<rect x="1134.54" y="842.12" transform="matrix(0.9878 -0.1556 0.1556 0.9878 -125.2564 187.6997)" width="3.52" height="103.6"/>
							</g>
						</g>
					</g>
					<g>
						<g>
							<g>
								<path style="fill:#FFFFFF;" d="M671.57,681.16c0.24,39.81,5.37,77.15,14.19,109.61c27.81-14.07,60.95-21.96,92.95-23.93
									c24.96-1.58,48.75,0.4,69.93,5.19c11.36,2.48,21.88,5.77,31.57,9.86c7.34-31.04,11.39-66.25,11.09-103.44
									c-0.23-37.1-4.65-72.07-12.34-102.99c0.01-0.08-0.06-0.17-0.13-0.26c-18.61-74.04-55.93-124.27-98.8-123.82
									C719.4,452.2,670.9,555.01,671.57,681.16z"/>
								<path d="M684.62,793.3l-0.56-2.08c-9.08-33.45-14.01-71.51-14.25-110.06l0,0C669.14,554.33,718.56,450.45,780,449.61
									c0.2,0,0.4,0,0.6,0c42.19,0,80.38,47.71,99.84,124.79l0.22,0.28l0.02,0.39c7.99,32.15,12.15,66.92,12.38,103.36
									c0.3,35.87-3.56,71.78-11.14,103.85l-0.48,2.02l-1.92-0.81c-9.55-4.03-20.06-7.32-31.26-9.76
									c-21.58-4.87-45.58-6.65-69.44-5.15C746.54,770.6,713.32,778.46,684.62,793.3z M673.33,681.14
									c0.22,37.45,4.91,74.43,13.56,107.09c28.16-13.81,60.39-21.2,91.72-23.16c24.17-1.53,48.52,0.28,70.41,5.23
									c10.65,2.33,20.71,5.41,29.94,9.16c7.2-31.28,10.86-66.16,10.57-101c-0.22-36.09-4.34-70.53-12.23-102.37l-0.19-0.47
									c-19.01-75.63-55.95-122.49-96.51-122.49c-0.19,0-0.37,0-0.56,0C720.54,453.94,672.66,556.23,673.33,681.14L673.33,681.14z"
									/>
							</g>
							<g>
								<g>
									<path d="M695.87,534.91c-31.13-16.2-29.27-59.28-29.17-61.11l3.51,0.18c-0.02,0.43-1.82,42.66,27.28,57.81L695.87,534.91z"
										/>
								</g>
								<g>
									<path d="M681.94,575.44c-37.27-4.38-45.47-52.32-45.54-52.8l3.47-0.56c0.07,0.46,7.86,45.8,42.49,49.88L681.94,575.44z"/>
								</g>
								<g>
									<path d="M673.18,638.07c-37.18-5.25-46.58-47.03-46.67-47.45l3.44-0.74c0.08,0.4,8.99,39.81,43.72,44.71L673.18,638.07z"/>
								</g>
							</g>
							<g>
								<path d="M718,613.45l76.75,25.34l-77.89,28.33c0.31,5.78,0.54,11.46,0.99,17.34c1.9,27.78,1.16,65.51,5.53,91.78
									c17.36-5.01,36.62-8.29,55.32-9.41c24.96-1.58,48.75,0.4,69.93,5.19c5.12-29.58,7.33-62.38,5.87-96.67
									c-1.53-37.91-7.19-73.52-15.98-104.81c0.01-0.08,0.02-0.16-0.05-0.25c-16.37-46.38-39.23-76.54-62.49-76.82
									C745.74,493.27,723.49,542.98,718,613.45z"/>
								<path d="M721.98,778.47l-0.32-1.95c-2.86-17.18-3.54-38.98-4.2-60.06c-0.35-11.4-0.69-22.18-1.36-31.88
									c-0.35-4.46-0.57-8.83-0.79-13.22l-0.28-5.45l74.35-27.04l-73.24-24.19l0.11-1.37c5.76-73.91,29.13-121.61,59.56-121.61
									c0.06,0,0.12,0,0.19,0c23.33,0.27,46.66,28.59,64.03,77.71l0.26,0.32l0,0.55c9.1,32.49,14.48,67.82,15.98,104.99
									c1.43,33.51-0.55,66.17-5.89,97.04l-0.32,1.82l-1.81-0.41c-21.56-4.87-45.58-6.65-69.43-5.14
									C759.91,769.71,740.18,773.08,721.98,778.47z M718.68,668.33l0.14,2.86c0.22,4.35,0.44,8.69,0.78,13.13
									c0.67,9.78,1.01,20.59,1.36,32.03c0.63,20.18,1.28,41.01,3.84,57.66c17.28-4.82,35.97-7.87,53.81-8.93
									c23.51-1.49,47.19,0.19,68.6,4.83c5.06-30.09,6.93-61.86,5.53-94.48c-1.49-36.99-6.85-72.12-15.91-104.41l-0.08-0.32
									c-16.61-47-39.33-75.21-60.79-75.46c-27.91-0.18-50.39,46.78-56.1,117l80.25,26.5L718.68,668.33z"/>
							</g>
							<g>
								<path style="fill:#FFFFFF;" d="M744.19,561.52c29.14,5.65,32.39,9.5,35.4,41.93c5.34-32.14,8.85-35.74,38.33-39.27
									c-29.14-5.65-32.39-9.5-35.4-41.93C777.18,554.38,773.66,557.98,744.19,561.52z"/>
							</g>
							<g>
								<path style="fill:#FFFFFF;" d="M738.42,690.04c20.02,0,22.67,2.13,28.82,23.22c-0.59-21.96,1.27-24.8,20.34-30.92
									c-20.02,0-22.67-2.13-28.82-23.22C759.35,681.08,757.48,683.92,738.42,690.04z"/>
							</g>
						</g>
						<g>
							<g>
								<path style="fill:#FFFFFF;" d="M1057.32,687.16c-0.92,37.13,2.64,72.41,9.48,103.56c11.55-4.71,24.44-8.36,38.26-10.84
									c47.21-8.56,100.26-2.76,143.46,15.96c4.29,1.9,8.41,3.78,12.43,5.89c0.44-1.69,0.97-3.31,1.33-5.01
									c21.19-77.96,20.93-174.4-7.81-252.48C1179.1,364.82,1056.96,506.74,1057.32,687.16z"/>
								<path d="M1262.08,804.3c-4.64-2.49-8.82-4.46-14.26-6.86c-43.28-18.68-95.32-24.29-142.42-15.84
									c-13.74,2.46-26.5,6.07-37.93,10.74l-1.94,0.79l-0.45-2.04c-7.11-32.39-10.4-68.35-9.52-103.98
									c3.19-126.61,54.57-228.49,116.93-227.6c32.91,0.82,63.2,31.09,83.21,83.11l0.05,0l0.37,1c2.78,7.48,5.38,15.62,7.72,24.18
									c11.97,40.09,15.69,82.64,14.93,124.55c-0.79,36.33-5.91,72.57-14.79,104.83C1263.79,798.38,1262.4,802.99,1262.08,804.3z
									 M1241.69,791.13c6.14,2.3,12.66,5.33,18.15,8.04l0.28-1.01c0.03-0.28,0.18-1.09,0.41-1.38
									c21.01-79.85,21.33-173.39-7.95-252.07c-75.32-178.61-193.68-34.04-193.51,142.5c-0.85,34.61,2.26,69.52,9,101.11
									c11.16-4.38,23.48-7.8,36.68-10.16C1149.72,769.99,1199.86,774.79,1241.69,791.13z"/>
							</g>
							<g>
								<g>
									<path d="M1255.26,545.79l-1.59-3.14c29.41-14.84,28.29-57.08,28.27-57.51l3.52-0.12
										C1285.52,486.85,1286.65,529.95,1255.26,545.79z"/>
								</g>
								<g>
									<path d="M1268.48,586.48l-0.37-3.49c34.71-3.69,43.26-48.96,43.34-49.42l3.46,0.62
										C1314.83,534.67,1305.82,582.51,1268.48,586.48z"/>
								</g>
								<g>
									<path d="M1276.18,649.19l-0.45-3.49c34.87-4.52,44.4-43.83,44.49-44.23l3.42,0.79
										C1323.55,602.69,1313.45,644.36,1276.18,649.19z"/>
								</g>
							</g>
							<g>
								<path d="M1179.66,650.52l-80.03,18.64c-2.05,34.47,0.89,76.74,5.44,110.71c40.38-7.55,87.9-3.75,125.8,9.21
									c14.22-71.81,15.26-156.68-8.78-228.15c-44.92-127.45-106.64-32.58-116.66,53.3C1106.38,614.83,1178.69,650,1179.66,650.52z
									"/>
								<path d="M1232.25,791.41c-39.35-13.72-86.93-17.5-128.67-9.46c-4.54-32.84-7.92-78.34-5.64-114.19l76.51-17.83l-70.96-34.74
									c33.27-188.33,123.82-128.24,136.82,24.62l-1.69,0.57l1.74-0.22C1246.73,687.87,1240.24,751.44,1232.25,791.41z
									 M1149.74,774.28c27.12,0.04,55.27,4.4,79.76,12.5c13-62.96,14.51-150.56-6.17-216.21
									c-41.99-134.24-103.99-49.49-115.96,42.71l77.5,37.84l-83.55,19.47c-1.98,33.47,1.15,76.23,5.25,107.24
									C1119.87,775.35,1135.64,774.27,1149.74,774.28z"/>
							</g>
							<g>
								<path style="fill:#FFFFFF;" d="M1132.01,577.21c29.14,5.65,32.39,9.5,35.4,41.93c5.34-32.14,8.85-35.74,38.33-39.27
									c-29.14-5.65-32.39-9.5-35.4-41.93C1165,570.07,1161.49,573.67,1132.01,577.21z"/>
							</g>
							<g>
								<path style="fill:#FFFFFF;" d="M1171.26,684.34c18.53,7.58,20.17,10.55,17.89,32.4c7.76-20.56,10.56-22.47,30.52-20.93
									c-18.53-7.58-20.17-10.55-17.89-32.4C1194.03,683.96,1191.23,685.88,1171.26,684.34z"/>
							</g>
						</g>
					</g>
				</g>
			</g>
		</g>
	</g>
</g>
</svg>
