<?xml version="1.0" encoding="iso-8859-1"?>
<!-- Generator: Adobe Illustrator 30.0.0, SVG Export Plug-In . SVG Version: 9.03 Build 0)  -->
<svg version="1.1" id="Capa_1" xmlns="http://www.w3.org/2000/svg" xmlns:xlink="http://www.w3.org/1999/xlink" x="0px" y="0px"
	 viewBox="0 0 2000 2000" style="enable-background:new 0 0 2000 2000;" xml:space="preserve">
<g>
	<g>
		<g id="XMLID_22_">
			<rect x="100.76" y="1496.24" style="fill:#00C793;" width="1798.48" height="403.76"/>
		</g>
		<g style="opacity:0.27;">
			<g style="opacity:0.27;">
				<rect x="100.76" y="1496.24" style="fill:#FFFFFF;" width="196.03" height="403.76"/>
			</g>
			<g style="opacity:0.27;">
				<rect x="807.2" y="1496.24" style="fill:#FFFFFF;" width="209.12" height="403.76"/>
			</g>
			<g style="opacity:0.27;">
				<rect x="1153.06" y="1496.24" style="fill:#FFFFFF;" width="206.5" height="403.76"/>
			</g>
			<g style="opacity:0.27;">
				<rect x="1496.29" y="1496.24" style="fill:#FFFFFF;" width="169.82" height="403.76"/>
			</g>
			<g style="opacity:0.27;">
				<rect x="1802.84" y="1496.24" style="fill:#FFFFFF;" width="96.4" height="403.76"/>
			</g>
			<g style="opacity:0.27;">
				<rect x="464.83" y="1496.24" style="fill:#FFFFFF;" width="205.63" height="403.76"/>
			</g>
		</g>
		<g>
			<g>
				<rect x="100.76" y="1537.05" style="fill:#FFFFFF;" width="1798.48" height="17.58"/>
			</g>
			<g>
				<rect x="1650.28" y="1537.06" style="fill:#FFFFFF;" width="17.93" height="362.47"/>
			</g>
		</g>
	</g>
	<g>
		<g>
			<path style="fill:#FF6DCE;" d="M307.11,630.32c-74.22,25.01-81.36,36.2-77.83,122.07c-25.23-82.15-35.68-90.34-114-89.23
				c74.22-25,81.36-36.2,77.83-122.07C218.34,623.24,228.8,631.42,307.11,630.32z"/>
			<path d="M231.6,765.91l-3.99-13.01c-25.09-81.69-34.52-89.08-112.29-87.99l-11.22,0.16l10.63-3.58
				c73.69-24.83,80.14-34.95,76.63-120.33l-0.56-13.6l4,13.01c25.09,81.69,34.55,89.1,112.29,87.99l11.22-0.16l-10.63,3.58
				c-73.69,24.83-80.14,34.95-76.63,120.33L231.6,765.91z M126.64,661.3c65.29,0,78.68,10.33,100.43,78.11
				c-2.04-71.36,7.21-85.44,69.27-107.26c-0.2,0-0.38,0-0.58,0c-65.29,0-78.67-10.33-100.42-78.11
				c2.04,71.37-7.21,85.44-69.26,107.26C126.26,661.3,126.45,661.3,126.64,661.3z"/>
		</g>
		<g>
			<path style="fill:#FF6DCE;" d="M1884.89,480.86c-64.68,0.7-73.15,7.68-92.29,76.03c1.15-70.97-4.98-80.07-66.77-99.18
				c64.68-0.7,73.14-7.68,92.28-76.03C1816.97,452.65,1823.09,461.74,1884.89,480.86z"/>
			<path d="M1790.63,570.47l0.22-13.61c1.14-70.36-4.37-78.55-65.53-97.48l-10.72-3.32l11.22-0.12c64.01-0.7,71.64-6.98,90.61-74.75
				l3.67-13.11l-0.22,13.61c-1.14,70.36,4.37,78.55,65.54,97.48l10.72,3.32l-11.22,0.12c-64.01,0.7-71.64,6.98-90.61,74.75
				L1790.63,570.47z M1736.56,459.27c49.75,16.3,57.94,28.06,57.92,84.74c16.15-54.33,27.36-63.27,79.69-64.71
				c-49.76-16.3-57.94-28.06-57.92-84.74C1800.09,448.89,1788.89,457.83,1736.56,459.27z"/>
		</g>
		<g>
			<path style="fill:#FF6DCE;" d="M513.48,190.73c-53.78,17.18-59.05,25.17-57.47,87.1c-17.25-59.5-24.7-65.51-81.15-65.6
				c53.78-17.18,59.05-25.17,57.47-87.1C449.58,184.62,457.03,190.64,513.48,190.73z"/>
			<path d="M458.11,291.39l-3.79-13.07c-17.06-58.83-23.75-64.25-79.47-64.33l-11.22-0.02l10.69-3.41
				c53.08-16.96,57.8-24.14,56.25-85.38l-0.34-13.61l3.79,13.07c17.06,58.83,23.75,64.25,79.47,64.33l11.22,0.02l-10.69,3.41
				c-53.08,16.96-57.81,24.14-56.25,85.38L458.11,291.39z M385.49,210.58c44.27,0.95,54.35,8.81,68.54,54.5
				c-0.31-47.84,6.92-58.39,48.82-72.7c-44.27-0.95-54.35-8.81-68.55-54.5C434.62,185.72,427.39,196.27,385.49,210.58z"/>
		</g>
		<g>
			<path style="fill:#FF6DCE;" d="M1302.01,712.58c-38.24,2.05-43.06,6.38-52.66,47.29c-1.11-42-4.96-47.22-41.99-56.97
				c38.24-2.05,43.06-6.38,52.66-47.29C1261.13,697.61,1264.98,702.83,1302.01,712.58z"/>
			<path d="M1247.96,773.52l-0.36-13.61c-1.09-41.14-4.51-45.8-40.68-55.32l-10.85-2.86l11.2-0.6c37.35-2,41.64-5.87,51.04-45.93
				l3.11-13.25l0.36,13.6c1.09,41.14,4.51,45.8,40.68,55.32l10.85,2.86l-11.2,0.6c-37.35,2-41.64,5.87-51.04,45.93L1247.96,773.52z
				 M1217.67,703.95c25.36,7.65,31.22,15.26,32.94,43.62c7.43-27.42,14.72-33.69,41.09-36.05c-25.36-7.65-31.21-15.25-32.94-43.62
				C1251.33,695.34,1244.05,701.6,1217.67,703.95z"/>
		</g>
		<g>
			<path style="fill:#FF6DCE;" d="M1817.44,170.63c-38.24,2.05-43.06,6.38-52.66,47.29c-1.11-42-4.96-47.22-41.99-56.97
				c38.24-2.05,43.06-6.38,52.66-47.29C1776.56,155.66,1780.41,160.88,1817.44,170.63z"/>
			<path d="M1763.38,231.57l-0.36-13.6c-1.09-41.14-4.51-45.8-40.68-55.32l-10.85-2.86l11.2-0.6c37.35-2,41.64-5.87,51.04-45.93
				l3.1-13.25l0.36,13.61c1.09,41.14,4.51,45.8,40.68,55.32l10.85,2.86l-11.2,0.6c-37.35,2-41.64,5.87-51.04,45.93L1763.38,231.57z
				 M1733.1,162c25.36,7.65,31.21,15.25,32.94,43.62c7.43-27.43,14.71-33.69,41.09-36.05c-25.35-7.64-31.21-15.26-32.94-43.62
				C1766.76,153.38,1759.48,159.64,1733.1,162z"/>
		</g>
	</g>
	<g>
		<g>
			<g>
				<path style="fill:#FFFFFF;" d="M1279.79,1699.67c-1.57,19.31,0.56,38.11,5.93,55.6c12.75,42.34,43.91,77.25,84.84,94.68
					c14.46,6.22,30.16,10.17,46.7,11.51c16.54,1.34,32.67-0.01,47.94-3.82c47.65-11.62,86.95-46.19,104.44-92.23
					c5-12.94,8.22-26.89,9.4-41.42c1.86-22.94-1.5-45.09-9.2-65.26c-14.22-37.71-43.34-68.5-80.73-84.66
					c-14.68-6.41-30.65-10.5-47.54-11.87c-16.89-1.38-33.31,0.08-48.83,4.04c-42.94,10.78-78.98,40.17-98.27,79.8
					C1286.47,1662.39,1281.35,1680.48,1279.79,1699.67z"/>
				<path d="M1429.66,1863.72c-4.16,0-8.35-0.17-12.55-0.51c-16.51-1.34-32.4-5.26-47.25-11.65c-41.55-17.68-72.83-52.6-85.83-95.78
					c-5.54-18.06-7.56-36.99-5.99-56.25c1.54-19.02,6.54-37.27,14.86-54.26c19.66-40.37,55.89-69.8,99.42-80.73
					c15.97-4.08,32.6-5.45,49.4-4.09c16.81,1.37,32.99,5.41,48.1,12.01c37.48,16.19,67.25,47.41,81.67,85.65
					c8.03,21.03,11.16,43.25,9.31,66.03c-1.18,14.52-4.38,28.62-9.51,41.91c-17.71,46.61-57.21,81.49-105.67,93.31
					C1453.93,1862.26,1441.88,1863.72,1429.66,1863.72z M1429.18,1563.46c-12.23,0-24.29,1.5-36,4.49
					c-42.53,10.68-77.93,39.42-97.13,78.86c-8.12,16.6-13,34.43-14.51,53.01l0,0c-1.53,18.82,0.44,37.3,5.85,54.94
					c12.7,42.2,43.26,76.3,83.86,93.58c14.5,6.24,30.02,10.07,46.14,11.38c16.12,1.3,32.07,0.04,47.38-3.77
					c47.34-11.54,85.93-45.62,103.23-91.15c5.01-12.99,8.14-26.75,9.29-40.93c1.81-22.25-1.25-43.95-9.09-64.5
					c-14.09-37.36-43.17-67.85-79.78-83.67c-14.76-6.45-30.56-10.4-46.98-11.73C1437.34,1563.63,1433.25,1563.46,1429.18,1563.46z"
					/>
			</g>
			<g>
				<g>
					<polygon points="1393.2,1763.68 1456.22,1769.12 1492.44,1717.27 1465.65,1659.97 1402.63,1654.53 1366.4,1706.38 					"/>
					<path d="M1457.08,1770.96l-65.04-5.62l-27.65-59.14l37.39-53.51l65.04,5.62l27.65,59.14L1457.08,1770.96z M1394.36,1762.01
						l61,5.27l35.06-50.19l-25.94-55.46l-60.99-5.27l-35.06,50.19L1394.36,1762.01z"/>
				</g>
				<g>
					<path d="M1279.79,1699.67c-1.57,19.31,0.56,38.11,5.93,55.6l4.96,0.4l36.24-51.88l-26.79-57.29l-5.65-0.46
						C1286.47,1662.39,1281.35,1680.48,1279.79,1699.67z"/>
					<path d="M1291.53,1757.51l-7.15-0.58l-0.35-1.14c-5.55-18.07-7.56-36.99-6-56.26l0,0c1.54-19.02,6.54-37.27,14.86-54.26
						l0.53-1.08l7.86,0.64l27.65,59.14L1291.53,1757.51z M1287.04,1753.62l2.76,0.22l35.09-50.22l-25.93-55.45l-3.43-0.28
						c-7.81,16.29-12.51,33.75-13.99,51.93l0,0C1280.04,1718.23,1281.9,1736.32,1287.04,1753.62z"/>
				</g>
				<g>
					<path d="M1392.74,1566.25l14.04,30.03l63.03,5.47l19.3-27.67c-14.68-6.41-30.65-10.5-47.54-11.87
						C1424.69,1560.83,1408.27,1562.28,1392.74,1566.25z"/>
					<path d="M1470.67,1603.59l-65.05-5.65l-15.36-32.88l2.06-0.52c15.98-4.08,32.6-5.45,49.41-4.09
						c16.81,1.37,32.99,5.41,48.1,12.01l1.96,0.86L1470.67,1603.59z M1407.94,1594.62l61,5.3l17.49-25.07
						c-14.18-5.95-29.31-9.61-45-10.88c-15.7-1.28-31.23-0.11-46.19,3.48L1407.94,1594.62z"/>
				</g>
				<g>
					<path d="M1370.55,1849.95c14.46,6.22,30.16,10.17,46.7,11.51c16.54,1.34,32.67-0.01,47.94-3.82l-13.3-28.46l-63.03-5.47
						L1370.55,1849.95z"/>
					<path d="M1429.66,1863.72c-4.17,0-8.35-0.17-12.55-0.51c-16.51-1.34-32.4-5.26-47.25-11.65l-1.98-0.85l20.13-28.84l65.05,5.65
						l14.62,31.32l-2.07,0.52C1453.93,1862.26,1441.87,1863.72,1429.66,1863.72z M1373.24,1849.17
						c13.92,5.74,28.76,9.29,44.15,10.53c15.39,1.24,30.63,0.15,45.3-3.27l-11.96-25.6l-61-5.3L1373.24,1849.17z"/>
				</g>
				<g>
					<path d="M1535.82,1707.49l26.79,57.29l7.03,0.63c5-12.94,8.22-26.89,9.4-41.42c1.86-22.94-1.5-45.09-9.2-65.26L1535.82,1707.49
						z"/>
					<path d="M1570.8,1767.28l-9.36-0.84l-27.65-59.13l36.5-52.31l1.19,3.1c8.03,21.04,11.16,43.25,9.31,66.03
						c-1.18,14.52-4.38,28.62-9.51,41.91L1570.8,1767.28z M1563.78,1763.12l4.69,0.42c4.74-12.61,7.7-25.96,8.82-39.69
						c1.72-21.12-0.95-41.75-7.93-61.36l-31.51,45.16L1563.78,1763.12z"/>
				</g>
			</g>
		</g>
		<g>
			<g>
				<g>
					<g>
						<path d="M703.65,1196.46c-19.81-5.44-36.44,6.75-43.25,24.55c-33.03,86.41-66.7,174.31-82.45,265.83
							c-7.75,45.03-14.36,90.59-16.84,136.24c-2.64,48.38,3.2,94.99,9.85,142.82c2.61,18.83,26.66,29.11,43.25,24.55
							c20.27-5.57,27.18-24.36,24.55-43.25c-5.93-42.75-9.68-84.34-7.13-127.54c2.51-42.64,8.63-85.2,16.46-127.17
							c16.2-86.82,48.7-170.58,80.12-252.79C734.99,1221.97,720.71,1201.15,703.65,1196.46z"/>
					</g>
					<g>
						<g>
							<g>
								<path style="fill:#FFFFFF;" d="M584.88,1717.86c0,0,10.7-53.42-4.36-76.12c-8.91-13.43-30.95-7.05-32.05,8.86l-3.47,49.93
									c6.73,4.96,15.53,10.46,27.08,14.19C576.62,1716.19,580.92,1717.18,584.88,1717.86z"/>
								<path d="M586.27,1719.87l-1.68-0.28c-4.4-0.75-8.79-1.82-13.05-3.2c-12.73-4.11-21.84-10.21-27.58-14.45l-0.78-0.57
									l3.54-50.89c0.57-8.17,6.34-14.88,14.72-17.09c8.1-2.14,16.16,0.76,20.56,7.38c15.29,23.04,5.06,75.22,4.62,77.44
									L586.27,1719.87z M546.82,1699.68c5.58,4.05,14.12,9.59,25.8,13.37c3.55,1.15,7.19,2.07,10.85,2.77
									c1.63-9.21,8.6-53.5-4.42-73.11c-4.31-6.49-11.46-7.32-16.73-5.93c-6.89,1.82-11.64,7.29-12.1,13.94L546.82,1699.68z"/>
							</g>
							<g>
								<path style="fill:#FF4568;" d="M623.62,1824.03c-5.44,3.22-11.67,5.48-17.17,7.14c-24.4,7.34-232.98,9.12-242.21-7.34
									c-24-42.82,82.51-63.87,93.15-66.48c0,0,57.13-13.99,88.19-58.57c0,0,36.66,37.37,89.68,5.38
									c2.12-1.29,12.83,70.41,1.47,105.27C634.65,1815.77,629.61,1820.48,623.62,1824.03z"/>
								<path d="M494.27,1838.35c-61.46,0-125.84-3.45-131.56-13.66c-4.34-7.74-4.9-15.33-1.68-22.58
									c8.12-18.24,39.43-33.65,93.08-45.81c1.26-0.28,2.23-0.5,2.86-0.66c2.31-0.58,57.01-14.59,87.16-57.87l1.21-1.74l1.48,1.51
									c0.36,0.36,36.37,35.97,87.52,5.11l1.04-0.63l1.11,0.78c4.27,3.37,12.57,74.43,1.89,107.16
									c-1.98,6.06-6.64,11.3-13.87,15.58l0,0c-4.67,2.77-10.42,5.16-17.56,7.31C597.05,1835.83,546.72,1838.35,494.27,1838.35z
									 M545.84,1701.43c-31.12,43.05-85.69,57.04-88.02,57.62c-0.65,0.16-1.65,0.38-2.93,0.68c-65.4,14.81-85.39,32-90.64,43.81
									c-2.79,6.27-2.29,12.62,1.53,19.43c2.68,4.78,34.12,10.72,113.9,11.7c56.79,0.69,114.6-1.67,126.27-5.18
									c6.87-2.07,12.36-4.35,16.78-6.97c6.47-3.83,10.62-8.42,12.32-13.64c10.19-31.23,2.36-91.84-0.51-102.25
									c-27.26,15.82-50.1,13.4-64.57,8.5C557.49,1710.9,549.11,1704.31,545.84,1701.43z"/>
							</g>
							<g>
								<path style="fill:#FFFFFF;" d="M611.85,1763.87c0.62-22.12,12.31-38.04,25.38-53.03c3.68,19.55,8.52,76.16-3.16,102.63
									C633.43,1812.92,611.01,1794.02,611.85,1763.87z"/>
								<path d="M634.7,1816.37l-1.8-1.58c-2.45-2.12-23.64-21.32-22.81-50.97l0,0c0.65-23.38,13.66-40.2,25.81-54.14l2.38-2.73
									l0.67,3.56c3.39,18.01,8.91,76.05-3.28,103.66L634.7,1816.37z M613.61,1763.92c-0.68,24.29,14.29,41.18,19.79,46.54
									c9.18-24.2,6.53-72.2,2.74-95.66C624.73,1728.17,614.19,1743.17,613.61,1763.92L613.61,1763.92z"/>
							</g>
							<g>
								<path style="fill:#FFFFFF;" d="M552.3,1752.47c-11.74,7.95-24.92,13.16-38.1,17.23c-17.35,5.36-35.64,8.61-53.53,10.2
									c-17.74,1.57-36.01,1.18-53.31-3.42c-1.46-0.39-2.9-0.85-4.35-1.29c13.66-6.12,31.35-12.18,54.38-17.85
									c0,0,57.13-13.99,88.19-58.57c0,0,13.89,14.13,36.92,17.56C575.88,1731.55,565.33,1743.65,552.3,1752.47z"/>
								<path d="M442.65,1782.5c-13.08,0-24.88-1.43-35.74-4.32c-1.22-0.33-2.43-0.7-3.63-1.07l-5.26-1.61l4.27-1.92
									c14.76-6.61,33.16-12.65,54.68-17.95c0.57-0.14,56.86-14.37,87.16-57.87l1.21-1.74l1.48,1.51
									c0.14,0.14,13.8,13.76,35.93,17.06l2.26,0.34l-0.91,2.1c-6.55,15.07-16.92,27.49-30.82,36.9l0,0
									c-10.26,6.95-22.52,12.49-38.57,17.45c-16.54,5.11-34.67,8.57-53.9,10.27C454.49,1782.21,448.44,1782.5,442.65,1782.5z
									 M408.15,1774.87c15.18,3.98,32.31,5.05,52.36,3.28c18.97-1.68,36.86-5.09,53.17-10.13c15.7-4.86,27.67-10.26,37.64-17
									c12.69-8.59,22.32-19.8,28.63-33.32c-17.98-3.28-30.02-12.66-34.11-16.27c-31.33,43.31-87.47,57.48-88.04,57.63
									C438.6,1763.78,421.92,1769.09,408.15,1774.87z"/>
							</g>
							<g>
								<path d="M599.58,1833.45c-0.16,0.77-0.33,1.54-0.54,2.29c-2.48,8.7-8.1,14.74-12.54,13.46c-3.7-1.07-5.43-6.91-4.42-13.84
									L599.58,1833.45z"/>
								<path d="M587.72,1851.13c-0.58,0-1.16-0.08-1.71-0.24c-4.58-1.33-6.85-7.67-5.66-15.78l0.2-1.35l21.26-2.32l-0.5,2.37
									c-0.17,0.81-0.34,1.62-0.57,2.41c-1.82,6.4-5.37,11.71-9.25,13.86C590.22,1850.78,588.95,1851.13,587.72,1851.13z
									 M583.66,1836.95c-0.51,5.41,0.84,9.84,3.33,10.56c0.82,0.24,1.75,0.06,2.78-0.51c3.01-1.67,5.94-6.18,7.51-11.54
									L583.66,1836.95z"/>
							</g>
							<g>
								<path d="M607.38,1832.96c0.16,6.71,2.66,11.89,6.38,12.43c4.58,0.67,9.21-6.07,10.39-15.02c0.24-1.85,0.31-3.6,0.21-5.32
									C624.36,1825.06,619.39,1828.58,607.38,1832.96z"/>
								<path d="M614.39,1847.2c-0.3,0-0.59-0.02-0.89-0.07c-4.6-0.68-7.7-6.22-7.88-14.13l-0.03-1.26l1.18-0.43
									c11.57-4.22,16.52-7.66,16.57-7.69l2.58-1.82l0.19,3.15c0.11,1.85,0.04,3.7-0.22,5.66c-0.87,6.59-3.59,12.33-7.09,14.98
									C617.4,1846.65,615.89,1847.2,614.39,1847.2z M609.2,1834.17c0.38,5.21,2.32,9.12,4.82,9.49c0.84,0.11,1.74-0.17,2.67-0.87
									c2.74-2.07,4.99-7.03,5.73-12.63c0.09-0.67,0.15-1.33,0.19-1.98C620.08,1829.57,615.73,1831.72,609.2,1834.17z"/>
							</g>
							<g>
								<path d="M454.42,1837.83c0.01,0.78,0.02,1.57-0.03,2.41c-0.52,9.01-4.7,16.03-9.32,15.67c-4.57-0.36-7.89-7.97-7.37-16.98
									c0.02-0.42,0.05-0.84,0.12-1.2L454.42,1837.83z"/>
								<path d="M445.41,1857.68c-0.16,0-0.32-0.01-0.47-0.02c-5.63-0.44-9.57-8.71-8.98-18.83c0.03-0.51,0.07-1.02,0.16-1.46
									l0.3-1.4l19.76,0.11l0.02,1.73l-1.76,0.02l1.76,0.05c0.01,0.8,0.02,1.61-0.04,2.47c-0.38,6.6-2.68,12.5-6,15.4
									C448.68,1857.02,447.06,1857.68,445.41,1857.68z M439.43,1839.5c-0.36,8.37,2.71,14.42,5.77,14.66
									c0.85,0.07,1.74-0.29,2.63-1.07c2.59-2.26,4.48-7.35,4.8-12.95c0.01-0.19,0.02-0.38,0.02-0.56L439.43,1839.5z"/>
							</g>
							<g>
								<path d="M425.72,1837.31c0.04,0.37,0.01,0.78-0.01,1.15c-0.5,9.01-4.67,16.04-9.29,15.69c-4.62-0.35-7.91-7.96-7.41-16.96
									c0.01-0.18,0.02-0.36,0.03-0.54L425.72,1837.31z"/>
								<path d="M416.75,1855.92c-0.15,0-0.31,0-0.46-0.02c-5.63-0.43-9.59-8.69-9.03-18.82l0.13-2.27l19.93,0.8l0.14,1.53
									c0.04,0.45,0.02,0.97,0,1.41c-0.37,6.6-2.65,12.51-5.97,15.41C420.03,1855.25,418.4,1855.92,416.75,1855.92z
									 M410.72,1838.47c-0.14,7.99,2.85,13.7,5.83,13.92c0.84,0.05,1.74-0.3,2.62-1.07c2.49-2.18,4.32-6.97,4.73-12.32
									L410.72,1838.47z"/>
							</g>
							<g>
								<path d="M396.59,1834.66c0.53,9-2.81,16.43-7.44,16.57c-4.63,0.14-8.77-7.08-9.3-16.08c-0.07-1.2-0.08-2.4,0.01-3.55
									L396.59,1834.66z"/>
								<path d="M389.02,1852.99c-5.56,0-10.34-7.73-10.93-17.74c-0.08-1.45-0.08-2.69,0.01-3.8l0.17-1.93l19.99,3.65l0.08,1.38
									c0.39,6.6-1.21,12.71-4.18,15.95c-1.43,1.57-3.15,2.42-4.97,2.48C389.14,1852.99,389.08,1852.99,389.02,1852.99z
									 M381.55,1833.7c0.01,0.43,0.02,0.87,0.05,1.35c0.5,8.55,4.3,14.42,7.42,14.42c0.02,0,0.05,0,0.07,0
									c0.85-0.02,1.69-0.47,2.48-1.34c2.12-2.31,3.37-6.92,3.31-12L381.55,1833.7z"/>
							</g>
							<g>
								
									<rect x="522.08" y="1727.48" transform="matrix(0.6253 -0.7804 0.7804 0.6253 -1172.5886 1066.0696)" width="3.52" height="53.21"/>
							</g>
							<g>
								
									<rect x="490.09" y="1743.3" transform="matrix(0.6439 -0.7651 0.7651 0.6439 -1178.2114 1006.192)" width="3.51" height="51.1"/>
							</g>
							<g>
								
									<rect x="458.7" y="1753.23" transform="matrix(0.6776 -0.7355 0.7355 0.6776 -1159.7769 912.194)" width="3.52" height="51.14"/>
							</g>
						</g>
					</g>
				</g>
				<g>
					<g>
						<path d="M1341.38,1198.74c6.01,22.94,2.61,51.45-0.33,74.67c-3.54,28-11.1,55.45-16.47,83.13
							c-8.76,45.12-22.08,88.98-31.99,133.76c-2.96,13.38,4.46,27.1,17.41,31.59c0.08,0.02,0.15,0.05,0.23,0.08
							c14.74,5.09,29.8,8.87,45.04,11.72c10.98-62.03,28.87-122.8,42.35-184.29c13.25-60.44,33.4-142.47-1.21-199.47
							c-37.29-61.43-122.5-49.44-180.69-32.7c-65.9,18.96-129.22,49.48-190.92,78.97c-17.13,8.19-21.63,32.69-12.61,48.1
							c10.25,17.52,30.9,20.83,48.1,12.61c52.83-25.24,106.49-50.47,162.37-68.3C1252.64,1179.04,1329.33,1152.76,1341.38,1198.74z"
							/>
					</g>
					<g>
						<g>
							<g>
								<path style="fill:#FFFFFF;" d="M1345.73,1477.21c0,0-10.94-53.42,4.46-76.12c9.1-13.43,31.61-7.05,32.74,8.86l3.54,49.93
									c-6.88,4.96-15.87,10.46-27.66,14.19C1354.17,1475.54,1349.77,1476.53,1345.73,1477.21z"/>
								<path d="M1344.35,1479.22l-0.34-1.66c-0.45-2.21-10.9-54.41,4.72-77.46c4.53-6.68,12.82-9.55,21.15-7.32
									c8.42,2.26,14.23,8.95,14.81,17.04l3.61,50.91l-0.79,0.57c-9.32,6.73-18.27,11.32-28.16,14.44
									c-4.34,1.37-8.82,2.45-13.32,3.2L1344.35,1479.22z M1364.23,1395.55c-4.5,0-9.34,1.71-12.59,6.52
									c-13.3,19.61-6.17,63.93-4.51,73.1c3.77-0.7,7.51-1.63,11.15-2.78c11.94-3.78,20.67-9.32,26.37-13.37l-3.47-48.95
									c-0.47-6.57-5.26-12.02-12.22-13.89C1367.5,1395.79,1365.89,1395.55,1364.23,1395.55z"/>
							</g>
							<g>
								<path style="fill:#FF4568;" d="M1306.15,1583.38c5.56,3.22,11.92,5.48,17.55,7.14c24.93,7.34,238.02,9.12,247.44-7.34
									c24.52-42.82-84.3-63.87-95.16-66.48c0,0-58.36-13.99-90.09-58.57c0,0-37.45,37.37-91.62,5.38
									c-2.17-1.29-13.11,70.41-1.5,105.27C1294.89,1575.13,1300.03,1579.84,1306.15,1583.38z"/>
								<path d="M1432.11,1597.66c-51.45,0-97.99-2.24-108.91-5.45c-7.29-2.14-13.15-4.53-17.93-7.3l0,0
									c-7.38-4.28-12.14-9.52-14.16-15.57c-10.82-32.47-2.42-103.69,1.9-107.16l0.95-0.77l1.22,0.6
									c27.41,16.19,50.29,13.91,64.67,9.15c15.56-5.15,24.72-14.17,24.8-14.26l1.47-1.47l1.21,1.69
									c31.02,43.58,88.49,57.74,89.06,57.88c0.65,0.15,1.64,0.37,2.93,0.66c55.04,12.21,87.06,27.69,95.17,46.04
									c3.18,7.18,2.56,14.71-1.82,22.37c-6.04,10.55-77.41,12.98-119.41,13.48C1446.16,1597.62,1439.09,1597.66,1432.11,1597.66z
									 M1307.03,1581.86c4.53,2.63,10.14,4.91,17.16,6.97c11.92,3.51,71.01,5.88,129.01,5.19c81.53-0.98,113.66-6.93,116.41-11.71
									c3.85-6.73,4.4-13,1.66-19.2c-5.25-11.87-25.59-29.14-92.72-44.03c-1.32-0.29-2.32-0.52-2.98-0.67l0.01-0.04
									c-5.18-1.19-58.81-15.36-89.97-57.64c-7.59,6.45-42.83,32.42-90.63,5.21c-2.93,10.3-10.95,71.03-0.54,102.27
									C1296.18,1573.44,1300.41,1578.03,1307.03,1581.86L1307.03,1581.86z"/>
							</g>
							<g>
								<path style="fill:#FFFFFF;" d="M1318.18,1523.22c-0.63-22.12-12.58-38.04-25.93-53.03c-3.76,19.55-8.7,76.16,3.23,102.63
									C1296.13,1572.27,1319.04,1553.37,1318.18,1523.22z"/>
								<path d="M1294.88,1575.63l-1-2.09c-12.45-27.63-6.82-85.66-3.35-103.68l0.67-3.5l2.37,2.66
									c12.41,13.94,25.7,30.76,26.37,54.15l0,0c0.84,29.68-20.8,48.86-23.27,50.95L1294.88,1575.63z M1293.35,1474.09
									c-3.88,23.45-6.61,71.56,2.8,95.76c5.63-5.36,20.97-22.24,20.27-46.58l0,0C1315.83,1502.49,1305.02,1487.48,1293.35,1474.09
									z"/>
							</g>
							<g>
								<path style="fill:#FFFFFF;" d="M1379.01,1511.83c12,7.95,25.46,13.15,38.92,17.23c17.72,5.36,36.41,8.61,54.69,10.2
									c18.12,1.57,36.79,1.18,54.46-3.42c1.49-0.39,2.97-0.85,4.45-1.29c-13.95-6.12-32.03-12.18-55.56-17.85
									c0,0-58.36-13.99-90.09-58.57c0,0-14.19,14.13-37.72,17.56C1354.93,1490.9,1365.7,1503.01,1379.01,1511.83z"/>
								<path d="M1491.04,1541.85c-5.92,0-12.1-0.28-18.56-0.84c-19.63-1.7-38.15-5.16-55.05-10.27
									c-16.39-4.95-28.9-10.5-39.39-17.44l0,0c-14.18-9.4-24.78-21.81-31.48-36.89l-0.94-2.12l2.29-0.33
									c22.69-3.31,36.59-16.93,36.73-17.07l1.47-1.46l1.2,1.69c30.97,43.51,88.49,57.74,89.07,57.88
									c21.97,5.29,40.76,11.33,55.86,17.94l4.38,1.92l-5.44,1.63c-1.21,0.37-2.42,0.73-3.65,1.05
									C1516.45,1540.42,1504.4,1541.85,1491.04,1541.85z M1350.74,1477.05c6.46,13.52,16.29,24.72,29.25,33.31l0,0
									c10.19,6.75,22.41,12.16,38.46,17.01c16.66,5.04,34.94,8.45,54.33,10.13c20.49,1.78,37.99,0.71,53.51-3.28
									c-14.08-5.78-31.11-11.1-50.72-15.82c-0.58-0.14-57.95-14.31-89.95-57.66C1381.49,1464.33,1369.17,1473.76,1350.74,1477.05z
									"/>
							</g>
							<g>
								<path d="M1330.72,1592.8c0.17,0.77,0.33,1.54,0.55,2.29c2.54,8.7,8.27,14.74,12.81,13.46c3.78-1.07,5.55-6.91,4.51-13.84
									L1330.72,1592.8z"/>
								<path d="M1342.84,1610.48c-5.13,0-10.7-6.09-13.27-14.9c-0.22-0.75-0.38-1.51-0.55-2.27l-0.52-2.38l2.39,0.12l19.22,2.05
									l0.2,1.34c1.22,8.13-1.1,14.47-5.77,15.79C1343.99,1610.4,1343.42,1610.48,1342.84,1610.48z M1333.02,1594.81
									c2.44,8.18,7.49,12.94,10.57,12.05c2.55-0.72,3.93-5.14,3.42-10.55L1333.02,1594.81z"/>
							</g>
							<g>
								<path d="M1322.74,1592.32c-0.16,6.71-2.72,11.89-6.52,12.43c-4.68,0.67-9.41-6.07-10.62-15.02
									c-0.25-1.85-0.32-3.6-0.21-5.32C1305.4,1584.41,1310.48,1587.94,1322.74,1592.32z"/>
								<path d="M1315.58,1606.55c-1.54,0-3.1-0.57-4.55-1.66c-3.54-2.67-6.28-8.39-7.16-14.92c-0.26-1.94-0.34-3.8-0.23-5.66
									l0.19-3.11l2.57,1.77c0.05,0.04,5.11,3.47,16.94,7.7l1.2,0.43l-0.03,1.27c-0.19,7.79-3.41,13.47-8.03,14.13
									C1316.18,1606.53,1315.88,1606.55,1315.58,1606.55z M1307.15,1587.49c0.04,0.66,0.11,1.32,0.2,2
									c0.75,5.56,3.03,10.5,5.8,12.59c0.98,0.74,1.94,1.04,2.83,0.92c2.56-0.37,4.56-4.27,4.95-9.48
									C1314.18,1591.06,1309.72,1588.89,1307.15,1587.49z"/>
							</g>
							<g>
								<path d="M1479.01,1597.18c-0.01,0.78-0.02,1.57,0.03,2.41c0.53,9.01,4.8,16.03,9.52,15.67c4.67-0.36,8.06-7.97,7.53-16.98
									c-0.02-0.42-0.05-0.84-0.13-1.2L1479.01,1597.18z"/>
								<path d="M1488.22,1617.03c-1.69,0-3.38-0.69-4.88-2c-3.34-2.92-5.66-8.79-6.05-15.34c-0.05-0.89-0.05-1.71-0.04-2.54
									l0.02-1.73l20.1-0.11l0.31,1.39c0.09,0.44,0.14,0.96,0.17,1.48c0.6,10.12-3.41,18.39-9.15,18.83
									C1488.54,1617.03,1488.37,1617.03,1488.22,1617.03z M1480.77,1598.93c0.01,0.19,0.01,0.37,0.02,0.56
									c0.33,5.55,2.24,10.61,4.86,12.9c0.94,0.81,1.82,1.2,2.78,1.13c3.14-0.24,6.3-6.29,5.93-14.66L1480.77,1598.93z"/>
							</g>
							<g>
								<path d="M1508.34,1596.66c-0.04,0.37-0.01,0.78,0.01,1.15c0.51,9.01,4.77,16.04,9.49,15.69c4.72-0.35,8.08-7.96,7.56-16.96
									c-0.01-0.18-0.02-0.36-0.03-0.54L1508.34,1596.66z"/>
								<path d="M1517.5,1615.27c-1.7,0-3.38-0.69-4.89-2.01c-3.34-2.92-5.64-8.8-6.02-15.35c-0.03-0.44-0.05-0.96-0.01-1.41
									l0.14-1.53l20.29-0.8l0.13,2.26c0.58,10.12-3.46,18.39-9.19,18.82C1517.81,1615.26,1517.65,1615.27,1517.5,1615.27z
									 M1510.15,1598.35c0.42,5.3,2.27,10.06,4.78,12.26c0.93,0.82,1.88,1.22,2.78,1.13c3.06-0.23,6.14-5.94,5.99-13.93
									L1510.15,1598.35z"/>
							</g>
							<g>
								<path d="M1538.09,1594.01c-0.54,9,2.87,16.43,7.6,16.57c4.74,0.14,8.96-7.07,9.5-16.08c0.07-1.2,0.09-2.4-0.01-3.55
									L1538.09,1594.01z"/>
								<path d="M1545.82,1612.34c-0.06,0-0.12,0-0.18,0c-1.87-0.06-3.64-0.94-5.11-2.55c-2.98-3.26-4.59-9.34-4.19-15.88l0.08-1.38
									l20.35-3.64l0.17,1.92c0.09,1.11,0.1,2.35,0.01,3.8C1556.35,1604.61,1551.48,1612.34,1545.82,1612.34z M1539.8,1595.49
									c-0.06,5.01,1.2,9.6,3.33,11.92c0.83,0.91,1.71,1.38,2.62,1.4c3.34,0.13,7.18-5.81,7.69-14.42
									c0.03-0.48,0.05-0.93,0.05-1.35L1539.8,1595.49z"/>
							</g>
							<g>
								
									<rect x="1381.08" y="1511.75" transform="matrix(0.7869 -0.617 0.617 0.7869 -633.8808 1191.2734)" width="53.91" height="3.52"/>
							</g>
							<g>
								
									<rect x="1414.95" y="1526.58" transform="matrix(0.7713 -0.6365 0.6365 0.7713 -643.2347 1266.6252)" width="51.75" height="3.52"/>
							</g>
							<g>
								
									<rect x="1446.96" y="1536.31" transform="matrix(0.7423 -0.67 0.67 0.7423 -651.0562 1383.1445)" width="51.73" height="3.52"/>
							</g>
						</g>
					</g>
				</g>
			</g>
			<g>
				<g>
					<g>
						<g>
							<path style="fill:#9B6BED;" d="M884.13,1391.65c-226.63,39.76-438.4-99.68-472.98-311.5c-6.99-42.79-6.28-85.3,1.24-126.16
								c13.97-75.13,50.75-144.76,104.43-200.92c-7.25-19.52-12.73-40.13-16.27-61.57c-25.11-153.74,58.71-298.31,189.85-335.05
								c6.19-1.83,12.64-3.39,19.1-4.58c1.41-0.27,2.92-0.55,4.33-0.83c144.4-25.29,283.04,86.03,309.66,248.74
								c3.54,21.53,4.86,42.79,4.24,63.67c79.94,40.59,144.13,106.37,179.23,188.46c11.41,26.48,19.72,54.7,24.58,84.29
								C1266.2,1148.03,1110.67,1351.98,884.13,1391.65z"/>
							<path d="M807.83,1400.05c-88.35,0-174.63-26.45-244.81-76.3c-83.07-59.01-137.62-145.42-153.6-243.32
								c-6.89-42.19-6.47-84.84,1.24-126.76c13.84-74.43,49.84-143.92,104.13-201.02c-7.15-19.43-12.52-39.91-15.97-60.86
								c-12.16-74.46,0.81-149.95,36.54-212.56c35.55-62.3,90.44-106.51,154.57-124.47c6.32-1.87,12.8-3.42,19.26-4.62l4.31-0.82
								c64.65-11.32,131.14,4.4,187.25,44.26c65.29,46.38,110.66,121.44,124.48,205.93c3.41,20.72,4.85,41.88,4.3,62.9
								c81.15,41.48,144.71,108.5,179.06,188.83c11.57,26.85,19.88,55.35,24.7,84.7c34.77,212.47-121.72,417.68-348.85,457.45
								C858.96,1397.85,833.29,1400.05,807.83,1400.05z M754.68,349.25c-13.52,0-27.08,1.17-40.55,3.53l-4.3,0.82
								c-6.35,1.17-12.71,2.7-18.94,4.54c-63.25,17.72-117.4,61.35-152.49,122.84c-35.33,61.91-48.16,136.58-36.12,210.24
								c3.48,21.1,8.92,41.71,16.18,61.24l0.38,1.03l-0.76,0.79c-54.24,56.75-90.19,125.92-103.97,200.02
								c-7.64,41.52-8.05,83.77-1.23,125.55c15.83,96.96,69.87,182.56,152.16,241.02c89.65,63.69,205.83,88.86,318.77,69.03l0,0
								c225.23-39.44,380.44-242.84,345.98-453.42c-4.78-29.07-13-57.29-24.46-83.88c-34.17-79.9-97.53-146.52-178.42-187.59
								l-0.99-0.5l0.03-1.11c0.63-21.16-0.79-42.47-4.22-63.34c-13.67-83.57-58.52-157.79-123.05-203.63
								C855.06,365.45,805.09,349.25,754.68,349.25z"/>
						</g>
						<g>
							<g>
								<path style="fill:#C6ABF5;" d="M1109.33,801.66c7.74-2.77,11.91,9.68,4.16,12.46
									C1105.75,816.9,1101.58,804.44,1109.33,801.66z"/>
							</g>
							<g>
								<path style="fill:#C6ABF5;" d="M1145.32,849.04c7.74-2.77,11.91,9.68,4.16,12.46
									C1141.74,864.28,1137.57,851.82,1145.32,849.04z"/>
							</g>
							<g>
								<path style="fill:#C6ABF5;" d="M479.86,1096.03c7.74-2.77,11.91,9.68,4.16,12.46
									C476.28,1111.26,472.11,1098.8,479.86,1096.03z"/>
							</g>
							<g>
								<path style="fill:#C6ABF5;" d="M519.74,1208.43c7.74-2.77,11.91,9.68,4.16,12.46
									C516.16,1223.67,511.99,1211.21,519.74,1208.43z"/>
							</g>
							<g>
								<path style="fill:#C6ABF5;" d="M544.84,1134.25c7.74-2.77,11.91,9.68,4.16,12.46
									C541.26,1149.48,537.09,1137.03,544.84,1134.25z"/>
							</g>
							<g>
								<path style="fill:#C6ABF5;" d="M639.68,415.18c7.74-2.77,11.91,9.68,4.16,12.46C636.1,430.41,631.92,417.95,639.68,415.18z"
									/>
							</g>
							<g>
								<path style="fill:#C6ABF5;" d="M1097.61,874.88c7.74-2.77,11.91,9.68,4.16,12.46
									C1094.03,890.11,1089.86,877.65,1097.61,874.88z"/>
							</g>
							<g>
								<path style="fill:#C6ABF5;" d="M1089.43,1164.78c7.74-2.77,11.91,9.68,4.16,12.46
									C1085.85,1180.01,1081.68,1167.55,1089.43,1164.78z"/>
							</g>
							<g>
								<path style="fill:#C6ABF5;" d="M1047.67,1247.13c7.74-2.77,11.91,9.68,4.16,12.46
									C1044.09,1262.36,1039.92,1249.91,1047.67,1247.13z"/>
							</g>
						</g>
					</g>
					<g>
						<g>
							<path style="fill:#00C793;" d="M695.33,308.97c0,0,44.35-214.35,434.47-201.82C1129.81,107.15,976.05,332.04,695.33,308.97z"
								/>
							<path d="M734.95,312.37c-12.95,0-26.2-0.52-39.76-1.64l-1.98-0.16l0.4-1.95c0.11-0.54,11.9-54.77,71.51-106.58
								c54.85-47.67,162.62-103.15,364.74-96.64l3.21,0.1l-1.81,2.65c-0.39,0.57-39.46,57.09-112.39,109.99
								C957.82,262.43,860.99,312.37,734.95,312.37z M697.54,307.38c143.45,11.18,252.74-43.83,319.27-92.1
								c63.47-46.04,101.06-94.75,109.65-106.48c-110.61-3.17-261.49,11.11-359.03,95.88C715.05,250.22,700.21,297.36,697.54,307.38
								z"/>
						</g>
						<g>
							<polygon points="718.3,388.78 668.79,181.56 641.39,188.87 701.93,395.79 							"/>
							<path d="M700.8,398.18l-61.6-210.55l30.88-8.24l50.28,210.42L700.8,398.18z M643.58,190.11l59.48,203.28l13.19-5.64
								l-48.76-204.02L643.58,190.11z"/>
						</g>
					</g>
				</g>
				<g>
					<g>
						<g>
							<path style="fill:#00BEFB;" d="M884.13,1391.65c-226.63,39.76-438.4-99.68-472.98-311.5c-4.86-29.68-6.01-59.28-3.71-88.23
								c0.97-12.74,2.65-25.47,4.95-37.93l452.9,118.46l341.67-220.53c5.31,12.18,9.9,24.83,13.79,37.75
								c4.51,15.12,8.13,30.6,10.79,46.54C1266.2,1148.03,1110.67,1351.98,884.13,1391.65z"/>
							<path d="M807.83,1400.05c-88.35,0-174.63-26.45-244.81-76.3c-83.07-59.01-137.62-145.42-153.6-243.32
								c-4.81-29.38-6.07-59.21-3.73-88.65c0.96-12.61,2.64-25.44,4.98-38.11l0.34-1.86l453.99,118.75l342.76-221.23l0.82,1.9
								c5.25,12.04,9.91,24.81,13.87,37.94c4.59,15.38,8.24,31.11,10.84,46.76c34.77,212.47-121.72,417.68-348.85,457.45l0,0
								C858.96,1397.85,833.29,1400.05,807.83,1400.05z M413.78,956.17c-2.14,11.94-3.68,24.01-4.59,35.88
								c-2.32,29.16-1.07,58.7,3.7,87.81c15.83,96.96,69.87,182.56,152.16,241.02c89.65,63.69,205.84,88.85,318.77,69.03l0,0
								c225.23-39.44,380.44-242.84,345.98-453.42c-2.58-15.5-6.19-31.09-10.74-46.32c-3.7-12.31-8.04-24.29-12.9-35.65
								l-340.58,219.82L413.78,956.17z"/>
						</g>
						<g>
							<path d="M1220.76,889.67l-343.08,224.01L407.44,991.91c0.97-12.74,2.65-25.47,4.95-37.93l452.9,118.46l341.67-220.53
								C1212.26,864.11,1216.86,876.75,1220.76,889.67z"/>
							<path d="M877.98,1115.58l-0.75-0.2L405.57,993.25l0.11-1.47c0.96-12.62,2.64-25.44,4.98-38.12l0.34-1.86l453.99,118.75
								l342.76-221.23l0.82,1.9c5.25,12.04,9.91,24.81,13.87,37.94l0.38,1.26L877.98,1115.58z M409.3,990.59l468.06,121.2
								l341.33-222.86c-3.62-11.87-7.83-23.42-12.52-34.39l-340.58,219.82L413.78,956.17C411.73,967.62,410.22,979.18,409.3,990.59z
								"/>
						</g>
					</g>
					<g>
						<path style="fill:#FFFFFF;" d="M680.07,1114.65c-15.12-3.39-38.32-6.68-66.36-3.2c-27.2,3.38-49.32,9.24-63.22,16.03
							c1.66,29.03,4.03,60.68,5.69,89.71l67.64,48.62l61.55-58.22L680.07,1114.65z"/>
						<path d="M623.97,1268.1l-69.5-49.96l-0.05-0.84c-0.83-14.49-1.83-29.63-2.84-44.77c-1.01-15.2-2.02-30.4-2.85-44.95
							l-0.07-1.16l1.05-0.51c14.64-7.16,37.29-12.9,63.78-16.2c22.43-2.79,44.96-1.7,66.96,3.23l1.29,0.29l5.42,95.08L623.97,1268.1
							z M557.89,1216.26l65.78,47.28l59.9-56.67l-5.17-90.8c-21.18-4.59-42.86-5.57-64.46-2.88c-25.48,3.16-47.29,8.61-61.61,15.36
							c0.82,14.18,1.8,28.96,2.78,43.74C556.09,1187.16,557.07,1202.02,557.89,1216.26z"/>
					</g>
				</g>
			</g>
			<g>
				<g>
					<g>
						<g>
							<g>
								<path style="fill:#FFFFFF;" d="M732.6,771.62c-0.21-19.97-2.6-41.35-7.42-63.37C704.89,614.7,649.52,545.58,601.6,553.9
									c-47.97,8.43-70.3,91.08-50.01,184.68c5.07,23.47,12.4,45.4,21.26,64.94l0.47,0.18L732.6,771.62z"/>
								<path d="M573.17,805.53l-1.62-0.63l-0.3-0.65c-9.22-20.35-16.41-42.31-21.38-65.29c-14.01-64.62-8.28-126.26,14.96-160.84
									c9.74-14.49,22.35-23.46,36.46-25.94c48.76-8.47,105.14,61.38,125.61,155.71c4.73,21.62,7.24,43.06,7.46,63.73l0.01,1.46
									L573.17,805.53z M609.58,554.97c-2.58,0-5.14,0.21-7.68,0.66c-13.34,2.35-24.83,10.57-34.15,24.44
									c-22.73,33.82-28.26,94.42-14.44,158.14c4.83,22.36,11.78,43.74,20.68,63.57l156.83-31.59
									c-0.32-19.98-2.79-40.68-7.36-61.56C704.48,621.12,654.66,554.97,609.58,554.97z"/>
							</g>
							<g>
								<g>
									<path d="M547.86,627.26c-27.38-8.08-32.67-40.56-32.88-41.94l3.47-0.53c0.05,0.32,5.19,31.66,30.41,39.1L547.86,627.26z"/>
								</g>
								<g>
									<path d="M541.28,659.22c-29.04,0-42.51-33.28-42.64-33.63l3.27-1.29c0.13,0.33,13.32,32.8,41.16,31.35l0.18,3.51
										C542.58,659.2,541.93,659.22,541.28,659.22z"/>
								</g>
								<g>
									<path d="M544.75,706.83c-29.53,0-43.17-29.15-43.31-29.45l3.2-1.46c0.13,0.28,13.22,28.22,41.34,27.38l0.1,3.52
										C545.64,706.82,545.19,706.83,544.75,706.83z"/>
								</g>
							</g>
							<g>
								<path d="M602.82,795.92c-8.42-17.92-15.72-38.43-21.24-60.32c-1.08-4.22-1.99-8.47-2.89-12.61l58.43-28.86l-64.34-10.4
									c-4.44-52.14,7.02-90.8,31.07-93.79c31.55-3.85,72.77,55.13,91.99,131.65c5.12,20.16,7.71,36.89,8.74,53.98L602.82,795.92z"
									/>
								<path d="M601.81,797.92l-0.58-1.24c-8.69-18.48-15.87-38.88-21.35-60.64c-1-3.91-1.85-7.83-2.69-11.68l-0.51-2.32
									l54.73-27.04l-60.27-9.74l-0.12-1.37c-4.69-55.08,8.11-92.64,32.6-95.69c32.33-3.99,74.51,55.69,93.91,132.97
									c5.01,19.68,7.71,36.43,8.79,54.3l0.09,1.53L601.81,797.92z M580.69,723.96c0.81,3.69,1.63,7.45,2.59,11.2
									c5.31,21.06,12.22,40.82,20.55,58.76l98.89-19.78c-1.12-17.08-3.79-33.23-8.59-52.12
									c-18.99-75.62-59.38-134.05-90.07-130.34c-21.92,2.73-33.77,39.04-29.64,90.53l68.41,11.06L580.69,723.96z"/>
							</g>
						</g>
						<g>
							<path style="fill:#FFFFFF;" d="M652.09,636.07c-24.03,8.41-26.35,11.94-25.32,38.51c-8.05-25.22-11.42-27.66-36.74-26.61
								c24.03-8.41,26.35-11.94,25.32-38.51C623.4,634.68,626.77,637.12,652.09,636.07z"/>
						</g>
					</g>
					<g>
						<g>
							<g>
								<path style="fill:#FFFFFF;" d="M996.4,715.99l0.37-0.36c1.24-21.57,0.2-44.76-3.48-68.51
									c-14.61-94.74-64.89-162.81-112.43-152.06c-47.46,10.84-74.14,96.43-59.54,191.12c3.4,22.31,8.83,43.08,15.77,61.7
									L996.4,715.99z"/>
								<path d="M835.96,749.91l-0.52-1.4c-7.18-19.27-12.51-40.15-15.86-62.05c-14.72-95.45,12.6-182.07,60.88-193.1
									c14-3.17,28.93,0.28,43.15,9.97c33.95,23.11,61.31,78.11,71.41,143.54c3.61,23.25,4.79,46.43,3.5,68.88l-0.04,0.7
									l-1.25,1.18l-0.5,0.1L835.96,749.91z M890.93,495.7c-3.25,0-6.47,0.36-9.68,1.09c-46.53,10.62-72.64,95.47-58.19,189.14
									c3.22,21.13,8.32,41.29,15.16,59.95l156.86-31.41c1.17-21.87-0.01-44.43-3.52-67.07c-9.95-64.5-36.74-118.59-69.91-141.17
									C911.35,499.22,901.06,495.7,890.93,495.7z"/>
							</g>
							<g>
								<g>
									<path d="M957,542.35l-2.2-2.74c20.78-16.7,14.34-47.81,14.27-48.13l3.44-0.75C972.8,492.1,979.49,524.27,957,542.35z"/>
								</g>
								<g>
									<path d="M972.7,570.18l-1.19-3.31c26.41-9.48,27.03-44.75,27.03-45.1l3.52,0.03
										C1002.06,522.17,1001.43,559.86,972.7,570.18z"/>
								</g>
								<g>
									<path d="M987.09,615.5l-1.26-3.28c26.45-10.14,28.61-41.17,28.63-41.48l3.51,0.21
										C1017.95,571.28,1015.64,604.55,987.09,615.5z"/>
								</g>
							</g>
							<g>
								<path d="M864.51,740.71c-5.15-16.26-8.73-32.8-11.18-53.49c-9.52-78.47,7.67-149.19,38.33-157.83
									c23.39-6.54,47.85,24.91,62.37,75.03l-56,34.57l64.55,4.16c0.64,4.19,1.31,8.48,1.82,12.82c2.7,22.46,3.26,44.33,1.85,64.22
									L864.51,740.71z"/>
								<path d="M863.31,742.74l-0.48-1.5c-5.39-17-8.86-33.6-11.25-53.81c-9.6-79.21,8.16-150.86,39.6-159.72
									c23.87-6.67,49.19,23.25,64.53,76.23l0.37,1.28l-52.45,32.38l60.46,3.9l0.36,2.36c0.6,3.91,1.21,7.9,1.68,11.92
									c2.69,22.31,3.31,44.03,1.85,64.55l-0.09,1.33L863.31,742.74z M897.71,530.31c-1.87,0-3.73,0.25-5.58,0.77
									c-29.84,8.41-46.46,78.35-37.06,155.92c2.29,19.39,5.59,35.4,10.64,51.67l98.86-19.93c1.32-19.9,0.67-40.94-1.93-62.55
									c-0.45-3.84-1.03-7.64-1.6-11.37l-68.64-4.43l59.56-36.76C938.66,558.51,917.51,530.31,897.71,530.31z"/>
							</g>
						</g>
						<g>
							<path style="fill:#FFFFFF;" d="M933.91,577.12c-24.03,8.41-26.35,11.94-25.32,38.51c-8.05-25.22-11.42-27.66-36.74-26.61
								c24.03-8.41,26.35-11.94,25.32-38.51C905.21,575.73,908.58,578.17,933.91,577.12z"/>
						</g>
					</g>
				</g>
				<g>
					<path style="fill:#712CE5;" d="M760.16,712.74l6.93,30.15c0,0,46.45-14.35,52.47,10.95c6.01,25.3-50.14,27.31-50.14,27.31
						L760.16,712.74z"/>
					<path d="M769.49,782.92l-0.13-3.51c0.36-0.01,36.32-1.47,46.39-14.69c2.35-3.09,3.04-6.51,2.1-10.46
						c-1.07-4.51-3.54-7.81-7.55-10.11c-14.31-8.18-42.41,0.34-42.69,0.43l-1.81,0.56l-7.36-31.99l3.42-0.79l6.52,28.34
						c6.72-1.84,30.07-7.35,43.65,0.4c4.83,2.76,7.94,6.91,9.23,12.35c1.18,4.97,0.27,9.48-2.72,13.41
						C807.48,781.39,771.04,782.86,769.49,782.92z"/>
				</g>
				<g>
					<g id="XMLID_21_">
						<path style="fill:#FFFFFF;" d="M806.24,803.42c50.41-9.35,80.41-42,126.63-51.23c25.95-5.19,52.1-4.89,59.11,24.46
							c12.84,53.75-19.23,99.67-62.87,133.25c-56.37,43.38-129.67,63.59-196.66,45.34c-81.03-22.08-125.14-71.19-121.89-105.33
							c2.88-30.25,22.25-40.24,48.27-44.99C705.17,796.44,760.11,811.97,806.24,803.42z"/>
						<path d="M783.36,963.67c-17.51,0-34.77-2.22-51.37-6.74c-81.38-22.17-126.54-71.91-123.18-107.2
							c3.2-33.61,26.92-42.39,49.7-46.56c23.36-4.27,49.16-2.48,74.11-0.75c24.79,1.73,50.42,3.5,73.29-0.74l0,0
							c25.75-4.78,46.35-15.81,66.27-26.49c19.4-10.39,37.72-20.22,60.34-24.74c22.54-4.51,53.4-6.73,61.17,25.77
							c7.93,33.21,3.35,83.6-63.51,135.05C885.79,945.46,833.57,963.67,783.36,963.67z M691.85,804.06
							c-11.23,0-22.24,0.67-32.71,2.58c-22.57,4.12-43.87,12.24-46.84,43.43c-3.22,33.84,41.02,81.79,120.61,103.47
							c63.18,17.21,136.12,0.37,195.12-45.04c36.08-27.77,76.17-73.12,62.24-131.45c-6.98-29.22-34.15-27.72-57.06-23.14
							c-22.11,4.42-40.21,14.12-59.37,24.39c-20.16,10.8-41,21.97-67.28,26.85c-23.32,4.32-49.18,2.53-74.18,0.79
							C718.93,805.01,705.23,804.06,691.85,804.06z"/>
					</g>
					<g>
						<path d="M696.37,943.89c-25.51-50.69-23.63-105.68-17.57-142.88l3.47,0.57c-5.98,36.69-7.85,90.88,17.24,140.73L696.37,943.89
							z"/>
					</g>
					<g>
						<path d="M800.55,959.62c-11.59-24.85-19.67-51.26-24.01-78.51c-3.85-24.1-4.75-48.78-2.68-73.35l3.5,0.3
							c-2.04,24.29-1.15,48.69,2.65,72.51c4.3,26.92,12.28,53.02,23.73,77.57L800.55,959.62z"/>
					</g>
					<g>
						<path d="M908.02,923.68c-6.93-13.02-19.63-39.45-26.72-70.14c-5.95-25.74-8.24-52.32-6.8-79l3.51,0.19
							c-1.42,26.35,0.83,52.6,6.71,78.02c7,30.3,19.55,56.41,26.4,69.28L908.02,923.68z"/>
					</g>
				</g>
			</g>
			<g>
				<g>
					<g>
						<path d="M494.36,1259.59c-3.15,2.38-6.92,4.3-11.36,5.62c-62.89,18.4-127.49,30.24-191.89,41.5
							c-48.31,8.46-111.95,23.27-157.89-2.92c-25.81-14.71-36.5-43.77-31.08-73.23c4.83-26.26,23.38-51.38,41.32-69.78
							c74.67-76.64,171.59-124.36,263.92-174.17c-2.4,25.9-2.09,52.34,1.16,78.92c-36.46,19.15-72.78,38.48-107.05,61.65
							c-24.2,16.38-50.77,31.23-73.13,50.28c-20.51,17.44-43.75,35.57-56.01,60.51c0,0.11-0.72,2.03-1.5,4.02
							c6.68,1.28,17.39,3.98,19.96,4.12c30.85,1.99,61.66-4.23,91.89-9.63c57-10.23,114.04-20.75,169.94-36.31
							c4.08-1.1,8.15-2.28,12.19-3.45C502.92,1185.54,521.3,1239.3,494.36,1259.59z"/>
					</g>
					<g>
						<g>
							<g>
								<path style="fill:#FFFFFF;" d="M378.96,1211.18c0,0-28.99-12.95-29.02,9.23c-0.03,16.89,10.24,51.43,15.13,66.93
									c2.26,7.15,8.05,12.75,15.23,13.77c4.65,0.66,15.23-4.66,19.65-10.17c12.44,5.32,30.08,17.22,57.99,13.29
									c20.88-2.94,42.2-11.06,59.33-23.89c8.81-6.6,16.29-14.69,19.71-25.59c1.9-6.06,2.72-12.85,1.11-19.08
									c-0.81-3.1-2.24-5.98-4.35-8.35c-0.61-0.69-5.06-5.38-5.06-5.38s11.64-31.46-20.28-36.9c0,0,14.56-50.53-47.44-24.02
									c-3.76,1.6-11.62-15.4-28.47-19.54c-2.5-0.62-19.94-4.63-34.95,4.87C379.7,1157.64,371.33,1184.26,378.96,1211.18z"/>
								<path d="M447,1306.77c-17.98,0-31.16-6.34-41.23-11.19c-1.88-0.91-3.66-1.76-5.34-2.51c-5.13,5.52-15.31,10.51-20.37,9.78
									c-7.59-1.08-14.13-6.96-16.66-14.98c-4.59-14.52-15.24-50.15-15.22-67.46c0.01-5.85,1.91-10.05,5.65-12.47
									c6.63-4.29,17.23-1.5,22.57,0.36c-6.17-26.11,1.89-51.84,20.21-63.44c15.18-9.61,32.91-5.93,36.31-5.09
									c10.78,2.65,18,10.25,22.77,15.29c1.77,1.87,3.98,4.2,4.77,4.3c21.47-9.22,36.58-10.26,44.72-3.07
									c8.72,7.71,6.52,22.19,5.38,27.36c8.78,1.86,15.03,5.93,18.6,12.1c5.74,9.93,2.66,22.1,1.53,25.73
									c1.3,1.37,3.91,4.13,4.37,4.65c2.23,2.51,3.83,5.57,4.73,9.08c1.93,7.44,0.45,15-1.13,20.05
									c-3.1,9.89-9.75,18.55-20.33,26.47c-16.72,12.52-38.08,21.13-60.14,24.23C454.26,1306.52,450.53,1306.77,447,1306.77z
									 M399.41,1288.8l1.23,0.52c2.07,0.88,4.28,1.95,6.66,3.09c11.65,5.61,27.61,13.29,50.4,10.08
									c21.48-3.02,42.27-11.39,58.53-23.56c9.97-7.46,16.21-15.55,19.08-24.71c1.44-4.6,2.8-11.48,1.09-18.11
									c-0.77-2.97-2.1-5.53-3.96-7.63c-0.61-0.69-5.02-5.33-5.02-5.33l-0.75-0.79l0.38-1.03c0.05-0.14,4.93-13.7-0.94-23.83
									c-3.27-5.64-9.32-9.25-17.99-10.74l-1.94-0.33l0.54-1.89c0.05-0.18,4.98-17.81-3.87-25.63c-6.94-6.13-21.18-4.85-41.18,3.7
									c-2.59,1.1-4.95-1.39-8.52-5.15c-4.49-4.74-11.28-11.9-21.06-14.3c-3.16-0.78-19.61-4.2-33.58,4.65
									c-17.52,11.09-25.02,37.54-17.83,62.88l1.02,3.61l-3.43-1.53c-0.15-0.07-15.16-6.66-22.51-1.89
									c-2.71,1.75-4.03,4.87-4.04,9.52c-0.03,16.82,10.52,52.03,15.05,66.39c2.13,6.74,7.55,11.67,13.8,12.56
									c3.82,0.57,13.83-4.29,18.03-9.53L399.41,1288.8z"/>
							</g>
							<g>
								<line style="fill:none;" x1="507.86" y1="1185.54" x2="484.94" y2="1197.83"/>
								
									<rect x="483.4" y="1189.9" transform="matrix(0.8811 -0.4729 0.4729 0.8811 -504.524 376.4255)" width="26.01" height="3.51"/>
							</g>
							<g>
								<line style="fill:none;" x1="528.68" y1="1221.94" x2="503.89" y2="1232.67"/>
								
									<rect x="502.84" y="1225.57" transform="matrix(0.9177 -0.3974 0.3974 0.9177 -445.1964 306.2506)" width="27.02" height="3.52"/>
							</g>
							<g>
								<line style="fill:none;" x1="460.96" y1="1161.01" x2="427.05" y2="1177.02"/>
								
									<rect x="425.22" y="1167.3" transform="matrix(0.9044 -0.4267 0.4267 0.9044 -456.3879 301.2104)" width="37.5" height="3.52"/>
							</g>
							<g>
								<line style="fill:none;" x1="378.96" y1="1211.18" x2="385.55" y2="1237.5"/>
								
									<rect x="380.47" y="1210.79" transform="matrix(0.9701 -0.2427 0.2427 0.9701 -285.7237 129.3726)" width="3.52" height="27.14"/>
							</g>
							<g>
								<line style="fill:none;" x1="395.51" y1="1271.63" x2="399.94" y2="1290.94"/>
								
									<rect x="395.95" y="1271.37" transform="matrix(0.9746 -0.2239 0.2239 0.9746 -276.7842 121.5783)" width="3.52" height="19.81"/>
							</g>
						</g>
					</g>
				</g>
				<g>
					<g>
						<g>
							<path d="M1537.62,745.29c-15.83,16.28-31.06,33.43-46.08,50.84c-50.29,58.18-98.7,119.36-162.15,161.51
								c-28.5,18.91-62.79,28.05-95.11,22.08c-0.46-16.07-1.97-32.2-4.63-48.44c-2.04-12.48-4.67-24.72-7.93-36.67
								c3.09,3.8,6.53,7.17,10.46,9.84c28.22,19.23,61.11-5.8,83.36-23.03c31.52-24.4,57.35-55.27,83.04-85.89
								c15.65-18.63,31.66-36.98,48.02-54.95c12.85-14.13,25.9-28.05,39.2-41.73c13.16-13.53,33.34-17.05,48.29-3.69
								C1547.27,707.04,1550.74,731.79,1537.62,745.29z"/>
						</g>
						<g>
							<path style="fill:#FFFFFF;" d="M1463.18,707.01c-0.11-0.62,82.76-96.62,82.76-96.62c51.1,59.7,53.56,106.6,53.56,106.6
								s-9.98,52.91-79.33,56.16c-0.3,55.12-43.52,19.55-68.73-23.06C1430.32,714.38,1454.77,705.78,1463.18,707.01z"/>
							<path d="M1505.7,803.07c-16.23,0-40.21-25.8-55.77-52.09c-11.68-19.74-9.35-31.01-5.34-36.99c4.57-6.8,12.94-9.19,17.98-8.81
								c3.7-4.97,19.13-23.05,82.04-95.94l1.34-1.55l1.33,1.55c50.9,59.47,53.88,105.71,53.98,107.66l0.01,0.21l-0.04,0.21
								c-0.1,0.54-10.87,53.47-79.32,57.5c-0.36,16.27-4.61,25.62-12.67,27.8C1508.11,802.92,1506.93,803.07,1505.7,803.07z
								 M1461.5,708.65c-4.11,0-10.49,2.08-13.99,7.3c-4.94,7.37-3.06,18.86,5.44,33.24c18.59,31.43,42.9,53.38,55.37,50.03
								c6.52-1.77,10.01-10.79,10.09-26.09l0.01-1.67l1.67-0.08c35.08-1.64,54.32-16.41,64.29-28.51
								c10.06-12.23,12.98-24.28,13.36-26.01c-0.27-3.46-4.73-48.06-51.8-103.78c-22.49,26.06-75.77,87.92-80.9,94.36l0.28,1.65
								l-2.39-0.35C1462.5,708.68,1462.02,708.65,1461.5,708.65z"/>
						</g>
					</g>
					<g>
						<g>
							<g>
								<g>
									<path style="fill:#712CE5;" d="M1454.39,855.5l301.59-175.93l102.33,40.86l0.64,1.33l-413.66,241.7l-0.4-0.59
										C1446.15,949.36,1452.34,872.13,1454.39,855.5z"/>
									<path d="M1444.74,965.81l-1.67-2.49l0.06-0.62c0.38-4.13,1.23-14.22,2.28-26.72c2.45-29.17,5.8-69.12,7.23-80.69l0.11-0.86
										l0.75-0.44l302.32-176.36l103.76,41.43l1.64,3.4L1444.74,965.81z M1456.03,856.58c-1.48,12.6-4.86,52.84-7.11,79.69
										c-0.88,10.44-1.61,19.21-2.06,24.22l409.18-239.07l-99.92-39.9L1456.03,856.58z"/>
								</g>
								<g>
									<path style="fill:#712CE5;" d="M1444.74,962.83l37.21,69.27l413.98-241.49l-37.21-69.27
										C1858.72,721.34,1445.06,963.34,1444.74,962.83z"/>
									<path d="M1481.26,1034.54l-38.07-70.87l1.53-0.89l-0.66-1.55c6.07-2.89,409.7-239.01,413.77-241.39l1.58-0.92l38.87,72.37
										l-1.47,0.86L1481.26,1034.54z M1447.06,963.43l35.57,66.23l410.94-239.72l-35.54-66.17
										c-13.33,7.8-109.3,63.93-205.29,120.02c-51.73,30.22-103.47,60.42-142.29,83.04c-19.41,11.31-35.6,20.72-46.94,27.29
										C1454.52,959.32,1449.72,962.1,1447.06,963.43z"/>
								</g>
							</g>
							<g>
								<g>
									<g>
										<path style="fill:#FFBC00;" d="M1744.97,721.51c5.79,10.75-46.58,52.86-116.98,94.04
											c-70.4,41.18-132.17,65.85-137.96,55.1c-5.79-10.75,46.58-52.86,116.98-94.04
											C1677.41,735.42,1739.18,710.75,1744.97,721.51z"/>
										<path d="M1496.66,874.9c-1.61,0-2.99-0.15-4.13-0.47c-1.93-0.54-3.29-1.53-4.05-2.94
											c-7.33-13.62,55.14-59.83,117.64-96.39c64.01-37.45,121.38-61.56,136.35-57.35c1.93,0.54,3.29,1.53,4.05,2.94
											c7.33,13.62-55.14,59.83-117.64,96.39C1569.73,851.67,1516.27,874.9,1496.66,874.9z M1737.95,720.71
											c-18.46,0-72.18,23.56-130.05,57.41c-74.26,43.44-120.9,83.19-116.32,91.69c0.29,0.54,0.93,0.95,1.91,1.22
											c13.93,3.9,71.38-20.59,133.62-57.01c74.26-43.44,120.9-83.19,116.32-91.69c-0.29-0.54-0.93-0.95-1.91-1.22
											C1740.54,720.85,1739.35,720.71,1737.95,720.71z"/>
									</g>
									<g>
										<path style="fill:#FFBC00;" d="M1745.07,721.42l8.66,18.88c5.77,10.7-46.62,52.88-116.98,94.04
											c-70.44,41.2-131.05,65.69-136.81,54.98l-9.8-18.76c5.81,10.79,67.6-13.94,137.96-55.1
											C1698.53,774.26,1750.88,732.21,1745.07,721.42z"/>
										<path d="M1506.56,893.57c-1.61,0-2.99-0.15-4.13-0.48c-1.92-0.54-3.28-1.53-4.04-2.94l-9.81-18.78l3.11-1.65
											c0.29,0.54,0.94,0.96,1.92,1.23c13.92,3.91,71.35-20.6,133.6-57.01c73.37-42.92,119.78-82.23,116.46-91.37l-0.19-0.42
											l3.14-1.57c0.08,0.15,0.16,0.32,0.22,0.48l8.49,18.5c7.29,13.52-55.18,59.72-117.69,96.29
											C1577.87,870.82,1525.89,893.57,1506.56,893.57z M1494.27,874.66l7.23,13.84c0.28,0.52,0.92,0.93,1.88,1.2
											c13.59,3.83,70.53-20.64,132.48-56.89c74.26-43.44,120.9-83.19,116.32-91.69l-6.19-13.47
											c-8.68,18.68-62.84,57.62-117.02,89.32C1567.08,853.19,1511.42,876.94,1494.27,874.66z"/>
									</g>
									<g>
										<path style="fill:#FFBC00;" d="M1636.99,773.75c-2.06,4.27-7.57,14.18-18.99,21.01c-11.87,7.09-23.31,6.78-27.86,6.4
											c-29.33-54.45-83.45-149.85-112.78-204.3l46.85-27.41L1636.99,773.75z"/>
										<path d="M1593.93,803.06c-1.5,0-2.82-0.07-3.94-0.16l-0.95-0.08l-0.45-0.84c-14.67-27.24-35.9-65.36-56.43-102.22
											c-20.5-36.81-41.69-74.86-56.35-102.07l-0.8-1.49l49.87-29.17l0.87,1.58l113.22,205.1l-0.39,0.82
											c-3.1,6.41-9.04,15.39-19.67,21.75C1609.54,801.85,1600.23,803.06,1593.93,803.06z M1591.23,799.47
											c5.63,0.34,15.71-0.16,25.87-6.22c9.45-5.65,14.92-13.54,17.91-19.45l-111.46-201.92l-43.83,25.64
											c14.61,27.08,35.4,64.41,55.52,100.53C1555.56,734.54,1576.57,772.27,1591.23,799.47z"/>
									</g>
								</g>
								<g>
									<path style="fill:#FFBC00;" d="M1134.31,286.82c0,0,199.77,442.56,384.27,328.24c172.67-106.98-75.2-511.01-75.2-511.01
										L1134.31,286.82z"/>
									<path d="M1454.9,635.66c-12.48,0-25.22-1.97-38.17-5.92c-148.53-45.3-282.69-339.23-284.03-342.2l-0.65-1.43l311.91-184.44
										l0.9,1.47c0.62,1.01,62.53,102.47,102.51,215.71c23.51,66.61,34.97,124.23,34.04,171.27
										c-1.17,59.16-22.01,101.7-61.93,126.44C1498.97,629.28,1477.35,635.66,1454.9,635.66z M1136.57,287.53
										c10.34,22.34,139.49,295.63,281.2,338.85c35.22,10.74,68.83,6.43,99.88-12.8c88.19-54.64,63.05-189.77,26.44-293.5
										c-37.23-105.46-93.54-200.7-101.32-213.62L1136.57,287.53z"/>
								</g>
								<g>
									<g>
										<path style="fill:#FFBC00;" d="M1345.89,588.11c-40.11,15.13-102.55,2.29-157.21-35.75
											c-69.44-48.42-99.59-119.46-67.26-158.56c12.3-14.92,31.86-23.03,55.28-24.71c-4.34-7.7-8.38-15.05-12.1-21.97
											c-26.45,3.86-48.98,14.83-63.95,32.97c-41.63,50.31-9.71,136.94,71.38,193.44c67.72,47.26,148.39,58.46,197.33,31.45
											C1361.35,599.96,1353.59,594.26,1345.89,588.11z"/>
										<path d="M1307.02,621.14c-43.31,0-92.85-16.06-136-46.17c-49.82-34.72-83.23-82.39-89.39-127.54
											c-3.61-26.46,2.5-50.14,17.66-68.46c14.8-17.92,37.29-29.54,65.05-33.58l1.22-0.18l0.58,1.09
											c3.73,6.94,7.8,14.32,12.09,21.93l1.36,2.42l-2.77,0.2c-23.78,1.71-42.48,10.03-54.05,24.07
											c-10.28,12.44-14.38,28.83-11.85,47.4c4.99,36.6,35.17,78.21,78.75,108.61c52.52,36.55,115.04,50.84,155.58,35.55
											l0.94-0.35l0.78,0.62c8.39,6.69,16.02,12.17,23.32,16.77l2.52,1.59l-2.61,1.44
											C1352.36,616.38,1330.61,621.14,1307.02,621.14z M1163.64,349.05c-26.32,4.08-47.61,15.19-61.63,32.16
											c-14.52,17.55-20.36,40.28-16.89,65.75c6.03,44.19,38.89,90.97,87.92,125.13c64.44,44.98,143.16,58.21,192.84,32.76
											c-6.41-4.17-13.09-9.02-20.31-14.75c-41.58,15.11-104.86,0.6-157.89-36.3c-45.04-31.41-75.04-72.91-80.23-111.01
											c-2.67-19.57,1.69-36.9,12.62-50.11c11.75-14.25,30.3-22.9,53.76-25.11C1170.24,361.17,1166.83,354.96,1163.64,349.05z"/>
									</g>
									<g>
										<path style="fill:#FFBC00;" d="M1546.02,120.29c-25.57,4.38-48.72,22.02-66.83,48.28c3.81,7.28,7.84,15.16,11.96,23.39
											c14.41-25.35,33.68-42.37,55.15-46.01c48.97-8.32,91.31,55.6,94.61,142.6c2.81,74.9-24.07,142.43-62.73,165.29
											c0.94,9.57,1.44,18.89,1.54,28.02c52.84-24.21,90.66-106.39,87.21-197.03C1663.11,183.26,1608.94,109.61,1546.02,120.29z"
											/>
										<path d="M1578,484.59l-0.03-2.7c-0.1-9.2-0.62-18.57-1.53-27.87l-0.11-1.11l0.96-0.57
											c39.17-23.17,64.61-90.49,61.87-163.71c-2.12-56.04-21.05-105.16-49.38-128.17c-13.39-10.88-28.31-15.3-43.18-12.76
											c-20.16,3.42-39.31,19.45-53.91,45.14l-1.63,2.86l-1.47-2.94c-4.14-8.26-8.15-16.12-11.95-23.36l-0.49-0.94l0.6-0.87
											c19.11-27.73,42.62-44.67,67.98-49.02l0,0c22.02-3.72,43.8,2.55,63.01,18.17c35.13,28.56,57.54,83.9,59.96,148.05
											c3.43,90.13-33.68,173.69-88.24,198.69L1578,484.59z M1580.04,454.78c0.77,8.11,1.24,16.28,1.4,24.32
											c51.98-25.79,87.07-106.79,83.74-194.19c-2.38-63.15-24.31-117.53-58.66-145.45c-18.4-14.96-39.22-21-60.2-17.43
											c-24.14,4.14-46.62,20.27-65.08,46.68c3.21,6.14,6.58,12.71,10.03,19.57c14.93-24.99,34.28-40.59,54.73-44.05
											c15.89-2.7,31.79,1.97,45.99,13.5c29.09,23.64,48.51,73.74,50.68,130.77C1645.44,362.35,1619.73,430.47,1580.04,454.78z"
											/>
									</g>
								</g>
								<g>
									<path style="fill:#FFBC00;" d="M1442.96,102.95c4.48,8.15-61.15,56.02-146.57,106.91
										c-85.43,50.89-158.3,85.54-162.78,77.39c-4.48-8.15,61.15-56.02,146.57-106.91C1365.61,129.44,1438.49,94.8,1442.96,102.95
										z"/>
									<path d="M1136.78,290.18c-0.85,0-1.58-0.08-2.18-0.25c-1.47-0.4-2.18-1.22-2.52-1.84
										c-6.55-11.92,84.45-71.88,147.21-109.27c70.33-41.9,148.84-82.36,162.69-78.56c1.47,0.4,2.18,1.22,2.52,1.84l0,0
										c6.55,11.92-84.45,71.88-147.21,109.27C1230.03,251.44,1155.33,290.17,1136.78,290.18z M1439.5,103.32
										c-11.73,0-69.48,25.55-158.41,78.53c-96.82,57.68-147.74,98.45-145.92,104.57c4.48,4.43,64.18-20.78,160.33-78.07
										c96.69-57.6,147.6-98.34,145.93-104.55C1441.08,103.48,1440.43,103.32,1439.5,103.32z"/>
								</g>
								<g>
									<g>
										<path style="fill:#FFBC00;" d="M1318.86,443.69c4.62,10.55,10.97,19.74,18.6,27.29c18.33,18.36,43.9,27.39,69.51,24.41
											c9.07-1.02,18.12-3.59,26.86-7.77c8.75-4.18,16.53-9.65,23.19-16.15c20.86-20.14,31.05-49.8,26.98-79.01
											c-1.1-8.24-3.39-16.47-6.86-24.41c-5.49-12.54-13.41-23.11-22.97-31.38c-17.78-15.5-41.16-22.99-64.61-20.39
											c-9.23,0.98-18.46,3.57-27.39,7.83c-8.93,4.27-16.84,9.87-23.58,16.53c-18.71,18.31-28.7,44.3-27.35,70.7
											C1311.78,422.23,1314.26,433.2,1318.86,443.69z"/>
										<path d="M1397.17,497.72c-22.71,0-44.5-9.01-60.96-25.49c-7.93-7.86-14.31-17.22-18.97-27.83l0,0
											c-4.59-10.46-7.2-21.56-7.76-32.97c-1.39-27.09,8.77-53.34,27.87-72.04c6.99-6.9,15.08-12.57,24.05-16.86
											c8.97-4.28,18.38-6.98,27.97-8c23.72-2.63,47.76,4.95,65.95,20.81c10.05,8.69,17.93,19.45,23.43,31.99
											c3.5,7.99,5.85,16.36,6.99,24.88c4.15,29.78-6.14,59.89-27.5,80.52c-6.9,6.72-14.86,12.27-23.66,16.47
											c-8.8,4.21-18.04,6.88-27.43,7.94C1403.82,497.53,1400.49,497.72,1397.17,497.72z M1320.47,442.98
											c4.47,10.2,10.61,19.2,18.22,26.75c18.11,18.13,42.91,26.83,68.07,23.91c9.01-1.01,17.86-3.58,26.31-7.62
											c8.45-4.04,16.1-9.36,22.73-15.82c20.57-19.86,30.45-48.83,26.47-77.52c-1.1-8.2-3.37-16.26-6.73-23.95
											c-5.28-12.06-12.86-22.41-22.51-30.75c-17.46-15.22-40.52-22.5-63.27-19.97c-9.2,0.98-18.22,3.56-26.83,7.67
											c-8.61,4.12-16.39,9.56-23.1,16.19c-18.39,18-28.17,43.28-26.83,69.36C1313.54,422.23,1316.06,432.91,1320.47,442.98
											L1320.47,442.98z"/>
									</g>
									<g>
										<g>
											<polygon style="fill:#FFBC00;" points="1394.22,443.64 1427.64,427.87 1431.43,390.09 1401.79,368.07 1368.37,383.83 
												1364.58,421.62 											"/>
											<path d="M1394.02,445.68l-31.28-23.24l3.98-39.77l35.28-16.64l31.28,23.24l-3.98,39.77L1394.02,445.68z M1366.43,420.8
												l27.99,20.8l31.57-14.89l3.59-35.8l-27.99-20.8L1370.02,385L1366.43,420.8z"/>
										</g>
										<g>
											<path style="fill:#FFBC00;" d="M1318.86,443.69c4.62,10.55,10.97,19.74,18.6,27.29l2.62-1.25l3.79-37.8l-29.64-22.02
												l-2.99,1.43C1311.78,422.23,1314.26,433.2,1318.86,443.69z"/>
											<path d="M1337.1,473.1l-0.88-0.87c-7.94-7.86-14.32-17.23-18.97-27.84l0,0c-4.59-10.46-7.2-21.56-7.76-32.97l-0.06-1.17
												l5-2.39l31.28,23.25l-3.98,39.78L1337.1,473.1z M1320.47,442.98c4.3,9.81,10.13,18.51,17.36,25.88l0.6-0.29l3.59-35.82
												l-27.99-20.8l-0.97,0.46C1313.72,422.99,1316.21,433.26,1320.47,442.98L1320.47,442.98z"/>
										</g>
										<g>
											<path style="fill:#FFBC00;" d="M1338.59,340.63l15.53,11.54l33.44-15.75l2.01-20.16c-9.23,0.98-18.46,3.57-27.39,7.83
												C1353.24,328.38,1345.33,333.99,1338.59,340.63z"/>
											<path d="M1353.92,354.22l-18.02-13.39l1.46-1.44c7-6.9,15.09-12.57,24.06-16.86c8.97-4.28,18.38-6.98,27.97-8l2.15-0.23
												l-2.32,23.3L1353.92,354.22z M1341.3,340.46l13.02,9.68l31.58-14.88l1.69-16.98c-8.45,1.13-16.73,3.62-24.67,7.41
												C1354.94,329.51,1347.68,334.47,1341.3,340.46z"/>
										</g>
										<g>
											<path style="fill:#FFBC00;" d="M1406.97,495.39c9.07-1.02,18.12-3.59,26.86-7.77c8.75-4.18,16.53-9.65,23.19-16.15
												l-14.72-10.95l-33.44,15.75L1406.97,495.39z"/>
											<path d="M1405,497.38l2.22-22.28l35.29-16.63l17.22,12.8l-1.48,1.44c-6.9,6.73-14.86,12.28-23.66,16.48
												c-8.8,4.21-18.04,6.88-27.43,7.94L1405,497.38z M1410.53,477.44l-1.59,15.93c8.26-1.16,16.36-3.63,24.14-7.34
												c7.82-3.74,14.95-8.58,21.23-14.4l-12.19-9.07L1410.53,477.44z"/>
										</g>
										<g>
											<path style="fill:#FFBC00;" d="M1450.64,372.17l29.64,22.02l3.73-1.75c-1.1-8.24-3.39-16.47-6.86-24.41
												c-5.49-12.54-13.41-23.11-22.97-31.38L1450.64,372.17z"/>
											<path d="M1480.07,396.23l-31.28-23.24l3.97-39.87l2.56,2.22c10.05,8.69,17.94,19.46,23.43,32
												c3.5,7.99,5.85,16.36,6.99,24.88l0.17,1.28L1480.07,396.23z M1452.49,371.36l27.99,20.8l1.6-0.75
												c-1.15-7.76-3.35-15.37-6.55-22.66c-4.81-10.97-11.52-20.53-19.96-28.45L1452.49,371.36z"/>
										</g>
									</g>
								</g>
							</g>
						</g>
						<g>
							<g>
								<g>
									<path style="fill:#FFFFFF;" d="M1520.45,650.14c4.33,5.98,11.23,9.74,19.15,11.17c3.87-5.26,9.71-10.33,17.03-14.45
										c10.5-5.95,21.82-8.58,30.83-7.78c4.31-8.69,4.14-18.26-1.45-25.91c-9.77-13.36-28.44-10.98-46.52-0.75
										C1521.36,622.6,1510.68,636.78,1520.45,650.14z"/>
									<path d="M1540.36,663.23l-1.08-0.19c-8.65-1.56-15.85-5.78-20.26-11.87l0,0c-3.57-4.88-4.78-10.08-3.61-15.46
										c1.88-8.66,10.13-17.48,23.21-24.83c21.2-12,39.45-11.54,48.81,1.25c5.81,7.96,6.39,18.07,1.6,27.73l-0.53,1.08l-1.2-0.11
										c-9.03-0.81-19.9,1.95-29.8,7.56c-6.93,3.89-12.63,8.72-16.48,13.96L1540.36,663.23z M1566.54,605.74
										c-7.56,0-16.5,2.74-26.18,8.21c-12.21,6.86-19.84,14.85-21.51,22.51c-0.95,4.36,0.07,8.61,3.01,12.64l0.01,0.01
										c3.7,5.11,9.7,8.73,16.99,10.27c4.12-5.29,9.95-10.13,16.91-14.05c10.06-5.7,21.11-8.62,30.61-8.08
										c3.64-8.12,3.01-16.46-1.79-23.04C1580.47,608.56,1574.22,605.74,1566.54,605.74z"/>
								</g>
								<g>
									<path style="fill:#FFFFFF;" d="M1537.96,685.28c7.49,10.81,29.11,10.29,48.3-1.15c19.19-11.44,28.68-29.47,21.2-40.28
										c-7.49-10.81-29.11-10.29-48.3,1.15C1539.97,656.45,1530.48,674.48,1537.96,685.28z"/>
									<path d="M1556.82,694.75c-8.93,0-16.38-2.81-20.3-8.46l0,0c-2.7-3.9-3.52-8.78-2.36-14.12c2.23-10.28,11.24-21,24.1-28.66
										c19.94-11.89,42.66-12.17,50.65-0.64c2.7,3.9,3.52,8.78,2.36,14.12c-2.23,10.28-11.24,21-24.1,28.66
										C1577,691.7,1566.11,694.75,1556.82,694.75z M1539.41,684.28c6.96,10.04,27.57,9.29,45.96-1.66
										c11.86-7.07,20.46-17.18,22.46-26.39c0.95-4.36,0.32-8.3-1.81-11.38c-6.96-10.05-27.57-9.3-45.96,1.66
										c-11.86,7.07-20.47,17.18-22.47,26.39C1536.65,677.27,1537.27,681.21,1539.41,684.28L1539.41,684.28z"/>
								</g>
								<g>
									<path style="fill:#FFFFFF;" d="M1559.85,721.29c7.49,10.81,29.11,10.29,48.3-1.15s28.68-29.47,21.2-40.28
										c-7.49-10.81-29.11-10.29-48.3,1.15C1561.85,692.45,1552.36,710.48,1559.85,721.29z"/>
									<path d="M1578.7,730.75c-8.93,0-16.38-2.81-20.3-8.46l0,0c-2.7-3.9-3.52-8.79-2.36-14.13c2.24-10.28,11.25-21,24.1-28.66
										c19.94-11.88,42.66-12.18,50.65-0.64c2.7,3.9,3.52,8.78,2.36,14.12c-2.23,10.28-11.24,21-24.1,28.66
										C1598.88,727.71,1587.99,730.75,1578.7,730.75z M1561.3,720.29c6.96,10.04,27.57,9.3,45.96-1.66
										c11.86-7.07,20.47-17.18,22.47-26.39c0.95-4.36,0.32-8.3-1.81-11.38c-6.96-10.05-27.58-9.3-45.96,1.66
										c-11.86,7.07-20.46,17.18-22.46,26.38C1558.54,713.28,1559.16,717.21,1561.3,720.29L1561.3,720.29z"/>
								</g>
							</g>
							<g>
								<path style="fill:#FFFFFF;" d="M1541.06,745.24c19.81-44.6-20.27-55.09-20.27-55.09s21.53-30.93,3.76-52.33
									c-13.65-16.43-36.17,1.55-48.19,21.61c-29.35,48.96,9.55,83.33,11.33,86.52L1541.06,745.24z"/>
								<path d="M1486.14,746.81c-0.19-0.3-0.72-0.89-1.48-1.75c-30.34-34.44-22.09-66.06-9.81-86.53
									c8.16-13.62,22.28-27.82,35.39-28.83c6.13-0.48,11.41,1.88,15.66,7c15.99,19.25,2.13,45.15-2.39,52.48
									c4.81,1.75,15.97,6.92,21.57,18.56c5.02,10.44,4.21,23.3-2.41,38.21l-3.21-1.43c6.19-13.93,7.02-25.79,2.46-35.26
									c-6.4-13.31-21.42-17.37-21.57-17.41l-2.43-0.64l1.43-2.07c0.21-0.3,20.55-30.1,3.84-50.2c-3.48-4.19-7.73-6.11-12.69-5.74
									c-11.86,0.91-24.94,14.28-32.65,27.13c-16.97,28.31-13.79,56.03,9.44,82.4c1.13,1.28,1.65,1.87,1.91,2.35L1486.14,746.81z"
									/>
							</g>
						</g>
					</g>
				</g>
			</g>
		</g>
	</g>
</g>
</svg>
